<?xml version="1.0" standalone="no"?>
<!DOCTYPE svg PUBLIC "-//W3C//DTD SVG 1.1//EN" "http://www.w3.org/Graphics/SVG/1.1/DTD/svg11.dtd" >
<svg xmlns="http://www.w3.org/2000/svg">
<metadata></metadata>
<defs>
<font id="clear_sansbold" horiz-adv-x="908" >
<font-face units-per-em="2048" ascent="1489" descent="-559" />
<missing-glyph horiz-adv-x="428" />
<glyph unicode="ff" horiz-adv-x="1147" d="M607 1105q-62 21 -121 21q-66 0 -90.5 -27.5t-24.5 -97.5v-88h185v-179h-185v-734h-225v734h-116v179h116v88q0 170 84 245.5t253 75.5q79 0 168 -21zM1180 1105q-62 21 -121 21q-66 0 -90.5 -27.5t-24.5 -97.5v-88h185v-179h-185v-734h-225v734h-116v179h116v88 q0 170 84 245.5t253 75.5q79 0 168 -21z" />
<glyph unicode="fi" horiz-adv-x="1050" d="M607 1105q-62 21 -121 21q-66 0 -90.5 -27.5t-24.5 -97.5v-88h185v-179h-185v-734h-225v734h-116v179h116v88q0 170 84 245.5t253 75.5q79 0 168 -21zM937 1161q0 -63 -31.5 -88.5t-95.5 -25.5q-72 0 -97.5 30t-25.5 84q0 61 28 87.5t95 26.5t97 -25.5t30 -88.5zM699 0 v913h225v-913h-225z" />
<glyph unicode="fl" horiz-adv-x="1050" d="M607 1105q-62 21 -121 21q-66 0 -90.5 -27.5t-24.5 -97.5v-88h185v-179h-185v-734h-225v734h-116v179h116v88q0 170 84 245.5t253 75.5q79 0 168 -21zM699 0v1295h225v-1295h-225z" />
<glyph unicode="ffi" horiz-adv-x="1625" d="M607 1105q-62 21 -121 21q-66 0 -90.5 -27.5t-24.5 -97.5v-88h185v-179h-185v-734h-225v734h-116v179h116v88q0 170 84 245.5t253 75.5q79 0 168 -21zM1180 1105q-62 21 -121 21q-66 0 -90.5 -27.5t-24.5 -97.5v-88h185v-179h-185v-734h-225v734h-116v179h116v88 q0 170 84 245.5t253 75.5q79 0 168 -21zM1512 1161q0 -63 -31.5 -88.5t-95.5 -25.5q-72 0 -97.5 30t-25.5 84q0 61 28 87.5t95 26.5t97 -25.5t30 -88.5zM1274 0v913h225v-913h-225z" />
<glyph unicode="ffl" horiz-adv-x="1625" d="M607 1105q-62 21 -121 21q-66 0 -90.5 -27.5t-24.5 -97.5v-88h185v-179h-185v-734h-225v734h-116v179h116v88q0 170 84 245.5t253 75.5q79 0 168 -21zM1180 1105q-62 21 -121 21q-66 0 -90.5 -27.5t-24.5 -97.5v-88h185v-179h-185v-734h-225v734h-116v179h116v88 q0 170 84 245.5t253 75.5q79 0 168 -21zM1274 0v1295h225v-1295h-225z" />
<glyph horiz-adv-x="0" />
<glyph horiz-adv-x="0" />
<glyph unicode=" "  horiz-adv-x="428" />
<glyph unicode="&#x09;" horiz-adv-x="428" />
<glyph unicode="&#xa0;" horiz-adv-x="428" />
<glyph unicode="!" horiz-adv-x="508" d="M349 383h-187l-30 821h244zM396 121q0 -75 -34 -104t-109 -29q-82 0 -111.5 32.5t-29.5 100.5q0 71 31.5 102.5t109.5 31.5q80 0 111.5 -30.5t31.5 -103.5z" />
<glyph unicode="&#x22;" horiz-adv-x="849" d="M692 672h-161l-39 532h239zM319 672h-161l-39 532h239z" />
<glyph unicode="#" horiz-adv-x="1222" d="M918 714l-61 -224h202v-157h-243l-90 -333h-168l90 333h-215l-91 -333h-167l90 333h-202v157h243l61 224h-203v157h246l90 335h168l-90 -335h215l91 335h167l-91 -335h200v-157h-242zM534 714l-60 -224h216l60 224h-216z" />
<glyph unicode="$" horiz-adv-x="1113" d="M1017 374q0 -144 -97 -224t-275 -95v-171h-157v167q-270 28 -381 202l178 121q33 -43 86.5 -82t116.5 -46v274q-143 36 -214.5 75.5t-108.5 98t-37 138.5q0 139 96.5 214.5t263.5 90.5v92h157v-92q125 -9 215 -59.5t141 -135.5l-168 -119q-29 41 -78 76t-110 43v-243 q166 -44 234 -84t103 -98t35 -143zM488 946q-56 -4 -92 -28.5t-36 -72.5q0 -34 26.5 -59.5t101.5 -45.5v206zM786 355q0 44 -30 72.5t-111 53.5v-237q64 7 102.5 36.5t38.5 74.5z" />
<glyph unicode="%" horiz-adv-x="1881" d="M1462 -27q-160 0 -250 99.5t-90 287.5q0 191 87 291.5t253 100.5q168 0 255.5 -101t87.5 -291q0 -188 -89 -287.5t-254 -99.5zM513 -44l650 1293h207l-652 -1293h-205zM417 451q-161 0 -250.5 99.5t-89.5 287.5q0 192 88 291.5t252 99.5q167 0 254.5 -101t87.5 -290 q0 -188 -88 -287.5t-254 -99.5zM1462 130q71 0 100 55.5t29 174.5q0 85 -14 138t-39 75t-76 22q-67 0 -96.5 -56t-29.5 -179q0 -132 32.5 -181t93.5 -49zM417 607q69 0 98.5 55.5t29.5 175.5q0 118 -27.5 176.5t-100.5 58.5q-68 0 -97 -56.5t-29 -178.5q0 -132 32 -181.5 t94 -49.5z" />
<glyph unicode="&#x26;" horiz-adv-x="1232" d="M913 0l-63 75q-63 -43 -137.5 -71.5t-187.5 -28.5q-206 0 -325.5 94.5t-119.5 255.5q0 113 50 188t201 169q-51 63 -87.5 129t-36.5 133q0 139 92.5 212t263.5 73q143 0 235.5 -64t92.5 -182q0 -63 -27 -118.5t-74 -104t-144 -112.5l229 -269q56 76 89 200l197 -45 q-44 -183 -153 -310l189 -224h-284zM665 981q0 36 -29.5 59.5t-77.5 23.5q-61 0 -92 -29.5t-31 -80.5q0 -36 20.5 -71t61.5 -81q56 38 89.5 68t46 53t12.5 58zM458 532q-82 -51 -114.5 -99t-32.5 -110q0 -79 58.5 -122.5t159.5 -43.5q112 0 197 66z" />
<glyph unicode="'" horiz-adv-x="477" d="M319 672h-161l-39 532h239z" />
<glyph unicode="(" horiz-adv-x="744" d="M454 -344q-356 377 -356 832q0 459 356 836h255q-189 -178 -293.5 -381t-104.5 -455q0 -251 104.5 -452t293.5 -380h-255z" />
<glyph unicode=")" horiz-adv-x="744" d="M36 -344q188 179 292.5 380t104.5 452q0 252 -104.5 455t-292.5 381h255q355 -377 355 -836q0 -455 -355 -832h-255z" />
<glyph unicode="*" horiz-adv-x="792" d="M688 726l-225 138l9 -226h-151l10 226l-226 -138l-78 129l245 123l-245 127l78 130l225 -139l-9 226h151l-11 -226l227 139l78 -132l-246 -123l246 -125z" />
<glyph unicode="+" horiz-adv-x="1241" d="M711 417v-415h-179v415h-416v178h416v417h179v-417h415v-178h-415z" />
<glyph unicode="," horiz-adv-x="508" d="M126 -255q36 60 63.5 131.5t31.5 114.5q-57 4 -83 37t-26 98t30.5 102t114.5 37q139 0 139 -156q0 -107 -36.5 -204t-79.5 -160h-154z" />
<glyph unicode="-" horiz-adv-x="683" d="M71 347v221h542v-221h-542z" />
<glyph unicode="." horiz-adv-x="508" d="M396 126q0 -75 -34 -106.5t-109 -31.5q-82 0 -111.5 35.5t-29.5 102.5q0 71 31.5 105t109.5 34q80 0 111.5 -33t31.5 -106z" />
<glyph unicode="/" horiz-adv-x="901" d="M211 -260h-221l600 1582h223z" />
<glyph unicode="0" horiz-adv-x="1113" d="M1027 602q0 -324 -114 -476.5t-357 -152.5q-241 0 -355 152.5t-114 474.5q0 323 114 476t355 153q243 0 357 -152t114 -475zM773 602q0 216 -52.5 316.5t-164.5 100.5t-164 -101.5t-52 -317.5q0 -215 52 -315.5t164 -100.5t164.5 101t52.5 317z" />
<glyph unicode="1" horiz-adv-x="1113" d="M508 0v807h-292v166q125 7 189 29.5t102 69.5t59 132h187v-1204h-245z" />
<glyph unicode="2" horiz-adv-x="1047" d="M92 0v205q142 120 258.5 228.5t180 180.5t99 137.5t35.5 137.5q0 57 -43 90t-117 33q-81 0 -132.5 -37.5t-85.5 -88.5l-198 139q74 110 175 157t253 47q186 0 293.5 -87t107.5 -244q0 -116 -42.5 -203.5t-120 -169.5t-194 -181.5t-143.5 -119.5h539v-224h-865z" />
<glyph unicode="3" horiz-adv-x="1047" d="M918 338q0 -185 -121.5 -274t-333.5 -89q-152 0 -256.5 55t-149.5 140l198 134q32 -49 80 -79.5t130 -30.5q105 0 152.5 40t47.5 123q0 167 -221 167h-107v210h93q110 0 160.5 43.5t50.5 113.5q0 51 -36.5 85t-119.5 34q-84 0 -134 -26.5t-86 -80.5l-195 138 q71 96 172.5 142t260.5 46q121 0 211 -37.5t136 -104.5t46 -153q0 -236 -244 -296q120 -8 193 -90.5t73 -209.5z" />
<glyph unicode="4" horiz-adv-x="1113" d="M894 199v-199h-235v199h-604v226l588 779h251v-794h148v-211h-148zM659 882l-365 -472h365v472z" />
<glyph unicode="5" horiz-adv-x="1047" d="M957 396q0 -197 -125.5 -309t-362.5 -112q-295 0 -426 198l195 138q67 -117 227 -117q241 0 241 207q0 87 -63.5 137t-175.5 50q-120 0 -182 -64h-171l71 680h704v-224h-508l-24 -212q82 34 183 34q193 0 305 -103.5t112 -302.5z" />
<glyph unicode="6" horiz-adv-x="1047" d="M542 -25q-217 0 -336 144t-119 410q0 341 128 520.5t373 179.5q232 0 344 -98l-139 -189q-43 38 -91 57.5t-114 19.5q-117 0 -170.5 -80t-68.5 -228q69 47 124.5 65t132.5 18q169 0 268.5 -104t99.5 -299q0 -194 -116.5 -305t-315.5 -111zM544 185q82 0 133.5 43.5 t51.5 156.5q0 92 -51.5 146.5t-137.5 54.5q-68 0 -119.5 -22t-78.5 -44q0 -133 20 -195.5t63.5 -101t118.5 -38.5z" />
<glyph unicode="7" horiz-adv-x="1113" d="M549 0h-275l444 980h-620v224h903v-150z" />
<glyph unicode="8" horiz-adv-x="1047" d="M973 326q0 -167 -116.5 -259t-332.5 -92q-214 0 -332.5 88t-118.5 263q0 107 60.5 187t162.5 126q-98 48 -146 116.5t-48 147.5q0 159 111.5 242.5t310.5 83.5q194 0 307 -81t113 -243q0 -54 -25.5 -100t-66.5 -83.5t-125 -83.5q100 -49 148 -91.5t73 -97.5t25 -123z M704 901q0 58 -42 97t-138 39q-104 0 -143 -39t-39 -91q0 -40 17.5 -67t58 -57t106.5 -56q102 45 141 87.5t39 86.5zM727 326q0 75 -50 124.5t-153 98.5q-111 -49 -158 -98.5t-47 -125.5q0 -68 49 -111.5t156 -43.5t155 45t48 111z" />
<glyph unicode="9" horiz-adv-x="1047" d="M238 262q88 -77 223 -77q203 0 238 308q-53 -35 -107 -59t-131 -24q-185 0 -286.5 104.5t-101.5 299.5q0 188 116 301.5t308 113.5q236 0 349.5 -147t113.5 -407q0 -336 -127 -518t-372 -182q-242 0 -359 100zM508 619q68 0 119.5 22t78.5 43q0 183 -48.5 259t-157.5 76 q-85 0 -133.5 -52.5t-48.5 -146.5q0 -92 50.5 -146.5t139.5 -54.5z" />
<glyph unicode=":" horiz-adv-x="508" d="M396 773q0 -74 -34 -106.5t-109 -32.5q-82 0 -111.5 36t-29.5 103q0 72 31.5 106t109.5 34q80 0 111.5 -33t31.5 -107zM396 126q0 -75 -34 -106.5t-109 -31.5q-82 0 -111.5 35.5t-29.5 102.5q0 71 31.5 105t109.5 34q80 0 111.5 -33t31.5 -106z" />
<glyph unicode=";" horiz-adv-x="508" d="M396 773q0 -74 -34 -106.5t-109 -32.5q-82 0 -111.5 36t-29.5 103q0 72 31.5 106t109.5 34q80 0 111.5 -33t31.5 -107zM396 109q0 -107 -36.5 -204t-79.5 -160h-154q36 60 63.5 131.5t31.5 114.5q-57 4 -83 37t-26 98t30.5 102t114.5 37q139 0 139 -156z" />
<glyph unicode="&#x3c;" horiz-adv-x="1241" d="M114 418v177l1012 417v-196l-754 -308l754 -309v-196z" />
<glyph unicode="=" horiz-adv-x="1241" d="M116 631v178h1010v-178h-1010zM116 203v178h1010v-178h-1010z" />
<glyph unicode="&#x3e;" horiz-adv-x="1241" d="M114 3v196l753 309l-753 308v196l1012 -417v-177z" />
<glyph unicode="?" horiz-adv-x="931" d="M289 347v262q142 59 204.5 97.5t93 81t30.5 98.5q0 133 -172 133q-78 0 -125.5 -31t-86.5 -95l-203 121q60 107 160.5 161t253.5 54q207 0 316 -85.5t109 -240.5q0 -86 -35 -153t-99.5 -122t-209.5 -125v-156h-236zM552 121q0 -75 -33.5 -104t-108.5 -29 q-82 0 -111.5 32.5t-29.5 100.5q0 71 31 102.5t110 31.5q80 0 111 -31.5t31 -102.5z" />
<glyph unicode="@" horiz-adv-x="1696" d="M1605 495q0 -147 -39 -254t-118 -167t-195 -60q-86 0 -143 23.5t-82 85.5q-122 -86 -246 -86q-110 0 -186.5 51.5t-117 145t-40.5 217.5q0 201 98.5 319.5t274.5 118.5q98 0 201 -61v36h187v-606q0 -57 19.5 -70t44.5 -13q56 0 92.5 40t56 111.5t19.5 161.5 q0 285 -146.5 434t-422.5 149q-169 0 -306.5 -76.5t-214 -212.5t-76.5 -303q0 -180 73.5 -314t207 -204.5t313.5 -70.5q107 0 198.5 7.5t191.5 31.5l34 -157q-165 -41 -426 -41q-226 0 -400 91t-270.5 263t-96.5 396q0 208 99.5 380t278 270t392.5 98q350 0 547.5 -194 t197.5 -540zM1010 659q-99 60 -172 60q-102 0 -154.5 -63t-52.5 -204q0 -124 47.5 -182t137.5 -58q77 0 194 80v367z" />
<glyph unicode="A" horiz-adv-x="1163" d="M23 0l399 1204h319l400 -1204h-252l-80 244h-464l-78 -244h-244zM415 459h325l-162 498z" />
<glyph unicode="B" horiz-adv-x="1129" d="M1053 349q0 -181 -124.5 -265t-345.5 -84h-453v1204h426q231 0 331 -67.5t100 -213.5q0 -112 -54 -181.5t-170 -93.5q151 -21 220.5 -95.5t69.5 -203.5zM740 869q0 69 -50.5 95.5t-157.5 26.5h-156v-258h149q109 0 162 30t53 106zM802 371q0 81 -54.5 114.5t-205.5 33.5 h-166v-301h124q144 0 198.5 13.5t79 46.5t24.5 93z" />
<glyph unicode="C" horiz-adv-x="1159" d="M1110 199q-77 -115 -190 -169.5t-277 -54.5q-559 0 -559 627q0 321 141.5 474t408.5 153q177 0 288.5 -59.5t169.5 -155.5l-191 -148q-41 62 -76 90t-79.5 42t-106.5 14q-147 0 -224.5 -94.5t-77.5 -315.5q0 -206 72.5 -308t231.5 -102q107 0 166.5 41t108.5 109z" />
<glyph unicode="D" horiz-adv-x="1142" d="M1067 602q0 -217 -60 -349.5t-180.5 -192.5t-340.5 -60h-367v1204h364q213 0 338.5 -61.5t185.5 -192.5t60 -348zM814 604q0 157 -30.5 233.5t-104.5 109.5t-220 33h-94v-756h94q146 0 219.5 33.5t104.5 112t31 234.5z" />
<glyph unicode="E" horiz-adv-x="999" d="M130 0v1204h783v-217h-537v-256h452v-218h-452v-289h537v-224h-783z" />
<glyph unicode="F" horiz-adv-x="960" d="M376 980v-261h444v-216h-444v-503h-246v1204h775v-224h-529z" />
<glyph unicode="G" horiz-adv-x="1231" d="M927 866q-47 74 -113 110t-166 36q-164 0 -237.5 -106t-73.5 -314q0 -207 72.5 -303.5t233.5 -96.5q122 0 224 51v187h-235v216h482v-532q-84 -63 -208 -101t-255 -38q-282 0 -424.5 147t-142.5 470q0 637 561 637q163 0 285 -54.5t185 -160.5z" />
<glyph unicode="H" horiz-adv-x="1225" d="M850 0v512h-474v-512h-246v1204h246v-468h474v468h246v-1204h-246z" />
<glyph unicode="I" horiz-adv-x="758" d="M670 0h-581v189h168v826h-168v189h581v-189h-167v-826h167v-189z" />
<glyph unicode="J" horiz-adv-x="803" d="M670 328q0 -191 -96 -273t-302 -82q-44 0 -123 13t-132 34l75 218q28 -14 89.5 -30.5t96.5 -16.5q64 0 92.5 17t41 60.5t12.5 125.5v810h246v-876z" />
<glyph unicode="K" horiz-adv-x="1113" d="M782 0l-333 503l-73 -85v-418h-246v1204h246v-470l394 470h286l-449 -518l481 -686h-306z" />
<glyph unicode="L" horiz-adv-x="903" d="M130 0v1204h246v-980h506v-224h-752z" />
<glyph unicode="M" horiz-adv-x="1450" d="M1083 0v809l-289 -503h-142l-285 503v-809h-237v1204h283l314 -572l317 572h277v-1204h-238z" />
<glyph unicode="N" horiz-adv-x="1227" d="M809 0l-438 860v-860h-241v1204h319l408 -812v812h241v-1204h-289z" />
<glyph unicode="O" horiz-adv-x="1186" d="M1112 602q0 -314 -132.5 -470.5t-386.5 -156.5q-267 0 -392.5 164.5t-125.5 462.5q0 299 125.5 463t392.5 164q269 0 394 -164t125 -463zM859 602q0 214 -60.5 312t-205.5 98q-144 0 -204.5 -98t-60.5 -312t61.5 -312t203.5 -98q145 0 205.5 98t60.5 312z" />
<glyph unicode="P" horiz-adv-x="1077" d="M1010 800q0 -217 -102 -322.5t-332 -105.5h-200v-372h-246v1204h453q204 0 315.5 -95t111.5 -309zM757 799q0 101 -56 146.5t-202 45.5h-123v-405h100q135 0 186.5 19t73 63.5t21.5 130.5z" />
<glyph unicode="Q" horiz-adv-x="1186" d="M1115 -272q-29 -10 -102 -20.5t-140 -10.5q-347 0 -401 287q-185 28 -291 178.5t-106 439.5q0 301 125.5 464t394.5 163q267 0 392 -164t125 -463q0 -532 -372 -614q8 -47 37 -68.5t103 -21.5q40 0 91.5 8.5t87.5 18.5zM859 602q0 214 -60.5 312t-203.5 98 q-148 0 -207.5 -98t-59.5 -312t60.5 -312t206.5 -98t205 99.5t59 310.5z" />
<glyph unicode="R" horiz-adv-x="1117" d="M807 0l-307 456h-124v-456h-246v1204h438q232 0 339.5 -83.5t107.5 -273.5q0 -154 -64.5 -245.5t-184.5 -116.5l322 -485h-281zM766 836q0 92 -46.5 123.5t-153.5 31.5h-190v-321h180q83 0 127 15.5t63.5 48.5t19.5 102z" />
<glyph unicode="S" horiz-adv-x="1069" d="M996 349q0 -181 -118.5 -277.5t-350.5 -96.5q-160 0 -278 53t-192 171l189 145q42 -60 79.5 -89.5t88.5 -46t118 -16.5q100 0 156.5 34.5t56.5 104.5q0 40 -19.5 67t-59 47t-135.5 45q-94 25 -177 50.5t-143.5 66.5t-95.5 103t-35 156q0 171 115.5 267t331.5 96 q313 0 442 -214l-187 -146q-49 77 -111 110t-147 33q-86 0 -139.5 -31t-53.5 -97q0 -58 56 -89t194 -62q77 -20 151.5 -43.5t133.5 -64t94.5 -107t35.5 -169.5z" />
<glyph unicode="T" horiz-adv-x="1047" d="M646 980v-980h-245v980h-371v224h987v-224h-371z" />
<glyph unicode="U" horiz-adv-x="1251" d="M1121 503q0 -283 -115 -406.5t-380 -123.5q-263 0 -379.5 122.5t-116.5 407.5v701h246v-684q0 -122 23.5 -192.5t74.5 -103.5t150 -33q140 0 195.5 74t55.5 252v687h246v-701z" />
<glyph unicode="V" horiz-adv-x="1081" d="M684 0h-290l-371 1204h249l272 -898l270 898h245z" />
<glyph unicode="W" horiz-adv-x="1594" d="M1246 0h-252l-201 796l-203 -796h-248l-305 1204h245l192 -786l199 786h243l201 -791l198 791h242z" />
<glyph unicode="X" horiz-adv-x="1118" d="M25 0l403 604l-392 600h279l250 -405l258 405h271l-395 -595l393 -609h-276l-258 415l-262 -415h-271z" />
<glyph unicode="Y" horiz-adv-x="1033" d="M639 459v-459h-247v454l-376 750h268l235 -504l240 504h258z" />
<glyph unicode="Z" horiz-adv-x="997" d="M63 0v207l552 773h-526v224h819v-197l-557 -783h572v-224h-860z" />
<glyph unicode="[" horiz-adv-x="664" d="M134 -344v1639h477v-180h-269v-1279h269v-180h-477z" />
<glyph unicode="\" horiz-adv-x="901" d="M692 -260l-603 1582h222l602 -1582h-221z" />
<glyph unicode="]" horiz-adv-x="664" d="M53 -344v180h270v1279h-270v180h478v-1639h-478z" />
<glyph unicode="^" horiz-adv-x="1131" d="M833 517l-267 484l-268 -484h-191l378 687h161l379 -687h-192z" />
<glyph unicode="_" horiz-adv-x="890" d="M-9 -223v89h909v-89h-909z" />
<glyph unicode="`" d="M430 1051l-260 314h274l163 -314h-177z" />
<glyph unicode="a" horiz-adv-x="990" d="M665 0v95q-133 -122 -286 -122q-151 0 -228.5 79.5t-77.5 204.5q0 97 39.5 160.5t117.5 99.5t224 51l192 18v41q0 77 -46 105t-135 28q-73 0 -125.5 -24t-77.5 -70l-175 113q46 77 144.5 118.5t237.5 41.5q213 0 307.5 -74.5t94.5 -244.5v-620h-206zM646 424l-114 -11 q-120 -10 -174 -46t-54 -107q0 -63 35 -86t93 -23q40 0 99 26t115 73v174z" />
<glyph unicode="b" horiz-adv-x="1058" d="M978 463q0 -227 -95.5 -358.5t-271.5 -131.5q-70 0 -152 32t-131 80l-30 -85h-172v1295h225v-455q123 99 273 99q183 0 268.5 -126.5t85.5 -349.5zM746 459q0 141 -44 211.5t-143 70.5q-54 0 -110.5 -25.5t-97.5 -63.5v-399q37 -32 90.5 -57t103.5 -25q97 0 149 73.5 t52 214.5z" />
<glyph unicode="c" horiz-adv-x="921" d="M880 130q-52 -77 -137 -117t-216 -40q-221 0 -334 120.5t-113 357.5q0 230 109.5 359t329.5 129q117 0 209 -38.5t139 -118.5l-167 -119q-30 41 -71 60.5t-105 19.5q-115 0 -164 -70.5t-49 -218.5t50.5 -216t170.5 -68q53 0 96.5 14.5t82.5 65.5z" />
<glyph unicode="d" horiz-adv-x="1058" d="M726 0v89q-63 -53 -132.5 -84.5t-158.5 -31.5q-172 0 -263.5 124.5t-91.5 351.5q0 232 100.5 361t282.5 129q64 0 132 -26.5t112 -67.5v450h225v-1295h-206zM707 659q-35 33 -88 57.5t-107 24.5q-91 0 -146 -77.5t-55 -211.5q0 -131 45 -206t139 -75q56 0 113.5 26 t98.5 63v399z" />
<glyph unicode="e" horiz-adv-x="994" d="M311 398q7 -122 60 -175t167 -53q66 0 116 16.5t87 63.5l167 -120q-55 -79 -142 -118t-239 -39q-225 0 -336 118.5t-111 357.5q0 490 439 490q194 0 296.5 -110t102.5 -321v-110h-607zM695 552q0 208 -182 208q-60 0 -98 -20.5t-61 -60.5t-36 -127h377z" />
<glyph unicode="f" horiz-adv-x="573" d="M607 1105q-62 21 -121 21q-66 0 -90.5 -27.5t-24.5 -97.5v-88h185v-179h-185v-734h-225v734h-116v179h116v88q0 170 84 245.5t253 75.5q79 0 168 -21z" />
<glyph unicode="g" horiz-adv-x="1058" d="M932 17q0 -182 -112.5 -271.5t-360.5 -89.5q-204 0 -357 79l66 183q142 -66 291 -66q140 0 194 40t54 135v75q-111 -102 -269 -102q-167 0 -262.5 120t-95.5 345q0 141 45 248.5t131.5 166.5t208.5 59q73 0 145 -32t121 -81l29 87h172v-896zM707 659q-92 82 -201 82 q-81 0 -138 -74.5t-57 -197.5q0 -139 50.5 -205.5t130.5 -66.5q111 0 215 90v372z" />
<glyph unicode="h" horiz-adv-x="1058" d="M714 0v503q0 144 -27 191t-95 47q-100 0 -241 -132v-609h-225v1295h225v-501q71 72 152 108.5t158 36.5q153 0 215.5 -86.5t62.5 -243.5v-609h-225z" />
<glyph unicode="i" horiz-adv-x="477" d="M364 1161q0 -63 -31.5 -88.5t-95.5 -25.5q-72 0 -97.5 30t-25.5 84q0 61 28 87.5t95 26.5t97 -25.5t30 -88.5zM126 0v913h225v-913h-225z" />
<glyph unicode="j" horiz-adv-x="489" d="M376 1161q0 -63 -31.5 -88.5t-94.5 -25.5q-72 0 -98 30t-26 84q0 61 28 87.5t96 26.5t97 -25.5t29 -88.5zM364 -39q0 -164 -73 -234.5t-240 -70.5q-37 0 -98 8.5t-94 17.5l49 195q63 -25 131 -25t84 42t16 138v881h225v-952z" />
<glyph unicode="k" horiz-adv-x="957" d="M682 0l-244 378l-87 -94v-284h-225v1295h225v-741l307 359h260l-345 -384l364 -529h-255z" />
<glyph unicode="l" horiz-adv-x="477" d="M126 0v1295h225v-1295h-225z" />
<glyph unicode="m" horiz-adv-x="1557" d="M1214 0v538q0 81 -9.5 126t-29.5 61t-65 16q-51 0 -108.5 -38t-107.5 -94v-609h-224v538q0 88 -8 128t-28 57.5t-68 17.5q-41 0 -96 -31.5t-119 -100.5v-609h-225v913h225v-119q62 68 131 106.5t152 38.5q114 0 168.5 -39.5t74.5 -115.5q78 78 146.5 116.5t159.5 38.5 q133 0 194 -76t61 -254v-609h-224z" />
<glyph unicode="n" horiz-adv-x="1058" d="M714 0v503q0 143 -25.5 190.5t-96.5 47.5q-100 0 -241 -132v-609h-225v913h225v-119q71 72 152 108.5t158 36.5q140 0 209 -76.5t69 -253.5v-609h-225z" />
<glyph unicode="o" horiz-adv-x="1035" d="M955 454q0 -228 -105 -354.5t-331 -126.5q-439 0 -439 481q0 232 105.5 358.5t333.5 126.5q226 0 331 -126.5t105 -358.5zM723 454q0 151 -47 220t-157 69t-159 -71t-49 -218q0 -146 48.5 -215t159.5 -69q108 0 156 68t48 216z" />
<glyph unicode="p" horiz-adv-x="1058" d="M978 463q0 -147 -44.5 -259.5t-127 -171.5t-197.5 -59q-151 0 -258 95v-412h-225v1257h207v-90q63 54 132 85t159 31q173 0 263.5 -122t90.5 -354zM746 459q0 133 -46 207.5t-137 74.5q-55 0 -113 -25.5t-99 -63.5v-399q35 -32 88 -57t108 -25q92 0 145.5 79t53.5 209z " />
<glyph unicode="q" horiz-adv-x="1058" d="M707 -344v417q-122 -100 -272 -100q-172 0 -263.5 122t-91.5 354q0 231 99 360.5t282 129.5q83 0 155 -35t115 -78l29 87h172v-1257h-225zM707 659q-41 38 -93.5 60t-101.5 22q-91 0 -146 -77.5t-55 -211.5q0 -133 43.5 -207t140.5 -74q56 0 113.5 26t98.5 63v399z" />
<glyph unicode="r" horiz-adv-x="730" d="M677 693q-35 18 -92 18q-63 0 -119 -30t-115 -88v-593h-225v913h225v-131q57 63 123 104t148 41q70 0 99 -19z" />
<glyph unicode="s" horiz-adv-x="892" d="M823 260q0 -90 -45.5 -154.5t-129.5 -98.5t-192 -34q-286 0 -390 159l167 118q41 -56 94.5 -74.5t114.5 -18.5q160 0 160 93q0 41 -45 63t-142 45q-182 40 -256 113.5t-74 189.5q0 121 93 199.5t273 78.5q122 0 215.5 -39.5t144.5 -117.5l-168 -119q-60 92 -196 92 q-69 0 -105 -24t-36 -61q0 -36 32.5 -57t126.5 -45q156 -38 222.5 -76t101 -94t34.5 -138z" />
<glyph unicode="t" horiz-adv-x="642" d="M631 0q-91 -27 -191 -27q-158 0 -227.5 71.5t-69.5 231.5v458h-116v179h116v254h224v-254h212v-179h-212v-430q0 -85 26.5 -115.5t75.5 -30.5q62 0 123 26z" />
<glyph unicode="u" horiz-adv-x="1058" d="M707 0v117q-59 -63 -144.5 -103.5t-164.5 -40.5q-155 0 -217 85.5t-62 244.5v610h225v-503q0 -97 11 -148t37 -71t75 -20q100 0 240 132v610h225v-913h-225z" />
<glyph unicode="v" horiz-adv-x="904" d="M554 0h-207l-324 913h230l203 -602l202 602h224z" />
<glyph unicode="w" horiz-adv-x="1361" d="M1094 0h-205l-205 581l-206 -581h-206l-249 913h234l141 -588l204 588h170l206 -583l136 583h224z" />
<glyph unicode="x" horiz-adv-x="938" d="M646 0l-181 291l-189 -291h-249l315 451l-310 462h262l182 -289l187 289h248l-314 -450l316 -463h-267z" />
<glyph unicode="y" horiz-adv-x="943" d="M30 -123q74 -25 132 -25q50 0 88.5 30.5t79.5 126.5l23 54l-330 850h234l215 -583l221 583h228l-392 -976q-48 -117 -93 -173.5t-105.5 -82t-152.5 -25.5q-99 0 -195 26z" />
<glyph unicode="z" horiz-adv-x="809" d="M50 0v164l426 570h-415v179h684v-163l-427 -572h441v-178h-709z" />
<glyph unicode="{" horiz-adv-x="796" d="M682 -344q-192 0 -275.5 90t-83.5 263v123q0 123 -52 192.5t-148 69.5h-34v192h34q96 0 148 67.5t52 194.5v121q0 172 82.5 262.5t276.5 90.5h61v-180h-36q-101 0 -138.5 -41.5t-37.5 -143.5v-144q0 -120 -56.5 -202t-151.5 -123q94 -34 151 -119t57 -204v-143 q0 -102 37.5 -144t138.5 -42h36v-180h-61z" />
<glyph unicode="|" horiz-adv-x="696" d="M244 -344v1666h208v-1666h-208z" />
<glyph unicode="}" horiz-adv-x="796" d="M53 -344v180h36q102 0 139 42t37 144v143q0 119 57 204t152 119q-96 41 -152.5 123t-56.5 202v144q0 102 -37 143.5t-139 41.5h-36v180h61q194 0 277 -90.5t83 -262.5v-121q0 -127 52 -194.5t147 -67.5h34v-192h-34q-95 0 -147 -69.5t-52 -192.5v-123q0 -173 -84 -263 t-276 -90h-61z" />
<glyph unicode="~" horiz-adv-x="1205" d="M124 704q49 41 92.5 63.5t82.5 33t102 10.5q57 0 112 -21.5t106 -47.5t99 -47.5t93 -21.5q69 0 134 33.5t136 95.5v-193q-58 -46 -122.5 -80t-144.5 -34q-62 0 -119 21.5t-110 47.5t-100 47t-87 21q-80 0 -148 -39t-126 -88v199z" />
<glyph unicode="&#xa1;" horiz-adv-x="508" d="M396 830q0 -71 -31.5 -102t-111.5 -31q-78 0 -109.5 31t-31.5 102q0 68 29.5 101t111.5 33q75 0 109 -29.5t34 -104.5zM132 -344l30 922h187l27 -922h-244z" />
<glyph unicode="&#xa2;" horiz-adv-x="921" d="M276 -226l52 231q-132 50 -190 165t-58 281q0 230 109.5 359t329.5 129h15l42 182h157l-47 -207q126 -42 181 -132l-167 -119q-23 30 -57 53l-121 -546h10q53 0 96.5 14.5t82.5 65.5l169 -120q-52 -77 -137 -117t-216 -40l-48 2l-44 -201h-159zM311 454q0 -170 65 -235 l116 522q-94 -8 -137.5 -75t-43.5 -212z" />
<glyph unicode="&#xa3;" horiz-adv-x="1113" d="M87 0v185q57 12 90 51.5t48 95.5t15 160h-131v164h119l-10 38q-36 112 -36 199q0 162 117.5 249t319.5 87q153 0 257.5 -53.5t160.5 -145.5l-189 -114q-35 57 -96.5 91t-132.5 34q-104 0 -154 -47.5t-50 -126.5q0 -63 38 -175l10 -36h330v-164h-322q0 -195 -102 -283h682 v-209h-964z" />
<glyph unicode="&#xa4;" horiz-adv-x="1113" d="M228 136l-107 108l123 118q-62 100 -62 201q0 109 62 202l-123 119l107 109l123 -122q91 63 205 63q50 0 104 -15.5t100 -47.5l124 122l109 -109l-126 -119q63 -95 63 -202q0 -106 -63 -201l126 -118l-109 -108l-124 121q-89 -63 -204 -63q-114 0 -205 63zM777 565 q0 90 -66.5 153.5t-152.5 63.5q-89 0 -156 -62.5t-67 -154.5q0 -89 65 -154.5t156 -65.5q56 0 108 29.5t82.5 81t30.5 109.5z" />
<glyph unicode="&#xa5;" horiz-adv-x="1113" d="M807 736h184v-155h-273l-39 -69v-27h312v-154h-312v-331h-246v331h-314v154h314v23l-41 73h-273v155h185l-265 468h267l253 -468l257 468h258z" />
<glyph unicode="&#xa6;" horiz-adv-x="696" d="M244 733v589h208v-589h-208zM244 -344v590h208v-590h-208z" />
<glyph unicode="&#xa7;" horiz-adv-x="965" d="M886 437q0 -166 -184 -267q68 -53 99 -103t31 -104q0 -141 -98 -211.5t-269 -70.5q-139 0 -223.5 37.5t-136.5 101.5l153 114q66 -73 203 -73q63 0 104.5 20.5t41.5 59.5t-64.5 84.5t-193.5 124.5q-133 80 -201 153t-68 171q0 164 184 267q-63 46 -96.5 96t-33.5 113 q0 130 92 204.5t280 74.5q246 0 354 -139l-153 -114q-73 73 -197 73q-80 0 -116 -24t-36 -59q0 -27 39.5 -60.5t219.5 -145.5q111 -68 162 -115t79 -98t28 -110zM673 430q0 21 -13.5 40.5t-41.5 42.5t-73.5 51.5t-111.5 69.5q-69 -42 -105 -78.5t-36 -77.5q0 -36 59 -82.5 t181 -121.5q60 36 100.5 77.5t40.5 78.5z" />
<glyph unicode="&#xa8;" d="M768 1161q0 -63 -31 -88.5t-96 -25.5q-71 0 -96.5 30t-25.5 84q0 61 27 87.5t95 26.5t97.5 -25.5t29.5 -88.5zM381 1161q0 -63 -31 -88.5t-95 -25.5q-71 0 -97 30t-26 84q0 61 27.5 87.5t95.5 26.5t97 -25.5t29 -88.5z" />
<glyph unicode="&#xa9;" horiz-adv-x="1567" d="M784 -171q-191 0 -353.5 94t-254.5 256.5t-92 351.5q0 188 92 349.5t255 255t353 93.5q189 0 350.5 -92.5t254.5 -254.5t93 -351t-91.5 -351t-254 -256.5t-352.5 -94.5zM784 -36q150 0 278.5 74.5t204.5 206.5t76 286q0 150 -74.5 281t-204.5 206.5t-280 75.5 q-152 0 -281.5 -76t-204 -207t-74.5 -280q0 -153 76.5 -285.5t204.5 -207t279 -74.5zM806 148q-368 0 -368 384q0 189 87.5 288.5t276.5 99.5q116 0 182.5 -45t116.5 -125l-153 -87q-28 41 -58 68.5t-90 27.5q-94 0 -134 -51.5t-40 -175.5t41.5 -174t134.5 -50q57 0 91 25 t66 68l156 -83q-61 -77 -102.5 -108t-92.5 -46.5t-114 -15.5z" />
<glyph unicode="&#xaa;" horiz-adv-x="725" d="M452 711v49q-82 -65 -170 -65q-102 0 -152 52t-50 135q0 92 56.5 143t193.5 63l112 12v17q0 43 -24 59t-81 16t-83 -19t-40 -44l-129 81q27 46 87.5 79t167.5 33q127 0 195.5 -43.5t68.5 -166.5v-401h-152zM442 978l-59 -5q-79 -7 -107 -27.5t-28 -59.5q0 -34 17 -47.5 t50 -13.5q56 0 127 57v96z" />
<glyph unicode="&#xab;" horiz-adv-x="1249" d="M918 46l-366 410l366 410h260l-365 -410l365 -410h-260zM418 46l-365 410l365 410h261l-366 -410l366 -410h-261z" />
<glyph unicode="&#xac;" horiz-adv-x="1241" d="M946 282v415h-830v178h1010v-593h-180z" />
<glyph unicode="&#xad;" horiz-adv-x="683" d="M71 347v221h542v-221h-542z" />
<glyph unicode="&#xae;" horiz-adv-x="1567" d="M784 -171q-191 0 -353.5 94t-254.5 256.5t-92 351.5q0 188 92 349.5t255 255t353 93.5q189 0 350.5 -92.5t254.5 -254.5t93 -351t-91.5 -351t-254 -256.5t-352.5 -94.5zM784 -36q150 0 278.5 74.5t204.5 206.5t76 286q0 150 -74.5 281t-204.5 206.5t-280 75.5 q-152 0 -281.5 -76t-204 -207t-74.5 -280q0 -153 76.5 -285.5t204.5 -207t279 -74.5zM512 175v739h265q155 0 226 -54.5t71 -171.5q0 -161 -126 -214l208 -299h-217l-184 267h-65v-267h-178zM690 593h83q47 0 70.5 6.5t34.5 22.5t11 57q0 40 -18.5 60.5t-90.5 20.5h-90v-167 z" />
<glyph unicode="&#xaf;" d="M162 1092v161h584v-161h-584z" />
<glyph unicode="&#xb0;" horiz-adv-x="755" d="M648 1080q0 -73 -35 -135t-99 -100t-135 -38q-72 0 -136.5 37t-100 99.5t-35.5 136.5q0 113 79.5 190.5t191.5 77.5t191 -78.5t79 -189.5zM492 1078q0 48 -33.5 81t-79.5 33q-51 0 -83 -34t-32 -78q0 -48 33 -82t82 -34q46 0 79.5 34t33.5 80z" />
<glyph unicode="&#xb1;" horiz-adv-x="1241" d="M711 721v-415h-179v415h-416v179h416v416h179v-416h415v-179h-415zM116 0v178h1010v-178h-1010z" />
<glyph unicode="&#xb2;" horiz-adv-x="816" d="M80 563v158l94 68q198 139 246.5 188.5t48.5 98.5q0 68 -84 68q-88 0 -148 -77l-171 106q116 149 328 149q157 0 228 -61.5t71 -155.5q0 -52 -13.5 -93.5t-45.5 -80.5t-114 -100t-144 -97h345v-171h-641z" />
<glyph unicode="&#xb3;" horiz-adv-x="816" d="M700 784q0 -119 -89 -177t-246 -58q-110 0 -192.5 42.5t-121.5 105.5l173 89q56 -77 143 -77q63 0 86 28t23 57q0 79 -123 79h-100v154h89q80 0 108 19.5t28 54.5q0 25 -24 42.5t-75 17.5q-89 0 -146 -67l-158 93q53 64 124.5 99.5t194.5 35.5q150 0 222 -58t72 -138 q0 -62 -33 -101t-108 -65q80 -20 116.5 -66.5t36.5 -109.5z" />
<glyph unicode="&#xb4;" d="M481 1051h-178l164 314h274z" />
<glyph unicode="&#xb5;" horiz-adv-x="1045" d="M930 0h-207l-4 97q-42 -61 -90 -92.5t-116 -31.5q-54 0 -94.5 15t-80.5 46v-378h-224v1257h224v-653q26 -34 73 -60.5t99 -26.5q114 0 197 105v635h223v-913z" />
<glyph unicode="&#xb6;" horiz-adv-x="1149" d="M950 1115v-1459h-204v1459h-140v-1459h-203v871q-178 19 -272.5 120t-94.5 264q0 179 116.5 281.5t328.5 102.5h633v-180h-164z" />
<glyph unicode="&#xb7;" horiz-adv-x="508" d="M396 646q0 -74 -34 -106t-109 -32q-82 0 -111.5 35.5t-29.5 102.5q0 72 31.5 106t109.5 34q80 0 111.5 -33.5t31.5 -106.5z" />
<glyph unicode="&#xb8;" d="M652 -178q0 -166 -249 -166q-152 0 -230 40l60 126q92 -40 168 -40q46 0 65 10.5t19 30.5q0 55 -157 63l77 148h147l-27 -54q54 -12 90.5 -53t36.5 -105z" />
<glyph unicode="&#xb9;" horiz-adv-x="816" d="M347 563v481h-199v132q84 3 130.5 15t71.5 37.5t42 79.5h174v-745h-219z" />
<glyph unicode="&#xba;" horiz-adv-x="732" d="M652 1007q0 -148 -69.5 -230t-215.5 -82q-149 0 -218 82.5t-69 229.5q0 149 69.5 232t217.5 83q146 0 215.5 -83t69.5 -232zM485 1007q0 103 -34 138.5t-84 35.5q-52 0 -85.5 -35.5t-33.5 -138.5q0 -87 27.5 -129t91.5 -42q63 0 90.5 41.5t27.5 129.5z" />
<glyph unicode="&#xbb;" horiz-adv-x="1249" d="M830 46h-260l365 410l-365 410h260l365 -410zM331 46h-260l366 410l-366 410h260l366 -410z" />
<glyph unicode="&#xbc;" horiz-adv-x="1822" d="M612 -44h-204l649 1295h208zM238 463v481h-199v132q84 3 130.5 15t71.5 37.5t42 79.5h174v-745h-219zM1631 139v-139h-202v139h-424v145l428 461h198v-456h100v-150h-100zM1429 529l-223 -240h223v240z" />
<glyph unicode="&#xbd;" horiz-adv-x="1822" d="M558 -44h-204l649 1295h208zM237 463v481h-199v132q84 3 130.5 15t71.5 37.5t42 79.5h174v-745h-219zM1069 0v158l94 68q198 139 246.5 188.5t48.5 98.5q0 68 -84 68q-88 0 -148 -77l-171 106q116 149 328 149q157 0 228 -61.5t71 -155.5q0 -52 -13.5 -93.5t-45.5 -80.5 t-114 -100t-144 -97h345v-171h-641z" />
<glyph unicode="&#xbe;" horiz-adv-x="1822" d="M719 -44h-204l649 1295h208zM1672 139v-139h-202v139h-424v145l428 461h198v-456h100v-150h-100zM1470 529l-223 -240h223v240zM700 684q0 -119 -89 -177t-246 -58q-110 0 -192.5 42.5t-121.5 105.5l173 89q56 -77 143 -77q63 0 86 28t23 57q0 79 -123 79h-100v154h89 q80 0 108 19.5t28 54.5q0 25 -24 42.5t-75 17.5q-89 0 -146 -67l-158 93q53 64 124.5 99.5t194.5 35.5q150 0 222 -58t72 -138q0 -62 -33 -101t-108 -65q80 -20 116.5 -66.5t36.5 -109.5z" />
<glyph unicode="&#xbf;" horiz-adv-x="931" d="M663 830q0 -71 -31.5 -102t-109.5 -31q-80 0 -111.5 31t-31.5 102q0 75 34 104.5t109 29.5q82 0 111.5 -33t29.5 -101zM901 -126q-60 -107 -160 -162.5t-253 -55.5q-206 0 -315.5 90t-109.5 254q0 91 33.5 161t97.5 127t212 134v156h237v-263q-48 -24 -105 -53 t-106 -65.5t-83 -81.5t-34 -105q0 -67 38.5 -105.5t132.5 -38.5q79 0 126 32t87 97z" />
<glyph unicode="&#xc0;" horiz-adv-x="1163" d="M23 0l399 1204h319l400 -1204h-252l-80 244h-464l-78 -244h-244zM415 459h325l-162 498zM585 1343l-260 314h274l163 -314h-177z" />
<glyph unicode="&#xc1;" horiz-adv-x="1163" d="M23 0l399 1204h319l400 -1204h-252l-80 244h-464l-78 -244h-244zM415 459h325l-162 498zM605 1343h-178l164 314h274z" />
<glyph unicode="&#xc2;" horiz-adv-x="1163" d="M23 0l399 1204h319l400 -1204h-252l-80 244h-464l-78 -244h-244zM415 459h325l-162 498zM704 1343l-127 151l-129 -151h-182l204 314h212l206 -314h-184z" />
<glyph unicode="&#xc3;" horiz-adv-x="1163" d="M23 0l399 1204h319l400 -1204h-252l-80 244h-464l-78 -244h-244zM415 459h325l-162 498zM221 1363q5 135 64 205.5t164 70.5q53 0 90.5 -19.5t67 -42t54.5 -42t54 -19.5q30 0 44.5 30.5t14.5 80.5h158q-9 -144 -66 -212.5t-164 -68.5q-57 0 -94.5 20t-65.5 44t-51.5 43.5 t-52.5 19.5q-58 0 -58 -110h-159z" />
<glyph unicode="&#xc4;" horiz-adv-x="1163" d="M23 0l399 1204h319l400 -1204h-252l-80 244h-464l-78 -244h-244zM415 459h325l-162 498zM891 1453q0 -63 -31 -88.5t-96 -25.5q-71 0 -96.5 30t-25.5 84q0 61 27 87.5t95 26.5t97.5 -25.5t29.5 -88.5zM504 1453q0 -63 -31 -88.5t-95 -25.5q-71 0 -97 30t-26 84 q0 61 27.5 87.5t95.5 26.5t97 -25.5t29 -88.5z" />
<glyph unicode="&#xc5;" horiz-adv-x="1163" d="M23 0l399 1204h319l400 -1204h-252l-80 244h-464l-78 -244h-244zM415 459h325l-162 498zM778 1493q0 -96 -51.5 -146t-150.5 -50q-101 0 -150 52.5t-49 143.5q0 93 50 144.5t149 51.5q104 0 153 -52.5t49 -143.5zM653 1493q0 78 -77 78q-74 0 -74 -78t74 -78q77 0 77 78z " />
<glyph unicode="&#xc6;" horiz-adv-x="1574" d="M748 0v313h-356l-125 -313h-250l483 1204h988v-217h-494v-261h408v-218h-408v-284h494v-224h-740zM748 987h-90l-182 -458h272v458z" />
<glyph unicode="&#xc7;" horiz-adv-x="1159" d="M864 -178q0 -166 -249 -166q-150 0 -230 40l60 126q93 -40 168 -40q46 0 65 10.5t19 30.5q0 55 -157 63l46 91q-502 32 -502 625q0 321 141.5 474t408.5 153q177 0 288.5 -59.5t169.5 -155.5l-191 -148q-41 62 -76 90t-79.5 42t-106.5 14q-147 0 -224.5 -94.5 t-77.5 -315.5q0 -206 72.5 -308t231.5 -102q107 0 166.5 41t108.5 109l194 -143q-57 -83 -143.5 -142.5t-228.5 -76.5q53 -12 89.5 -53t36.5 -105z" />
<glyph unicode="&#xc8;" horiz-adv-x="999" d="M130 0v1204h783v-217h-537v-256h452v-218h-452v-289h537v-224h-783zM493 1343l-260 314h274l163 -314h-177z" />
<glyph unicode="&#xc9;" horiz-adv-x="999" d="M130 0v1204h783v-217h-537v-256h452v-218h-452v-289h537v-224h-783zM549 1343h-178l164 314h274z" />
<glyph unicode="&#xca;" horiz-adv-x="999" d="M130 0v1204h783v-217h-537v-256h452v-218h-452v-289h537v-224h-783zM644 1343l-127 151l-129 -151h-182l204 314h212l206 -314h-184z" />
<glyph unicode="&#xcb;" horiz-adv-x="999" d="M130 0v1204h783v-217h-537v-256h452v-218h-452v-289h537v-224h-783zM834 1453q0 -63 -31 -88.5t-96 -25.5q-71 0 -96.5 30t-25.5 84q0 61 27 87.5t95 26.5t97.5 -25.5t29.5 -88.5zM447 1453q0 -63 -31 -88.5t-95 -25.5q-71 0 -97 30t-26 84q0 61 27.5 87.5t95.5 26.5 t97 -25.5t29 -88.5z" />
<glyph unicode="&#xcc;" horiz-adv-x="758" d="M670 0h-581v189h168v826h-168v189h581v-189h-167v-826h167v-189zM330 1343l-260 314h274l163 -314h-177z" />
<glyph unicode="&#xcd;" horiz-adv-x="758" d="M670 0h-581v189h168v826h-168v189h581v-189h-167v-826h167v-189zM413 1343h-178l164 314h274z" />
<glyph unicode="&#xce;" horiz-adv-x="758" d="M670 0h-581v189h168v826h-168v189h581v-189h-167v-826h167v-189zM506 1343l-127 151l-129 -151h-182l204 314h212l206 -314h-184z" />
<glyph unicode="&#xcf;" horiz-adv-x="758" d="M670 0h-581v189h168v826h-168v189h581v-189h-167v-826h167v-189zM698 1453q0 -63 -31 -88.5t-96 -25.5q-71 0 -96.5 30t-25.5 84q0 61 27 87.5t95 26.5t97.5 -25.5t29.5 -88.5zM311 1453q0 -63 -31 -88.5t-95 -25.5q-71 0 -97 30t-26 84q0 61 27.5 87.5t95.5 26.5 t97 -25.5t29 -88.5z" />
<glyph unicode="&#xd0;" horiz-adv-x="1217" d="M1134 602q0 -217 -65 -349.5t-195.5 -192.5t-363.5 -60h-380v505h-128v195h128v504h378q229 0 362.5 -61.5t198.5 -193.5t65 -347zM880 604q0 153 -33.5 230t-114.5 111.5t-246 34.5h-110v-280h280v-195h-280v-281h110q160 0 242 35t117 113.5t35 231.5z" />
<glyph unicode="&#xd1;" horiz-adv-x="1227" d="M809 0l-438 860v-860h-241v1204h319l408 -812v812h241v-1204h-289zM248 1328q5 135 64 205.5t164 70.5q53 0 90.5 -19.5t67 -42t54.5 -42t54 -19.5q30 0 44.5 30.5t14.5 80.5h158q-9 -144 -66 -212.5t-164 -68.5q-57 0 -94.5 20t-65.5 44t-51.5 43.5t-52.5 19.5 q-58 0 -58 -110h-159z" />
<glyph unicode="&#xd2;" horiz-adv-x="1186" d="M1112 602q0 -314 -132.5 -470.5t-386.5 -156.5q-267 0 -392.5 164.5t-125.5 462.5q0 299 125.5 463t392.5 164q269 0 394 -164t125 -463zM859 602q0 214 -60.5 312t-205.5 98q-144 0 -204.5 -98t-60.5 -312t61.5 -312t203.5 -98q145 0 205.5 98t60.5 312zM583 1343 l-260 314h274l163 -314h-177z" />
<glyph unicode="&#xd3;" horiz-adv-x="1186" d="M1112 602q0 -314 -132.5 -470.5t-386.5 -156.5q-267 0 -392.5 164.5t-125.5 462.5q0 299 125.5 463t392.5 164q269 0 394 -164t125 -463zM859 602q0 214 -60.5 312t-205.5 98q-144 0 -204.5 -98t-60.5 -312t61.5 -312t203.5 -98q145 0 205.5 98t60.5 312zM639 1343h-178 l164 314h274z" />
<glyph unicode="&#xd4;" horiz-adv-x="1186" d="M1112 602q0 -314 -132.5 -470.5t-386.5 -156.5q-267 0 -392.5 164.5t-125.5 462.5q0 299 125.5 463t392.5 164q269 0 394 -164t125 -463zM859 602q0 214 -60.5 312t-205.5 98q-144 0 -204.5 -98t-60.5 -312t61.5 -312t203.5 -98q145 0 205.5 98t60.5 312zM729 1343 l-127 151l-129 -151h-182l204 314h212l206 -314h-184z" />
<glyph unicode="&#xd5;" horiz-adv-x="1186" d="M1112 602q0 -314 -132.5 -470.5t-386.5 -156.5q-267 0 -392.5 164.5t-125.5 462.5q0 299 125.5 463t392.5 164q269 0 394 -164t125 -463zM859 602q0 214 -60.5 312t-205.5 98q-144 0 -204.5 -98t-60.5 -312t61.5 -312t203.5 -98q145 0 205.5 98t60.5 312zM246 1363 q5 135 64 205.5t164 70.5q53 0 90.5 -19.5t67 -42t54.5 -42t54 -19.5q30 0 44.5 30.5t14.5 80.5h158q-9 -144 -66 -212.5t-164 -68.5q-57 0 -94.5 20t-65.5 44t-51.5 43.5t-52.5 19.5q-58 0 -58 -110h-159z" />
<glyph unicode="&#xd6;" horiz-adv-x="1186" d="M1112 602q0 -314 -132.5 -470.5t-386.5 -156.5q-267 0 -392.5 164.5t-125.5 462.5q0 299 125.5 463t392.5 164q269 0 394 -164t125 -463zM859 602q0 214 -60.5 312t-205.5 98q-144 0 -204.5 -98t-60.5 -312t61.5 -312t203.5 -98q145 0 205.5 98t60.5 312zM925 1453 q0 -63 -31 -88.5t-96 -25.5q-71 0 -96.5 30t-25.5 84q0 61 27 87.5t95 26.5t97.5 -25.5t29.5 -88.5zM538 1453q0 -63 -31 -88.5t-95 -25.5q-71 0 -97 30t-26 84q0 61 27.5 87.5t95.5 26.5t97 -25.5t29 -88.5z" />
<glyph unicode="&#xd7;" horiz-adv-x="1241" d="M1001 0l-381 381l-382 -381l-126 126l381 380l-381 380l126 126l382 -380l381 380l127 -126l-382 -380l382 -380z" />
<glyph unicode="&#xd8;" horiz-adv-x="1186" d="M23 -100l169 248q-117 156 -117 454q0 299 125.5 463t392.5 164q175 0 291 -73l94 139h173l-160 -234q121 -159 121 -459q0 -314 -132.5 -470.5t-386.5 -156.5q-180 0 -294 75l-102 -150h-174zM859 602q0 138 -26 228l-401 -590q58 -48 161 -48q145 0 205.5 98t60.5 312z M328 602q0 -137 23 -223l401 587q-60 46 -159 46q-144 0 -204.5 -98t-60.5 -312z" />
<glyph unicode="&#xd9;" horiz-adv-x="1251" d="M1121 503q0 -283 -115 -406.5t-380 -123.5q-263 0 -379.5 122.5t-116.5 407.5v701h246v-684q0 -122 23.5 -192.5t74.5 -103.5t150 -33q140 0 195.5 74t55.5 252v687h246v-701zM601 1343l-260 314h274l163 -314h-177z" />
<glyph unicode="&#xda;" horiz-adv-x="1251" d="M1121 503q0 -283 -115 -406.5t-380 -123.5q-263 0 -379.5 122.5t-116.5 407.5v701h246v-684q0 -122 23.5 -192.5t74.5 -103.5t150 -33q140 0 195.5 74t55.5 252v687h246v-701zM658 1343h-178l164 314h274z" />
<glyph unicode="&#xdb;" horiz-adv-x="1251" d="M1121 503q0 -283 -115 -406.5t-380 -123.5q-263 0 -379.5 122.5t-116.5 407.5v701h246v-684q0 -122 23.5 -192.5t74.5 -103.5t150 -33q140 0 195.5 74t55.5 252v687h246v-701zM756 1343l-127 151l-129 -151h-182l204 314h212l206 -314h-184z" />
<glyph unicode="&#xdc;" horiz-adv-x="1251" d="M1121 503q0 -283 -115 -406.5t-380 -123.5q-263 0 -379.5 122.5t-116.5 407.5v701h246v-684q0 -122 23.5 -192.5t74.5 -103.5t150 -33q140 0 195.5 74t55.5 252v687h246v-701zM943 1453q0 -63 -31 -88.5t-96 -25.5q-71 0 -96.5 30t-25.5 84q0 61 27 87.5t95 26.5 t97.5 -25.5t29.5 -88.5zM556 1453q0 -63 -31 -88.5t-95 -25.5q-71 0 -97 30t-26 84q0 61 27.5 87.5t95.5 26.5t97 -25.5t29 -88.5z" />
<glyph unicode="&#xdd;" horiz-adv-x="1033" d="M639 459v-459h-247v454l-376 750h268l235 -504l240 504h258zM547 1343h-178l164 314h274z" />
<glyph unicode="&#xde;" horiz-adv-x="1077" d="M1010 626q0 -218 -102 -323.5t-332 -105.5h-200v-197h-246v1204h246v-174h207q204 0 315.5 -95t111.5 -309zM757 624q0 70 -26 112.5t-79 61t-153 18.5h-123v-404h100q135 0 186 18.5t73 62t22 131.5z" />
<glyph unicode="&#xdf;" horiz-adv-x="1058" d="M126 0v887q0 220 102.5 327.5t309.5 107.5q176 0 272.5 -79t96.5 -222q0 -107 -46.5 -170.5t-112.5 -91.5q106 -24 168 -119t62 -228q0 -218 -81 -328.5t-271 -110.5q-41 0 -90.5 9t-77.5 18v197q74 -26 134 -26q76 0 113.5 55.5t37.5 191.5q0 94 -25 140t-80.5 64.5 t-165.5 18.5v195q81 0 124.5 16t63 49.5t19.5 103.5q0 61 -37.5 92.5t-107.5 31.5q-90 0 -136.5 -51t-46.5 -184v-894h-225z" />
<glyph unicode="&#xe0;" horiz-adv-x="990" d="M665 0v95q-133 -122 -286 -122q-151 0 -228.5 79.5t-77.5 204.5q0 97 39.5 160.5t117.5 99.5t224 51l192 18v41q0 77 -46 105t-135 28q-73 0 -125.5 -24t-77.5 -70l-175 113q46 77 144.5 118.5t237.5 41.5q213 0 307.5 -74.5t94.5 -244.5v-620h-206zM646 424l-114 -11 q-120 -10 -174 -46t-54 -107q0 -63 35 -86t93 -23q40 0 99 26t115 73v174zM440 1051l-260 314h274l163 -314h-177z" />
<glyph unicode="&#xe1;" horiz-adv-x="990" d="M665 0v95q-133 -122 -286 -122q-151 0 -228.5 79.5t-77.5 204.5q0 97 39.5 160.5t117.5 99.5t224 51l192 18v41q0 77 -46 105t-135 28q-73 0 -125.5 -24t-77.5 -70l-175 113q46 77 144.5 118.5t237.5 41.5q213 0 307.5 -74.5t94.5 -244.5v-620h-206zM646 424l-114 -11 q-120 -10 -174 -46t-54 -107q0 -63 35 -86t93 -23q40 0 99 26t115 73v174zM497 1051h-178l164 314h274z" />
<glyph unicode="&#xe2;" horiz-adv-x="990" d="M665 0v95q-133 -122 -286 -122q-151 0 -228.5 79.5t-77.5 204.5q0 97 39.5 160.5t117.5 99.5t224 51l192 18v41q0 77 -46 105t-135 28q-73 0 -125.5 -24t-77.5 -70l-175 113q46 77 144.5 118.5t237.5 41.5q213 0 307.5 -74.5t94.5 -244.5v-620h-206zM646 424l-114 -11 q-120 -10 -174 -46t-54 -107q0 -63 35 -86t93 -23q40 0 99 26t115 73v174zM608 1051l-127 151l-129 -151h-182l204 314h212l206 -314h-184z" />
<glyph unicode="&#xe3;" horiz-adv-x="990" d="M665 0v95q-133 -122 -286 -122q-151 0 -228.5 79.5t-77.5 204.5q0 97 39.5 160.5t117.5 99.5t224 51l192 18v41q0 77 -46 105t-135 28q-73 0 -125.5 -24t-77.5 -70l-175 113q46 77 144.5 118.5t237.5 41.5q213 0 307.5 -74.5t94.5 -244.5v-620h-206zM646 424l-114 -11 q-120 -10 -174 -46t-54 -107q0 -63 35 -86t93 -23q40 0 99 26t115 73v174zM130 1071q5 135 64 205.5t164 70.5q53 0 90.5 -19.5t67 -42t54.5 -42t54 -19.5q30 0 44.5 30.5t14.5 80.5h158q-9 -144 -66 -212.5t-164 -68.5q-57 0 -94.5 20t-65.5 44t-51.5 43.5t-52.5 19.5 q-58 0 -58 -110h-159z" />
<glyph unicode="&#xe4;" horiz-adv-x="990" d="M665 0v95q-133 -122 -286 -122q-151 0 -228.5 79.5t-77.5 204.5q0 97 39.5 160.5t117.5 99.5t224 51l192 18v41q0 77 -46 105t-135 28q-73 0 -125.5 -24t-77.5 -70l-175 113q46 77 144.5 118.5t237.5 41.5q213 0 307.5 -74.5t94.5 -244.5v-620h-206zM646 424l-114 -11 q-120 -10 -174 -46t-54 -107q0 -63 35 -86t93 -23q40 0 99 26t115 73v174zM782 1161q0 -63 -31 -88.5t-96 -25.5q-71 0 -96.5 30t-25.5 84q0 61 27 87.5t95 26.5t97.5 -25.5t29.5 -88.5zM395 1161q0 -63 -31 -88.5t-95 -25.5q-71 0 -97 30t-26 84q0 61 27.5 87.5t95.5 26.5 t97 -25.5t29 -88.5z" />
<glyph unicode="&#xe5;" horiz-adv-x="990" d="M665 0v95q-133 -122 -286 -122q-151 0 -228.5 79.5t-77.5 204.5q0 97 39.5 160.5t117.5 99.5t224 51l192 18v41q0 77 -46 105t-135 28q-73 0 -125.5 -24t-77.5 -70l-175 113q46 77 144.5 118.5t237.5 41.5q213 0 307.5 -74.5t94.5 -244.5v-620h-206zM646 424l-114 -11 q-120 -10 -174 -46t-54 -107q0 -63 35 -86t93 -23q40 0 99 26t115 73v174zM670 1199q0 -96 -51.5 -146t-150.5 -50q-101 0 -150 52.5t-49 143.5q0 93 50 144.5t149 51.5q104 0 153 -52.5t49 -143.5zM545 1199q0 78 -77 78q-74 0 -74 -78t74 -78q77 0 77 78z" />
<glyph unicode="&#xe6;" horiz-adv-x="1553" d="M376 -27q-148 0 -225.5 79.5t-77.5 211.5q0 136 92 212t289 92l192 18v41q0 75 -45 104t-129 29q-94 0 -140.5 -28t-69.5 -66l-175 113q46 77 143 118.5t241 41.5q221 0 309 -107q106 107 305 107q191 0 291.5 -111t100.5 -320v-110h-606q6 -122 58 -175t171 -53 q63 0 113 16.5t88 63.5l168 -120q-56 -79 -142 -118t-224 -39q-260 0 -372 146q-85 -71 -171 -108.5t-184 -37.5zM425 151q56 0 122 22.5t123 66.5q-11 35 -17.5 98.5t-6.5 85.5l-114 -11q-120 -10 -174 -46t-54 -107q0 -109 121 -109zM1255 552q0 208 -184 208 q-98 0 -139 -56t-55 -152h378z" />
<glyph unicode="&#xe7;" horiz-adv-x="921" d="M718 -178q0 -166 -249 -166q-150 0 -231 40l61 126q93 -40 168 -40q46 0 65 10.5t19 30.5q0 55 -157 63l48 92q-362 49 -362 473q0 230 109.5 359t329.5 129q117 0 209 -38.5t139 -118.5l-167 -119q-30 41 -71 60.5t-105 19.5q-115 0 -164 -70.5t-49 -218.5t50.5 -216 t170.5 -68q53 0 96.5 14.5t82.5 65.5l169 -120q-91 -133 -276 -153q48 -14 81 -54t33 -101z" />
<glyph unicode="&#xe8;" horiz-adv-x="994" d="M311 398q7 -122 60 -175t167 -53q66 0 116 16.5t87 63.5l167 -120q-55 -79 -142 -118t-239 -39q-225 0 -336 118.5t-111 357.5q0 490 439 490q194 0 296.5 -110t102.5 -321v-110h-607zM695 552q0 208 -182 208q-60 0 -98 -20.5t-61 -60.5t-36 -127h377zM476 1051 l-260 314h274l163 -314h-177z" />
<glyph unicode="&#xe9;" horiz-adv-x="994" d="M311 398q7 -122 60 -175t167 -53q66 0 116 16.5t87 63.5l167 -120q-55 -79 -142 -118t-239 -39q-225 0 -336 118.5t-111 357.5q0 490 439 490q194 0 296.5 -110t102.5 -321v-110h-607zM695 552q0 208 -182 208q-60 0 -98 -20.5t-61 -60.5t-36 -127h377zM532 1051h-178 l164 314h274z" />
<glyph unicode="&#xea;" horiz-adv-x="994" d="M311 398q7 -122 60 -175t167 -53q66 0 116 16.5t87 63.5l167 -120q-55 -79 -142 -118t-239 -39q-225 0 -336 118.5t-111 357.5q0 490 439 490q194 0 296.5 -110t102.5 -321v-110h-607zM695 552q0 208 -182 208q-60 0 -98 -20.5t-61 -60.5t-36 -127h377zM640 1051 l-127 151l-129 -151h-182l204 314h212l206 -314h-184z" />
<glyph unicode="&#xeb;" horiz-adv-x="994" d="M311 398q7 -122 60 -175t167 -53q66 0 116 16.5t87 63.5l167 -120q-55 -79 -142 -118t-239 -39q-225 0 -336 118.5t-111 357.5q0 490 439 490q194 0 296.5 -110t102.5 -321v-110h-607zM695 552q0 208 -182 208q-60 0 -98 -20.5t-61 -60.5t-36 -127h377zM827 1161 q0 -63 -31 -88.5t-96 -25.5q-71 0 -96.5 30t-25.5 84q0 61 27 87.5t95 26.5t97.5 -25.5t29.5 -88.5zM440 1161q0 -63 -31 -88.5t-95 -25.5q-71 0 -97 30t-26 84q0 61 27.5 87.5t95.5 26.5t97 -25.5t29 -88.5z" />
<glyph unicode="&#xec;" horiz-adv-x="477" d="M126 0v913h225v-913h-225zM214 1051l-260 314h274l163 -314h-177z" />
<glyph unicode="&#xed;" horiz-adv-x="477" d="M126 0v913h225v-913h-225zM289 1051h-178l164 314h274z" />
<glyph unicode="&#xee;" horiz-adv-x="477" d="M126 0v913h225v-913h-225zM369 1051l-127 151l-129 -151h-182l204 314h212l206 -314h-184z" />
<glyph unicode="&#xef;" horiz-adv-x="477" d="M126 0v913h225v-913h-225zM556 1161q0 -63 -31 -88.5t-96 -25.5q-71 0 -96.5 30t-25.5 84q0 61 27 87.5t95 26.5t97.5 -25.5t29.5 -88.5zM169 1161q0 -63 -31 -88.5t-95 -25.5q-71 0 -97 30t-26 84q0 61 27.5 87.5t95.5 26.5t97 -25.5t29 -88.5z" />
<glyph unicode="&#xf0;" horiz-adv-x="1035" d="M955 454q0 -232 -110 -356.5t-326 -124.5q-215 0 -327 120t-112 359q0 136 48 242t137.5 162.5t206.5 56.5q36 0 82 -16.5t82 -43.5q-13 34 -57 106.5t-79 113.5l-196 -82l-58 130l157 66q-30 41 -160 135h238q43 -25 85 -67l163 67l60 -128l-114 -48 q124 -128 202 -313.5t78 -378.5zM723 454q0 264 -206 264q-101 0 -153.5 -67.5t-52.5 -198.5q0 -137 47.5 -209.5t160.5 -72.5q112 0 158 72.5t46 211.5z" />
<glyph unicode="&#xf1;" horiz-adv-x="1058" d="M714 0v503q0 143 -25.5 190.5t-96.5 47.5q-100 0 -241 -132v-609h-225v913h225v-119q71 72 152 108.5t158 36.5q140 0 209 -76.5t69 -253.5v-609h-225zM171 1071q5 135 64 205.5t164 70.5q53 0 90.5 -19.5t67 -42t54.5 -42t54 -19.5q30 0 44.5 30.5t14.5 80.5h158 q-9 -144 -66 -212.5t-164 -68.5q-57 0 -94.5 20t-65.5 44t-51.5 43.5t-52.5 19.5q-58 0 -58 -110h-159z" />
<glyph unicode="&#xf2;" horiz-adv-x="1035" d="M955 454q0 -228 -105 -354.5t-331 -126.5q-439 0 -439 481q0 232 105.5 358.5t333.5 126.5q226 0 331 -126.5t105 -358.5zM723 454q0 151 -47 220t-157 69t-159 -71t-49 -218q0 -146 48.5 -215t159.5 -69q108 0 156 68t48 216zM494 1051l-260 314h274l163 -314h-177z" />
<glyph unicode="&#xf3;" horiz-adv-x="1035" d="M955 454q0 -228 -105 -354.5t-331 -126.5q-439 0 -439 481q0 232 105.5 358.5t333.5 126.5q226 0 331 -126.5t105 -358.5zM723 454q0 151 -47 220t-157 69t-159 -71t-49 -218q0 -146 48.5 -215t159.5 -69q108 0 156 68t48 216zM551 1051h-178l164 314h274z" />
<glyph unicode="&#xf4;" horiz-adv-x="1035" d="M955 454q0 -228 -105 -354.5t-331 -126.5q-439 0 -439 481q0 232 105.5 358.5t333.5 126.5q226 0 331 -126.5t105 -358.5zM723 454q0 151 -47 220t-157 69t-159 -71t-49 -218q0 -146 48.5 -215t159.5 -69q108 0 156 68t48 216zM649 1051l-127 151l-129 -151h-182l204 314 h212l206 -314h-184z" />
<glyph unicode="&#xf5;" horiz-adv-x="1035" d="M955 454q0 -228 -105 -354.5t-331 -126.5q-439 0 -439 481q0 232 105.5 358.5t333.5 126.5q226 0 331 -126.5t105 -358.5zM723 454q0 151 -47 220t-157 69t-159 -71t-49 -218q0 -146 48.5 -215t159.5 -69q108 0 156 68t48 216zM166 1071q5 135 64 205.5t164 70.5 q53 0 90.5 -19.5t67 -42t54.5 -42t54 -19.5q30 0 44.5 30.5t14.5 80.5h158q-9 -144 -66 -212.5t-164 -68.5q-57 0 -94.5 20t-65.5 44t-51.5 43.5t-52.5 19.5q-58 0 -58 -110h-159z" />
<glyph unicode="&#xf6;" horiz-adv-x="1035" d="M955 454q0 -228 -105 -354.5t-331 -126.5q-439 0 -439 481q0 232 105.5 358.5t333.5 126.5q226 0 331 -126.5t105 -358.5zM723 454q0 151 -47 220t-157 69t-159 -71t-49 -218q0 -146 48.5 -215t159.5 -69q108 0 156 68t48 216zM836 1161q0 -63 -31 -88.5t-96 -25.5 q-71 0 -96.5 30t-25.5 84q0 61 27 87.5t95 26.5t97.5 -25.5t29.5 -88.5zM449 1161q0 -63 -31 -88.5t-95 -25.5q-71 0 -97 30t-26 84q0 61 27.5 87.5t95.5 26.5t97 -25.5t29 -88.5z" />
<glyph unicode="&#xf7;" horiz-adv-x="1241" d="M515 793v219h214v-219h-214zM116 417v178h1010v-178h-1010zM515 2v219h214v-219h-214z" />
<glyph unicode="&#xf8;" horiz-adv-x="1035" d="M92 -66l102 153q-114 123 -114 367q0 232 105.5 358.5t333.5 126.5q122 0 214 -41l53 80h158l-103 -157q114 -126 114 -367q0 -228 -105 -354.5t-331 -126.5q-126 0 -216 39l-52 -78h-159zM311 454q0 -89 20 -160l286 429q-39 20 -98 20q-110 0 -159 -71t-49 -218z M723 454q0 94 -19 161l-284 -428q41 -17 99 -17q108 0 156 68t48 216z" />
<glyph unicode="&#xf9;" horiz-adv-x="1058" d="M707 0v117q-59 -63 -144.5 -103.5t-164.5 -40.5q-155 0 -217 85.5t-62 244.5v610h225v-503q0 -97 11 -148t37 -71t75 -20q100 0 240 132v610h225v-913h-225zM505 1051l-260 314h274l163 -314h-177z" />
<glyph unicode="&#xfa;" horiz-adv-x="1058" d="M707 0v117q-59 -63 -144.5 -103.5t-164.5 -40.5q-155 0 -217 85.5t-62 244.5v610h225v-503q0 -97 11 -148t37 -71t75 -20q100 0 240 132v610h225v-913h-225zM561 1051h-178l164 314h274z" />
<glyph unicode="&#xfb;" horiz-adv-x="1058" d="M707 0v117q-59 -63 -144.5 -103.5t-164.5 -40.5q-155 0 -217 85.5t-62 244.5v610h225v-503q0 -97 11 -148t37 -71t75 -20q100 0 240 132v610h225v-913h-225zM651 1051l-127 151l-129 -151h-182l204 314h212l206 -314h-184z" />
<glyph unicode="&#xfc;" horiz-adv-x="1058" d="M707 0v117q-59 -63 -144.5 -103.5t-164.5 -40.5q-155 0 -217 85.5t-62 244.5v610h225v-503q0 -97 11 -148t37 -71t75 -20q100 0 240 132v610h225v-913h-225zM838 1161q0 -63 -31 -88.5t-96 -25.5q-71 0 -96.5 30t-25.5 84q0 61 27 87.5t95 26.5t97.5 -25.5t29.5 -88.5z M451 1161q0 -63 -31 -88.5t-95 -25.5q-71 0 -97 30t-26 84q0 61 27.5 87.5t95.5 26.5t97 -25.5t29 -88.5z" />
<glyph unicode="&#xfd;" horiz-adv-x="943" d="M30 -123q74 -25 132 -25q50 0 88.5 30.5t79.5 126.5l23 54l-330 850h234l215 -583l221 583h228l-392 -976q-48 -117 -93 -173.5t-105.5 -82t-152.5 -25.5q-99 0 -195 26zM498 1051h-178l164 314h274z" />
<glyph unicode="&#xfe;" horiz-adv-x="1058" d="M978 463q0 -147 -44.5 -259.5t-127 -171.5t-197.5 -59q-151 0 -258 95v-412h-225v1639h225v-463q110 107 275 107q172 0 262 -123t90 -353zM746 459q0 133 -46 207.5t-137 74.5q-55 0 -113 -25.5t-99 -63.5v-399q35 -32 88 -57t108 -25q92 0 145.5 79t53.5 209z" />
<glyph unicode="&#xff;" horiz-adv-x="943" d="M30 -123q74 -25 132 -25q50 0 88.5 30.5t79.5 126.5l23 54l-330 850h234l215 -583l221 583h228l-392 -976q-48 -117 -93 -173.5t-105.5 -82t-152.5 -25.5q-99 0 -195 26zM791 1161q0 -63 -31 -88.5t-96 -25.5q-71 0 -96.5 30t-25.5 84q0 61 27 87.5t95 26.5t97.5 -25.5 t29.5 -88.5zM404 1161q0 -63 -31 -88.5t-95 -25.5q-71 0 -97 30t-26 84q0 61 27.5 87.5t95.5 26.5t97 -25.5t29 -88.5z" />
<glyph unicode="&#x100;" horiz-adv-x="1163" d="M23 0l399 1204h319l400 -1204h-252l-80 244h-464l-78 -244h-244zM415 459h325l-162 498zM299 1384v161h584v-161h-584z" />
<glyph unicode="&#x101;" horiz-adv-x="990" d="M665 0v95q-133 -122 -286 -122q-151 0 -228.5 79.5t-77.5 204.5q0 97 39.5 160.5t117.5 99.5t224 51l192 18v41q0 77 -46 105t-135 28q-73 0 -125.5 -24t-77.5 -70l-175 113q46 77 144.5 118.5t237.5 41.5q213 0 307.5 -74.5t94.5 -244.5v-620h-206zM646 424l-114 -11 q-120 -10 -174 -46t-54 -107q0 -63 35 -86t93 -23q40 0 99 26t115 73v174zM194 1092v161h584v-161h-584z" />
<glyph unicode="&#x102;" horiz-adv-x="1163" d="M23 0l399 1204h319l400 -1204h-252l-80 244h-464l-78 -244h-244zM415 459h325l-162 498zM904 1605q0 -77 -38.5 -141t-110.5 -102t-165 -38q-92 0 -164 38t-110.5 102t-38.5 141h163q14 -41 51 -66t101 -25q59 0 97.5 25t50.5 66h164z" />
<glyph unicode="&#x103;" horiz-adv-x="990" d="M665 0v95q-133 -122 -286 -122q-151 0 -228.5 79.5t-77.5 204.5q0 97 39.5 160.5t117.5 99.5t224 51l192 18v41q0 77 -46 105t-135 28q-73 0 -125.5 -24t-77.5 -70l-175 113q46 77 144.5 118.5t237.5 41.5q213 0 307.5 -74.5t94.5 -244.5v-620h-206zM646 424l-114 -11 q-120 -10 -174 -46t-54 -107q0 -63 35 -86t93 -23q40 0 99 26t115 73v174zM795 1313q0 -77 -38.5 -141t-110.5 -102t-165 -38q-92 0 -164 38t-110.5 102t-38.5 141h163q14 -41 51 -66t101 -25q59 0 97.5 25t50.5 66h164z" />
<glyph unicode="&#x104;" horiz-adv-x="1163" d="M1142 -289q-111 -55 -208 -55q-91 0 -141 41t-50 116q0 121 143 194l-77 237h-464l-78 -244h-244l399 1204h319l400 -1204q-120 -25 -170 -55t-50 -69q0 -29 15.5 -41.5t36.5 -12.5q14 0 40 6.5t48 20.5zM415 459h325l-162 498z" />
<glyph unicode="&#x105;" horiz-adv-x="990" d="M871 -289q-111 -55 -208 -55q-91 0 -141 41t-50 116q0 68 49 123t144 93v66q-133 -122 -286 -122q-151 0 -228.5 79.5t-77.5 204.5q0 97 39.5 160.5t117.5 99.5t224 51l192 18v41q0 77 -46 105t-135 28q-73 0 -125.5 -24t-77.5 -70l-175 113q46 77 144.5 118.5 t237.5 41.5q213 0 307.5 -74.5t94.5 -244.5v-620q-119 -25 -169.5 -55t-50.5 -69q0 -54 51 -54q14 0 40 6.5t47 20.5zM646 424l-114 -11q-120 -10 -174 -46t-54 -107q0 -63 35 -86t93 -23q40 0 99 26t115 73v174z" />
<glyph unicode="&#x106;" horiz-adv-x="1159" d="M1110 199q-77 -115 -190 -169.5t-277 -54.5q-559 0 -559 627q0 321 141.5 474t408.5 153q177 0 288.5 -59.5t169.5 -155.5l-191 -148q-41 62 -76 90t-79.5 42t-106.5 14q-147 0 -224.5 -94.5t-77.5 -315.5q0 -206 72.5 -308t231.5 -102q107 0 166.5 41t108.5 109z M659 1343h-178l164 314h274z" />
<glyph unicode="&#x107;" horiz-adv-x="921" d="M880 130q-52 -77 -137 -117t-216 -40q-221 0 -334 120.5t-113 357.5q0 230 109.5 359t329.5 129q117 0 209 -38.5t139 -118.5l-167 -119q-30 41 -71 60.5t-105 19.5q-115 0 -164 -70.5t-49 -218.5t50.5 -216t170.5 -68q53 0 96.5 14.5t82.5 65.5zM549 1051h-178l164 314 h274z" />
<glyph unicode="&#x108;" horiz-adv-x="1159" d="M1110 199q-77 -115 -190 -169.5t-277 -54.5q-559 0 -559 627q0 321 141.5 474t408.5 153q177 0 288.5 -59.5t169.5 -155.5l-191 -148q-41 62 -76 90t-79.5 42t-106.5 14q-147 0 -224.5 -94.5t-77.5 -315.5q0 -206 72.5 -308t231.5 -102q107 0 166.5 41t108.5 109z M773 1343l-127 151l-129 -151h-182l204 314h212l206 -314h-184z" />
<glyph unicode="&#x109;" horiz-adv-x="921" d="M880 130q-52 -77 -137 -117t-216 -40q-221 0 -334 120.5t-113 357.5q0 230 109.5 359t329.5 129q117 0 209 -38.5t139 -118.5l-167 -119q-30 41 -71 60.5t-105 19.5q-115 0 -164 -70.5t-49 -218.5t50.5 -216t170.5 -68q53 0 96.5 14.5t82.5 65.5zM632 1051l-127 151 l-129 -151h-182l204 314h212l206 -314h-184z" />
<glyph unicode="&#x10a;" horiz-adv-x="1159" d="M1110 199q-77 -115 -190 -169.5t-277 -54.5q-559 0 -559 627q0 321 141.5 474t408.5 153q177 0 288.5 -59.5t169.5 -155.5l-191 -148q-41 62 -76 90t-79.5 42t-106.5 14q-147 0 -224.5 -94.5t-77.5 -315.5q0 -206 72.5 -308t231.5 -102q107 0 166.5 41t108.5 109z M720 1453q0 -63 -31 -88.5t-96 -25.5q-71 0 -96.5 30t-25.5 84q0 61 27.5 87.5t94.5 26.5q68 0 97.5 -25.5t29.5 -88.5z" />
<glyph unicode="&#x10b;" horiz-adv-x="921" d="M880 130q-52 -77 -137 -117t-216 -40q-221 0 -334 120.5t-113 357.5q0 230 109.5 359t329.5 129q117 0 209 -38.5t139 -118.5l-167 -119q-30 41 -71 60.5t-105 19.5q-115 0 -164 -70.5t-49 -218.5t50.5 -216t170.5 -68q53 0 96.5 14.5t82.5 65.5zM609 1161 q0 -63 -31 -88.5t-96 -25.5q-71 0 -96.5 30t-25.5 84q0 61 27.5 87.5t94.5 26.5q68 0 97.5 -25.5t29.5 -88.5z" />
<glyph unicode="&#x10c;" horiz-adv-x="1159" d="M1110 199q-77 -115 -190 -169.5t-277 -54.5q-559 0 -559 627q0 321 141.5 474t408.5 153q177 0 288.5 -59.5t169.5 -155.5l-191 -148q-41 62 -76 90t-79.5 42t-106.5 14q-147 0 -224.5 -94.5t-77.5 -315.5q0 -206 72.5 -308t231.5 -102q107 0 166.5 41t108.5 109z M736 1343h-212l-204 314h183l126 -151l131 151h182z" />
<glyph unicode="&#x10d;" horiz-adv-x="921" d="M880 130q-52 -77 -137 -117t-216 -40q-221 0 -334 120.5t-113 357.5q0 230 109.5 359t329.5 129q117 0 209 -38.5t139 -118.5l-167 -119q-30 41 -71 60.5t-105 19.5q-115 0 -164 -70.5t-49 -218.5t50.5 -216t170.5 -68q53 0 96.5 14.5t82.5 65.5zM589 1051h-212l-204 314 h183l126 -151l131 151h182z" />
<glyph unicode="&#x10e;" horiz-adv-x="1142" d="M1067 602q0 -217 -60 -349.5t-180.5 -192.5t-340.5 -60h-367v1204h364q213 0 338.5 -61.5t185.5 -192.5t60 -348zM814 604q0 157 -30.5 233.5t-104.5 109.5t-220 33h-94v-756h94q146 0 219.5 33.5t104.5 112t31 234.5zM623 1343h-212l-204 314h183l126 -151l131 151h182z " />
<glyph unicode="&#x10f;" horiz-adv-x="1171" d="M1137 981h-139l48 314h236zM726 0v89q-63 -53 -132.5 -84.5t-158.5 -31.5q-172 0 -263.5 124.5t-91.5 351.5q0 232 100.5 361t282.5 129q64 0 132 -26.5t112 -67.5v450h225v-1295h-206zM707 659q-35 33 -88 57.5t-107 24.5q-91 0 -146 -77.5t-55 -211.5q0 -131 45 -206 t139 -75q56 0 113.5 26t98.5 63v399z" />
<glyph unicode="&#x110;" horiz-adv-x="1217" d="M1134 602q0 -217 -65 -349.5t-195.5 -192.5t-363.5 -60h-380v505h-128v195h128v504h378q229 0 362.5 -61.5t198.5 -193.5t65 -347zM880 604q0 153 -33.5 230t-114.5 111.5t-246 34.5h-110v-280h280v-195h-280v-281h110q160 0 242 35t117 113.5t35 231.5z" />
<glyph unicode="&#x111;" horiz-adv-x="1058" d="M726 0v89q-63 -53 -132.5 -84.5t-158.5 -31.5q-172 0 -263.5 124.5t-91.5 351.5q0 232 100.5 361t282.5 129q64 0 132 -26.5t112 -67.5v197h-242v160h242v93h225v-93h117v-160h-117v-1042h-206zM707 659q-35 33 -88 57.5t-107 24.5q-91 0 -146 -77.5t-55 -211.5 q0 -131 45 -206t139 -75q56 0 113.5 26t98.5 63v399z" />
<glyph unicode="&#x112;" horiz-adv-x="999" d="M130 0v1204h783v-217h-537v-256h452v-218h-452v-289h537v-224h-783zM219 1384v161h584v-161h-584z" />
<glyph unicode="&#x113;" horiz-adv-x="994" d="M311 398q7 -122 60 -175t167 -53q66 0 116 16.5t87 63.5l167 -120q-55 -79 -142 -118t-239 -39q-225 0 -336 118.5t-111 357.5q0 490 439 490q194 0 296.5 -110t102.5 -321v-110h-607zM695 552q0 208 -182 208q-60 0 -98 -20.5t-61 -60.5t-36 -127h377zM221 1092v161h584 v-161h-584z" />
<glyph unicode="&#x114;" horiz-adv-x="999" d="M130 0v1204h783v-217h-537v-256h452v-218h-452v-289h537v-224h-783zM858 1605q0 -77 -38.5 -141t-110.5 -102t-165 -38q-92 0 -164 38t-110.5 102t-38.5 141h163q14 -41 51 -66t101 -25q59 0 97.5 25t50.5 66h164z" />
<glyph unicode="&#x115;" horiz-adv-x="994" d="M311 398q7 -122 60 -175t167 -53q66 0 116 16.5t87 63.5l167 -120q-55 -79 -142 -118t-239 -39q-225 0 -336 118.5t-111 357.5q0 490 439 490q194 0 296.5 -110t102.5 -321v-110h-607zM695 552q0 208 -182 208q-60 0 -98 -20.5t-61 -60.5t-36 -127h377zM823 1313 q0 -77 -38.5 -141t-110.5 -102t-165 -38q-92 0 -164 38t-110.5 102t-38.5 141h163q14 -41 51 -66t101 -25q59 0 97.5 25t50.5 66h164z" />
<glyph unicode="&#x116;" horiz-adv-x="999" d="M130 0v1204h783v-217h-537v-256h452v-218h-452v-289h537v-224h-783zM645 1453q0 -63 -31 -88.5t-96 -25.5q-71 0 -96.5 30t-25.5 84q0 61 27.5 87.5t94.5 26.5q68 0 97.5 -25.5t29.5 -88.5z" />
<glyph unicode="&#x117;" horiz-adv-x="994" d="M311 398q7 -122 60 -175t167 -53q66 0 116 16.5t87 63.5l167 -120q-55 -79 -142 -118t-239 -39q-225 0 -336 118.5t-111 357.5q0 490 439 490q194 0 296.5 -110t102.5 -321v-110h-607zM695 552q0 208 -182 208q-60 0 -98 -20.5t-61 -60.5t-36 -127h377zM638 1161 q0 -63 -31 -88.5t-96 -25.5q-71 0 -96.5 30t-25.5 84q0 61 27.5 87.5t94.5 26.5q68 0 97.5 -25.5t29.5 -88.5z" />
<glyph unicode="&#x118;" horiz-adv-x="999" d="M913 -289q-114 -55 -209 -55q-91 0 -141 41t-50 116q0 115 130 187h-513v1204h783v-217h-537v-256h452v-218h-452v-289h537v-224q-120 -25 -170.5 -55t-50.5 -69q0 -54 51 -54q14 0 40 6.5t47 20.5z" />
<glyph unicode="&#x119;" horiz-adv-x="994" d="M918 398h-607q7 -122 60 -175t167 -53q66 0 116 16.5t87 63.5l167 -120q-29 -43 -68 -75q-69 -53 -106 -95.5t-37 -83.5q0 -29 15 -41.5t36 -12.5q15 0 40.5 6.5t47.5 20.5l82 -138q-114 -55 -209 -55q-90 0 -140 41t-50 116q0 81 59 160h-36q-233 0 -347.5 117 t-114.5 359q0 490 439 490q194 0 296.5 -110t102.5 -321v-110zM695 552q0 208 -182 208q-60 0 -98 -20.5t-61 -60.5t-36 -127h377z" />
<glyph unicode="&#x11a;" horiz-adv-x="999" d="M130 0v1204h783v-217h-537v-256h452v-218h-452v-289h537v-224h-783zM625 1343h-212l-204 314h183l126 -151l131 151h182z" />
<glyph unicode="&#x11b;" horiz-adv-x="994" d="M311 398q7 -122 60 -175t167 -53q66 0 116 16.5t87 63.5l167 -120q-55 -79 -142 -118t-239 -39q-225 0 -336 118.5t-111 357.5q0 490 439 490q194 0 296.5 -110t102.5 -321v-110h-607zM695 552q0 208 -182 208q-60 0 -98 -20.5t-61 -60.5t-36 -127h377zM620 1051h-212 l-204 314h183l126 -151l131 151h182z" />
<glyph unicode="&#x11c;" horiz-adv-x="1231" d="M927 866q-47 74 -113 110t-166 36q-164 0 -237.5 -106t-73.5 -314q0 -207 72.5 -303.5t233.5 -96.5q122 0 224 51v187h-235v216h482v-532q-84 -63 -208 -101t-255 -38q-282 0 -424.5 147t-142.5 470q0 637 561 637q163 0 285 -54.5t185 -160.5zM773 1343l-127 151 l-129 -151h-182l204 314h212l206 -314h-184z" />
<glyph unicode="&#x11d;" horiz-adv-x="1058" d="M932 17q0 -182 -112.5 -271.5t-360.5 -89.5q-204 0 -357 79l66 183q142 -66 291 -66q140 0 194 40t54 135v75q-111 -102 -269 -102q-167 0 -262.5 120t-95.5 345q0 141 45 248.5t131.5 166.5t208.5 59q73 0 145 -32t121 -81l29 87h172v-896zM707 659q-92 82 -201 82 q-81 0 -138 -74.5t-57 -197.5q0 -139 50.5 -205.5t130.5 -66.5q111 0 215 90v372zM649 1051l-127 151l-129 -151h-182l204 314h212l206 -314h-184z" />
<glyph unicode="&#x11e;" horiz-adv-x="1231" d="M927 866q-47 74 -113 110t-166 36q-164 0 -237.5 -106t-73.5 -314q0 -207 72.5 -303.5t233.5 -96.5q122 0 224 51v187h-235v216h482v-532q-84 -63 -208 -101t-255 -38q-282 0 -424.5 147t-142.5 470q0 637 561 637q163 0 285 -54.5t185 -160.5zM952 1605 q0 -77 -38.5 -141t-110.5 -102t-165 -38q-92 0 -164 38t-110.5 102t-38.5 141h163q14 -41 51 -66t101 -25q59 0 97.5 25t50.5 66h164z" />
<glyph unicode="&#x11f;" horiz-adv-x="1058" d="M932 17q0 -182 -112.5 -271.5t-360.5 -89.5q-204 0 -357 79l66 183q142 -66 291 -66q140 0 194 40t54 135v75q-111 -102 -269 -102q-167 0 -262.5 120t-95.5 345q0 141 45 248.5t131.5 166.5t208.5 59q73 0 145 -32t121 -81l29 87h172v-896zM707 659q-92 82 -201 82 q-81 0 -138 -74.5t-57 -197.5q0 -139 50.5 -205.5t130.5 -66.5q111 0 215 90v372zM829 1313q0 -77 -38.5 -141t-110.5 -102t-165 -38q-92 0 -164 38t-110.5 102t-38.5 141h163q14 -41 51 -66t101 -25q59 0 97.5 25t50.5 66h164z" />
<glyph unicode="&#x120;" horiz-adv-x="1231" d="M927 866q-47 74 -113 110t-166 36q-164 0 -237.5 -106t-73.5 -314q0 -207 72.5 -303.5t233.5 -96.5q122 0 224 51v187h-235v216h482v-532q-84 -63 -208 -101t-255 -38q-282 0 -424.5 147t-142.5 470q0 637 561 637q163 0 285 -54.5t185 -160.5zM759 1453q0 -63 -31 -88.5 t-96 -25.5q-71 0 -96.5 30t-25.5 84q0 61 27.5 87.5t94.5 26.5q68 0 97.5 -25.5t29.5 -88.5z" />
<glyph unicode="&#x121;" horiz-adv-x="1058" d="M932 17q0 -182 -112.5 -271.5t-360.5 -89.5q-204 0 -357 79l66 183q142 -66 291 -66q140 0 194 40t54 135v75q-111 -102 -269 -102q-167 0 -262.5 120t-95.5 345q0 141 45 248.5t131.5 166.5t208.5 59q73 0 145 -32t121 -81l29 87h172v-896zM707 659q-92 82 -201 82 q-81 0 -138 -74.5t-57 -197.5q0 -139 50.5 -205.5t130.5 -66.5q111 0 215 90v372zM627 1161q0 -63 -31 -88.5t-96 -25.5q-71 0 -96.5 30t-25.5 84q0 61 27.5 87.5t94.5 26.5q68 0 97.5 -25.5t29.5 -88.5z" />
<glyph unicode="&#x122;" horiz-adv-x="1231" d="M927 866q-47 74 -113 110t-166 36q-164 0 -237.5 -106t-73.5 -314q0 -207 72.5 -303.5t233.5 -96.5q122 0 224 51v187h-235v216h482v-532q-84 -63 -208 -101t-255 -38q-282 0 -424.5 147t-142.5 470q0 637 561 637q163 0 285 -54.5t185 -160.5zM561 -490q41 48 55.5 83 t17.5 69q-57 3 -83 36t-26 99q0 64 30.5 101.5t114.5 37.5q139 0 139 -157q0 -148 -104 -269h-144z" />
<glyph unicode="&#x123;" horiz-adv-x="1058" d="M932 17q0 -182 -112.5 -271.5t-360.5 -89.5q-204 0 -357 79l66 183q142 -66 291 -66q140 0 194 40t54 135v75q-111 -102 -269 -102q-167 0 -262.5 120t-95.5 345q0 141 45 248.5t131.5 166.5t208.5 59q73 0 145 -32t121 -81l29 87h172v-896zM707 659q-92 82 -201 82 q-81 0 -138 -74.5t-57 -197.5q0 -139 50.5 -205.5t130.5 -66.5q111 0 215 90v372zM610 1440q-41 -49 -55 -83.5t-18 -68.5q57 -3 83 -36t26 -99q0 -65 -30.5 -102t-114.5 -37q-139 0 -139 157q0 148 104 269h144z" />
<glyph unicode="&#x124;" horiz-adv-x="1225" d="M850 0v512h-474v-512h-246v1204h246v-468h474v468h246v-1204h-246zM746 1343l-127 151l-129 -151h-182l204 314h212l206 -314h-184z" />
<glyph unicode="&#x125;" horiz-adv-x="1058" d="M714 0v503q0 144 -27 191t-95 47q-100 0 -241 -132v-609h-225v1295h225v-501q71 72 152 108.5t158 36.5q153 0 215.5 -86.5t62.5 -243.5v-609h-225zM679 1343l-127 151l-129 -151h-182l204 314h212l206 -314h-184z" />
<glyph unicode="&#x126;" horiz-adv-x="1225" d="M850 0v512h-474v-512h-246v862h-121v179h121v163h246v-163h474v163h246v-163h121v-179h-121v-862h-246zM850 736v126h-474v-126h474z" />
<glyph unicode="&#x127;" horiz-adv-x="1058" d="M714 0v503q0 144 -27 191t-95 47q-100 0 -241 -132v-609h-225v1042h-124v160h124v93h225v-93h235v-160h-235v-248q71 72 152 108.5t158 36.5q153 0 215.5 -86.5t62.5 -243.5v-609h-225z" />
<glyph unicode="&#x128;" horiz-adv-x="758" d="M670 0h-581v189h168v826h-168v189h581v-189h-167v-826h167v-189zM30 1363q5 135 64 205.5t164 70.5q53 0 90.5 -19.5t67 -42t54.5 -42t54 -19.5q30 0 44.5 30.5t14.5 80.5h158q-9 -144 -66 -212.5t-164 -68.5q-57 0 -94.5 20t-65.5 44t-51.5 43.5t-52.5 19.5 q-58 0 -58 -110h-159z" />
<glyph unicode="&#x129;" horiz-adv-x="477" d="M126 0v913h225v-913h-225zM-120 1071q5 135 64 205.5t164 70.5q53 0 90.5 -19.5t67 -42t54.5 -42t54 -19.5q30 0 44.5 30.5t14.5 80.5h158q-9 -144 -66 -212.5t-164 -68.5q-57 0 -94.5 20t-65.5 44t-51.5 43.5t-52.5 19.5q-58 0 -58 -110h-159z" />
<glyph unicode="&#x12a;" horiz-adv-x="758" d="M670 0h-581v189h168v826h-168v189h581v-189h-167v-826h167v-189zM89 1384v161h584v-161h-584z" />
<glyph unicode="&#x12b;" horiz-adv-x="477" d="M126 0v913h225v-913h-225zM-52 1092v161h584v-161h-584z" />
<glyph unicode="&#x12c;" horiz-adv-x="758" d="M670 0h-581v189h168v826h-168v189h581v-189h-167v-826h167v-189zM697 1605q0 -77 -38.5 -141t-110.5 -102t-165 -38q-92 0 -164 38t-110.5 102t-38.5 141h163q14 -41 51 -66t101 -25q59 0 97.5 25t50.5 66h164z" />
<glyph unicode="&#x12d;" horiz-adv-x="477" d="M126 0v913h225v-913h-225zM549 1313q0 -77 -38.5 -141t-110.5 -102t-165 -38q-92 0 -164 38t-110.5 102t-38.5 141h163q14 -41 51 -66t101 -25q59 0 97.5 25t50.5 66h164z" />
<glyph unicode="&#x12e;" horiz-adv-x="758" d="M670 -289q-111 -55 -209 -55q-90 0 -140 41t-50 116q0 116 130 187h-312v189h168v826h-168v189h581v-189h-167v-826h167v-189q-119 -25 -170 -55t-51 -69q0 -29 15 -41.5t36 -12.5q15 0 40.5 6.5t47.5 20.5z" />
<glyph unicode="&#x12f;" horiz-adv-x="477" d="M351 0q-93 -20 -139.5 -52.5t-46.5 -71.5q0 -29 15.5 -41.5t37.5 -12.5q13 0 39.5 6.5t46.5 20.5l82 -138q-111 -55 -208 -55q-91 0 -140.5 41t-49.5 116q0 116 138 190v910h225v-913zM364 1161q0 -63 -31.5 -88.5t-95.5 -25.5q-72 0 -97.5 30t-25.5 84q0 61 28 87.5 t95 26.5t97 -25.5t30 -88.5z" />
<glyph unicode="&#x130;" horiz-adv-x="758" d="M670 0h-581v189h168v826h-168v189h581v-189h-167v-826h167v-189zM501 1453q0 -63 -31 -88.5t-96 -25.5q-71 0 -96.5 30t-25.5 84q0 61 27.5 87.5t94.5 26.5q68 0 97.5 -25.5t29.5 -88.5z" />
<glyph unicode="&#x131;" horiz-adv-x="477" d="M126 0v913h225v-913h-225z" />
<glyph unicode="&#x132;" horiz-adv-x="1509" d="M670 0h-581v189h168v826h-168v189h581v-189h-167v-826h167v-189zM1376 328q0 -191 -96 -273t-302 -82q-44 0 -123 13t-132 34l75 218q28 -14 89.5 -30.5t96.5 -16.5q64 0 92.5 17t41 60.5t12.5 125.5v810h246v-876z" />
<glyph unicode="&#x133;" horiz-adv-x="967" d="M364 1161q0 -63 -31.5 -88.5t-95.5 -25.5q-72 0 -97.5 30t-25.5 84q0 61 28 87.5t95 26.5t97 -25.5t30 -88.5zM126 0v913h225v-913h-225zM854 1161q0 -63 -31.5 -88.5t-94.5 -25.5q-72 0 -98 30t-26 84q0 61 28 87.5t96 26.5t97 -25.5t29 -88.5zM842 -39 q0 -164 -73 -234.5t-240 -70.5q-37 0 -98 8.5t-94 17.5l49 195q63 -25 131 -25t84 42t16 138v881h225v-952z" />
<glyph unicode="&#x134;" horiz-adv-x="803" d="M670 328q0 -191 -96 -273t-302 -82q-44 0 -123 13t-132 34l75 218q28 -14 89.5 -30.5t96.5 -16.5q64 0 92.5 17t41 60.5t12.5 125.5v810h246v-876zM679 1343l-127 151l-129 -151h-182l204 314h212l206 -314h-184z" />
<glyph unicode="&#x135;" horiz-adv-x="489" d="M364 -39q0 -164 -73 -234.5t-240 -70.5q-37 0 -98 8.5t-94 17.5l49 195q63 -25 131 -25t84 42t16 138v881h225v-952zM377 1051l-127 151l-129 -151h-182l204 314h212l206 -314h-184z" />
<glyph unicode="&#x136;" horiz-adv-x="1113" d="M782 0l-333 503l-73 -85v-418h-246v1204h246v-470l394 470h286l-449 -518l481 -686h-306zM437 -490q41 48 55.5 83t17.5 69q-57 3 -83 36t-26 99q0 64 30.5 101.5t114.5 37.5q139 0 139 -157q0 -148 -104 -269h-144z" />
<glyph unicode="&#x137;" horiz-adv-x="957" d="M682 0l-244 378l-87 -94v-284h-225v1295h225v-741l307 359h260l-345 -384l364 -529h-255zM362 -490q41 48 55.5 83t17.5 69q-57 3 -83 36t-26 99q0 64 30.5 101.5t114.5 37.5q139 0 139 -157q0 -148 -104 -269h-144z" />
<glyph unicode="&#x138;" horiz-adv-x="957" d="M682 0l-244 378l-87 -94v-284h-225v913h225v-359l264 310q64 75 144 75q50 0 152 -26l-54 -170q-39 14 -57 14q-14 0 -23 -6t-20 -17l-184 -205l364 -529h-255z" />
<glyph unicode="&#x139;" horiz-adv-x="903" d="M130 0v1204h246v-980h506v-224h-752zM484 1343h-178l164 314h274z" />
<glyph unicode="&#x13a;" horiz-adv-x="477" d="M126 0v1295h225v-1295h-225zM269 1345h-178l164 314h274z" />
<glyph unicode="&#x13b;" horiz-adv-x="903" d="M130 0v1204h246v-980h506v-224h-752zM396 -490q41 48 55.5 83t17.5 69q-57 3 -83 36t-26 99q0 64 30.5 101.5t114.5 37.5q139 0 139 -157q0 -148 -104 -269h-144z" />
<glyph unicode="&#x13c;" horiz-adv-x="477" d="M126 0v1295h225v-1295h-225zM138 -490q41 48 55.5 83t17.5 69q-57 3 -83 36t-26 99q0 64 30.5 101.5t114.5 37.5q139 0 139 -157q0 -148 -104 -269h-144z" />
<glyph unicode="&#x13d;" horiz-adv-x="903" d="M130 0v1204h246v-980h506v-224h-752zM586 892h-139l48 314h236z" />
<glyph unicode="&#x13e;" horiz-adv-x="586" d="M126 0v1295h225v-1295h-225zM552 981h-139l48 314h236z" />
<glyph unicode="&#x13f;" horiz-adv-x="903" d="M130 0v1204h246v-980h506v-224h-752zM827 662q0 -63 -31 -88.5t-96 -25.5q-71 0 -96.5 30t-25.5 84q0 61 27.5 87.5t94.5 26.5q68 0 97.5 -25.5t29.5 -88.5z" />
<glyph unicode="&#x140;" horiz-adv-x="722" d="M126 0v1295h225v-1295h-225zM725 662q0 -63 -31 -88.5t-96 -25.5q-71 0 -96.5 30t-25.5 84q0 61 27.5 87.5t94.5 26.5q68 0 97.5 -25.5t29.5 -88.5z" />
<glyph unicode="&#x141;" horiz-adv-x="903" d="M130 0v435l-121 -95v233l121 95v536h246v-363l196 153v-234l-196 -153v-383h506v-224h-752z" />
<glyph unicode="&#x142;" horiz-adv-x="477" d="M351 641v-641h-225v433l-117 -120v202l117 119v661h225v-452l118 119v-202z" />
<glyph unicode="&#x143;" horiz-adv-x="1227" d="M809 0l-438 860v-860h-241v1204h319l408 -812v812h241v-1204h-289zM632 1343h-178l164 314h274z" />
<glyph unicode="&#x144;" horiz-adv-x="1058" d="M714 0v503q0 143 -25.5 190.5t-96.5 47.5q-100 0 -241 -132v-609h-225v913h225v-119q71 72 152 108.5t158 36.5q140 0 209 -76.5t69 -253.5v-609h-225zM573 1051h-178l164 314h274z" />
<glyph unicode="&#x145;" horiz-adv-x="1227" d="M809 0l-438 860v-860h-241v1204h319l408 -812v812h241v-1204h-289zM526 -490q41 48 55.5 83t17.5 69q-57 3 -83 36t-26 99q0 64 30.5 101.5t114.5 37.5q139 0 139 -157q0 -148 -104 -269h-144z" />
<glyph unicode="&#x146;" horiz-adv-x="1058" d="M714 0v503q0 143 -25.5 190.5t-96.5 47.5q-100 0 -241 -132v-609h-225v913h225v-119q71 72 152 108.5t158 36.5q140 0 209 -76.5t69 -253.5v-609h-225zM412 -490q41 48 55.5 83t17.5 69q-57 3 -83 36t-26 99q0 64 30.5 101.5t114.5 37.5q139 0 139 -157q0 -148 -104 -269 h-144z" />
<glyph unicode="&#x147;" horiz-adv-x="1227" d="M809 0l-438 860v-860h-241v1204h319l408 -812v812h241v-1204h-289zM717 1343h-212l-204 314h183l126 -151l131 151h182z" />
<glyph unicode="&#x148;" horiz-adv-x="1058" d="M714 0v503q0 143 -25.5 190.5t-96.5 47.5q-100 0 -241 -132v-609h-225v913h225v-119q71 72 152 108.5t158 36.5q140 0 209 -76.5t69 -253.5v-609h-225zM649 1051h-212l-204 314h183l126 -151l131 151h182z" />
<glyph unicode="&#x149;" horiz-adv-x="1263" d="M919 0v503q0 143 -25.5 190.5t-96.5 47.5q-100 0 -241 -132v-609h-225v913h225v-119q71 72 152 108.5t158 36.5q140 0 209 -76.5t69 -253.5v-609h-225zM266 1073q0 -107 -36.5 -204t-79.5 -160h-168q53 75 79.5 143.5t29.5 102.5q-57 4 -83 37t-26 98q0 64 30.5 101.5 t114.5 37.5q139 0 139 -156z" />
<glyph unicode="&#x14a;" horiz-adv-x="1227" d="M641 -123q65 -25 132 -25q63 0 80.5 35t19.5 113l-502 860v-860h-241v1204h319l408 -752v752h241v-1243q0 -164 -73 -234.5t-239 -70.5q-40 0 -101 8.5t-92 17.5z" />
<glyph unicode="&#x14b;" horiz-adv-x="1058" d="M126 0v913h225v-119q71 72 152 108.5t158 36.5q140 0 209 -76.5t69 -253.5v-648q0 -164 -73 -234.5t-239 -70.5q-38 0 -99 8.5t-93 17.5l48 195q64 -25 132 -25q67 0 83 42t16 138v471q0 143 -25.5 190.5t-96.5 47.5q-100 0 -241 -132v-609h-225z" />
<glyph unicode="&#x14c;" horiz-adv-x="1186" d="M1112 602q0 -314 -132.5 -470.5t-386.5 -156.5q-267 0 -392.5 164.5t-125.5 462.5q0 299 125.5 463t392.5 164q269 0 394 -164t125 -463zM859 602q0 214 -60.5 312t-205.5 98q-144 0 -204.5 -98t-60.5 -312t61.5 -312t203.5 -98q145 0 205.5 98t60.5 312zM310 1384v161 h584v-161h-584z" />
<glyph unicode="&#x14d;" horiz-adv-x="1035" d="M955 454q0 -228 -105 -354.5t-331 -126.5q-439 0 -439 481q0 232 105.5 358.5t333.5 126.5q226 0 331 -126.5t105 -358.5zM723 454q0 151 -47 220t-157 69t-159 -71t-49 -218q0 -146 48.5 -215t159.5 -69q108 0 156 68t48 216zM221 1092v161h584v-161h-584z" />
<glyph unicode="&#x14e;" horiz-adv-x="1186" d="M1112 602q0 -314 -132.5 -470.5t-386.5 -156.5q-267 0 -392.5 164.5t-125.5 462.5q0 299 125.5 463t392.5 164q269 0 394 -164t125 -463zM859 602q0 214 -60.5 312t-205.5 98q-144 0 -204.5 -98t-60.5 -312t61.5 -312t203.5 -98q145 0 205.5 98t60.5 312zM909 1605 q0 -77 -38.5 -141t-110.5 -102t-165 -38q-92 0 -164 38t-110.5 102t-38.5 141h163q14 -41 51 -66t101 -25q59 0 97.5 25t50.5 66h164z" />
<glyph unicode="&#x14f;" horiz-adv-x="1035" d="M955 454q0 -228 -105 -354.5t-331 -126.5q-439 0 -439 481q0 232 105.5 358.5t333.5 126.5q226 0 331 -126.5t105 -358.5zM723 454q0 151 -47 220t-157 69t-159 -71t-49 -218q0 -146 48.5 -215t159.5 -69q108 0 156 68t48 216zM832 1313q0 -77 -38.5 -141t-110.5 -102 t-165 -38q-92 0 -164 38t-110.5 102t-38.5 141h163q14 -41 51 -66t101 -25q59 0 97.5 25t50.5 66h164z" />
<glyph unicode="&#x150;" horiz-adv-x="1186" d="M1112 602q0 -314 -132.5 -470.5t-386.5 -156.5q-267 0 -392.5 164.5t-125.5 462.5q0 299 125.5 463t392.5 164q269 0 394 -164t125 -463zM859 602q0 214 -60.5 312t-205.5 98q-144 0 -204.5 -98t-60.5 -312t61.5 -312t203.5 -98q145 0 205.5 98t60.5 312zM841 1343h-178 l164 314h275zM479 1343h-178l165 314h274z" />
<glyph unicode="&#x151;" horiz-adv-x="1035" d="M955 454q0 -228 -105 -354.5t-331 -126.5q-439 0 -439 481q0 232 105.5 358.5t333.5 126.5q226 0 331 -126.5t105 -358.5zM723 454q0 151 -47 220t-157 69t-159 -71t-49 -218q0 -146 48.5 -215t159.5 -69q108 0 156 68t48 216zM770 1051h-178l164 314h275zM408 1051h-178 l165 314h274z" />
<glyph unicode="&#x152;" horiz-adv-x="1669" d="M833 0q-92 -25 -218 -25q-271 0 -401 164.5t-130 462.5q0 299 131.5 463t399.5 164q105 0 215 -25h753v-217h-495v-261h407v-218h-407v-284h495v-224h-750zM841 955q-87 57 -207 57q-158 0 -227.5 -96t-69.5 -314q0 -214 67.5 -312t229.5 -98q68 0 113.5 13t93.5 43v707z " />
<glyph unicode="&#x153;" horiz-adv-x="1630" d="M948 398q6 -122 58.5 -175t167.5 -53q64 0 115 16.5t88 63.5l168 -120q-56 -79 -141 -118t-226 -39q-230 0 -340 132q-121 -132 -319 -132q-230 0 -334.5 127.5t-104.5 353.5q0 234 105.5 359.5t324.5 125.5q212 0 328 -130q49 55 125 92.5t200 37.5q191 0 291 -112 t100 -319v-110h-606zM1331 552q0 208 -182 208q-59 0 -98 -20.5t-61.5 -61t-35.5 -126.5h377zM723 454q0 160 -50.5 224.5t-153.5 64.5q-110 0 -159 -71t-49 -218q0 -146 48.5 -215t159.5 -69q101 0 152.5 64.5t51.5 219.5z" />
<glyph unicode="&#x154;" horiz-adv-x="1117" d="M807 0l-307 456h-124v-456h-246v1204h438q232 0 339.5 -83.5t107.5 -273.5q0 -154 -64.5 -245.5t-184.5 -116.5l322 -485h-281zM766 836q0 92 -46.5 123.5t-153.5 31.5h-190v-321h180q83 0 127 15.5t63.5 48.5t19.5 102zM558 1343h-178l164 314h274z" />
<glyph unicode="&#x155;" horiz-adv-x="730" d="M677 693q-35 18 -92 18q-63 0 -119 -30t-115 -88v-593h-225v913h225v-131q57 63 123 104t148 41q70 0 99 -19zM445 1051h-178l164 314h274z" />
<glyph unicode="&#x156;" horiz-adv-x="1117" d="M807 0l-307 456h-124v-456h-246v1204h438q232 0 339.5 -83.5t107.5 -273.5q0 -154 -64.5 -245.5t-184.5 -116.5l322 -485h-281zM766 836q0 92 -46.5 123.5t-153.5 31.5h-190v-321h180q83 0 127 15.5t63.5 48.5t19.5 102zM461 -490q41 48 55.5 83t17.5 69q-57 3 -83 36 t-26 99q0 64 30.5 101.5t114.5 37.5q139 0 139 -157q0 -148 -104 -269h-144z" />
<glyph unicode="&#x157;" horiz-adv-x="730" d="M677 693q-35 18 -92 18q-63 0 -119 -30t-115 -88v-593h-225v913h225v-131q57 63 123 104t148 41q70 0 99 -19zM134 -490q41 48 55.5 83t17.5 69q-57 3 -83 36t-26 99q0 64 30.5 101.5t114.5 37.5q139 0 139 -157q0 -148 -104 -269h-144z" />
<glyph unicode="&#x158;" horiz-adv-x="1117" d="M807 0l-307 456h-124v-456h-246v1204h438q232 0 339.5 -83.5t107.5 -273.5q0 -154 -64.5 -245.5t-184.5 -116.5l322 -485h-281zM766 836q0 92 -46.5 123.5t-153.5 31.5h-190v-321h180q83 0 127 15.5t63.5 48.5t19.5 102zM651 1343h-212l-204 314h183l126 -151l131 151 h182z" />
<glyph unicode="&#x159;" horiz-adv-x="730" d="M677 693q-35 18 -92 18q-63 0 -119 -30t-115 -88v-593h-225v913h225v-131q57 63 123 104t148 41q70 0 99 -19zM503 1051h-212l-204 314h183l126 -151l131 151h182z" />
<glyph unicode="&#x15a;" horiz-adv-x="1069" d="M996 349q0 -181 -118.5 -277.5t-350.5 -96.5q-160 0 -278 53t-192 171l189 145q42 -60 79.5 -89.5t88.5 -46t118 -16.5q100 0 156.5 34.5t56.5 104.5q0 40 -19.5 67t-59 47t-135.5 45q-94 25 -177 50.5t-143.5 66.5t-95.5 103t-35 156q0 171 115.5 267t331.5 96 q313 0 442 -214l-187 -146q-49 77 -111 110t-147 33q-86 0 -139.5 -31t-53.5 -97q0 -58 56 -89t194 -62q77 -20 151.5 -43.5t133.5 -64t94.5 -107t35.5 -169.5zM570 1343h-178l164 314h274z" />
<glyph unicode="&#x15b;" horiz-adv-x="892" d="M823 260q0 -90 -45.5 -154.5t-129.5 -98.5t-192 -34q-286 0 -390 159l167 118q41 -56 94.5 -74.5t114.5 -18.5q160 0 160 93q0 41 -45 63t-142 45q-182 40 -256 113.5t-74 189.5q0 121 93 199.5t273 78.5q122 0 215.5 -39.5t144.5 -117.5l-168 -119q-60 92 -196 92 q-69 0 -105 -24t-36 -61q0 -36 32.5 -57t126.5 -45q156 -38 222.5 -76t101 -94t34.5 -138zM486 1051h-178l164 314h274z" />
<glyph unicode="&#x15c;" horiz-adv-x="1069" d="M996 349q0 -181 -118.5 -277.5t-350.5 -96.5q-160 0 -278 53t-192 171l189 145q42 -60 79.5 -89.5t88.5 -46t118 -16.5q100 0 156.5 34.5t56.5 104.5q0 40 -19.5 67t-59 47t-135.5 45q-94 25 -177 50.5t-143.5 66.5t-95.5 103t-35 156q0 171 115.5 267t331.5 96 q313 0 442 -214l-187 -146q-49 77 -111 110t-147 33q-86 0 -139.5 -31t-53.5 -97q0 -58 56 -89t194 -62q77 -20 151.5 -43.5t133.5 -64t94.5 -107t35.5 -169.5zM651 1343l-127 151l-129 -151h-182l204 314h212l206 -314h-184z" />
<glyph unicode="&#x15d;" horiz-adv-x="892" d="M823 260q0 -90 -45.5 -154.5t-129.5 -98.5t-192 -34q-286 0 -390 159l167 118q41 -56 94.5 -74.5t114.5 -18.5q160 0 160 93q0 41 -45 63t-142 45q-182 40 -256 113.5t-74 189.5q0 121 93 199.5t273 78.5q122 0 215.5 -39.5t144.5 -117.5l-168 -119q-60 92 -196 92 q-69 0 -105 -24t-36 -61q0 -36 32.5 -57t126.5 -45q156 -38 222.5 -76t101 -94t34.5 -138zM581 1051l-127 151l-129 -151h-182l204 314h212l206 -314h-184z" />
<glyph unicode="&#x15e;" horiz-adv-x="1069" d="M746 -178q0 -166 -249 -166q-149 0 -230 40l61 126q92 -40 167 -40q47 0 65.5 10.5t18.5 30.5q0 55 -157 63l47 91q-144 10 -243 61.5t-169 160.5l189 145q42 -60 79.5 -89.5t88.5 -46t118 -16.5q100 0 156.5 34.5t56.5 104.5q0 40 -19.5 67t-59 47t-135.5 45 q-94 25 -177 50.5t-143.5 66.5t-95.5 103t-35 156q0 171 115.5 267t331.5 96q313 0 442 -214l-187 -146q-49 77 -111 110t-147 33q-86 0 -139.5 -31t-53.5 -97q0 -58 56 -89t194 -62q77 -20 151.5 -43.5t133.5 -64t94.5 -107t35.5 -169.5q0 -162 -94.5 -256.5t-277.5 -112.5 q51 -14 86.5 -55t35.5 -103z" />
<glyph unicode="&#x15f;" horiz-adv-x="892" d="M680 -178q0 -166 -248 -166q-150 0 -231 40l61 126q92 -40 168 -40q46 0 64.5 10.5t18.5 30.5q0 55 -156 63l46 89q-245 16 -337 157l167 118q41 -56 94.5 -74.5t114.5 -18.5q160 0 160 93q0 41 -45 63t-142 45q-182 40 -256 113.5t-74 189.5q0 121 93 199.5t273 78.5 q122 0 215.5 -39.5t144.5 -117.5l-168 -119q-60 92 -196 92q-69 0 -105 -24t-36 -61q0 -36 32.5 -57t126.5 -45q156 -38 222.5 -76t101 -94t34.5 -138q0 -113 -70 -185t-199 -92v-3q53 -12 89.5 -53t36.5 -105z" />
<glyph unicode="&#x160;" horiz-adv-x="1069" d="M996 349q0 -181 -118.5 -277.5t-350.5 -96.5q-160 0 -278 53t-192 171l189 145q42 -60 79.5 -89.5t88.5 -46t118 -16.5q100 0 156.5 34.5t56.5 104.5q0 40 -19.5 67t-59 47t-135.5 45q-94 25 -177 50.5t-143.5 66.5t-95.5 103t-35 156q0 171 115.5 267t331.5 96 q313 0 442 -214l-187 -146q-49 77 -111 110t-147 33q-86 0 -139.5 -31t-53.5 -97q0 -58 56 -89t194 -62q77 -20 151.5 -43.5t133.5 -64t94.5 -107t35.5 -169.5zM610 1343h-212l-204 314h183l126 -151l131 151h182z" />
<glyph unicode="&#x161;" horiz-adv-x="892" d="M823 260q0 -90 -45.5 -154.5t-129.5 -98.5t-192 -34q-286 0 -390 159l167 118q41 -56 94.5 -74.5t114.5 -18.5q160 0 160 93q0 41 -45 63t-142 45q-182 40 -256 113.5t-74 189.5q0 121 93 199.5t273 78.5q122 0 215.5 -39.5t144.5 -117.5l-168 -119q-60 92 -196 92 q-69 0 -105 -24t-36 -61q0 -36 32.5 -57t126.5 -45q156 -38 222.5 -76t101 -94t34.5 -138zM529 1051h-212l-204 314h183l126 -151l131 151h182z" />
<glyph unicode="&#x162;" horiz-adv-x="1047" d="M743 -178q0 -166 -250 -166q-148 0 -229 40l61 126q92 -40 167 -40q46 0 65 10.5t19 30.5q0 55 -158 63l60 114h-77v980h-371v224h987v-224h-371v-980h-56l-9 -20q82 -10 122 -52t40 -106z" />
<glyph unicode="&#x163;" horiz-adv-x="642" d="M606 -178q0 -166 -249 -166q-150 0 -231 40l61 126q92 -40 168 -40q46 0 64.5 10.5t18.5 30.5q0 55 -156 63l49 98q-100 21 -144 92.5t-44 199.5v458h-116v179h116v254h224v-254h212v-179h-212v-430q0 -85 26.5 -115.5t75.5 -30.5q62 0 123 26l39 -184q-55 -16 -136 -23 q47 -16 79 -55t32 -100z" />
<glyph unicode="&#x164;" horiz-adv-x="1047" d="M646 980v-980h-245v980h-371v224h987v-224h-371zM630 1343h-212l-204 314h183l126 -151l131 151h182z" />
<glyph unicode="&#x165;" horiz-adv-x="642" d="M586 981h-139l48 314h236zM631 0q-91 -27 -191 -27q-158 0 -227.5 71.5t-69.5 231.5v458h-116v179h116v254h224v-254h212v-179h-212v-430q0 -85 26.5 -115.5t75.5 -30.5q62 0 123 26z" />
<glyph unicode="&#x166;" horiz-adv-x="1047" d="M646 980v-235h170v-160h-170v-585h-245v585h-170v160h170v235h-371v224h987v-224h-371z" />
<glyph unicode="&#x167;" horiz-adv-x="642" d="M367 467v-163q0 -85 26.5 -115.5t75.5 -30.5q62 0 123 26l39 -184q-91 -27 -191 -27q-158 0 -227.5 71.5t-69.5 231.5v191h-134v160h134v107h-116v179h116v254h224v-254h212v-179h-212v-107h226v-160h-226z" />
<glyph unicode="&#x168;" horiz-adv-x="1251" d="M1121 503q0 -283 -115 -406.5t-380 -123.5q-263 0 -379.5 122.5t-116.5 407.5v701h246v-684q0 -122 23.5 -192.5t74.5 -103.5t150 -33q140 0 195.5 74t55.5 252v687h246v-701zM275 1363q5 135 64 205.5t164 70.5q53 0 90.5 -19.5t67 -42t54.5 -42t54 -19.5 q30 0 44.5 30.5t14.5 80.5h158q-9 -144 -66 -212.5t-164 -68.5q-57 0 -94.5 20t-65.5 44t-51.5 43.5t-52.5 19.5q-58 0 -58 -110h-159z" />
<glyph unicode="&#x169;" horiz-adv-x="1058" d="M707 0v117q-59 -63 -144.5 -103.5t-164.5 -40.5q-155 0 -217 85.5t-62 244.5v610h225v-503q0 -97 11 -148t37 -71t75 -20q100 0 240 132v610h225v-913h-225zM188 1071q5 135 64 205.5t164 70.5q53 0 90.5 -19.5t67 -42t54.5 -42t54 -19.5q30 0 44.5 30.5t14.5 80.5h158 q-9 -144 -66 -212.5t-164 -68.5q-57 0 -94.5 20t-65.5 44t-51.5 43.5t-52.5 19.5q-58 0 -58 -110h-159z" />
<glyph unicode="&#x16a;" horiz-adv-x="1251" d="M1121 503q0 -283 -115 -406.5t-380 -123.5q-263 0 -379.5 122.5t-116.5 407.5v701h246v-684q0 -122 23.5 -192.5t74.5 -103.5t150 -33q140 0 195.5 74t55.5 252v687h246v-701zM346 1384v161h584v-161h-584z" />
<glyph unicode="&#x16b;" horiz-adv-x="1058" d="M707 0v117q-59 -63 -144.5 -103.5t-164.5 -40.5q-155 0 -217 85.5t-62 244.5v610h225v-503q0 -97 11 -148t37 -71t75 -20q100 0 240 132v610h225v-913h-225zM232 1092v161h584v-161h-584z" />
<glyph unicode="&#x16c;" horiz-adv-x="1251" d="M1121 503q0 -283 -115 -406.5t-380 -123.5q-263 0 -379.5 122.5t-116.5 407.5v701h246v-684q0 -122 23.5 -192.5t74.5 -103.5t150 -33q140 0 195.5 74t55.5 252v687h246v-701zM950 1605q0 -77 -38.5 -141t-110.5 -102t-165 -38q-92 0 -164 38t-110.5 102t-38.5 141h163 q14 -41 51 -66t101 -25q59 0 97.5 25t50.5 66h164z" />
<glyph unicode="&#x16d;" horiz-adv-x="1058" d="M707 0v117q-59 -63 -144.5 -103.5t-164.5 -40.5q-155 0 -217 85.5t-62 244.5v610h225v-503q0 -97 11 -148t37 -71t75 -20q100 0 240 132v610h225v-913h-225zM838 1313q0 -77 -38.5 -141t-110.5 -102t-165 -38q-92 0 -164 38t-110.5 102t-38.5 141h163q14 -41 51 -66 t101 -25q59 0 97.5 25t50.5 66h164z" />
<glyph unicode="&#x16e;" horiz-adv-x="1251" d="M1121 503q0 -283 -115 -406.5t-380 -123.5q-263 0 -379.5 122.5t-116.5 407.5v701h246v-684q0 -122 23.5 -192.5t74.5 -103.5t150 -33q140 0 195.5 74t55.5 252v687h246v-701zM831 1493q0 -96 -51.5 -146t-150.5 -50q-101 0 -150 52.5t-49 143.5q0 93 50 144.5t149 51.5 q104 0 153 -52.5t49 -143.5zM706 1493q0 78 -77 78q-74 0 -74 -78t74 -78q77 0 77 78z" />
<glyph unicode="&#x16f;" horiz-adv-x="1058" d="M707 0v117q-59 -63 -144.5 -103.5t-164.5 -40.5q-155 0 -217 85.5t-62 244.5v610h225v-503q0 -97 11 -148t37 -71t75 -20q100 0 240 132v610h225v-913h-225zM717 1201q0 -96 -51.5 -146t-150.5 -50q-101 0 -150 52.5t-49 143.5q0 93 50 144.5t149 51.5q104 0 153 -52.5 t49 -143.5zM592 1201q0 78 -77 78q-74 0 -74 -78t74 -78q77 0 77 78z" />
<glyph unicode="&#x170;" horiz-adv-x="1251" d="M1121 503q0 -283 -115 -406.5t-380 -123.5q-263 0 -379.5 122.5t-116.5 407.5v701h246v-684q0 -122 23.5 -192.5t74.5 -103.5t150 -33q140 0 195.5 74t55.5 252v687h246v-701zM877 1343h-178l164 314h275zM515 1343h-178l165 314h274z" />
<glyph unicode="&#x171;" horiz-adv-x="1058" d="M707 0v117q-59 -63 -144.5 -103.5t-164.5 -40.5q-155 0 -217 85.5t-62 244.5v610h225v-503q0 -97 11 -148t37 -71t75 -20q100 0 240 132v610h225v-913h-225zM789 1051h-178l164 314h275zM427 1051h-178l165 314h274z" />
<glyph unicode="&#x172;" horiz-adv-x="1251" d="M1121 503q0 -263 -96 -386q-60 -74 -92.5 -141.5t-32.5 -99.5q0 -29 15 -41.5t37 -12.5q14 0 39.5 6.5t47.5 20.5l82 -138q-112 -55 -208 -55q-92 0 -142 41t-50 116q0 88 52 171q-67 -11 -147 -11q-263 0 -379.5 122.5t-116.5 407.5v701h246v-684q0 -122 23.5 -192.5 t74.5 -103.5t150 -33q140 0 195.5 74t55.5 252v687h246v-701z" />
<glyph unicode="&#x173;" horiz-adv-x="1058" d="M932 -289q-112 -55 -209 -55q-91 0 -141 41t-50 116q0 78 53 129t122 80v95q-59 -63 -144.5 -103.5t-164.5 -40.5q-155 0 -217 85.5t-62 244.5v610h225v-503q0 -97 11 -148t37 -71t75 -20q100 0 240 132v610h225v-913q-119 -25 -170 -55t-51 -69q0 -29 15 -41.5t37 -12.5 q14 0 39.5 6.5t47.5 20.5z" />
<glyph unicode="&#x174;" horiz-adv-x="1594" d="M1246 0h-252l-201 796l-203 -796h-248l-305 1204h245l192 -786l199 786h243l201 -791l198 791h242zM926 1343l-127 151l-129 -151h-182l204 314h212l206 -314h-184z" />
<glyph unicode="&#x175;" horiz-adv-x="1361" d="M1094 0h-205l-205 581l-206 -581h-206l-249 913h234l141 -588l204 588h170l206 -583l136 583h224zM811 1051l-127 151l-129 -151h-182l204 314h212l206 -314h-184z" />
<glyph unicode="&#x176;" horiz-adv-x="1033" d="M639 459v-459h-247v454l-376 750h268l235 -504l240 504h258zM645 1343l-127 151l-129 -151h-182l204 314h212l206 -314h-184z" />
<glyph unicode="&#x177;" horiz-adv-x="943" d="M30 -123q74 -25 132 -25q50 0 88.5 30.5t79.5 126.5l23 54l-330 850h234l215 -583l221 583h228l-392 -976q-48 -117 -93 -173.5t-105.5 -82t-152.5 -25.5q-99 0 -195 26zM597 1051l-127 151l-129 -151h-182l204 314h212l206 -314h-184z" />
<glyph unicode="&#x178;" horiz-adv-x="1033" d="M639 459v-459h-247v454l-376 750h268l235 -504l240 504h258zM832 1453q0 -63 -31 -88.5t-96 -25.5q-71 0 -96.5 30t-25.5 84q0 61 27 87.5t95 26.5t97.5 -25.5t29.5 -88.5zM445 1453q0 -63 -31 -88.5t-95 -25.5q-71 0 -97 30t-26 84q0 61 27.5 87.5t95.5 26.5t97 -25.5 t29 -88.5z" />
<glyph unicode="&#x179;" horiz-adv-x="997" d="M63 0v207l552 773h-526v224h819v-197l-557 -783h572v-224h-860zM522 1342h-178l164 314h274z" />
<glyph unicode="&#x17a;" horiz-adv-x="809" d="M50 0v164l426 570h-415v179h684v-163l-427 -572h441v-178h-709zM428 1051h-178l164 314h274z" />
<glyph unicode="&#x17b;" horiz-adv-x="997" d="M63 0v207l552 773h-526v224h819v-197l-557 -783h572v-224h-860zM609 1452q0 -63 -31 -88.5t-96 -25.5q-71 0 -96.5 30t-25.5 84q0 61 27.5 87.5t94.5 26.5q68 0 97.5 -25.5t29.5 -88.5z" />
<glyph unicode="&#x17c;" horiz-adv-x="809" d="M50 0v164l426 570h-415v179h684v-163l-427 -572h441v-178h-709zM523 1161q0 -63 -31 -88.5t-96 -25.5q-71 0 -96.5 30t-25.5 84q0 61 27.5 87.5t94.5 26.5q68 0 97.5 -25.5t29.5 -88.5z" />
<glyph unicode="&#x17d;" horiz-adv-x="997" d="M63 0v207l552 773h-526v224h819v-197l-557 -783h572v-224h-860zM589 1342h-212l-204 314h183l126 -151l131 151h182z" />
<glyph unicode="&#x17e;" horiz-adv-x="809" d="M50 0v164l426 570h-415v179h684v-163l-427 -572h441v-178h-709zM503 1051h-212l-204 314h183l126 -151l131 151h182z" />
<glyph unicode="&#x17f;" horiz-adv-x="534" d="M607 1105q-62 21 -121 21q-66 0 -90.5 -27.5t-24.5 -97.5v-1001h-225v734h-107v179h107v88q0 170 84 245.5t253 75.5q79 0 168 -21z" />
<glyph unicode="&#x192;" horiz-adv-x="903" d="M841 1098q-81 28 -146 28q-66 0 -96.5 -28.5t-44.5 -96.5l-18 -88h177l-34 -179h-176l-148 -757q-30 -155 -123 -238t-276 -83q-111 0 -191 26l78 201q85 -31 147 -31q65 0 95.5 29t44.5 96l148 757h-116l34 179h115l19 88q35 172 134 246.5t265 74.5q46 0 99.5 -7 t91.5 -20z" />
<glyph unicode="&#x1a0;" horiz-adv-x="1339" d="M1375 1258v-141q0 -148 -64.5 -222t-203.5 -74h-15q20 -103 20 -219q0 -314 -132.5 -470.5t-386.5 -156.5q-267 0 -392.5 164.5t-125.5 462.5q0 299 125.5 463t392.5 164q336 0 451 -258h20q75 0 101.5 35t26.5 111v141h183zM859 602q0 214 -60.5 312t-205.5 98 q-144 0 -204.5 -98t-60.5 -312t61.5 -312t203.5 -98q145 0 205.5 98t60.5 312z" />
<glyph unicode="&#x1a1;" horiz-adv-x="1176" d="M955 454q0 -228 -105 -354.5t-331 -126.5q-439 0 -439 481q0 232 105.5 358.5t333.5 126.5q285 0 382 -206q73 0 100 34.5t27 111.5v104h184v-104q0 -277 -266 -296q9 -67 9 -129zM723 454q0 151 -47 220t-157 69t-159 -71t-49 -218q0 -146 48.5 -215t159.5 -69 q108 0 156 68t48 216z" />
<glyph unicode="&#x1af;" horiz-adv-x="1411" d="M1121 971h14q75 0 101.5 35t26.5 111v141h184v-141q0 -296 -301 -296h-25v-318q0 -283 -115 -406.5t-380 -123.5q-263 0 -379.5 122.5t-116.5 407.5v701h246v-684q0 -122 23.5 -192.5t74.5 -103.5t150 -33q140 0 195.5 74t55.5 252v687h246v-233z" />
<glyph unicode="&#x1b0;" horiz-adv-x="1213" d="M707 0v117q-59 -63 -144.5 -103.5t-164.5 -40.5q-155 0 -217 85.5t-62 244.5v610h225v-503q0 -97 11 -148t37 -71t75 -20q100 0 240 132v610h225v-180h10q73 0 98.5 34.5t25.5 111.5v104h183v-104q0 -296 -295 -296h-22v-583h-225z" />
<glyph unicode="&#x1cd;" horiz-adv-x="1163" d="M23 0l399 1204h319l400 -1204h-252l-80 244h-464l-78 -244h-244zM415 459h325l-162 498zM685 1343h-212l-204 314h183l126 -151l131 151h182z" />
<glyph unicode="&#x1ce;" horiz-adv-x="990" d="M665 0v95q-133 -122 -286 -122q-151 0 -228.5 79.5t-77.5 204.5q0 97 39.5 160.5t117.5 99.5t224 51l192 18v41q0 77 -46 105t-135 28q-73 0 -125.5 -24t-77.5 -70l-175 113q46 77 144.5 118.5t237.5 41.5q213 0 307.5 -74.5t94.5 -244.5v-620h-206zM646 424l-114 -11 q-120 -10 -174 -46t-54 -107q0 -63 35 -86t93 -23q40 0 99 26t115 73v174zM600 1051h-212l-204 314h183l126 -151l131 151h182z" />
<glyph unicode="&#x1cf;" horiz-adv-x="758" d="M670 0h-581v189h168v826h-168v189h581v-189h-167v-826h167v-189zM486 1343h-212l-204 314h183l126 -151l131 151h182z" />
<glyph unicode="&#x1d0;" horiz-adv-x="477" d="M126 0v913h225v-913h-225zM347 1051h-212l-204 314h183l126 -151l131 151h182z" />
<glyph unicode="&#x1d1;" horiz-adv-x="1186" d="M1112 602q0 -314 -132.5 -470.5t-386.5 -156.5q-267 0 -392.5 164.5t-125.5 462.5q0 299 125.5 463t392.5 164q269 0 394 -164t125 -463zM859 602q0 214 -60.5 312t-205.5 98q-144 0 -204.5 -98t-60.5 -312t61.5 -312t203.5 -98q145 0 205.5 98t60.5 312zM696 1343h-212 l-204 314h183l126 -151l131 151h182z" />
<glyph unicode="&#x1d2;" horiz-adv-x="1035" d="M955 454q0 -228 -105 -354.5t-331 -126.5q-439 0 -439 481q0 232 105.5 358.5t333.5 126.5q226 0 331 -126.5t105 -358.5zM723 454q0 151 -47 220t-157 69t-159 -71t-49 -218q0 -146 48.5 -215t159.5 -69q108 0 156 68t48 216zM623 1051h-212l-204 314h183l126 -151 l131 151h182z" />
<glyph unicode="&#x1d3;" horiz-adv-x="1251" d="M1121 503q0 -283 -115 -406.5t-380 -123.5q-263 0 -379.5 122.5t-116.5 407.5v701h246v-684q0 -122 23.5 -192.5t74.5 -103.5t150 -33q140 0 195.5 74t55.5 252v687h246v-701zM737 1343h-212l-204 314h183l126 -151l131 151h182z" />
<glyph unicode="&#x1d4;" horiz-adv-x="1058" d="M707 0v117q-59 -63 -144.5 -103.5t-164.5 -40.5q-155 0 -217 85.5t-62 244.5v610h225v-503q0 -97 11 -148t37 -71t75 -20q100 0 240 132v610h225v-913h-225zM634 1051h-212l-204 314h183l126 -151l131 151h182z" />
<glyph unicode="&#x1d5;" horiz-adv-x="1251" d="M1121 503q0 -283 -115 -406.5t-380 -123.5q-263 0 -379.5 122.5t-116.5 407.5v701h246v-684q0 -122 23.5 -192.5t74.5 -103.5t150 -33q140 0 195.5 74t55.5 252v687h246v-701zM941 1427q0 -64 -31 -89t-96 -25q-71 0 -96.5 29.5t-25.5 84.5q0 61 27 88t95 27t97.5 -26.5 t29.5 -88.5zM554 1427q0 -64 -31 -89t-95 -25q-71 0 -97 29.5t-26 84.5q0 61 27.5 88t95.5 27t97 -26.5t29 -88.5zM335 1596v161h584v-161h-584z" />
<glyph unicode="&#x1d6;" horiz-adv-x="1058" d="M707 0v117q-59 -63 -144.5 -103.5t-164.5 -40.5q-155 0 -217 85.5t-62 244.5v610h225v-503q0 -97 11 -148t37 -71t75 -20q100 0 240 132v610h225v-913h-225zM846 1135q0 -64 -31 -89t-96 -25q-71 0 -96.5 29.5t-25.5 84.5q0 60 27 87t95 27t97.5 -26t29.5 -88zM459 1135 q0 -64 -31 -89t-95 -25q-71 0 -97 29.5t-26 84.5q0 60 27.5 87t95.5 27t97 -26t29 -88zM240 1304v160h584v-160h-584z" />
<glyph unicode="&#x1d7;" horiz-adv-x="1251" d="M1121 503q0 -283 -115 -406.5t-380 -123.5q-263 0 -379.5 122.5t-116.5 407.5v701h246v-684q0 -122 23.5 -192.5t74.5 -103.5t150 -33q140 0 195.5 74t55.5 252v687h246v-701zM946 1427q0 -64 -31 -89t-96 -25q-71 0 -96.5 29.5t-25.5 84.5q0 61 27 88t95 27t97.5 -26.5 t29.5 -88.5zM559 1427q0 -64 -31 -89t-95 -25q-71 0 -97 29.5t-26 84.5q0 61 27.5 88t95.5 27t97 -26.5t29 -88.5zM529 1564l107 253h275l-213 -253h-169z" />
<glyph unicode="&#x1d8;" horiz-adv-x="1058" d="M707 0v117q-59 -63 -144.5 -103.5t-164.5 -40.5q-155 0 -217 85.5t-62 244.5v610h225v-503q0 -97 11 -148t37 -71t75 -20q100 0 240 132v610h225v-913h-225zM846 1135q0 -64 -31 -89t-96 -25q-71 0 -96.5 29.5t-25.5 84.5q0 60 27 87t95 27t97.5 -26t29.5 -88zM459 1135 q0 -64 -31 -89t-95 -25q-71 0 -97 29.5t-26 84.5q0 60 27.5 87t95.5 27t97 -26t29 -88zM429 1272l107 253h275l-213 -253h-169z" />
<glyph unicode="&#x1d9;" horiz-adv-x="1251" d="M1121 503q0 -283 -115 -406.5t-380 -123.5q-263 0 -379.5 122.5t-116.5 407.5v701h246v-684q0 -122 23.5 -192.5t74.5 -103.5t150 -33q140 0 195.5 74t55.5 252v687h246v-701zM948 1425q0 -63 -31 -87.5t-96 -24.5q-71 0 -96.5 28.5t-25.5 83.5q0 61 27 86.5t95 25.5 t97.5 -24.5t29.5 -87.5zM561 1425q0 -63 -31 -87.5t-95 -24.5q-71 0 -97 28.5t-26 83.5q0 61 27.5 86.5t95.5 25.5t97 -24.5t29 -87.5zM506 1817l126 -121l131 121h182l-206 -253h-212l-204 253h183z" />
<glyph unicode="&#x1da;" horiz-adv-x="1058" d="M707 0v117q-59 -63 -144.5 -103.5t-164.5 -40.5q-155 0 -217 85.5t-62 244.5v610h225v-503q0 -97 11 -148t37 -71t75 -20q100 0 240 132v610h225v-913h-225zM846 1134q0 -65 -31 -89t-96 -24q-71 0 -96.5 28.5t-25.5 84.5q0 60 27 86t95 26t97.5 -25.5t29.5 -86.5z M459 1134q0 -65 -31 -89t-95 -24q-71 0 -97 28.5t-26 84.5q0 60 27.5 86t95.5 26t97 -25.5t29 -86.5zM404 1525l126 -121l131 121h182l-206 -253h-212l-204 253h183z" />
<glyph unicode="&#x1db;" horiz-adv-x="1251" d="M1121 503q0 -283 -115 -406.5t-380 -123.5q-263 0 -379.5 122.5t-116.5 407.5v701h246v-684q0 -122 23.5 -192.5t74.5 -103.5t150 -33q140 0 195.5 74t55.5 252v687h246v-701zM945 1427q0 -64 -31 -89t-96 -25q-71 0 -96.5 29.5t-25.5 84.5q0 61 27 88t95 27t97.5 -26.5 t29.5 -88.5zM558 1427q0 -64 -31 -89t-95 -25q-71 0 -97 29.5t-26 84.5q0 61 27.5 88t95.5 27t97 -26.5t29 -88.5zM553 1564l-212 253h274l107 -253h-169z" />
<glyph unicode="&#x1dc;" horiz-adv-x="1058" d="M707 0v117q-59 -63 -144.5 -103.5t-164.5 -40.5q-155 0 -217 85.5t-62 244.5v610h225v-503q0 -97 11 -148t37 -71t75 -20q100 0 240 132v610h225v-913h-225zM846 1135q0 -64 -31 -89t-96 -25q-71 0 -96.5 29.5t-25.5 84.5q0 60 27 87t95 27t97.5 -26t29.5 -88zM459 1135 q0 -64 -31 -89t-95 -25q-71 0 -97 29.5t-26 84.5q0 60 27.5 87t95.5 27t97 -26t29 -88zM454 1272l-212 253h274l107 -253h-169z" />
<glyph unicode="&#x1fa;" horiz-adv-x="1163" d="M784 1283q0 -71 -32 -110l389 -1173h-252l-80 244h-464l-78 -244h-244l390 1176q-30 38 -30 107q0 92 50 142.5t150 50.5q103 0 152 -51t49 -142zM415 459h325l-162 498zM659 1283q0 75 -76 75q-75 0 -75 -75t75 -75q76 0 76 75zM663 1522h-178l114 242h274z" />
<glyph unicode="&#x1fb;" horiz-adv-x="990" d="M665 0v95q-133 -122 -286 -122q-151 0 -228.5 79.5t-77.5 204.5q0 97 39.5 160.5t117.5 99.5t224 51l192 18v41q0 77 -46 105t-135 28q-73 0 -125.5 -24t-77.5 -70l-175 113q46 77 144.5 118.5t237.5 41.5q213 0 307.5 -74.5t94.5 -244.5v-620h-206zM646 424l-114 -11 q-120 -10 -174 -46t-54 -107q0 -63 35 -86t93 -23q40 0 99 26t115 73v174zM670 1199q0 -96 -51.5 -146t-150.5 -50q-101 0 -150 52.5t-49 143.5q0 93 50 144.5t149 51.5q104 0 153 -52.5t49 -143.5zM545 1199q0 78 -77 78q-74 0 -74 -78t74 -78q77 0 77 78zM508 1443h-178 l164 314h274z" />
<glyph unicode="&#x1fc;" horiz-adv-x="1574" d="M748 0v313h-356l-125 -313h-250l483 1204h988v-217h-494v-261h408v-218h-408v-284h494v-224h-740zM748 987h-90l-182 -458h272v458zM925 1343h-178l164 314h274z" />
<glyph unicode="&#x1fd;" horiz-adv-x="1553" d="M376 -27q-148 0 -225.5 79.5t-77.5 211.5q0 136 92 212t289 92l192 18v41q0 75 -45 104t-129 29q-94 0 -140.5 -28t-69.5 -66l-175 113q46 77 143 118.5t241 41.5q221 0 309 -107q106 107 305 107q191 0 291.5 -111t100.5 -320v-110h-606q6 -122 58 -175t171 -53 q63 0 113 16.5t88 63.5l168 -120q-56 -79 -142 -118t-224 -39q-260 0 -372 146q-85 -71 -171 -108.5t-184 -37.5zM425 151q56 0 122 22.5t123 66.5q-11 35 -17.5 98.5t-6.5 85.5l-114 -11q-120 -10 -174 -46t-54 -107q0 -109 121 -109zM1255 552q0 208 -184 208 q-98 0 -139 -56t-55 -152h378zM825 1051h-178l164 314h274z" />
<glyph unicode="&#x1fe;" horiz-adv-x="1186" d="M23 -100l169 248q-117 156 -117 454q0 299 125.5 463t392.5 164q175 0 291 -73l94 139h173l-160 -234q121 -159 121 -459q0 -314 -132.5 -470.5t-386.5 -156.5q-180 0 -294 75l-102 -150h-174zM859 602q0 138 -26 228l-401 -590q58 -48 161 -48q145 0 205.5 98t60.5 312z M328 602q0 -137 23 -223l401 587q-60 46 -159 46q-144 0 -204.5 -98t-60.5 -312zM624 1343h-178l164 314h274z" />
<glyph unicode="&#x1ff;" horiz-adv-x="1035" d="M92 -66l102 153q-114 123 -114 367q0 232 105.5 358.5t333.5 126.5q122 0 214 -41l53 80h158l-103 -157q114 -126 114 -367q0 -228 -105 -354.5t-331 -126.5q-126 0 -216 39l-52 -78h-159zM311 454q0 -89 20 -160l286 429q-39 20 -98 20q-110 0 -159 -71t-49 -218z M723 454q0 94 -19 161l-284 -428q41 -17 99 -17q108 0 156 68t48 216zM549 1051h-178l164 314h274z" />
<glyph unicode="&#x218;" horiz-adv-x="1069" d="M996 349q0 -181 -118.5 -277.5t-350.5 -96.5q-160 0 -278 53t-192 171l189 145q42 -60 79.5 -89.5t88.5 -46t118 -16.5q100 0 156.5 34.5t56.5 104.5q0 40 -19.5 67t-59 47t-135.5 45q-94 25 -177 50.5t-143.5 66.5t-95.5 103t-35 156q0 171 115.5 267t331.5 96 q313 0 442 -214l-187 -146q-49 77 -111 110t-147 33q-86 0 -139.5 -31t-53.5 -97q0 -58 56 -89t194 -62q77 -20 151.5 -43.5t133.5 -64t94.5 -107t35.5 -169.5zM467 -490q41 48 55.5 83t17.5 69q-57 3 -83 36t-26 99q0 64 30.5 101.5t114.5 37.5q139 0 139 -157 q0 -148 -104 -269h-144z" />
<glyph unicode="&#x219;" horiz-adv-x="892" d="M823 260q0 -90 -45.5 -154.5t-129.5 -98.5t-192 -34q-286 0 -390 159l167 118q41 -56 94.5 -74.5t114.5 -18.5q160 0 160 93q0 41 -45 63t-142 45q-182 40 -256 113.5t-74 189.5q0 121 93 199.5t273 78.5q122 0 215.5 -39.5t144.5 -117.5l-168 -119q-60 92 -196 92 q-69 0 -105 -24t-36 -61q0 -36 32.5 -57t126.5 -45q156 -38 222.5 -76t101 -94t34.5 -138zM359 -490q41 48 55.5 83t17.5 69q-57 3 -83 36t-26 99q0 64 30.5 101.5t114.5 37.5q139 0 139 -157q0 -148 -104 -269h-144z" />
<glyph unicode="&#x21a;" horiz-adv-x="1047" d="M646 980v-980h-245v980h-371v224h987v-224h-371zM430 -490q41 48 55.5 83t17.5 69q-57 3 -83 36t-26 99q0 64 30.5 101.5t114.5 37.5q139 0 139 -157q0 -148 -104 -269h-144z" />
<glyph unicode="&#x21b;" horiz-adv-x="642" d="M631 0q-91 -27 -191 -27q-158 0 -227.5 71.5t-69.5 231.5v458h-116v179h116v254h224v-254h212v-179h-212v-430q0 -85 26.5 -115.5t75.5 -30.5q62 0 123 26zM271 -490q41 48 55.5 83t17.5 69q-57 3 -83 36t-26 99q0 64 30.5 101.5t114.5 37.5q139 0 139 -157 q0 -148 -104 -269h-144z" />
<glyph unicode="&#x237;" horiz-adv-x="489" d="M364 -39q0 -164 -73 -234.5t-240 -70.5q-37 0 -98 8.5t-94 17.5l49 195q63 -25 131 -25t84 42t16 138v881h225v-952z" />
<glyph unicode="&#x2c0;" horiz-adv-x="885" d="M278 0v556q119 53 183 98t93 94t29 119q0 68 -45 117.5t-139 49.5q-78 0 -125.5 -31.5t-86.5 -95.5l-196 107q60 107 156.5 161t250.5 54q204 0 314.5 -92t110.5 -257q0 -96 -32 -169.5t-95 -133.5t-190 -128v-449h-228z" />
<glyph unicode="&#x2c6;" d="M581 1051l-127 151l-129 -151h-182l204 314h212l206 -314h-184z" />
<glyph unicode="&#x2c7;" d="M559 1051h-212l-204 314h183l126 -151l131 151h182z" />
<glyph unicode="&#x2c9;" d="M162 1092v161h584v-161h-584z" />
<glyph unicode="&#x2d8;" d="M768 1313q0 -77 -38.5 -141t-110.5 -102t-165 -38q-92 0 -164 38t-110.5 102t-38.5 141h163q14 -41 51 -66t101 -25q59 0 97.5 25t50.5 66h164z" />
<glyph unicode="&#x2d9;" d="M579 1161q0 -63 -31 -88.5t-96 -25.5q-71 0 -96.5 30t-25.5 84q0 61 27.5 87.5t94.5 26.5q68 0 97.5 -25.5t29.5 -88.5z" />
<glyph unicode="&#x2da;" d="M654 1199q0 -96 -51.5 -146t-150.5 -50q-101 0 -150 52.5t-49 143.5q0 93 50 144.5t149 51.5q104 0 153 -52.5t49 -143.5zM529 1199q0 78 -77 78q-74 0 -74 -78t74 -78q77 0 77 78z" />
<glyph unicode="&#x2db;" d="M726 -289q-114 -55 -209 -55q-92 0 -141.5 41t-49.5 116q0 65 44 117t119.5 87.5t156.5 45.5l80 -63q-120 -25 -170.5 -55t-50.5 -69q0 -54 51 -54q14 0 40 6.5t47 20.5z" />
<glyph unicode="&#x2dc;" d="M98 1071q5 135 64 205.5t164 70.5q53 0 90.5 -19.5t67 -42t54.5 -42t54 -19.5q30 0 44.5 30.5t14.5 80.5h158q-9 -144 -66 -212.5t-164 -68.5q-57 0 -94.5 20t-65.5 44t-51.5 43.5t-52.5 19.5q-58 0 -58 -110h-159z" />
<glyph unicode="&#x2dd;" d="M666 1051h-178l164 314h275zM304 1051h-178l165 314h274z" />
<glyph unicode="&#x300;" horiz-adv-x="0" d="M-25 1051l-260 314h275l163 -314h-178z" />
<glyph unicode="&#x301;" horiz-adv-x="0" d="M27 1051h-178l163 314h275z" />
<glyph unicode="&#x302;" horiz-adv-x="0" d="M126 1051l-126 151l-130 -151h-181l204 314h212l205 -314h-184z" />
<glyph unicode="&#x303;" horiz-adv-x="0" d="M-357 1071q5 132 64 204t165 72q53 0 90.5 -19.5t67 -42t54.5 -42t53 -19.5q59 0 59 111h159q-11 -149 -68.5 -215t-162.5 -66q-56 0 -93.5 20t-66 44t-51.5 43.5t-52 19.5q-58 0 -58 -110h-160z" />
<glyph unicode="&#x304;" horiz-adv-x="0" d="M-292 1092v161h584v-161h-584z" />
<glyph unicode="&#x306;" horiz-adv-x="0" d="M313 1331q0 -77 -39 -141.5t-111 -102.5t-163 -38t-163.5 38.5t-111 103t-38.5 140.5h163q13 -41 50 -66t102 -25q59 0 97 25t51 66h163z" />
<glyph unicode="&#x307;" horiz-adv-x="0" d="M124 1161q0 -63 -30.5 -88.5t-95.5 -25.5q-71 0 -96.5 30t-25.5 84q0 61 27 87.5t95 26.5t97 -25.5t29 -88.5z" />
<glyph unicode="&#x308;" horiz-adv-x="0" d="M319 1161q0 -63 -31 -88.5t-96 -25.5q-71 0 -96.5 30t-25.5 84q0 61 27 87.5t95 26.5t97.5 -25.5t29.5 -88.5zM-70 1161q0 -63 -31 -88.5t-95 -25.5q-71 0 -97 30t-26 84q0 61 27.5 87.5t95.5 26.5t97 -25.5t29 -88.5z" />
<glyph unicode="&#x309;" horiz-adv-x="0" d="M-180 1294q61 46 171 46q91 0 140 -40t49 -105q0 -60 -41 -101t-110 -47v-37h-111v119h38q64 0 64 52q0 45 -66 45q-50 0 -84 -22z" />
<glyph unicode="&#x30a;" horiz-adv-x="0" d="M185 1188q0 -90 -47.5 -137.5t-139.5 -47.5q-96 0 -140.5 50t-44.5 135q0 87 45 136.5t140 49.5q99 0 143 -50t44 -136zM75 1188q0 79 -77 79q-75 0 -75 -79q0 -78 75 -78q77 0 77 78z" />
<glyph unicode="&#x30c;" horiz-adv-x="0" d="M105 1051h-212l-204 314h183l126 -151l130 151h182z" />
<glyph unicode="&#x323;" d="M579 -216q0 -64 -31 -89t-96 -25q-71 0 -96.5 29.5t-25.5 84.5q0 61 27.5 87.5t94.5 26.5q68 0 97.5 -25.5t29.5 -88.5z" />
<glyph unicode="&#x374;" horiz-adv-x="381" d="M201 981h-138l47 314h235z" />
<glyph unicode="&#x375;" horiz-adv-x="381" d="M194 112h139l-48 -313h-235z" />
<glyph unicode="&#x37e;" horiz-adv-x="508" d="M396 773q0 -74 -34 -106.5t-109 -32.5q-82 0 -111.5 36t-29.5 103q0 72 31.5 106t109.5 34q80 0 111.5 -33t31.5 -107zM396 109q0 -107 -36.5 -204t-79.5 -160h-154q36 60 63.5 131.5t31.5 114.5q-57 4 -83 37t-26 98t30.5 102t114.5 37q139 0 139 -156z" />
<glyph unicode="&#x384;" horiz-adv-x="438" d="M178 1051h-178l164 314h274z" />
<glyph unicode="&#x385;" horiz-adv-x="0" d="M966 1160q0 -62 -30.5 -87.5t-90.5 -25.5q-68 0 -93.5 30.5t-25.5 82.5q0 59 28 87t91 28t92 -27t29 -88zM371 1160q0 -62 -30.5 -87.5t-90.5 -25.5q-68 0 -93 30.5t-25 82.5q0 59 27.5 87t90.5 28t92 -27t29 -88zM755 1365l-185 -314h-160l107 314h238z" />
<glyph unicode="&#x386;" horiz-adv-x="1202" d="M62 0l399 1204h319l400 -1204h-252l-80 244h-464l-78 -244h-244zM454 459h325l-162 498zM348 1204l-185 -313h-161l107 313h239z" />
<glyph unicode="&#x387;" horiz-adv-x="508" d="M396 646q0 -74 -34 -106t-109 -32q-82 0 -111.5 35.5t-29.5 102.5q0 72 31.5 106t109.5 34q80 0 111.5 -33.5t31.5 -106.5z" />
<glyph unicode="&#x388;" horiz-adv-x="1251" d="M381 0v1204h783v-217h-537v-256h452v-218h-452v-289h537v-224h-783zM348 1204l-185 -313h-161l107 313h239z" />
<glyph unicode="&#x389;" horiz-adv-x="1477" d="M1101 0v512h-474v-512h-246v1204h246v-468h474v468h246v-1204h-246zM348 1204l-185 -313h-161l107 313h239z" />
<glyph unicode="&#x38a;" horiz-adv-x="1052" d="M964 0h-581v189h168v826h-168v189h581v-189h-167v-826h167v-189zM348 1204l-185 -313h-161l107 313h239z" />
<glyph unicode="&#x38c;" horiz-adv-x="1404" d="M1330 602q0 -314 -132.5 -470.5t-386.5 -156.5q-267 0 -392.5 164.5t-125.5 462.5q0 299 125.5 463t392.5 164q269 0 394 -164t125 -463zM1077 602q0 214 -60.5 312t-205.5 98q-144 0 -204.5 -98t-60.5 -312t61.5 -312t203.5 -98q145 0 205.5 98t60.5 312zM348 1204 l-185 -313h-161l107 313h239z" />
<glyph unicode="&#x38e;" horiz-adv-x="1391" d="M997 459v-459h-247v454l-376 750h268l235 -504l240 504h258zM348 1204l-185 -313h-161l107 313h239z" />
<glyph unicode="&#x38f;" horiz-adv-x="1523" d="M811 1229q252 0 387 -137t135 -390q0 -177 -50.5 -289.5t-168.5 -168.5v-26h211v-218h-427v349q93 14 136 100t43 253q0 146 -66 228t-200 82q-129 0 -197 -77.5t-68 -230.5q0 -121 16 -192t51 -109t111 -54v-349h-422v218h215v26q-88 31 -134.5 82.5t-68 141 t-21.5 234.5q0 158 60.5 278t175.5 184.5t282 64.5zM348 1204l-185 -313h-161l107 313h239z" />
<glyph unicode="&#x390;" horiz-adv-x="593" d="M581 0q-91 -27 -195 -27q-140 0 -203.5 67.5t-63.5 230.5v642h225v-619q0 -78 17.5 -109.5t71.5 -31.5q56 0 96 17zM668 1160q0 -62 -30.5 -87.5t-90.5 -25.5q-68 0 -93.5 30.5t-25.5 82.5q0 59 28 87t91 28t92 -27t29 -88zM73 1160q0 -62 -30.5 -87.5t-90.5 -25.5 q-68 0 -93 30.5t-25 82.5q0 59 27.5 87t90.5 28t92 -27t29 -88zM457 1365l-185 -314h-160l107 314h238z" />
<glyph unicode="&#x391;" horiz-adv-x="1163" d="M23 0l399 1204h319l400 -1204h-252l-80 244h-464l-78 -244h-244zM415 459h325l-162 498z" />
<glyph unicode="&#x392;" horiz-adv-x="1129" d="M1053 349q0 -181 -124.5 -265t-345.5 -84h-453v1204h426q231 0 331 -67.5t100 -213.5q0 -112 -54 -181.5t-170 -93.5q151 -21 220.5 -95.5t69.5 -203.5zM740 869q0 69 -50.5 95.5t-157.5 26.5h-156v-258h149q109 0 162 30t53 106zM802 371q0 81 -54.5 114.5t-205.5 33.5 h-166v-301h124q144 0 198.5 13.5t79 46.5t24.5 93z" />
<glyph unicode="&#x393;" horiz-adv-x="926" d="M357 1000v-1000h-247v1204h781v-204h-534z" />
<glyph unicode="&#x394;" horiz-adv-x="1117" d="M1094 0h-1071v100l194 552q122 354 195 552h299l383 -1104v-100zM804 205l-226 664q-12 32 -16 59t-8 36h-7q-12 -63 -22 -91l-229 -668h508z" />
<glyph unicode="&#x395;" horiz-adv-x="999" d="M130 0v1204h783v-217h-537v-256h452v-218h-452v-289h537v-224h-783z" />
<glyph unicode="&#x396;" horiz-adv-x="997" d="M63 0v207l552 773h-526v224h819v-197l-557 -783h572v-224h-860z" />
<glyph unicode="&#x397;" horiz-adv-x="1225" d="M850 0v512h-474v-512h-246v1204h246v-468h474v468h246v-1204h-246z" />
<glyph unicode="&#x398;" horiz-adv-x="1259" d="M1185 602q0 -320 -136.5 -473.5t-417.5 -153.5q-280 0 -418 153.5t-138 473.5t135.5 473.5t420.5 153.5q283 0 418.5 -154.5t135.5 -472.5zM927 602q0 216 -67 322t-229 106q-164 0 -232 -107t-68 -321t68 -320.5t232 -106.5q162 0 229 106.5t67 320.5zM412 506v194h436 v-194h-436z" />
<glyph unicode="&#x399;" horiz-adv-x="758" d="M670 0h-581v189h168v826h-168v189h581v-189h-167v-826h167v-189z" />
<glyph unicode="&#x39a;" horiz-adv-x="1113" d="M782 0l-333 503l-73 -85v-418h-246v1204h246v-470l394 470h286l-449 -518l481 -686h-306z" />
<glyph unicode="&#x39b;" horiz-adv-x="1106" d="M23 0l409 1204h248l403 -1204h-253l-281 891l-287 -891h-239z" />
<glyph unicode="&#x39c;" horiz-adv-x="1450" d="M1083 0v809l-289 -503h-142l-285 503v-809h-237v1204h283l314 -572l317 572h277v-1204h-238z" />
<glyph unicode="&#x39d;" horiz-adv-x="1227" d="M809 0l-438 860v-860h-241v1204h319l408 -812v812h241v-1204h-289z" />
<glyph unicode="&#x39e;" horiz-adv-x="953" d="M87 987v217h779v-217h-779zM139 513v218h675v-218h-675zM87 0v224h779v-224h-779z" />
<glyph unicode="&#x39f;" horiz-adv-x="1186" d="M1112 602q0 -314 -132.5 -470.5t-386.5 -156.5q-267 0 -392.5 164.5t-125.5 462.5q0 299 125.5 463t392.5 164q269 0 394 -164t125 -463zM859 602q0 214 -60.5 312t-205.5 98q-144 0 -204.5 -98t-60.5 -312t61.5 -312t203.5 -98q145 0 205.5 98t60.5 312z" />
<glyph unicode="&#x3a0;" horiz-adv-x="1232" d="M130 0v1204h973v-1204h-251v994h-471v-994h-251z" />
<glyph unicode="&#x3a1;" horiz-adv-x="1077" d="M1010 800q0 -217 -102 -322.5t-332 -105.5h-200v-372h-246v1204h453q204 0 315.5 -95t111.5 -309zM757 799q0 101 -56 146.5t-202 45.5h-123v-405h100q135 0 186.5 19t73 63.5t21.5 130.5z" />
<glyph unicode="&#x3a3;" horiz-adv-x="1017" d="M63 0v184l393 427l-393 416v177h850v-197h-525l302 -319v-152l-316 -339h570v-197h-881z" />
<glyph unicode="&#x3a4;" horiz-adv-x="1047" d="M646 980v-980h-245v980h-371v224h987v-224h-371z" />
<glyph unicode="&#x3a5;" horiz-adv-x="1033" d="M639 459v-459h-247v454l-376 750h268l235 -504l240 504h258z" />
<glyph unicode="&#x3a6;" horiz-adv-x="1295" d="M770 -68h-243v158q-228 28 -340 154.5t-112 355.5q0 235 115 359.5t337 148.5v164h243v-164q451 -55 451 -508q0 -454 -451 -510v-158zM966 600q0 145 -48.5 218t-147.5 96v-623q99 22 147.5 95t48.5 214zM331 600q0 -141 49.5 -214t146.5 -95v623q-97 -23 -146.5 -96 t-49.5 -218z" />
<glyph unicode="&#x3a7;" horiz-adv-x="1118" d="M25 0l403 604l-392 600h279l250 -405l258 405h271l-395 -595l393 -609h-276l-258 415l-262 -415h-271z" />
<glyph unicode="&#x3a8;" horiz-adv-x="1293" d="M1204 692q0 -220 -105 -335.5t-329 -138.5v-240h-246v240q-226 23 -330.5 139.5t-104.5 334.5v512h246v-497q0 -129 54 -200.5t128 -71.5h7v769h246v-771h6q50 0 91 33.5t67 97t26 140.5v500h244v-512z" />
<glyph unicode="&#x3a9;" horiz-adv-x="1190" d="M593 1229q252 0 387 -137t135 -390q0 -177 -50.5 -289.5t-168.5 -168.5v-26h211v-218h-427v349q93 14 136 100t43 253q0 146 -66 228t-200 82q-129 0 -197 -77.5t-68 -230.5q0 -121 16 -192t51 -109t111 -54v-349h-422v218h215v26q-88 31 -134.5 82.5t-68 141 t-21.5 234.5q0 158 60.5 278t175.5 184.5t282 64.5z" />
<glyph unicode="&#x3aa;" horiz-adv-x="758" d="M670 0h-581v189h168v826h-168v189h581v-189h-167v-826h167v-189zM700 1453q0 -63 -31 -88.5t-96 -25.5q-71 0 -96.5 30t-25.5 84q0 61 27 87.5t95 26.5t97.5 -25.5t29.5 -88.5zM313 1453q0 -63 -31 -88.5t-95 -25.5q-71 0 -97 30t-26 84q0 61 27.5 87.5t95.5 26.5 t97 -25.5t29 -88.5z" />
<glyph unicode="&#x3ab;" horiz-adv-x="1033" d="M639 459v-459h-247v454l-376 750h268l235 -504l240 504h258zM832 1453q0 -63 -31 -88.5t-96 -25.5q-71 0 -96.5 30t-25.5 84q0 61 27 87.5t95 26.5t97.5 -25.5t29.5 -88.5zM445 1453q0 -63 -31 -88.5t-95 -25.5q-71 0 -97 30t-26 84q0 61 27.5 87.5t95.5 26.5t97 -25.5 t29 -88.5z" />
<glyph unicode="&#x3ac;" horiz-adv-x="1154" d="M1146 0q-76 -27 -177 -27q-119 0 -170 52t-61 159q-80 -211 -275 -211q-191 0 -287 125.5t-96 355.5q0 229 106.5 357t301.5 128q153 0 262 -103l15 77h224q-40 -186 -51 -265t-11 -148v-206q0 -83 19.5 -112t68.5 -29q46 0 79 17zM483 157q100 0 167.5 134t82.5 363 q-45 52 -102.5 79t-106.5 27q-107 0 -159 -76t-52 -235q0 -145 43 -218.5t127 -73.5zM629 1051h-178l164 314h274z" />
<glyph unicode="&#x3ad;" horiz-adv-x="924" d="M889 130q-51 -77 -143 -117t-236 -40q-210 0 -320 74.5t-110 212.5q0 61 38.5 116.5t92.5 77.5q-54 20 -92.5 68t-38.5 123q0 139 115.5 216.5t323.5 77.5q261 0 358 -157l-158 -109q-35 48 -79.5 71.5t-119.5 23.5q-97 0 -152 -31t-55 -94q0 -62 47.5 -78t149.5 -16h194 v-164h-204q-106 0 -146.5 -27.5t-40.5 -90.5q0 -56 52.5 -88.5t140.5 -32.5q84 0 141 19.5t96 69.5zM557 1051h-178l164 314h274z" />
<glyph unicode="&#x3ae;" horiz-adv-x="1067" d="M948 -338h-225v876q0 114 -25.5 160.5t-102.5 46.5q-50 0 -116 -34t-128 -82v-629h-225v913h212v-109q168 135 321 135q147 0 218 -80t71 -253v-944zM584 1051h-178l164 314h274z" />
<glyph unicode="&#x3af;" horiz-adv-x="593" d="M581 0q-91 -27 -195 -27q-140 0 -203.5 67.5t-63.5 230.5v642h225v-619q0 -78 17.5 -109.5t71.5 -31.5q56 0 96 17zM268 1051h-178l164 314h274z" />
<glyph unicode="&#x3b0;" horiz-adv-x="1054" d="M119 913h225v-590q0 -81 50.5 -125.5t130.5 -44.5q103 0 156 79t53 235q0 128 -24 246.5t-44 199.5h221q29 -70 54.5 -197.5t25.5 -230.5q0 -258 -106.5 -385t-340.5 -127q-202 0 -301.5 89t-99.5 256v595zM941 1160q0 -62 -30.5 -87.5t-90.5 -25.5q-68 0 -93.5 30.5 t-25.5 82.5q0 59 28 87t91 28t92 -27t29 -88zM346 1160q0 -62 -30.5 -87.5t-90.5 -25.5q-68 0 -93 30.5t-25 82.5q0 59 27.5 87t90.5 28t92 -27t29 -88zM730 1365l-185 -314h-160l107 314h238z" />
<glyph unicode="&#x3b1;" horiz-adv-x="1154" d="M1146 0q-76 -27 -177 -27q-119 0 -170 52t-61 159q-80 -211 -275 -211q-191 0 -287 125.5t-96 355.5q0 229 106.5 357t301.5 128q153 0 262 -103l15 77h224q-40 -186 -51 -265t-11 -148v-206q0 -83 19.5 -112t68.5 -29q46 0 79 17zM483 157q100 0 167.5 134t82.5 363 q-45 52 -102.5 79t-106.5 27q-107 0 -159 -76t-52 -235q0 -145 43 -218.5t127 -73.5z" />
<glyph unicode="&#x3b2;" horiz-adv-x="1086" d="M1000 406q0 -211 -101 -322t-286 -111q-82 0 -151.5 18t-110.5 41v-365h-225v1224q0 226 102.5 328.5t302.5 102.5q174 0 275 -77t101 -218q0 -221 -235 -270q154 -21 241 -116.5t87 -234.5zM351 212q101 -59 228 -59q91 0 140 62.5t49 185.5t-70.5 183.5t-230.5 60.5 v178q101 0 156.5 45.5t55.5 134.5q0 58 -38.5 101.5t-118.5 43.5q-65 0 -102.5 -22.5t-53 -72t-15.5 -155.5v-686z" />
<glyph unicode="&#x3b3;" horiz-adv-x="1004" d="M271 913l229 -658q36 66 76.5 141t73 155.5t54.5 164.5t22 166v31h224v-40q0 -164 -95 -383t-269 -440v-388h-222v388l-332 863h239z" />
<glyph unicode="&#x3b4;" horiz-adv-x="1101" d="M826 1049q-71 41 -150 73t-156 32q-39 0 -53.5 -16t-14.5 -33q0 -33 14 -53t46 -46t88 -54q161 -87 250 -162t130 -159t41 -203q0 -210 -127.5 -332.5t-344.5 -122.5q-144 0 -251 53t-162.5 150.5t-55.5 226.5q0 300 321 433q-82 55 -126.5 114.5t-44.5 139.5 q0 111 70.5 171.5t216.5 60.5q107 0 218.5 -28t177.5 -68zM787 424q0 120 -64.5 198t-164.5 126q-70 -23 -126 -72.5t-87.5 -120t-31.5 -152.5q0 -119 65.5 -184.5t182.5 -65.5q100 0 163 69.5t63 201.5z" />
<glyph unicode="&#x3b5;" horiz-adv-x="924" d="M889 130q-51 -77 -143 -117t-236 -40q-210 0 -320 74.5t-110 212.5q0 61 38.5 116.5t92.5 77.5q-54 20 -92.5 68t-38.5 123q0 139 115.5 216.5t323.5 77.5q261 0 358 -157l-158 -109q-35 48 -79.5 71.5t-119.5 23.5q-97 0 -152 -31t-55 -94q0 -62 47.5 -78t149.5 -16h194 v-164h-204q-106 0 -146.5 -27.5t-40.5 -90.5q0 -56 52.5 -88.5t140.5 -32.5q84 0 141 19.5t96 69.5z" />
<glyph unicode="&#x3b6;" horiz-adv-x="844" d="M124 1295h660v-137q-122 -74 -230 -200t-170.5 -271t-62.5 -275q0 -77 25 -125t69.5 -77t143.5 -52q103 -21 155 -51t78 -78t26 -124q0 -42 -23 -115t-50 -134h-218q43 103 56.5 150.5t13.5 77.5q0 27 -15 44.5t-41 29.5t-89 22q-58 13 -123 31t-118.5 61.5t-88.5 120 t-35 206.5q0 126 48.5 262t141 259.5t222.5 207.5h-375v167z" />
<glyph unicode="&#x3b7;" horiz-adv-x="1067" d="M948 -338h-225v876q0 114 -25.5 160.5t-102.5 46.5q-50 0 -116 -34t-128 -82v-629h-225v913h212v-109q168 135 321 135q147 0 218 -80t71 -253v-944z" />
<glyph unicode="&#x3b8;" horiz-adv-x="1070" d="M746 748q-3 165 -25 239.5t-66 114t-119 39.5t-120 -37.5t-66.5 -113.5t-24.5 -242h421zM536 1322q162 0 257.5 -68t139 -197.5t43.5 -405.5q0 -273 -44 -405.5t-139 -202.5t-257 -70q-163 0 -257.5 69.5t-139 202t-44.5 406.5q0 276 43.5 404.5t138 197.5t259.5 69z M325 585q0 -183 20 -266t64.5 -124.5t122.5 -41.5q80 0 126 41t67 122.5t21 268.5h-421z" />
<glyph unicode="&#x3b9;" horiz-adv-x="593" d="M581 0q-91 -27 -195 -27q-140 0 -203.5 67.5t-63.5 230.5v642h225v-619q0 -78 17.5 -109.5t71.5 -31.5q56 0 96 17z" />
<glyph unicode="&#x3ba;" horiz-adv-x="989" d="M967 0h-256l-276 383l-84 -84v-299h-225v913h225v-350l322 350h255l-362 -386z" />
<glyph unicode="&#x3bb;" horiz-adv-x="1040" d="M905 155q33 0 69 15l54 -170q-105 -27 -169 -27q-66 0 -106.5 20t-72.5 68.5t-53 125.5l-122 459l-245 -646h-230l394 913q-41 130 -58 162.5t-37.5 48t-52.5 15.5q-25 0 -61.5 -10t-66.5 -24l-51 163q113 54 213 54q98 0 167.5 -51.5t107.5 -172.5l240 -806 q28 -88 44.5 -112.5t35.5 -24.5z" />
<glyph unicode="&#x3bc;" horiz-adv-x="1045" d="M930 0h-207l-4 97q-42 -61 -90 -92.5t-116 -31.5q-54 0 -94.5 15t-80.5 46v-378h-224v1257h224v-653q26 -34 73 -60.5t99 -26.5q114 0 197 105v635h223v-913z" />
<glyph unicode="&#x3bd;" horiz-adv-x="1004" d="M271 913l239 -676q132 237 174 366t42 250v60h224v-54q0 -183 -107 -419t-277 -440h-190l-344 913h239z" />
<glyph unicode="&#x3be;" horiz-adv-x="858" d="M104 1131v164h656v-167h-78q-163 0 -233 -44.5t-70 -155.5q0 -70 46 -113t119 -43h194v-168h-211q-90 0 -148 -63t-58 -158q0 -61 22.5 -102.5t62 -68.5t146.5 -55q122 -30 171.5 -59.5t75.5 -75t26 -117.5q0 -80 -70 -249h-211q65 167 65 228q0 28 -12.5 46t-37 31 t-110.5 36q-58 15 -122.5 35.5t-118 61t-87.5 106t-34 172.5q0 106 61 192t170 124q-80 30 -125 94.5t-45 144.5q0 67 37.5 124t99.5 80h-181z" />
<glyph unicode="&#x3bf;" horiz-adv-x="1035" d="M955 454q0 -228 -105 -354.5t-331 -126.5q-439 0 -439 481q0 232 105.5 358.5t333.5 126.5q226 0 331 -126.5t105 -358.5zM723 454q0 151 -47 220t-157 69t-159 -71t-49 -218q0 -146 48.5 -215t159.5 -69q108 0 156 68t48 216z" />
<glyph unicode="&#x3c0;" horiz-adv-x="1234" d="M1171 17q-29 -14 -78 -23.5t-100 -9.5q-118 0 -185.5 70t-67.5 220v471h-247v-483q0 -80 -4 -142.5t-22 -119.5h-249q49 163 49 272v469q-120 -20 -189 -55l-66 157q49 24 130.5 47t176.5 23h855v-168h-210v-447q0 -80 26.5 -110.5t73.5 -30.5q36 0 65 13z" />
<glyph unicode="&#x3c1;" horiz-adv-x="1088" d="M112 -338v803q0 228 109.5 351t341.5 123q219 0 332 -125.5t113 -341.5q0 -230 -110 -364.5t-289 -134.5q-153 0 -272 95v-406h-225zM337 253q117 -96 231 -96q98 0 152.5 68.5t54.5 232.5q0 154 -51.5 228t-160.5 74q-226 0 -226 -277v-230z" />
<glyph unicode="&#x3c2;" horiz-adv-x="919" d="M713 663q-67 97 -173 97q-122 0 -174.5 -78t-52.5 -228q0 -80 22.5 -131t58.5 -82.5t80.5 -48.5t90.5 -32q118 -36 162 -66.5t68.5 -75t24.5 -110.5q0 -78 -70 -246h-221q70 162 70 226q0 36 -24.5 59t-115.5 50q-60 17 -127 42t-123 74t-92.5 130.5t-36.5 210.5 q0 239 115 362t343 123q247 0 342 -157z" />
<glyph unicode="&#x3c3;" horiz-adv-x="1140" d="M1096 913v-167h-236q138 -140 138 -333q0 -131 -54.5 -231.5t-157 -154.5t-242.5 -54q-219 0 -341.5 119.5t-122.5 335.5q0 252 118 368.5t370 116.5h528zM540 746q-82 0 -132 -33.5t-72.5 -100t-22.5 -190.5q0 -118 56 -193.5t178 -75.5q108 0 163 74.5t55 216.5 q0 87 -23.5 166.5t-73.5 135.5h-128z" />
<glyph unicode="&#x3c4;" horiz-adv-x="935" d="M891 746h-310v-452q0 -78 26.5 -107.5t72.5 -29.5q38 0 68 13l41 -153q-30 -14 -80.5 -23.5t-99.5 -9.5q-117 0 -184.5 70t-67.5 217v475h-68q-80 0 -139.5 -20t-88.5 -34l-64 155q125 66 302 66h592v-167z" />
<glyph unicode="&#x3c5;" horiz-adv-x="1054" d="M119 913h225v-590q0 -81 50.5 -125.5t130.5 -44.5q103 0 156 79t53 235q0 128 -24 246.5t-44 199.5h221q29 -70 54.5 -197.5t25.5 -230.5q0 -258 -106.5 -385t-340.5 -127q-202 0 -301.5 89t-99.5 256v595z" />
<glyph unicode="&#x3c6;" horiz-adv-x="1247" d="M517 -340v320q-213 23 -325 143.5t-112 332.5q0 431 437 479v360h214v-360q219 -25 327.5 -148t108.5 -331q0 -209 -110 -331t-326 -145v-320h-214zM313 456q0 -130 44 -207.5t160 -102.5v626q-116 -26 -160 -104t-44 -212zM935 456q0 127 -45 208t-159 106v-624 q114 25 159 103.5t45 206.5z" />
<glyph unicode="&#x3c7;" horiz-adv-x="1045" d="M401 330l-129 287q-29 65 -52 102.5t-69 37.5q-30 0 -73 -14l-48 153q102 43 181 43q73 0 128 -40t96 -140l99 -228l180 382h243l-330 -594l153 -346q31 -62 53 -91.5t65 -29.5q27 0 73 14l48 -160q-105 -44 -178 -44q-59 0 -100 22t-77.5 73.5t-74.5 138.5t-94 214 l-223 -448h-240z" />
<glyph unicode="&#x3c8;" horiz-adv-x="1332" d="M782 1283v-1123q124 30 180.5 109t56.5 200q0 144 -26 255.5t-51 188.5h225q28 -65 57 -196t29 -231q0 -222 -116.5 -351t-354.5 -155v-320h-219v318q-444 35 -444 379v556h225v-515q0 -101 53 -161.5t166 -78.5v1125h219z" />
<glyph unicode="&#x3c9;" horiz-adv-x="1494" d="M1238 925q85 -128 131 -275.5t46 -280.5q0 -197 -97 -296.5t-281 -99.5q-100 0 -175.5 45.5t-111.5 134.5q-36 -89 -114 -134.5t-178 -45.5q-187 0 -282.5 101.5t-95.5 294.5q0 144 52 299.5t125 256.5l212 -39q-156 -274 -156 -498q0 -114 40.5 -174.5t113.5 -60.5 t120 75t47 244v254h226v-254q0 -169 47.5 -244t120.5 -75t113 60.5t40 174.5q0 226 -154 498z" />
<glyph unicode="&#x3ca;" horiz-adv-x="593" d="M581 0q-91 -27 -195 -27q-140 0 -203.5 67.5t-63.5 230.5v642h225v-619q0 -78 17.5 -109.5t71.5 -31.5q56 0 96 17zM557 1161q0 -63 -31 -88.5t-96 -25.5q-71 0 -96.5 30t-25.5 84q0 61 27 87.5t95 26.5t97.5 -25.5t29.5 -88.5zM170 1161q0 -63 -31 -88.5t-95 -25.5 q-71 0 -97 30t-26 84q0 61 27.5 87.5t95.5 26.5t97 -25.5t29 -88.5z" />
<glyph unicode="&#x3cb;" horiz-adv-x="1054" d="M119 913h225v-590q0 -81 50.5 -125.5t130.5 -44.5q103 0 156 79t53 235q0 128 -24 246.5t-44 199.5h221q29 -70 54.5 -197.5t25.5 -230.5q0 -258 -106.5 -385t-340.5 -127q-202 0 -301.5 89t-99.5 256v595zM829 1161q0 -63 -31 -88.5t-96 -25.5q-71 0 -96.5 30t-25.5 84 q0 61 27 87.5t95 26.5t97.5 -25.5t29.5 -88.5zM442 1161q0 -63 -31 -88.5t-95 -25.5q-71 0 -97 30t-26 84q0 61 27.5 87.5t95.5 26.5t97 -25.5t29 -88.5z" />
<glyph unicode="&#x3cc;" horiz-adv-x="1035" d="M955 454q0 -228 -105 -354.5t-331 -126.5q-439 0 -439 481q0 232 105.5 358.5t333.5 126.5q226 0 331 -126.5t105 -358.5zM723 454q0 151 -47 220t-157 69t-159 -71t-49 -218q0 -146 48.5 -215t159.5 -69q108 0 156 68t48 216zM593 1051h-178l164 314h274z" />
<glyph unicode="&#x3cd;" horiz-adv-x="1054" d="M119 913h225v-590q0 -81 50.5 -125.5t130.5 -44.5q103 0 156 79t53 235q0 128 -24 246.5t-44 199.5h221q29 -70 54.5 -197.5t25.5 -230.5q0 -258 -106.5 -385t-340.5 -127q-202 0 -301.5 89t-99.5 256v595zM542 1051h-178l164 314h274z" />
<glyph unicode="&#x3ce;" horiz-adv-x="1494" d="M1238 925q85 -128 131 -275.5t46 -280.5q0 -197 -97 -296.5t-281 -99.5q-100 0 -175.5 45.5t-111.5 134.5q-36 -89 -114 -134.5t-178 -45.5q-187 0 -282.5 101.5t-95.5 294.5q0 144 52 299.5t125 256.5l212 -39q-156 -274 -156 -498q0 -114 40.5 -174.5t113.5 -60.5 t120 75t47 244v254h226v-254q0 -169 47.5 -244t120.5 -75t113 60.5t40 174.5q0 226 -154 498zM810 1051h-178l164 314h274z" />
<glyph unicode="&#x400;" horiz-adv-x="999" d="M130 0v1204h783v-217h-537v-256h452v-218h-452v-289h537v-224h-783zM493 1343l-260 314h274l163 -314h-177z" />
<glyph unicode="&#x401;" horiz-adv-x="999" d="M130 0v1204h783v-217h-537v-256h452v-218h-452v-289h537v-224h-783zM834 1453q0 -63 -31 -88.5t-96 -25.5q-71 0 -96.5 30t-25.5 84q0 61 27 87.5t95 26.5t97.5 -25.5t29.5 -88.5zM447 1453q0 -63 -31 -88.5t-95 -25.5q-71 0 -97 30t-26 84q0 61 27.5 87.5t95.5 26.5 t97 -25.5t29 -88.5z" />
<glyph unicode="&#x402;" horiz-adv-x="1208" d="M692 1001h-216v-267h150q267 0 396 -88.5t129 -269.5q0 -137 -54 -218t-165.5 -119.5t-309.5 -38.5v203q144 0 207.5 36.5t63.5 141.5q0 85 -57 119t-185 34h-175v-534h-246v1001h-208v203h670v-203z" />
<glyph unicode="&#x403;" horiz-adv-x="926" d="M357 1000v-1000h-247v1204h781v-204h-534zM547 1343h-178l164 314h274z" />
<glyph unicode="&#x404;" horiz-adv-x="1138" d="M1110 199q-77 -115 -190 -169.5t-277 -54.5q-559 0 -559 627q0 321 141.5 474t408.5 153q177 0 288.5 -59.5t169.5 -155.5l-191 -148q-41 62 -76 90t-79.5 42t-106.5 14q-126 0 -200.5 -67.5t-94.5 -226.5h501v-218h-503q15 -151 87 -229.5t212 -78.5q107 0 166.5 41 t108.5 109z" />
<glyph unicode="&#x405;" horiz-adv-x="1069" d="M996 349q0 -181 -118.5 -277.5t-350.5 -96.5q-160 0 -278 53t-192 171l189 145q42 -60 79.5 -89.5t88.5 -46t118 -16.5q100 0 156.5 34.5t56.5 104.5q0 40 -19.5 67t-59 47t-135.5 45q-94 25 -177 50.5t-143.5 66.5t-95.5 103t-35 156q0 171 115.5 267t331.5 96 q313 0 442 -214l-187 -146q-49 77 -111 110t-147 33q-86 0 -139.5 -31t-53.5 -97q0 -58 56 -89t194 -62q77 -20 151.5 -43.5t133.5 -64t94.5 -107t35.5 -169.5z" />
<glyph unicode="&#x406;" horiz-adv-x="758" d="M670 0h-581v189h168v826h-168v189h581v-189h-167v-826h167v-189z" />
<glyph unicode="&#x407;" horiz-adv-x="758" d="M670 0h-581v189h168v826h-168v189h581v-189h-167v-826h167v-189zM698 1453q0 -63 -31 -88.5t-96 -25.5q-71 0 -96.5 30t-25.5 84q0 61 27 87.5t95 26.5t97.5 -25.5t29.5 -88.5zM311 1453q0 -63 -31 -88.5t-95 -25.5q-71 0 -97 30t-26 84q0 61 27.5 87.5t95.5 26.5 t97 -25.5t29 -88.5z" />
<glyph unicode="&#x408;" horiz-adv-x="803" d="M670 328q0 -191 -96 -273t-302 -82q-44 0 -123 13t-132 34l75 218q28 -14 89.5 -30.5t96.5 -16.5q64 0 92.5 17t41 60.5t12.5 125.5v810h246v-876z" />
<glyph unicode="&#x409;" horiz-adv-x="1808" d="M595 1000v-99q0 -480 -85 -704t-273 -224q-132 0 -221 54l76 192q54 -23 99 -23q60 0 95.5 72t53 236t17.5 438v262h730v-427h185q250 0 359.5 -93.5t109.5 -285.5q0 -207 -115 -302.5t-359 -95.5h-426v1000h-246zM1087 565v-349h173q112 0 170 42.5t58 139.5 q0 92 -54.5 129.5t-173.5 37.5h-173z" />
<glyph unicode="&#x40a;" horiz-adv-x="1756" d="M789 0v565h-413v-565h-246v1204h246v-427h413v427h246v-427h186q249 0 359 -93.5t110 -285.5q0 -207 -115.5 -302.5t-359.5 -95.5h-426zM1035 565v-349h173q113 0 170.5 42.5t57.5 139.5q0 92 -54 129.5t-174 37.5h-173z" />
<glyph unicode="&#x40b;" horiz-adv-x="1157" d="M665 1001h-216v-255q128 31 246 31q159 0 239.5 -36.5t118 -119t37.5 -233.5v-388h-245v319q0 151 -40 205t-153 54q-76 0 -205 -29v-549h-244v1001h-181v203h643v-203z" />
<glyph unicode="&#x40c;" horiz-adv-x="1118" d="M376 1204v-491h139q49 0 86.5 48t74.5 155t83 288h253q-58 -250 -122 -391t-147 -196q70 -40 118 -102.5t87 -166.5t99 -348h-254q-34 126 -61.5 222t-60 159t-72.5 94t-100 31h-123v-506h-246v1204h246zM598 1343h-178l164 314h274z" />
<glyph unicode="&#x40d;" horiz-adv-x="1222" d="M130 0v1204h230v-839l446 839h286v-1204h-230v894l-470 -894h-262zM576 1343l-260 314h274l163 -314h-177z" />
<glyph unicode="&#x40e;" horiz-adv-x="1097" d="M579 617l246 587h258l-444 -983q-41 -92 -85.5 -145.5t-97 -77t-141.5 -23.5q-36 0 -120 15.5t-132 36.5l71 191q33 -17 88.5 -30t81.5 -13q42 0 78 35t76 148l-428 846h266zM891 1566q0 -66 -39 -121.5t-110 -88t-165 -32.5q-92 0 -163.5 32.5t-110.5 88t-39 121.5h192 q0 -130 123 -130q49 0 84.5 28.5t35.5 101.5h192z" />
<glyph unicode="&#x40f;" horiz-adv-x="1181" d="M1051 0h-337v-214h-243v214h-341v1204h244v-980h433v980h244v-1204z" />
<glyph unicode="&#x410;" horiz-adv-x="1163" d="M23 0l399 1204h319l400 -1204h-252l-80 244h-464l-78 -244h-244zM415 459h325l-162 498z" />
<glyph unicode="&#x411;" horiz-adv-x="1133" d="M376 738h168q249 0 373.5 -98t124.5 -287q0 -176 -116 -264.5t-375 -88.5h-421v1204h820v-201h-574v-265zM789 369q0 63 -25.5 99.5t-78 52t-168.5 15.5h-141v-335h156q124 0 190.5 35t66.5 133z" />
<glyph unicode="&#x412;" horiz-adv-x="1129" d="M1053 349q0 -181 -124.5 -265t-345.5 -84h-453v1204h426q231 0 331 -67.5t100 -213.5q0 -112 -54 -181.5t-170 -93.5q151 -21 220.5 -95.5t69.5 -203.5zM740 869q0 69 -50.5 95.5t-157.5 26.5h-156v-258h149q109 0 162 30t53 106zM802 371q0 81 -54.5 114.5t-205.5 33.5 h-166v-301h124q144 0 198.5 13.5t79 46.5t24.5 93z" />
<glyph unicode="&#x413;" horiz-adv-x="926" d="M357 1000v-1000h-247v1204h781v-204h-534z" />
<glyph unicode="&#x414;" horiz-adv-x="1184" d="M23 -214v415h111q91 203 132.5 451t41.5 552h711v-1003h142v-415h-245v214h-647v-214h-246zM775 1000h-244q-12 -279 -60.5 -478t-92.5 -317h397v795z" />
<glyph unicode="&#x415;" horiz-adv-x="999" d="M130 0v1204h783v-217h-537v-256h452v-218h-452v-289h537v-224h-783z" />
<glyph unicode="&#x416;" horiz-adv-x="1626" d="M937 713h88q47 0 83 44.5t74.5 155t80.5 291.5h255q-49 -225 -114.5 -378.5t-152.5 -208.5q70 -40 117 -101.5t86.5 -163t101.5 -352.5h-255q-36 132 -64.5 228.5t-60.5 157.5t-71 90.5t-97 29.5h-71v-506h-245v506h-73q-67 0 -112 -42.5t-83.5 -136.5t-95.5 -327h-257 q64 259 102.5 358t87 161t117.5 100q-165 104 -269 585h255q65 -272 119.5 -381.5t120.5 -109.5h88v491h245v-491z" />
<glyph unicode="&#x417;" horiz-adv-x="1058" d="M230 344q97 -169 276 -169q93 0 155 48t62 128q0 87 -44.5 127.5t-146.5 40.5h-254v202h267q78 0 119.5 41.5t41.5 121.5q0 65 -61 105.5t-153 40.5q-68 0 -139 -21.5t-159 -83.5l-123 176q176 128 429 128q147 0 252 -40t159.5 -117t54.5 -183q0 -102 -51 -175t-126 -99 q192 -83 192 -270q0 -182 -122.5 -276t-346.5 -94q-166 0 -284 59.5t-199 189.5z" />
<glyph unicode="&#x418;" horiz-adv-x="1222" d="M130 0v1204h230v-839l446 839h286v-1204h-230v894l-470 -894h-262z" />
<glyph unicode="&#x419;" horiz-adv-x="1222" d="M130 0v1204h230v-839l446 839h286v-1204h-230v894l-470 -894h-262zM936 1566q0 -66 -39 -121.5t-110 -88t-165 -32.5q-92 0 -163.5 32.5t-110.5 88t-39 121.5h192q0 -130 123 -130q49 0 84.5 28.5t35.5 101.5h192z" />
<glyph unicode="&#x41a;" horiz-adv-x="1118" d="M376 1204v-491h139q49 0 86.5 48t74.5 155t83 288h253q-58 -250 -122 -391t-147 -196q70 -40 118 -102.5t87 -166.5t99 -348h-254q-34 126 -61.5 222t-60 159t-72.5 94t-100 31h-123v-506h-246v1204h246z" />
<glyph unicode="&#x41b;" horiz-adv-x="1263" d="M595 1000v-99q0 -480 -85 -704t-273 -224q-132 0 -221 54l76 192q54 -23 99 -23q60 0 95.5 72t53 236t17.5 438v262h777v-1204h-245v1000h-294z" />
<glyph unicode="&#x41c;" horiz-adv-x="1450" d="M1083 0v809l-289 -503h-142l-285 503v-809h-237v1204h283l314 -572l317 572h277v-1204h-238z" />
<glyph unicode="&#x41d;" horiz-adv-x="1225" d="M850 0v512h-474v-512h-246v1204h246v-468h474v468h246v-1204h-246z" />
<glyph unicode="&#x41e;" horiz-adv-x="1186" d="M1112 602q0 -314 -132.5 -470.5t-386.5 -156.5q-267 0 -392.5 164.5t-125.5 462.5q0 299 125.5 463t392.5 164q269 0 394 -164t125 -463zM859 602q0 214 -60.5 312t-205.5 98q-144 0 -204.5 -98t-60.5 -312t61.5 -312t203.5 -98q145 0 205.5 98t60.5 312z" />
<glyph unicode="&#x41f;" horiz-adv-x="1232" d="M130 0v1204h973v-1204h-251v994h-471v-994h-251z" />
<glyph unicode="&#x420;" horiz-adv-x="1077" d="M1010 800q0 -217 -102 -322.5t-332 -105.5h-200v-372h-246v1204h453q204 0 315.5 -95t111.5 -309zM757 799q0 101 -56 146.5t-202 45.5h-123v-405h100q135 0 186.5 19t73 63.5t21.5 130.5z" />
<glyph unicode="&#x421;" horiz-adv-x="1159" d="M1110 199q-77 -115 -190 -169.5t-277 -54.5q-559 0 -559 627q0 321 141.5 474t408.5 153q177 0 288.5 -59.5t169.5 -155.5l-191 -148q-41 62 -76 90t-79.5 42t-106.5 14q-147 0 -224.5 -94.5t-77.5 -315.5q0 -206 72.5 -308t231.5 -102q107 0 166.5 41t108.5 109z" />
<glyph unicode="&#x422;" horiz-adv-x="1047" d="M646 980v-980h-245v980h-371v224h987v-224h-371z" />
<glyph unicode="&#x423;" horiz-adv-x="1097" d="M579 617l246 587h258l-444 -983q-41 -92 -85.5 -145.5t-97 -77t-141.5 -23.5q-36 0 -120 15.5t-132 36.5l71 191q33 -17 88.5 -30t81.5 -13q42 0 78 35t76 148l-428 846h266z" />
<glyph unicode="&#x424;" horiz-adv-x="1346" d="M561 -39v163q-249 20 -371 137t-122 346t124 344t369 134v159h230v-159q244 -19 366 -134t122 -344q0 -228 -120.5 -345t-367.5 -138v-163h-230zM318 607q0 -138 61 -204t182 -82v570q-119 -16 -181 -81t-62 -203zM1030 607q0 138 -61 201t-178 81v-568q117 16 178 82 t61 204z" />
<glyph unicode="&#x425;" horiz-adv-x="1118" d="M25 0l403 604l-392 600h279l250 -405l258 405h271l-395 -595l393 -609h-276l-258 415l-262 -415h-271z" />
<glyph unicode="&#x426;" horiz-adv-x="1231" d="M130 0v1204h246v-980h444v980h246v-980h142v-438h-246v214h-832z" />
<glyph unicode="&#x427;" horiz-adv-x="1120" d="M77 1204h246v-310q0 -113 14 -164t49.5 -72.5t108.5 -21.5q137 0 250 29v539h246v-1204h-246v447q-139 -35 -287 -35q-153 0 -232.5 37.5t-114 122.5t-34.5 234v398z" />
<glyph unicode="&#x428;" horiz-adv-x="1626" d="M1251 224v980h245v-1204h-1366v1204h246v-980h316v980h243v-980h316z" />
<glyph unicode="&#x429;" horiz-adv-x="1659" d="M130 0v1204h246v-980h316v980h243v-980h316v980h245v-983h140v-435h-247v214h-1259z" />
<glyph unicode="&#x42a;" horiz-adv-x="1358" d="M30 1000v204h606v-427h185q250 0 359.5 -93.5t109.5 -285.5q0 -207 -114.5 -302.5t-359.5 -95.5h-425v1000h-361zM636 565v-349h173q112 0 170 42.5t58 139.5q0 92 -54.5 129.5t-173.5 37.5h-173z" />
<glyph unicode="&#x42b;" horiz-adv-x="1576" d="M1202 1204h245v-1204h-245v1204zM130 0v1204h246v-427h185q250 0 359.5 -93.5t109.5 -285.5q0 -207 -115 -302.5t-359 -95.5h-426zM777 398q0 92 -54.5 129.5t-173.5 37.5h-173v-349h173q112 0 170 42.5t58 139.5z" />
<glyph unicode="&#x42c;" horiz-adv-x="1097" d="M130 0v1204h246v-427h185q250 0 359.5 -93.5t109.5 -285.5q0 -207 -115 -302.5t-359 -95.5h-426zM777 398q0 92 -54.5 129.5t-173.5 37.5h-173v-349h173q112 0 170 42.5t58 139.5z" />
<glyph unicode="&#x42d;" horiz-adv-x="1104" d="M46 1014q59 96 170.5 155.5t288.5 59.5q549 0 549 -627t-559 -627q-163 0 -275 54t-191 170l194 143q48 -68 108 -109t166 -41q141 0 212.5 78t86.5 230h-502v218h500q-19 159 -93.5 226.5t-201.5 67.5q-61 0 -104.5 -13.5t-78 -40.5t-79.5 -92z" />
<glyph unicode="&#x42e;" horiz-adv-x="1686" d="M376 0h-246v1204h246v-504h210q19 259 147 394t365 135q253 0 383.5 -158.5t130.5 -470.5q0 -309 -131.5 -467t-382.5 -158q-233 0 -361 133t-151 391h-210v-499zM1356 600q0 430 -258 430q-128 0 -193 -104.5t-65 -325.5q0 -215 64 -320t194 -105t194 109.5t64 315.5z " />
<glyph unicode="&#x42f;" horiz-adv-x="1117" d="M29 0l322 485q-118 23 -183.5 115t-65.5 247q0 190 106.5 273.5t340.5 83.5h438v-1204h-246v456h-124l-307 -456h-281zM351 836q0 -69 19.5 -102t63.5 -48.5t127 -15.5h180v321h-190q-107 0 -153.5 -31.5t-46.5 -123.5z" />
<glyph unicode="&#x430;" horiz-adv-x="990" d="M665 0v95q-133 -122 -286 -122q-151 0 -228.5 79.5t-77.5 204.5q0 97 39.5 160.5t117.5 99.5t224 51l192 18v41q0 77 -46 105t-135 28q-73 0 -125.5 -24t-77.5 -70l-175 113q46 77 144.5 118.5t237.5 41.5q213 0 307.5 -74.5t94.5 -244.5v-620h-206zM646 424l-114 -11 q-120 -10 -174 -46t-54 -107q0 -63 35 -86t93 -23q40 0 99 26t115 73v174z" />
<glyph unicode="&#x431;" horiz-adv-x="1084" d="M1005 461q0 -230 -116 -359t-319 -129q-235 0 -356.5 152.5t-121.5 444.5q0 166 22.5 283.5t68 197.5t115 128.5t163 77t212 41.5t262.5 24v-183q-142 -10 -252 -21t-186.5 -44t-119 -98t-51.5 -180q112 90 278 90q401 0 401 -425zM775 454q0 132 -48 193.5t-155 61.5 q-63 0 -128.5 -28.5t-117.5 -78.5l-1 -33v-35q0 -177 62 -280t185 -103q93 0 148 82.5t55 220.5z" />
<glyph unicode="&#x432;" horiz-adv-x="994" d="M923 272q0 -129 -101 -200.5t-309 -71.5h-399v913h371q199 0 287 -50t88 -168q0 -78 -45 -126.5t-104 -73.5q93 -19 152.5 -71.5t59.5 -151.5zM636 659q0 55 -44.5 74.5t-132.5 19.5h-122v-195h132q94 0 130.5 24t36.5 77zM692 284q0 67 -48.5 91t-148.5 24h-158v-239 h130q101 0 163 24.5t62 99.5z" />
<glyph unicode="&#x433;" horiz-adv-x="773" d="M114 913h645v-167h-421v-746h-224v913z" />
<glyph unicode="&#x434;" horiz-adv-x="1052" d="M25 -228v390h98q74 139 114.5 327t40.5 424h623v-751h127v-390h-214v228h-576v-228h-213zM679 746h-194q-9 -166 -51 -324t-97 -254h342v578z" />
<glyph unicode="&#x435;" horiz-adv-x="994" d="M311 398q7 -122 60 -175t167 -53q66 0 116 16.5t87 63.5l167 -120q-55 -79 -142 -118t-239 -39q-225 0 -336 118.5t-111 357.5q0 490 439 490q194 0 296.5 -110t102.5 -321v-110h-607zM695 552q0 208 -182 208q-60 0 -98 -20.5t-61 -60.5t-36 -127h377z" />
<glyph unicode="&#x436;" horiz-adv-x="1373" d="M800 913v-362h69q58 0 101.5 75t103.5 287h232q-51 -187 -106.5 -292.5t-128.5 -151.5q55 -27 92.5 -67t67 -96t53.5 -132t54 -174h-231q-33 100 -57.5 172t-51.5 119t-60 69.5t-81 22.5h-57v-383h-224v383h-59q-58 0 -96.5 -34t-70.5 -105t-81 -244h-233 q60 205 92 275.5t73 117t103 76.5q-70 44 -127 147.5t-109 296.5h231q50 -183 98.5 -272.5t107.5 -89.5h71v362h224z" />
<glyph unicode="&#x437;" horiz-adv-x="876" d="M205 545h194q84 0 120.5 18t36.5 80q0 63 -39 87.5t-114 24.5q-72 0 -116 -22t-75 -63l-159 112q49 80 140.5 118.5t209.5 38.5q199 0 291.5 -81t92.5 -213q0 -62 -30 -111t-91 -76q60 -22 100 -79.5t40 -120.5q0 -137 -103 -211t-309 -74q-249 0 -353 157l170 120 q39 -51 82.5 -71.5t100.5 -20.5q78 0 128.5 28t50.5 81q0 61 -34 89.5t-131 28.5h-203v160z" />
<glyph unicode="&#x438;" horiz-adv-x="1058" d="M326 0h-212v913h204v-617l422 617h214v-913h-204v615z" />
<glyph unicode="&#x439;" horiz-adv-x="1058" d="M326 0h-212v913h204v-617l422 617h214v-913h-204v615zM850 1275q0 -67 -39.5 -122t-111.5 -87t-165 -32q-89 0 -160.5 31t-111 87.5t-39.5 122.5h192q0 -129 121 -129q50 0 86 28t36 101h192z" />
<glyph unicode="&#x43a;" horiz-adv-x="963" d="M337 913v-362h117q45 0 78 37t63.5 110t70.5 215h230q-49 -180 -106 -287t-134 -157q57 -27 96 -67t68.5 -96t53.5 -132t54 -174h-229q-31 95 -55.5 166.5t-52.5 120t-63.5 72.5t-87.5 24h-103v-383h-223v913h223z" />
<glyph unicode="&#x43b;" horiz-adv-x="1064" d="M493 746v-56q0 -366 -82.5 -536t-269.5 -170q-31 0 -69 7t-58 16l39 163q27 -8 49 -8q93 0 133.5 134.5t40.5 426.5v190h674v-913h-223v746h-234z" />
<glyph unicode="&#x43c;" horiz-adv-x="1211" d="M1098 0h-198v651l-228 -423h-123l-238 423v-651h-197v913h250l251 -434l238 434h245v-913z" />
<glyph unicode="&#x43d;" horiz-adv-x="1045" d="M932 0h-225v385h-369v-385h-224v913h224v-361h369v361h225v-913z" />
<glyph unicode="&#x43e;" horiz-adv-x="1035" d="M955 454q0 -228 -105 -354.5t-331 -126.5q-439 0 -439 481q0 232 105.5 358.5t333.5 126.5q226 0 331 -126.5t105 -358.5zM723 454q0 151 -47 220t-157 69t-159 -71t-49 -218q0 -146 48.5 -215t159.5 -69q108 0 156 68t48 216z" />
<glyph unicode="&#x43f;" horiz-adv-x="1045" d="M707 0v746h-369v-746h-224v913h818v-913h-225z" />
<glyph unicode="&#x440;" horiz-adv-x="1058" d="M978 463q0 -147 -44.5 -259.5t-127 -171.5t-197.5 -59q-151 0 -258 95v-412h-225v1257h207v-90q63 54 132 85t159 31q173 0 263.5 -122t90.5 -354zM746 459q0 133 -46 207.5t-137 74.5q-55 0 -113 -25.5t-99 -63.5v-399q35 -32 88 -57t108 -25q92 0 145.5 79t53.5 209z " />
<glyph unicode="&#x441;" horiz-adv-x="921" d="M880 130q-52 -77 -137 -117t-216 -40q-221 0 -334 120.5t-113 357.5q0 230 109.5 359t329.5 129q117 0 209 -38.5t139 -118.5l-167 -119q-30 41 -71 60.5t-105 19.5q-115 0 -164 -70.5t-49 -218.5t50.5 -216t170.5 -68q53 0 96.5 14.5t82.5 65.5z" />
<glyph unicode="&#x442;" horiz-adv-x="873" d="M859 750h-310v-750h-223v750h-312v163h845v-163z" />
<glyph unicode="&#x443;" horiz-adv-x="943" d="M30 -123q74 -25 132 -25q50 0 88.5 30.5t79.5 126.5l23 54l-330 850h234l215 -583l221 583h228l-392 -976q-48 -117 -93 -173.5t-105.5 -82t-152.5 -25.5q-99 0 -195 26z" />
<glyph unicode="&#x444;" horiz-adv-x="1211" d="M499 -340v320q-210 22 -320.5 141t-110.5 335q0 431 431 479v348h214v-348q216 -24 323.5 -146.5t107.5 -332.5q0 -212 -108.5 -332.5t-322.5 -143.5v-320h-214zM299 456q0 -130 43.5 -207.5t156.5 -102.5v626q-113 -27 -156.5 -104.5t-43.5 -211.5zM913 456 q0 127 -45 207t-155 107v-624q110 25 155 103.5t45 206.5z" />
<glyph unicode="&#x445;" horiz-adv-x="938" d="M646 0l-181 291l-189 -291h-249l315 451l-310 462h262l182 -289l187 289h248l-314 -450l316 -463h-267z" />
<glyph unicode="&#x446;" horiz-adv-x="1076" d="M114 0v913h224v-749h366v749h223v-749h124v-392h-204v228h-733z" />
<glyph unicode="&#x447;" horiz-adv-x="1001" d="M78 913h223v-245q0 -82 12 -120t40.5 -54t95.5 -16q90 0 216 17v418h222v-913h-222v342q-65 -11 -132.5 -21t-120.5 -10q-185 0 -259.5 69t-74.5 239v294z" />
<glyph unicode="&#x448;" horiz-adv-x="1421" d="M1083 164v749h225v-913h-1194v913h224v-749h261v749h224v-749h260z" />
<glyph unicode="&#x449;" horiz-adv-x="1450" d="M114 0v913h224v-749h259v749h224v-749h259v749h224v-751h121v-390h-206v228h-1105z" />
<glyph unicode="&#x44a;" horiz-adv-x="1176" d="M14 750v163h526v-323h160q216 0 317.5 -72.5t101.5 -218.5q0 -156 -107 -227.5t-324 -71.5h-370v750h-304zM887 301q0 71 -50.5 97.5t-161.5 26.5h-135v-261h142q111 0 158 31t47 106z" />
<glyph unicode="&#x44b;" horiz-adv-x="1370" d="M1034 0v913h222v-913h-222zM337 590h158q216 0 316 -72.5t100 -218.5q0 -156 -104.5 -227.5t-323.5 -71.5h-369v913h223v-323zM679 301q0 71 -48 97.5t-160 26.5h-134v-261h141q108 0 154.5 31t46.5 106z" />
<glyph unicode="&#x44c;" horiz-adv-x="967" d="M337 590h158q216 0 316 -72.5t100 -218.5q0 -156 -104.5 -227.5t-323.5 -71.5h-369v913h223v-323zM679 301q0 71 -48 97.5t-160 26.5h-134v-261h141q108 0 154.5 31t46.5 106z" />
<glyph unicode="&#x44d;" horiz-adv-x="921" d="M53 782q49 80 140.5 118.5t209.5 38.5q217 0 327.5 -128.5t110.5 -359.5q0 -238 -114.5 -358t-332.5 -120q-249 0 -353 157l170 120q39 -51 82.5 -65.5t94.5 -14.5q102 0 154.5 48.5t63.5 166.5h-412v160h410q-14 113 -67.5 155.5t-138.5 42.5q-65 0 -106 -19.5 t-71 -60.5z" />
<glyph unicode="&#x44e;" horiz-adv-x="1501" d="M337 0h-223v914h223v-380h192q16 203 131.5 304t319.5 101q222 0 338.5 -123.5t116.5 -361.5q0 -153 -52 -262t-153 -164t-250 -55q-205 0 -320 102.5t-131 295.5h-192v-371zM1202 454q0 163 -53 234.5t-169 71.5t-169.5 -71.5t-53.5 -234.5q0 -156 53.5 -228.5 t169.5 -72.5t169 73t53 228z" />
<glyph unicode="&#x44f;" horiz-adv-x="948" d="M36 0l251 381q-216 50 -216 278q0 135 87.5 194.5t299.5 59.5h375v-913h-222v364h-92l-239 -364h-244zM298 639q0 -67 34.5 -92t128.5 -25h150v231h-150q-87 0 -125 -26.5t-38 -87.5z" />
<glyph unicode="&#x450;" horiz-adv-x="994" d="M311 398q7 -122 60 -175t167 -53q66 0 116 16.5t87 63.5l167 -120q-55 -79 -142 -118t-239 -39q-225 0 -336 118.5t-111 357.5q0 490 439 490q194 0 296.5 -110t102.5 -321v-110h-607zM695 552q0 208 -182 208q-60 0 -98 -20.5t-61 -60.5t-36 -127h377zM476 1051 l-260 314h274l163 -314h-177z" />
<glyph unicode="&#x451;" horiz-adv-x="994" d="M311 398q7 -122 60 -175t167 -53q66 0 116 16.5t87 63.5l167 -120q-55 -79 -142 -118t-239 -39q-225 0 -336 118.5t-111 357.5q0 490 439 490q194 0 296.5 -110t102.5 -321v-110h-607zM695 552q0 208 -182 208q-60 0 -98 -20.5t-61 -60.5t-36 -127h377zM782 1161 q0 -63 -31 -88.5t-96 -25.5q-71 0 -96.5 30t-25.5 84q0 61 27 87.5t95 26.5t97.5 -25.5t29.5 -88.5zM395 1161q0 -63 -31 -88.5t-95 -25.5q-71 0 -97 30t-26 84q0 61 27.5 87.5t95.5 26.5t97 -25.5t29 -88.5z" />
<glyph unicode="&#x452;" horiz-adv-x="1147" d="M619 1047h-250v-254q67 67 154.5 106.5t158.5 39.5q178 0 265.5 -120t87.5 -348q0 -381 -115 -583.5t-341 -227.5l-39 178q107 31 163.5 100.5t82 195t25.5 325.5q0 286 -192 286q-52 0 -125.5 -43t-124.5 -91v-611h-219v1047h-130v157h130v91h219v-91h250v-157z" />
<glyph unicode="&#x453;" horiz-adv-x="773" d="M114 913h645v-167h-421v-746h-224v913zM458 1051h-178l164 314h274z" />
<glyph unicode="&#x454;" horiz-adv-x="921" d="M880 130q-52 -77 -137 -117t-216 -40q-221 0 -334 120.5t-113 357.5q0 230 109.5 359t329.5 129q117 0 209 -38.5t139 -118.5l-167 -119q-30 41 -71 60.5t-105 19.5q-86 0 -139.5 -42.5t-66.5 -155.5h409v-160h-412q11 -118 64 -166.5t153 -48.5q53 0 96.5 14.5 t82.5 65.5z" />
<glyph unicode="&#x455;" horiz-adv-x="892" d="M823 260q0 -90 -45.5 -154.5t-129.5 -98.5t-192 -34q-286 0 -390 159l167 118q41 -56 94.5 -74.5t114.5 -18.5q160 0 160 93q0 41 -45 63t-142 45q-182 40 -256 113.5t-74 189.5q0 121 93 199.5t273 78.5q122 0 215.5 -39.5t144.5 -117.5l-168 -119q-60 92 -196 92 q-69 0 -105 -24t-36 -61q0 -36 32.5 -57t126.5 -45q156 -38 222.5 -76t101 -94t34.5 -138z" />
<glyph unicode="&#x456;" horiz-adv-x="477" d="M364 1161q0 -63 -31.5 -88.5t-95.5 -25.5q-72 0 -97.5 30t-25.5 84q0 61 28 87.5t95 26.5t97 -25.5t30 -88.5zM126 0v913h225v-913h-225z" />
<glyph unicode="&#x457;" horiz-adv-x="477" d="M126 0v913h225v-913h-225zM556 1161q0 -63 -31 -88.5t-96 -25.5q-71 0 -96.5 30t-25.5 84q0 61 27 87.5t95 26.5t97.5 -25.5t29.5 -88.5zM169 1161q0 -63 -31 -88.5t-95 -25.5q-71 0 -97 30t-26 84q0 61 27.5 87.5t95.5 26.5t97 -25.5t29 -88.5z" />
<glyph unicode="&#x458;" horiz-adv-x="489" d="M376 1161q0 -63 -31.5 -88.5t-94.5 -25.5q-72 0 -98 30t-26 84q0 61 28 87.5t96 26.5t97 -25.5t29 -88.5zM364 -39q0 -164 -73 -234.5t-240 -70.5q-37 0 -98 8.5t-94 17.5l49 195q63 -25 131 -25t84 42t16 138v881h225v-952z" />
<glyph unicode="&#x459;" horiz-adv-x="1557" d="M272 913h662v-323h156q212 0 311 -72.5t99 -218.5q0 -156 -104 -227.5t-320 -71.5h-367v750h-217v-60q0 -366 -83 -536t-268 -170q-31 0 -68 7t-59 16l39 163q27 -8 49 -8q89 0 129.5 127.5t40.5 433.5v190zM1268 301q0 71 -48.5 97.5t-153.5 26.5h-132v-261h137 q105 0 151 32t46 105z" />
<glyph unicode="&#x45a;" horiz-adv-x="1532" d="M690 0v413h-353v-413h-223v913h223v-335h353v335h223v-335h156q210 0 308.5 -63.5t98.5 -215.5q0 -156 -104.5 -227.5t-317.5 -71.5h-364zM1244 301q0 63 -47.5 87.5t-152.5 24.5h-131v-249h136q104 0 149.5 31t45.5 106z" />
<glyph unicode="&#x45b;" horiz-adv-x="1081" d="M369 793q59 60 144.5 103t174.5 43q147 0 215 -80t68 -250v-609h-219v505q0 144 -27 192t-103 48q-101 0 -253 -134v-611h-219v1037h-130v151h130v107h219v-107h248v-151h-248v-244z" />
<glyph unicode="&#x45c;" horiz-adv-x="963" d="M337 913v-362h117q45 0 78 37t63.5 110t70.5 215h230q-49 -180 -106 -287t-134 -157q57 -27 96 -67t68.5 -96t53.5 -132t54 -174h-229q-31 95 -55.5 166.5t-52.5 120t-63.5 72.5t-87.5 24h-103v-383h-223v913h223zM532 1051h-178l164 314h274z" />
<glyph unicode="&#x45d;" horiz-adv-x="1058" d="M326 0h-212v913h204v-617l422 617h214v-913h-204v615zM498 1051l-260 314h274l163 -314h-177z" />
<glyph unicode="&#x45e;" horiz-adv-x="943" d="M30 -123q74 -25 132 -25q50 0 88.5 30.5t79.5 126.5l23 54l-330 850h234l215 -583l221 583h228l-392 -976q-48 -117 -93 -173.5t-105.5 -82t-152.5 -25.5q-99 0 -195 26zM786 1275q0 -67 -39.5 -122t-111.5 -87t-165 -32q-89 0 -160.5 31t-111 87.5t-39.5 122.5h192 q0 -129 121 -129q50 0 86 28t36 101h192z" />
<glyph unicode="&#x45f;" horiz-adv-x="1045" d="M932 0h-298v-230h-222v230h-298v913h224v-749h369v749h225v-913z" />
<glyph unicode="&#x490;" horiz-adv-x="869" d="M599 1422h246v-442h-471v-980h-244v1204h469v218z" />
<glyph unicode="&#x491;" horiz-adv-x="787" d="M114 0v913h426v248h223v-416h-425v-745h-224z" />
<glyph unicode="&#x1e80;" horiz-adv-x="1594" d="M1246 0h-252l-201 796l-203 -796h-248l-305 1204h245l192 -786l199 786h243l201 -791l198 791h242zM772 1343l-260 314h274l163 -314h-177z" />
<glyph unicode="&#x1e81;" horiz-adv-x="1361" d="M1094 0h-205l-205 581l-206 -581h-206l-249 913h234l141 -588l204 588h170l206 -583l136 583h224zM639 1051l-260 314h274l163 -314h-177z" />
<glyph unicode="&#x1e82;" horiz-adv-x="1594" d="M1246 0h-252l-201 796l-203 -796h-248l-305 1204h245l192 -786l199 786h243l201 -791l198 791h242zM828 1343h-178l164 314h274z" />
<glyph unicode="&#x1e83;" horiz-adv-x="1361" d="M1094 0h-205l-205 581l-206 -581h-206l-249 913h234l141 -588l204 588h170l206 -583l136 583h224zM748 1051h-178l164 314h274z" />
<glyph unicode="&#x1e84;" horiz-adv-x="1594" d="M1246 0h-252l-201 796l-203 -796h-248l-305 1204h245l192 -786l199 786h243l201 -791l198 791h242zM1113 1453q0 -63 -31 -88.5t-96 -25.5q-71 0 -96.5 30t-25.5 84q0 61 27 87.5t95 26.5t97.5 -25.5t29.5 -88.5zM726 1453q0 -63 -31 -88.5t-95 -25.5q-71 0 -97 30 t-26 84q0 61 27.5 87.5t95.5 26.5t97 -25.5t29 -88.5z" />
<glyph unicode="&#x1e85;" horiz-adv-x="1361" d="M1094 0h-205l-205 581l-206 -581h-206l-249 913h234l141 -588l204 588h170l206 -583l136 583h224zM998 1161q0 -63 -31 -88.5t-96 -25.5q-71 0 -96.5 30t-25.5 84q0 61 27 87.5t95 26.5t97.5 -25.5t29.5 -88.5zM611 1161q0 -63 -31 -88.5t-95 -25.5q-71 0 -97 30t-26 84 q0 61 27.5 87.5t95.5 26.5t97 -25.5t29 -88.5z" />
<glyph unicode="&#x1e9e;" horiz-adv-x="1307" d="M967 1012q-85 0 -138.5 -31t-53.5 -97q0 -37 15 -59.5t52 -44t106 -47.5q146 -54 216.5 -144t70.5 -240q0 -171 -111.5 -272.5t-316.5 -101.5q-136 0 -221 47.5t-148 161.5l189 144q36 -73 84 -104.5t112 -31.5q160 0 160 145q0 57 -31 101.5t-116 76.5 q-175 66 -243.5 143t-68.5 208q0 80 44 148q-111 -7 -151.5 -61.5t-40.5 -187.5v-765h-246v755q0 252 118.5 364t377.5 112q112 0 190 -13.5t151 -32.5v-173z" />
<glyph unicode="&#x1ea0;" horiz-adv-x="1163" d="M23 0l399 1204h319l400 -1204h-252l-80 244h-464l-78 -244h-244zM415 459h325l-162 498zM705 -216q0 -64 -31 -89t-96 -25q-71 0 -96.5 29.5t-25.5 84.5q0 61 27.5 87.5t94.5 26.5q68 0 97.5 -25.5t29.5 -88.5z" />
<glyph unicode="&#x1ea1;" horiz-adv-x="990" d="M665 0v95q-133 -122 -286 -122q-151 0 -228.5 79.5t-77.5 204.5q0 97 39.5 160.5t117.5 99.5t224 51l192 18v41q0 77 -46 105t-135 28q-73 0 -125.5 -24t-77.5 -70l-175 113q46 77 144.5 118.5t237.5 41.5q213 0 307.5 -74.5t94.5 -244.5v-620h-206zM646 424l-114 -11 q-120 -10 -174 -46t-54 -107q0 -63 35 -86t93 -23q40 0 99 26t115 73v174zM577 -216q0 -64 -31 -89t-96 -25q-71 0 -96.5 29.5t-25.5 84.5q0 61 27.5 87.5t94.5 26.5q68 0 97.5 -25.5t29.5 -88.5z" />
<glyph unicode="&#x1ea2;" horiz-adv-x="1163" d="M23 0l399 1204h319l400 -1204h-252l-80 244h-464l-78 -244h-244zM415 459h325l-162 498zM398 1586q61 46 171 46q91 0 140 -40t49 -104q0 -60 -41 -101.5t-110 -46.5v-38h-111v120h38q64 0 64 52q0 44 -66 44q-50 0 -83 -22z" />
<glyph unicode="&#x1ea3;" horiz-adv-x="990" d="M665 0v95q-133 -122 -286 -122q-151 0 -228.5 79.5t-77.5 204.5q0 97 39.5 160.5t117.5 99.5t224 51l192 18v41q0 77 -46 105t-135 28q-73 0 -125.5 -24t-77.5 -70l-175 113q46 77 144.5 118.5t237.5 41.5q213 0 307.5 -74.5t94.5 -244.5v-620h-206zM646 424l-114 -11 q-120 -10 -174 -46t-54 -107q0 -63 35 -86t93 -23q40 0 99 26t115 73v174zM304 1294q61 46 171 46q91 0 140 -40t49 -105q0 -60 -41 -101t-110 -47v-37h-111v119h38q64 0 64 52q0 45 -66 45q-50 0 -83 -22z" />
<glyph unicode="&#x1ea4;" horiz-adv-x="1163" d="M23 0l399 1204h319l400 -1204h-252l-80 244h-464l-78 -244h-244zM415 459h325l-162 498zM715 1308l-127 115l-129 -115h-182l204 260h212l206 -260h-184zM788 1493l133 253h275l-230 -253h-178z" />
<glyph unicode="&#x1ea5;" horiz-adv-x="990" d="M665 0v95q-133 -122 -286 -122q-151 0 -228.5 79.5t-77.5 204.5q0 97 39.5 160.5t117.5 99.5t224 51l192 18v41q0 77 -46 105t-135 28q-73 0 -125.5 -24t-77.5 -70l-175 113q46 77 144.5 118.5t237.5 41.5q213 0 307.5 -74.5t94.5 -244.5v-620h-206zM646 424l-114 -11 q-120 -10 -174 -46t-54 -107q0 -63 35 -86t93 -23q40 0 99 26t115 73v174zM598 1015l-127 126l-129 -126h-182l204 260h212l206 -260h-184zM671 1201l133 253h275l-230 -253h-178z" />
<glyph unicode="&#x1ea6;" horiz-adv-x="1163" d="M23 0l399 1204h319l400 -1204h-252l-80 244h-464l-78 -244h-244zM415 459h325l-162 498zM715 1308l-127 115l-129 -115h-182l204 260h212l206 -260h-184zM211 1493l-230 253h274l134 -253h-178z" />
<glyph unicode="&#x1ea7;" horiz-adv-x="990" d="M665 0v95q-133 -122 -286 -122q-151 0 -228.5 79.5t-77.5 204.5q0 97 39.5 160.5t117.5 99.5t224 51l192 18v41q0 77 -46 105t-135 28q-73 0 -125.5 -24t-77.5 -70l-175 113q46 77 144.5 118.5t237.5 41.5q213 0 307.5 -74.5t94.5 -244.5v-620h-206zM646 424l-114 -11 q-120 -10 -174 -46t-54 -107q0 -63 35 -86t93 -23q40 0 99 26t115 73v174zM598 1015l-127 116l-129 -116h-182l204 260h212l206 -260h-184zM94 1201l-230 253h274l134 -253h-178z" />
<glyph unicode="&#x1ea8;" horiz-adv-x="1163" d="M23 0l399 1204h319l400 -1204h-252l-80 244h-464l-78 -244h-244zM415 459h325l-162 498zM715 1308l-127 115l-129 -115h-182l204 260h212l206 -260h-184zM707 1741q61 46 172 46q91 0 140 -40t49 -104q0 -60 -41 -101.5t-111 -46.5v-38h-110v119h37q64 0 64 53 q0 44 -66 44q-50 0 -83 -22z" />
<glyph unicode="&#x1ea9;" horiz-adv-x="990" d="M665 0v95q-133 -122 -286 -122q-151 0 -228.5 79.5t-77.5 204.5q0 97 39.5 160.5t117.5 99.5t224 51l192 18v41q0 77 -46 105t-135 28q-73 0 -125.5 -24t-77.5 -70l-175 113q46 77 144.5 118.5t237.5 41.5q213 0 307.5 -74.5t94.5 -244.5v-620h-206zM646 424l-114 -11 q-120 -10 -174 -46t-54 -107q0 -63 35 -86t93 -23q40 0 99 26t115 73v174zM598 1015l-127 116l-129 -116h-182l204 260h212l206 -260h-184zM590 1449q59 46 172 46q91 0 140 -40t49 -105q0 -60 -41 -101t-111 -47v-37h-110v120h37q64 0 64 51q0 45 -66 45q-48 0 -83 -21z " />
<glyph unicode="&#x1eaa;" horiz-adv-x="1163" d="M23 0l399 1204h319l400 -1204h-252l-80 244h-464l-78 -244h-244zM415 459h325l-162 498zM715 1308l-127 107l-129 -107h-182l204 242h212l206 -242h-184zM232 1609q5 118 65 179.5t163 61.5q43 0 79.5 -13.5t68.5 -30.5t60.5 -30.5t57.5 -13.5q32 0 43 21t16 54h158 q-9 -126 -66 -185t-164 -59q-47 0 -83.5 14.5t-67 31.5t-57.5 30.5t-56 13.5q-33 0 -44 -20t-14 -54h-159z" />
<glyph unicode="&#x1eab;" horiz-adv-x="990" d="M665 0v95q-133 -122 -286 -122q-151 0 -228.5 79.5t-77.5 204.5q0 97 39.5 160.5t117.5 99.5t224 51l192 18v41q0 77 -46 105t-135 28q-73 0 -125.5 -24t-77.5 -70l-175 113q46 77 144.5 118.5t237.5 41.5q213 0 307.5 -74.5t94.5 -244.5v-620h-206zM646 424l-114 -11 q-120 -10 -174 -46t-54 -107q0 -63 35 -86t93 -23q40 0 99 26t115 73v174zM598 1015l-127 107l-129 -107h-182l204 243h212l206 -243h-184zM115 1316q5 119 65 180t163 61q43 0 79.5 -13.5t68.5 -30.5t60.5 -30t57.5 -13q32 0 43 20.5t16 54.5h158q-9 -126 -66 -185 t-164 -59q-47 0 -83.5 14t-67 31t-57.5 31t-56 14q-33 0 -44 -20.5t-14 -54.5h-159z" />
<glyph unicode="&#x1eac;" horiz-adv-x="1163" d="M23 0l399 1204h319l400 -1204h-252l-80 244h-464l-78 -244h-244zM415 459h325l-162 498zM715 1343l-127 152l-129 -152h-182l204 314h212l206 -314h-184zM703 -216q0 -64 -31 -89t-96 -25q-71 0 -96.5 29.5t-25.5 84.5q0 61 27.5 87.5t94.5 26.5q68 0 97.5 -25.5 t29.5 -88.5z" />
<glyph unicode="&#x1ead;" horiz-adv-x="990" d="M665 0v95q-133 -122 -286 -122q-151 0 -228.5 79.5t-77.5 204.5q0 97 39.5 160.5t117.5 99.5t224 51l192 18v41q0 77 -46 105t-135 28q-73 0 -125.5 -24t-77.5 -70l-175 113q46 77 144.5 118.5t237.5 41.5q213 0 307.5 -74.5t94.5 -244.5v-620h-206zM646 424l-114 -11 q-120 -10 -174 -46t-54 -107q0 -63 35 -86t93 -23q40 0 99 26t115 73v174zM598 1051l-127 151l-129 -151h-182l204 314h212l206 -314h-184zM579 -216q0 -64 -31 -89t-96 -25q-71 0 -96.5 29.5t-25.5 84.5q0 61 27.5 87.5t94.5 26.5q68 0 97.5 -25.5t29.5 -88.5z" />
<glyph unicode="&#x1eae;" horiz-adv-x="1163" d="M23 0l399 1204h319l400 -1204h-252l-80 244h-464l-78 -244h-244zM415 459h325l-162 498zM892 1596q0 -75 -37.5 -137.5t-110 -98.5t-166.5 -36t-165.5 36t-109.5 99t-38 137h163q14 -53 51 -74.5t101 -21.5q126 0 148 96h164zM482 1583l91 216h274l-196 -216h-169z" />
<glyph unicode="&#x1eaf;" horiz-adv-x="990" d="M665 0v95q-133 -122 -286 -122q-151 0 -228.5 79.5t-77.5 204.5q0 97 39.5 160.5t117.5 99.5t224 51l192 18v41q0 77 -46 105t-135 28q-73 0 -125.5 -24t-77.5 -70l-175 113q46 77 144.5 118.5t237.5 41.5q213 0 307.5 -74.5t94.5 -244.5v-620h-206zM646 424l-114 -11 q-120 -10 -174 -46t-54 -107q0 -63 35 -86t93 -23q40 0 99 26t115 73v174zM785 1322q0 -76 -37.5 -138.5t-109.5 -98.5t-167 -36q-94 0 -165.5 36t-109.5 99.5t-38 137.5h163q14 -54 51 -75t101 -21q59 0 97.5 21t50.5 75h164zM375 1308l91 217h274l-196 -217h-169z" />
<glyph unicode="&#x1eb0;" horiz-adv-x="1163" d="M23 0l399 1204h319l400 -1204h-252l-80 244h-464l-78 -244h-244zM415 459h325l-162 498zM892 1596q0 -75 -37.5 -137.5t-110 -98.5t-166.5 -36t-165.5 36t-109.5 99t-38 137h163q14 -53 51 -74.5t101 -21.5q126 0 148 96h164zM505 1583l-196 216h274l92 -216h-170z" />
<glyph unicode="&#x1eb1;" horiz-adv-x="990" d="M665 0v95q-133 -122 -286 -122q-151 0 -228.5 79.5t-77.5 204.5q0 97 39.5 160.5t117.5 99.5t224 51l192 18v41q0 77 -46 105t-135 28q-73 0 -125.5 -24t-77.5 -70l-175 113q46 77 144.5 118.5t237.5 41.5q213 0 307.5 -74.5t94.5 -244.5v-620h-206zM646 424l-114 -11 q-120 -10 -174 -46t-54 -107q0 -63 35 -86t93 -23q40 0 99 26t115 73v174zM785 1322q0 -76 -37.5 -138.5t-109.5 -98.5t-167 -36q-94 0 -165.5 36t-109.5 99.5t-38 137.5h163q14 -54 51 -75t101 -21q59 0 97.5 21t50.5 75h164zM398 1308l-196 217h274l92 -217h-170z" />
<glyph unicode="&#x1eb2;" horiz-adv-x="1163" d="M23 0l399 1204h319l400 -1204h-252l-80 244h-464l-78 -244h-244zM415 459h325l-162 498zM892 1596q0 -75 -37.5 -137.5t-110 -98.5t-166.5 -36t-165.5 36t-109.5 99t-38 137h163q14 -53 51 -74.5t101 -21.5q126 0 148 96h164zM420 1872q59 47 171 47q91 0 140 -40 t49 -104q0 -62 -41.5 -103t-111.5 -45v-38h-109v120h38q63 0 63 51q0 45 -65 45q-46 0 -85 -21z" />
<glyph unicode="&#x1eb3;" horiz-adv-x="990" d="M665 0v95q-133 -122 -286 -122q-151 0 -228.5 79.5t-77.5 204.5q0 97 39.5 160.5t117.5 99.5t224 51l192 18v41q0 77 -46 105t-135 28q-73 0 -125.5 -24t-77.5 -70l-175 113q46 77 144.5 118.5t237.5 41.5q213 0 307.5 -74.5t94.5 -244.5v-620h-206zM646 424l-114 -11 q-120 -10 -174 -46t-54 -107q0 -63 35 -86t93 -23q40 0 99 26t115 73v174zM785 1322q0 -76 -37.5 -138.5t-109.5 -98.5t-167 -36q-94 0 -165.5 36t-109.5 99.5t-38 137.5h163q14 -54 51 -75t101 -21q59 0 97.5 21t50.5 75h164zM313 1598q58 46 171 46q91 0 140 -40t49 -104 q0 -63 -42.5 -103.5t-110.5 -44.5v-37h-109v120h38q63 0 63 51q0 44 -65 44q-48 0 -85 -21z" />
<glyph unicode="&#x1eb4;" horiz-adv-x="1163" d="M23 0l399 1204h319l400 -1204h-252l-80 244h-464l-78 -244h-244zM415 459h325l-162 498zM892 1588q0 -116 -85 -190t-229 -74t-228.5 74.5t-84.5 189.5h163q14 -54 51 -75.5t101 -21.5q59 0 97.5 21.5t50.5 75.5h164zM222 1656q5 117 65 178.5t163 61.5q43 0 79.5 -13.5 t68.5 -30.5t60.5 -30t57.5 -13q32 0 43 20.5t16 54.5h158q-9 -127 -66 -186t-164 -59q-47 0 -83.5 14.5t-67 31.5t-57.5 31t-56 14q-33 0 -44 -20t-14 -54h-159z" />
<glyph unicode="&#x1eb5;" horiz-adv-x="990" d="M665 0v95q-133 -122 -286 -122q-151 0 -228.5 79.5t-77.5 204.5q0 97 39.5 160.5t117.5 99.5t224 51l192 18v41q0 77 -46 105t-135 28q-73 0 -125.5 -24t-77.5 -70l-175 113q46 77 144.5 118.5t237.5 41.5q213 0 307.5 -74.5t94.5 -244.5v-620h-206zM646 424l-114 -11 q-120 -10 -174 -46t-54 -107q0 -63 35 -86t93 -23q40 0 99 26t115 73v174zM785 1313q0 -116 -85 -190t-229 -74q-96 0 -166 33.5t-108.5 95t-38.5 135.5h163q14 -53 51 -74.5t101 -21.5q59 0 97.5 21.5t50.5 74.5h164zM115 1381q5 118 65 179.5t163 61.5q43 0 79.5 -13.5 t68.5 -30.5t60.5 -30.5t57.5 -13.5q32 0 43 20.5t16 54.5h158q-9 -126 -66 -185t-164 -59q-47 0 -83.5 14.5t-67 31t-57.5 31t-56 14.5q-33 0 -44 -20.5t-14 -54.5h-159z" />
<glyph unicode="&#x1eb6;" horiz-adv-x="1163" d="M23 0l399 1204h319l400 -1204h-252l-80 244h-464l-78 -244h-244zM415 459h325l-162 498zM892 1605q0 -76 -38.5 -140t-110.5 -102.5t-165 -38.5q-92 0 -164 38t-110.5 102.5t-38.5 140.5h163q14 -41 51 -65.5t101 -24.5q59 0 97.5 24.5t50.5 65.5h164zM703 -216 q0 -64 -31 -89t-96 -25q-71 0 -96.5 29.5t-25.5 84.5q0 61 27.5 87.5t94.5 26.5q68 0 97.5 -25.5t29.5 -88.5z" />
<glyph unicode="&#x1eb7;" horiz-adv-x="990" d="M665 0v95q-133 -122 -286 -122q-151 0 -228.5 79.5t-77.5 204.5q0 97 39.5 160.5t117.5 99.5t224 51l192 18v41q0 77 -46 105t-135 28q-73 0 -125.5 -24t-77.5 -70l-175 113q46 77 144.5 118.5t237.5 41.5q213 0 307.5 -74.5t94.5 -244.5v-620h-206zM646 424l-114 -11 q-120 -10 -174 -46t-54 -107q0 -63 35 -86t93 -23q40 0 99 26t115 73v174zM785 1313q0 -77 -38.5 -141t-110.5 -102t-165 -38q-92 0 -164 38t-110.5 102t-38.5 141h163q14 -41 51 -66t101 -25q59 0 97.5 25t50.5 66h164zM579 -216q0 -64 -31 -89t-96 -25q-71 0 -96.5 29.5 t-25.5 84.5q0 61 27.5 87.5t94.5 26.5q68 0 97.5 -25.5t29.5 -88.5z" />
<glyph unicode="&#x1eb8;" horiz-adv-x="999" d="M130 0v1204h783v-217h-537v-256h452v-218h-452v-289h537v-224h-783zM642 -216q0 -64 -31 -89t-96 -25q-71 0 -96.5 29.5t-25.5 84.5q0 61 27.5 87.5t94.5 26.5q68 0 97.5 -25.5t29.5 -88.5z" />
<glyph unicode="&#x1eb9;" horiz-adv-x="994" d="M311 398q7 -122 60 -175t167 -53q66 0 116 16.5t87 63.5l167 -120q-55 -79 -142 -118t-239 -39q-225 0 -336 118.5t-111 357.5q0 490 439 490q194 0 296.5 -110t102.5 -321v-110h-607zM695 552q0 208 -182 208q-60 0 -98 -20.5t-61 -60.5t-36 -127h377zM630 -216 q0 -64 -31 -89t-96 -25q-71 0 -96.5 29.5t-25.5 84.5q0 61 27.5 87.5t94.5 26.5q68 0 97.5 -25.5t29.5 -88.5z" />
<glyph unicode="&#x1eba;" horiz-adv-x="999" d="M130 0v1204h783v-217h-537v-256h452v-218h-452v-289h537v-224h-783zM340 1586q61 46 171 46q91 0 140 -40t49 -104q0 -60 -41 -101.5t-110 -46.5v-38h-111v120h38q64 0 64 52q0 44 -66 44q-50 0 -83 -22z" />
<glyph unicode="&#x1ebb;" horiz-adv-x="994" d="M311 398q7 -122 60 -175t167 -53q66 0 116 16.5t87 63.5l167 -120q-55 -79 -142 -118t-239 -39q-225 0 -336 118.5t-111 357.5q0 490 439 490q194 0 296.5 -110t102.5 -321v-110h-607zM695 552q0 208 -182 208q-60 0 -98 -20.5t-61 -60.5t-36 -127h377zM335 1294 q61 46 171 46q91 0 140 -40t49 -105q0 -60 -41 -101t-110 -47v-37h-111v119h38q64 0 64 52q0 45 -66 45q-50 0 -83 -22z" />
<glyph unicode="&#x1ebc;" horiz-adv-x="999" d="M130 0v1204h783v-217h-537v-256h452v-218h-452v-289h537v-224h-783zM164 1363q5 135 64 205.5t164 70.5q53 0 90.5 -19.5t67 -41.5t54.5 -42t54 -20t44 29t15 82h158q-9 -144 -66 -212t-164 -68q-57 0 -94.5 19.5t-65.5 44t-51.5 44t-52.5 19.5q-58 0 -58 -111h-159z" />
<glyph unicode="&#x1ebd;" horiz-adv-x="994" d="M311 398q7 -122 60 -175t167 -53q66 0 116 16.5t87 63.5l167 -120q-55 -79 -142 -118t-239 -39q-225 0 -336 118.5t-111 357.5q0 490 439 490q194 0 296.5 -110t102.5 -321v-110h-607zM695 552q0 208 -182 208q-60 0 -98 -20.5t-61 -60.5t-36 -127h377zM155 1071 q5 135 64 205.5t164 70.5q53 0 90.5 -19.5t67 -42t54.5 -42t54 -19.5q30 0 44.5 30.5t14.5 80.5h158q-9 -144 -66 -212.5t-164 -68.5q-57 0 -94.5 20t-65.5 44t-51.5 43.5t-52.5 19.5q-58 0 -58 -110h-159z" />
<glyph unicode="&#x1ebe;" horiz-adv-x="999" d="M130 0v1204h783v-217h-537v-256h452v-218h-452v-289h537v-224h-783zM644 1308l-127 115l-129 -115h-182l204 260h212l206 -260h-184zM717 1493l133 253h275l-230 -253h-178z" />
<glyph unicode="&#x1ebf;" horiz-adv-x="994" d="M311 398q7 -122 60 -175t167 -53q66 0 116 16.5t87 63.5l167 -120q-55 -79 -142 -118t-239 -39q-225 0 -336 118.5t-111 357.5q0 490 439 490q194 0 296.5 -110t102.5 -321v-110h-607zM695 552q0 208 -182 208q-60 0 -98 -20.5t-61 -60.5t-36 -127h377zM634 1015 l-127 126l-129 -126h-182l204 260h212l206 -260h-184zM707 1201l133 253h275l-230 -253h-178z" />
<glyph unicode="&#x1ec0;" horiz-adv-x="999" d="M130 0v1204h783v-217h-537v-256h452v-218h-452v-289h537v-224h-783zM644 1308l-127 115l-129 -115h-182l204 260h212l206 -260h-184zM140 1493l-230 253h274l134 -253h-178z" />
<glyph unicode="&#x1ec1;" horiz-adv-x="994" d="M311 398q7 -122 60 -175t167 -53q66 0 116 16.5t87 63.5l167 -120q-55 -79 -142 -118t-239 -39q-225 0 -336 118.5t-111 357.5q0 490 439 490q194 0 296.5 -110t102.5 -321v-110h-607zM695 552q0 208 -182 208q-60 0 -98 -20.5t-61 -60.5t-36 -127h377zM644 1015 l-127 116l-129 -116h-182l204 260h212l206 -260h-184zM140 1201l-230 253h274l134 -253h-178z" />
<glyph unicode="&#x1ec2;" horiz-adv-x="999" d="M130 0v1204h783v-217h-537v-256h452v-218h-452v-289h537v-224h-783zM644 1308l-127 115l-129 -115h-182l204 260h212l206 -260h-184zM636 1741q61 46 172 46q91 0 140 -40t49 -104q0 -60 -41 -101.5t-111 -46.5v-38h-110v119h37q64 0 64 53q0 44 -66 44q-50 0 -83 -22z " />
<glyph unicode="&#x1ec3;" horiz-adv-x="994" d="M311 398q7 -122 60 -175t167 -53q66 0 116 16.5t87 63.5l167 -120q-55 -79 -142 -118t-239 -39q-225 0 -336 118.5t-111 357.5q0 490 439 490q194 0 296.5 -110t102.5 -321v-110h-607zM695 552q0 208 -182 208q-60 0 -98 -20.5t-61 -60.5t-36 -127h377zM634 1015 l-127 116l-129 -116h-182l204 260h212l206 -260h-184zM626 1449q59 46 172 46q91 0 140 -40t49 -105q0 -60 -41 -101t-111 -47v-37h-110v120h37q64 0 64 51q0 45 -66 45q-48 0 -83 -21z" />
<glyph unicode="&#x1ec4;" horiz-adv-x="999" d="M130 0v1204h783v-217h-537v-256h452v-218h-452v-289h537v-224h-783zM652 1308l-127 107l-129 -107h-182l204 242h212l206 -242h-184zM169 1609q5 118 65 179.5t163 61.5q43 0 79.5 -13.5t68.5 -30.5t60.5 -30.5t57.5 -13.5q32 0 43 21t16 54h158q-9 -126 -66 -185 t-164 -59q-47 0 -83.5 14.5t-67 31.5t-57.5 30.5t-56 13.5q-33 0 -44 -20t-14 -54h-159z" />
<glyph unicode="&#x1ec5;" horiz-adv-x="994" d="M311 398q7 -122 60 -175t167 -53q66 0 116 16.5t87 63.5l167 -120q-55 -79 -142 -118t-239 -39q-225 0 -336 118.5t-111 357.5q0 490 439 490q194 0 296.5 -110t102.5 -321v-110h-607zM695 552q0 208 -182 208q-60 0 -98 -20.5t-61 -60.5t-36 -127h377zM634 1015 l-127 107l-129 -107h-182l204 243h212l206 -243h-184zM151 1316q5 119 65 180t163 61q43 0 79.5 -13.5t68.5 -30.5t60.5 -30t57.5 -13q32 0 43 20.5t16 54.5h158q-9 -126 -66 -185t-164 -59q-47 0 -83.5 14t-67 31t-57.5 31t-56 14q-33 0 -44 -20.5t-14 -54.5h-159z" />
<glyph unicode="&#x1ec6;" horiz-adv-x="999" d="M130 0v1204h783v-217h-537v-256h452v-218h-452v-289h537v-224h-783zM652 1343l-127 151l-129 -151h-182l204 314h212l206 -314h-184zM642 -216q0 -64 -31 -89t-96 -25q-71 0 -96.5 29.5t-25.5 84.5q0 61 27.5 87.5t94.5 26.5q68 0 97.5 -25.5t29.5 -88.5z" />
<glyph unicode="&#x1ec7;" horiz-adv-x="994" d="M311 398q7 -122 60 -175t167 -53q66 0 116 16.5t87 63.5l167 -120q-55 -79 -142 -118t-239 -39q-225 0 -336 118.5t-111 357.5q0 490 439 490q194 0 296.5 -110t102.5 -321v-110h-607zM695 552q0 208 -182 208q-60 0 -98 -20.5t-61 -60.5t-36 -127h377zM634 1051 l-127 151l-129 -151h-182l204 314h212l206 -314h-184zM632 -216q0 -64 -31 -89t-96 -25q-71 0 -96.5 29.5t-25.5 84.5q0 61 27.5 87.5t94.5 26.5q68 0 97.5 -25.5t29.5 -88.5z" />
<glyph unicode="&#x1ec8;" horiz-adv-x="758" d="M670 0h-581v189h168v826h-168v189h581v-189h-167v-826h167v-189zM196 1586q61 46 171 46q91 0 140 -40t49 -104q0 -60 -41 -101.5t-110 -46.5v-38h-111v120h38q64 0 64 52q0 44 -66 44q-50 0 -83 -22z" />
<glyph unicode="&#x1ec9;" horiz-adv-x="477" d="M126 0v913h225v-913h-225zM60 1294q61 46 171 46q91 0 140 -40t49 -105q0 -60 -41 -101t-110 -47v-37h-111v119h38q64 0 64 52q0 45 -66 45q-50 0 -83 -22z" />
<glyph unicode="&#x1eca;" horiz-adv-x="758" d="M670 0h-581v189h168v826h-168v189h581v-189h-167v-826h167v-189zM506 -216q0 -64 -31 -89t-96 -25q-71 0 -96.5 29.5t-25.5 84.5q0 61 27.5 87.5t94.5 26.5q68 0 97.5 -25.5t29.5 -88.5z" />
<glyph unicode="&#x1ecb;" horiz-adv-x="477" d="M364 1161q0 -63 -31.5 -88.5t-95.5 -25.5q-72 0 -97.5 30t-25.5 84q0 61 28 87.5t95 26.5t97 -25.5t30 -88.5zM126 0v913h225v-913h-225zM365 -216q0 -64 -31 -89t-96 -25q-71 0 -96.5 29.5t-25.5 84.5q0 61 27.5 87.5t94.5 26.5q68 0 97.5 -25.5t29.5 -88.5z" />
<glyph unicode="&#x1ecc;" horiz-adv-x="1186" d="M1112 602q0 -314 -132.5 -470.5t-386.5 -156.5q-267 0 -392.5 164.5t-125.5 462.5q0 299 125.5 463t392.5 164q269 0 394 -164t125 -463zM859 602q0 214 -60.5 312t-205.5 98q-144 0 -204.5 -98t-60.5 -312t61.5 -312t203.5 -98q145 0 205.5 98t60.5 312zM718 -216 q0 -64 -31 -89t-96 -25q-71 0 -96.5 29.5t-25.5 84.5q0 61 27.5 87.5t94.5 26.5q68 0 97.5 -25.5t29.5 -88.5z" />
<glyph unicode="&#x1ecd;" horiz-adv-x="1035" d="M955 454q0 -228 -105 -354.5t-331 -126.5q-439 0 -439 481q0 232 105.5 358.5t333.5 126.5q226 0 331 -126.5t105 -358.5zM723 454q0 151 -47 220t-157 69t-159 -71t-49 -218q0 -146 48.5 -215t159.5 -69q108 0 156 68t48 216zM642 -216q0 -64 -31 -89t-96 -25 q-71 0 -96.5 29.5t-25.5 84.5q0 61 27.5 87.5t94.5 26.5q68 0 97.5 -25.5t29.5 -88.5z" />
<glyph unicode="&#x1ece;" horiz-adv-x="1186" d="M1112 602q0 -314 -132.5 -470.5t-386.5 -156.5q-267 0 -392.5 164.5t-125.5 462.5q0 299 125.5 463t392.5 164q269 0 394 -164t125 -463zM859 602q0 214 -60.5 312t-205.5 98q-144 0 -204.5 -98t-60.5 -312t61.5 -312t203.5 -98q145 0 205.5 98t60.5 312zM395 1586 q61 46 171 46q91 0 140 -40t49 -104q0 -60 -41 -101.5t-110 -46.5v-38h-111v120h38q64 0 64 52q0 44 -66 44q-50 0 -83 -22z" />
<glyph unicode="&#x1ecf;" horiz-adv-x="1035" d="M955 454q0 -228 -105 -354.5t-331 -126.5q-439 0 -439 481q0 232 105.5 358.5t333.5 126.5q226 0 331 -126.5t105 -358.5zM723 454q0 151 -47 220t-157 69t-159 -71t-49 -218q0 -146 48.5 -215t159.5 -69q108 0 156 68t48 216zM337 1294q61 46 171 46q91 0 140 -40 t49 -105q0 -60 -41 -101t-110 -47v-37h-111v119h38q64 0 64 52q0 45 -66 45q-50 0 -83 -22z" />
<glyph unicode="&#x1ed0;" horiz-adv-x="1186" d="M1112 602q0 -314 -132.5 -470.5t-386.5 -156.5q-267 0 -392.5 164.5t-125.5 462.5q0 299 125.5 463t392.5 164q269 0 394 -164t125 -463zM859 602q0 214 -60.5 312t-205.5 98q-144 0 -204.5 -98t-60.5 -312t61.5 -312t203.5 -98q145 0 205.5 98t60.5 312zM715 1308 l-127 115l-129 -115h-182l204 260h212l206 -260h-184zM788 1493l133 253h275l-230 -253h-178z" />
<glyph unicode="&#x1ed1;" horiz-adv-x="1035" d="M955 454q0 -228 -105 -354.5t-331 -126.5q-439 0 -439 481q0 232 105.5 358.5t333.5 126.5q226 0 331 -126.5t105 -358.5zM723 454q0 151 -47 220t-157 69t-159 -71t-49 -218q0 -146 48.5 -215t159.5 -69q108 0 156 68t48 216zM644 1015l-127 126l-129 -126h-182l204 260 h212l206 -260h-184zM717 1201l133 253h275l-230 -253h-178z" />
<glyph unicode="&#x1ed2;" horiz-adv-x="1186" d="M1112 602q0 -314 -132.5 -470.5t-386.5 -156.5q-267 0 -392.5 164.5t-125.5 462.5q0 299 125.5 463t392.5 164q269 0 394 -164t125 -463zM859 602q0 214 -60.5 312t-205.5 98q-144 0 -204.5 -98t-60.5 -312t61.5 -312t203.5 -98q145 0 205.5 98t60.5 312zM724 1308 l-127 115l-129 -115h-182l204 260h212l206 -260h-184zM220 1493l-230 253h274l134 -253h-178z" />
<glyph unicode="&#x1ed3;" horiz-adv-x="1035" d="M955 454q0 -228 -105 -354.5t-331 -126.5q-439 0 -439 481q0 232 105.5 358.5t333.5 126.5q226 0 331 -126.5t105 -358.5zM723 454q0 151 -47 220t-157 69t-159 -71t-49 -218q0 -146 48.5 -215t159.5 -69q108 0 156 68t48 216zM644 1015l-127 116l-129 -116h-182l204 260 h212l206 -260h-184zM140 1201l-230 253h274l134 -253h-178z" />
<glyph unicode="&#x1ed4;" horiz-adv-x="1186" d="M1112 602q0 -314 -132.5 -470.5t-386.5 -156.5q-267 0 -392.5 164.5t-125.5 462.5q0 299 125.5 463t392.5 164q269 0 394 -164t125 -463zM859 602q0 214 -60.5 312t-205.5 98q-144 0 -204.5 -98t-60.5 -312t61.5 -312t203.5 -98q145 0 205.5 98t60.5 312zM724 1308 l-127 115l-129 -115h-182l204 260h212l206 -260h-184zM716 1741q61 46 172 46q91 0 140 -40t49 -104q0 -60 -41 -101.5t-111 -46.5v-38h-110v119h37q64 0 64 53q0 44 -66 44q-50 0 -83 -22z" />
<glyph unicode="&#x1ed5;" horiz-adv-x="1035" d="M955 454q0 -228 -105 -354.5t-331 -126.5q-439 0 -439 481q0 232 105.5 358.5t333.5 126.5q226 0 331 -126.5t105 -358.5zM723 454q0 151 -47 220t-157 69t-159 -71t-49 -218q0 -146 48.5 -215t159.5 -69q108 0 156 68t48 216zM644 1015l-127 116l-129 -116h-182l204 260 h212l206 -260h-184zM636 1449q59 46 172 46q91 0 140 -40t49 -105q0 -60 -41 -101t-111 -47v-37h-110v120h37q64 0 64 51q0 45 -66 45q-48 0 -83 -21z" />
<glyph unicode="&#x1ed6;" horiz-adv-x="1186" d="M1112 602q0 -314 -132.5 -470.5t-386.5 -156.5q-267 0 -392.5 164.5t-125.5 462.5q0 299 125.5 463t392.5 164q269 0 394 -164t125 -463zM859 602q0 214 -60.5 312t-205.5 98q-144 0 -204.5 -98t-60.5 -312t61.5 -312t203.5 -98q145 0 205.5 98t60.5 312zM724 1308 l-127 107l-129 -107h-182l204 242h212l206 -242h-184zM241 1609q5 118 65 179.5t163 61.5q43 0 79.5 -13.5t68.5 -30.5t60.5 -30.5t57.5 -13.5q32 0 43 21t16 54h158q-9 -126 -66 -185t-164 -59q-47 0 -83.5 14.5t-67 31.5t-57.5 30.5t-56 13.5q-33 0 -44 -20t-14 -54h-159z " />
<glyph unicode="&#x1ed7;" horiz-adv-x="1035" d="M955 454q0 -228 -105 -354.5t-331 -126.5q-439 0 -439 481q0 232 105.5 358.5t333.5 126.5q226 0 331 -126.5t105 -358.5zM723 454q0 151 -47 220t-157 69t-159 -71t-49 -218q0 -146 48.5 -215t159.5 -69q108 0 156 68t48 216zM652 1015l-127 107l-129 -107h-182l204 243 h212l206 -243h-184zM169 1316q5 119 65 180t163 61q43 0 79.5 -13.5t68.5 -30.5t60.5 -30t57.5 -13q32 0 43 20.5t16 54.5h158q-9 -126 -66 -185t-164 -59q-47 0 -83.5 14t-67 31t-57.5 31t-56 14q-33 0 -44 -20.5t-14 -54.5h-159z" />
<glyph unicode="&#x1ed8;" horiz-adv-x="1186" d="M1112 602q0 -314 -132.5 -470.5t-386.5 -156.5q-267 0 -392.5 164.5t-125.5 462.5q0 299 125.5 463t392.5 164q269 0 394 -164t125 -463zM859 602q0 214 -60.5 312t-205.5 98q-144 0 -204.5 -98t-60.5 -312t61.5 -312t203.5 -98q145 0 205.5 98t60.5 312zM715 1343 l-127 151l-129 -151h-182l204 314h212l206 -314h-184zM703 -216q0 -64 -31 -89t-96 -25q-71 0 -96.5 29.5t-25.5 84.5q0 61 27.5 87.5t94.5 26.5q68 0 97.5 -25.5t29.5 -88.5z" />
<glyph unicode="&#x1ed9;" horiz-adv-x="1035" d="M955 454q0 -228 -105 -354.5t-331 -126.5q-439 0 -439 481q0 232 105.5 358.5t333.5 126.5q226 0 331 -126.5t105 -358.5zM723 454q0 151 -47 220t-157 69t-159 -71t-49 -218q0 -146 48.5 -215t159.5 -69q108 0 156 68t48 216zM652 1051l-127 151l-129 -151h-182l204 314 h212l206 -314h-184zM642 -216q0 -64 -31 -89t-96 -25q-71 0 -96.5 29.5t-25.5 84.5q0 61 27.5 87.5t94.5 26.5q68 0 97.5 -25.5t29.5 -88.5z" />
<glyph unicode="&#x1eda;" horiz-adv-x="1339" d="M1375 1258v-141q0 -148 -64.5 -222t-203.5 -74h-15q20 -103 20 -219q0 -314 -132.5 -470.5t-386.5 -156.5q-267 0 -392.5 164.5t-125.5 462.5q0 299 125.5 463t392.5 164q336 0 451 -258h20q75 0 101.5 35t26.5 111v141h183zM859 602q0 214 -60.5 312t-205.5 98 q-144 0 -204.5 -98t-60.5 -312t61.5 -312t203.5 -98q145 0 205.5 98t60.5 312zM624 1343h-178l164 314h274z" />
<glyph unicode="&#x1edb;" horiz-adv-x="1176" d="M955 454q0 -228 -105 -354.5t-331 -126.5q-439 0 -439 481q0 232 105.5 358.5t333.5 126.5q285 0 382 -206q73 0 100 34.5t27 111.5v104h184v-104q0 -277 -266 -296q9 -67 9 -129zM723 454q0 151 -47 220t-157 69t-159 -71t-49 -218q0 -146 48.5 -215t159.5 -69 q108 0 156 68t48 216zM552 1051h-178l164 314h274z" />
<glyph unicode="&#x1edc;" horiz-adv-x="1339" d="M1375 1258v-141q0 -148 -64.5 -222t-203.5 -74h-15q20 -103 20 -219q0 -314 -132.5 -470.5t-386.5 -156.5q-267 0 -392.5 164.5t-125.5 462.5q0 299 125.5 463t392.5 164q336 0 451 -258h20q75 0 101.5 35t26.5 111v141h183zM859 602q0 214 -60.5 312t-205.5 98 q-144 0 -204.5 -98t-60.5 -312t61.5 -312t203.5 -98q145 0 205.5 98t60.5 312zM573 1343l-260 314h274l163 -314h-177z" />
<glyph unicode="&#x1edd;" horiz-adv-x="1176" d="M955 454q0 -228 -105 -354.5t-331 -126.5q-439 0 -439 481q0 232 105.5 358.5t333.5 126.5q285 0 382 -206q73 0 100 34.5t27 111.5v104h184v-104q0 -277 -266 -296q9 -67 9 -129zM723 454q0 151 -47 220t-157 69t-159 -71t-49 -218q0 -146 48.5 -215t159.5 -69 q108 0 156 68t48 216zM501 1051l-260 314h274l163 -314h-177z" />
<glyph unicode="&#x1ede;" horiz-adv-x="1339" d="M1375 1258v-141q0 -148 -64.5 -222t-203.5 -74h-15q20 -103 20 -219q0 -314 -132.5 -470.5t-386.5 -156.5q-267 0 -392.5 164.5t-125.5 462.5q0 299 125.5 463t392.5 164q336 0 451 -258h20q75 0 101.5 35t26.5 111v141h183zM859 602q0 214 -60.5 312t-205.5 98 q-144 0 -204.5 -98t-60.5 -312t61.5 -312t203.5 -98q145 0 205.5 98t60.5 312zM417 1586q61 46 171 46q91 0 140 -40t49 -104q0 -60 -41 -101.5t-110 -46.5v-38h-111v120h38q64 0 64 52q0 44 -66 44q-50 0 -83 -22z" />
<glyph unicode="&#x1edf;" horiz-adv-x="1176" d="M955 454q0 -228 -105 -354.5t-331 -126.5q-439 0 -439 481q0 232 105.5 358.5t333.5 126.5q285 0 382 -206q73 0 100 34.5t27 111.5v104h184v-104q0 -277 -266 -296q9 -67 9 -129zM723 454q0 151 -47 220t-157 69t-159 -71t-49 -218q0 -146 48.5 -215t159.5 -69 q108 0 156 68t48 216zM345 1294q61 46 171 46q91 0 140 -40t49 -105q0 -60 -41 -101t-110 -47v-37h-111v119h38q64 0 64 52q0 45 -66 45q-50 0 -83 -22z" />
<glyph unicode="&#x1ee0;" horiz-adv-x="1339" d="M1375 1258v-141q0 -148 -64.5 -222t-203.5 -74h-15q20 -103 20 -219q0 -314 -132.5 -470.5t-386.5 -156.5q-267 0 -392.5 164.5t-125.5 462.5q0 299 125.5 463t392.5 164q336 0 451 -258h20q75 0 101.5 35t26.5 111v141h183zM859 602q0 214 -60.5 312t-205.5 98 q-144 0 -204.5 -98t-60.5 -312t61.5 -312t203.5 -98q145 0 205.5 98t60.5 312zM241 1363q5 135 64 205.5t164 70.5q53 0 90.5 -19.5t67 -41.5t54.5 -42t54 -20t44 29t15 82h158q-9 -144 -66 -212t-164 -68q-57 0 -94.5 19.5t-65.5 44t-51.5 44t-52.5 19.5q-58 0 -58 -111 h-159z" />
<glyph unicode="&#x1ee1;" horiz-adv-x="1176" d="M955 454q0 -228 -105 -354.5t-331 -126.5q-439 0 -439 481q0 232 105.5 358.5t333.5 126.5q285 0 382 -206q73 0 100 34.5t27 111.5v104h184v-104q0 -277 -266 -296q9 -67 9 -129zM723 454q0 151 -47 220t-157 69t-159 -71t-49 -218q0 -146 48.5 -215t159.5 -69 q108 0 156 68t48 216zM161 1071q5 135 64 205.5t164 70.5q53 0 90.5 -19.5t67 -42t54.5 -42t54 -19.5q30 0 44.5 30.5t14.5 80.5h158q-9 -144 -66 -212.5t-164 -68.5q-57 0 -94.5 20t-65.5 44t-51.5 43.5t-52.5 19.5q-58 0 -58 -110h-159z" />
<glyph unicode="&#x1ee2;" horiz-adv-x="1339" d="M1375 1258v-141q0 -148 -64.5 -222t-203.5 -74h-15q20 -103 20 -219q0 -314 -132.5 -470.5t-386.5 -156.5q-267 0 -392.5 164.5t-125.5 462.5q0 299 125.5 463t392.5 164q336 0 451 -258h20q75 0 101.5 35t26.5 111v141h183zM859 602q0 214 -60.5 312t-205.5 98 q-144 0 -204.5 -98t-60.5 -312t61.5 -312t203.5 -98q145 0 205.5 98t60.5 312zM713 -216q0 -64 -31 -89t-96 -25q-71 0 -96.5 29.5t-25.5 84.5q0 61 27.5 87.5t94.5 26.5q68 0 97.5 -25.5t29.5 -88.5z" />
<glyph unicode="&#x1ee3;" horiz-adv-x="1176" d="M955 454q0 -228 -105 -354.5t-331 -126.5q-439 0 -439 481q0 232 105.5 358.5t333.5 126.5q285 0 382 -206q73 0 100 34.5t27 111.5v104h184v-104q0 -277 -266 -296q9 -67 9 -129zM723 454q0 151 -47 220t-157 69t-159 -71t-49 -218q0 -146 48.5 -215t159.5 -69 q108 0 156 68t48 216zM642 -216q0 -64 -31 -89t-96 -25q-71 0 -96.5 29.5t-25.5 84.5q0 61 27.5 87.5t94.5 26.5q68 0 97.5 -25.5t29.5 -88.5z" />
<glyph unicode="&#x1ee4;" horiz-adv-x="1251" d="M1121 503q0 -283 -115 -406.5t-380 -123.5q-263 0 -379.5 122.5t-116.5 407.5v701h246v-684q0 -122 23.5 -192.5t74.5 -103.5t150 -33q140 0 195.5 74t55.5 252v687h246v-701zM750 -216q0 -64 -31 -89t-96 -25q-71 0 -96.5 29.5t-25.5 84.5q0 61 27.5 87.5t94.5 26.5 q68 0 97.5 -25.5t29.5 -88.5z" />
<glyph unicode="&#x1ee5;" horiz-adv-x="1058" d="M707 0v117q-59 -63 -144.5 -103.5t-164.5 -40.5q-155 0 -217 85.5t-62 244.5v610h225v-503q0 -97 11 -148t37 -71t75 -20q100 0 240 132v610h225v-913h-225zM615 -216q0 -64 -31 -89t-96 -25q-71 0 -96.5 29.5t-25.5 84.5q0 61 27.5 87.5t94.5 26.5q68 0 97.5 -25.5 t29.5 -88.5z" />
<glyph unicode="&#x1ee6;" horiz-adv-x="1251" d="M1121 503q0 -283 -115 -406.5t-380 -123.5q-263 0 -379.5 122.5t-116.5 407.5v701h246v-684q0 -122 23.5 -192.5t74.5 -103.5t150 -33q140 0 195.5 74t55.5 252v687h246v-701zM444 1586q61 46 171 46q91 0 140 -40t49 -104q0 -60 -41 -101.5t-110 -46.5v-38h-111v120h38 q64 0 64 52q0 44 -66 44q-50 0 -83 -22z" />
<glyph unicode="&#x1ee7;" horiz-adv-x="1058" d="M707 0v117q-59 -63 -144.5 -103.5t-164.5 -40.5q-155 0 -217 85.5t-62 244.5v610h225v-503q0 -97 11 -148t37 -71t75 -20q100 0 240 132v610h225v-913h-225zM349 1294q61 46 171 46q91 0 140 -40t49 -105q0 -60 -41 -101t-110 -47v-37h-111v119h38q64 0 64 52 q0 45 -66 45q-50 0 -83 -22z" />
<glyph unicode="&#x1ee8;" horiz-adv-x="1411" d="M1121 971h14q75 0 101.5 35t26.5 111v141h184v-141q0 -296 -301 -296h-25v-318q0 -283 -115 -406.5t-380 -123.5q-263 0 -379.5 122.5t-116.5 407.5v701h246v-684q0 -122 23.5 -192.5t74.5 -103.5t150 -33q140 0 195.5 74t55.5 252v687h246v-233zM659 1343h-178l164 314 h274z" />
<glyph unicode="&#x1ee9;" horiz-adv-x="1213" d="M707 0v117q-59 -63 -144.5 -103.5t-164.5 -40.5q-155 0 -217 85.5t-62 244.5v610h225v-503q0 -97 11 -148t37 -71t75 -20q100 0 240 132v610h225v-180h10q73 0 98.5 34.5t25.5 111.5v104h183v-104q0 -296 -295 -296h-22v-583h-225zM561 1051h-178l164 314h274z" />
<glyph unicode="&#x1eea;" horiz-adv-x="1411" d="M1121 971h14q75 0 101.5 35t26.5 111v141h184v-141q0 -296 -301 -296h-25v-318q0 -283 -115 -406.5t-380 -123.5q-263 0 -379.5 122.5t-116.5 407.5v701h246v-684q0 -122 23.5 -192.5t74.5 -103.5t150 -33q140 0 195.5 74t55.5 252v687h246v-233zM590 1343l-260 314h274 l163 -314h-177z" />
<glyph unicode="&#x1eeb;" horiz-adv-x="1213" d="M707 0v117q-59 -63 -144.5 -103.5t-164.5 -40.5q-155 0 -217 85.5t-62 244.5v610h225v-503q0 -97 11 -148t37 -71t75 -20q100 0 240 132v610h225v-180h10q73 0 98.5 34.5t25.5 111.5v104h183v-104q0 -296 -295 -296h-22v-583h-225zM483 1051l-260 314h274l163 -314h-177z " />
<glyph unicode="&#x1eec;" horiz-adv-x="1411" d="M1121 971h14q75 0 101.5 35t26.5 111v141h184v-141q0 -296 -301 -296h-25v-318q0 -283 -115 -406.5t-380 -123.5q-263 0 -379.5 122.5t-116.5 407.5v701h246v-684q0 -122 23.5 -192.5t74.5 -103.5t150 -33q140 0 195.5 74t55.5 252v687h246v-233zM447 1586q61 46 171 46 q91 0 140 -40t49 -104q0 -60 -41 -101.5t-110 -46.5v-38h-111v120h38q64 0 64 52q0 44 -66 44q-50 0 -83 -22z" />
<glyph unicode="&#x1eed;" horiz-adv-x="1213" d="M707 0v117q-59 -63 -144.5 -103.5t-164.5 -40.5q-155 0 -217 85.5t-62 244.5v610h225v-503q0 -97 11 -148t37 -71t75 -20q100 0 240 132v610h225v-180h10q73 0 98.5 34.5t25.5 111.5v104h183v-104q0 -296 -295 -296h-22v-583h-225zM345 1294q61 46 171 46q91 0 140 -40 t49 -105q0 -60 -41 -101t-110 -47v-37h-111v119h38q64 0 64 52q0 45 -66 45q-50 0 -83 -22z" />
<glyph unicode="&#x1eee;" horiz-adv-x="1411" d="M1121 971h14q75 0 101.5 35t26.5 111v141h184v-141q0 -296 -301 -296h-25v-318q0 -283 -115 -406.5t-380 -123.5q-263 0 -379.5 122.5t-116.5 407.5v701h246v-684q0 -122 23.5 -192.5t74.5 -103.5t150 -33q140 0 195.5 74t55.5 252v687h246v-233zM271 1363 q5 135 64 205.5t164 70.5q53 0 90.5 -19.5t67 -41.5t54.5 -42t54 -20t44 29t15 82h158q-9 -144 -66 -212t-164 -68q-57 0 -94.5 19.5t-65.5 44t-51.5 44t-52.5 19.5q-58 0 -58 -111h-159z" />
<glyph unicode="&#x1eef;" horiz-adv-x="1213" d="M707 0v117q-59 -63 -144.5 -103.5t-164.5 -40.5q-155 0 -217 85.5t-62 244.5v610h225v-503q0 -97 11 -148t37 -71t75 -20q100 0 240 132v610h225v-180h10q73 0 98.5 34.5t25.5 111.5v104h183v-104q0 -296 -295 -296h-22v-583h-225zM169 1071q5 135 64 205.5t164 70.5 q53 0 90.5 -19.5t67 -42t54.5 -42t54 -19.5q30 0 44.5 30.5t14.5 80.5h158q-9 -144 -66 -212.5t-164 -68.5q-57 0 -94.5 20t-65.5 44t-51.5 43.5t-52.5 19.5q-58 0 -58 -110h-159z" />
<glyph unicode="&#x1ef0;" horiz-adv-x="1411" d="M1121 971h14q75 0 101.5 35t26.5 111v141h184v-141q0 -296 -301 -296h-25v-318q0 -283 -115 -406.5t-380 -123.5q-263 0 -379.5 122.5t-116.5 407.5v701h246v-684q0 -122 23.5 -192.5t74.5 -103.5t150 -33q140 0 195.5 74t55.5 252v687h246v-233zM739 -216q0 -64 -31 -89 t-96 -25q-71 0 -96.5 29.5t-25.5 84.5q0 61 27.5 87.5t94.5 26.5q68 0 97.5 -25.5t29.5 -88.5z" />
<glyph unicode="&#x1ef1;" horiz-adv-x="1213" d="M707 0v117q-59 -63 -144.5 -103.5t-164.5 -40.5q-155 0 -217 85.5t-62 244.5v610h225v-503q0 -97 11 -148t37 -71t75 -20q100 0 240 132v610h225v-180h10q73 0 98.5 34.5t25.5 111.5v104h183v-104q0 -296 -295 -296h-22v-583h-225zM615 -216q0 -64 -31 -89t-96 -25 q-71 0 -96.5 29.5t-25.5 84.5q0 61 27.5 87.5t94.5 26.5q68 0 97.5 -25.5t29.5 -88.5z" />
<glyph unicode="&#x1ef2;" horiz-adv-x="1033" d="M639 459v-459h-247v454l-376 750h268l235 -504l240 504h258zM487 1343l-260 314h274l163 -314h-177z" />
<glyph unicode="&#x1ef3;" horiz-adv-x="943" d="M30 -123q74 -25 132 -25q50 0 88.5 30.5t79.5 126.5l23 54l-330 850h234l215 -583l221 583h228l-392 -976q-48 -117 -93 -173.5t-105.5 -82t-152.5 -25.5q-99 0 -195 26zM427 1051l-260 314h274l163 -314h-177z" />
<glyph unicode="&#x1ef4;" horiz-adv-x="1033" d="M639 459v-459h-247v454l-376 750h268l235 -504l240 504h258zM642 -216q0 -64 -31 -89t-96 -25q-71 0 -96.5 29.5t-25.5 84.5q0 61 27.5 87.5t94.5 26.5q68 0 97.5 -25.5t29.5 -88.5z" />
<glyph unicode="&#x1ef5;" horiz-adv-x="943" d="M30 -123q74 -25 132 -25q50 0 88.5 30.5t79.5 126.5l23 54l-330 850h234l215 -583l221 583h228l-392 -976q-48 -117 -93 -173.5t-105.5 -82t-152.5 -25.5q-99 0 -195 26zM819 -216q0 -64 -31 -89t-96 -25q-71 0 -96.5 29.5t-25.5 84.5q0 61 27.5 87.5t94.5 26.5 q68 0 97.5 -25.5t29.5 -88.5z" />
<glyph unicode="&#x1ef6;" horiz-adv-x="1033" d="M639 459v-459h-247v454l-376 750h268l235 -504l240 504h258zM337 1586q61 46 171 46q91 0 140 -40t49 -104q0 -60 -41 -101.5t-110 -46.5v-38h-111v120h38q64 0 64 52q0 44 -66 44q-50 0 -83 -22z" />
<glyph unicode="&#x1ef7;" horiz-adv-x="943" d="M30 -123q74 -25 132 -25q50 0 88.5 30.5t79.5 126.5l23 54l-330 850h234l215 -583l221 583h228l-392 -976q-48 -117 -93 -173.5t-105.5 -82t-152.5 -25.5q-99 0 -195 26zM291 1294q61 46 171 46q91 0 140 -40t49 -105q0 -60 -41 -101t-110 -47v-37h-111v119h38 q64 0 64 52q0 45 -66 45q-50 0 -83 -22z" />
<glyph unicode="&#x1ef8;" horiz-adv-x="1033" d="M639 459v-459h-247v454l-376 750h268l235 -504l240 504h258zM164 1363q5 135 64 205.5t164 70.5q53 0 90.5 -19.5t67 -41.5t54.5 -42t54 -20t44 29t15 82h158q-9 -144 -66 -212t-164 -68q-57 0 -94.5 19.5t-65.5 44t-51.5 44t-52.5 19.5q-58 0 -58 -111h-159z" />
<glyph unicode="&#x1ef9;" horiz-adv-x="943" d="M30 -123q74 -25 132 -25q50 0 88.5 30.5t79.5 126.5l23 54l-330 850h234l215 -583l221 583h228l-392 -976q-48 -117 -93 -173.5t-105.5 -82t-152.5 -25.5q-99 0 -195 26zM115 1071q5 135 64 205.5t164 70.5q53 0 90.5 -19.5t67 -42t54.5 -42t54 -19.5q30 0 44.5 30.5 t14.5 80.5h158q-9 -144 -66 -212.5t-164 -68.5q-57 0 -94.5 20t-65.5 44t-51.5 43.5t-52.5 19.5q-58 0 -58 -110h-159z" />
<glyph unicode="&#x2000;" horiz-adv-x="959" />
<glyph unicode="&#x2001;" horiz-adv-x="1919" />
<glyph unicode="&#x2002;" horiz-adv-x="959" />
<glyph unicode="&#x2003;" horiz-adv-x="1919" />
<glyph unicode="&#x2004;" horiz-adv-x="639" />
<glyph unicode="&#x2005;" horiz-adv-x="479" />
<glyph unicode="&#x2006;" horiz-adv-x="319" />
<glyph unicode="&#x2007;" horiz-adv-x="319" />
<glyph unicode="&#x2008;" horiz-adv-x="239" />
<glyph unicode="&#x2009;" horiz-adv-x="383" />
<glyph unicode="&#x200a;" horiz-adv-x="106" />
<glyph unicode="&#x2010;" horiz-adv-x="683" d="M71 347v221h542v-221h-542z" />
<glyph unicode="&#x2011;" horiz-adv-x="683" d="M71 347v221h542v-221h-542z" />
<glyph unicode="&#x2012;" horiz-adv-x="683" d="M71 347v221h542v-221h-542z" />
<glyph unicode="&#x2013;" d="M27 369v178h855v-178h-855z" />
<glyph unicode="&#x2014;" horiz-adv-x="1799" d="M27 369v178h1746v-178h-1746z" />
<glyph unicode="&#x2015;" horiz-adv-x="1799" d="M27 369v178h1746v-178h-1746z" />
<glyph unicode="&#x2017;" horiz-adv-x="890" d="M-9 -341v89h909v-89h-909zM-9 -180v89h909v-89h-909z" />
<glyph unicode="&#x2018;" horiz-adv-x="508" d="M396 823q0 -64 -30.5 -101.5t-114.5 -37.5q-139 0 -139 157q0 107 36.5 204t79.5 159h168q-54 -75 -79.5 -143t-29.5 -102q57 -4 83 -37t26 -99z" />
<glyph unicode="&#x2019;" horiz-adv-x="508" d="M396 1073q0 -107 -36.5 -204t-79.5 -160h-168q53 75 79.5 143.5t29.5 102.5q-57 4 -83 37t-26 98q0 64 30.5 101.5t114.5 37.5q139 0 139 -156z" />
<glyph unicode="&#x201a;" horiz-adv-x="508" d="M396 109q0 -107 -36.5 -204t-79.5 -160h-168q53 75 79.5 143.5t29.5 102.5q-57 4 -83 37t-26 98t30.5 102t114.5 37q139 0 139 -156z" />
<glyph unicode="&#x201b;" horiz-adv-x="508" d="M112 1073q0 156 139 156q84 0 114.5 -37.5t30.5 -101.5q0 -65 -26 -98t-83 -37q4 -34 29.5 -102.5t79.5 -143.5h-168q-43 63 -79.5 160t-36.5 204z" />
<glyph unicode="&#x201c;" horiz-adv-x="910" d="M799 823q0 -64 -30.5 -101.5t-114.5 -37.5q-139 0 -139 157q0 107 36.5 204t79.5 159h168q-54 -75 -80 -143t-29 -102q56 -4 82.5 -37t26.5 -99zM396 823q0 -64 -30.5 -101.5t-114.5 -37.5q-139 0 -139 157q0 107 36.5 204t79.5 159h168q-54 -75 -79.5 -143t-29.5 -102 q57 -4 83 -37t26 -99z" />
<glyph unicode="&#x201d;" horiz-adv-x="910" d="M799 1073q0 -107 -36.5 -204t-80.5 -160h-167q53 75 79 143.5t30 102.5q-58 4 -83.5 37t-25.5 98q0 64 30.5 101.5t113.5 37.5q140 0 140 -156zM396 1073q0 -107 -36.5 -204t-79.5 -160h-168q53 75 79.5 143.5t29.5 102.5q-57 4 -83 37t-26 98q0 64 30.5 101.5 t114.5 37.5q139 0 139 -156z" />
<glyph unicode="&#x201e;" horiz-adv-x="910" d="M799 109q0 -107 -36.5 -204t-80.5 -160h-167q53 75 79 143.5t30 102.5q-58 4 -83.5 37t-25.5 98t30.5 102t113.5 37q140 0 140 -156zM396 109q0 -107 -36.5 -204t-79.5 -160h-168q53 75 79.5 143.5t29.5 102.5q-57 4 -83 37t-26 98t30.5 102t114.5 37q139 0 139 -156z " />
<glyph unicode="&#x2020;" horiz-adv-x="965" d="M568 714l27 -1058h-226l27 1058l-345 -21v210l345 -19l-24 438h220l-24 -438l346 19v-210z" />
<glyph unicode="&#x2021;" horiz-adv-x="935" d="M556 51l23 -395h-222l22 395l-328 -19v211l328 -22l-14 269l14 267l-328 -21v210l328 -19l-22 395h222l-23 -395l328 19v-210l-328 21l14 -271l-14 -265l328 22v-211z" />
<glyph unicode="&#x2022;" horiz-adv-x="661" d="M581 648q0 -103 -73 -176t-177 -73q-66 0 -124 33t-92.5 91t-34.5 125q0 68 33.5 126.5t92.5 92t125 33.5q101 0 175.5 -72.5t74.5 -179.5z" />
<glyph unicode="&#x2026;" horiz-adv-x="1799" d="M1634 126q0 -75 -34 -106.5t-109 -31.5q-82 0 -111.5 35.5t-29.5 102.5q0 71 31.5 105t109.5 34q80 0 111.5 -33t31.5 -106zM1041 126q0 -75 -34 -106.5t-109 -31.5q-82 0 -111.5 35.5t-29.5 102.5q0 71 31.5 105t109.5 34q80 0 111.5 -33t31.5 -106zM447 126 q0 -75 -34 -106.5t-109 -31.5q-81 0 -110.5 35.5t-29.5 102.5q0 71 31 105t109 34q81 0 112 -33t31 -106z" />
<glyph unicode="&#x202f;" horiz-adv-x="383" />
<glyph unicode="&#x2030;" horiz-adv-x="2577" d="M2509 360q0 -193 -85.5 -290t-242.5 -97t-241.5 99t-84.5 288q0 191 82 291.5t244 100.5t245 -98.5t83 -293.5zM1734 360q0 -193 -85.5 -290t-242.5 -97t-241.5 99t-84.5 288q0 191 82 291.5t244 100.5t245 -98.5t83 -293.5zM679 -44h-205l654 1293h207zM723 838 q0 -195 -86.5 -291t-240.5 -96q-157 0 -241.5 99t-84.5 288q0 191 82.5 291t243.5 100q158 0 242.5 -96.5t84.5 -294.5zM2295 360q0 86 -11.5 138t-34 74.5t-68.5 22.5q-61 0 -86.5 -53t-25.5 -182q0 -132 27.5 -181t84.5 -49q64 0 89 53t25 177zM1520 360q0 88 -11 138.5 t-34 73.5t-69 23q-61 0 -86.5 -53t-25.5 -182q0 -132 27 -181t85 -49q62 0 88 50.5t26 179.5zM510 838q0 122 -24.5 178.5t-89.5 56.5q-61 0 -86.5 -53t-25.5 -182q0 -132 27 -181.5t85 -49.5q62 0 88 53t26 178z" />
<glyph unicode="&#x2032;" horiz-adv-x="477" d="M274 672h-160l32 532h239z" />
<glyph unicode="&#x2033;" horiz-adv-x="901" d="M274 672h-160l32 532h239zM698 672h-160l32 532h239z" />
<glyph unicode="&#x2039;" horiz-adv-x="749" d="M418 46l-365 410l365 410h261l-366 -410l366 -410h-261z" />
<glyph unicode="&#x203a;" horiz-adv-x="749" d="M331 46h-260l366 410l-366 410h260l366 -410z" />
<glyph unicode="&#x203c;" horiz-adv-x="1015" d="M349 383h-187l-30 821h244zM396 121q0 -75 -34 -104t-109 -29q-82 0 -111.5 32.5t-29.5 100.5q0 71 31.5 102.5t109.5 31.5q80 0 111.5 -30.5t31.5 -103.5zM857 383h-187l-30 821h244zM904 121q0 -75 -34 -104t-109 -29q-82 0 -111.5 32.5t-29.5 100.5q0 71 31.5 102.5 t109.5 31.5q80 0 111.5 -30.5t31.5 -103.5z" />
<glyph unicode="&#x203d;" horiz-adv-x="931" d="M289 383l-15 658q-23 -26 -41 -58l-203 122q60 107 160.5 162t253.5 55q207 0 316 -90t109 -254q0 -91 -34 -161t-97 -126.5t-213 -134.5v-173h-236zM552 121q0 -75 -33.5 -104t-108.5 -29q-82 0 -111.5 32.5t-29.5 100.5q0 71 31 102.5t110 31.5q80 0 111 -31.5 t31 -102.5zM617 967q0 115 -111 140l-11 -328q122 83 122 188z" />
<glyph unicode="&#x203e;" horiz-adv-x="890" d="M-9 1327v89h909v-89h-909z" />
<glyph unicode="&#x2044;" horiz-adv-x="183" d="M-141 -44h-204l649 1295h208z" />
<glyph unicode="&#x205f;" horiz-adv-x="479" />
<glyph unicode="&#x2070;" horiz-adv-x="816" d="M755 935q0 -199 -84.5 -292.5t-262.5 -93.5q-180 0 -263.5 93.5t-83.5 292.5q0 200 83.5 293.5t263.5 93.5q178 0 262.5 -93.5t84.5 -293.5zM531 935q0 111 -31 162t-94 51q-62 0 -91.5 -51t-29.5 -162q0 -110 29.5 -161t91.5 -51q63 0 94 51t31 161z" />
<glyph unicode="&#x2074;" horiz-adv-x="816" d="M665 702v-139h-202v139h-424v145l428 461h198v-456h100v-150h-100zM463 1092l-223 -240h223v240z" />
<glyph unicode="&#x2075;" horiz-adv-x="816" d="M731 816q0 -124 -93.5 -195.5t-268.5 -71.5q-208 0 -330 148l180 99q53 -78 148 -78q61 0 99.5 25t38.5 77q0 40 -30 64t-106 24q-74 0 -118 -46h-153l55 446h527v-164h-347l-14 -93q54 15 125 15q135 0 211 -68.5t76 -181.5z" />
<glyph unicode="&#x2076;" horiz-adv-x="816" d="M412 549q-155 0 -244.5 92.5t-89.5 266.5q0 200 99.5 307t278.5 107q166 0 275 -69l-105 -134q-74 54 -168 54q-79 0 -115.5 -43t-44.5 -103q73 34 171 34q128 0 202 -62t74 -193q0 -122 -89.5 -189.5t-243.5 -67.5zM424 695q110 0 110 109q0 55 -31 86t-81 31 q-36 0 -73.5 -10.5t-56.5 -24.5q0 -107 35 -149t97 -42z" />
<glyph unicode="&#x2077;" horiz-adv-x="816" d="M412 563h-250l331 581h-432v164h668v-121z" />
<glyph unicode="&#x2078;" horiz-adv-x="816" d="M741 777q0 -109 -87.5 -168.5t-245.5 -59.5q-160 0 -247.5 57t-87.5 171q0 53 33 99.5t99 77.5q-50 20 -80 61t-30 93q0 104 81.5 159t231.5 55q144 0 227.5 -52.5t83.5 -159.5q0 -103 -113 -158q76 -34 105.5 -74t29.5 -101zM520 1103q-4 70 -115 70q-63 0 -87 -21 t-24 -45q0 -31 21.5 -51.5t94.5 -38.5q62 17 86 37t24 49zM532 782q0 29 -25.5 54.5t-98.5 47.5q-75 -22 -100.5 -46.5t-25.5 -60.5q0 -34 29 -56t97 -22t96 23.5t28 59.5z" />
<glyph unicode="&#x2079;" horiz-adv-x="816" d="M189 752q72 -53 168 -53q78 0 114.5 42.5t45.5 103.5q-70 -34 -172 -34q-127 0 -201 61.5t-74 193.5q0 121 89 188.5t244 67.5t244 -92.5t89 -267.5q0 -198 -98.5 -305.5t-279.5 -107.5q-166 0 -274 70zM392 950q36 0 73.5 10.5t56.5 25.5q0 106 -35 148t-96 42 q-111 0 -111 -109q0 -55 31 -86t81 -31z" />
<glyph unicode="&#x207f;" horiz-adv-x="760" d="M505 565v324q0 84 -17 115t-66 31q-65 0 -155 -80v-390h-160v581h160v-70q36 36 93 61.5t114 25.5q105 0 146 -53.5t41 -150.5v-394h-156z" />
<glyph unicode="&#x2080;" horiz-adv-x="816" d="M755 105q0 -199 -84.5 -292.5t-262.5 -93.5q-180 0 -263.5 93.5t-83.5 292.5q0 200 83.5 293.5t263.5 93.5q178 0 262.5 -93.5t84.5 -293.5zM531 105q0 111 -31 162t-94 51q-62 0 -91.5 -51t-29.5 -162q0 -110 29.5 -161t91.5 -51q63 0 94 51t31 161z" />
<glyph unicode="&#x2081;" horiz-adv-x="816" d="M347 -267v481h-199v132q84 3 130.5 15t71.5 37.5t42 79.5h174v-745h-219z" />
<glyph unicode="&#x2082;" horiz-adv-x="816" d="M80 -267v158l94 68q198 139 246.5 188.5t48.5 98.5q0 68 -84 68q-88 0 -148 -77l-171 106q116 149 328 149q157 0 228 -61.5t71 -155.5q0 -52 -13.5 -93.5t-45.5 -80.5t-114 -100t-144 -97h345v-171h-641z" />
<glyph unicode="&#x2083;" horiz-adv-x="816" d="M700 -46q0 -119 -89 -177t-246 -58q-110 0 -192.5 42.5t-121.5 105.5l173 89q56 -77 143 -77q63 0 86 28t23 57q0 79 -123 79h-100v154h89q80 0 108 19.5t28 54.5q0 25 -24 42.5t-75 17.5q-89 0 -146 -67l-158 93q53 64 124.5 99.5t194.5 35.5q150 0 222 -58t72 -138 q0 -62 -33 -101t-108 -65q80 -20 116.5 -66.5t36.5 -109.5z" />
<glyph unicode="&#x2084;" horiz-adv-x="816" d="M665 -128v-139h-202v139h-424v145l428 461h198v-456h100v-150h-100zM463 262l-223 -240h223v240z" />
<glyph unicode="&#x2085;" horiz-adv-x="816" d="M731 -14q0 -124 -93.5 -195.5t-268.5 -71.5q-208 0 -330 148l180 99q53 -78 148 -78q61 0 99.5 25t38.5 77q0 40 -30 64t-106 24q-74 0 -118 -46h-153l55 446h527v-164h-347l-14 -93q54 15 125 15q135 0 211 -68.5t76 -181.5z" />
<glyph unicode="&#x2086;" horiz-adv-x="816" d="M412 -281q-155 0 -244.5 92.5t-89.5 266.5q0 200 99.5 307t278.5 107q166 0 275 -69l-105 -134q-74 54 -168 54q-79 0 -115.5 -43t-44.5 -103q73 34 171 34q128 0 202 -62t74 -193q0 -122 -89.5 -189.5t-243.5 -67.5zM424 -135q110 0 110 109q0 55 -31 86t-81 31 q-36 0 -73.5 -10.5t-56.5 -24.5q0 -107 35 -149t97 -42z" />
<glyph unicode="&#x2087;" horiz-adv-x="816" d="M412 -267h-250l331 581h-432v164h668v-121z" />
<glyph unicode="&#x2088;" horiz-adv-x="816" d="M741 -53q0 -109 -87.5 -168.5t-245.5 -59.5q-160 0 -247.5 57t-87.5 171q0 53 33 99.5t99 77.5q-50 20 -80 61t-30 93q0 104 81.5 159t231.5 55q144 0 227.5 -52.5t83.5 -159.5q0 -103 -113 -158q76 -34 105.5 -74t29.5 -101zM520 273q-4 70 -115 70q-63 0 -87 -21 t-24 -45q0 -31 21.5 -51.5t94.5 -38.5q62 17 86 37t24 49zM532 -48q0 29 -25.5 54.5t-98.5 47.5q-75 -22 -100.5 -46.5t-25.5 -60.5q0 -34 29 -56t97 -22t96 23.5t28 59.5z" />
<glyph unicode="&#x2089;" horiz-adv-x="816" d="M189 -78q72 -53 168 -53q78 0 114.5 42.5t45.5 103.5q-70 -34 -172 -34q-127 0 -201 61.5t-74 193.5q0 121 89 188.5t244 67.5t244 -92.5t89 -267.5q0 -198 -98.5 -305.5t-279.5 -107.5q-166 0 -274 70zM392 120q36 0 73.5 10.5t56.5 25.5q0 106 -35 148t-96 42 q-111 0 -111 -109q0 -55 31 -86t81 -31z" />
<glyph unicode="&#x20a3;" horiz-adv-x="1113" d="M454 980v-261h444v-216h-444v-188h328v-164h-328v-151h-245v151h-129v164h129v889h774v-224h-529z" />
<glyph unicode="&#x20a4;" horiz-adv-x="1113" d="M95 759h97q-10 54 -10 134q0 162 117.5 249t319.5 87q153 0 257.5 -53.5t160.5 -145.5l-189 -114q-35 57 -96.5 91t-132.5 34q-104 0 -154 -47.5t-50 -126.5q0 -49 9 -108h372v-148h-340q15 -66 15 -96h325v-148h-337q-14 -49 -39.5 -91.5t-50.5 -66.5h682v-209h-964v185 q66 14 102.5 64t48.5 118h-143v148h145q0 54 -16 96h-129v148z" />
<glyph unicode="&#x20a7;" horiz-adv-x="2366" d="M1532 0q-79 -27 -174 -27q-144 0 -207.5 71.5t-63.5 231.5v458h-114q-14 -183 -117.5 -272.5t-315.5 -89.5h-164v-372h-246v1204h417q179 0 284.5 -68.5t134.5 -222.5h121v254h224v-254h195v-179h-195v-430q0 -85 22.5 -115.5t63.5 -30.5q52 0 103 26zM2297 260 q0 -90 -45.5 -154t-130 -98.5t-191.5 -34.5q-286 0 -391 159l168 118q41 -56 94.5 -74.5t114.5 -18.5q160 0 160 93q0 41 -46 63t-141 45q-182 40 -256 113.5t-74 189.5q0 121 92.5 199.5t272.5 78.5q123 0 216.5 -39.5t144.5 -117.5l-168 -119q-61 92 -196 92 q-70 0 -105.5 -24t-35.5 -61q0 -36 32 -57t126 -45q157 -38 223 -75.5t101 -94t35 -138.5zM721 799q0 105 -58 148.5t-200 43.5h-87v-405h64q135 0 187 19t73 63.5t21 130.5z" />
<glyph unicode="&#x20ab;" horiz-adv-x="1058" d="M726 0v89q-63 -53 -132.5 -84.5t-158.5 -31.5q-172 0 -263.5 115.5t-91.5 328.5q0 216 101.5 336t281.5 120q64 0 132 -26.5t112 -67.5v180h-242v160h242v85h225v-85h117v-160h-117v-959h-206zM707 593q-35 33 -88 57.5t-107 24.5q-91 0 -146 -69t-55 -186 q0 -116 46.5 -182.5t137.5 -66.5q56 0 113.5 26t98.5 63v333zM116 -265v160h816v-160h-816z" />
<glyph unicode="&#x20ac;" horiz-adv-x="1113" d="M376 386q30 -110 96 -155.5t179 -45.5q80 0 141 35t124 127l182 -129q-70 -103 -130 -152t-136.5 -70t-186.5 -21q-440 0 -524 411h-104l34 166h51v104h-85l38 165h66q83 408 515 408q171 0 279 -59.5t165 -155.5l-175 -141q-46 68 -79 94t-74.5 39t-100.5 13 q-115 0 -180 -48t-93 -150h454l-38 -165h-439v-104h424l-34 -166h-369z" />
<glyph unicode="&#x20b9;" horiz-adv-x="1113" d="M804 766q-20 -127 -109 -209.5t-230 -97.5l342 -459h-260l-333 459v199h167q90 0 131.5 28t55.5 80h-447l93 166h351q-33 109 -150 109h-294l93 163h794l-92 -163h-166q32 -52 46 -109h212l-92 -166h-112z" />
<glyph unicode="&#x20ba;" horiz-adv-x="1113" d="M107 871l153 56v277h225v-206l222 80v-162l-222 -83v-126l222 82v-162l-222 -82v-351h3q89 0 156.5 42.5t103.5 122.5t36 199h223q0 -276 -140 -429.5t-425 -153.5q-98 0 -182 25v474l-153 -56v163l153 55v127l-153 -56v164z" />
<glyph unicode="&#x2105;" horiz-adv-x="1678" d="M613 -27h-201l644 1322h202zM1614 291q0 -162 -77.5 -240t-215.5 -78q-141 0 -218.5 78t-77.5 240t76.5 240t219.5 78q140 0 216.5 -77.5t76.5 -240.5zM1445 291q0 101 -31.5 143t-92.5 42q-63 0 -95 -42t-32 -143q0 -99 32 -141.5t95 -42.5q61 0 92.5 42.5t31.5 141.5z M486 1124q-42 68 -117 68q-74 0 -106.5 -46.5t-32.5 -145.5q0 -103 36.5 -147t109.5 -44q62 0 129 46l83 -112q-96 -63 -221 -63q-162 0 -232.5 86.5t-70.5 233.5q0 148 71.5 234.5t231.5 86.5q157 0 239 -122z" />
<glyph unicode="&#x2113;" horiz-adv-x="948" d="M828 85q-44 -39 -115.5 -76.5t-160.5 -37.5q-128 0 -197.5 82t-69.5 227v111l-80 -80l-86 94l166 158v353q0 178 74 279.5t213 101.5q67 0 116 -29.5t74 -80t25 -113.5q0 -83 -29.5 -162.5t-85.5 -160.5t-166 -199v-241q0 -170 113 -170q44 0 80.5 25t60.5 48zM648 1044 q0 36 -14.5 60t-45.5 24q-82 0 -82 -166v-229q77 93 109.5 167t32.5 144z" />
<glyph unicode="&#x2116;" horiz-adv-x="2089" d="M1643 408q-161 0 -247.5 87.5t-86.5 263.5q0 179 86.5 267t247.5 88t246 -90t85 -265q0 -171 -85 -261t-246 -90zM1643 570q123 0 123 189q0 193 -123 193q-62 0 -94.5 -45t-32.5 -148q0 -101 32.5 -145t94.5 -44zM1338 203h607v-203h-607v203zM124 1204h304l504 -819 v819h235v-1204h-274l-533 877v-877h-236v1204z" />
<glyph unicode="&#x2122;" horiz-adv-x="1472" d="M1195 583v340l-101 -202h-96l-104 204v-342h-167v621h187l130 -264l132 264h187v-621h-168zM403 1051v-468h-173v468h-193v153h556v-153h-190z" />
<glyph unicode="&#x2126;" horiz-adv-x="1190" d="M593 1229q252 0 387 -137t135 -390q0 -177 -50.5 -289.5t-168.5 -168.5v-26h211v-218h-427v349q93 14 136 100t43 253q0 146 -66 228t-200 82q-129 0 -197 -77.5t-68 -230.5q0 -121 16 -192t51 -109t111 -54v-349h-422v218h215v26q-88 31 -134.5 82.5t-68 141 t-21.5 234.5q0 158 60.5 278t175.5 184.5t282 64.5z" />
<glyph unicode="&#x212e;" horiz-adv-x="1232" d="M315 542v-374q125 -122 296 -122q146 0 240.5 69t162.5 179l64 -41q-94 -143 -203 -209t-264 -66q-153 0 -273.5 74.5t-187 205.5t-66.5 286q0 159 66 287.5t188 202t277 73.5q154 0 276 -72.5t189 -200.5t69 -292h-834zM913 918q-58 55 -136 89t-164 34 q-179 0 -298 -121v-309h598v307z" />
<glyph unicode="&#x215b;" horiz-adv-x="1822" d="M283 463v481h-199v132q84 3 130.5 15t71.5 37.5t42 79.5h174v-745h-219zM643 -44h-204l649 1295h208zM1748 214q0 -109 -87.5 -168.5t-245.5 -59.5q-160 0 -247.5 57t-87.5 171q0 53 33 99.5t99 77.5q-50 20 -80 61t-30 93q0 104 81.5 159t231.5 55q144 0 227.5 -52.5 t83.5 -159.5q0 -103 -113 -158q76 -34 105.5 -74t29.5 -101zM1527 540q-4 70 -115 70q-63 0 -87 -21t-24 -45q0 -31 21.5 -51.5t94.5 -38.5q62 17 86 37t24 49zM1539 219q0 29 -25.5 54.5t-98.5 47.5q-75 -22 -100.5 -46.5t-25.5 -60.5q0 -34 29 -56t97 -22t96 23.5t28 59.5 z" />
<glyph unicode="&#x215c;" horiz-adv-x="1822" d="M700 684q0 -119 -89 -177t-246 -58q-110 0 -192.5 42.5t-121.5 105.5l173 89q56 -77 143 -77q63 0 86 28t23 57q0 79 -123 79h-100v154h89q80 0 108 19.5t28 54.5q0 25 -24 42.5t-75 17.5q-89 0 -146 -67l-158 93q53 64 124.5 99.5t194.5 35.5q150 0 222 -58t72 -138 q0 -62 -33 -101t-108 -65q80 -20 116.5 -66.5t36.5 -109.5zM677 -44h-204l649 1295h208zM1748 214q0 -109 -87.5 -168.5t-245.5 -59.5q-160 0 -247.5 57t-87.5 171q0 53 33 99.5t99 77.5q-50 20 -80 61t-30 93q0 104 81.5 159t231.5 55q144 0 227.5 -52.5t83.5 -159.5 q0 -103 -113 -158q76 -34 105.5 -74t29.5 -101zM1527 540q-4 70 -115 70q-63 0 -87 -21t-24 -45q0 -31 21.5 -51.5t94.5 -38.5q62 17 86 37t24 49zM1539 219q0 29 -25.5 54.5t-98.5 47.5q-75 -22 -100.5 -46.5t-25.5 -60.5q0 -34 29 -56t97 -22t96 23.5t28 59.5z" />
<glyph unicode="&#x215d;" horiz-adv-x="1822" d="M731 716q0 -124 -93.5 -195.5t-268.5 -71.5q-208 0 -330 148l180 99q53 -78 148 -78q61 0 99.5 25t38.5 77q0 40 -30 64t-106 24q-74 0 -118 -46h-153l55 446h527v-164h-347l-14 -93q54 15 125 15q135 0 211 -68.5t76 -181.5zM684 -44h-204l649 1295h208zM1748 214 q0 -109 -87.5 -168.5t-245.5 -59.5q-160 0 -247.5 57t-87.5 171q0 53 33 99.5t99 77.5q-50 20 -80 61t-30 93q0 104 81.5 159t231.5 55q144 0 227.5 -52.5t83.5 -159.5q0 -103 -113 -158q76 -34 105.5 -74t29.5 -101zM1527 540q-4 70 -115 70q-63 0 -87 -21t-24 -45 q0 -31 21.5 -51.5t94.5 -38.5q62 17 86 37t24 49zM1539 219q0 29 -25.5 54.5t-98.5 47.5q-75 -22 -100.5 -46.5t-25.5 -60.5q0 -34 29 -56t97 -22t96 23.5t28 59.5z" />
<glyph unicode="&#x215e;" horiz-adv-x="1822" d="M412 463h-250l331 581h-432v164h668v-121zM661 -44h-204l649 1295h208zM1748 214q0 -109 -87.5 -168.5t-245.5 -59.5q-160 0 -247.5 57t-87.5 171q0 53 33 99.5t99 77.5q-50 20 -80 61t-30 93q0 104 81.5 159t231.5 55q144 0 227.5 -52.5t83.5 -159.5q0 -103 -113 -158 q76 -34 105.5 -74t29.5 -101zM1527 540q-4 70 -115 70q-63 0 -87 -21t-24 -45q0 -31 21.5 -51.5t94.5 -38.5q62 17 86 37t24 49zM1539 219q0 29 -25.5 54.5t-98.5 47.5q-75 -22 -100.5 -46.5t-25.5 -60.5q0 -34 29 -56t97 -22t96 23.5t28 59.5z" />
<glyph unicode="&#x2190;" horiz-adv-x="1781" d="M524 137q-95 107 -170.5 169t-188.5 124v41q70 34 126 74t112 92.5t121 125.5h68q-67 -137 -147 -238h1171v-153h-1171q50 -60 82.5 -114.5t64.5 -120.5h-68z" />
<glyph unicode="&#x2191;" horiz-adv-x="890" d="M134 1090q131 122 187 194t104 166h40q55 -105 114.5 -176.5t179.5 -183.5v-65q-58 25 -112 56t-125 87v-1168h-151v1168q-61 -45 -105 -73t-132 -70v65z" />
<glyph unicode="&#x2192;" horiz-adv-x="1781" d="M1256 763q122 -134 194 -189.5t166 -104.5v-39q-105 -56 -192 -127.5t-168 -165.5h-66q43 87 73.5 137t71.5 98h-1170v153h1170q-61 79 -85 121.5t-60 116.5h66z" />
<glyph unicode="&#x2193;" horiz-adv-x="890" d="M757 360q-118 -107 -178 -183q-59 -72 -114 -177h-40q-54 105 -113.5 176.5t-179.5 183.5v65q82 -39 130 -68.5t107 -74.5v1168h151v-1168q59 43 104.5 73t132.5 70v-65z" />
<glyph unicode="&#x2194;" horiz-adv-x="1781" d="M1335 525q-53 68 -64.5 86t-34 60.5t-46.5 91.5h66q122 -134 194 -189.5t166 -104.5v-39q-105 -56 -192 -127.5t-168 -165.5h-66q52 107 66 128q26 44 79 107h-890q50 -60 82.5 -114.5t64.5 -120.5h-68q-95 107 -170.5 169t-188.5 124v41q70 34 126 74t112 92.5 t121 125.5h68q-67 -137 -147 -238h890z" />
<glyph unicode="&#x2195;" horiz-adv-x="890" d="M522 282l57 42q67 48 180 101v-65q-121 -107 -179.5 -181.5t-114.5 -178.5h-40q-54 105 -125.5 191.5t-165.5 168.5v65q63 -29 117.5 -60.5t119.5 -82.5v886q-46 -37 -93 -67.5t-144 -75.5v65q109 98 172 175t119 185h40q53 -99 112 -174.5t182 -185.5v-65 q-101 47 -138.5 71t-98.5 72v-886z" />
<glyph unicode="&#x21a8;" horiz-adv-x="890" d="M522 282q91 68 132 91.5t105 51.5v-65q-70 -60 -118 -110t-91 -110.5t-85 -139.5h-40q-54 105 -125.5 191.5t-165.5 168.5v65q54 -25 110.5 -57.5t126.5 -85.5v886q-42 -33 -96 -67.5t-141 -75.5v65q123 111 187 196.5t104 163.5h40q47 -90 103 -165.5t191 -194.5v-65 q-101 47 -138.5 71t-98.5 72v-886zM134 -64h625v-152h-625v152z" />
<glyph unicode="&#x2202;" horiz-adv-x="1118" d="M1039 818q0 -227 -77.5 -427t-209 -306.5t-291.5 -106.5q-168 0 -275.5 103.5t-107.5 263.5q0 157 63.5 278.5t173.5 187.5t232 66q89 0 152.5 -35t91.5 -82h3q6 31 6 92q0 122 -60.5 196t-176.5 74q-100 0 -185 -53l-52 160q43 31 117 52t161 21q205 0 320 -130.5 t115 -353.5zM765 585q-19 53 -59.5 88.5t-108.5 35.5q-72 0 -135 -49t-100 -136.5t-37 -186.5q0 -79 39 -126t107 -47q101 0 181.5 119t112.5 302z" />
<glyph unicode="&#x2206;" horiz-adv-x="1117" d="M1094 0h-1071v100l194 552q122 354 195 552h299l383 -1104v-100zM804 205l-226 664q-12 32 -16 59t-8 36h-7q-12 -63 -22 -91l-229 -668h508z" />
<glyph unicode="&#x220f;" horiz-adv-x="1400" d="M1010 -410v1444h-619v-1444h-250v1658h1119v-1658h-250z" />
<glyph unicode="&#x2211;" horiz-adv-x="1224" d="M63 -410v132l559 706l-527 677v143h1029v-201h-709l476 -614l-505 -644h775v-199h-1098z" />
<glyph unicode="&#x2212;" horiz-adv-x="1241" d="M116 417v178h1010v-178h-1010z" />
<glyph unicode="&#x2215;" horiz-adv-x="901" d="M211 -260h-221l600 1582h223z" />
<glyph unicode="&#x2219;" horiz-adv-x="474" d="M376 520q0 -73 -36.5 -101t-104.5 -28q-77 0 -107 34t-30 95q0 132 137 132q141 0 141 -132z" />
<glyph unicode="&#x221a;" horiz-adv-x="1040" d="M451 -22l-242 549l-105 -66l-70 118l274 176l232 -534l305 1078h162l-376 -1321h-180z" />
</font>
</defs>
</svg>
