<?xml version="1.0" standalone="no"?>
<!DOCTYPE svg PUBLIC "-//W3C//DTD SVG 1.1//EN" "http://www.w3.org/Graphics/SVG/1.1/DTD/svg11.dtd" >
<svg xmlns="http://www.w3.org/2000/svg">
<metadata></metadata>
<defs>
<font id="clear_sansbold_italic" horiz-adv-x="1037" >
<font-face units-per-em="2048" ascent="1489" descent="-559" />
<missing-glyph horiz-adv-x="472" />
<glyph unicode="ff" horiz-adv-x="1079" d="M733 1101q-28 13 -55 19t-58 6q-61 0 -94 -28.5t-47 -96.5l-20 -88h182l-37 -179h-182l-155 -734h-221l155 734h-112l37 179h112l20 88q16 76 43 135.5t70.5 101t106.5 63t151 21.5q55 0 102 -8.5t82 -21.5zM1271 1101q-28 13 -55 19t-58 6q-61 0 -94 -28.5t-47 -96.5 l-20 -88h182l-37 -179h-182l-155 -734h-221l155 734h-112l37 179h112l20 88q16 76 43 135.5t70.5 101t106.5 63t151 21.5q55 0 102 -8.5t82 -21.5z" />
<glyph unicode="fi" horiz-adv-x="974" d="M733 1101q-28 13 -55 19t-58 6q-61 0 -94 -28.5t-47 -96.5l-20 -88h182l-37 -179h-182l-155 -734h-221l155 734h-112l37 179h112l20 88q16 76 43 135.5t70.5 101t106.5 63t151 21.5q55 0 102 -8.5t82 -21.5zM565 0l192 913h219l-192 -913h-219zM793 1131q0 18 6 43 t22 47.5t44.5 38t73.5 15.5q59 0 84 -21.5t25 -59.5q0 -21 -7 -47t-24 -48t-45.5 -37t-71.5 -15q-31 0 -52 6t-33 17t-17 26.5t-5 34.5z" />
<glyph unicode="fl" horiz-adv-x="989" d="M733 1101q-28 13 -55 19t-58 6q-61 0 -94 -28.5t-47 -96.5l-20 -88h182l-37 -179h-182l-155 -734h-221l155 734h-112l37 179h112l20 88q16 76 43 135.5t70.5 101t106.5 63t151 21.5q55 0 102 -8.5t82 -21.5zM565 0l274 1295h219l-274 -1295h-219z" />
<glyph unicode="ffi" horiz-adv-x="1514" d="M733 1101q-28 13 -55 19t-58 6q-61 0 -94 -28.5t-47 -96.5l-20 -88h182l-37 -179h-182l-155 -734h-221l155 734h-112l37 179h112l20 88q16 76 43 135.5t70.5 101t106.5 63t151 21.5q55 0 102 -8.5t82 -21.5zM1271 1101q-28 13 -55 19t-58 6q-61 0 -94 -28.5t-47 -96.5 l-20 -88h182l-37 -179h-182l-155 -734h-221l155 734h-112l37 179h112l20 88q16 76 43 135.5t70.5 101t106.5 63t151 21.5q55 0 102 -8.5t82 -21.5zM1105 0l192 913h219l-192 -913h-219zM1333 1131q0 18 6 43t22 47.5t44.5 38t73.5 15.5q59 0 84 -21.5t25 -59.5q0 -21 -7 -47 t-24 -48t-45.5 -37t-71.5 -15q-31 0 -52 6t-33 17t-17 26.5t-5 34.5z" />
<glyph unicode="ffl" horiz-adv-x="1528" d="M733 1101q-28 13 -55 19t-58 6q-61 0 -94 -28.5t-47 -96.5l-20 -88h182l-37 -179h-182l-155 -734h-221l155 734h-112l37 179h112l20 88q16 76 43 135.5t70.5 101t106.5 63t151 21.5q55 0 102 -8.5t82 -21.5zM1271 1101q-28 13 -55 19t-58 6q-61 0 -94 -28.5t-47 -96.5 l-20 -88h182l-37 -179h-182l-155 -734h-221l155 734h-112l37 179h112l20 88q16 76 43 135.5t70.5 101t106.5 63t151 21.5q55 0 102 -8.5t82 -21.5zM1105 0l274 1295h219l-274 -1295h-219z" />
<glyph horiz-adv-x="0" />
<glyph horiz-adv-x="0" />
<glyph unicode=" "  horiz-adv-x="472" />
<glyph unicode="&#x09;" horiz-adv-x="472" />
<glyph unicode="&#xa0;" horiz-adv-x="472" />
<glyph unicode="!" horiz-adv-x="496" d="M326 383h-183l146 821h238zM325 171q0 -29 -7.5 -58t-19.5 -52q-22 -39 -58 -56t-92 -17q-63 0 -89.5 20t-26.5 62q0 24 6 49.5t15 50.5q19 45 54.5 65t97.5 20t91 -19.5t29 -64.5z" />
<glyph unicode="&#x22;" horiz-adv-x="831" d="M721 672h-156l73 532h235zM357 672h-158l75 532h234z" />
<glyph unicode="#" horiz-adv-x="1137" d="M893 714l-55 -224h206l-39 -157h-206l-85 -333h-156l85 333h-201l-84 -333h-157l86 333h-209l39 157h208l56 224h-208l39 157h208l86 335h155l-83 -335h199l85 335h155l-83 -335h205l-39 -157h-207zM536 714l-55 -224h199l58 224h-202z" />
<glyph unicode="$" horiz-adv-x="1091" d="M748 1128q55 -10 99 -27.5t78.5 -41.5t61.5 -53.5t47 -63.5l-179 -119q-24 39 -60.5 68t-88.5 44l-52 -240q79 -25 133 -54.5t87.5 -65.5t48 -79.5t14.5 -96.5q0 -80 -31 -141t-86 -104.5t-131.5 -67.5t-168.5 -31l-35 -171h-143l36 173q-60 7 -110.5 25.5t-90 44.5 t-66.5 58.5t-40 67.5l189 121q20 -49 58.5 -81t98.5 -45l61 283q-83 27 -136 55t-83.5 62.5t-42 78t-11.5 99.5q0 50 21.5 103t69.5 97.5t124 75t186 35.5l21 92h143zM714 369q0 17 -3.5 32t-14 29t-31.5 27.5t-56 27.5l-50 -237q29 3 57 12t49.5 23.5t35 35.5t13.5 50z M425 841q0 -15 3.5 -28.5t14 -26.5t30 -24.5t49.5 -21.5l43 202q-38 -4 -64 -13.5t-43 -23t-25 -30t-8 -34.5z" />
<glyph unicode="%" horiz-adv-x="1844" d="M388 -48l913 1296h203l-914 -1296h-202zM422 442q-79 0 -133 19.5t-86.5 55t-47 84.5t-14.5 108q0 21 3 51t9.5 64.5t16.5 72t24 74.5q47 125 132.5 187.5t220.5 62.5q81 0 136.5 -19.5t89 -54.5t48.5 -85.5t15 -113.5q0 -37 -8.5 -83.5t-21.5 -92.5t-29 -86.5t-31 -66.5 q-27 -49 -61 -83t-74 -55t-87 -30t-102 -9zM437 599q39 0 70.5 18t58.5 69q30 58 46.5 128.5t16.5 139.5q0 32 -6.5 53t-18.5 34t-29 18t-39 5q-43 0 -77 -24.5t-60 -87.5q-22 -57 -37 -119.5t-15 -126.5q0 -60 23 -83.5t67 -23.5zM1343 -27q-80 0 -133.5 19.5t-86.5 55.5 t-47 84.5t-14 107.5q0 21 3 51t9.5 65t16.5 72.5t24 74.5q47 124 132.5 186.5t221.5 62.5q80 0 135 -19.5t89 -54.5t49 -85.5t15 -113.5q0 -37 -8.5 -83.5t-21.5 -92t-28.5 -86.5t-30.5 -67q-28 -49 -62 -82.5t-74 -54.5t-87 -30.5t-102 -9.5zM1358 130q19 0 37 4t34 14 t31 27t28 43q29 57 45.5 128t16.5 139q0 32 -6.5 53t-18.5 34t-29 18t-39 5q-42 0 -77 -24.5t-59 -87.5q-23 -57 -38 -119t-15 -127q0 -60 23.5 -83.5t66.5 -23.5z" />
<glyph unicode="&#x26;" horiz-adv-x="1124" d="M43 272q0 60 22 114.5t64.5 105.5t103 99t138.5 95q-22 39 -36.5 69t-23.5 58t-13 56.5t-4 64.5q0 58 21.5 111.5t65 94.5t109 65t153.5 24q76 0 132 -17t92 -47.5t53 -71.5t17 -88q0 -51 -16.5 -96.5t-52 -90t-91 -88.5t-134.5 -92l143 -255q33 44 63.5 96.5t61.5 113.5 l170 -68q-39 -88 -88 -167.5t-109 -145.5l119 -212h-244l-41 73q-75 -46 -157.5 -72t-177.5 -26q-171 0 -255.5 77t-84.5 220zM401 157q59 0 115.5 17t110.5 54l-168 303q-105 -66 -153 -124t-48 -123q0 -32 11 -55.5t30 -39.5t45.5 -24t56.5 -8zM506 934q0 -30 9.5 -58.5 t31.5 -66.5l7 -15q51 32 84 57.5t53 47.5t28 43.5t8 46.5q0 37 -24 56t-72 19q-31 0 -54 -10t-38.5 -28t-24 -42t-8.5 -50z" />
<glyph unicode="'" horiz-adv-x="468" d="M357 672h-158l75 532h234z" />
<glyph unicode="(" horiz-adv-x="730" d="M284 -344q-54 77 -93.5 150.5t-64 149t-36.5 157t-12 174.5q0 142 39.5 284t111.5 275t174 254t228 224h249q-120 -96 -227.5 -211.5t-188 -246.5t-128 -276t-47.5 -299q0 -97 17 -182.5t48 -162.5t74.5 -149t96.5 -141h-241z" />
<glyph unicode=")" horiz-adv-x="730" d="M461 1324q54 -77 93 -150t64 -149.5t36.5 -157.5t11.5 -174q0 -142 -39 -283.5t-111 -275t-174.5 -255t-227.5 -223.5h-250q120 97 227.5 212t188.5 246t128.5 275.5t47.5 300.5q0 96 -17 181t-48.5 163t-75 149.5t-96.5 140.5h242z" />
<glyph unicode="*" horiz-adv-x="776" d="M738 721l-200 152l-39 -235h-150l59 226l-226 -130l-59 133l255 116l-213 125l95 127l194 -139l39 226h150l-58 -226l226 130l62 -134l-258 -118l215 -124z" />
<glyph unicode="+" horiz-adv-x="1241" d="M729 417v-415h-178v415h-417v178h417v417h178v-417h415v-178h-415z" />
<glyph unicode="," horiz-adv-x="496" d="M-27 -255q27 35 51 71.5t43.5 70t33 61t18.5 43.5q-85 6 -85 82q0 48 19 98q17 44 53 69t105 25q59 0 84.5 -27t25.5 -76q0 -54 -18.5 -108t-44.5 -107q-29 -61 -65 -113t-70 -89h-150z" />
<glyph unicode="-" horiz-adv-x="669" d="M46 347l46 221h532l-46 -221h-532z" />
<glyph unicode="." horiz-adv-x="496" d="M325 177q0 -27 -6.5 -56t-20.5 -57q-22 -41 -58 -58.5t-92 -17.5q-63 0 -88.5 21.5t-25.5 63.5q0 25 6 53.5t17 53.5q19 44 54 64.5t96 20.5q63 0 90.5 -21.5t27.5 -66.5z" />
<glyph unicode="/" horiz-adv-x="883" d="M64 -260h-224l912 1582h228z" />
<glyph unicode="0" horiz-adv-x="1091" d="M1067 821q0 -48 -7 -109t-22 -127.5t-36.5 -135.5t-47.5 -134q-42 -99 -94.5 -165t-113.5 -105t-131.5 -55.5t-149.5 -16.5q-100 0 -172 23.5t-118.5 72t-68.5 125t-22 180.5q0 49 6.5 106t19.5 117.5t31 122t41 121.5q40 105 92 179t116 120.5t140 67.5t163 21 q194 0 284 -103t90 -305zM736 415q33 92 56.5 196t23.5 209q0 55 -9.5 93t-28.5 61.5t-47.5 34t-65.5 10.5q-51 0 -88.5 -16t-68 -47t-53.5 -77t-45 -106q-32 -88 -53.5 -190.5t-21.5 -220.5q0 -51 9.5 -85t28.5 -55t47.5 -29.5t67.5 -8.5q37 0 71.5 10.5t66 37t59 71 t51.5 112.5z" />
<glyph unicode="1" horiz-adv-x="1091" d="M401 0l171 807h-285l36 166q84 5 145 18t106 39.5t78 68.5t62 105h184l-255 -1204h-242z" />
<glyph unicode="2" horiz-adv-x="1026" d="M-5 0l42 205q72 53 151 112t154.5 119t142 116t112.5 102q24 24 50.5 53.5t49 61.5t37 66.5t14.5 67.5q0 52 -30.5 80.5t-91.5 28.5q-45 0 -82 -11t-68 -29t-56.5 -42t-47.5 -50l-160 150q39 47 85 84t99.5 62.5t116.5 39t138 13.5q83 0 149 -17t110.5 -54t68.5 -93 t24 -133q0 -52 -17 -103.5t-45.5 -100.5t-67.5 -95t-82 -86q-42 -39 -95.5 -82.5t-110 -86.5t-112 -82.5t-99.5 -71.5h513l-46 -224h-846z" />
<glyph unicode="3" horiz-adv-x="1026" d="M388 734h91q40 0 83.5 10t80 31t60 53t23.5 75q0 22 -7 41.5t-23 34.5t-41 23t-62 8q-74 0 -134 -28t-104 -79l-158 148q41 43 85.5 76.5t97 56t113.5 34t134 11.5q181 0 267 -73t86 -212q0 -48 -18.5 -94.5t-55.5 -87t-94 -73t-133 -51.5q45 -8 84 -28t67.5 -51.5 t44.5 -73t16 -93.5q0 -95 -31.5 -172t-96 -131.5t-162 -84t-230.5 -29.5q-80 0 -144 14.5t-111 41t-77.5 62t-43.5 77.5l208 134q21 -49 69 -79.5t129 -30.5q64 0 108 16t72.5 42t41.5 59t13 67q0 76 -46.5 111t-140.5 35h-105z" />
<glyph unicode="4" horiz-adv-x="1091" d="M821 199l-41 -199h-229l41 199h-594l48 226l743 779h246l-169 -794h144l-44 -211h-145zM736 873l-449 -463h349z" />
<glyph unicode="5" horiz-adv-x="1026" d="M939 472q0 -62 -12 -115.5t-33 -99t-48.5 -82.5t-59.5 -66q-71 -65 -174.5 -99.5t-239.5 -34.5q-152 0 -245.5 51t-143.5 147l214 137q20 -54 67.5 -85t126.5 -31q69 0 124 16.5t92 49.5q18 16 32 37t24 44.5t15.5 48t5.5 47.5q0 74 -40.5 112.5t-130.5 38.5 q-35 0 -68 -5t-61.5 -14.5t-51.5 -20.5t-38 -24h-168l214 680h690l-49 -224h-496l-70 -212q38 15 83 24.5t104 9.5q164 0 250.5 -84.5t86.5 -245.5z" />
<glyph unicode="6" horiz-adv-x="1026" d="M451 -25q-190 0 -281.5 94.5t-91.5 268.5q0 99 23.5 204.5t58.5 214.5q42 125 96 214.5t121.5 146.5t151 84t184.5 27q107 0 185.5 -27t140.5 -87l-164 -176q-17 19 -35.5 33.5t-39.5 25t-47 16t-58 5.5q-57 0 -102.5 -20.5t-81.5 -60t-64 -97t-51 -130.5q65 42 124 62.5 t126 20.5q147 0 228 -78t81 -235q0 -102 -34 -194t-98.5 -161t-158 -110t-213.5 -41zM476 185q52 0 94 20.5t72.5 55.5t47 81.5t16.5 99.5q0 29 -8.5 55t-26 46t-45.5 31.5t-68 11.5q-33 0 -64 -6t-58 -16t-49 -21.5t-38 -22.5q-8 -36 -15.5 -79t-7.5 -86q0 -34 7 -65 t24 -54.5t46 -37t73 -13.5z" />
<glyph unicode="7" horiz-adv-x="1091" d="M452 0h-279l627 980h-593l48 224h886l-33 -150z" />
<glyph unicode="8" horiz-adv-x="1026" d="M752 638q40 -23 73.5 -47.5t57.5 -57t37.5 -75.5t13.5 -101q0 -80 -34 -150t-98.5 -121t-158 -81t-211.5 -30q-99 0 -173.5 17.5t-124.5 54t-75 93.5t-25 138q0 107 75 200.5t221 160.5q-34 20 -60.5 42t-44.5 50.5t-27 65t-9 83.5q0 66 27 128.5t83.5 111.5t145 79 t211.5 30q374 0 374 -289q0 -43 -14 -82t-46.5 -76.5t-85.5 -73t-132 -70.5zM570 727q31 13 69.5 30t71 42t54.5 57.5t22 75.5q0 22 -8 42t-26.5 33.5t-47 21.5t-69.5 8q-56 0 -95 -12t-64 -33t-37 -49t-12 -59q0 -16 4.5 -34t19 -37.5t43 -41t75.5 -44.5zM532 549 q-63 -27 -110.5 -53t-79 -56t-47 -66.5t-15.5 -84.5q0 -54 42 -86.5t130 -32.5q55 0 99 13t75 37t47.5 59t16.5 79q0 30 -9.5 55.5t-29 48.5t-49.5 44t-70 43z" />
<glyph unicode="9" horiz-adv-x="1026" d="M636 1229q190 0 281 -94.5t91 -268.5q0 -98 -23.5 -204t-57.5 -215q-41 -125 -95 -214t-122.5 -146.5t-152 -84.5t-183.5 -27q-107 0 -185.5 27t-140.5 87l164 176q33 -37 74.5 -58.5t105.5 -21.5q58 0 103 20.5t81 60t64 97t52 130.5q-66 -41 -125 -62t-127 -21 q-147 0 -227.5 78.5t-80.5 234.5q0 103 34 194.5t98.5 161t158.5 110t213 40.5zM611 1019q-52 0 -94.5 -20.5t-72.5 -55.5t-46.5 -81.5t-16.5 -98.5q0 -29 8.5 -55.5t25.5 -46t45.5 -31t68.5 -11.5q34 0 65 6t58 16t48.5 21t37.5 22q8 36 15 79t7 87q0 34 -7 64.5t-23.5 54 t-45.5 37t-73 13.5z" />
<glyph unicode=":" horiz-adv-x="496" d="M325 177q0 -27 -6.5 -56t-20.5 -57q-22 -41 -58 -58.5t-92 -17.5q-63 0 -88.5 21.5t-25.5 63.5q0 25 6 53.5t17 53.5q19 44 54 64.5t96 20.5q63 0 90.5 -21.5t27.5 -66.5zM461 823q0 -27 -5.5 -55.5t-20.5 -56.5q-22 -40 -57.5 -58.5t-92.5 -18.5q-63 0 -88.5 22 t-25.5 63q0 26 6.5 54t16.5 53q19 45 54.5 66t95.5 21q63 0 90 -22t27 -68z" />
<glyph unicode=";" horiz-adv-x="496" d="M461 823q0 -27 -5.5 -55.5t-20.5 -56.5q-22 -40 -57.5 -58.5t-92.5 -18.5q-63 0 -88.5 22t-25.5 63q0 26 6.5 54t16.5 53q19 45 54.5 66t95.5 21q63 0 90 -22t27 -68zM-27 -255q27 35 51 71.5t43.5 70t33 61t18.5 43.5q-85 6 -85 82q0 48 19 98q17 44 53 69t105 25 q59 0 84.5 -27t25.5 -76q0 -54 -18.5 -108t-44.5 -107q-29 -61 -65 -113t-70 -89h-150z" />
<glyph unicode="&#x3c;" horiz-adv-x="1241" d="M132 418v177l1012 417v-196l-753 -308l753 -309v-196z" />
<glyph unicode="=" horiz-adv-x="1241" d="M141 631v178h1010v-178h-1010zM141 203v178h1010v-178h-1010z" />
<glyph unicode="&#x3e;" horiz-adv-x="1241" d="M132 3v196l754 309l-754 308v196l1012 -417v-177z" />
<glyph unicode="?" horiz-adv-x="914" d="M262 365l53 244q108 45 181.5 82t118.5 72.5t64.5 72t19.5 80.5q0 52 -33.5 77.5t-109.5 25.5q-38 0 -69.5 -9t-59.5 -25.5t-53 -40.5t-51 -57l-175 125q42 56 87 97.5t97 68t111 39t129 12.5q188 0 285 -67.5t97 -211.5q0 -75 -30.5 -138t-87 -117.5t-136 -101.5 t-176.5 -90l-31 -138h-231zM478 171q0 -29 -7.5 -58t-19.5 -52q-22 -39 -57.5 -56t-92.5 -17q-63 0 -89.5 20t-26.5 62q0 24 6 49.5t16 50.5q18 45 53.5 65t97.5 20t91 -19.5t29 -64.5z" />
<glyph unicode="@" horiz-adv-x="1662" d="M1600 607q0 -75 -14 -147.5t-41.5 -138.5t-68 -122t-92.5 -97t-116 -64.5t-139 -23.5q-84 0 -131 35t-59 97q-68 -52 -131 -80.5t-135 -28.5q-74 0 -124 23.5t-81 64t-44.5 96.5t-13.5 121q0 30 5 68t15 78t25 79.5t33 73.5q31 58 73 104t92 78t108 49t121 17 q54 0 96.5 -15t88.5 -46l7 36h184l-129 -606q-5 -27 -5 -44q2 -27 16.5 -33t33.5 -6q55 0 101.5 37t79.5 97.5t51.5 137t18.5 155.5q0 111 -29.5 198.5t-90 147.5t-153.5 91.5t-220 31.5q-106 0 -197.5 -28t-167.5 -78t-136 -119t-101.5 -152.5t-63.5 -178t-22 -194.5 q0 -103 32.5 -183t93 -135t148 -84t198.5 -29q53 0 101.5 1.5t95.5 6.5t95 12t100 19v-157q-106 -24 -214 -32.5t-214 -8.5q-140 0 -252.5 38t-192 112.5t-122.5 185t-43 256.5q0 114 26 225.5t76.5 212.5t124.5 187t171.5 148.5t215.5 97.5t256 35q152 0 273.5 -37.5 t207.5 -114.5t132.5 -194t46.5 -276zM1030 659q-80 60 -157 60q-75 0 -127.5 -33.5t-89.5 -107.5q-13 -28 -23.5 -58t-18 -59t-11 -56t-3.5 -50q0 -42 6 -69.5t19.5 -43.5t35 -23t52.5 -7q34 0 66 7.5t62 21t59 32t59 42.5z" />
<glyph unicode="A" horiz-adv-x="1140" d="M-71 0l643 1204h314l135 -1204h-237l-27 244h-451l-131 -244h-246zM418 459h316l-52 498z" />
<glyph unicode="B" horiz-adv-x="1106" d="M787 648q55 -7 100.5 -26.5t77 -51t49.5 -73.5t18 -94q0 -86 -32.5 -159.5t-94.5 -128t-153 -85t-208 -30.5h-512l255 1204h393q106 0 181.5 -13t123 -42.5t69.5 -78t22 -118.5q0 -52 -15.5 -99.5t-50.5 -87.5t-89.5 -70.5t-133.5 -46.5zM573 733q41 0 84 7t79 25.5 t59 50t23 78.5q0 26 -9 44t-30.5 30t-56.5 17.5t-86 5.5h-153l-55 -258h145zM483 218q24 0 55.5 0.5t63.5 5.5t63 15.5t55 30t38.5 49.5t14.5 73q0 38 -12.5 62t-40 38.5t-71 20.5t-105.5 6h-163l-62 -301h164z" />
<glyph unicode="C" horiz-adv-x="1117" d="M1025 199q-45 -49 -97 -90.5t-113.5 -71t-135 -46t-159.5 -16.5q-222 0 -332.5 109.5t-110.5 345.5q0 42 4.5 93.5t16 109t30.5 117.5t47 119q35 72 85 137.5t117.5 115t153 78.5t192.5 29q88 0 156.5 -16.5t121.5 -47t91 -73.5t64 -96l-212 -130q-19 41 -41 68.5t-49 45 t-61.5 25t-79.5 7.5q-57 0 -103 -16t-84 -45.5t-66.5 -70t-49.5 -87.5q-23 -52 -37.5 -102.5t-24 -96.5t-13.5 -87.5t-4 -73.5q0 -68 16.5 -114.5t43.5 -74t64 -40t77 -12.5q51 0 93.5 8.5t81 27t74.5 48t74 71.5z" />
<glyph unicode="D" horiz-adv-x="1118" d="M1103 802q0 -48 -5 -103.5t-16 -114.5t-28.5 -119t-42 -117t-58 -107t-74.5 -90q-46 -41 -100.5 -70.5t-117.5 -47t-133.5 -25.5t-146.5 -8h-359l254 1204h343q120 0 210.5 -20.5t151 -67.5t91.5 -124t31 -190zM401 224q54 0 99 3.5t83 13t68.5 24.5t55.5 39 q34 34 61.5 91.5t46 124t28.5 135.5t10 125q0 59 -15.5 97t-47.5 60.5t-81 32.5t-114 10h-126l-161 -756h93z" />
<glyph unicode="E" horiz-adv-x="979" d="M32 0l255 1204h766l-46 -217h-526l-53 -256h443l-46 -218h-444l-62 -289h526l-46 -224h-767z" />
<glyph unicode="F" horiz-adv-x="940" d="M479 980l-55 -261h435l-45 -216h-435l-107 -503h-240l255 1204h759l-48 -224h-519z" />
<glyph unicode="G" horiz-adv-x="1205" d="M994 869q-34 71 -96.5 107t-144.5 36q-75 0 -128.5 -18t-93 -51.5t-69 -81.5t-56.5 -109q-18 -42 -31.5 -86t-21.5 -86.5t-12 -82t-4 -73.5q0 -65 11.5 -109t39.5 -71.5t74 -39.5t114 -12q62 0 119.5 15t110.5 43l39 180h-230l46 216h473l-115 -532q-95 -62 -211 -100.5 t-252 -38.5q-119 0 -208 24t-147.5 76.5t-87.5 135t-29 199.5q0 94 20.5 199.5t66.5 208.5q38 84 86.5 159t119 131t167.5 88.5t231 32.5q80 0 145 -13.5t117 -40.5t93.5 -67.5t75.5 -93.5z" />
<glyph unicode="H" horiz-adv-x="1200" d="M738 0l109 512h-466l-109 -512h-240l255 1204h240l-99 -468h465l100 468h240l-255 -1204h-240z" />
<glyph unicode="I" horiz-adv-x="742" d="M559 0h-568l39 189h164l177 826h-164l39 189h568l-39 -189h-164l-176 -826h164z" />
<glyph unicode="J" horiz-adv-x="787" d="M629 328q-18 -90 -51.5 -156.5t-86 -110.5t-125.5 -66t-172 -22q-65 0 -131 12.5t-118 34.5l92 211q30 -15 74 -27.5t92 -12.5q46 0 78 9t55 32t38.5 62.5t28.5 99.5l170 810h241z" />
<glyph unicode="K" horiz-adv-x="1091" d="M690 0l-225 517l-103 -99l-90 -418h-240l255 1204h240l-92 -438l452 438h307l-549 -524l326 -680h-281z" />
<glyph unicode="L" horiz-adv-x="885" d="M32 0l255 1204h240l-208 -980h495l-46 -224h-736z" />
<glyph unicode="M" horiz-adv-x="1421" d="M966 0l171 809l-391 -503h-139l-172 503l-171 -809h-232l255 1204h264l187 -572l430 572h284l-255 -1204h-231z" />
<glyph unicode="N" horiz-adv-x="1202" d="M704 0l-255 860l-182 -860h-235l255 1204h298l240 -812l173 812h237l-255 -1204h-276z" />
<glyph unicode="O" horiz-adv-x="1163" d="M517 -25q-121 0 -205 32t-136 89.5t-75.5 136t-23.5 170.5q0 49 4.5 102.5t15 108.5t27 111.5t40.5 110.5q36 84 85 156.5t115 125t151 82t194 29.5q103 0 184 -27.5t138 -84t87 -140.5t30 -197q0 -59 -14 -145.5t-44 -182.5q-34 -109 -85 -197.5t-121 -150.5t-161 -95.5 t-206 -33.5zM326 422q0 -62 12 -105.5t36 -71t62 -40.5t89 -13q61 0 111 21t89.5 60t70 95t52.5 125q23 71 35.5 142.5t12.5 129.5q0 130 -48 188.5t-156 58.5q-54 0 -98 -16t-80 -47.5t-66 -77t-54 -103.5q-17 -42 -30 -86.5t-21.5 -89.5t-12.5 -88t-4 -82z" />
<glyph unicode="P" horiz-adv-x="1056" d="M1078 901q0 -56 -9 -117.5t-31.5 -120t-59.5 -111.5t-91 -93t-128.5 -63.5t-172.5 -23.5h-235l-79 -372h-240l255 1204h442q84 0 149 -16t109.5 -52t67.5 -94t23 -141zM565 586q80 0 130.5 22.5t78.5 60.5t38.5 89.5t10.5 110.5q0 64 -36 93t-121 29h-183l-85 -405h167z " />
<glyph unicode="Q" horiz-adv-x="1163" d="M693 -303q-93 0 -156 22t-101.5 61t-55 93.5t-16.5 119.5q-78 18 -132.5 55.5t-89 91t-50 120t-15.5 143.5q0 49 4.5 102.5t15 108.5t27 111.5t40.5 110.5q33 80 83 151.5t117.5 125.5t153 85t191.5 31q103 0 184 -27.5t138 -84t87 -140.5t30 -197q0 -59 -13.5 -145.5 t-44.5 -182.5q-25 -77 -64 -153t-96 -139.5t-132.5 -110t-171.5 -63.5q0 -21 5.5 -37.5t19 -27.5t35.5 -17t57 -6q19 0 43 2.5t49 6t48.5 8.5t41.5 10l12 -197q-23 -8 -56.5 -13.5t-68 -9.5t-66.5 -6t-53 -2zM326 422q0 -62 12 -105.5t36 -71t62 -40.5t89 -13q66 0 117.5 24 t91.5 64.5t69.5 94.5t48.5 113q22 71 33 142t11 135q0 130 -48 188.5t-156 58.5q-56 0 -101.5 -19t-82.5 -52.5t-66 -77.5t-50 -95q-17 -42 -29.5 -86.5t-20.5 -89.5t-12 -88t-4 -82z" />
<glyph unicode="R" horiz-adv-x="1093" d="M702 0l-194 456h-139l-97 -456h-240l255 1204h420q102 0 175 -15t119.5 -50t68.5 -92.5t22 -141.5q0 -39 -9 -82.5t-25.5 -86.5t-42 -83.5t-58.5 -73.5q-43 -41 -96.5 -66t-105.5 -35l216 -478h-269zM590 670q72 0 117 12t72 39q14 15 25 34.5t18.5 41t11.5 42.5t4 40 q0 31 -8 52.5t-26 35t-47 19t-71 5.5h-203l-70 -321h177z" />
<glyph unicode="S" horiz-adv-x="1047" d="M218 344q15 -33 34.5 -60.5t48.5 -48t69 -32t97 -11.5q48 0 91.5 10.5t76.5 29.5t52.5 44t19.5 55q0 33 -4.5 55t-27.5 42t-69.5 40.5t-129.5 48.5q-79 26 -138.5 54t-100 66.5t-60.5 90.5t-20 125q0 71 31.5 139t93.5 120.5t152.5 84.5t210.5 32q148 0 251.5 -53.5 t172.5 -160.5l-216 -146q-17 34 -38.5 60.5t-51 45t-67 28t-87.5 9.5q-43 0 -79 -9t-62.5 -26.5t-41 -42.5t-14.5 -57q0 -30 12 -51t37.5 -38.5t65.5 -33t97 -33.5q92 -28 157 -62.5t105.5 -77.5t59 -97t18.5 -122q0 -86 -37 -157.5t-104.5 -122.5t-162.5 -79t-211 -28 q-178 0 -290.5 57t-158.5 167z" />
<glyph unicode="T" horiz-adv-x="1026" d="M745 980l-207 -980h-240l207 980h-364l48 224h967l-48 -224h-363z" />
<glyph unicode="U" horiz-adv-x="1225" d="M1103 479q-30 -144 -79 -241t-119 -156t-162.5 -84t-210.5 -25q-202 0 -307.5 87t-105.5 273q0 32 5 81.5t19 109.5l144 680h240l-144 -684q-11 -47 -15 -93t-4 -80q0 -44 12.5 -74t36.5 -48.5t59.5 -26t81.5 -7.5q61 0 110 13.5t88 50t67.5 100t49.5 162.5l146 687h241z " />
<glyph unicode="V" horiz-adv-x="1060" d="M573 0h-282l-109 1204h230l74 -908l456 908h253z" />
<glyph unicode="W" horiz-adv-x="1562" d="M1124 0h-245l-29 796l-369 -796h-243l-42 1204h234l22 -791l361 791h238l29 -791l362 791h243z" />
<glyph unicode="X" horiz-adv-x="1096" d="M-70 0l526 627l-253 577h258l165 -398l326 398h279l-513 -598l256 -606h-256l-171 428l-338 -428h-279z" />
<glyph unicode="Y" horiz-adv-x="1011" d="M627 459l-96 -459h-242l96 454l-210 750h247l123 -512l342 512h269z" />
<glyph unicode="Z" horiz-adv-x="977" d="M-34 0l41 207l692 773h-502l49 224h803l-41 -197l-700 -783h547l-46 -224h-843z" />
<glyph unicode="[" horiz-adv-x="652" d="M-37 -344l345 1639h469l-37 -180h-264l-273 -1279h264l-37 -180h-467z" />
<glyph unicode="\" horiz-adv-x="883" d="M534 -260l-263 1582h210l262 -1582h-209z" />
<glyph unicode="]" horiz-adv-x="652" d="M-116 -344l38 180h262l272 1279h-264l38 180h469l-348 -1639h-467z" />
<glyph unicode="^" horiz-adv-x="1030" d="M796 565l-148 450l-340 -450h-180l479 639h148l207 -639h-166z" />
<glyph unicode="_" horiz-adv-x="890" d="M-144 -223l20 89h908l-19 -89h-909z" />
<glyph unicode="`" horiz-adv-x="890" d="M556 1051l-198 314h261l102 -314h-165z" />
<glyph unicode="a" d="M57 299q0 69 13.5 143t40.5 145t67 135t93.5 112t119 76.5t143.5 28.5q81 0 141.5 -24.5t101.5 -69.5l14 68h217l-190 -913h-184l5 112q-45 -38 -83.5 -64.5t-74.5 -43t-71.5 -24t-74.5 -7.5q-65 0 -116.5 18.5t-87 58t-55 101t-19.5 148.5zM738 659q-14 16 -33 31 t-42 26t-48 18t-52 7q-46 0 -84 -19t-68 -51.5t-52 -75t-37 -87.5t-22.5 -91t-7.5 -86q0 -83 28 -121.5t88 -38.5q34 0 68.5 10.5t67 26.5t62 36t53.5 40z" />
<glyph unicode="b" d="M201 0h-172l274 1295h219l-97 -455q32 23 66.5 41.5t69 31t68 19.5t63.5 7q69 0 123 -18.5t91 -57.5t56 -101t19 -149q0 -63 -10.5 -127.5t-31 -126t-50 -118.5t-66.5 -105q-60 -79 -142 -121t-188 -42q-84 0 -144 30t-103 79zM301 253q14 -15 33 -30t41.5 -26.5 t48 -18.5t52.5 -7q43 0 89.5 22t85.5 76q20 27 37.5 63.5t30.5 78t20 85t7 85.5q0 83 -30 121.5t-103 38.5q-27 0 -57 -7t-59 -18.5t-57 -28t-52 -35.5z" />
<glyph unicode="c" horiz-adv-x="903" d="M793 130q-34 -37 -76 -66t-90 -49.5t-100 -31t-107 -10.5q-98 0 -167 24.5t-112 72t-62.5 117.5t-19.5 160q0 51 11.5 114.5t36 129t64.5 128t97.5 111.5t134 79t175.5 30q65 0 116.5 -10t93 -30t73 -50t55.5 -70l-185 -116q-25 41 -62.5 60.5t-102.5 19.5q-51 0 -91 -20 t-71 -53t-52 -75.5t-35 -87t-20 -88t-6 -77.5q0 -40 6.5 -72t23.5 -54.5t47 -34t76 -11.5q59 0 110 23.5t92 66.5z" />
<glyph unicode="d" d="M57 299q0 64 11 128.5t31.5 125.5t50 118t66.5 106q60 79 142 120.5t187 41.5q73 0 132 -24.5t100 -69.5l96 450h217l-272 -1295h-201l17 89q-70 -54 -143 -85t-144 -31q-69 0 -123 18.5t-91 58t-56.5 101t-19.5 148.5zM388 643q-20 -28 -37.5 -64t-30.5 -77t-20.5 -85 t-7.5 -86q0 -82 30 -121t103 -39q27 0 57.5 7t60.5 19t58.5 28.5t52.5 34.5l84 399q-14 16 -33 31t-42 26t-48 18t-52 7q-43 0 -89.5 -22t-85.5 -76z" />
<glyph unicode="e" horiz-adv-x="974" d="M294 398q-4 -20 -5.5 -40t-1.5 -35q0 -81 41 -117t119 -36q79 0 134 22.5t101 64.5l125 -143q-34 -33 -70 -59t-80.5 -44.5t-100.5 -28t-128 -9.5q-101 0 -171.5 27t-115 74t-64.5 110.5t-20 136.5q0 116 35 227t105 211q29 40 67 73t85.5 57t104 37t122.5 13 q91 0 157.5 -21t109.5 -61.5t63.5 -99.5t20.5 -135q0 -19 -3.5 -50t-9.5 -59l-23 -115h-597zM700 552q5 22 7 40t2 35q0 67 -31.5 100t-111.5 33q-60 0 -101 -20.5t-71 -59.5q-20 -25 -37 -59t-27 -69h370z" />
<glyph unicode="f" horiz-adv-x="562" d="M733 1101q-28 13 -55 19t-58 6q-61 0 -94 -28.5t-47 -96.5l-20 -88h182l-37 -179h-182l-155 -734h-221l155 734h-112l37 179h112l20 88q16 76 43 135.5t70.5 101t106.5 63t151 21.5q55 0 102 -8.5t82 -21.5z" />
<glyph unicode="g" d="M821 17q-19 -91 -54 -159t-94.5 -112.5t-148 -67t-214.5 -22.5q-55 0 -107 6t-98.5 16t-86.5 24t-69 33l101 183q57 -30 127 -48t146 -18q68 0 116.5 9.5t81 31t52 54.5t29.5 80l17 75q-31 -23 -63.5 -41.5t-65 -32t-64.5 -21t-61 -7.5q-80 0 -137 20.5t-94 63t-54 108.5 t-17 159q0 71 14 142.5t42.5 136.5t70.5 121.5t97.5 98t123 65.5t148.5 24q36 0 70.5 -9t65 -23.5t56 -35t43.5 -45.5l47 87h169zM736 659q-37 42 -80.5 62t-99.5 20q-44 0 -80.5 -17.5t-65 -47t-50.5 -68t-36 -81t-21 -85.5t-7 -80q0 -44 6.5 -75.5t21.5 -51t40 -29 t61 -9.5q52 0 109.5 20.5t123.5 69.5z" />
<glyph unicode="h" d="M604 0l107 503q9 47 15.5 84.5t6.5 70.5q0 45 -21 64t-61 19q-33 0 -68.5 -11t-70.5 -29.5t-69.5 -42.5t-66.5 -49l-128 -609h-219l274 1295h219l-107 -501q34 30 72 56.5t78.5 46t84.5 31t91 11.5q62 0 104 -18t68 -48t36.5 -69.5t10.5 -82.5q0 -40 -5 -80t-11 -65 l-121 -576h-219z" />
<glyph unicode="i" horiz-adv-x="468" d="M29 0l192 913h219l-192 -913h-219zM257 1131q0 18 6 43t22 47.5t44.5 38t73.5 15.5q59 0 84 -21.5t25 -59.5q0 -21 -7 -47t-24 -48t-45.5 -37t-71.5 -15q-31 0 -52 6t-33 17t-17 26.5t-5 34.5z" />
<glyph unicode="j" horiz-adv-x="479" d="M251 -39q-17 -82 -46.5 -140t-74 -94.5t-106 -53.5t-141.5 -17q-15 0 -37.5 2t-48 5t-50.5 7.5t-46 11.5l87 195q28 -12 58 -18.5t67 -6.5q32 0 53 10t35 32t23.5 55.5t19.5 82.5l187 881h221zM269 1131q0 18 6 43t22 47.5t45 38t73 15.5q59 0 84 -21.5t25 -59.5 q0 -21 -7 -47t-24 -48t-45.5 -37t-71.5 -15q-31 0 -51.5 6t-33 17t-17.5 26.5t-5 34.5z" />
<glyph unicode="k" horiz-adv-x="936" d="M581 0l-161 385l-114 -101l-58 -284h-219l274 1295h219l-153 -725l358 343h269l-413 -389l238 -524h-240z" />
<glyph unicode="l" horiz-adv-x="468" d="M29 0l274 1295h219l-274 -1295h-219z" />
<glyph unicode="m" horiz-adv-x="1526" d="M1092 0l114 538q9 44 13.5 76t4.5 54q0 39 -20 56t-55 17q-25 0 -54.5 -10.5t-61 -28t-63 -42t-62.5 -51.5l-128 -609h-221l114 538q10 44 14.5 75t4.5 43q0 20 -3 35.5t-10.5 27t-22.5 17t-39 5.5q-28 0 -59 -11.5t-63 -30.5t-62.5 -42.5t-56.5 -47.5l-128 -609h-219 l192 913h219l-25 -119q76 69 151 107t150 38q97 0 150.5 -40t58.5 -124q47 39 88.5 69.5t80 51.5t74.5 32t72 11q62 0 103.5 -15.5t66.5 -43t35.5 -64.5t10.5 -82q0 -32 -4 -68t-14 -76l-125 -590h-221z" />
<glyph unicode="n" d="M604 0l107 503q9 47 15.5 85t6.5 75q0 42 -20.5 60t-58.5 18q-34 0 -70 -11t-71.5 -29.5t-70 -42.5t-66.5 -49l-128 -609h-219l192 913h219l-25 -119q34 30 71.5 56.5t78 46t83.5 31t88 11.5q64 0 107 -18t69 -48t37 -69.5t11 -82.5q0 -40 -5 -80t-11 -65l-121 -576h-219 z" />
<glyph unicode="o" horiz-adv-x="1013" d="M59 331q0 47 8.5 106.5t28 122.5t51.5 124.5t81 111.5q65 69 152 106t212 37q82 0 149.5 -23t115 -69.5t73 -117t25.5 -164.5q0 -43 -9.5 -101.5t-31 -122t-56.5 -126t-86 -113.5q-37 -37 -74.5 -61t-80 -39.5t-91 -22t-108.5 -6.5q-97 0 -165.5 25t-111.5 72t-62.5 113 t-19.5 148zM291 328q0 -37 7.5 -67t25.5 -50t47 -30.5t71 -10.5q57 0 100 22.5t77 60.5q23 28 43 67t34 81.5t22 83.5t8 74q0 89 -40 136.5t-121 47.5q-55 0 -98.5 -24.5t-75.5 -64.5q-23 -28 -41.5 -67.5t-32 -83t-20 -88.5t-6.5 -87z" />
<glyph unicode="p" d="M175 -344h-218l264 1257h201l-17 -90q70 54 143 85t144 31q69 0 123 -18.5t91 -57.5t56 -101t19 -149q0 -54 -10.5 -123t-34 -140.5t-61.5 -138.5t-92 -120.5t-126 -85.5t-164 -32q-72 0 -131.5 24.5t-99.5 70.5zM301 253q14 -15 33 -30t41.5 -26.5t48 -18.5t52.5 -7 q46 0 84 19.5t68 52t52 74t37 87.5t22 91.5t7 85.5q0 83 -30 121.5t-103 38.5q-27 0 -57.5 -7t-60.5 -18.5t-58 -28t-52 -35.5z" />
<glyph unicode="q" d="M611 73q-40 -29 -75.5 -48t-67 -30.5t-61.5 -16.5t-60 -5q-69 0 -123 18.5t-91 60t-56.5 107t-19.5 159.5q0 61 13.5 131t39 139.5t64.5 132.5t91 111.5t117 77.5t143 29q87 0 153.5 -26.5t115.5 -86.5l47 87h169l-265 -1257h-220zM738 659q-14 16 -33 31t-42 26t-48 18 t-52 7q-54 0 -94.5 -21.5t-71 -57.5t-50.5 -80.5t-32 -90t-17.5 -87.5t-5.5 -73q0 -82 30 -121t103 -39q27 0 57.5 7t60.5 19t58.5 28.5t52.5 34.5z" />
<glyph unicode="r" horiz-adv-x="716" d="M713 692q-13 7 -35.5 13t-51.5 6q-60 0 -121.5 -30.5t-132.5 -87.5l-124 -593h-219l192 913h219l-27 -131q74 71 142 108t133 37q16 0 33 -2t32 -4.5t27.5 -6t19.5 -7.5z" />
<glyph unicode="s" horiz-adv-x="875" d="M184 250q15 -28 34.5 -46t43 -28.5t50.5 -14.5t57 -4q95 0 137.5 27.5t42.5 72.5q0 18 -5.5 32.5t-23 27.5t-50 25.5t-85.5 26.5q-78 20 -129 44.5t-81.5 56.5t-43 72t-12.5 90q0 61 25.5 117t75 98t123.5 67t172 25q120 0 205 -37t144 -120l-189 -119q-23 43 -69.5 67.5 t-112.5 24.5q-40 0 -68 -8.5t-46.5 -21.5t-26.5 -28.5t-8 -28.5q0 -19 4.5 -34t19.5 -27.5t41.5 -23.5t69.5 -22q85 -22 141.5 -47.5t90.5 -57.5t48 -72.5t14 -92.5q0 -68 -27 -126t-79.5 -100.5t-130.5 -67t-179 -24.5q-77 0 -134 10.5t-99.5 30.5t-73.5 49.5t-55 68.5z " />
<glyph unicode="t" horiz-adv-x="630" d="M522 0q-42 -13 -93 -20t-92 -7q-66 0 -112.5 15t-76 43.5t-43 68t-13.5 89.5q0 25 4 53.5t11 60.5l90 431h-112l38 179h112l56 254h221l-56 -254h209l-38 -179h-209l-90 -430q-4 -20 -6.5 -36.5t-2.5 -30.5q0 -45 19 -62t48 -17q32 0 69 5.5t67 16.5v-180z" />
<glyph unicode="u" d="M435 913l-107 -503q-10 -47 -15 -83t-5 -63q0 -53 19.5 -73t58.5 -20q34 0 69.5 11t71 29.5t70 42.5t66.5 49l128 610h219l-192 -913h-219l25 117q-34 -29 -71.5 -55t-77 -45.5t-81 -31.5t-83.5 -12q-67 0 -111.5 18t-71.5 48t-38.5 69.5t-11.5 82.5q0 40 5.5 80t11.5 66 l121 576h219z" />
<glyph unicode="v" horiz-adv-x="887" d="M447 0h-203l-125 913h214l73 -610l317 610h237z" />
<glyph unicode="w" horiz-adv-x="1334" d="M976 0h-201l-78 581l-325 -581h-201l-52 913h219l15 -588l324 588h166l80 -583l257 583h228z" />
<glyph unicode="x" horiz-adv-x="919" d="M554 0l-129 294l-229 -294h-264l403 476l-207 437h239l125 -284l234 284h263l-406 -464l216 -449h-245z" />
<glyph unicode="y" horiz-adv-x="924" d="M-102 -123q36 -14 70.5 -19.5t61.5 -5.5q25 0 48.5 8.5t48 28.5t50 53t54.5 81l33 54l-145 836h219l90 -588l337 588h235l-592 -976q-44 -74 -86 -127t-88.5 -87t-101.5 -50.5t-127 -16.5q-42 0 -89 9.5t-94 23.5z" />
<glyph unicode="z" horiz-adv-x="792" d="M-46 0l32 164l527 570h-396l38 179h671l-33 -163l-529 -572h420l-38 -178h-692z" />
<glyph unicode="{" horiz-adv-x="780" d="M499 -344q-153 0 -222.5 59t-69.5 173q0 39 5.5 73.5t11.5 67.5l22 103q5 25 9.5 54t4.5 58q0 71 -35 110.5t-116 39.5h-34l41 192h34q55 0 95.5 16.5t70 49t49.5 81.5t34 115l25 121q19 88 48.5 154t76 110.5t113 66.5t159.5 22h92l-38 -180h-35q-50 0 -85.5 -10 t-60 -32t-40.5 -57.5t-27 -85.5l-30 -144q-31 -143 -97 -224.5t-185 -105.5q36 -13 64.5 -34t48.5 -48.5t30.5 -60t10.5 -68.5q0 -28 -5.5 -61.5t-9.5 -55.5l-26 -133q-4 -23 -8.5 -44.5t-4.5 -48.5q0 -47 31 -70t85 -23h66l-38 -180h-60z" />
<glyph unicode="|" horiz-adv-x="696" d="M292 -344v1666h208v-1666h-208z" />
<glyph unicode="}" horiz-adv-x="780" d="M289 1322q152 0 222 -59.5t70 -172.5q0 -39 -5.5 -73t-12.5 -67l-21 -103q-6 -26 -10.5 -54.5t-4.5 -58.5q0 -71 35.5 -110t116.5 -39h34l-41 -193h-34q-56 0 -96.5 -16t-70 -48.5t-49.5 -81.5t-34 -116l-24 -121q-19 -88 -49 -154t-76.5 -110t-113 -66.5t-159.5 -22.5 h-90l37 180h36q49 0 84.5 10t60 32t40.5 57t26 87l31 143q30 144 96 225t185 105q-36 13 -64.5 34t-48 48.5t-30 60t-10.5 68.5q0 27 5 60.5t9 56.5l27 134q5 23 8.5 44t3.5 48q0 47 -30.5 70t-84.5 23h-66l37 180h61z" />
<glyph unicode="~" horiz-adv-x="1181" d="M177 704q53 39 96.5 60.5t77.5 32t58 12.5t40 2q63 0 116.5 -21.5t100.5 -47.5t89.5 -47.5t85.5 -21.5q68 0 138.5 33.5t154.5 95.5l-42 -193q-33 -23 -67 -43.5t-67.5 -36.5t-67 -25t-65.5 -9q-67 0 -122.5 21.5t-103 47.5t-89.5 47t-82 21q-39 0 -77.5 -10.5 t-75.5 -28.5t-72.5 -41t-68.5 -47z" />
<glyph unicode="&#xa1;" horiz-adv-x="496" d="M182 568h183l-166 -912h-238zM177 755q0 30 7 59t19 52q21 39 57 56t93 17q63 0 89.5 -20t26.5 -62q0 -24 -6 -50t-16 -50q-19 -45 -54 -65t-97 -20t-90.5 19.5t-28.5 63.5z" />
<glyph unicode="&#xa2;" horiz-adv-x="908" d="M793 130q-34 -37 -76 -66t-90 -49.5t-100 -31t-107 -10.5h-26l-68 -199h-144l75 223q-106 36 -152 124t-46 226q0 50 11 113t35.5 128.5t64.5 128.5t97 112.5t133 79.5t173 30l63 182h144l-66 -196q71 -18 118.5 -54t83.5 -92l-185 -116q-15 25 -35 41.5t-48 26.5 l-189 -561q60 5 105 28t82 62zM291 342q0 -47 6.5 -83t28.5 -58l180 533q-40 -11 -71 -36t-55 -58t-41 -72t-28 -79t-15.5 -78.5t-4.5 -68.5z" />
<glyph unicode="&#xa3;" horiz-adv-x="1091" d="M30 0l41 194q51 11 87.5 43.5t61.5 74t40 88t22 86.5h-129l36 173h103q0 19 -1.5 42.5t-1.5 66.5q0 107 31.5 192t91.5 144t144 90.5t189 31.5q65 0 119 -12t98.5 -36.5t80 -64.5t65.5 -96l-197 -116q-19 59 -68.5 93t-123.5 34q-53 0 -93 -19.5t-66 -53t-39 -78 t-13 -93.5q0 -31 0.5 -61t3.5 -64h306l-36 -173h-279q-17 -72 -54 -142t-102 -126h608l-44 -218h-881z" />
<glyph unicode="&#xa4;" horiz-adv-x="1113" d="M228 136l-107 108l123 118q-33 52 -47.5 104t-14.5 97q0 46 14.5 99t47.5 103l-123 119l107 109l123 -122q52 36 105.5 49.5t99.5 13.5q50 0 103.5 -15t100.5 -48l124 122l109 -109l-126 -119q37 -54 50 -106.5t13 -95.5q0 -45 -14.5 -97t-48.5 -104l126 -118l-109 -108 l-124 121q-45 -33 -97.5 -48t-106.5 -15q-46 0 -100 14t-105 49zM777 565q0 47 -18.5 87.5t-49.5 69t-70.5 44.5t-80.5 16q-47 0 -88 -17.5t-71 -47.5t-47 -69t-17 -83q0 -45 17.5 -85t47.5 -70t70.5 -47.5t85.5 -17.5t85.5 17.5t70.5 47.5t47.5 70t17.5 85z" />
<glyph unicode="&#xa5;" horiz-adv-x="1091" d="M713 581l-52 -69l-7 -27h285l-32 -154h-283l-70 -331h-226l70 331h-286l34 154h286l5 23l-24 73h-248l34 155h168l-143 468h232l129 -477l335 477h251l-346 -468h168l-34 -155h-246z" />
<glyph unicode="&#xa6;" horiz-adv-x="741" d="M331 768v554h136v-554h-136zM331 -344v555h136v-555h-136z" />
<glyph unicode="&#xa7;" horiz-adv-x="880" d="M816 474q0 -47 -18.5 -91t-51 -82.5t-74 -71.5t-87.5 -59q40 -40 60.5 -86t20.5 -109q0 -64 -25 -118t-75 -93t-125 -61t-174 -22q-61 0 -109 10.5t-84.5 30t-62.5 44.5t-43 54l162 114q21 -33 62.5 -53t108.5 -20q37 0 64.5 8t47 21.5t29.5 30t10 33.5q0 16 -3.5 29 t-22.5 33.5t-57.5 54t-108.5 89.5q-42 34 -76 65.5t-57.5 65.5t-36 73t-12.5 88q0 40 19 80t50 77.5t73 71t88 60.5q-38 39 -60 83.5t-22 112.5q0 57 23.5 110t69.5 93.5t116 64.5t162 24q68 0 118 -10.5t88.5 -28.5t67.5 -43.5t54 -56.5l-162 -114q-16 18 -33 31.5t-39 23 t-48.5 14t-61.5 4.5q-41 0 -68 -8.5t-43.5 -22t-23 -29.5t-6.5 -30q0 -19 5.5 -34.5t25 -37.5t57.5 -54.5t104 -84.5q54 -42 90 -76.5t57 -67t29 -64t8 -66.5zM454 274q74 37 114.5 81.5t40.5 88.5q0 18 -9 36t-29.5 40t-53 50t-79.5 64q-45 -25 -75 -47t-47.5 -43 t-24.5 -40t-7 -37q0 -28 20 -55.5t47.5 -53.5t56.5 -47.5t46 -36.5z" />
<glyph unicode="&#xa8;" horiz-adv-x="890" d="M520 1167q0 -19 -4 -39t-13 -40q-19 -36 -51 -50.5t-81 -14.5q-57 0 -78 18.5t-21 54.5q0 13 3 33t12 42q16 40 47.5 56.5t83.5 16.5q55 0 78.5 -19t23.5 -58zM891 1167q0 -19 -4 -39t-14 -40q-19 -36 -50.5 -50.5t-81.5 -14.5q-56 0 -77 18.5t-21 54.5q0 13 3 33t12 42 q15 40 47 56.5t84 16.5q55 0 78.5 -19t23.5 -58z" />
<glyph unicode="&#xa9;" horiz-adv-x="1567" d="M784 -171q-98 0 -188 24.5t-167.5 70.5t-141 109.5t-109 141.5t-70 168t-24.5 188q0 97 24.5 186.5t70 167t109 141t141.5 109t167.5 70t187.5 24.5q146 0 273 -54t222 -149t149 -222t54 -273q0 -98 -24.5 -188t-69.5 -168t-108.5 -141.5t-141 -109.5t-167.5 -70.5 t-187 -24.5zM784 -36q117 0 219 45t177.5 122t119 180t43.5 220q0 77 -19.5 149.5t-55.5 134.5t-87 113.5t-113 88.5t-134 57t-150 20q-117 0 -219 -44.5t-178 -120.5t-119.5 -179t-43.5 -219q0 -78 20 -150.5t56.5 -135t87 -114.5t113 -89t134 -57.5t149.5 -20.5zM806 148 q-189 0 -278.5 98.5t-89.5 285.5t88.5 287.5t275.5 100.5q58 0 102.5 -11.5t80 -33.5t63.5 -53.5t53 -71.5l-153 -87q-14 21 -27.5 38.5t-30.5 30t-38.5 20t-51.5 7.5q-47 0 -80 -13t-54 -40t-30.5 -70t-9.5 -104t10 -104t31.5 -70t55 -38.5t79.5 -11.5q29 0 51 6.5 t40.5 18.5t34 29t31.5 39l156 -83q-27 -35 -56.5 -66t-65 -54t-81 -36.5t-106.5 -13.5z" />
<glyph unicode="&#xaa;" horiz-adv-x="710" d="M148 814q0 45 8 93t25 94.5t43.5 88t61 73.5t78.5 50t97 18q52 0 93 -16t66 -47l11 46h156l-124 -594h-136l4 73q-31 -25 -55.5 -42t-48 -28t-47 -16t-50.5 -5q-85 0 -133.5 50t-48.5 162zM593 1039q-17 22 -47 37.5t-63 15.5q-43 0 -74 -24t-51 -60.5t-29.5 -80 t-9.5 -82.5q0 -54 16.5 -79t55.5 -25q21 0 42 6.5t41.5 17t38.5 23t32 25.5z" />
<glyph unicode="&#xab;" horiz-adv-x="1224" d="M328 46l-277 410l441 410h260l-446 -419l272 -401h-250zM816 46l-276 410l440 410h260l-446 -419l272 -401h-250z" />
<glyph unicode="&#xac;" horiz-adv-x="1241" d="M946 282v415h-830v178h1010v-593h-180z" />
<glyph unicode="&#xad;" horiz-adv-x="669" d="M46 347l46 221h532l-46 -221h-532z" />
<glyph unicode="&#xae;" horiz-adv-x="1567" d="M784 -171q-98 0 -188 24.5t-167.5 70.5t-141 109.5t-109 141.5t-70 168t-24.5 188q0 97 24.5 186.5t70 167t109 141t141.5 109t167.5 70t187.5 24.5q146 0 273 -54t222 -149t149 -222t54 -273q0 -98 -24.5 -188t-69.5 -168t-108.5 -141.5t-141 -109.5t-167.5 -70.5 t-187 -24.5zM784 -36q117 0 219 45t177.5 122t119 180t43.5 220q0 77 -19.5 149.5t-55.5 134.5t-87 113.5t-113 88.5t-134 57t-150 20q-117 0 -219 -44.5t-178 -120.5t-119.5 -179t-43.5 -219q0 -78 20 -150.5t56.5 -135t87 -114.5t113 -89t134 -57.5t149.5 -20.5zM512 175 v739h265q66 0 121 -10.5t94 -36.5t60.5 -69.5t21.5 -109.5q0 -84 -33.5 -136.5t-92.5 -77.5l208 -299h-217l-184 267h-65v-267h-178zM690 593h83q40 0 63 5t34.5 15.5t15 26.5t3.5 39q0 20 -3.5 35.5t-15 26t-33 15t-57.5 4.5h-90v-167z" />
<glyph unicode="&#xaf;" horiz-adv-x="890" d="M294 1092l34 161h573l-34 -161h-573z" />
<glyph unicode="&#xb0;" horiz-adv-x="755" d="M768 1080q0 -57 -21.5 -106.5t-58.5 -86.5t-86.5 -58.5t-102.5 -21.5q-56 0 -105.5 21.5t-86.5 58.5t-59 86.5t-22 106.5q0 56 22 105.5t59 85.5t86 56.5t104 20.5q56 0 105.5 -21t86.5 -58t58 -86t21 -103zM611 1078q0 24 -9 45t-24 36t-35.5 24t-43.5 9q-26 0 -47 -9 t-36.5 -25t-24 -36.5t-8.5 -41.5q0 -25 8.5 -45.5t24.5 -36.5t37 -25t46 -9q23 0 43.5 9t35.5 24.5t24 36t9 44.5z" />
<glyph unicode="&#xb1;" horiz-adv-x="1241" d="M729 721v-415h-178v415h-417v179h417v416h178v-416h415v-179h-415zM134 0v178h1010v-178h-1010z" />
<glyph unicode="&#xb2;" horiz-adv-x="807" d="M98 563l34 158q52 28 109 63t111.5 70t101 69t77.5 60q10 10 21 21.5t20 25t15 28t6 29.5q0 24 -14 40.5t-57 16.5q-47 0 -88.5 -22t-71.5 -55l-148 106q39 39 78 67t79.5 46.5t84.5 27t93 8.5q78 0 131 -15t85.5 -41.5t46 -62t13.5 -77.5q0 -36 -10.5 -68t-29.5 -61 t-46 -55.5t-60 -50.5q-20 -15 -50 -35.5t-64.5 -41.5t-70.5 -42.5t-66 -37.5h342l-37 -171h-635z" />
<glyph unicode="&#xb3;" horiz-adv-x="807" d="M765 796q0 -55 -25.5 -100t-72.5 -77.5t-114.5 -51t-153.5 -18.5q-62 0 -111 11.5t-84.5 31.5t-59 47t-35.5 58l180 89q15 -33 46 -55t89 -22q52 0 85 24t33 61q0 42 -25 60.5t-82 18.5h-98l32 154h87q35 0 63 3.5t47.5 12t30 23t10.5 35.5q0 28 -20.5 44t-64.5 16 q-50 0 -88 -17t-70 -50l-138 93q32 32 67 57t74.5 42.5t85.5 26.5t99 9q143 0 207 -48.5t64 -132.5q0 -65 -40.5 -109.5t-137.5 -71.5q62 -16 91 -54.5t29 -109.5z" />
<glyph unicode="&#xb4;" horiz-adv-x="890" d="M611 1051h-187l212 314h284z" />
<glyph unicode="&#xb5;" horiz-adv-x="1024" d="M816 0h-203l16 97q-55 -61 -109.5 -92.5t-120.5 -31.5q-52 0 -88 15.5t-68 45.5l-81 -378h-217l264 1257h219l-137 -653q7 -16 21.5 -32t34 -28t43 -19.5t48.5 -7.5q62 0 114 26t104 79l133 635h219z" />
<glyph unicode="&#xb6;" horiz-adv-x="1125" d="M1051 1025l-291 -1369h-197l290 1369h-139l-290 -1369h-200l164 781q-65 7 -118 29t-90 62t-57.5 99.5t-20.5 142.5q0 53 11.5 105.5t37.5 101t67.5 90t100.5 72t136 48t176 17.5h620l-37 -179h-163z" />
<glyph unicode="&#xb7;" horiz-adv-x="496" d="M412 697q0 -27 -6.5 -56t-20.5 -57q-22 -41 -58 -58.5t-92 -17.5q-63 0 -88.5 21.5t-25.5 63.5q0 25 6 53.5t17 53.5q19 44 54 64.5t96 20.5q63 0 90.5 -21.5t27.5 -66.5z" />
<glyph unicode="&#xb8;" horiz-adv-x="890" d="M510 -155q0 -49 -19 -84.5t-55.5 -58.5t-87.5 -34.5t-117 -11.5q-44 0 -78.5 5.5t-60.5 12.5t-45 15t-33 15l78 118q39 -20 77 -30t74 -10q21 0 38.5 3.5t31 9t21.5 15t8 22.5q0 11 -6.5 21.5t-22 19t-42 13.5t-66.5 7l101 141h129l-39 -54q21 -5 41 -15.5t36.5 -27 t26.5 -39.5t10 -53z" />
<glyph unicode="&#xb9;" horiz-adv-x="807" d="M364 563l101 481h-198l29 132q61 2 104 9.5t74 22.5t52.5 39.5t39.5 60.5h174l-159 -745h-217z" />
<glyph unicode="&#xba;" horiz-adv-x="682" d="M734 1010q0 -33 -4 -69.5t-14 -73.5t-26 -72.5t-39 -67.5q-52 -66 -115.5 -94.5t-147.5 -28.5q-128 0 -184 57.5t-56 171.5q0 47 12.5 107t42.5 119q43 82 116 127t178 45q117 0 177 -56t60 -165zM508 791q31 39 45.5 94t14.5 108q0 54 -20 75.5t-69 21.5 q-33 0 -63.5 -15t-55.5 -56q-22 -38 -34.5 -85t-12.5 -94q0 -49 19 -72t64 -23q35 0 62.5 9.5t49.5 36.5z" />
<glyph unicode="&#xbb;" horiz-adv-x="1224" d="M893 866l275 -410l-439 -410h-260l445 419l-271 401h250zM405 866l275 -410l-440 -410h-260l445 419l-270 401h250z" />
<glyph unicode="&#xbc;" horiz-adv-x="1764" d="M478 -44h-216l893 1295h219zM253 462l101 481h-198l29 132q61 2 104 9.5t74 22.5t52.5 39.5t39.5 60.5h174l-159 -745h-217zM1447 123l-29 -139h-199l28 139h-419l32 145l520 461h197l-98 -456h100l-32 -150h-100zM1329 504l-260 -231h210z" />
<glyph unicode="&#xbd;" horiz-adv-x="1764" d="M433 -44h-216l893 1295h219zM253 462l101 481h-198l29 132q61 2 104 9.5t74 22.5t52.5 39.5t39.5 60.5h174l-159 -745h-217zM877 -17l34 158q52 28 109 63t111.5 70t101 69t77.5 60q10 10 21 21.5t20 25t15 28t6 29.5q0 24 -14 40.5t-57 16.5q-47 0 -88.5 -22t-71.5 -55 l-148 106q39 39 78 67t79.5 46.5t84.5 27t93 8.5q78 0 131 -15t85.5 -41.5t46 -62t13.5 -77.5q0 -36 -10.5 -68t-29.5 -61t-46 -55.5t-60 -50.5q-20 -15 -50 -35.5t-64.5 -41.5t-70.5 -42.5t-66 -37.5h342l-37 -171h-635z" />
<glyph unicode="&#xbe;" horiz-adv-x="1764" d="M629 -44h-216l893 1295h219zM1563 122l-29 -139h-199l28 139h-419l32 145l520 461h197l-98 -456h100l-32 -150h-100zM1445 503l-260 -231h210zM725 695q0 -55 -25.5 -100t-72.5 -77.5t-114.5 -51t-153.5 -18.5q-62 0 -111 11.5t-84.5 31.5t-59 47t-35.5 58l180 89 q15 -33 46 -55t89 -22q52 0 85 24t33 61q0 42 -25 60.5t-82 18.5h-98l32 154h87q35 0 63 3.5t47.5 12t30 23t10.5 35.5q0 28 -20.5 44t-64.5 16q-50 0 -88 -17t-70 -50l-138 93q32 32 67 57t74.5 42.5t85.5 26.5t99 9q143 0 207 -48.5t64 -132.5q0 -65 -40.5 -109.5 t-137.5 -71.5q62 -16 91 -54.5t29 -109.5z" />
<glyph unicode="&#xbf;" horiz-adv-x="914" d="M654 568l-55 -253q-112 -49 -186.5 -89.5t-120 -79t-64.5 -79t-19 -89.5q0 -56 33 -84t109 -28q38 0 69.5 8.5t59 25.5t53.5 41.5t52 56.5l174 -124q-42 -57 -87.5 -98t-97 -67.5t-110.5 -39.5t-129 -13q-189 0 -285 71.5t-96 222.5q0 80 30.5 146.5t87.5 123.5 t137.5 106.5t181.5 95.5l31 146h232zM440 755q0 30 7.5 59t19.5 52q21 39 57 56t93 17q62 0 89 -20t27 -62q0 -24 -6.5 -50t-15.5 -50q-19 -45 -54.5 -65t-97.5 -20q-61 0 -90 19.5t-29 63.5z" />
<glyph unicode="&#xc0;" horiz-adv-x="1140" d="M-71 0l643 1204h314l135 -1204h-237l-27 244h-451l-131 -244h-246zM418 459h316l-52 498zM733 1343l-198 314h261l102 -314h-165z" />
<glyph unicode="&#xc1;" horiz-adv-x="1140" d="M-71 0l643 1204h314l135 -1204h-237l-27 244h-451l-131 -244h-246zM418 459h316l-52 498zM743 1343h-187l212 314h284z" />
<glyph unicode="&#xc2;" horiz-adv-x="1140" d="M-71 0l643 1204h314l135 -1204h-237l-27 244h-451l-131 -244h-246zM418 459h316l-52 498zM871 1343l-91 151l-160 -151h-184l267 314h209l134 -314h-175z" />
<glyph unicode="&#xc3;" horiz-adv-x="1140" d="M-71 0l643 1204h314l135 -1204h-237l-27 244h-451l-131 -244h-246zM418 459h316l-52 498zM388 1363q15 58 37 108t55 87.5t76.5 59t102.5 21.5q37 0 65.5 -9.5t49 -22.5t37 -29.5t30.5 -30t27 -22.5t30 -9q38 0 57 30.5t32 80.5h155q-15 -61 -37.5 -112.5t-54.5 -89 t-76.5 -58.5t-102.5 -21q-41 0 -69.5 10t-50 23.5t-36 30t-28 30.5t-26.5 23.5t-30 9.5t-30.5 -7.5t-23.5 -22.5t-18 -35.5t-16 -44.5h-155z" />
<glyph unicode="&#xc4;" horiz-adv-x="1140" d="M-71 0l643 1204h314l135 -1204h-237l-27 244h-451l-131 -244h-246zM418 459h316l-52 498zM691 1459q0 -19 -4 -39t-13 -40q-19 -36 -51 -50.5t-81 -14.5q-57 0 -78 18.5t-21 54.5q0 13 3 33t12 42q16 40 47.5 56.5t83.5 16.5q55 0 78.5 -19t23.5 -58zM1062 1459 q0 -19 -4 -39t-14 -40q-19 -36 -50.5 -50.5t-81.5 -14.5q-56 0 -77 18.5t-21 54.5q0 13 3 33t12 42q15 40 47 56.5t84 16.5q55 0 78.5 -19t23.5 -58z" />
<glyph unicode="&#xc5;" horiz-adv-x="1140" d="M-71 0l643 1204h314l135 -1204h-237l-27 244h-451l-131 -244h-246zM418 459h316l-52 498zM959 1509q0 -34 -13.5 -71.5t-40.5 -69t-68 -51.5t-95 -20q-87 0 -123.5 42.5t-36.5 121.5q0 34 13 71t40 67t68 49.5t96 19.5q81 0 120.5 -42.5t39.5 -116.5zM753 1404 q44 0 69 30t25 74q0 27 -16 40t-44 13q-42 0 -67.5 -28t-25.5 -74q0 -25 14 -40t45 -15z" />
<glyph unicode="&#xc6;" horiz-adv-x="1543" d="M638 0l66 313h-337l-187 -313h-257l725 1204h968l-47 -217h-482l-53 -256h399l-47 -218h-399l-62 -289h483l-46 -224h-724zM847 987h-88l-264 -458h255z" />
<glyph unicode="&#xc7;" horiz-adv-x="1117" d="M718 -155q0 -49 -19.5 -84.5t-55 -58.5t-87 -34.5t-116.5 -11.5q-44 0 -78.5 5.5t-60.5 12.5t-45 15t-33 15l78 118q39 -20 77 -30t73 -10q41 0 70.5 12t29.5 38q0 11 -6.5 21.5t-22.5 19t-42.5 13.5t-66.5 7l59 84q-197 11 -296 120t-99 333q0 62 11.5 145.5t40 172.5 t75.5 175.5t119 154.5t170.5 109.5t229.5 41.5q88 0 156.5 -16.5t121.5 -47t91 -73.5t64 -96l-212 -130q-19 41 -41 68.5t-49 45t-61.5 25t-79.5 7.5q-79 0 -137.5 -32.5t-101 -83.5t-70 -115.5t-43.5 -128.5t-23 -122t-7 -97q0 -68 16.5 -114.5t43.5 -74t64 -40t77 -12.5 q51 0 93.5 8.5t81 27t74.5 48t74 71.5l170 -148q-39 -43 -83.5 -80t-96.5 -65.5t-111.5 -47t-127.5 -26.5l-2 -3q21 -7 41.5 -17t36.5 -25.5t26 -37.5t10 -52z" />
<glyph unicode="&#xc8;" horiz-adv-x="979" d="M32 0l255 1204h766l-46 -217h-526l-53 -256h443l-46 -218h-444l-62 -289h526l-46 -224h-767zM631 1343l-198 314h261l102 -314h-165z" />
<glyph unicode="&#xc9;" horiz-adv-x="979" d="M32 0l255 1204h766l-46 -217h-526l-53 -256h443l-46 -218h-444l-62 -289h526l-46 -224h-767zM716 1343h-187l212 314h284z" />
<glyph unicode="&#xca;" horiz-adv-x="979" d="M32 0l255 1204h766l-46 -217h-526l-53 -256h443l-46 -218h-444l-62 -289h526l-46 -224h-767zM817 1343l-91 151l-160 -151h-184l267 314h209l134 -314h-175z" />
<glyph unicode="&#xcb;" horiz-adv-x="979" d="M32 0l255 1204h766l-46 -217h-526l-53 -256h443l-46 -218h-444l-62 -289h526l-46 -224h-767zM627 1459q0 -19 -4 -39t-13 -40q-19 -36 -51 -50.5t-81 -14.5q-57 0 -78 18.5t-21 54.5q0 13 3 33t12 42q16 40 47.5 56.5t83.5 16.5q55 0 78.5 -19t23.5 -58zM998 1459 q0 -19 -4 -39t-14 -40q-19 -36 -50.5 -50.5t-81.5 -14.5q-56 0 -77 18.5t-21 54.5q0 13 3 33t12 42q15 40 47 56.5t84 16.5q55 0 78.5 -19t23.5 -58z" />
<glyph unicode="&#xcc;" horiz-adv-x="742" d="M559 0h-568l39 189h164l177 826h-164l39 189h568l-39 -189h-164l-176 -826h164zM492 1343l-198 314h261l102 -314h-165z" />
<glyph unicode="&#xcd;" horiz-adv-x="742" d="M559 0h-568l39 189h164l177 826h-164l39 189h568l-39 -189h-164l-176 -826h164zM583 1343h-187l212 314h284z" />
<glyph unicode="&#xce;" horiz-adv-x="742" d="M559 0h-568l39 189h164l177 826h-164l39 189h568l-39 -189h-164l-176 -826h164zM689 1343l-91 151l-160 -151h-184l267 314h209l134 -314h-175z" />
<glyph unicode="&#xcf;" horiz-adv-x="742" d="M559 0h-568l39 189h164l177 826h-164l39 189h568l-39 -189h-164l-176 -826h164zM503 1459q0 -19 -4 -39t-13 -40q-19 -36 -51 -50.5t-81 -14.5q-57 0 -78 18.5t-21 54.5q0 13 3 33t12 42q16 40 47.5 56.5t83.5 16.5q55 0 78.5 -19t23.5 -58zM874 1459q0 -19 -4 -39 t-14 -40q-19 -36 -50.5 -50.5t-81.5 -14.5q-56 0 -77 18.5t-21 54.5q0 13 3 33t12 42q15 40 47 56.5t84 16.5q55 0 78.5 -19t23.5 -58z" />
<glyph unicode="&#xd0;" horiz-adv-x="1118" d="M1103 802q0 -48 -5 -103.5t-16 -114.5t-28.5 -119t-42 -117t-58 -107t-74.5 -90q-46 -41 -100.5 -70.5t-117.5 -47t-133.5 -25.5t-146.5 -8h-359l106 505h-106l41 195h107l106 504h343q120 0 210.5 -20.5t151 -67.5t91.5 -124t31 -190zM401 224q54 0 99 3.5t83 13 t68.5 24.5t55.5 39q34 34 61.5 91.5t46 124t28.5 135.5t10 125q0 59 -15.5 97t-47.5 60.5t-81 32.5t-114 10h-126l-59 -280h249l-40 -195h-252l-59 -281h93z" />
<glyph unicode="&#xd1;" horiz-adv-x="1202" d="M704 0l-255 860l-182 -860h-235l255 1204h298l240 -812l173 812h237l-255 -1204h-276zM423 1363q15 58 37 108t55 87.5t76.5 59t102.5 21.5q37 0 65.5 -9.5t49 -22.5t37 -29.5t30.5 -30t27 -22.5t30 -9q38 0 57 30.5t32 80.5h155q-15 -61 -37.5 -112.5t-54.5 -89 t-76.5 -58.5t-102.5 -21q-41 0 -69.5 10t-50 23.5t-36 30t-28 30.5t-26.5 23.5t-30 9.5t-30.5 -7.5t-23.5 -22.5t-18 -35.5t-16 -44.5h-155z" />
<glyph unicode="&#xd2;" horiz-adv-x="1163" d="M517 -25q-121 0 -205 32t-136 89.5t-75.5 136t-23.5 170.5q0 49 4.5 102.5t15 108.5t27 111.5t40.5 110.5q36 84 85 156.5t115 125t151 82t194 29.5q103 0 184 -27.5t138 -84t87 -140.5t30 -197q0 -59 -14 -145.5t-44 -182.5q-34 -109 -85 -197.5t-121 -150.5t-161 -95.5 t-206 -33.5zM326 422q0 -62 12 -105.5t36 -71t62 -40.5t89 -13q61 0 111 21t89.5 60t70 95t52.5 125q23 71 35.5 142.5t12.5 129.5q0 130 -48 188.5t-156 58.5q-54 0 -98 -16t-80 -47.5t-66 -77t-54 -103.5q-17 -42 -30 -86.5t-21.5 -89.5t-12.5 -88t-4 -82zM734 1343 l-198 314h261l102 -314h-165z" />
<glyph unicode="&#xd3;" horiz-adv-x="1163" d="M517 -25q-121 0 -205 32t-136 89.5t-75.5 136t-23.5 170.5q0 49 4.5 102.5t15 108.5t27 111.5t40.5 110.5q36 84 85 156.5t115 125t151 82t194 29.5q103 0 184 -27.5t138 -84t87 -140.5t30 -197q0 -59 -14 -145.5t-44 -182.5q-34 -109 -85 -197.5t-121 -150.5t-161 -95.5 t-206 -33.5zM326 422q0 -62 12 -105.5t36 -71t62 -40.5t89 -13q61 0 111 21t89.5 60t70 95t52.5 125q23 71 35.5 142.5t12.5 129.5q0 130 -48 188.5t-156 58.5q-54 0 -98 -16t-80 -47.5t-66 -77t-54 -103.5q-17 -42 -30 -86.5t-21.5 -89.5t-12.5 -88t-4 -82zM776 1343h-187 l212 314h284z" />
<glyph unicode="&#xd4;" horiz-adv-x="1163" d="M517 -25q-121 0 -205 32t-136 89.5t-75.5 136t-23.5 170.5q0 49 4.5 102.5t15 108.5t27 111.5t40.5 110.5q36 84 85 156.5t115 125t151 82t194 29.5q103 0 184 -27.5t138 -84t87 -140.5t30 -197q0 -59 -14 -145.5t-44 -182.5q-34 -109 -85 -197.5t-121 -150.5t-161 -95.5 t-206 -33.5zM326 422q0 -62 12 -105.5t36 -71t62 -40.5t89 -13q61 0 111 21t89.5 60t70 95t52.5 125q23 71 35.5 142.5t12.5 129.5q0 130 -48 188.5t-156 58.5q-54 0 -98 -16t-80 -47.5t-66 -77t-54 -103.5q-17 -42 -30 -86.5t-21.5 -89.5t-12.5 -88t-4 -82zM878 1343 l-91 151l-160 -151h-184l267 314h209l134 -314h-175z" />
<glyph unicode="&#xd5;" horiz-adv-x="1163" d="M517 -25q-121 0 -205 32t-136 89.5t-75.5 136t-23.5 170.5q0 49 4.5 102.5t15 108.5t27 111.5t40.5 110.5q36 84 85 156.5t115 125t151 82t194 29.5q103 0 184 -27.5t138 -84t87 -140.5t30 -197q0 -59 -14 -145.5t-44 -182.5q-34 -109 -85 -197.5t-121 -150.5t-161 -95.5 t-206 -33.5zM326 422q0 -62 12 -105.5t36 -71t62 -40.5t89 -13q61 0 111 21t89.5 60t70 95t52.5 125q23 71 35.5 142.5t12.5 129.5q0 130 -48 188.5t-156 58.5q-54 0 -98 -16t-80 -47.5t-66 -77t-54 -103.5q-17 -42 -30 -86.5t-21.5 -89.5t-12.5 -88t-4 -82zM404 1363 q15 58 37 108t55 87.5t76.5 59t102.5 21.5q37 0 65.5 -9.5t49 -22.5t37 -29.5t30.5 -30t27 -22.5t30 -9q38 0 57 30.5t32 80.5h155q-15 -61 -37.5 -112.5t-54.5 -89t-76.5 -58.5t-102.5 -21q-41 0 -69.5 10t-50 23.5t-36 30t-28 30.5t-26.5 23.5t-30 9.5t-30.5 -7.5 t-23.5 -22.5t-18 -35.5t-16 -44.5h-155z" />
<glyph unicode="&#xd6;" horiz-adv-x="1163" d="M517 -25q-121 0 -205 32t-136 89.5t-75.5 136t-23.5 170.5q0 49 4.5 102.5t15 108.5t27 111.5t40.5 110.5q36 84 85 156.5t115 125t151 82t194 29.5q103 0 184 -27.5t138 -84t87 -140.5t30 -197q0 -59 -14 -145.5t-44 -182.5q-34 -109 -85 -197.5t-121 -150.5t-161 -95.5 t-206 -33.5zM326 422q0 -62 12 -105.5t36 -71t62 -40.5t89 -13q61 0 111 21t89.5 60t70 95t52.5 125q23 71 35.5 142.5t12.5 129.5q0 130 -48 188.5t-156 58.5q-54 0 -98 -16t-80 -47.5t-66 -77t-54 -103.5q-17 -42 -30 -86.5t-21.5 -89.5t-12.5 -88t-4 -82zM698 1459 q0 -19 -4 -39t-13 -40q-19 -36 -51 -50.5t-81 -14.5q-57 0 -78 18.5t-21 54.5q0 13 3 33t12 42q16 40 47.5 56.5t83.5 16.5q55 0 78.5 -19t23.5 -58zM1069 1459q0 -19 -4 -39t-14 -40q-19 -36 -50.5 -50.5t-81.5 -14.5q-56 0 -77 18.5t-21 54.5q0 13 3 33t12 42 q15 40 47 56.5t84 16.5q55 0 78.5 -19t23.5 -58z" />
<glyph unicode="&#xd7;" horiz-adv-x="1241" d="M1028 0l-382 381l-381 -381l-126 126l381 380l-381 380l126 126l381 -380l382 380l126 -126l-381 -380l381 -380z" />
<glyph unicode="&#xd8;" horiz-adv-x="1163" d="M-92 -100l224 258q-30 52 -42.5 113t-12.5 132q0 80 13.5 172t44 184t80 177t119.5 150t163 104t212 39q176 0 284 -80l126 146h187l-219 -251q29 -52 45 -117.5t16 -146.5q0 -41 -6.5 -98t-21 -121.5t-38.5 -133t-59.5 -133.5t-83 -123t-110 -101.5t-140 -69 t-172.5 -25.5t-167 19.5t-124 56.5l-131 -151h-187zM525 192q68 0 122.5 26.5t95.5 71.5t70 103.5t48 122t27 128t8 121.5q0 15 -1 29t-2 27l-508 -586q24 -23 58.5 -33t81.5 -10zM326 422v-20t2 -19l505 584q-23 23 -58.5 34t-82.5 11q-67 0 -120.5 -28t-94 -74 t-69.5 -106.5t-47 -126t-26.5 -132t-8.5 -123.5z" />
<glyph unicode="&#xd9;" horiz-adv-x="1225" d="M1103 479q-30 -144 -79 -241t-119 -156t-162.5 -84t-210.5 -25q-202 0 -307.5 87t-105.5 273q0 32 5 81.5t19 109.5l144 680h240l-144 -684q-11 -47 -15 -93t-4 -80q0 -44 12.5 -74t36.5 -48.5t59.5 -26t81.5 -7.5q61 0 110 13.5t88 50t67.5 100t49.5 162.5l146 687h241z M729 1343l-198 314h261l102 -314h-165z" />
<glyph unicode="&#xda;" horiz-adv-x="1225" d="M1103 479q-30 -144 -79 -241t-119 -156t-162.5 -84t-210.5 -25q-202 0 -307.5 87t-105.5 273q0 32 5 81.5t19 109.5l144 680h240l-144 -684q-11 -47 -15 -93t-4 -80q0 -44 12.5 -74t36.5 -48.5t59.5 -26t81.5 -7.5q61 0 110 13.5t88 50t67.5 100t49.5 162.5l146 687h241z M834 1343h-187l212 314h284z" />
<glyph unicode="&#xdb;" horiz-adv-x="1225" d="M1103 479q-30 -144 -79 -241t-119 -156t-162.5 -84t-210.5 -25q-202 0 -307.5 87t-105.5 273q0 32 5 81.5t19 109.5l144 680h240l-144 -684q-11 -47 -15 -93t-4 -80q0 -44 12.5 -74t36.5 -48.5t59.5 -26t81.5 -7.5q61 0 110 13.5t88 50t67.5 100t49.5 162.5l146 687h241z M912 1343l-91 151l-160 -151h-184l267 314h209l134 -314h-175z" />
<glyph unicode="&#xdc;" horiz-adv-x="1225" d="M1103 479q-30 -144 -79 -241t-119 -156t-162.5 -84t-210.5 -25q-202 0 -307.5 87t-105.5 273q0 32 5 81.5t19 109.5l144 680h240l-144 -684q-11 -47 -15 -93t-4 -80q0 -44 12.5 -74t36.5 -48.5t59.5 -26t81.5 -7.5q61 0 110 13.5t88 50t67.5 100t49.5 162.5l146 687h241z M738 1459q0 -19 -4 -39t-13 -40q-19 -36 -51 -50.5t-81 -14.5q-57 0 -78 18.5t-21 54.5q0 13 3 33t12 42q16 40 47.5 56.5t83.5 16.5q55 0 78.5 -19t23.5 -58zM1109 1459q0 -19 -4 -39t-14 -40q-19 -36 -50.5 -50.5t-81.5 -14.5q-56 0 -77 18.5t-21 54.5q0 13 3 33t12 42 q15 40 47 56.5t84 16.5q55 0 78.5 -19t23.5 -58z" />
<glyph unicode="&#xdd;" horiz-adv-x="1011" d="M627 459l-96 -459h-242l96 454l-210 750h247l123 -512l342 512h269zM715 1343h-187l212 314h284z" />
<glyph unicode="&#xde;" horiz-adv-x="1056" d="M1041 727q0 -56 -9.5 -117.5t-31.5 -120.5t-59 -111.5t-91.5 -93t-129 -64t-171.5 -23.5h-236l-41 -197h-240l255 1204h240l-37 -174h202q84 0 149 -16t109 -52t67.5 -94t23.5 -141zM527 412q80 0 130.5 22t79 60t39 90t10.5 111q0 63 -36.5 92t-120.5 29h-184l-85 -404 h167z" />
<glyph unicode="&#xdf;" d="M29 0l194 918q21 96 55.5 171t89 127t129.5 79t176 27q95 0 161 -20t106 -56t58.5 -85.5t18.5 -109.5q0 -47 -15 -90t-42.5 -80.5t-68 -69t-92.5 -52.5q79 -20 120 -86t41 -160q0 -74 -19 -153t-52 -151q-28 -60 -61.5 -104t-78 -73.5t-103 -44t-136.5 -14.5 q-20 0 -42.5 2.5t-44 6.5t-40 9t-30.5 9l41 197q18 -6 49 -16t76 -10q53 0 90 27.5t66 90.5q11 24 21 52.5t16.5 57.5t10.5 57.5t4 53.5q0 36 -11 61.5t-37.5 40.5t-69.5 22t-106 7l41 195q48 0 92 9.5t78 31t54.5 57t20.5 87.5q0 51 -34 79.5t-101 28.5q-44 0 -78.5 -13 t-61 -41t-45.5 -73t-32 -108l-189 -894h-219z" />
<glyph unicode="&#xe0;" d="M57 299q0 69 13.5 143t40.5 145t67 135t93.5 112t119 76.5t143.5 28.5q81 0 141.5 -24.5t101.5 -69.5l14 68h217l-190 -913h-184l5 112q-45 -38 -83.5 -64.5t-74.5 -43t-71.5 -24t-74.5 -7.5q-65 0 -116.5 18.5t-87 58t-55 101t-19.5 148.5zM738 659q-14 16 -33 31 t-42 26t-48 18t-52 7q-46 0 -84 -19t-68 -51.5t-52 -75t-37 -87.5t-22.5 -91t-7.5 -86q0 -83 28 -121.5t88 -38.5q34 0 68.5 10.5t67 26.5t62 36t53.5 40zM523 1051l-198 314h261l102 -314h-165z" />
<glyph unicode="&#xe1;" d="M57 299q0 69 13.5 143t40.5 145t67 135t93.5 112t119 76.5t143.5 28.5q81 0 141.5 -24.5t101.5 -69.5l14 68h217l-190 -913h-184l5 112q-45 -38 -83.5 -64.5t-74.5 -43t-71.5 -24t-74.5 -7.5q-65 0 -116.5 18.5t-87 58t-55 101t-19.5 148.5zM738 659q-14 16 -33 31 t-42 26t-48 18t-52 7q-46 0 -84 -19t-68 -51.5t-52 -75t-37 -87.5t-22.5 -91t-7.5 -86q0 -83 28 -121.5t88 -38.5q34 0 68.5 10.5t67 26.5t62 36t53.5 40zM633 1051h-187l212 314h284z" />
<glyph unicode="&#xe2;" d="M57 299q0 69 13.5 143t40.5 145t67 135t93.5 112t119 76.5t143.5 28.5q81 0 141.5 -24.5t101.5 -69.5l14 68h217l-190 -913h-184l5 112q-45 -38 -83.5 -64.5t-74.5 -43t-71.5 -24t-74.5 -7.5q-65 0 -116.5 18.5t-87 58t-55 101t-19.5 148.5zM738 659q-14 16 -33 31 t-42 26t-48 18t-52 7q-46 0 -84 -19t-68 -51.5t-52 -75t-37 -87.5t-22.5 -91t-7.5 -86q0 -83 28 -121.5t88 -38.5q34 0 68.5 10.5t67 26.5t62 36t53.5 40zM723 1051l-91 151l-160 -151h-184l267 314h209l134 -314h-175z" />
<glyph unicode="&#xe3;" d="M57 299q0 69 13.5 143t40.5 145t67 135t93.5 112t119 76.5t143.5 28.5q81 0 141.5 -24.5t101.5 -69.5l14 68h217l-190 -913h-184l5 112q-45 -38 -83.5 -64.5t-74.5 -43t-71.5 -24t-74.5 -7.5q-65 0 -116.5 18.5t-87 58t-55 101t-19.5 148.5zM738 659q-14 16 -33 31 t-42 26t-48 18t-52 7q-46 0 -84 -19t-68 -51.5t-52 -75t-37 -87.5t-22.5 -91t-7.5 -86q0 -83 28 -121.5t88 -38.5q34 0 68.5 10.5t67 26.5t62 36t53.5 40zM258 1071q15 58 37 108t55 87.5t76.5 59t102.5 21.5q37 0 65.5 -9.5t49 -22.5t37 -29.5t30.5 -30t27 -22.5t30 -9 q38 0 57 30.5t32 80.5h155q-15 -61 -37.5 -112.5t-54.5 -89t-76.5 -58.5t-102.5 -21q-41 0 -69.5 10t-50 23.5t-36 30t-28 30.5t-26.5 23.5t-30 9.5t-30.5 -7.5t-23.5 -22.5t-18 -35.5t-16 -44.5h-155z" />
<glyph unicode="&#xe4;" d="M57 299q0 69 13.5 143t40.5 145t67 135t93.5 112t119 76.5t143.5 28.5q81 0 141.5 -24.5t101.5 -69.5l14 68h217l-190 -913h-184l5 112q-45 -38 -83.5 -64.5t-74.5 -43t-71.5 -24t-74.5 -7.5q-65 0 -116.5 18.5t-87 58t-55 101t-19.5 148.5zM738 659q-14 16 -33 31 t-42 26t-48 18t-52 7q-46 0 -84 -19t-68 -51.5t-52 -75t-37 -87.5t-22.5 -91t-7.5 -86q0 -83 28 -121.5t88 -38.5q34 0 68.5 10.5t67 26.5t62 36t53.5 40zM543 1167q0 -19 -4 -39t-13 -40q-19 -36 -51 -50.5t-81 -14.5q-57 0 -78 18.5t-21 54.5q0 13 3 33t12 42 q16 40 47.5 56.5t83.5 16.5q55 0 78.5 -19t23.5 -58zM914 1167q0 -19 -4 -39t-14 -40q-19 -36 -50.5 -50.5t-81.5 -14.5q-56 0 -77 18.5t-21 54.5q0 13 3 33t12 42q15 40 47 56.5t84 16.5q55 0 78.5 -19t23.5 -58z" />
<glyph unicode="&#xe5;" d="M57 299q0 69 13.5 143t40.5 145t67 135t93.5 112t119 76.5t143.5 28.5q81 0 141.5 -24.5t101.5 -69.5l14 68h217l-190 -913h-184l5 112q-45 -38 -83.5 -64.5t-74.5 -43t-71.5 -24t-74.5 -7.5q-65 0 -116.5 18.5t-87 58t-55 101t-19.5 148.5zM738 659q-14 16 -33 31 t-42 26t-48 18t-52 7q-46 0 -84 -19t-68 -51.5t-52 -75t-37 -87.5t-22.5 -91t-7.5 -86q0 -83 28 -121.5t88 -38.5q34 0 68.5 10.5t67 26.5t62 36t53.5 40zM806 1217q0 -34 -13.5 -71.5t-40.5 -69t-68 -51.5t-95 -20q-87 0 -123.5 42.5t-36.5 121.5q0 34 13 71t40 67t68 49.5 t96 19.5q81 0 120.5 -42.5t39.5 -116.5zM600 1112q44 0 69 30t25 74q0 27 -16 40t-44 13q-42 0 -67.5 -28t-25.5 -74q0 -25 14 -40t45 -15z" />
<glyph unicode="&#xe6;" horiz-adv-x="1523" d="M843 398q-4 -20 -5.5 -40t-1.5 -35q0 -81 41 -117t119 -36q39 0 72 5.5t61.5 17t53.5 27.5t48 37l125 -143q-34 -33 -70.5 -59t-81 -44.5t-100.5 -28t-128 -9.5q-64 0 -114 11.5t-88 31.5t-65 47.5t-44 60.5q-52 -36 -105 -64.5t-102.5 -47.5t-91.5 -29t-70 -10 q-145 0 -210.5 62.5t-65.5 187.5q0 80 36 141t98 104t143 67.5t172 32.5l194 18l7 41q2 11 3.5 20.5t1.5 18.5q0 53 -40.5 73.5t-114.5 20.5q-82 0 -134.5 -27t-84.5 -67l-148 113q24 32 57.5 61t79 51.5t105.5 35t139 12.5q125 0 198.5 -28t107.5 -78q25 25 54 44t64 33 t75.5 21.5t90.5 7.5q91 0 157.5 -21t110 -61.5t64 -99.5t20.5 -135q0 -19 -3.5 -50t-10.5 -59l-22 -115h-597zM627 298q0 30 2.5 62t9.5 64l-126 -11q-56 -5 -103 -16.5t-82 -31.5t-54 -50t-19 -72q0 -28 7.5 -45.5t21 -28t32.5 -14.5t42 -4q25 0 57 6.5t68 20t73.5 32 t72.5 43.5q0 11 -1 21.5t-1 23.5zM1249 552q5 22 7 40t2 35q0 67 -31.5 100t-111.5 33q-60 0 -101.5 -20.5t-71.5 -59.5q-20 -25 -36.5 -59t-26.5 -69h370z" />
<glyph unicode="&#xe7;" horiz-adv-x="903" d="M599 -155q0 -49 -19.5 -84.5t-55.5 -58.5t-87.5 -34.5t-115.5 -11.5q-45 0 -79.5 5.5t-60.5 12.5t-45 15t-32 15l78 118q39 -20 77 -30t72 -10q21 0 39 3.5t32 9t22 15t8 22.5q0 11 -7 21.5t-22.5 19t-42 13.5t-66.5 7l59 84q-80 7 -135.5 35t-91 75t-51.5 112t-16 148 q0 51 11.5 114.5t36 129t64.5 128t97.5 111.5t134 79t175.5 30q65 0 116.5 -10t93 -30t73 -50t55.5 -70l-185 -116q-25 41 -62.5 60.5t-102.5 19.5q-51 0 -91 -20t-71 -53t-52 -75.5t-35 -87t-20 -88t-6 -77.5q0 -40 6.5 -72t23.5 -54.5t47 -34t76 -11.5q59 0 110 23.5 t92 66.5l147 -130q-58 -63 -134.5 -101.5t-165.5 -50.5q19 -6 38.5 -17t34 -27t24 -38t9.5 -51z" />
<glyph unicode="&#xe8;" horiz-adv-x="974" d="M294 398q-4 -20 -5.5 -40t-1.5 -35q0 -81 41 -117t119 -36q79 0 134 22.5t101 64.5l125 -143q-34 -33 -70 -59t-80.5 -44.5t-100.5 -28t-128 -9.5q-101 0 -171.5 27t-115 74t-64.5 110.5t-20 136.5q0 116 35 227t105 211q29 40 67 73t85.5 57t104 37t122.5 13 q91 0 157.5 -21t109.5 -61.5t63.5 -99.5t20.5 -135q0 -19 -3.5 -50t-9.5 -59l-23 -115h-597zM700 552q5 22 7 40t2 35q0 67 -31.5 100t-111.5 33q-60 0 -101 -20.5t-71 -59.5q-20 -25 -37 -59t-27 -69h370zM573 1051l-198 314h261l102 -314h-165z" />
<glyph unicode="&#xe9;" horiz-adv-x="974" d="M294 398q-4 -20 -5.5 -40t-1.5 -35q0 -81 41 -117t119 -36q79 0 134 22.5t101 64.5l125 -143q-34 -33 -70 -59t-80.5 -44.5t-100.5 -28t-128 -9.5q-101 0 -171.5 27t-115 74t-64.5 110.5t-20 136.5q0 116 35 227t105 211q29 40 67 73t85.5 57t104 37t122.5 13 q91 0 157.5 -21t109.5 -61.5t63.5 -99.5t20.5 -135q0 -19 -3.5 -50t-9.5 -59l-23 -115h-597zM700 552q5 22 7 40t2 35q0 67 -31.5 100t-111.5 33q-60 0 -101 -20.5t-71 -59.5q-20 -25 -37 -59t-27 -69h370zM596 1051h-187l212 314h284z" />
<glyph unicode="&#xea;" horiz-adv-x="974" d="M294 398q-4 -20 -5.5 -40t-1.5 -35q0 -81 41 -117t119 -36q79 0 134 22.5t101 64.5l125 -143q-34 -33 -70 -59t-80.5 -44.5t-100.5 -28t-128 -9.5q-101 0 -171.5 27t-115 74t-64.5 110.5t-20 136.5q0 116 35 227t105 211q29 40 67 73t85.5 57t104 37t122.5 13 q91 0 157.5 -21t109.5 -61.5t63.5 -99.5t20.5 -135q0 -19 -3.5 -50t-9.5 -59l-23 -115h-597zM700 552q5 22 7 40t2 35q0 67 -31.5 100t-111.5 33q-60 0 -101 -20.5t-71 -59.5q-20 -25 -37 -59t-27 -69h370zM732 1051l-91 151l-160 -151h-184l267 314h209l134 -314h-175z" />
<glyph unicode="&#xeb;" horiz-adv-x="974" d="M294 398q-4 -20 -5.5 -40t-1.5 -35q0 -81 41 -117t119 -36q79 0 134 22.5t101 64.5l125 -143q-34 -33 -70 -59t-80.5 -44.5t-100.5 -28t-128 -9.5q-101 0 -171.5 27t-115 74t-64.5 110.5t-20 136.5q0 116 35 227t105 211q29 40 67 73t85.5 57t104 37t122.5 13 q91 0 157.5 -21t109.5 -61.5t63.5 -99.5t20.5 -135q0 -19 -3.5 -50t-9.5 -59l-23 -115h-597zM700 552q5 22 7 40t2 35q0 67 -31.5 100t-111.5 33q-60 0 -101 -20.5t-71 -59.5q-20 -25 -37 -59t-27 -69h370zM549 1167q0 -19 -4 -39t-13 -40q-19 -36 -51 -50.5t-81 -14.5 q-57 0 -78 18.5t-21 54.5q0 13 3 33t12 42q16 40 47.5 56.5t83.5 16.5q55 0 78.5 -19t23.5 -58zM920 1167q0 -19 -4 -39t-14 -40q-19 -36 -50.5 -50.5t-81.5 -14.5q-56 0 -77 18.5t-21 54.5q0 13 3 33t12 42q15 40 47 56.5t84 16.5q55 0 78.5 -19t23.5 -58z" />
<glyph unicode="&#xec;" horiz-adv-x="468" d="M29 0l192 913h219l-192 -913h-219zM300 1051l-198 314h261l102 -314h-165z" />
<glyph unicode="&#xed;" horiz-adv-x="468" d="M29 0l192 913h219l-192 -913h-219zM414 1051h-187l212 314h284z" />
<glyph unicode="&#xee;" horiz-adv-x="468" d="M29 0l192 913h219l-192 -913h-219zM476 1051l-91 151l-160 -151h-184l267 314h209l134 -314h-175z" />
<glyph unicode="&#xef;" horiz-adv-x="468" d="M29 0l192 913h219l-192 -913h-219zM303 1167q0 -19 -4 -39t-13 -40q-19 -36 -51 -50.5t-81 -14.5q-57 0 -78 18.5t-21 54.5q0 13 3 33t12 42q16 40 47.5 56.5t83.5 16.5q55 0 78.5 -19t23.5 -58zM674 1167q0 -19 -4 -39t-14 -40q-19 -36 -50.5 -50.5t-81.5 -14.5 q-56 0 -77 18.5t-21 54.5q0 13 3 33t12 42q15 40 47 56.5t84 16.5q55 0 78.5 -19t23.5 -58z" />
<glyph unicode="&#xf0;" horiz-adv-x="1013" d="M707 859q-5 25 -14 53.5t-20.5 57.5t-24.5 55.5t-26 47.5l-197 -77l-44 125l168 66q-8 12 -23.5 30.5t-34.5 38.5t-38 38t-33 28h236q16 -12 34.5 -31t35.5 -36l172 67l44 -123l-135 -53q69 -101 109.5 -232.5t40.5 -296.5q0 -33 -3.5 -75t-11.5 -88.5t-23 -94.5t-39 -95 q-31 -66 -76 -119.5t-104.5 -91.5t-133 -59t-161.5 -21q-173 0 -259.5 89t-86.5 261q0 27 4 61t12.5 72t20.5 77.5t28 77.5q31 68 74.5 123.5t98.5 95t121 61.5t141 22q41 0 80 -13.5t68 -40.5zM292 331q0 -79 36.5 -120t118.5 -41q77 0 131 40t88 111q26 50 39.5 110 t13.5 121q0 37 -8 67.5t-26.5 52t-48.5 34t-75 12.5q-42 0 -76.5 -12.5t-62.5 -35t-49 -53.5t-36 -66q-22 -50 -33.5 -105t-11.5 -115z" />
<glyph unicode="&#xf1;" d="M604 0l107 503q9 47 15.5 85t6.5 75q0 42 -20.5 60t-58.5 18q-34 0 -70 -11t-71.5 -29.5t-70 -42.5t-66.5 -49l-128 -609h-219l192 913h219l-25 -119q34 30 71.5 56.5t78 46t83.5 31t88 11.5q64 0 107 -18t69 -48t37 -69.5t11 -82.5q0 -40 -5 -80t-11 -65l-121 -576h-219 zM279 1071q15 58 37 108t55 87.5t76.5 59t102.5 21.5q37 0 65.5 -9.5t49 -22.5t37 -29.5t30.5 -30t27 -22.5t30 -9q38 0 57 30.5t32 80.5h155q-15 -61 -37.5 -112.5t-54.5 -89t-76.5 -58.5t-102.5 -21q-41 0 -69.5 10t-50 23.5t-36 30t-28 30.5t-26.5 23.5t-30 9.5 t-30.5 -7.5t-23.5 -22.5t-18 -35.5t-16 -44.5h-155z" />
<glyph unicode="&#xf2;" horiz-adv-x="1013" d="M59 331q0 47 8.5 106.5t28 122.5t51.5 124.5t81 111.5q65 69 152 106t212 37q82 0 149.5 -23t115 -69.5t73 -117t25.5 -164.5q0 -43 -9.5 -101.5t-31 -122t-56.5 -126t-86 -113.5q-37 -37 -74.5 -61t-80 -39.5t-91 -22t-108.5 -6.5q-97 0 -165.5 25t-111.5 72t-62.5 113 t-19.5 148zM291 328q0 -37 7.5 -67t25.5 -50t47 -30.5t71 -10.5q57 0 100 22.5t77 60.5q23 28 43 67t34 81.5t22 83.5t8 74q0 89 -40 136.5t-121 47.5q-55 0 -98.5 -24.5t-75.5 -64.5q-23 -28 -41.5 -67.5t-32 -83t-20 -88.5t-6.5 -87zM573 1051l-198 314h261l102 -314h-165 z" />
<glyph unicode="&#xf3;" horiz-adv-x="1013" d="M59 331q0 47 8.5 106.5t28 122.5t51.5 124.5t81 111.5q65 69 152 106t212 37q82 0 149.5 -23t115 -69.5t73 -117t25.5 -164.5q0 -43 -9.5 -101.5t-31 -122t-56.5 -126t-86 -113.5q-37 -37 -74.5 -61t-80 -39.5t-91 -22t-108.5 -6.5q-97 0 -165.5 25t-111.5 72t-62.5 113 t-19.5 148zM291 328q0 -37 7.5 -67t25.5 -50t47 -30.5t71 -10.5q57 0 100 22.5t77 60.5q23 28 43 67t34 81.5t22 83.5t8 74q0 89 -40 136.5t-121 47.5q-55 0 -98.5 -24.5t-75.5 -64.5q-23 -28 -41.5 -67.5t-32 -83t-20 -88.5t-6.5 -87zM640 1051h-187l212 314h284z" />
<glyph unicode="&#xf4;" horiz-adv-x="1013" d="M59 331q0 47 8.5 106.5t28 122.5t51.5 124.5t81 111.5q65 69 152 106t212 37q82 0 149.5 -23t115 -69.5t73 -117t25.5 -164.5q0 -43 -9.5 -101.5t-31 -122t-56.5 -126t-86 -113.5q-37 -37 -74.5 -61t-80 -39.5t-91 -22t-108.5 -6.5q-97 0 -165.5 25t-111.5 72t-62.5 113 t-19.5 148zM291 328q0 -37 7.5 -67t25.5 -50t47 -30.5t71 -10.5q57 0 100 22.5t77 60.5q23 28 43 67t34 81.5t22 83.5t8 74q0 89 -40 136.5t-121 47.5q-55 0 -98.5 -24.5t-75.5 -64.5q-23 -28 -41.5 -67.5t-32 -83t-20 -88.5t-6.5 -87zM732 1051l-91 151l-160 -151h-184 l267 314h209l134 -314h-175z" />
<glyph unicode="&#xf5;" horiz-adv-x="1013" d="M59 331q0 47 8.5 106.5t28 122.5t51.5 124.5t81 111.5q65 69 152 106t212 37q82 0 149.5 -23t115 -69.5t73 -117t25.5 -164.5q0 -43 -9.5 -101.5t-31 -122t-56.5 -126t-86 -113.5q-37 -37 -74.5 -61t-80 -39.5t-91 -22t-108.5 -6.5q-97 0 -165.5 25t-111.5 72t-62.5 113 t-19.5 148zM291 328q0 -37 7.5 -67t25.5 -50t47 -30.5t71 -10.5q57 0 100 22.5t77 60.5q23 28 43 67t34 81.5t22 83.5t8 74q0 89 -40 136.5t-121 47.5q-55 0 -98.5 -24.5t-75.5 -64.5q-23 -28 -41.5 -67.5t-32 -83t-20 -88.5t-6.5 -87zM258 1071q15 58 37 108t55 87.5 t76.5 59t102.5 21.5q37 0 65.5 -9.5t49 -22.5t37 -29.5t30.5 -30t27 -22.5t30 -9q38 0 57 30.5t32 80.5h155q-15 -61 -37.5 -112.5t-54.5 -89t-76.5 -58.5t-102.5 -21q-41 0 -69.5 10t-50 23.5t-36 30t-28 30.5t-26.5 23.5t-30 9.5t-30.5 -7.5t-23.5 -22.5t-18 -35.5 t-16 -44.5h-155z" />
<glyph unicode="&#xf6;" horiz-adv-x="1013" d="M59 331q0 47 8.5 106.5t28 122.5t51.5 124.5t81 111.5q65 69 152 106t212 37q82 0 149.5 -23t115 -69.5t73 -117t25.5 -164.5q0 -43 -9.5 -101.5t-31 -122t-56.5 -126t-86 -113.5q-37 -37 -74.5 -61t-80 -39.5t-91 -22t-108.5 -6.5q-97 0 -165.5 25t-111.5 72t-62.5 113 t-19.5 148zM291 328q0 -37 7.5 -67t25.5 -50t47 -30.5t71 -10.5q57 0 100 22.5t77 60.5q23 28 43 67t34 81.5t22 83.5t8 74q0 89 -40 136.5t-121 47.5q-55 0 -98.5 -24.5t-75.5 -64.5q-23 -28 -41.5 -67.5t-32 -83t-20 -88.5t-6.5 -87zM552 1167q0 -19 -4 -39t-13 -40 q-19 -36 -51 -50.5t-81 -14.5q-57 0 -78 18.5t-21 54.5q0 13 3 33t12 42q16 40 47.5 56.5t83.5 16.5q55 0 78.5 -19t23.5 -58zM923 1167q0 -19 -4 -39t-14 -40q-19 -36 -50.5 -50.5t-81.5 -14.5q-56 0 -77 18.5t-21 54.5q0 13 3 33t12 42q15 40 47 56.5t84 16.5 q55 0 78.5 -19t23.5 -58z" />
<glyph unicode="&#xf7;" horiz-adv-x="1241" d="M524 793v219h214v-219h-214zM124 417v178h1011v-178h-1011zM524 2v219h214v-219h-214z" />
<glyph unicode="&#xf8;" horiz-adv-x="1013" d="M-20 -66l139 164q-32 45 -46 102.5t-14 130.5q0 51 10.5 116t35 132t64.5 132t99 115.5t139 81.5t185 31q62 0 113.5 -11.5t93.5 -33.5l70 84h166l-144 -169q64 -95 64 -255q0 -40 -9.5 -98.5t-33 -123t-62.5 -129t-98 -115.5t-139.5 -83t-187.5 -32q-65 0 -117 11.5 t-92 31.5l-70 -82h-166zM726 559q0 14 -1.5 26t-3.5 24l-363 -425q18 -8 39.5 -11t49.5 -3q48 0 87 19t70 50.5t53.5 71.5t38 83.5t23 86.5t7.5 78zM291 299l361 424q-33 20 -84 20q-46 0 -84.5 -17.5t-69.5 -47.5t-54 -70.5t-38.5 -86.5t-23 -95.5t-7.5 -97.5v-29z" />
<glyph unicode="&#xf9;" d="M435 913l-107 -503q-10 -47 -15 -83t-5 -63q0 -53 19.5 -73t58.5 -20q34 0 69.5 11t71 29.5t70 42.5t66.5 49l128 610h219l-192 -913h-219l25 117q-34 -29 -71.5 -55t-77 -45.5t-81 -31.5t-83.5 -12q-67 0 -111.5 18t-71.5 48t-38.5 69.5t-11.5 82.5q0 40 5.5 80t11.5 66 l121 576h219zM565 1051l-198 314h261l102 -314h-165z" />
<glyph unicode="&#xfa;" d="M435 913l-107 -503q-10 -47 -15 -83t-5 -63q0 -53 19.5 -73t58.5 -20q34 0 69.5 11t71 29.5t70 42.5t66.5 49l128 610h219l-192 -913h-219l25 117q-34 -29 -71.5 -55t-77 -45.5t-81 -31.5t-83.5 -12q-67 0 -111.5 18t-71.5 48t-38.5 69.5t-11.5 82.5q0 40 5.5 80t11.5 66 l121 576h219zM695 1051h-187l212 314h284z" />
<glyph unicode="&#xfb;" d="M435 913l-107 -503q-10 -47 -15 -83t-5 -63q0 -53 19.5 -73t58.5 -20q34 0 69.5 11t71 29.5t70 42.5t66.5 49l128 610h219l-192 -913h-219l25 117q-34 -29 -71.5 -55t-77 -45.5t-81 -31.5t-83.5 -12q-67 0 -111.5 18t-71.5 48t-38.5 69.5t-11.5 82.5q0 40 5.5 80t11.5 66 l121 576h219zM734 1051l-91 151l-160 -151h-184l267 314h209l134 -314h-175z" />
<glyph unicode="&#xfc;" d="M435 913l-107 -503q-10 -47 -15 -83t-5 -63q0 -53 19.5 -73t58.5 -20q34 0 69.5 11t71 29.5t70 42.5t66.5 49l128 610h219l-192 -913h-219l25 117q-34 -29 -71.5 -55t-77 -45.5t-81 -31.5t-83.5 -12q-67 0 -111.5 18t-71.5 48t-38.5 69.5t-11.5 82.5q0 40 5.5 80t11.5 66 l121 576h219zM591 1167q0 -19 -4 -39t-13 -40q-19 -36 -51 -50.5t-81 -14.5q-57 0 -78 18.5t-21 54.5q0 13 3 33t12 42q16 40 47.5 56.5t83.5 16.5q55 0 78.5 -19t23.5 -58zM962 1167q0 -19 -4 -39t-14 -40q-19 -36 -50.5 -50.5t-81.5 -14.5q-56 0 -77 18.5t-21 54.5 q0 13 3 33t12 42q15 40 47 56.5t84 16.5q55 0 78.5 -19t23.5 -58z" />
<glyph unicode="&#xfd;" horiz-adv-x="924" d="M-102 -123q36 -14 70.5 -19.5t61.5 -5.5q25 0 48.5 8.5t48 28.5t50 53t54.5 81l33 54l-145 836h219l90 -588l337 588h235l-592 -976q-44 -74 -86 -127t-88.5 -87t-101.5 -50.5t-127 -16.5q-42 0 -89 9.5t-94 23.5zM581 1051h-187l212 314h284z" />
<glyph unicode="&#xfe;" d="M175 -344h-218l346 1639h219l-100 -463q71 54 135 80.5t135 26.5q69 0 123 -18.5t91 -57.5t56 -101t19 -149q0 -54 -10.5 -123t-34 -140.5t-61.5 -138.5t-92 -120.5t-126 -85.5t-164 -32q-72 0 -131.5 24.5t-99.5 70.5zM301 253q14 -15 33 -30t41.5 -26.5t48 -18.5 t52.5 -7q46 0 84 19.5t68 52t52 74t37 87.5t22 91.5t7 85.5q0 83 -30 121.5t-103 38.5q-27 0 -57.5 -7t-60.5 -18.5t-58 -28t-52 -35.5z" />
<glyph unicode="&#xff;" horiz-adv-x="924" d="M-102 -123q36 -14 70.5 -19.5t61.5 -5.5q25 0 48.5 8.5t48 28.5t50 53t54.5 81l33 54l-145 836h219l90 -588l337 588h235l-592 -976q-44 -74 -86 -127t-88.5 -87t-101.5 -50.5t-127 -16.5q-42 0 -89 9.5t-94 23.5zM527 1167q0 -19 -4 -39t-13 -40q-19 -36 -51 -50.5 t-81 -14.5q-57 0 -78 18.5t-21 54.5q0 13 3 33t12 42q16 40 47.5 56.5t83.5 16.5q55 0 78.5 -19t23.5 -58zM898 1167q0 -19 -4 -39t-14 -40q-19 -36 -50.5 -50.5t-81.5 -14.5q-56 0 -77 18.5t-21 54.5q0 13 3 33t12 42q15 40 47 56.5t84 16.5q55 0 78.5 -19t23.5 -58z" />
<glyph unicode="&#x100;" horiz-adv-x="1140" d="M-71 0l643 1204h314l135 -1204h-237l-27 244h-451l-131 -244h-246zM418 459h316l-52 498zM465 1384l34 161h573l-34 -161h-573z" />
<glyph unicode="&#x101;" d="M57 299q0 69 13.5 143t40.5 145t67 135t93.5 112t119 76.5t143.5 28.5q81 0 141.5 -24.5t101.5 -69.5l14 68h217l-190 -913h-184l5 112q-45 -38 -83.5 -64.5t-74.5 -43t-71.5 -24t-74.5 -7.5q-65 0 -116.5 18.5t-87 58t-55 101t-19.5 148.5zM738 659q-14 16 -33 31 t-42 26t-48 18t-52 7q-46 0 -84 -19t-68 -51.5t-52 -75t-37 -87.5t-22.5 -91t-7.5 -86q0 -83 28 -121.5t88 -38.5q34 0 68.5 10.5t67 26.5t62 36t53.5 40zM317 1092l34 161h573l-34 -161h-573z" />
<glyph unicode="&#x102;" horiz-adv-x="1140" d="M-71 0l643 1204h314l135 -1204h-237l-27 244h-451l-131 -244h-246zM418 459h316l-52 498zM1095 1605q-12 -65 -40 -117t-71.5 -88.5t-103.5 -56t-135 -19.5q-71 0 -122 17.5t-84 48t-48.5 71t-15.5 86.5q0 14 1.5 28.5t4.5 29.5h162q2 -50 31 -73t92 -23q37 0 64.5 7 t47 19t33.5 30t24 40h160z" />
<glyph unicode="&#x103;" d="M57 299q0 69 13.5 143t40.5 145t67 135t93.5 112t119 76.5t143.5 28.5q81 0 141.5 -24.5t101.5 -69.5l14 68h217l-190 -913h-184l5 112q-45 -38 -83.5 -64.5t-74.5 -43t-71.5 -24t-74.5 -7.5q-65 0 -116.5 18.5t-87 58t-55 101t-19.5 148.5zM738 659q-14 16 -33 31 t-42 26t-48 18t-52 7q-46 0 -84 -19t-68 -51.5t-52 -75t-37 -87.5t-22.5 -91t-7.5 -86q0 -83 28 -121.5t88 -38.5q34 0 68.5 10.5t67 26.5t62 36t53.5 40zM944 1313q-12 -65 -40 -117t-71.5 -88.5t-103.5 -56t-135 -19.5q-71 0 -122 17.5t-84 48t-48.5 71t-15.5 86.5 q0 14 1.5 28.5t4.5 29.5h162q2 -50 31 -73t92 -23q37 0 64.5 7t47 19t33.5 30t24 40h160z" />
<glyph unicode="&#x104;" horiz-adv-x="1140" d="M959 -289q-52 -27 -103 -41t-97 -14q-89 0 -131.5 33.5t-42.5 109.5q0 72 52.5 127t144.5 90l-25 228h-451l-131 -244h-246l643 1204h314l135 -1204q-67 -15 -114 -30.5t-76.5 -32.5t-42.5 -36.5t-13 -41.5q0 -18 12 -27.5t29 -9.5q13 0 40 6t52 21zM418 459h316l-52 498 z" />
<glyph unicode="&#x105;" d="M838 -289q-52 -27 -103 -41t-97 -14q-89 0 -132 33.5t-43 109.5q0 65 46 121.5t125 95.5l5 96q-45 -38 -83.5 -64.5t-74.5 -43t-71.5 -24t-74.5 -7.5q-65 0 -116.5 18.5t-87 58t-55 101t-19.5 148.5q0 69 13.5 143t40.5 145t67 135t93.5 112t119 76.5t143.5 28.5 q81 0 141.5 -24.5t101.5 -69.5l14 68h217l-190 -913q-47 -13 -78.5 -29.5t-50 -35t-27 -38t-8.5 -38.5q0 -18 12 -27.5t29 -9.5q13 0 40 6t52 21zM738 659q-14 16 -33 31t-42 26t-48 18t-52 7q-46 0 -84 -19t-68 -51.5t-52 -75t-37 -87.5t-22.5 -91t-7.5 -86 q0 -83 28 -121.5t88 -38.5q34 0 68.5 10.5t67 26.5t62 36t53.5 40z" />
<glyph unicode="&#x106;" horiz-adv-x="1117" d="M1025 199q-45 -49 -97 -90.5t-113.5 -71t-135 -46t-159.5 -16.5q-222 0 -332.5 109.5t-110.5 345.5q0 42 4.5 93.5t16 109t30.5 117.5t47 119q35 72 85 137.5t117.5 115t153 78.5t192.5 29q88 0 156.5 -16.5t121.5 -47t91 -73.5t64 -96l-212 -130q-19 41 -41 68.5t-49 45 t-61.5 25t-79.5 7.5q-57 0 -103 -16t-84 -45.5t-66.5 -70t-49.5 -87.5q-23 -52 -37.5 -102.5t-24 -96.5t-13.5 -87.5t-4 -73.5q0 -68 16.5 -114.5t43.5 -74t64 -40t77 -12.5q51 0 93.5 8.5t81 27t74.5 48t74 71.5zM769 1343h-187l212 314h284z" />
<glyph unicode="&#x107;" horiz-adv-x="903" d="M793 130q-34 -37 -76 -66t-90 -49.5t-100 -31t-107 -10.5q-98 0 -167 24.5t-112 72t-62.5 117.5t-19.5 160q0 51 11.5 114.5t36 129t64.5 128t97.5 111.5t134 79t175.5 30q65 0 116.5 -10t93 -30t73 -50t55.5 -70l-185 -116q-25 41 -62.5 60.5t-102.5 19.5q-51 0 -91 -20 t-71 -53t-52 -75.5t-35 -87t-20 -88t-6 -77.5q0 -40 6.5 -72t23.5 -54.5t47 -34t76 -11.5q59 0 110 23.5t92 66.5zM611 1051h-187l212 314h284z" />
<glyph unicode="&#x108;" horiz-adv-x="1117" d="M1025 199q-45 -49 -97 -90.5t-113.5 -71t-135 -46t-159.5 -16.5q-222 0 -332.5 109.5t-110.5 345.5q0 42 4.5 93.5t16 109t30.5 117.5t47 119q35 72 85 137.5t117.5 115t153 78.5t192.5 29q88 0 156.5 -16.5t121.5 -47t91 -73.5t64 -96l-212 -130q-19 41 -41 68.5t-49 45 t-61.5 25t-79.5 7.5q-57 0 -103 -16t-84 -45.5t-66.5 -70t-49.5 -87.5q-23 -52 -37.5 -102.5t-24 -96.5t-13.5 -87.5t-4 -73.5q0 -68 16.5 -114.5t43.5 -74t64 -40t77 -12.5q51 0 93.5 8.5t81 27t74.5 48t74 71.5zM905 1343l-91 151l-160 -151h-184l267 314h209l134 -314 h-175z" />
<glyph unicode="&#x109;" horiz-adv-x="903" d="M793 130q-34 -37 -76 -66t-90 -49.5t-100 -31t-107 -10.5q-98 0 -167 24.5t-112 72t-62.5 117.5t-19.5 160q0 51 11.5 114.5t36 129t64.5 128t97.5 111.5t134 79t175.5 30q65 0 116.5 -10t93 -30t73 -50t55.5 -70l-185 -116q-25 41 -62.5 60.5t-102.5 19.5q-51 0 -91 -20 t-71 -53t-52 -75.5t-35 -87t-20 -88t-6 -77.5q0 -40 6.5 -72t23.5 -54.5t47 -34t76 -11.5q59 0 110 23.5t92 66.5zM734 1051l-91 151l-160 -151h-184l267 314h209l134 -314h-175z" />
<glyph unicode="&#x10a;" horiz-adv-x="1117" d="M1025 199q-45 -49 -97 -90.5t-113.5 -71t-135 -46t-159.5 -16.5q-222 0 -332.5 109.5t-110.5 345.5q0 42 4.5 93.5t16 109t30.5 117.5t47 119q35 72 85 137.5t117.5 115t153 78.5t192.5 29q88 0 156.5 -16.5t121.5 -47t91 -73.5t64 -96l-212 -130q-19 41 -41 68.5t-49 45 t-61.5 25t-79.5 7.5q-57 0 -103 -16t-84 -45.5t-66.5 -70t-49.5 -87.5q-23 -52 -37.5 -102.5t-24 -96.5t-13.5 -87.5t-4 -73.5q0 -68 16.5 -114.5t43.5 -74t64 -40t77 -12.5q51 0 93.5 8.5t81 27t74.5 48t74 71.5zM910 1494q0 -21 -5.5 -46.5t-18.5 -47.5q-20 -33 -52 -47 t-79 -14q-55 0 -78 18.5t-23 51.5q0 22 4.5 45t14.5 44q18 36 49.5 52.5t81.5 16.5q56 0 81 -17t25 -56z" />
<glyph unicode="&#x10b;" horiz-adv-x="903" d="M793 130q-34 -37 -76 -66t-90 -49.5t-100 -31t-107 -10.5q-98 0 -167 24.5t-112 72t-62.5 117.5t-19.5 160q0 51 11.5 114.5t36 129t64.5 128t97.5 111.5t134 79t175.5 30q65 0 116.5 -10t93 -30t73 -50t55.5 -70l-185 -116q-25 41 -62.5 60.5t-102.5 19.5q-51 0 -91 -20 t-71 -53t-52 -75.5t-35 -87t-20 -88t-6 -77.5q0 -40 6.5 -72t23.5 -54.5t47 -34t76 -11.5q59 0 110 23.5t92 66.5zM753 1202q0 -21 -5.5 -46.5t-18.5 -47.5q-20 -33 -52 -47t-79 -14q-55 0 -78 18.5t-23 51.5q0 22 4.5 45t14.5 44q18 36 49.5 52.5t81.5 16.5q56 0 81 -17 t25 -56z" />
<glyph unicode="&#x10c;" horiz-adv-x="1117" d="M1025 199q-45 -49 -97 -90.5t-113.5 -71t-135 -46t-159.5 -16.5q-222 0 -332.5 109.5t-110.5 345.5q0 42 4.5 93.5t16 109t30.5 117.5t47 119q35 72 85 137.5t117.5 115t153 78.5t192.5 29q88 0 156.5 -16.5t121.5 -47t91 -73.5t64 -96l-212 -130q-19 41 -41 68.5t-49 45 t-61.5 25t-79.5 7.5q-57 0 -103 -16t-84 -45.5t-66.5 -70t-49.5 -87.5q-23 -52 -37.5 -102.5t-24 -96.5t-13.5 -87.5t-4 -73.5q0 -68 16.5 -114.5t43.5 -74t64 -40t77 -12.5q51 0 93.5 8.5t81 27t74.5 48t74 71.5zM695 1657l91 -151l160 151h183l-267 -314h-208l-134 314 h175z" />
<glyph unicode="&#x10d;" horiz-adv-x="903" d="M793 130q-34 -37 -76 -66t-90 -49.5t-100 -31t-107 -10.5q-98 0 -167 24.5t-112 72t-62.5 117.5t-19.5 160q0 51 11.5 114.5t36 129t64.5 128t97.5 111.5t134 79t175.5 30q65 0 116.5 -10t93 -30t73 -50t55.5 -70l-185 -116q-25 41 -62.5 60.5t-102.5 19.5q-51 0 -91 -20 t-71 -53t-52 -75.5t-35 -87t-20 -88t-6 -77.5q0 -40 6.5 -72t23.5 -54.5t47 -34t76 -11.5q59 0 110 23.5t92 66.5zM538 1365l91 -151l160 151h183l-267 -314h-208l-134 314h175z" />
<glyph unicode="&#x10e;" horiz-adv-x="1118" d="M1103 802q0 -48 -5 -103.5t-16 -114.5t-28.5 -119t-42 -117t-58 -107t-74.5 -90q-46 -41 -100.5 -70.5t-117.5 -47t-133.5 -25.5t-146.5 -8h-359l254 1204h343q120 0 210.5 -20.5t151 -67.5t91.5 -124t31 -190zM401 224q54 0 99 3.5t83 13t68.5 24.5t55.5 39 q34 34 61.5 91.5t46 124t28.5 135.5t10 125q0 59 -15.5 97t-47.5 60.5t-81 32.5t-114 10h-126l-161 -756h93zM606 1657l91 -151l160 151h183l-267 -314h-208l-134 314h175z" />
<glyph unicode="&#x10f;" horiz-adv-x="1147" d="M57 299q0 64 11 128.5t31.5 125.5t50 118t66.5 106q60 79 142 120.5t187 41.5q73 0 132 -24.5t100 -69.5l96 450h217l-272 -1295h-201l17 89q-70 -54 -143 -85t-144 -31q-69 0 -123 18.5t-91 58t-56.5 101t-19.5 148.5zM388 643q-20 -28 -37.5 -64t-30.5 -77t-20.5 -85 t-7.5 -86q0 -82 30 -121t103 -39q27 0 57.5 7t60.5 19t58.5 28.5t52.5 34.5l84 399q-14 16 -33 31t-42 26t-48 18t-52 7q-43 0 -89.5 -22t-85.5 -76zM1241 981h-148l103 314h240z" />
<glyph unicode="&#x110;" horiz-adv-x="1118" d="M1103 802q0 -48 -5 -103.5t-16 -114.5t-28.5 -119t-42 -117t-58 -107t-74.5 -90q-46 -41 -100.5 -70.5t-117.5 -47t-133.5 -25.5t-146.5 -8h-359l106 505h-106l41 195h107l106 504h343q120 0 210.5 -20.5t151 -67.5t91.5 -124t31 -190zM401 224q54 0 99 3.5t83 13 t68.5 24.5t55.5 39q34 34 61.5 91.5t46 124t28.5 135.5t10 125q0 59 -15.5 97t-47.5 60.5t-81 32.5t-114 10h-126l-59 -280h249l-40 -195h-252l-59 -281h93z" />
<glyph unicode="&#x111;" d="M57 299q0 64 11 128.5t31.5 125.5t50 118t66.5 106q60 79 142 120.5t187 41.5q73 0 132 -24.5t100 -69.5l41 197h-237l34 160h238l20 93h217l-19 -93h116l-34 -160h-116l-219 -1042h-201l17 89q-70 -54 -143 -85t-144 -31q-69 0 -123 18.5t-91 58t-56.5 101t-19.5 148.5z M388 643q-20 -28 -37.5 -64t-30.5 -77t-20.5 -85t-7.5 -86q0 -82 30 -121t103 -39q27 0 57.5 7t60.5 19t58.5 28.5t52.5 34.5l84 399q-14 16 -33 31t-42 26t-48 18t-52 7q-43 0 -89.5 -22t-85.5 -76z" />
<glyph unicode="&#x112;" horiz-adv-x="979" d="M32 0l255 1204h766l-46 -217h-526l-53 -256h443l-46 -218h-444l-62 -289h526l-46 -224h-767zM408 1384l34 161h573l-34 -161h-573z" />
<glyph unicode="&#x113;" horiz-adv-x="974" d="M294 398q-4 -20 -5.5 -40t-1.5 -35q0 -81 41 -117t119 -36q79 0 134 22.5t101 64.5l125 -143q-34 -33 -70 -59t-80.5 -44.5t-100.5 -28t-128 -9.5q-101 0 -171.5 27t-115 74t-64.5 110.5t-20 136.5q0 116 35 227t105 211q29 40 67 73t85.5 57t104 37t122.5 13 q91 0 157.5 -21t109.5 -61.5t63.5 -99.5t20.5 -135q0 -19 -3.5 -50t-9.5 -59l-23 -115h-597zM700 552q5 22 7 40t2 35q0 67 -31.5 100t-111.5 33q-60 0 -101 -20.5t-71 -59.5q-20 -25 -37 -59t-27 -69h370zM335 1092l34 161h573l-34 -161h-573z" />
<glyph unicode="&#x114;" horiz-adv-x="979" d="M32 0l255 1204h766l-46 -217h-526l-53 -256h443l-46 -218h-444l-62 -289h526l-46 -224h-767zM1022 1605q-12 -65 -40 -117t-71.5 -88.5t-103.5 -56t-135 -19.5q-71 0 -122 17.5t-84 48t-48.5 71t-15.5 86.5q0 14 1.5 28.5t4.5 29.5h162q2 -50 31 -73t92 -23q37 0 64.5 7 t47 19t33.5 30t24 40h160z" />
<glyph unicode="&#x115;" horiz-adv-x="974" d="M294 398q-4 -20 -5.5 -40t-1.5 -35q0 -81 41 -117t119 -36q79 0 134 22.5t101 64.5l125 -143q-34 -33 -70 -59t-80.5 -44.5t-100.5 -28t-128 -9.5q-101 0 -171.5 27t-115 74t-64.5 110.5t-20 136.5q0 116 35 227t105 211q29 40 67 73t85.5 57t104 37t122.5 13 q91 0 157.5 -21t109.5 -61.5t63.5 -99.5t20.5 -135q0 -19 -3.5 -50t-9.5 -59l-23 -115h-597zM700 552q5 22 7 40t2 35q0 67 -31.5 100t-111.5 33q-60 0 -101 -20.5t-71 -59.5q-20 -25 -37 -59t-27 -69h370zM962 1313q-12 -65 -40 -117t-71.5 -88.5t-103.5 -56t-135 -19.5 q-71 0 -122 17.5t-84 48t-48.5 71t-15.5 86.5q0 14 1.5 28.5t4.5 29.5h162q2 -50 31 -73t92 -23q37 0 64.5 7t47 19t33.5 30t24 40h160z" />
<glyph unicode="&#x116;" horiz-adv-x="979" d="M32 0l255 1204h766l-46 -217h-526l-53 -256h443l-46 -218h-444l-62 -289h526l-46 -224h-767zM830 1494q0 -21 -5.5 -46.5t-18.5 -47.5q-20 -33 -52 -47t-79 -14q-55 0 -78 18.5t-23 51.5q0 22 4.5 45t14.5 44q18 36 49.5 52.5t81.5 16.5q56 0 81 -17t25 -56z" />
<glyph unicode="&#x117;" horiz-adv-x="974" d="M294 398q-4 -20 -5.5 -40t-1.5 -35q0 -81 41 -117t119 -36q79 0 134 22.5t101 64.5l125 -143q-34 -33 -70 -59t-80.5 -44.5t-100.5 -28t-128 -9.5q-101 0 -171.5 27t-115 74t-64.5 110.5t-20 136.5q0 116 35 227t105 211q29 40 67 73t85.5 57t104 37t122.5 13 q91 0 157.5 -21t109.5 -61.5t63.5 -99.5t20.5 -135q0 -19 -3.5 -50t-9.5 -59l-23 -115h-597zM700 552q5 22 7 40t2 35q0 67 -31.5 100t-111.5 33q-60 0 -101 -20.5t-71 -59.5q-20 -25 -37 -59t-27 -69h370zM737 1202q0 -21 -5.5 -46.5t-18.5 -47.5q-20 -33 -52 -47t-79 -14 q-55 0 -78 18.5t-23 51.5q0 22 4.5 45t14.5 44q18 36 49.5 52.5t81.5 16.5q56 0 81 -17t25 -56z" />
<glyph unicode="&#x118;" horiz-adv-x="979" d="M736 -289q-52 -27 -103 -41t-97 -14q-89 0 -131.5 33.5t-42.5 109.5q0 64 41.5 114t115.5 87h-487l255 1204h766l-46 -217h-526l-53 -256h443l-46 -218h-444l-62 -289h526l-46 -224q-68 -15 -115 -30.5t-76 -32.5t-42.5 -36.5t-13.5 -41.5q0 -18 12 -27.5t29 -9.5 q13 0 40 6t53 21z" />
<glyph unicode="&#x119;" horiz-adv-x="974" d="M740 -289q-53 -27 -103.5 -41t-96.5 -14q-89 0 -132 33.5t-43 109.5q0 53 26.5 96.5t71.5 81.5q-8 -2 -17.5 -3t-17.5 -1q-101 0 -171.5 27t-115 74t-64.5 110.5t-20 136.5q0 116 35 227t105 211q29 40 67 73t85.5 57t104 37t122.5 13q91 0 157.5 -21t109.5 -61.5 t63.5 -99.5t20.5 -135q0 -19 -3.5 -50t-9.5 -59l-23 -115h-597q-4 -20 -5.5 -40t-1.5 -35q0 -81 41 -117t119 -36q79 0 134 22.5t101 64.5l125 -143q-21 -22 -43 -39.5t-45 -31.5q-50 -33 -81.5 -59.5t-50 -48.5t-25 -40.5t-6.5 -35.5q0 -18 12 -27.5t34 -9.5q10 0 36.5 6 t51.5 21zM700 552q5 22 7 40t2 35q0 67 -31.5 100t-111.5 33q-60 0 -101 -20.5t-71 -59.5q-20 -25 -37 -59t-27 -69h370z" />
<glyph unicode="&#x11a;" horiz-adv-x="979" d="M32 0l255 1204h766l-46 -217h-526l-53 -256h443l-46 -218h-444l-62 -289h526l-46 -224h-767zM610 1657l91 -151l160 151h183l-267 -314h-208l-134 314h175z" />
<glyph unicode="&#x11b;" horiz-adv-x="974" d="M294 398q-4 -20 -5.5 -40t-1.5 -35q0 -81 41 -117t119 -36q79 0 134 22.5t101 64.5l125 -143q-34 -33 -70 -59t-80.5 -44.5t-100.5 -28t-128 -9.5q-101 0 -171.5 27t-115 74t-64.5 110.5t-20 136.5q0 116 35 227t105 211q29 40 67 73t85.5 57t104 37t122.5 13 q91 0 157.5 -21t109.5 -61.5t63.5 -99.5t20.5 -135q0 -19 -3.5 -50t-9.5 -59l-23 -115h-597zM700 552q5 22 7 40t2 35q0 67 -31.5 100t-111.5 33q-60 0 -101 -20.5t-71 -59.5q-20 -25 -37 -59t-27 -69h370zM522 1365l91 -151l160 151h183l-267 -314h-208l-134 314h175z" />
<glyph unicode="&#x11c;" horiz-adv-x="1205" d="M994 869q-34 71 -96.5 107t-144.5 36q-75 0 -128.5 -18t-93 -51.5t-69 -81.5t-56.5 -109q-18 -42 -31.5 -86t-21.5 -86.5t-12 -82t-4 -73.5q0 -65 11.5 -109t39.5 -71.5t74 -39.5t114 -12q62 0 119.5 15t110.5 43l39 180h-230l46 216h473l-115 -532q-95 -62 -211 -100.5 t-252 -38.5q-119 0 -208 24t-147.5 76.5t-87.5 135t-29 199.5q0 94 20.5 199.5t66.5 208.5q38 84 86.5 159t119 131t167.5 88.5t231 32.5q80 0 145 -13.5t117 -40.5t93.5 -67.5t75.5 -93.5zM914 1343l-91 151l-160 -151h-184l267 314h209l134 -314h-175z" />
<glyph unicode="&#x11d;" d="M821 17q-19 -91 -54 -159t-94.5 -112.5t-148 -67t-214.5 -22.5q-55 0 -107 6t-98.5 16t-86.5 24t-69 33l101 183q57 -30 127 -48t146 -18q68 0 116.5 9.5t81 31t52 54.5t29.5 80l17 75q-31 -23 -63.5 -41.5t-65 -32t-64.5 -21t-61 -7.5q-80 0 -137 20.5t-94 63t-54 108.5 t-17 159q0 71 14 142.5t42.5 136.5t70.5 121.5t97.5 98t123 65.5t148.5 24q36 0 70.5 -9t65 -23.5t56 -35t43.5 -45.5l47 87h169zM736 659q-37 42 -80.5 62t-99.5 20q-44 0 -80.5 -17.5t-65 -47t-50.5 -68t-36 -81t-21 -85.5t-7 -80q0 -44 6.5 -75.5t21.5 -51t40 -29 t61 -9.5q52 0 109.5 20.5t123.5 69.5zM743 1051l-91 151l-160 -151h-184l267 314h209l134 -314h-175z" />
<glyph unicode="&#x11e;" horiz-adv-x="1205" d="M994 869q-34 71 -96.5 107t-144.5 36q-75 0 -128.5 -18t-93 -51.5t-69 -81.5t-56.5 -109q-18 -42 -31.5 -86t-21.5 -86.5t-12 -82t-4 -73.5q0 -65 11.5 -109t39.5 -71.5t74 -39.5t114 -12q62 0 119.5 15t110.5 43l39 180h-230l46 216h473l-115 -532q-95 -62 -211 -100.5 t-252 -38.5q-119 0 -208 24t-147.5 76.5t-87.5 135t-29 199.5q0 94 20.5 199.5t66.5 208.5q38 84 86.5 159t119 131t167.5 88.5t231 32.5q80 0 145 -13.5t117 -40.5t93.5 -67.5t75.5 -93.5zM1138 1605q-12 -65 -40 -117t-71.5 -88.5t-103.5 -56t-135 -19.5q-71 0 -122 17.5 t-84 48t-48.5 71t-15.5 86.5q0 14 1.5 28.5t4.5 29.5h162q2 -50 31 -73t92 -23q37 0 64.5 7t47 19t33.5 30t24 40h160z" />
<glyph unicode="&#x11f;" d="M821 17q-19 -91 -54 -159t-94.5 -112.5t-148 -67t-214.5 -22.5q-55 0 -107 6t-98.5 16t-86.5 24t-69 33l101 183q57 -30 127 -48t146 -18q68 0 116.5 9.5t81 31t52 54.5t29.5 80l17 75q-31 -23 -63.5 -41.5t-65 -32t-64.5 -21t-61 -7.5q-80 0 -137 20.5t-94 63t-54 108.5 t-17 159q0 71 14 142.5t42.5 136.5t70.5 121.5t97.5 98t123 65.5t148.5 24q36 0 70.5 -9t65 -23.5t56 -35t43.5 -45.5l47 87h169zM736 659q-37 42 -80.5 62t-99.5 20q-44 0 -80.5 -17.5t-65 -47t-50.5 -68t-36 -81t-21 -85.5t-7 -80q0 -44 6.5 -75.5t21.5 -51t40 -29 t61 -9.5q52 0 109.5 20.5t123.5 69.5zM951 1313q-12 -65 -40 -117t-71.5 -88.5t-103.5 -56t-135 -19.5q-71 0 -122 17.5t-84 48t-48.5 71t-15.5 86.5q0 14 1.5 28.5t4.5 29.5h162q2 -50 31 -73t92 -23q37 0 64.5 7t47 19t33.5 30t24 40h160z" />
<glyph unicode="&#x120;" horiz-adv-x="1205" d="M994 869q-34 71 -96.5 107t-144.5 36q-75 0 -128.5 -18t-93 -51.5t-69 -81.5t-56.5 -109q-18 -42 -31.5 -86t-21.5 -86.5t-12 -82t-4 -73.5q0 -65 11.5 -109t39.5 -71.5t74 -39.5t114 -12q62 0 119.5 15t110.5 43l39 180h-230l46 216h473l-115 -532q-95 -62 -211 -100.5 t-252 -38.5q-119 0 -208 24t-147.5 76.5t-87.5 135t-29 199.5q0 94 20.5 199.5t66.5 208.5q38 84 86.5 159t119 131t167.5 88.5t231 32.5q80 0 145 -13.5t117 -40.5t93.5 -67.5t75.5 -93.5zM922 1494q0 -21 -5.5 -46.5t-18.5 -47.5q-20 -33 -52 -47t-79 -14q-55 0 -78 18.5 t-23 51.5q0 22 4.5 45t14.5 44q18 36 49.5 52.5t81.5 16.5q56 0 81 -17t25 -56z" />
<glyph unicode="&#x121;" d="M821 17q-19 -91 -54 -159t-94.5 -112.5t-148 -67t-214.5 -22.5q-55 0 -107 6t-98.5 16t-86.5 24t-69 33l101 183q57 -30 127 -48t146 -18q68 0 116.5 9.5t81 31t52 54.5t29.5 80l17 75q-31 -23 -63.5 -41.5t-65 -32t-64.5 -21t-61 -7.5q-80 0 -137 20.5t-94 63t-54 108.5 t-17 159q0 71 14 142.5t42.5 136.5t70.5 121.5t97.5 98t123 65.5t148.5 24q36 0 70.5 -9t65 -23.5t56 -35t43.5 -45.5l47 87h169zM736 659q-37 42 -80.5 62t-99.5 20q-44 0 -80.5 -17.5t-65 -47t-50.5 -68t-36 -81t-21 -85.5t-7 -80q0 -44 6.5 -75.5t21.5 -51t40 -29 t61 -9.5q52 0 109.5 20.5t123.5 69.5zM735 1202q0 -21 -5.5 -46.5t-18.5 -47.5q-20 -33 -52 -47t-79 -14q-55 0 -78 18.5t-23 51.5q0 22 4.5 45t14.5 44q18 36 49.5 52.5t81.5 16.5q56 0 81 -17t25 -56z" />
<glyph unicode="&#x122;" horiz-adv-x="1205" d="M994 869q-34 71 -96.5 107t-144.5 36q-75 0 -128.5 -18t-93 -51.5t-69 -81.5t-56.5 -109q-18 -42 -31.5 -86t-21.5 -86.5t-12 -82t-4 -73.5q0 -65 11.5 -109t39.5 -71.5t74 -39.5t114 -12q62 0 119.5 15t110.5 43l39 180h-230l46 216h473l-115 -532q-95 -62 -211 -100.5 t-252 -38.5q-119 0 -208 24t-147.5 76.5t-87.5 135t-29 199.5q0 94 20.5 199.5t66.5 208.5q38 84 86.5 159t119 131t167.5 88.5t231 32.5q80 0 145 -13.5t117 -40.5t93.5 -67.5t75.5 -93.5zM348 -490q48 48 70 83.5t33 68.5q-85 5 -85 83q0 22 5 46t14 46t21.5 40.5 t26.5 30.5q22 17 49 22.5t62 5.5q59 0 84 -26.5t25 -74.5q0 -42 -11.5 -83t-31.5 -80q-45 -86 -122 -162h-140z" />
<glyph unicode="&#x123;" d="M821 17q-19 -91 -54 -159t-94.5 -112.5t-148 -67t-214.5 -22.5q-55 0 -107 6t-98.5 16t-86.5 24t-69 33l101 183q57 -30 127 -48t146 -18q68 0 116.5 9.5t81 31t52 54.5t29.5 80l17 75q-31 -23 -63.5 -41.5t-65 -32t-64.5 -21t-61 -7.5q-80 0 -137 20.5t-94 63t-54 108.5 t-17 159q0 71 14 142.5t42.5 136.5t70.5 121.5t97.5 98t123 65.5t148.5 24q36 0 70.5 -9t65 -23.5t56 -35t43.5 -45.5l47 87h169zM736 659q-37 42 -80.5 62t-99.5 20q-44 0 -80.5 -17.5t-65 -47t-50.5 -68t-36 -81t-21 -85.5t-7 -80q0 -44 6.5 -75.5t21.5 -51t40 -29 t61 -9.5q52 0 109.5 20.5t123.5 69.5zM804 1440q-24 -25 -41 -45t-29.5 -38.5t-20 -35t-12.5 -33.5q44 -2 65 -23.5t21 -60.5q0 -22 -5.5 -46t-14.5 -45.5t-21 -40t-27 -30.5q-22 -17 -49 -22.5t-62 -5.5q-59 0 -83.5 26.5t-24.5 74.5q0 42 11 82.5t31 79.5q23 45 53.5 85 t67.5 78h141z" />
<glyph unicode="&#x124;" horiz-adv-x="1200" d="M738 0l109 512h-466l-109 -512h-240l255 1204h240l-99 -468h465l100 468h240l-255 -1204h-240zM907 1343l-91 151l-160 -151h-184l267 314h209l134 -314h-175z" />
<glyph unicode="&#x125;" d="M604 0l107 503q9 47 15.5 84.5t6.5 70.5q0 45 -21 64t-61 19q-33 0 -68.5 -11t-70.5 -29.5t-69.5 -42.5t-66.5 -49l-128 -609h-219l274 1295h219l-107 -501q34 30 72 56.5t78.5 46t84.5 31t91 11.5q62 0 104 -18t68 -48t36.5 -69.5t10.5 -82.5q0 -40 -5 -80t-11 -65 l-121 -576h-219zM834 1343l-91 151l-160 -151h-184l267 314h209l134 -314h-175z" />
<glyph unicode="&#x126;" horiz-adv-x="1200" d="M736 0l104 490h-464l-104 -490h-240l182 862h-119l39 179h117l36 163h240l-35 -163h463l36 163h242l-36 -163h118l-40 -179h-115l-182 -862h-242zM886 714l32 148h-464l-32 -148h464z" />
<glyph unicode="&#x127;" d="M467 1042l-52 -248q34 30 72 56.5t78.5 46t84.5 31t91 11.5q62 0 104 -18t68 -48t36.5 -69.5t10.5 -82.5q0 -40 -5 -80t-11 -65l-121 -576h-219l107 503q9 47 15.5 84.5t6.5 70.5q0 45 -21 64t-61 19q-33 0 -68.5 -11t-70.5 -29.5t-69.5 -42.5t-66.5 -49l-128 -609h-219 l221 1042h-124l34 160h124l19 93h219l-19 -93h230l-34 -160h-232z" />
<glyph unicode="&#x128;" horiz-adv-x="742" d="M559 0h-568l39 189h164l177 826h-164l39 189h568l-39 -189h-164l-176 -826h164zM207 1363q15 58 37 108t55 87.5t76.5 59t102.5 21.5q37 0 65.5 -9.5t49 -22.5t37 -29.5t30.5 -30t27 -22.5t30 -9q38 0 57 30.5t32 80.5h155q-15 -61 -37.5 -112.5t-54.5 -89t-76.5 -58.5 t-102.5 -21q-41 0 -69.5 10t-50 23.5t-36 30t-28 30.5t-26.5 23.5t-30 9.5t-30.5 -7.5t-23.5 -22.5t-18 -35.5t-16 -44.5h-155z" />
<glyph unicode="&#x129;" horiz-adv-x="468" d="M29 0l192 913h219l-192 -913h-219zM2 1071q15 58 37 108t55 87.5t76.5 59t102.5 21.5q37 0 65.5 -9.5t49 -22.5t37 -29.5t30.5 -30t27 -22.5t30 -9q38 0 57 30.5t32 80.5h155q-15 -61 -37.5 -112.5t-54.5 -89t-76.5 -58.5t-102.5 -21q-41 0 -69.5 10t-50 23.5t-36 30 t-28 30.5t-26.5 23.5t-30 9.5t-30.5 -7.5t-23.5 -22.5t-18 -35.5t-16 -44.5h-155z" />
<glyph unicode="&#x12a;" horiz-adv-x="742" d="M559 0h-568l39 189h164l177 826h-164l39 189h568l-39 -189h-164l-176 -826h164zM275 1384l34 161h573l-34 -161h-573z" />
<glyph unicode="&#x12b;" horiz-adv-x="468" d="M29 0l192 913h219l-192 -913h-219zM79 1092l34 161h573l-34 -161h-573z" />
<glyph unicode="&#x12c;" horiz-adv-x="742" d="M559 0h-568l39 189h164l177 826h-164l39 189h568l-39 -189h-164l-176 -826h164zM900 1605q-12 -65 -40 -117t-71.5 -88.5t-103.5 -56t-135 -19.5q-71 0 -122 17.5t-84 48t-48.5 71t-15.5 86.5q0 14 1.5 28.5t4.5 29.5h162q2 -50 31 -73t92 -23q37 0 64.5 7t47 19t33.5 30 t24 40h160z" />
<glyph unicode="&#x12d;" horiz-adv-x="468" d="M29 0l192 913h219l-192 -913h-219zM699 1313q-12 -65 -40 -117t-71.5 -88.5t-103.5 -56t-135 -19.5q-71 0 -122 17.5t-84 48t-48.5 71t-15.5 86.5q0 14 1.5 28.5t4.5 29.5h162q2 -50 31 -73t92 -23q37 0 64.5 7t47 19t33.5 30t24 40h160z" />
<glyph unicode="&#x12e;" horiz-adv-x="742" d="M497 -289q-52 -27 -102.5 -41t-96.5 -14q-89 0 -132 33.5t-43 109.5q0 64 41.5 114t115.5 87h-289l39 189h164l177 826h-164l39 189h568l-39 -189h-164l-176 -826h164l-40 -189q-67 -15 -114 -30.5t-76.5 -32.5t-42.5 -36.5t-13 -41.5q0 -18 12.5 -27.5t29.5 -9.5 q13 0 40 6t52 21z" />
<glyph unicode="&#x12f;" horiz-adv-x="468" d="M248 0q-47 -13 -79 -29.5t-50.5 -35t-26.5 -38t-8 -38.5q0 -18 11.5 -27.5t28.5 -9.5q14 0 41 6t53 21l49 -138q-52 -27 -103 -41t-96 -14q-89 0 -132 33.5t-43 109.5q0 57 36.5 110t99.5 93l192 911h219zM257 1131q0 18 6 43t22 47.5t44.5 38t73.5 15.5q59 0 84 -21.5 t25 -59.5q0 -21 -7 -47t-24 -48t-45.5 -37t-71.5 -15q-31 0 -52 6t-33 17t-17 26.5t-5 34.5z" />
<glyph unicode="&#x130;" horiz-adv-x="742" d="M559 0h-568l39 189h164l177 826h-164l39 189h568l-39 -189h-164l-176 -826h164zM700 1494q0 -21 -5.5 -46.5t-18.5 -47.5q-20 -33 -52 -47t-79 -14q-55 0 -78 18.5t-23 51.5q0 22 4.5 45t14.5 44q18 36 49.5 52.5t81.5 16.5q56 0 81 -17t25 -56z" />
<glyph unicode="&#x131;" horiz-adv-x="468" d="M29 0l192 913h219l-192 -913h-219z" />
<glyph unicode="&#x132;" horiz-adv-x="1477" d="M559 0h-568l39 189h164l177 826h-164l39 189h568l-39 -189h-164l-176 -826h164zM1319 328q-18 -90 -51.5 -156.5t-86 -110.5t-125.5 -66t-172 -22q-65 0 -131 12.5t-118 34.5l92 211q30 -15 74 -27.5t92 -12.5q46 0 78 9t55 32t38.5 62.5t28.5 99.5l170 810h241z" />
<glyph unicode="&#x133;" horiz-adv-x="948" d="M29 0l192 913h219l-192 -913h-219zM257 1131q0 18 6 43t22 47.5t44.5 38t73.5 15.5q59 0 84 -21.5t25 -59.5q0 -21 -7 -47t-24 -48t-45.5 -37t-71.5 -15q-31 0 -52 6t-33 17t-17 26.5t-5 34.5zM720 -39q-17 -82 -46.5 -140t-74 -94.5t-106 -53.5t-141.5 -17 q-15 0 -37.5 2t-48 5t-50.5 7.5t-46 11.5l87 195q28 -12 58 -18.5t67 -6.5q32 0 53 10t35 32t23.5 55.5t19.5 82.5l187 881h221zM738 1131q0 18 6 43t22 47.5t45 38t73 15.5q59 0 84 -21.5t25 -59.5q0 -21 -7 -47t-24 -48t-45.5 -37t-71.5 -15q-31 0 -51.5 6t-33 17 t-17.5 26.5t-5 34.5z" />
<glyph unicode="&#x134;" horiz-adv-x="787" d="M629 328q-18 -90 -51.5 -156.5t-86 -110.5t-125.5 -66t-172 -22q-65 0 -131 12.5t-118 34.5l92 211q30 -15 74 -27.5t92 -12.5q46 0 78 9t55 32t38.5 62.5t28.5 99.5l170 810h241zM837 1343l-91 151l-160 -151h-184l267 314h209l134 -314h-175z" />
<glyph unicode="&#x135;" horiz-adv-x="479" d="M251 -39q-17 -82 -46.5 -140t-74 -94.5t-106 -53.5t-141.5 -17q-15 0 -37.5 2t-48 5t-50.5 7.5t-46 11.5l87 195q28 -12 58 -18.5t67 -6.5q32 0 53 10t35 32t23.5 55.5t19.5 82.5l187 881h221zM490 1051l-91 151l-160 -151h-184l267 314h209l134 -314h-175z" />
<glyph unicode="&#x136;" horiz-adv-x="1091" d="M690 0l-225 517l-103 -99l-90 -418h-240l255 1204h240l-92 -438l452 438h307l-549 -524l326 -680h-281zM271 -490q48 48 70 83.5t33 68.5q-85 5 -85 83q0 22 5 46t14 46t21.5 40.5t26.5 30.5q22 17 49 22.5t62 5.5q59 0 84 -26.5t25 -74.5q0 -42 -11.5 -83t-31.5 -80 q-45 -86 -122 -162h-140z" />
<glyph unicode="&#x137;" horiz-adv-x="936" d="M581 0l-161 385l-114 -101l-58 -284h-219l274 1295h219l-153 -725l358 343h269l-413 -389l238 -524h-240zM202 -490q48 48 70 83.5t33 68.5q-85 5 -85 83q0 22 5 46t14 46t21.5 40.5t26.5 30.5q22 17 49 22.5t62 5.5q59 0 84 -26.5t25 -74.5q0 -42 -11.5 -83t-31.5 -80 q-45 -86 -122 -162h-140z" />
<glyph unicode="&#x138;" horiz-adv-x="936" d="M581 0l-161 386l-114 -102l-58 -284h-219l192 913h219l-71 -345l315 305q40 39 81 52.5t82 13.5q20 0 52 -6t72 -20l-71 -170q-16 7 -28 8t-20 1q-15 0 -26.5 -6t-23.5 -17l-219 -205l238 -524h-240z" />
<glyph unicode="&#x139;" horiz-adv-x="885" d="M32 0l255 1204h240l-208 -980h495l-46 -224h-736zM610 1343h-187l212 314h284z" />
<glyph unicode="&#x13a;" horiz-adv-x="468" d="M29 0l274 1295h219l-274 -1295h-219zM464 1381h-187l212 314h284z" />
<glyph unicode="&#x13b;" horiz-adv-x="885" d="M32 0l255 1204h240l-208 -980h495l-46 -224h-736zM225 -490q48 48 70 83.5t33 68.5q-85 5 -85 83q0 22 5 46t14 46t21.5 40.5t26.5 30.5q22 17 49 22.5t62 5.5q59 0 84 -26.5t25 -74.5q0 -42 -11.5 -83t-31.5 -80q-45 -86 -122 -162h-140z" />
<glyph unicode="&#x13c;" horiz-adv-x="468" d="M29 0l274 1295h219l-274 -1295h-219zM-66 -490q48 48 70 83.5t33 68.5q-85 5 -85 83q0 22 5 46t14 46t21.5 40.5t26.5 30.5q22 17 49 22.5t62 5.5q59 0 84 -26.5t25 -74.5q0 -42 -11.5 -83t-31.5 -80q-45 -86 -122 -162h-140z" />
<glyph unicode="&#x13d;" horiz-adv-x="885" d="M32 0l255 1204h240l-208 -980h495l-46 -224h-736zM716 891h-148l103 314h240z" />
<glyph unicode="&#x13e;" horiz-adv-x="573" d="M29 0l274 1295h219l-274 -1295h-219zM675 981h-148l103 314h240z" />
<glyph unicode="&#x13f;" horiz-adv-x="885" d="M32 0l255 1204h240l-208 -980h495l-46 -224h-736zM813 703q0 -21 -5.5 -46.5t-18.5 -47.5q-20 -33 -52 -47t-79 -14q-55 0 -78 18.5t-23 51.5q0 22 4.5 45t14.5 44q18 36 49.5 52.5t81.5 16.5q56 0 81 -17t25 -56z" />
<glyph unicode="&#x140;" horiz-adv-x="610" d="M29 0l274 1295h219l-274 -1295h-219zM712 703q0 -21 -5.5 -46.5t-18.5 -47.5q-20 -33 -52 -47t-79 -14q-55 0 -78 18.5t-23 51.5q0 22 4.5 45t14.5 44q18 36 49.5 52.5t81.5 16.5q56 0 81 -17t25 -56z" />
<glyph unicode="&#x141;" horiz-adv-x="885" d="M405 626l-86 -402h495l-46 -224h-736l94 451l-138 -94l49 233l140 94l110 520h240l-73 -345l225 153l-50 -233z" />
<glyph unicode="&#x142;" horiz-adv-x="468" d="M29 0l95 454l-146 -116l44 202l143 112l138 643h219l-98 -457l146 114l-43 -202l-144 -112l-135 -638h-219z" />
<glyph unicode="&#x143;" horiz-adv-x="1202" d="M704 0l-255 860l-182 -860h-235l255 1204h298l240 -812l173 812h237l-255 -1204h-276zM805 1343h-187l212 314h284z" />
<glyph unicode="&#x144;" d="M604 0l107 503q9 47 15.5 85t6.5 75q0 42 -20.5 60t-58.5 18q-34 0 -70 -11t-71.5 -29.5t-70 -42.5t-66.5 -49l-128 -609h-219l192 913h219l-25 -119q34 30 71.5 56.5t78 46t83.5 31t88 11.5q64 0 107 -18t69 -48t37 -69.5t11 -82.5q0 -40 -5 -80t-11 -65l-121 -576h-219 zM672 1051h-187l212 314h284z" />
<glyph unicode="&#x145;" horiz-adv-x="1202" d="M704 0l-255 860l-182 -860h-235l255 1204h298l240 -812l173 812h237l-255 -1204h-276zM319 -490q48 48 70 83.5t33 68.5q-85 5 -85 83q0 22 5 46t14 46t21.5 40.5t26.5 30.5q22 17 49 22.5t62 5.5q59 0 84 -26.5t25 -74.5q0 -42 -11.5 -83t-31.5 -80q-45 -86 -122 -162 h-140z" />
<glyph unicode="&#x146;" d="M604 0l107 503q9 47 15.5 85t6.5 75q0 42 -20.5 60t-58.5 18q-34 0 -70 -11t-71.5 -29.5t-70 -42.5t-66.5 -49l-128 -609h-219l192 913h219l-25 -119q34 30 71.5 56.5t78 46t83.5 31t88 11.5q64 0 107 -18t69 -48t37 -69.5t11 -82.5q0 -40 -5 -80t-11 -65l-121 -576h-219 zM225 -490q48 48 70 83.5t33 68.5q-85 5 -85 83q0 22 5 46t14 46t21.5 40.5t26.5 30.5q22 17 49 22.5t62 5.5q59 0 84 -26.5t25 -74.5q0 -42 -11.5 -83t-31.5 -80q-45 -86 -122 -162h-140z" />
<glyph unicode="&#x147;" horiz-adv-x="1202" d="M704 0l-255 860l-182 -860h-235l255 1204h298l240 -812l173 812h237l-255 -1204h-276zM688 1657l91 -151l160 151h183l-267 -314h-208l-134 314h175z" />
<glyph unicode="&#x148;" d="M604 0l107 503q9 47 15.5 85t6.5 75q0 42 -20.5 60t-58.5 18q-34 0 -70 -11t-71.5 -29.5t-70 -42.5t-66.5 -49l-128 -609h-219l192 913h219l-25 -119q34 30 71.5 56.5t78 46t83.5 31t88 11.5q64 0 107 -18t69 -48t37 -69.5t11 -82.5q0 -40 -5 -80t-11 -65l-121 -576h-219 zM561 1365l91 -151l160 151h183l-267 -314h-208l-134 314h175z" />
<glyph unicode="&#x149;" horiz-adv-x="1224" d="M791 0l107 503q9 47 15.5 85t6.5 75q0 42 -20.5 60t-58.5 18q-34 0 -70 -11t-71.5 -29.5t-70 -42.5t-66.5 -49l-128 -609h-219l192 913h219l-25 -119q34 30 71.5 56.5t78 46t83.5 31t88 11.5q64 0 107 -18t69 -48t37 -69.5t11 -82.5q0 -40 -5 -80t-11 -65l-121 -576h-219 zM379 1126q0 -42 -13.5 -87.5t-39.5 -104.5q-30 -67 -69.5 -125t-76.5 -100h-162q33 37 60 74t47 70t33 59.5t19 42.5q-86 5 -86 82q0 23 7 54t19 57q18 39 52.5 60t93.5 21q62 0 89 -27t27 -76z" />
<glyph unicode="&#x14a;" horiz-adv-x="1202" d="M976 -14q-16 -80 -45 -141.5t-74.5 -103t-110 -63.5t-151.5 -22q-57 0 -115.5 12.5t-105.5 33.5l77 209q24 -15 60 -26t77 -11q31 0 55.5 6t43.5 21t32 40t21 62l-291 857l-182 -860h-235l255 1204h298l255 -745l158 745h237z" />
<glyph unicode="&#x14b;" d="M248 0h-219l192 913h219l-25 -119q34 30 71.5 56.5t78 46t83.5 31t88 11.5q64 0 107 -18t69 -48t37 -69.5t11 -82.5q0 -40 -5 -80t-11 -65l-128 -615q-16 -82 -45.5 -140t-74 -94.5t-105.5 -53.5t-142 -17q-15 0 -37 2t-47.5 5t-51 7.5t-46.5 11.5l88 195 q28 -12 58 -18.5t66 -6.5q33 0 54 10t35 32t23.5 55.5t19.5 82.5l100 471q9 47 15.5 85t6.5 75q0 42 -20.5 60t-58.5 18q-34 0 -70 -11t-71.5 -29.5t-70 -42.5t-66.5 -49z" />
<glyph unicode="&#x14c;" horiz-adv-x="1163" d="M517 -25q-121 0 -205 32t-136 89.5t-75.5 136t-23.5 170.5q0 49 4.5 102.5t15 108.5t27 111.5t40.5 110.5q36 84 85 156.5t115 125t151 82t194 29.5q103 0 184 -27.5t138 -84t87 -140.5t30 -197q0 -59 -14 -145.5t-44 -182.5q-34 -109 -85 -197.5t-121 -150.5t-161 -95.5 t-206 -33.5zM326 422q0 -62 12 -105.5t36 -71t62 -40.5t89 -13q61 0 111 21t89.5 60t70 95t52.5 125q23 71 35.5 142.5t12.5 129.5q0 130 -48 188.5t-156 58.5q-54 0 -98 -16t-80 -47.5t-66 -77t-54 -103.5q-17 -42 -30 -86.5t-21.5 -89.5t-12.5 -88t-4 -82zM497 1384 l34 161h573l-34 -161h-573z" />
<glyph unicode="&#x14d;" horiz-adv-x="1013" d="M59 331q0 47 8.5 106.5t28 122.5t51.5 124.5t81 111.5q65 69 152 106t212 37q82 0 149.5 -23t115 -69.5t73 -117t25.5 -164.5q0 -43 -9.5 -101.5t-31 -122t-56.5 -126t-86 -113.5q-37 -37 -74.5 -61t-80 -39.5t-91 -22t-108.5 -6.5q-97 0 -165.5 25t-111.5 72t-62.5 113 t-19.5 148zM291 328q0 -37 7.5 -67t25.5 -50t47 -30.5t71 -10.5q57 0 100 22.5t77 60.5q23 28 43 67t34 81.5t22 83.5t8 74q0 89 -40 136.5t-121 47.5q-55 0 -98.5 -24.5t-75.5 -64.5q-23 -28 -41.5 -67.5t-32 -83t-20 -88.5t-6.5 -87zM351 1092l34 161h573l-34 -161h-573z " />
<glyph unicode="&#x14e;" horiz-adv-x="1163" d="M517 -25q-121 0 -205 32t-136 89.5t-75.5 136t-23.5 170.5q0 49 4.5 102.5t15 108.5t27 111.5t40.5 110.5q36 84 85 156.5t115 125t151 82t194 29.5q103 0 184 -27.5t138 -84t87 -140.5t30 -197q0 -59 -14 -145.5t-44 -182.5q-34 -109 -85 -197.5t-121 -150.5t-161 -95.5 t-206 -33.5zM326 422q0 -62 12 -105.5t36 -71t62 -40.5t89 -13q61 0 111 21t89.5 60t70 95t52.5 125q23 71 35.5 142.5t12.5 129.5q0 130 -48 188.5t-156 58.5q-54 0 -98 -16t-80 -47.5t-66 -77t-54 -103.5q-17 -42 -30 -86.5t-21.5 -89.5t-12.5 -88t-4 -82zM1110 1605 q-12 -65 -40 -117t-71.5 -88.5t-103.5 -56t-135 -19.5q-71 0 -122 17.5t-84 48t-48.5 71t-15.5 86.5q0 14 1.5 28.5t4.5 29.5h162q2 -50 31 -73t92 -23q37 0 64.5 7t47 19t33.5 30t24 40h160z" />
<glyph unicode="&#x14f;" horiz-adv-x="1013" d="M59 331q0 47 8.5 106.5t28 122.5t51.5 124.5t81 111.5q65 69 152 106t212 37q82 0 149.5 -23t115 -69.5t73 -117t25.5 -164.5q0 -43 -9.5 -101.5t-31 -122t-56.5 -126t-86 -113.5q-37 -37 -74.5 -61t-80 -39.5t-91 -22t-108.5 -6.5q-97 0 -165.5 25t-111.5 72t-62.5 113 t-19.5 148zM291 328q0 -37 7.5 -67t25.5 -50t47 -30.5t71 -10.5q57 0 100 22.5t77 60.5q23 28 43 67t34 81.5t22 83.5t8 74q0 89 -40 136.5t-121 47.5q-55 0 -98.5 -24.5t-75.5 -64.5q-23 -28 -41.5 -67.5t-32 -83t-20 -88.5t-6.5 -87zM971 1313q-12 -65 -40 -117 t-71.5 -88.5t-103.5 -56t-135 -19.5q-71 0 -122 17.5t-84 48t-48.5 71t-15.5 86.5q0 14 1.5 28.5t4.5 29.5h162q2 -50 31 -73t92 -23q37 0 64.5 7t47 19t33.5 30t24 40h160z" />
<glyph unicode="&#x150;" horiz-adv-x="1163" d="M517 -25q-121 0 -205 32t-136 89.5t-75.5 136t-23.5 170.5q0 49 4.5 102.5t15 108.5t27 111.5t40.5 110.5q36 84 85 156.5t115 125t151 82t194 29.5q103 0 184 -27.5t138 -84t87 -140.5t30 -197q0 -59 -14 -145.5t-44 -182.5q-34 -109 -85 -197.5t-121 -150.5t-161 -95.5 t-206 -33.5zM326 422q0 -62 12 -105.5t36 -71t62 -40.5t89 -13q61 0 111 21t89.5 60t70 95t52.5 125q23 71 35.5 142.5t12.5 129.5q0 130 -48 188.5t-156 58.5q-54 0 -98 -16t-80 -47.5t-66 -77t-54 -103.5q-17 -42 -30 -86.5t-21.5 -89.5t-12.5 -88t-4 -82zM1037 1343h-183 l214 314h281zM683 1343h-184l214 314h281z" />
<glyph unicode="&#x151;" horiz-adv-x="1013" d="M59 331q0 47 8.5 106.5t28 122.5t51.5 124.5t81 111.5q65 69 152 106t212 37q82 0 149.5 -23t115 -69.5t73 -117t25.5 -164.5q0 -43 -9.5 -101.5t-31 -122t-56.5 -126t-86 -113.5q-37 -37 -74.5 -61t-80 -39.5t-91 -22t-108.5 -6.5q-97 0 -165.5 25t-111.5 72t-62.5 113 t-19.5 148zM291 328q0 -37 7.5 -67t25.5 -50t47 -30.5t71 -10.5q57 0 100 22.5t77 60.5q23 28 43 67t34 81.5t22 83.5t8 74q0 89 -40 136.5t-121 47.5q-55 0 -98.5 -24.5t-75.5 -64.5q-23 -28 -41.5 -67.5t-32 -83t-20 -88.5t-6.5 -87zM889 1051h-183l214 314h281zM535 1051 h-184l214 314h281z" />
<glyph unicode="&#x152;" horiz-adv-x="1587" d="M714 1229q52 0 104.5 -6.5t106.5 -18.5h736l-47 -217h-483l-53 -256h398l-47 -218h-397l-63 -289h483l-46 -224h-699q-47 -12 -91 -18.5t-99 -6.5q-121 0 -205 32t-136 89.5t-75.5 136t-23.5 170.5q0 80 14 172t45 184t80.5 177t120.5 150t164.5 104t212.5 39zM522 192 q33 0 60 1.5t52 6t48.5 11.5t51.5 20l157 738q-38 19 -84.5 31t-114.5 12q-67 0 -120.5 -28t-94 -74t-69.5 -106.5t-47 -126t-26.5 -132t-8.5 -123.5q0 -62 11.5 -105.5t35.5 -71t61 -40.5t88 -13z" />
<glyph unicode="&#x153;" horiz-adv-x="1598" d="M59 331q0 51 10.5 116t35 132t64.5 132t99 115.5t139 81.5t185 31q96 0 166.5 -36t110.5 -112q28 34 61 61t72.5 46.5t88.5 30t108 10.5q91 0 157.5 -21t109.5 -61.5t63.5 -99.5t20.5 -135q0 -19 -3.5 -50t-9.5 -59l-22 -115h-597q-4 -20 -5.5 -40t-1.5 -35 q0 -81 41 -117t119 -36q79 0 134 22.5t101 64.5l125 -143q-34 -33 -70 -59t-81 -44.5t-101 -28t-128 -9.5q-117 0 -189.5 36t-109.5 98q-57 -59 -137.5 -96.5t-189.5 -37.5q-98 0 -167.5 24.5t-113.5 70.5t-64.5 112.5t-20.5 150.5zM291 328q0 -37 7 -67t25.5 -50 t48.5 -30.5t75 -10.5q48 0 87 19t70 50.5t53.5 71.5t38 83.5t23 86.5t7.5 78q0 89 -38 136.5t-120 47.5q-46 0 -84.5 -17.5t-69.5 -47.5t-54 -70.5t-38.5 -86.5t-23 -95.5t-7.5 -97.5zM1324 552q4 22 6.5 40t2.5 35q0 67 -32 100t-111 33q-60 0 -101.5 -20.5t-71.5 -59.5 q-20 -25 -36.5 -59t-26.5 -69h370z" />
<glyph unicode="&#x154;" horiz-adv-x="1093" d="M702 0l-194 456h-139l-97 -456h-240l255 1204h420q102 0 175 -15t119.5 -50t68.5 -92.5t22 -141.5q0 -39 -9 -82.5t-25.5 -86.5t-42 -83.5t-58.5 -73.5q-43 -41 -96.5 -66t-105.5 -35l216 -478h-269zM590 670q72 0 117 12t72 39q14 15 25 34.5t18.5 41t11.5 42.5t4 40 q0 31 -8 52.5t-26 35t-47 19t-71 5.5h-203l-70 -321h177zM715 1343h-187l212 314h284z" />
<glyph unicode="&#x155;" horiz-adv-x="716" d="M713 692q-13 7 -35.5 13t-51.5 6q-60 0 -121.5 -30.5t-132.5 -87.5l-124 -593h-219l192 913h219l-27 -131q74 71 142 108t133 37q16 0 33 -2t32 -4.5t27.5 -6t19.5 -7.5zM546 1051h-187l212 314h284z" />
<glyph unicode="&#x156;" horiz-adv-x="1093" d="M702 0l-194 456h-139l-97 -456h-240l255 1204h420q102 0 175 -15t119.5 -50t68.5 -92.5t22 -141.5q0 -39 -9 -82.5t-25.5 -86.5t-42 -83.5t-58.5 -73.5q-43 -41 -96.5 -66t-105.5 -35l216 -478h-269zM590 670q72 0 117 12t72 39q14 15 25 34.5t18.5 41t11.5 42.5t4 40 q0 31 -8 52.5t-26 35t-47 19t-71 5.5h-203l-70 -321h177zM234 -490q48 48 70 83.5t33 68.5q-85 5 -85 83q0 22 5 46t14 46t21.5 40.5t26.5 30.5q22 17 49 22.5t62 5.5q59 0 84 -26.5t25 -74.5q0 -42 -11.5 -83t-31.5 -80q-45 -86 -122 -162h-140z" />
<glyph unicode="&#x157;" horiz-adv-x="716" d="M713 692q-13 7 -35.5 13t-51.5 6q-60 0 -121.5 -30.5t-132.5 -87.5l-124 -593h-219l192 913h219l-27 -131q74 71 142 108t133 37q16 0 33 -2t32 -4.5t27.5 -6t19.5 -7.5zM-70 -490q48 48 70 83.5t33 68.5q-85 5 -85 83q0 22 5 46t14 46t21.5 40.5t26.5 30.5 q22 17 49 22.5t62 5.5q59 0 84 -26.5t25 -74.5q0 -42 -11.5 -83t-31.5 -80q-45 -86 -122 -162h-140z" />
<glyph unicode="&#x158;" horiz-adv-x="1093" d="M702 0l-194 456h-139l-97 -456h-240l255 1204h420q102 0 175 -15t119.5 -50t68.5 -92.5t22 -141.5q0 -39 -9 -82.5t-25.5 -86.5t-42 -83.5t-58.5 -73.5q-43 -41 -96.5 -66t-105.5 -35l216 -478h-269zM590 670q72 0 117 12t72 39q14 15 25 34.5t18.5 41t11.5 42.5t4 40 q0 31 -8 52.5t-26 35t-47 19t-71 5.5h-203l-70 -321h177zM606 1657l91 -151l160 151h183l-267 -314h-208l-134 314h175z" />
<glyph unicode="&#x159;" horiz-adv-x="716" d="M713 692q-13 7 -35.5 13t-51.5 6q-60 0 -121.5 -30.5t-132.5 -87.5l-124 -593h-219l192 913h219l-27 -131q74 71 142 108t133 37q16 0 33 -2t32 -4.5t27.5 -6t19.5 -7.5zM438 1365l91 -151l160 151h183l-267 -314h-208l-134 314h175z" />
<glyph unicode="&#x15a;" horiz-adv-x="1047" d="M218 344q15 -33 34.5 -60.5t48.5 -48t69 -32t97 -11.5q48 0 91.5 10.5t76.5 29.5t52.5 44t19.5 55q0 33 -4.5 55t-27.5 42t-69.5 40.5t-129.5 48.5q-79 26 -138.5 54t-100 66.5t-60.5 90.5t-20 125q0 71 31.5 139t93.5 120.5t152.5 84.5t210.5 32q148 0 251.5 -53.5 t172.5 -160.5l-216 -146q-17 34 -38.5 60.5t-51 45t-67 28t-87.5 9.5q-43 0 -79 -9t-62.5 -26.5t-41 -42.5t-14.5 -57q0 -30 12 -51t37.5 -38.5t65.5 -33t97 -33.5q92 -28 157 -62.5t105.5 -77.5t59 -97t18.5 -122q0 -86 -37 -157.5t-104.5 -122.5t-162.5 -79t-211 -28 q-178 0 -290.5 57t-158.5 167zM691 1343h-187l212 314h284z" />
<glyph unicode="&#x15b;" horiz-adv-x="875" d="M184 250q15 -28 34.5 -46t43 -28.5t50.5 -14.5t57 -4q95 0 137.5 27.5t42.5 72.5q0 18 -5.5 32.5t-23 27.5t-50 25.5t-85.5 26.5q-78 20 -129 44.5t-81.5 56.5t-43 72t-12.5 90q0 61 25.5 117t75 98t123.5 67t172 25q120 0 205 -37t144 -120l-189 -119q-23 43 -69.5 67.5 t-112.5 24.5q-40 0 -68 -8.5t-46.5 -21.5t-26.5 -28.5t-8 -28.5q0 -19 4.5 -34t19.5 -27.5t41.5 -23.5t69.5 -22q85 -22 141.5 -47.5t90.5 -57.5t48 -72.5t14 -92.5q0 -68 -27 -126t-79.5 -100.5t-130.5 -67t-179 -24.5q-77 0 -134 10.5t-99.5 30.5t-73.5 49.5t-55 68.5z M551 1051h-187l212 314h284z" />
<glyph unicode="&#x15c;" horiz-adv-x="1047" d="M218 344q15 -33 34.5 -60.5t48.5 -48t69 -32t97 -11.5q48 0 91.5 10.5t76.5 29.5t52.5 44t19.5 55q0 33 -4.5 55t-27.5 42t-69.5 40.5t-129.5 48.5q-79 26 -138.5 54t-100 66.5t-60.5 90.5t-20 125q0 71 31.5 139t93.5 120.5t152.5 84.5t210.5 32q148 0 251.5 -53.5 t172.5 -160.5l-216 -146q-17 34 -38.5 60.5t-51 45t-67 28t-87.5 9.5q-43 0 -79 -9t-62.5 -26.5t-41 -42.5t-14.5 -57q0 -30 12 -51t37.5 -38.5t65.5 -33t97 -33.5q92 -28 157 -62.5t105.5 -77.5t59 -97t18.5 -122q0 -86 -37 -157.5t-104.5 -122.5t-162.5 -79t-211 -28 q-178 0 -290.5 57t-158.5 167zM809 1343l-91 151l-160 -151h-184l267 314h209l134 -314h-175z" />
<glyph unicode="&#x15d;" horiz-adv-x="875" d="M184 250q15 -28 34.5 -46t43 -28.5t50.5 -14.5t57 -4q95 0 137.5 27.5t42.5 72.5q0 18 -5.5 32.5t-23 27.5t-50 25.5t-85.5 26.5q-78 20 -129 44.5t-81.5 56.5t-43 72t-12.5 90q0 61 25.5 117t75 98t123.5 67t172 25q120 0 205 -37t144 -120l-189 -119q-23 43 -69.5 67.5 t-112.5 24.5q-40 0 -68 -8.5t-46.5 -21.5t-26.5 -28.5t-8 -28.5q0 -19 4.5 -34t19.5 -27.5t41.5 -23.5t69.5 -22q85 -22 141.5 -47.5t90.5 -57.5t48 -72.5t14 -92.5q0 -68 -27 -126t-79.5 -100.5t-130.5 -67t-179 -24.5q-77 0 -134 10.5t-99.5 30.5t-73.5 49.5t-55 68.5z M663 1051l-91 151l-160 -151h-184l267 314h209l134 -314h-175z" />
<glyph unicode="&#x15e;" horiz-adv-x="1047" d="M606 -155q0 -49 -19.5 -84.5t-55.5 -58.5t-87.5 -34.5t-115.5 -11.5q-44 0 -78.5 5.5t-60.5 12.5t-45.5 15t-33.5 15l79 118q39 -20 77 -30t72 -10q42 0 71 12t29 38q0 11 -6.5 21t-22 17.5t-42 12.5t-66.5 7l66 88q-143 14 -235 69.5t-132 151.5l218 145 q15 -33 34.5 -60.5t48.5 -48t69 -32t97 -11.5q48 0 91.5 10.5t76.5 29.5t52.5 44t19.5 55q0 33 -4.5 55t-27.5 42t-69.5 40.5t-129.5 48.5q-79 26 -138.5 54t-100 66.5t-60.5 90.5t-20 125q0 71 31.5 139t93.5 120.5t152.5 84.5t210.5 32q148 0 251.5 -53.5t172.5 -160.5 l-216 -146q-17 34 -38.5 60.5t-51 45t-67 28t-87.5 9.5q-43 0 -79 -9t-62.5 -26.5t-41 -42.5t-14.5 -57q0 -30 12 -51t37.5 -38.5t65.5 -33t97 -33.5q92 -28 157 -62.5t105.5 -77.5t59 -97t18.5 -122q0 -83 -33.5 -151t-95 -118t-148.5 -80.5t-194 -35.5l-1 -4 q20 -5 40.5 -14.5t37 -24.5t26.5 -37t10 -52z" />
<glyph unicode="&#x15f;" horiz-adv-x="875" d="M534 -155q0 -49 -19 -84.5t-54.5 -58.5t-87 -34.5t-116.5 -11.5q-45 0 -79 5.5t-60.5 12.5t-45.5 15t-33 15l78 118q40 -20 77.5 -30t72.5 -10q42 0 71 12t29 38q0 11 -6.5 21.5t-22 19t-42 13.5t-66.5 7l62 82q-60 4 -106 16t-81 32t-62 47t-48 62l189 118 q15 -28 34.5 -46t43 -28.5t50.5 -14.5t57 -4q95 0 137.5 27.5t42.5 72.5q0 18 -5.5 32.5t-23 27.5t-50 25.5t-85.5 26.5q-78 20 -129 44.5t-81.5 56.5t-43 72t-12.5 90q0 61 25.5 117t75 98t123.5 67t172 25q120 0 205 -37t144 -120l-189 -119q-23 43 -69.5 67.5 t-112.5 24.5q-40 0 -68 -8.5t-46.5 -21.5t-26.5 -28.5t-8 -28.5q0 -19 4.5 -34t19.5 -27.5t41.5 -23.5t69.5 -22q85 -22 141.5 -47.5t90.5 -57.5t48 -72.5t14 -92.5q0 -63 -22.5 -116.5t-67 -95t-110 -68.5t-151.5 -34l-2 -4q21 -5 41.5 -14.5t36.5 -24.5t26 -37t10 -52z " />
<glyph unicode="&#x160;" horiz-adv-x="1047" d="M218 344q15 -33 34.5 -60.5t48.5 -48t69 -32t97 -11.5q48 0 91.5 10.5t76.5 29.5t52.5 44t19.5 55q0 33 -4.5 55t-27.5 42t-69.5 40.5t-129.5 48.5q-79 26 -138.5 54t-100 66.5t-60.5 90.5t-20 125q0 71 31.5 139t93.5 120.5t152.5 84.5t210.5 32q148 0 251.5 -53.5 t172.5 -160.5l-216 -146q-17 34 -38.5 60.5t-51 45t-67 28t-87.5 9.5q-43 0 -79 -9t-62.5 -26.5t-41 -42.5t-14.5 -57q0 -30 12 -51t37.5 -38.5t65.5 -33t97 -33.5q92 -28 157 -62.5t105.5 -77.5t59 -97t18.5 -122q0 -86 -37 -157.5t-104.5 -122.5t-162.5 -79t-211 -28 q-178 0 -290.5 57t-158.5 167zM617 1657l91 -151l160 151h183l-267 -314h-208l-134 314h175z" />
<glyph unicode="&#x161;" horiz-adv-x="875" d="M184 250q15 -28 34.5 -46t43 -28.5t50.5 -14.5t57 -4q95 0 137.5 27.5t42.5 72.5q0 18 -5.5 32.5t-23 27.5t-50 25.5t-85.5 26.5q-78 20 -129 44.5t-81.5 56.5t-43 72t-12.5 90q0 61 25.5 117t75 98t123.5 67t172 25q120 0 205 -37t144 -120l-189 -119q-23 43 -69.5 67.5 t-112.5 24.5q-40 0 -68 -8.5t-46.5 -21.5t-26.5 -28.5t-8 -28.5q0 -19 4.5 -34t19.5 -27.5t41.5 -23.5t69.5 -22q85 -22 141.5 -47.5t90.5 -57.5t48 -72.5t14 -92.5q0 -68 -27 -126t-79.5 -100.5t-130.5 -67t-179 -24.5q-77 0 -134 10.5t-99.5 30.5t-73.5 49.5t-55 68.5z M477 1365l91 -151l160 151h183l-267 -314h-208l-134 314h175z" />
<glyph unicode="&#x162;" horiz-adv-x="1026" d="M566 -155q0 -49 -19 -84.5t-55 -58.5t-87.5 -34.5t-115.5 -11.5q-45 0 -79 5.5t-60 12.5t-45.5 15t-33.5 15l79 118q39 -20 76.5 -30t72.5 -10q42 0 71 12t29 38q0 11 -6.5 21.5t-22 19t-42 13.5t-66.5 7l76 107h-40l207 980h-364l48 224h967l-48 -224h-363l-207 -980 h-71l-15 -20q21 -5 41.5 -15.5t36.5 -27t26 -39.5t10 -53z" />
<glyph unicode="&#x163;" horiz-adv-x="630" d="M442 -155q0 -49 -19 -84.5t-55.5 -58.5t-87.5 -34.5t-116 -11.5q-45 0 -79.5 5.5t-60.5 12.5t-44.5 15t-32.5 15l78 118q39 -20 76.5 -30t73.5 -10q21 0 38.5 3.5t31 9t21.5 15t8 22.5q0 11 -6 21.5t-21.5 19t-42.5 13.5t-67 7l72 102q-63 22 -90 72.5t-27 121.5 q0 25 4 53.5t11 60.5l90 431h-112l38 179h112l56 254h221l-56 -254h209l-38 -179h-209l-90 -430q-4 -20 -6.5 -36.5t-2.5 -30.5q0 -45 19 -62t48 -17q32 0 69 5.5t67 16.5v-180q-39 -12 -85.5 -18.5t-87.5 -8.5q18 -7 35 -18t29.5 -26.5t20.5 -36.5t8 -47z" />
<glyph unicode="&#x164;" horiz-adv-x="1026" d="M745 980l-207 -980h-240l207 980h-364l48 224h967l-48 -224h-363zM624 1657l91 -151l160 151h183l-267 -314h-208l-134 314h175z" />
<glyph unicode="&#x165;" horiz-adv-x="630" d="M522 0q-42 -13 -93 -20t-92 -7q-66 0 -112.5 15t-76 43.5t-43 68t-13.5 89.5q0 25 4 53.5t11 60.5l90 431h-112l38 179h112l56 254h221l-56 -254h209l-38 -179h-209l-90 -430q-4 -20 -6.5 -36.5t-2.5 -30.5q0 -45 19 -62t48 -17q32 0 69 5.5t67 16.5v-180zM698 981h-148 l103 314h240z" />
<glyph unicode="&#x166;" horiz-adv-x="1026" d="M661 585l-123 -585h-240l122 585h-167l34 160h167l51 235h-364l48 224h967l-48 -224h-363l-50 -235h167l-34 -160h-167z" />
<glyph unicode="&#x167;" horiz-adv-x="630" d="M362 467l-34 -163q-4 -20 -6.5 -36.5t-2.5 -30.5q0 -45 19 -62t48 -17q32 0 69 5.5t67 16.5v-180q-42 -13 -93 -20t-92 -7q-66 0 -112.5 15t-76 43.5t-43 68t-13.5 89.5q0 25 4 53.5t11 60.5l34 164h-131l34 160h131l22 107h-112l38 179h112l56 254h221l-56 -254h209 l-38 -179h-209l-22 -107h221l-34 -160h-221z" />
<glyph unicode="&#x168;" horiz-adv-x="1225" d="M1103 479q-30 -144 -79 -241t-119 -156t-162.5 -84t-210.5 -25q-202 0 -307.5 87t-105.5 273q0 32 5 81.5t19 109.5l144 680h240l-144 -684q-11 -47 -15 -93t-4 -80q0 -44 12.5 -74t36.5 -48.5t59.5 -26t81.5 -7.5q61 0 110 13.5t88 50t67.5 100t49.5 162.5l146 687h241z M427 1363q15 58 37 108t55 87.5t76.5 59t102.5 21.5q37 0 65.5 -9.5t49 -22.5t37 -29.5t30.5 -30t27 -22.5t30 -9q38 0 57 30.5t32 80.5h155q-15 -61 -37.5 -112.5t-54.5 -89t-76.5 -58.5t-102.5 -21q-41 0 -69.5 10t-50 23.5t-36 30t-28 30.5t-26.5 23.5t-30 9.5 t-30.5 -7.5t-23.5 -22.5t-18 -35.5t-16 -44.5h-155z" />
<glyph unicode="&#x169;" d="M435 913l-107 -503q-10 -47 -15 -83t-5 -63q0 -53 19.5 -73t58.5 -20q34 0 69.5 11t71 29.5t70 42.5t66.5 49l128 610h219l-192 -913h-219l25 117q-34 -29 -71.5 -55t-77 -45.5t-81 -31.5t-83.5 -12q-67 0 -111.5 18t-71.5 48t-38.5 69.5t-11.5 82.5q0 40 5.5 80t11.5 66 l121 576h219zM270 1071q15 58 37 108t55 87.5t76.5 59t102.5 21.5q37 0 65.5 -9.5t49 -22.5t37 -29.5t30.5 -30t27 -22.5t30 -9q38 0 57 30.5t32 80.5h155q-15 -61 -37.5 -112.5t-54.5 -89t-76.5 -58.5t-102.5 -21q-41 0 -69.5 10t-50 23.5t-36 30t-28 30.5t-26.5 23.5 t-30 9.5t-30.5 -7.5t-23.5 -22.5t-18 -35.5t-16 -44.5h-155z" />
<glyph unicode="&#x16a;" horiz-adv-x="1225" d="M1103 479q-30 -144 -79 -241t-119 -156t-162.5 -84t-210.5 -25q-202 0 -307.5 87t-105.5 273q0 32 5 81.5t19 109.5l144 680h240l-144 -684q-11 -47 -15 -93t-4 -80q0 -44 12.5 -74t36.5 -48.5t59.5 -26t81.5 -7.5q61 0 110 13.5t88 50t67.5 100t49.5 162.5l146 687h241z M515 1384l34 161h573l-34 -161h-573z" />
<glyph unicode="&#x16b;" d="M435 913l-107 -503q-10 -47 -15 -83t-5 -63q0 -53 19.5 -73t58.5 -20q34 0 69.5 11t71 29.5t70 42.5t66.5 49l128 610h219l-192 -913h-219l25 117q-34 -29 -71.5 -55t-77 -45.5t-81 -31.5t-83.5 -12q-67 0 -111.5 18t-71.5 48t-38.5 69.5t-11.5 82.5q0 40 5.5 80t11.5 66 l121 576h219zM355 1092l34 161h573l-34 -161h-573z" />
<glyph unicode="&#x16c;" horiz-adv-x="1225" d="M1103 479q-30 -144 -79 -241t-119 -156t-162.5 -84t-210.5 -25q-202 0 -307.5 87t-105.5 273q0 32 5 81.5t19 109.5l144 680h240l-144 -684q-11 -47 -15 -93t-4 -80q0 -44 12.5 -74t36.5 -48.5t59.5 -26t81.5 -7.5q61 0 110 13.5t88 50t67.5 100t49.5 162.5l146 687h241z M1132 1605q-12 -65 -40 -117t-71.5 -88.5t-103.5 -56t-135 -19.5q-71 0 -122 17.5t-84 48t-48.5 71t-15.5 86.5q0 14 1.5 28.5t4.5 29.5h162q2 -50 31 -73t92 -23q37 0 64.5 7t47 19t33.5 30t24 40h160z" />
<glyph unicode="&#x16d;" d="M435 913l-107 -503q-10 -47 -15 -83t-5 -63q0 -53 19.5 -73t58.5 -20q34 0 69.5 11t71 29.5t70 42.5t66.5 49l128 610h219l-192 -913h-219l25 117q-34 -29 -71.5 -55t-77 -45.5t-81 -31.5t-83.5 -12q-67 0 -111.5 18t-71.5 48t-38.5 69.5t-11.5 82.5q0 40 5.5 80t11.5 66 l121 576h219zM971 1313q-12 -65 -40 -117t-71.5 -88.5t-103.5 -56t-135 -19.5q-71 0 -122 17.5t-84 48t-48.5 71t-15.5 86.5q0 14 1.5 28.5t4.5 29.5h162q2 -50 31 -73t92 -23q37 0 64.5 7t47 19t33.5 30t24 40h160z" />
<glyph unicode="&#x16e;" horiz-adv-x="1225" d="M1103 479q-30 -144 -79 -241t-119 -156t-162.5 -84t-210.5 -25q-202 0 -307.5 87t-105.5 273q0 32 5 81.5t19 109.5l144 680h240l-144 -684q-11 -47 -15 -93t-4 -80q0 -44 12.5 -74t36.5 -48.5t59.5 -26t81.5 -7.5q61 0 110 13.5t88 50t67.5 100t49.5 162.5l146 687h241z M986 1509q0 -34 -13.5 -71.5t-40.5 -69t-68 -51.5t-95 -20q-87 0 -123.5 42.5t-36.5 121.5q0 34 13 71t40 67t68 49.5t96 19.5q81 0 120.5 -42.5t39.5 -116.5zM780 1404q44 0 69 30t25 74q0 27 -16 40t-44 13q-42 0 -67.5 -28t-25.5 -74q0 -25 14 -40t45 -15z" />
<glyph unicode="&#x16f;" d="M435 913l-107 -503q-10 -47 -15 -83t-5 -63q0 -53 19.5 -73t58.5 -20q34 0 69.5 11t71 29.5t70 42.5t66.5 49l128 610h219l-192 -913h-219l25 117q-34 -29 -71.5 -55t-77 -45.5t-81 -31.5t-83.5 -12q-67 0 -111.5 18t-71.5 48t-38.5 69.5t-11.5 82.5q0 40 5.5 80t11.5 66 l121 576h219zM844 1217q0 -34 -13.5 -71.5t-40.5 -69t-68 -51.5t-95 -20q-87 0 -123.5 42.5t-36.5 121.5q0 34 13 71t40 67t68 49.5t96 19.5q81 0 120.5 -42.5t39.5 -116.5zM638 1112q44 0 69 30t25 74q0 27 -16 40t-44 13q-42 0 -67.5 -28t-25.5 -74q0 -25 14 -40t45 -15z " />
<glyph unicode="&#x170;" horiz-adv-x="1225" d="M1103 479q-30 -144 -79 -241t-119 -156t-162.5 -84t-210.5 -25q-202 0 -307.5 87t-105.5 273q0 32 5 81.5t19 109.5l144 680h240l-144 -684q-11 -47 -15 -93t-4 -80q0 -44 12.5 -74t36.5 -48.5t59.5 -26t81.5 -7.5q61 0 110 13.5t88 50t67.5 100t49.5 162.5l146 687h241z M1054 1343h-183l214 314h281zM700 1343h-184l214 314h281z" />
<glyph unicode="&#x171;" d="M435 913l-107 -503q-10 -47 -15 -83t-5 -63q0 -53 19.5 -73t58.5 -20q34 0 69.5 11t71 29.5t70 42.5t66.5 49l128 610h219l-192 -913h-219l25 117q-34 -29 -71.5 -55t-77 -45.5t-81 -31.5t-83.5 -12q-67 0 -111.5 18t-71.5 48t-38.5 69.5t-11.5 82.5q0 40 5.5 80t11.5 66 l121 576h219zM864 1051h-183l214 314h281zM510 1051h-184l214 314h281z" />
<glyph unicode="&#x172;" horiz-adv-x="1225" d="M850 -289q-52 -27 -103 -41t-96 -14q-90 0 -132.5 33.5t-42.5 109.5q0 47 18 91t55 83h-17q-202 0 -307.5 87t-105.5 273q0 32 5 81.5t19 109.5l144 680h240l-144 -684q-11 -47 -15 -93t-4 -80q0 -44 12.5 -74t36.5 -48.5t59.5 -26t81.5 -7.5q61 0 110 13.5t88 50 t67.5 100t49.5 162.5l146 687h241l-153 -725q-21 -98 -50 -173.5t-67 -132t-85.5 -95.5t-106.5 -62q-38 -16 -63 -35t-39 -40t-20 -42t-6 -40q0 -18 12 -27.5t29 -9.5q14 0 41 6t52 21z" />
<glyph unicode="&#x173;" d="M838 -289q-52 -27 -103 -41t-97 -14q-89 0 -132 33.5t-43 109.5q0 57 36.5 110t99.5 93l25 115q-34 -29 -71.5 -55t-77 -45.5t-81 -31.5t-83.5 -12q-67 0 -111.5 18t-71.5 48t-38.5 69.5t-11.5 82.5q0 40 5.5 80t11.5 66l121 576h219l-107 -503q-10 -47 -15 -83t-5 -63 q0 -53 19.5 -73t58.5 -20q34 0 69.5 11t71 29.5t70 42.5t66.5 49l128 610h219l-192 -913q-47 -13 -78.5 -29.5t-50 -35t-27 -38t-8.5 -38.5q0 -18 12 -27.5t29 -9.5q13 0 40 6t52 21z" />
<glyph unicode="&#x174;" horiz-adv-x="1562" d="M1124 0h-245l-29 796l-369 -796h-243l-42 1204h234l22 -791l361 791h238l29 -791l362 791h243zM1081 1343l-91 151l-160 -151h-184l267 314h209l134 -314h-175z" />
<glyph unicode="&#x175;" horiz-adv-x="1334" d="M976 0h-201l-78 581l-325 -581h-201l-52 913h219l15 -588l324 588h166l80 -583l257 583h228zM907 1051l-91 151l-160 -151h-184l267 314h209l134 -314h-175z" />
<glyph unicode="&#x176;" horiz-adv-x="1011" d="M627 459l-96 -459h-242l96 454l-210 750h247l123 -512l342 512h269zM787 1343l-91 151l-160 -151h-184l267 314h209l134 -314h-175z" />
<glyph unicode="&#x177;" horiz-adv-x="924" d="M-102 -123q36 -14 70.5 -19.5t61.5 -5.5q25 0 48.5 8.5t48 28.5t50 53t54.5 81l33 54l-145 836h219l90 -588l337 588h235l-592 -976q-44 -74 -86 -127t-88.5 -87t-101.5 -50.5t-127 -16.5q-42 0 -89 9.5t-94 23.5zM681 1051l-91 151l-160 -151h-184l267 314h209l134 -314 h-175z" />
<glyph unicode="&#x178;" horiz-adv-x="1011" d="M627 459l-96 -459h-242l96 454l-210 750h247l123 -512l342 512h269zM607 1459q0 -19 -4 -39t-13 -40q-19 -36 -51 -50.5t-81 -14.5q-57 0 -78 18.5t-21 54.5q0 13 3 33t12 42q16 40 47.5 56.5t83.5 16.5q55 0 78.5 -19t23.5 -58zM978 1459q0 -19 -4 -39t-14 -40 q-19 -36 -50.5 -50.5t-81.5 -14.5q-56 0 -77 18.5t-21 54.5q0 13 3 33t12 42q15 40 47 56.5t84 16.5q55 0 78.5 -19t23.5 -58z" />
<glyph unicode="&#x179;" horiz-adv-x="977" d="M-34 0l41 207l692 773h-502l49 224h803l-41 -197l-700 -783h547l-46 -224h-843zM681 1342h-187l212 314h284z" />
<glyph unicode="&#x17a;" horiz-adv-x="792" d="M-46 0l32 164l527 570h-396l38 179h671l-33 -163l-529 -572h420l-38 -178h-692zM544 1051h-187l212 314h284z" />
<glyph unicode="&#x17b;" horiz-adv-x="977" d="M-34 0l41 207l692 773h-502l49 224h803l-41 -197l-700 -783h547l-46 -224h-843zM769 1493q0 -21 -5.5 -46.5t-18.5 -47.5q-20 -33 -52 -47t-79 -14q-55 0 -78 18.5t-23 51.5q0 22 4.5 45t14.5 44q18 36 49.5 52.5t81.5 16.5q56 0 81 -17t25 -56z" />
<glyph unicode="&#x17c;" horiz-adv-x="792" d="M-46 0l32 164l527 570h-396l38 179h671l-33 -163l-529 -572h420l-38 -178h-692zM633 1202q0 -21 -5.5 -46.5t-18.5 -47.5q-20 -33 -52 -47t-79 -14q-55 0 -78 18.5t-23 51.5q0 22 4.5 45t14.5 44q18 36 49.5 52.5t81.5 16.5q56 0 81 -17t25 -56z" />
<glyph unicode="&#x17d;" horiz-adv-x="977" d="M-34 0l41 207l692 773h-502l49 224h803l-41 -197l-700 -783h547l-46 -224h-843zM554 1656l91 -151l160 151h183l-267 -314h-208l-134 314h175z" />
<glyph unicode="&#x17e;" horiz-adv-x="792" d="M-46 0l32 164l527 570h-396l38 179h671l-33 -163l-529 -572h420l-38 -178h-692zM418 1365l91 -151l160 151h183l-267 -314h-208l-134 314h175z" />
<glyph unicode="&#x17f;" horiz-adv-x="509" d="M733 1101q-28 13 -55 19t-58 6q-61 0 -94 -28.5t-47 -96.5l-212 -1001h-221l155 734h-85l37 179h85l20 88q16 76 43 135.5t70.5 101t106.5 63t151 21.5q55 0 102 -8.5t82 -21.5z" />
<glyph unicode="&#x192;" horiz-adv-x="1091" d="M989 1098q-42 13 -78 20.5t-68 7.5q-33 0 -56.5 -6.5t-40 -22t-27.5 -39t-17 -57.5l-18 -88h176l-34 -179h-175l-148 -757q-16 -78 -45.5 -137.5t-75 -100.5t-109 -62t-147.5 -21q-62 0 -119 7t-94 19l78 201q42 -14 78 -22.5t68 -8.5q33 0 57 6.5t40 22t26.5 39 t17.5 57.5l147 757h-115l34 179h115l19 88q15 78 44.5 138t75 101t109 61.5t146.5 20.5q63 0 119.5 -7t94.5 -20z" />
<glyph unicode="&#x1a0;" horiz-adv-x="1325" d="M517 -25q-121 0 -205 32t-136 89.5t-75.5 136t-23.5 170.5q0 49 4.5 102.5t15 108.5t27 111.5t40.5 110.5q36 84 85 156.5t115 125t151 82t194 29.5q158 0 262.5 -64t147.5 -194h15q73 0 109 35t51 111l27 141h183l-27 -141q-15 -85 -41.5 -141.5t-64.5 -91t-89.5 -49 t-116.5 -14.5h-19q2 -10 2 -20v-21q0 -59 -14 -145.5t-44 -182.5q-34 -109 -85 -197.5t-121 -150.5t-161 -95.5t-206 -33.5zM326 422q0 -62 12 -105.5t36 -71t62 -40.5t89 -13q61 0 111 21t89.5 60t70 95t52.5 125q23 71 35.5 142.5t12.5 129.5q0 130 -48 188.5t-156 58.5 q-54 0 -98 -16t-80 -47.5t-66 -77t-54 -103.5q-17 -42 -30 -86.5t-21.5 -89.5t-12.5 -88t-4 -82z" />
<glyph unicode="&#x1a1;" horiz-adv-x="1149" d="M59 331q0 52 9.5 117t33 132.5t63 132t98.5 115t140 81t189 30.5q127 0 213 -51t123 -155q63 4 96 38.5t47 107.5l19 104h184l-19 -104q-14 -70 -37.5 -123.5t-60 -90.5t-86.5 -58t-116 -24v-29q0 -43 -10.5 -103t-34 -125t-63.5 -128t-98.5 -113t-138.5 -81t-185 -31 q-98 0 -167.5 24.5t-113.5 70.5t-64.5 112.5t-20.5 150.5zM291 328q0 -37 7.5 -67t25.5 -50t47 -30.5t71 -10.5q50 0 90 19t72 50.5t54.5 71.5t38 83.5t22.5 86.5t7 78q0 89 -40 136.5t-121 47.5q-46 0 -84.5 -17.5t-69 -47.5t-53 -70.5t-38 -86.5t-22.5 -95.5t-7 -97.5z " />
<glyph unicode="&#x1af;" horiz-adv-x="1414" d="M1206 971h16q37 0 64 8.5t46 26.5t31 45.5t19 65.5l27 141h184l-27 -141q-14 -73 -39.5 -128.5t-66 -92.5t-96.5 -56t-131 -19h-59l-71 -342q-30 -144 -79 -241t-119 -156t-162.5 -84t-210.5 -25q-202 0 -307.5 87t-105.5 273q0 32 5 81.5t19 109.5l144 680h240 l-144 -684q-11 -47 -15 -93t-4 -80q0 -44 12.5 -74t36.5 -48.5t59.5 -26t81.5 -7.5q61 0 110 13.5t88 50t67.5 100t49.5 162.5l146 687h241z" />
<glyph unicode="&#x1b0;" horiz-adv-x="1211" d="M435 913l-107 -503q-10 -47 -15 -83t-5 -63q0 -53 19.5 -73t58.5 -20q34 0 69.5 11t71 29.5t70 42.5t66.5 49l128 610h219l-39 -180h18q62 0 96 34.5t49 111.5l19 104h183l-20 -104q-14 -74 -40 -129.5t-67 -92.5t-100.5 -55.5t-139.5 -18.5h-29l-122 -583h-219l25 117 q-34 -29 -71.5 -55t-77 -45.5t-81 -31.5t-83.5 -12q-67 0 -111.5 18t-71.5 48t-38.5 69.5t-11.5 82.5q0 40 5.5 80t11.5 66l121 576h219z" />
<glyph unicode="&#x1cd;" horiz-adv-x="1140" d="M-71 0l643 1204h314l135 -1204h-237l-27 244h-451l-131 -244h-246zM418 459h316l-52 498zM685 1657l91 -151l161 151h182l-267 -314h-208l-134 314h175z" />
<glyph unicode="&#x1ce;" d="M57 299q0 69 13.5 143t40.5 145t67 135t93.5 112t119 76.5t143.5 28.5q81 0 141.5 -24.5t101.5 -69.5l14 68h217l-190 -913h-184l5 112q-45 -38 -83.5 -64.5t-74.5 -43t-71.5 -24t-74.5 -7.5q-65 0 -116.5 18.5t-87 58t-55 101t-19.5 148.5zM738 659q-14 16 -33 31 t-42 26t-48 18t-52 7q-46 0 -84 -19t-68 -51.5t-52 -75t-37 -87.5t-22.5 -91t-7.5 -86q0 -83 28 -121.5t88 -38.5q34 0 68.5 10.5t67 26.5t62 36t53.5 40zM513 1365l91 -151l160 151h183l-267 -314h-208l-134 314h175z" />
<glyph unicode="&#x1cf;" horiz-adv-x="742" d="M559 0h-568l39 189h164l177 826h-164l39 189h568l-39 -189h-164l-176 -826h164zM481 1657l91 -151l161 151h182l-267 -314h-208l-134 314h175z" />
<glyph unicode="&#x1d0;" horiz-adv-x="468" d="M29 0l192 913h219l-192 -913h-219zM290 1365l91 -151l160 151h183l-267 -314h-208l-134 314h175z" />
<glyph unicode="&#x1d1;" horiz-adv-x="1163" d="M517 -25q-121 0 -205 32t-136 89.5t-75.5 136t-23.5 170.5q0 49 4.5 102.5t15 108.5t27 111.5t40.5 110.5q36 84 85 156.5t115 125t151 82t194 29.5q103 0 184 -27.5t138 -84t87 -140.5t30 -197q0 -59 -14 -145.5t-44 -182.5q-34 -109 -85 -197.5t-121 -150.5t-161 -95.5 t-206 -33.5zM326 422q0 -62 12 -105.5t36 -71t62 -40.5t89 -13q61 0 111 21t89.5 60t70 95t52.5 125q23 71 35.5 142.5t12.5 129.5q0 130 -48 188.5t-156 58.5q-54 0 -98 -16t-80 -47.5t-66 -77t-54 -103.5q-17 -42 -30 -86.5t-21.5 -89.5t-12.5 -88t-4 -82zM670 1657 l91 -151l161 151h182l-267 -314h-208l-134 314h175z" />
<glyph unicode="&#x1d2;" horiz-adv-x="1013" d="M59 331q0 47 8.5 106.5t28 122.5t51.5 124.5t81 111.5q65 69 152 106t212 37q82 0 149.5 -23t115 -69.5t73 -117t25.5 -164.5q0 -43 -9.5 -101.5t-31 -122t-56.5 -126t-86 -113.5q-37 -37 -74.5 -61t-80 -39.5t-91 -22t-108.5 -6.5q-97 0 -165.5 25t-111.5 72t-62.5 113 t-19.5 148zM291 328q0 -37 7.5 -67t25.5 -50t47 -30.5t71 -10.5q57 0 100 22.5t77 60.5q23 28 43 67t34 81.5t22 83.5t8 74q0 89 -40 136.5t-121 47.5q-55 0 -98.5 -24.5t-75.5 -64.5q-23 -28 -41.5 -67.5t-32 -83t-20 -88.5t-6.5 -87zM542 1365l91 -151l160 151h183 l-267 -314h-208l-134 314h175z" />
<glyph unicode="&#x1d3;" horiz-adv-x="1225" d="M1103 479q-30 -144 -79 -241t-119 -156t-162.5 -84t-210.5 -25q-202 0 -307.5 87t-105.5 273q0 32 5 81.5t19 109.5l144 680h240l-144 -684q-11 -47 -15 -93t-4 -80q0 -44 12.5 -74t36.5 -48.5t59.5 -26t81.5 -7.5q61 0 110 13.5t88 50t67.5 100t49.5 162.5l146 687h241z M717 1657l91 -151l161 151h182l-267 -314h-208l-134 314h175z" />
<glyph unicode="&#x1d4;" d="M435 913l-107 -503q-10 -47 -15 -83t-5 -63q0 -53 19.5 -73t58.5 -20q34 0 69.5 11t71 29.5t70 42.5t66.5 49l128 610h219l-192 -913h-219l25 117q-34 -29 -71.5 -55t-77 -45.5t-81 -31.5t-83.5 -12q-67 0 -111.5 18t-71.5 48t-38.5 69.5t-11.5 82.5q0 40 5.5 80t11.5 66 l121 576h219zM561 1365l91 -151l160 151h183l-267 -314h-208l-134 314h175z" />
<glyph unicode="&#x1d5;" horiz-adv-x="1225" d="M1103 479q-30 -144 -79 -241t-119 -156t-162.5 -84t-210.5 -25q-202 0 -307.5 87t-105.5 273q0 32 5 81.5t19 109.5l144 680h240l-144 -684q-11 -47 -15 -93t-4 -80q0 -44 12.5 -74t36.5 -48.5t59.5 -26t81.5 -7.5q61 0 110 13.5t88 50t67.5 100t49.5 162.5l146 687h241z M738 1423q0 -18 -3.5 -38.5t-13.5 -39.5q-19 -37 -51 -51.5t-81 -14.5q-28 0 -47 4.5t-30 14t-16 23t-5 31.5q0 14 3 34t11 41q17 41 48.5 57t83.5 16q55 0 78 -19t23 -58zM1109 1423q0 -18 -4 -38.5t-13 -39.5q-20 -37 -51.5 -51.5t-81.5 -14.5q-28 0 -46.5 4.5t-30 14 t-16 23t-4.5 31.5q0 14 3 34t11 41q16 41 48 57t84 16q55 0 78 -19t23 -58zM544 1561l34 160h574l-33 -160h-575z" />
<glyph unicode="&#x1d6;" d="M435 913l-107 -503q-10 -47 -15 -83t-5 -63q0 -53 19.5 -73t58.5 -20q34 0 69.5 11t71 29.5t70 42.5t66.5 49l128 610h219l-192 -913h-219l25 117q-34 -29 -71.5 -55t-77 -45.5t-81 -31.5t-83.5 -12q-67 0 -111.5 18t-71.5 48t-38.5 69.5t-11.5 82.5q0 40 5.5 80t11.5 66 l121 576h219zM583 1131q0 -18 -4 -38.5t-14 -39.5q-18 -37 -50 -51.5t-81 -14.5q-57 0 -78 18.5t-21 55.5q0 13 3 33t12 41q16 40 47.5 56.5t84.5 16.5q54 0 77.5 -19t23.5 -58zM954 1131q0 -18 -4.5 -38.5t-13.5 -39.5q-19 -37 -50.5 -51.5t-81.5 -14.5q-56 0 -77 18.5 t-21 55.5q0 13 3 33t12 41q15 40 47 56.5t84 16.5q55 0 78.5 -19t23.5 -58zM389 1268l34 161h574l-34 -161h-574z" />
<glyph unicode="&#x1d7;" horiz-adv-x="1225" d="M1103 479q-30 -144 -79 -241t-119 -156t-162.5 -84t-210.5 -25q-202 0 -307.5 87t-105.5 273q0 32 5 81.5t19 109.5l144 680h240l-144 -684q-11 -47 -15 -93t-4 -80q0 -44 12.5 -74t36.5 -48.5t59.5 -26t81.5 -7.5q61 0 110 13.5t88 50t67.5 100t49.5 162.5l146 687h241z M917 1529h-167l144 253h264zM746 1423q0 -18 -4 -38.5t-14 -39.5q-18 -37 -50 -51.5t-81 -14.5q-57 0 -77.5 18t-20.5 55q0 14 3 34t11 41q16 41 47.5 57t84.5 16q55 0 78 -19t23 -58zM1117 1423q0 -18 -4.5 -38.5t-13.5 -39.5q-18 -37 -50 -51.5t-82 -14.5q-56 0 -77 18 t-21 55q0 14 3 34t12 41q16 41 47.5 57t83.5 16q55 0 78.5 -19t23.5 -58z" />
<glyph unicode="&#x1d8;" d="M435 913l-107 -503q-10 -47 -15 -83t-5 -63q0 -53 19.5 -73t58.5 -20q34 0 69.5 11t71 29.5t70 42.5t66.5 49l128 610h219l-192 -913h-219l25 117q-34 -29 -71.5 -55t-77 -45.5t-81 -31.5t-83.5 -12q-67 0 -111.5 18t-71.5 48t-38.5 69.5t-11.5 82.5q0 40 5.5 80t11.5 66 l121 576h219zM756 1236h-168l144 253h264zM585 1131q0 -18 -4 -38.5t-14 -39.5q-19 -37 -50.5 -51.5t-81.5 -14.5q-28 0 -46.5 4.5t-30 13.5t-16.5 23t-5 33q0 13 3.5 33t10.5 41q16 40 48 56.5t84 16.5q55 0 78.5 -19t23.5 -58zM955 1131q0 -18 -4 -38.5t-13 -39.5 q-19 -37 -51 -51.5t-81 -14.5q-57 0 -78 18.5t-21 55.5q0 13 3.5 33t11.5 41q16 40 47.5 56.5t83.5 16.5q55 0 78.5 -19t23.5 -58z" />
<glyph unicode="&#x1d9;" horiz-adv-x="1225" d="M1103 479q-30 -144 -79 -241t-119 -156t-162.5 -84t-210.5 -25q-202 0 -307.5 87t-105.5 273q0 32 5 81.5t19 109.5l144 680h240l-144 -684q-11 -47 -15 -93t-4 -80q0 -44 12.5 -74t36.5 -48.5t59.5 -26t81.5 -7.5q61 0 110 13.5t88 50t67.5 100t49.5 162.5l146 687h241z M742 1423q0 -18 -4 -38.5t-14 -39.5q-18 -37 -50 -51.5t-81 -14.5q-57 0 -77.5 18t-20.5 55q0 14 3 34t11 41q16 41 47.5 57t84.5 16q55 0 78 -19t23 -58zM1113 1423q0 -18 -4.5 -38.5t-13.5 -39.5q-18 -37 -50 -51.5t-82 -14.5q-56 0 -77 18t-21 55q0 14 3 34t12 41 q16 41 47.5 57t83.5 16q55 0 78.5 -19t23.5 -58zM763 1782l90 -116l162 116h183l-263 -252h-209l-137 252h174z" />
<glyph unicode="&#x1da;" d="M435 913l-107 -503q-10 -47 -15 -83t-5 -63q0 -53 19.5 -73t58.5 -20q34 0 69.5 11t71 29.5t70 42.5t66.5 49l128 610h219l-192 -913h-219l25 117q-34 -29 -71.5 -55t-77 -45.5t-81 -31.5t-83.5 -12q-67 0 -111.5 18t-71.5 48t-38.5 69.5t-11.5 82.5q0 40 5.5 80t11.5 66 l121 576h219zM570 1131q0 -18 -4 -38.5t-14 -39.5q-19 -37 -50.5 -51.5t-81.5 -14.5q-28 0 -46.5 4.5t-30 13.5t-16.5 23t-5 33q0 13 3.5 33t10.5 41q16 40 48 56.5t84 16.5q55 0 78.5 -19t23.5 -58zM940 1131q0 -18 -4 -38.5t-13 -39.5q-19 -37 -51 -51.5t-81 -14.5 q-57 0 -78 18.5t-21 55.5q0 13 3.5 33t11.5 41q16 40 47.5 56.5t83.5 16.5q55 0 78.5 -19t23.5 -58zM591 1489l89 -115l163 115h182l-263 -251h-208l-138 251h175z" />
<glyph unicode="&#x1db;" horiz-adv-x="1225" d="M1103 479q-30 -144 -79 -241t-119 -156t-162.5 -84t-210.5 -25q-202 0 -307.5 87t-105.5 273q0 32 5 81.5t19 109.5l144 680h240l-144 -684q-11 -47 -15 -93t-4 -80q0 -44 12.5 -74t36.5 -48.5t59.5 -26t81.5 -7.5q61 0 110 13.5t88 50t67.5 100t49.5 162.5l146 687h241z M762 1529l-148 253h246l53 -253h-151zM744 1423q0 -18 -4 -38.5t-14 -39.5q-18 -37 -50 -51.5t-81 -14.5q-57 0 -77.5 18t-20.5 55q0 14 3 34t11 41q16 41 47.5 57t84.5 16q55 0 78 -19t23 -58zM1115 1423q0 -18 -4.5 -38.5t-13.5 -39.5q-18 -37 -50 -51.5t-82 -14.5 q-56 0 -77 18t-21 55q0 14 3 34t12 41q16 41 47.5 57t83.5 16q55 0 78.5 -19t23.5 -58z" />
<glyph unicode="&#x1dc;" d="M435 913l-107 -503q-10 -47 -15 -83t-5 -63q0 -53 19.5 -73t58.5 -20q34 0 69.5 11t71 29.5t70 42.5t66.5 49l128 610h219l-192 -913h-219l25 117q-34 -29 -71.5 -55t-77 -45.5t-81 -31.5t-83.5 -12q-67 0 -111.5 18t-71.5 48t-38.5 69.5t-11.5 82.5q0 40 5.5 80t11.5 66 l121 576h219zM597 1236l-148 253h245l54 -253h-151zM579 1131q0 -18 -4 -38.5t-14 -39.5q-19 -37 -50.5 -51.5t-81.5 -14.5q-28 0 -46.5 4.5t-30 13.5t-16.5 23t-5 33q0 13 3.5 33t10.5 41q16 40 48 56.5t84 16.5q55 0 78.5 -19t23.5 -58zM949 1131q0 -18 -4 -38.5 t-13 -39.5q-19 -37 -51 -51.5t-81 -14.5q-57 0 -78 18.5t-21 55.5q0 13 3.5 33t11.5 41q16 40 47.5 56.5t83.5 16.5q55 0 78.5 -19t23.5 -58z" />
<glyph unicode="&#x1fa;" horiz-adv-x="1140" d="M932 1316q0 -32 -11.5 -66t-33.5 -63l134 -1187h-237l-27 244h-451l-131 -244h-246l636 1192q-11 32 -11 76q0 35 13.5 72t40.5 67t68 49.5t96 19.5q81 0 120.5 -43t39.5 -117zM418 459h316l-52 498zM855 1522h-178l163 242h274zM726 1212q44 0 69 30t25 73 q0 27 -17 40.5t-44 13.5q-42 0 -67.5 -28t-25.5 -74q0 -26 14 -40.5t46 -14.5z" />
<glyph unicode="&#x1fb;" d="M57 299q0 69 13.5 143t40.5 145t67 135t93.5 112t119 76.5t143.5 28.5q81 0 141.5 -24.5t101.5 -69.5l14 68h217l-190 -913h-184l5 112q-45 -38 -83.5 -64.5t-74.5 -43t-71.5 -24t-74.5 -7.5q-65 0 -116.5 18.5t-87 58t-55 101t-19.5 148.5zM738 659q-14 16 -33 31 t-42 26t-48 18t-52 7q-46 0 -84 -19t-68 -51.5t-52 -75t-37 -87.5t-22.5 -91t-7.5 -86q0 -83 28 -121.5t88 -38.5q34 0 68.5 10.5t67 26.5t62 36t53.5 40zM796 1215q0 -34 -13.5 -71.5t-40.5 -69t-68 -51.5t-95 -20q-87 0 -123.5 42.5t-36.5 121.5q0 34 13 71t40 67t68 49.5 t96 19.5q81 0 120.5 -42.5t39.5 -116.5zM590 1110q44 0 69 30t25 74q0 27 -16 40t-44 13q-42 0 -67.5 -28t-25.5 -74q0 -25 14 -40t45 -15zM750 1422h-187l212 314h284z" />
<glyph unicode="&#x1fc;" horiz-adv-x="1543" d="M638 0l66 313h-337l-187 -313h-257l725 1204h968l-47 -217h-482l-53 -256h399l-47 -218h-399l-62 -289h483l-46 -224h-724zM847 987h-88l-264 -458h255zM1067 1343h-187l212 314h284z" />
<glyph unicode="&#x1fd;" horiz-adv-x="1523" d="M843 398q-4 -20 -5.5 -40t-1.5 -35q0 -81 41 -117t119 -36q39 0 72 5.5t61.5 17t53.5 27.5t48 37l125 -143q-34 -33 -70.5 -59t-81 -44.5t-100.5 -28t-128 -9.5q-64 0 -114 11.5t-88 31.5t-65 47.5t-44 60.5q-52 -36 -105 -64.5t-102.5 -47.5t-91.5 -29t-70 -10 q-145 0 -210.5 62.5t-65.5 187.5q0 80 36 141t98 104t143 67.5t172 32.5l194 18l7 41q2 11 3.5 20.5t1.5 18.5q0 53 -40.5 73.5t-114.5 20.5q-82 0 -134.5 -27t-84.5 -67l-148 113q24 32 57.5 61t79 51.5t105.5 35t139 12.5q125 0 198.5 -28t107.5 -78q25 25 54 44t64 33 t75.5 21.5t90.5 7.5q91 0 157.5 -21t110 -61.5t64 -99.5t20.5 -135q0 -19 -3.5 -50t-10.5 -59l-22 -115h-597zM627 298q0 30 2.5 62t9.5 64l-126 -11q-56 -5 -103 -16.5t-82 -31.5t-54 -50t-19 -72q0 -28 7.5 -45.5t21 -28t32.5 -14.5t42 -4q25 0 57 6.5t68 20t73.5 32 t72.5 43.5q0 11 -1 21.5t-1 23.5zM1249 552q5 22 7 40t2 35q0 67 -31.5 100t-111.5 33q-60 0 -101.5 -20.5t-71.5 -59.5q-20 -25 -36.5 -59t-26.5 -69h370zM896 1051h-187l212 314h284z" />
<glyph unicode="&#x1fe;" horiz-adv-x="1163" d="M-92 -100l224 258q-30 52 -42.5 113t-12.5 132q0 80 13.5 172t44 184t80 177t119.5 150t163 104t212 39q176 0 284 -80l126 146h187l-219 -251q29 -52 45 -117.5t16 -146.5q0 -41 -6.5 -98t-21 -121.5t-38.5 -133t-59.5 -133.5t-83 -123t-110 -101.5t-140 -69 t-172.5 -25.5t-167 19.5t-124 56.5l-131 -151h-187zM525 192q68 0 122.5 26.5t95.5 71.5t70 103.5t48 122t27 128t8 121.5q0 15 -1 29t-2 27l-508 -586q24 -23 58.5 -33t81.5 -10zM326 422v-20t2 -19l505 584q-23 23 -58.5 34t-82.5 11q-67 0 -120.5 -28t-94 -74 t-69.5 -106.5t-47 -126t-26.5 -132t-8.5 -123.5zM776 1343h-187l212 314h284z" />
<glyph unicode="&#x1ff;" horiz-adv-x="1013" d="M-20 -66l139 164q-32 45 -46 102.5t-14 130.5q0 51 10.5 116t35 132t64.5 132t99 115.5t139 81.5t185 31q62 0 113.5 -11.5t93.5 -33.5l70 84h166l-144 -169q64 -95 64 -255q0 -40 -9.5 -98.5t-33 -123t-62.5 -129t-98 -115.5t-139.5 -83t-187.5 -32q-65 0 -117 11.5 t-92 31.5l-70 -82h-166zM726 559q0 14 -1.5 26t-3.5 24l-363 -425q18 -8 39.5 -11t49.5 -3q48 0 87 19t70 50.5t53.5 71.5t38 83.5t23 86.5t7.5 78zM291 299l361 424q-33 20 -84 20q-46 0 -84.5 -17.5t-69.5 -47.5t-54 -70.5t-38.5 -86.5t-23 -95.5t-7.5 -97.5v-29z M640 1051h-187l212 314h284z" />
<glyph unicode="&#x218;" horiz-adv-x="1047" d="M218 344q15 -33 34.5 -60.5t48.5 -48t69 -32t97 -11.5q48 0 91.5 10.5t76.5 29.5t52.5 44t19.5 55q0 33 -4.5 55t-27.5 42t-69.5 40.5t-129.5 48.5q-79 26 -138.5 54t-100 66.5t-60.5 90.5t-20 125q0 71 31.5 139t93.5 120.5t152.5 84.5t210.5 32q148 0 251.5 -53.5 t172.5 -160.5l-216 -146q-17 34 -38.5 60.5t-51 45t-67 28t-87.5 9.5q-43 0 -79 -9t-62.5 -26.5t-41 -42.5t-14.5 -57q0 -30 12 -51t37.5 -38.5t65.5 -33t97 -33.5q92 -28 157 -62.5t105.5 -77.5t59 -97t18.5 -122q0 -86 -37 -157.5t-104.5 -122.5t-162.5 -79t-211 -28 q-178 0 -290.5 57t-158.5 167zM255 -490q48 48 70 83.5t33 68.5q-85 5 -85 83q0 22 5 46t14 46t21.5 40.5t26.5 30.5q22 17 49 22.5t62 5.5q59 0 84 -26.5t25 -74.5q0 -42 -11.5 -83t-31.5 -80q-45 -86 -122 -162h-140z" />
<glyph unicode="&#x219;" horiz-adv-x="875" d="M184 250q15 -28 34.5 -46t43 -28.5t50.5 -14.5t57 -4q95 0 137.5 27.5t42.5 72.5q0 18 -5.5 32.5t-23 27.5t-50 25.5t-85.5 26.5q-78 20 -129 44.5t-81.5 56.5t-43 72t-12.5 90q0 61 25.5 117t75 98t123.5 67t172 25q120 0 205 -37t144 -120l-189 -119q-23 43 -69.5 67.5 t-112.5 24.5q-40 0 -68 -8.5t-46.5 -21.5t-26.5 -28.5t-8 -28.5q0 -19 4.5 -34t19.5 -27.5t41.5 -23.5t69.5 -22q85 -22 141.5 -47.5t90.5 -57.5t48 -72.5t14 -92.5q0 -68 -27 -126t-79.5 -100.5t-130.5 -67t-179 -24.5q-77 0 -134 10.5t-99.5 30.5t-73.5 49.5t-55 68.5z M150 -490q48 48 70 83.5t33 68.5q-85 5 -85 83q0 22 5 46t14 46t21.5 40.5t26.5 30.5q22 17 49 22.5t62 5.5q59 0 84 -26.5t25 -74.5q0 -42 -11.5 -83t-31.5 -80q-45 -86 -122 -162h-140z" />
<glyph unicode="&#x21a;" horiz-adv-x="1026" d="M745 980l-207 -980h-240l207 980h-364l48 224h967l-48 -224h-363zM219 -490q48 48 70 83.5t33 68.5q-85 5 -85 83q0 22 5 46t14 46t21.5 40.5t26.5 30.5q22 17 49 22.5t62 5.5q59 0 84 -26.5t25 -74.5q0 -42 -11.5 -83t-31.5 -80q-45 -86 -122 -162h-140z" />
<glyph unicode="&#x21b;" horiz-adv-x="630" d="M522 0q-42 -13 -93 -20t-92 -7q-66 0 -112.5 15t-76 43.5t-43 68t-13.5 89.5q0 25 4 53.5t11 60.5l90 431h-112l38 179h112l56 254h221l-56 -254h209l-38 -179h-209l-90 -430q-4 -20 -6.5 -36.5t-2.5 -30.5q0 -45 19 -62t48 -17q32 0 69 5.5t67 16.5v-180zM93 -490 q48 48 70 83.5t33 68.5q-85 5 -85 83q0 22 5 46t14 46t21.5 40.5t26.5 30.5q22 17 49 22.5t62 5.5q59 0 84 -26.5t25 -74.5q0 -42 -11.5 -83t-31.5 -80q-45 -86 -122 -162h-140z" />
<glyph unicode="&#x237;" horiz-adv-x="479" d="M251 -39q-17 -82 -46.5 -140t-74 -94.5t-106 -53.5t-141.5 -17q-15 0 -37.5 2t-48 5t-50.5 7.5t-46 11.5l87 195q28 -12 58 -18.5t67 -6.5q32 0 53 10t35 32t23.5 55.5t19.5 82.5l187 881h221z" />
<glyph unicode="&#x2c0;" horiz-adv-x="892" d="M185 0l118 563q110 49 179.5 89.5t108.5 79t53 79t14 89.5q0 56 -33 84t-110 28q-38 0 -69.5 -9t-59.5 -25.5t-53 -40.5t-51 -57l-175 125q42 56 88.5 97.5t101 68t116.5 39t134 12.5q88 0 156.5 -17.5t115 -54t70.5 -91.5t24 -131q0 -80 -25.5 -146t-75.5 -123 t-125 -107t-175 -96l-95 -456h-232z" />
<glyph unicode="&#x2c6;" horiz-adv-x="890" d="M700 1051l-91 151l-160 -151h-184l267 314h209l134 -314h-175z" />
<glyph unicode="&#x2c7;" horiz-adv-x="890" d="M508 1365l91 -151l160 151h183l-267 -314h-208l-134 314h175z" />
<glyph unicode="&#x2c9;" horiz-adv-x="890" d="M294 1092l34 161h573l-34 -161h-573z" />
<glyph unicode="&#x2d8;" horiz-adv-x="890" d="M935 1313q-12 -65 -40 -117t-71.5 -88.5t-103.5 -56t-135 -19.5q-71 0 -122 17.5t-84 48t-48.5 71t-15.5 86.5q0 14 1.5 28.5t4.5 29.5h162q2 -50 31 -73t92 -23q37 0 64.5 7t47 19t33.5 30t24 40h160z" />
<glyph unicode="&#x2d9;" horiz-adv-x="890" d="M723 1202q0 -21 -5.5 -46.5t-18.5 -47.5q-20 -33 -52 -47t-79 -14q-55 0 -78 18.5t-23 51.5q0 22 4.5 45t14.5 44q18 36 49.5 52.5t81.5 16.5q56 0 81 -17t25 -56z" />
<glyph unicode="&#x2da;" horiz-adv-x="890" d="M789 1215q0 -34 -13.5 -71.5t-40.5 -69t-68 -51.5t-95 -20q-87 0 -123.5 42.5t-36.5 121.5q0 34 13 71t40 67t68 49.5t96 19.5q81 0 120.5 -42.5t39.5 -116.5zM583 1110q44 0 69 30t25 74q0 27 -16 40t-44 13q-42 0 -67.5 -28t-25.5 -74q0 -25 14 -40t45 -15z" />
<glyph unicode="&#x2db;" horiz-adv-x="890" d="M552 -289q-52 -27 -103 -41t-96 -14q-89 0 -132 33.5t-43 109.5q0 50 26.5 93t75.5 76.5t117.5 57.5t153.5 37l64 -63q-68 -15 -115 -30.5t-76 -32.5t-42 -36.5t-13 -41.5q0 -18 11.5 -27.5t29.5 -9.5q14 0 41 6t52 21z" />
<glyph unicode="&#x2dc;" horiz-adv-x="890" d="M226 1071q15 58 37 108t55 87.5t76.5 59t102.5 21.5q37 0 65.5 -9.5t49 -22.5t37 -29.5t30.5 -30t27 -22.5t30 -9q38 0 57 30.5t32 80.5h155q-15 -61 -37.5 -112.5t-54.5 -89t-76.5 -58.5t-102.5 -21q-41 0 -69.5 10t-50 23.5t-36 30t-28 30.5t-26.5 23.5t-30 9.5 t-30.5 -7.5t-23.5 -22.5t-18 -35.5t-16 -44.5h-155z" />
<glyph unicode="&#x2dd;" horiz-adv-x="890" d="M789 1051h-183l214 314h281zM435 1051h-184l214 314h281z" />
<glyph unicode="&#x300;" horiz-adv-x="0" d="M100 1051l-198 314h260l103 -314h-165z" />
<glyph unicode="&#x301;" horiz-adv-x="0" d="M170 1051h-187l211 314h284z" />
<glyph unicode="&#x302;" horiz-adv-x="0" d="M244 1051l-91 151l-160 -151h-184l268 314h208l133 -314h-174z" />
<glyph unicode="&#x303;" horiz-adv-x="0" d="M-230 1071q15 58 37 108t55 87.5t77 59t102 21.5q37 0 65.5 -9.5t49.5 -22.5t37 -29.5t30 -30t27.5 -22.5t29.5 -9q19 0 33 8t24 22.5t17.5 34.5t14.5 46h155q-15 -61 -37 -112.5t-54.5 -89t-77 -58.5t-102.5 -21q-41 0 -70 10t-50 23.5t-36 30t-28 30.5t-26 23.5 t-31 9.5q-35 0 -53.5 -30t-33.5 -80h-155z" />
<glyph unicode="&#x304;" horiz-adv-x="0" d="M-153 1092l34 161h573l-34 -161h-573z" />
<glyph unicode="&#x306;" horiz-adv-x="0" d="M485 1348q-13 -64 -40.5 -116t-71.5 -88.5t-103.5 -56.5t-135.5 -20q-70 0 -121 18t-84 48t-49 70.5t-16 86.5q0 30 6 58h162q3 -49 31.5 -72t91.5 -23q37 0 64.5 7t47 19t33.5 30t25 39h160z" />
<glyph unicode="&#x307;" horiz-adv-x="0" d="M267 1202q0 -21 -5.5 -46.5t-18.5 -47.5q-19 -33 -51.5 -47t-79.5 -14q-55 0 -78.5 18.5t-23.5 51.5q0 22 4.5 45t15.5 44q18 36 49 52.5t81 16.5q57 0 82 -17t25 -56z" />
<glyph unicode="&#x308;" horiz-adv-x="0" d="M64 1167q0 -19 -4 -39t-14 -40q-18 -36 -50 -50.5t-81 -14.5q-57 0 -78 18.5t-21 54.5q0 13 3.5 33t10.5 42q17 40 48.5 56.5t84.5 16.5q54 0 77.5 -19t23.5 -58zM435 1167q0 -19 -4.5 -39t-13.5 -40q-19 -36 -50.5 -50.5t-81.5 -14.5q-56 0 -77 18.5t-21 54.5q0 13 3 33 t11 42q17 40 48.5 56.5t83.5 16.5q55 0 78.5 -19t23.5 -58z" />
<glyph unicode="&#x309;" horiz-adv-x="0" d="M-23 1288q25 20 68 35t92 15q87 0 134.5 -37t47.5 -100q0 -74 -41.5 -111t-117.5 -44l-7 -36h-110l27 118h12q76 0 76 53q0 22 -15.5 32.5t-40.5 10.5q-44 0 -72 -22z" />
<glyph unicode="&#x30a;" horiz-adv-x="0" d="M333 1217q0 -36 -13.5 -74.5t-40.5 -69.5t-67.5 -50.5t-95.5 -19.5q-44 0 -74.5 11t-49.5 31.5t-27.5 48.5t-8.5 64q0 37 13.5 74t40.5 67t67.5 49t95.5 19q80 0 120 -42.5t40 -107.5zM126 1107q22 0 40 8t30 22t18.5 32.5t6.5 40.5q0 27 -16.5 40t-44.5 13 q-42 0 -67 -27.5t-25 -74.5q0 -25 14 -39.5t44 -14.5z" />
<glyph unicode="&#x30c;" horiz-adv-x="0" d="M51 1365l92 -151l160 151h183l-267 -314h-209l-133 314h174z" />
<glyph unicode="&#x323;" horiz-adv-x="0" d="M124 -175q0 -21 -5.5 -46.5t-18.5 -47.5q-19 -33 -51 -47t-79 -14q-55 0 -78.5 18.5t-23.5 51.5q0 22 4.5 45t15.5 44q17 36 48.5 52.5t80.5 16.5q57 0 82 -17.5t25 -55.5z" />
<glyph unicode="&#x374;" horiz-adv-x="374" d="M310 981h-137l114 314h230z" />
<glyph unicode="&#x375;" horiz-adv-x="374" d="M117 112h136l-112 -313h-230z" />
<glyph unicode="&#x37e;" horiz-adv-x="496" d="M461 823q0 -27 -5.5 -55.5t-20.5 -56.5q-22 -40 -57.5 -58.5t-92.5 -18.5q-63 0 -88.5 22t-25.5 63q0 26 6.5 54t16.5 53q19 45 54.5 66t95.5 21q63 0 90 -22t27 -68zM-27 -255q27 35 51 71.5t43.5 70t33 61t18.5 43.5q-85 6 -85 82q0 48 19 98q17 44 53 69t105 25 q59 0 84.5 -27t25.5 -76q0 -54 -18.5 -108t-44.5 -107q-29 -61 -65 -113t-70 -89h-150z" />
<glyph unicode="&#x384;" horiz-adv-x="429" d="M311 1051h-185l216 314h280z" />
<glyph unicode="&#x385;" horiz-adv-x="890" d="M800 1365l-201 -314h-169l124 314h246zM413 1199q0 -18 -4 -38.5t-13 -39.5q-19 -37 -51 -52t-81 -15q-57 0 -78 18.5t-21 55.5q0 13 3.5 33t11.5 41q16 41 47.5 57t83.5 16q55 0 78.5 -18.5t23.5 -57.5zM998 1199q0 -18 -4.5 -38.5t-13.5 -39.5q-19 -37 -50.5 -52 t-81.5 -15q-56 0 -77 18.5t-21 55.5q0 13 3 33t12 41q15 41 47 57t84 16q55 0 78.5 -18.5t23.5 -57.5z" />
<glyph unicode="&#x386;" horiz-adv-x="1140" d="M-71 0l643 1204h314l135 -1204h-237l-27 244h-451l-131 -244h-246zM418 459h316l-52 498zM433 1204l-248 -313h-159l171 313h236z" />
<glyph unicode="&#x387;" horiz-adv-x="496" d="M417 697q0 -27 -6.5 -56t-20.5 -57q-22 -41 -58 -58.5t-92 -17.5q-63 0 -88.5 21.5t-25.5 63.5q0 25 6 53.5t17 53.5q19 44 54 64.5t96 20.5q63 0 90.5 -21.5t27.5 -66.5z" />
<glyph unicode="&#x388;" horiz-adv-x="1140" d="M192 0l255 1204h766l-46 -217h-526l-53 -256h443l-46 -218h-444l-62 -289h526l-46 -224h-767zM407 1204l-248 -313h-159l171 313h236z" />
<glyph unicode="&#x389;" horiz-adv-x="1361" d="M898 0l109 512h-466l-109 -512h-240l255 1204h240l-99 -468h465l100 468h240l-255 -1204h-240zM407 1204l-248 -313h-159l171 313h236z" />
<glyph unicode="&#x38a;" horiz-adv-x="945" d="M762 0h-568l39 189h164l177 826h-164l39 189h568l-39 -189h-164l-176 -826h164zM407 1204l-248 -313h-159l171 313h236z" />
<glyph unicode="&#x38c;" horiz-adv-x="1283" d="M636 -25q-121 0 -205 32t-136 89.5t-75.5 136t-23.5 170.5q0 49 4.5 102.5t15 108.5t27 111.5t40.5 110.5q36 84 85 156.5t115 125t151 82t194 29.5q103 0 184 -27.5t138 -84t87 -140.5t30 -197q0 -59 -14 -145.5t-44 -182.5q-34 -109 -85 -197.5t-121 -150.5t-161 -95.5 t-206 -33.5zM445 422q0 -62 12 -105.5t36 -71t62 -40.5t89 -13q61 0 111 21t89.5 60t70 95t52.5 125q23 71 35.5 142.5t12.5 129.5q0 130 -48 188.5t-156 58.5q-54 0 -98 -16t-80 -47.5t-66 -77t-54 -103.5q-17 -42 -30 -86.5t-21.5 -89.5t-12.5 -88t-4 -82zM407 1204 l-248 -313h-159l171 313h236z" />
<glyph unicode="&#x38e;" horiz-adv-x="1251" d="M865 459l-96 -459h-242l96 454l-210 750h247l123 -512l342 512h269zM407 1204l-248 -313h-159l171 313h236z" />
<glyph unicode="&#x38f;" horiz-adv-x="1307" d="M843 1229q119 0 204.5 -26t141.5 -75.5t83 -121t27 -161.5q0 -52 -10.5 -117.5t-29.5 -132t-45.5 -126.5t-58.5 -100q-38 -47 -85 -76t-101 -49l-6 -26h210l-44 -218h-427l73 349q47 7 89 31t75 71q30 41 52 97.5t34 112.5q6 31 10.5 54t6.5 40.5t3 31.5t1 27 q-2 53 -14.5 90.5t-37.5 61.5t-65 35t-94 11q-47 0 -83 -6.5t-64 -20.5t-51.5 -36t-46.5 -53q-11 -16 -23 -38t-22.5 -47.5t-19.5 -53t-15 -53.5q-14 -59 -22 -107.5t-8 -97.5q0 -35 6 -61.5t21 -45.5t40.5 -30t64.5 -13l-73 -349h-423l44 218h216l7 26q-76 38 -116 103.5 t-40 169.5q0 71 13 144.5t37 142.5t57 130.5t73 109.5q76 92 187 138.5t249 46.5zM407 1204l-248 -313h-159l171 313h236z" />
<glyph unicode="&#x390;" horiz-adv-x="581" d="M472 0q-48 -13 -96.5 -20t-99.5 -7q-59 0 -98.5 15t-63.5 41.5t-34 63t-10 78.5q0 55 15 125l129 617h219l-130 -619q-11 -49 -11 -76q0 -34 16 -49.5t52 -15.5q23 0 50 5t48 12zM585 1365l-201 -314h-169l124 314h246zM198 1199q0 -18 -4 -38.5t-13 -39.5 q-19 -37 -51 -52t-81 -15q-57 0 -78 18.5t-21 55.5q0 13 3.5 33t11.5 41q16 41 47.5 57t83.5 16q55 0 78.5 -18.5t23.5 -57.5zM783 1199q0 -18 -4.5 -38.5t-13.5 -39.5q-19 -37 -50.5 -52t-81.5 -15q-56 0 -77 18.5t-21 55.5q0 13 3 33t12 41q15 41 47 57t84 16 q55 0 78.5 -18.5t23.5 -57.5z" />
<glyph unicode="&#x391;" horiz-adv-x="1140" d="M-71 0l643 1204h314l135 -1204h-237l-27 244h-451l-131 -244h-246zM418 459h316l-52 498z" />
<glyph unicode="&#x392;" horiz-adv-x="1106" d="M787 648q55 -7 100.5 -26.5t77 -51t49.5 -73.5t18 -94q0 -86 -32.5 -159.5t-94.5 -128t-153 -85t-208 -30.5h-512l255 1204h393q106 0 181.5 -13t123 -42.5t69.5 -78t22 -118.5q0 -52 -15.5 -99.5t-50.5 -87.5t-89.5 -70.5t-133.5 -46.5zM573 733q41 0 84 7t79 25.5 t59 50t23 78.5q0 26 -9 44t-30.5 30t-56.5 17.5t-86 5.5h-153l-55 -258h145zM483 218q24 0 55.5 0.5t63.5 5.5t63 15.5t55 30t38.5 49.5t14.5 73q0 38 -12.5 62t-40 38.5t-71 20.5t-105.5 6h-163l-62 -301h164z" />
<glyph unicode="&#x393;" horiz-adv-x="908" d="M465 1000l-212 -1000h-241l255 1204h765l-43 -204h-524z" />
<glyph unicode="&#x394;" horiz-adv-x="1103" d="M994 0h-1047l19 100q73 132 150 271.5t155 280.5t156 280.5t152 271.5h294q18 -132 36 -271.5t35.5 -280.5t35 -280.5t34.5 -271.5zM763 205l-79 664q-3 25 -4 50.5t-1 44.5h-7q-5 -17 -15.5 -42.5t-22.5 -48.5l-365 -668h494z" />
<glyph unicode="&#x395;" horiz-adv-x="979" d="M32 0l255 1204h766l-46 -217h-526l-53 -256h443l-46 -218h-444l-62 -289h526l-46 -224h-767z" />
<glyph unicode="&#x396;" horiz-adv-x="977" d="M-34 0l41 207l692 773h-502l49 224h803l-41 -197l-700 -783h547l-46 -224h-843z" />
<glyph unicode="&#x397;" horiz-adv-x="1200" d="M738 0l109 512h-466l-109 -512h-240l255 1204h240l-99 -468h465l100 468h240l-255 -1204h-240z" />
<glyph unicode="&#x398;" horiz-adv-x="1220" d="M542 -25q-128 0 -216.5 32t-144 89.5t-80 136t-24.5 170.5q0 49 4.5 102.5t15 108.5t27 111.5t40.5 110.5q35 80 87.5 151.5t124 125.5t162.5 85t203 31q109 0 195 -27.5t145.5 -84t91 -140.5t31.5 -197q0 -59 -12 -145.5t-44 -182.5q-30 -87 -79 -172.5t-123 -153.5 t-173.5 -109.5t-230.5 -41.5zM326 422q0 -123 53.5 -176.5t167.5 -53.5q72 0 130 24t102.5 64.5t76 94.5t52.5 113q25 71 35.5 142t10.5 135q0 130 -54 188.5t-174 58.5q-62 0 -113.5 -19t-93 -52t-73 -77t-54.5 -96q-19 -42 -31.5 -86t-20.5 -89.5t-11 -88.5t-3 -82z M413 506l41 194h410l-41 -194h-410z" />
<glyph unicode="&#x399;" horiz-adv-x="742" d="M559 0h-568l39 189h164l177 826h-164l39 189h568l-39 -189h-164l-176 -826h164z" />
<glyph unicode="&#x39a;" horiz-adv-x="1091" d="M690 0l-225 517l-103 -99l-90 -418h-240l255 1204h240l-92 -438l452 438h307l-549 -524l326 -680h-281z" />
<glyph unicode="&#x39b;" horiz-adv-x="1060" d="M563 1204h284l108 -1204h-229l-75 908l-457 -908h-253z" />
<glyph unicode="&#x39c;" horiz-adv-x="1421" d="M966 0l171 809l-391 -503h-139l-172 503l-171 -809h-232l255 1204h264l187 -572l430 572h284l-255 -1204h-231z" />
<glyph unicode="&#x39d;" horiz-adv-x="1202" d="M704 0l-255 860l-182 -860h-235l255 1204h298l240 -812l173 812h237l-255 -1204h-276z" />
<glyph unicode="&#x39e;" horiz-adv-x="933" d="M197 987l47 217h763l-47 -217h-763zM148 513l46 218h663l-46 -218h-663zM-10 0l46 224h763l-47 -224h-762z" />
<glyph unicode="&#x39f;" horiz-adv-x="1163" d="M517 -25q-121 0 -205 32t-136 89.5t-75.5 136t-23.5 170.5q0 49 4.5 102.5t15 108.5t27 111.5t40.5 110.5q36 84 85 156.5t115 125t151 82t194 29.5q103 0 184 -27.5t138 -84t87 -140.5t30 -197q0 -59 -14 -145.5t-44 -182.5q-34 -109 -85 -197.5t-121 -150.5t-161 -95.5 t-206 -33.5zM326 422q0 -62 12 -105.5t36 -71t62 -40.5t89 -13q61 0 111 21t89.5 60t70 95t52.5 125q23 71 35.5 142.5t12.5 129.5q0 130 -48 188.5t-156 58.5q-54 0 -98 -16t-80 -47.5t-66 -77t-54 -103.5q-17 -42 -30 -86.5t-21.5 -89.5t-12.5 -88t-4 -82z" />
<glyph unicode="&#x3a0;" horiz-adv-x="1208" d="M32 0l255 1204h953l-254 -1204h-248l210 994h-460l-210 -994h-246z" />
<glyph unicode="&#x3a1;" horiz-adv-x="1056" d="M1078 901q0 -56 -9 -117.5t-31.5 -120t-59.5 -111.5t-91 -93t-128.5 -63.5t-172.5 -23.5h-235l-79 -372h-240l255 1204h442q84 0 149 -16t109.5 -52t67.5 -94t23 -141zM565 586q80 0 130.5 22.5t78.5 60.5t38.5 89.5t10.5 110.5q0 64 -36 93t-121 29h-183l-85 -405h167z " />
<glyph unicode="&#x3a3;" horiz-adv-x="997" d="M-34 0l36 184l477 427l-297 416l37 177h834l-41 -197h-513l227 -319l-33 -152l-382 -339h558l-41 -197h-862z" />
<glyph unicode="&#x3a4;" horiz-adv-x="1026" d="M745 980l-207 -980h-240l207 980h-364l48 224h967l-48 -224h-363z" />
<glyph unicode="&#x3a5;" horiz-adv-x="1011" d="M627 459l-96 -459h-242l96 454l-210 750h247l123 -512l342 512h269z" />
<glyph unicode="&#x3a6;" horiz-adv-x="1268" d="M643 -68h-237l32 158q-100 13 -168 45t-109 79.5t-58.5 107t-17.5 125.5q0 44 6 94t17 100.5t27 99t36 89.5q30 60 71.5 108.5t100 84t135.5 57t178 28.5l34 164h237l-34 -164q100 -12 167.5 -44t108 -79.5t58 -107t17.5 -125.5q0 -51 -7.5 -108t-21.5 -114t-36 -111 t-50 -98q-62 -99 -172 -158t-282 -73zM914 417q19 36 32.5 76.5t23.5 81t15.5 78.5t5.5 70q0 45 -6.5 78t-22.5 56t-43 36.5t-67 20.5l-134 -623q68 7 117.5 36.5t78.5 89.5zM405 765q-13 -25 -24 -62.5t-20.5 -77t-15 -77t-5.5 -63.5q0 -83 32.5 -135t108.5 -59l134 623 q-38 -5 -69 -16t-56.5 -28.5t-46 -43.5t-38.5 -61z" />
<glyph unicode="&#x3a7;" horiz-adv-x="1096" d="M-70 0l526 627l-253 577h258l165 -398l326 398h279l-513 -598l256 -606h-256l-171 428l-338 -428h-279z" />
<glyph unicode="&#x3a8;" horiz-adv-x="1266" d="M1224 659q-24 -113 -66 -193.5t-105.5 -133.5t-149.5 -80.5t-199 -33.5l-52 -240h-240l51 240q-93 9 -158.5 38.5t-106.5 73t-60 99t-19 115.5q0 33 4.5 69.5t13.5 78.5l109 512h240l-108 -512q-6 -26 -10 -56t-4 -63q0 -67 38 -101.5t106 -36.5l164 769h241l-165 -771 q46 0 84 12.5t68.5 43t54 83t39.5 132.5l106 500h238z" />
<glyph unicode="&#x3a9;" horiz-adv-x="1164" d="M700 1229q119 0 204.5 -26t141.5 -75.5t83 -121t27 -161.5q0 -52 -10.5 -117.5t-29.5 -132t-45.5 -126.5t-58.5 -100q-38 -47 -85 -76t-101 -49l-6 -26h210l-44 -218h-427l73 349q47 7 89 31t75 71q30 41 52 97.5t34 112.5q6 31 10.5 54t6.5 40.5t3 31.5t1 27 q-2 53 -14.5 90.5t-37.5 61.5t-65 35t-94 11q-47 0 -83 -6.5t-64 -20.5t-51.5 -36t-46.5 -53q-11 -16 -23 -38t-22.5 -47.5t-19.5 -53t-15 -53.5q-14 -59 -22 -107.5t-8 -97.5q0 -35 6 -61.5t21 -45.5t40.5 -30t64.5 -13l-73 -349h-423l44 218h216l7 26q-76 38 -116 103.5 t-40 169.5q0 71 13 144.5t37 142.5t57 130.5t73 109.5q76 92 187 138.5t249 46.5z" />
<glyph unicode="&#x3aa;" horiz-adv-x="742" d="M559 0h-568l39 189h164l177 826h-164l39 189h568l-39 -189h-164l-176 -826h164zM503 1459q0 -19 -4 -39t-13 -40q-19 -36 -51 -50.5t-81 -14.5q-57 0 -78 18.5t-21 54.5q0 13 3 33t12 42q16 40 47.5 56.5t83.5 16.5q55 0 78.5 -19t23.5 -58zM874 1459q0 -19 -4 -39 t-14 -40q-19 -36 -50.5 -50.5t-81.5 -14.5q-56 0 -77 18.5t-21 54.5q0 13 3 33t12 42q15 40 47 56.5t84 16.5q55 0 78.5 -19t23.5 -58z" />
<glyph unicode="&#x3ab;" horiz-adv-x="1011" d="M627 459l-96 -459h-242l96 454l-210 750h247l123 -512l342 512h269zM607 1459q0 -19 -4 -39t-13 -40q-19 -36 -51 -50.5t-81 -14.5q-57 0 -78 18.5t-21 54.5q0 13 3 33t12 42q16 40 47.5 56.5t83.5 16.5q55 0 78.5 -19t23.5 -58zM978 1459q0 -19 -4 -39t-14 -40 q-19 -36 -50.5 -50.5t-81.5 -14.5q-56 0 -77 18.5t-21 54.5q0 13 3 33t12 42q15 40 47 56.5t84 16.5q55 0 78.5 -19t23.5 -58z" />
<glyph unicode="&#x3ac;" horiz-adv-x="1131" d="M1028 0q-41 -13 -87 -20t-79 -7q-56 0 -94 12t-60.5 34t-32.5 52t-10 65v22t1 26q-62 -107 -142.5 -159t-178.5 -52q-141 0 -213.5 84t-72.5 258q0 36 6 82.5t19 97t32.5 102t45.5 98.5q36 64 82 110t98 76t109.5 44t116.5 14q78 0 139.5 -23t110.5 -80q8 21 15 40.5 t14 36.5h220q-61 -133 -97 -237.5t-50 -175.5l-43 -206q-4 -22 -7.5 -46.5t-3.5 -44.5q0 -26 16.5 -38t51.5 -12q7 0 17 1.5t21.5 3.5t22 5t19.5 7zM412 157q52 0 102.5 39t96.5 107t85.5 161.5t69.5 201.5q-38 52 -88.5 73t-98.5 21q-66 0 -121.5 -33.5t-97.5 -117.5 q-32 -64 -50.5 -139.5t-18.5 -151.5q0 -49 8 -80t23.5 -49t38 -25t51.5 -7zM685 1051h-185l216 314h280z" />
<glyph unicode="&#x3ad;" horiz-adv-x="906" d="M802 130q-41 -40 -83 -69.5t-90.5 -49t-105.5 -29t-127 -9.5q-82 0 -149 13.5t-115 44t-75 81t-27 123.5q0 29 11.5 62.5t34.5 64t58 56t82 40.5q-21 8 -40 21.5t-32.5 33.5t-21.5 48.5t-8 67.5q0 61 34 117t94.5 99t143 68.5t179.5 25.5q74 0 129.5 -9.5t98 -29t75 -49 t60.5 -69.5l-176 -109q-13 22 -29 40t-39 30t-55 18.5t-78 6.5q-51 0 -89.5 -11t-64.5 -30t-39.5 -43.5t-13.5 -49.5q0 -28 10.5 -45t32 -26t54.5 -11.5t78 -2.5h190l-36 -164h-199q-34 0 -71 -5t-68 -19t-51.5 -38t-21.5 -63q2 -33 17 -55t36 -35t44.5 -18.5t43.5 -5.5 q50 0 90.5 6t73 18.5t60 30.5t52.5 43zM619 1051h-185l216 314h280z" />
<glyph unicode="&#x3ae;" d="M529 -338l182 841q9 47 15.5 85t6.5 75q0 42 -20.5 60t-58.5 18q-34 0 -70 -11t-71.5 -29.5t-70 -42.5t-66.5 -49l-128 -609h-219l192 913h219l-25 -119q34 30 71.5 56.5t78 46t83.5 31t88 11.5q64 0 107 -18t69 -48t37 -69.5t11 -82.5q0 -40 -5 -80t-11 -65l-196 -914 h-219zM685 1051h-185l216 314h280z" />
<glyph unicode="&#x3af;" horiz-adv-x="581" d="M472 0q-48 -13 -96.5 -20t-99.5 -7q-59 0 -98.5 15t-63.5 41.5t-34 63t-10 78.5q0 55 15 125l129 617h219l-130 -619q-11 -49 -11 -76q0 -34 16 -49.5t52 -15.5q23 0 50 5t48 12zM396 1051h-185l216 314h280z" />
<glyph unicode="&#x3b0;" horiz-adv-x="1033" d="M214 913h219l-125 -590q-3 -14 -4 -26.5t-1 -32.5q0 -21 6.5 -41t21.5 -36t40.5 -25t61.5 -9q106 0 180.5 79t107.5 235q10 45 16 88.5t10 83.5t5 74.5t1 59.5q0 53 -0.5 84t-2.5 56h216q4 -26 8 -72t4 -103q0 -58 -5.5 -123.5t-18.5 -129.5q-28 -140 -77.5 -237 t-117 -158t-153.5 -89t-188 -28q-93 0 -157 21.5t-104 58.5t-57.5 87.5t-17.5 109.5q0 41 10 95zM850 1365l-201 -314h-169l124 314h246zM463 1199q0 -18 -4 -38.5t-13 -39.5q-19 -37 -51 -52t-81 -15q-57 0 -78 18.5t-21 55.5q0 13 3.5 33t11.5 41q16 41 47.5 57t83.5 16 q55 0 78.5 -18.5t23.5 -57.5zM1048 1199q0 -18 -4.5 -38.5t-13.5 -39.5q-19 -37 -50.5 -52t-81.5 -15q-56 0 -77 18.5t-21 55.5q0 13 3 33t12 41q15 41 47 57t84 16q55 0 78.5 -18.5t23.5 -57.5z" />
<glyph unicode="&#x3b1;" horiz-adv-x="1131" d="M1028 0q-41 -13 -87 -20t-79 -7q-56 0 -94 12t-60.5 34t-32.5 52t-10 65v22t1 26q-62 -107 -142.5 -159t-178.5 -52q-141 0 -213.5 84t-72.5 258q0 36 6 82.5t19 97t32.5 102t45.5 98.5q36 64 82 110t98 76t109.5 44t116.5 14q78 0 139.5 -23t110.5 -80q8 21 15 40.5 t14 36.5h220q-61 -133 -97 -237.5t-50 -175.5l-43 -206q-4 -22 -7.5 -46.5t-3.5 -44.5q0 -26 16.5 -38t51.5 -12q7 0 17 1.5t21.5 3.5t22 5t19.5 7zM412 157q52 0 102.5 39t96.5 107t85.5 161.5t69.5 201.5q-38 52 -88.5 73t-98.5 21q-66 0 -121.5 -33.5t-97.5 -117.5 q-32 -64 -50.5 -139.5t-18.5 -151.5q0 -49 8 -80t23.5 -49t38 -25t51.5 -7z" />
<glyph unicode="&#x3b2;" horiz-adv-x="1065" d="M978 467q0 -56 -13.5 -115t-40 -113.5t-65.5 -103t-90 -84.5t-114.5 -57t-137.5 -21q-95 0 -161 18.5t-103 40.5l-76 -365h-218l267 1268q18 83 49.5 154t84 122.5t128.5 81t182 29.5q79 0 143 -17t109 -50.5t70 -83.5t25 -115q0 -50 -18.5 -98t-56 -88t-93 -69.5 t-128.5 -43.5q127 -27 192 -98t65 -192zM292 212q33 -22 85 -40.5t128 -18.5q60 0 104 29.5t74 74t44 95.5t14 93q0 62 -17.5 101.5t-49.5 61t-77 29.5t-98 8l37 178q45 1 90.5 14.5t81 40.5t57.5 66.5t22 92.5q0 47 -32 79t-97 32q-53 0 -89.5 -17t-61 -49.5t-40 -79 t-29.5 -104.5z" />
<glyph unicode="&#x3b3;" horiz-adv-x="985" d="M351 913l94 -649q72 84 132 170.5t106 167t76.5 152.5t42.5 128l5 31h220l-8 -40q-21 -96 -70 -199.5t-119 -209.5t-157.5 -210.5t-184.5 -203.5l-83 -388h-218l84 388l-143 863h223z" />
<glyph unicode="&#x3b4;" horiz-adv-x="1079" d="M485 848q-41 28 -69 55t-45.5 55t-25 57.5t-7.5 62.5q0 118 87 181t247 63q62 0 120 -9t106.5 -23t85 -31.5t57.5 -32.5l-113 -177q-35 23 -73 42.5t-75 33.5t-72.5 21.5t-66.5 7.5q-42 0 -58.5 -16t-16.5 -37q0 -20 5.5 -36.5t19.5 -33.5t39 -35.5t65 -43.5 q49 -32 103 -70t99.5 -91t75.5 -125t30 -169q0 -59 -16 -121t-47.5 -120.5t-77.5 -109.5t-107.5 -90t-137 -61t-165.5 -22q-104 0 -179 24.5t-122 69t-69.5 108t-22.5 143.5q0 77 29 153.5t83 146.5t133.5 129t180.5 101zM626 752q-66 -26 -126.5 -68.5t-106.5 -98.5 t-73.5 -122.5t-27.5 -137.5q0 -34 9.5 -65t29.5 -54.5t53 -38t81 -14.5q60 0 115.5 30t97 79.5t67 114t25.5 133.5q0 84 -37.5 143.5t-106.5 98.5z" />
<glyph unicode="&#x3b5;" horiz-adv-x="906" d="M802 130q-41 -40 -83 -69.5t-90.5 -49t-105.5 -29t-127 -9.5q-82 0 -149 13.5t-115 44t-75 81t-27 123.5q0 29 11.5 62.5t34.5 64t58 56t82 40.5q-21 8 -40 21.5t-32.5 33.5t-21.5 48.5t-8 67.5q0 61 34 117t94.5 99t143 68.5t179.5 25.5q74 0 129.5 -9.5t98 -29t75 -49 t60.5 -69.5l-176 -109q-13 22 -29 40t-39 30t-55 18.5t-78 6.5q-51 0 -89.5 -11t-64.5 -30t-39.5 -43.5t-13.5 -49.5q0 -28 10.5 -45t32 -26t54.5 -11.5t78 -2.5h190l-36 -164h-199q-34 0 -71 -5t-68 -19t-51.5 -38t-21.5 -63q2 -33 17 -55t36 -35t44.5 -18.5t43.5 -5.5 q50 0 90.5 6t73 18.5t60 30.5t52.5 43z" />
<glyph unicode="&#x3b6;" horiz-adv-x="828" d="M301 1295h645l-28 -137q-61 -33 -123.5 -79.5t-123 -102t-116.5 -118.5t-103 -129q-70 -103 -113 -210t-43 -213q0 -30 6 -51.5t26 -38t57.5 -30t99.5 -28.5q40 -9 77 -21t66 -32.5t46.5 -52t17.5 -79.5q0 -40 -15 -87.5t-39 -96.5q-14 -26 -27 -50t-25 -43 q-13 -21 -25 -40h-214q17 25 32 52q14 22 29.5 50.5t28.5 56.5q3 8 7.5 19.5t7.5 23.5t5 24t2 21q0 16 -6 28t-24.5 23t-53.5 21.5t-91 22.5q-70 16 -114 38.5t-69 57t-34.5 82.5t-9.5 113q0 60 16.5 124.5t44 129t65 128.5t81.5 123q34 46 74 91.5t85 88t93.5 81.5t96.5 73 h-348z" />
<glyph unicode="&#x3b7;" d="M529 -338l182 841q9 47 15.5 85t6.5 75q0 42 -20.5 60t-58.5 18q-34 0 -70 -11t-71.5 -29.5t-70 -42.5t-66.5 -49l-128 -609h-219l192 913h219l-25 -119q34 30 71.5 56.5t78 46t83.5 31t88 11.5q64 0 107 -18t69 -48t37 -69.5t11 -82.5q0 -40 -5 -80t-11 -65l-196 -914 h-219z" />
<glyph unicode="&#x3b8;" horiz-adv-x="1049" d="M794 748q12 60 20.5 115.5t8.5 114.5q0 35 -8 65t-25.5 51.5t-47 34t-70.5 12.5q-62 0 -106 -21t-77 -67.5t-59 -121.5t-51 -183h415zM684 1322q96 0 164.5 -23.5t112 -68t63.5 -110t20 -149.5q0 -63 -13.5 -146t-32.5 -174q-42 -199 -91 -329.5t-113 -207.5t-147.5 -109 t-194.5 -32q-108 0 -178.5 25.5t-112 72.5t-58 114t-16.5 150q0 59 13.5 141.5t33.5 174.5q37 178 82 305t108.5 208.5t150.5 119.5t209 38zM344 585q-15 -74 -25.5 -140t-10.5 -127q0 -42 7.5 -73.5t25 -51.5t46.5 -30t71 -10q55 0 100 22t80.5 72t65 132.5t55.5 205.5 h-415z" />
<glyph unicode="&#x3b9;" horiz-adv-x="581" d="M472 0q-48 -13 -96.5 -20t-99.5 -7q-59 0 -98.5 15t-63.5 41.5t-34 63t-10 78.5q0 55 15 125l129 617h219l-130 -619q-11 -49 -11 -76q0 -34 16 -49.5t52 -15.5q23 0 50 5t48 12z" />
<glyph unicode="&#x3ba;" horiz-adv-x="969" d="M609 0l-189 385l-114 -101l-58 -284h-219l192 913h219l-71 -343l369 343h269l-424 -389l267 -524h-241z" />
<glyph unicode="&#x3bb;" horiz-adv-x="1018" d="M777 248q3 -30 7 -48t10 -28t13.5 -13.5t17.5 -3.5q11 0 30 4t39 11l17 -170q-39 -12 -84 -19.5t-77 -7.5q-44 0 -76 11.5t-53 38.5t-32.5 73t-16.5 115l-30 404l-365 -615h-241l583 913l-9 104q-5 66 -25.5 94t-69.5 28q-12 0 -28 -3t-34 -7.5t-36.5 -11t-34.5 -12.5 l-15 163q49 26 98.5 40t97.5 14q57 0 101 -13t75 -44t49 -82t25 -127z" />
<glyph unicode="&#x3bc;" horiz-adv-x="1024" d="M816 0h-203l16 97q-55 -61 -109.5 -92.5t-120.5 -31.5q-52 0 -88 15.5t-68 45.5l-81 -378h-217l264 1257h219l-137 -653q7 -16 21.5 -32t34 -28t43 -19.5t48.5 -7.5q62 0 114 26t104 79l133 635h219z" />
<glyph unicode="&#x3bd;" horiz-adv-x="985" d="M351 913l89 -685q59 75 114.5 149.5t101 151.5t79.5 157.5t52 166.5l13 60h227l-12 -54q-15 -71 -46 -146.5t-73.5 -152t-94.5 -153t-108.5 -148t-116 -137.5t-117.5 -122h-187l-144 913h223z" />
<glyph unicode="&#x3be;" horiz-adv-x="776" d="M246 1131l34 164h643l-36 -167h-76q-59 0 -103.5 -5t-78.5 -15t-58.5 -26t-43.5 -38q-24 -30 -41 -66.5t-17 -88.5q0 -36 14 -59t34.5 -36t43 -17.5t39.5 -4.5h191l-36 -168h-206q-59 0 -109 -25t-85 -69q-28 -36 -45.5 -85.5t-17.5 -114.5q0 -31 9 -53t30 -39.5t57 -32 t90 -28.5q41 -12 80.5 -24.5t70.5 -33t50.5 -51.5t19.5 -80q0 -42 -12.5 -80.5t-30.5 -78.5q-14 -28 -29 -55.5l-27 -49.5q-14 -25 -28 -48h-208q13 20 32 52t37.5 67t31.5 69t13 58q0 21 -11 36t-29.5 25.5t-43 18t-52.5 15.5q-78 21 -132.5 46t-89 59t-50 79.5 t-15.5 109.5q0 32 6.5 70.5t21 78.5t38 78.5t57.5 71.5q77 74 191 102q-65 22 -98 71t-33 112q0 51 16.5 98.5t49.5 85.5q46 49 120 72h-178z" />
<glyph unicode="&#x3bf;" horiz-adv-x="1013" d="M59 331q0 47 8.5 106.5t28 122.5t51.5 124.5t81 111.5q65 69 152 106t212 37q82 0 149.5 -23t115 -69.5t73 -117t25.5 -164.5q0 -43 -9.5 -101.5t-31 -122t-56.5 -126t-86 -113.5q-37 -37 -74.5 -61t-80 -39.5t-91 -22t-108.5 -6.5q-97 0 -165.5 25t-111.5 72t-62.5 113 t-19.5 148zM291 328q0 -37 7.5 -67t25.5 -50t47 -30.5t71 -10.5q57 0 100 22.5t77 60.5q23 28 43 67t34 81.5t22 83.5t8 74q0 89 -40 136.5t-121 47.5q-55 0 -98.5 -24.5t-75.5 -64.5q-23 -28 -41.5 -67.5t-32 -83t-20 -88.5t-6.5 -87z" />
<glyph unicode="&#x3c0;" horiz-adv-x="1179" d="M1056 17q-15 -7 -36 -12.5t-45 -10t-49.5 -7.5t-50.5 -3q-94 0 -146 47.5t-52 146.5q0 45 11 96l99 471h-242l-101 -483q-18 -79 -35 -142t-45 -120h-245q16 30 31.5 64t29.5 69t26 70t18 69l101 469q-21 -3 -46.5 -8.5t-52 -12.5t-52.5 -15.5t-48 -18.5l-29 157 q26 12 60.5 24.5t76 22.5t86.5 16.5t90 6.5h821l-36 -168h-188l-94 -447q-5 -20 -6.5 -34.5t-1.5 -28.5q0 -44 20 -61t55 -17q16 0 34 3t33 10z" />
<glyph unicode="&#x3c1;" horiz-adv-x="1067" d="M-57 -338l169 803q25 114 66 202.5t103 148.5t146 91.5t193 31.5q102 0 175 -23t120.5 -67.5t70 -110t22.5 -152.5q0 -51 -9 -105.5t-24 -105.5t-34 -97t-38 -79q-38 -63 -79.5 -106t-91 -69.5t-108 -38.5t-131.5 -12q-81 0 -142 26.5t-103 68.5l-88 -406h-217zM287 253 q43 -44 95 -70t111 -26q66 0 119 32t92 105q35 64 53 140.5t18 146.5q0 87 -39 133t-134 46q-48 0 -89.5 -14t-75.5 -47t-60 -86t-42 -130z" />
<glyph unicode="&#x3c2;" horiz-adv-x="901" d="M364 -344q13 20 32 52t37.5 67t31.5 69t13 58q0 21 -11 36t-29.5 25.5t-43 18t-52.5 15.5q-82 22 -135.5 51.5t-85 71.5t-44.5 98.5t-13 132.5q0 48 11.5 111t36.5 128t65 127.5t97 112t132 79.5t172 30q65 0 116.5 -10t93 -30t73 -50t55.5 -70l-185 -116 q-25 41 -62.5 60.5t-102.5 19.5q-49 0 -88.5 -19.5t-69.5 -52t-51 -74t-34.5 -85t-20 -85t-6.5 -74.5q0 -31 8 -59t28.5 -52t56 -44t89.5 -34q41 -12 80.5 -25.5t70.5 -35t50.5 -54t19.5 -81.5q0 -42 -12.5 -80.5t-30.5 -78.5q-14 -28 -29 -55.5l-27 -49.5q-14 -25 -28 -48 h-208v0z" />
<glyph unicode="&#x3c3;" horiz-adv-x="1117" d="M1171 913l-34 -167h-232q20 -25 34.5 -52.5t23.5 -54.5t13 -53.5t4 -47.5q0 -55 -8.5 -108t-23.5 -102.5t-38 -94.5t-51 -82q-36 -44 -78 -77.5t-94.5 -55.5t-116 -33.5t-140.5 -11.5q-97 0 -167 24.5t-115 69.5t-67 109.5t-22 144.5q0 34 5.5 75.5t16.5 85t26.5 87.5 t35.5 83q68 136 189.5 198.5t301.5 62.5h537zM592 746q-51 0 -89.5 -12.5t-68 -35t-51.5 -53.5t-38 -67q-22 -55 -39 -117t-17 -126q0 -90 40.5 -136t115.5 -46q47 0 83.5 9t64.5 25t49.5 37.5t37.5 47.5q20 32 35.5 67.5t25.5 71.5t14.5 71t4.5 65q0 70 -10 117.5t-32 81.5 h-126z" />
<glyph unicode="&#x3c4;" horiz-adv-x="875" d="M905 746h-305l-95 -452q-5 -17 -6.5 -33.5t-1.5 -34.5q0 -69 69 -69q18 0 39 3t36 10l10 -153q-39 -17 -86.5 -25t-86.5 -8q-54 0 -93.5 14.5t-64 40t-36.5 60.5t-12 76q0 36 3 62.5t9 53.5l97 455h-66q-39 0 -75 -6t-66 -14t-54.5 -17.5t-41.5 -16.5l-28 155 q51 25 126.5 45.5t181.5 20.5h581z" />
<glyph unicode="&#x3c5;" horiz-adv-x="1033" d="M214 913h219l-125 -590q-3 -14 -4 -26.5t-1 -32.5q0 -21 6.5 -41t21.5 -36t40.5 -25t61.5 -9q106 0 180.5 79t107.5 235q10 45 16 88.5t10 83.5t5 74.5t1 59.5q0 53 -0.5 84t-2.5 56h216q4 -26 8 -72t4 -103q0 -58 -5.5 -123.5t-18.5 -129.5q-28 -140 -77.5 -237 t-117 -158t-153.5 -89t-188 -28q-93 0 -157 21.5t-104 58.5t-57.5 87.5t-17.5 109.5q0 41 10 95z" />
<glyph unicode="&#x3c6;" horiz-adv-x="1222" d="M337 -340l68 320q-96 10 -161.5 40.5t-106 78t-57.5 110t-17 136.5q0 26 4 60t12 72.5t19.5 77.5t25.5 74q28 64 71 118.5t102.5 95t136.5 64.5t173 28l77 360h210l-76 -360q95 -10 160 -41t105.5 -79.5t58.5 -112.5t18 -143q0 -27 -5.5 -65.5t-16 -80.5t-25 -85.5 t-33.5 -79.5q-31 -57 -74 -104t-100.5 -82t-129.5 -56t-161 -26l-68 -320h-210zM573 770q-42 -2 -77.5 -16.5t-63 -39t-50 -57.5t-38.5 -72q-23 -57 -37.5 -121.5t-14.5 -128.5q0 -77 34.5 -124t113.5 -65zM651 146q37 3 69.5 15.5t58.5 33.5t47 48t38 58q16 29 28 62 t20 67.5t13 70.5t5 71q0 78 -34.5 128.5t-113.5 69.5z" />
<glyph unicode="&#x3c7;" horiz-adv-x="981" d="M345 351l-60 266q-10 44 -18.5 71.5t-18 42.5t-22 20.5t-30.5 5.5q-13 0 -33 -3.5t-42 -10.5l-14 153q18 9 39.5 16.5t44 13.5t44 9.5t39.5 3.5q39 0 70 -7.5t55 -27.5t41.5 -55t28.5 -90l44 -207l262 361h242l-447 -594l75 -346q7 -31 14 -54t17 -38t24.5 -22t35.5 -7 q15 0 33.5 3.5t41.5 10.5l14 -160q-19 -10 -41.5 -18t-44 -13.5t-41 -9t-32.5 -3.5q-47 0 -82 9.5t-60.5 31.5t-42.5 57.5t-29 88.5l-58 261l-312 -448h-233z" />
<glyph unicode="&#x3c8;" horiz-adv-x="1305" d="M942 1283l-238 -1123q67 14 129.5 49.5t106.5 103.5q28 43 45.5 94t27.5 106t13.5 112t3.5 111q0 52 -3.5 96t-7.5 81h221q6 -28 11 -79.5t5 -117.5q0 -59 -5 -123t-19 -128t-37 -125.5t-58 -116.5q-43 -66 -98 -109.5t-116.5 -71t-127 -41.5t-130.5 -21l-68 -320h-214 l68 318q-94 8 -162 33t-112 65t-64.5 94t-20.5 121q0 21 3 48.5t9 52.5l110 521h219l-108 -515q-5 -20 -7.5 -36.5t-2.5 -31.5q0 -42 10 -71t31.5 -49t54 -32.5t77.5 -19.5l241 1125h213z" />
<glyph unicode="&#x3c9;" horiz-adv-x="1464" d="M1313 925q35 -79 54 -176t19 -197q0 -147 -33 -256t-92.5 -180.5t-142.5 -107t-183 -35.5q-114 0 -179 48.5t-84 131.5q-54 -86 -131.5 -133t-182.5 -47q-85 0 -144.5 22t-97 63t-55 101.5t-17.5 138.5q0 48 11.5 102t31.5 110t48.5 112.5t62 110t72.5 102.5t81 90 l200 -39q-57 -73 -106 -149t-85 -151.5t-57 -149.5t-21 -142q0 -69 27 -105t74 -36q40 0 76 18.5t67.5 56.5t56 98.5t43.5 145.5l53 254h221l-53 -254q-10 -46 -14.5 -84t-4.5 -80q0 -77 31 -116t83 -39q45 0 85 27t69.5 77.5t46.5 123.5t17 164q0 87 -17 173t-47 168z" />
<glyph unicode="&#x3ca;" horiz-adv-x="581" d="M472 0q-48 -13 -96.5 -20t-99.5 -7q-59 0 -98.5 15t-63.5 41.5t-34 63t-10 78.5q0 55 15 125l129 617h219l-130 -619q-11 -49 -11 -76q0 -34 16 -49.5t52 -15.5q23 0 50 5t48 12zM295 1167q0 -19 -4 -39t-13 -40q-19 -36 -51 -50.5t-81 -14.5q-57 0 -78 18.5t-21 54.5 q0 13 3 33t12 42q16 40 47.5 56.5t83.5 16.5q55 0 78.5 -19t23.5 -58zM666 1167q0 -19 -4 -39t-14 -40q-19 -36 -50.5 -50.5t-81.5 -14.5q-56 0 -77 18.5t-21 54.5q0 13 3 33t12 42q15 40 47 56.5t84 16.5q55 0 78.5 -19t23.5 -58z" />
<glyph unicode="&#x3cb;" horiz-adv-x="1033" d="M214 913h219l-125 -590q-3 -14 -4 -26.5t-1 -32.5q0 -21 6.5 -41t21.5 -36t40.5 -25t61.5 -9q106 0 180.5 79t107.5 235q10 45 16 88.5t10 83.5t5 74.5t1 59.5q0 53 -0.5 84t-2.5 56h216q4 -26 8 -72t4 -103q0 -58 -5.5 -123.5t-18.5 -129.5q-28 -140 -77.5 -237 t-117 -158t-153.5 -89t-188 -28q-93 0 -157 21.5t-104 58.5t-57.5 87.5t-17.5 109.5q0 41 10 95zM563 1167q0 -19 -4 -39t-13 -40q-19 -36 -51 -50.5t-81 -14.5q-57 0 -78 18.5t-21 54.5q0 13 3 33t12 42q16 40 47.5 56.5t83.5 16.5q55 0 78.5 -19t23.5 -58zM934 1167 q0 -19 -4 -39t-14 -40q-19 -36 -50.5 -50.5t-81.5 -14.5q-56 0 -77 18.5t-21 54.5q0 13 3 33t12 42q15 40 47 56.5t84 16.5q55 0 78.5 -19t23.5 -58z" />
<glyph unicode="&#x3cc;" horiz-adv-x="1013" d="M59 331q0 47 8.5 106.5t28 122.5t51.5 124.5t81 111.5q65 69 152 106t212 37q82 0 149.5 -23t115 -69.5t73 -117t25.5 -164.5q0 -43 -9.5 -101.5t-31 -122t-56.5 -126t-86 -113.5q-37 -37 -74.5 -61t-80 -39.5t-91 -22t-108.5 -6.5q-97 0 -165.5 25t-111.5 72t-62.5 113 t-19.5 148zM291 328q0 -37 7.5 -67t25.5 -50t47 -30.5t71 -10.5q57 0 100 22.5t77 60.5q23 28 43 67t34 81.5t22 83.5t8 74q0 89 -40 136.5t-121 47.5q-55 0 -98.5 -24.5t-75.5 -64.5q-23 -28 -41.5 -67.5t-32 -83t-20 -88.5t-6.5 -87zM685 1051h-185l216 314h280z" />
<glyph unicode="&#x3cd;" horiz-adv-x="1033" d="M214 913h219l-125 -590q-3 -14 -4 -26.5t-1 -32.5q0 -21 6.5 -41t21.5 -36t40.5 -25t61.5 -9q106 0 180.5 79t107.5 235q10 45 16 88.5t10 83.5t5 74.5t1 59.5q0 53 -0.5 84t-2.5 56h216q4 -26 8 -72t4 -103q0 -58 -5.5 -123.5t-18.5 -129.5q-28 -140 -77.5 -237 t-117 -158t-153.5 -89t-188 -28q-93 0 -157 21.5t-104 58.5t-57.5 87.5t-17.5 109.5q0 41 10 95zM653 1051h-185l216 314h280z" />
<glyph unicode="&#x3ce;" horiz-adv-x="1464" d="M1313 925q35 -79 54 -176t19 -197q0 -147 -33 -256t-92.5 -180.5t-142.5 -107t-183 -35.5q-114 0 -179 48.5t-84 131.5q-54 -86 -131.5 -133t-182.5 -47q-85 0 -144.5 22t-97 63t-55 101.5t-17.5 138.5q0 48 11.5 102t31.5 110t48.5 112.5t62 110t72.5 102.5t81 90 l200 -39q-57 -73 -106 -149t-85 -151.5t-57 -149.5t-21 -142q0 -69 27 -105t74 -36q40 0 76 18.5t67.5 56.5t56 98.5t43.5 145.5l53 254h221l-53 -254q-10 -46 -14.5 -84t-4.5 -80q0 -77 31 -116t83 -39q45 0 85 27t69.5 77.5t46.5 123.5t17 164q0 87 -17 173t-47 168z M896 1051h-185l216 314h280z" />
<glyph unicode="&#x400;" horiz-adv-x="979" d="M32 0l255 1204h766l-46 -217h-526l-53 -256h443l-46 -218h-444l-62 -289h526l-46 -224h-767zM622 1343l-198 314h261l102 -314h-165z" />
<glyph unicode="&#x401;" horiz-adv-x="979" d="M32 0l255 1204h766l-46 -217h-526l-53 -256h443l-46 -218h-444l-62 -289h526l-46 -224h-767zM636 1459q0 -19 -4 -39t-13 -40q-19 -36 -51 -50.5t-81 -14.5q-57 0 -78 18.5t-21 54.5q0 13 3 33t12 42q16 40 47.5 56.5t83.5 16.5q55 0 78.5 -19t23.5 -58zM1007 1459 q0 -19 -4 -39t-14 -40q-19 -36 -50.5 -50.5t-81.5 -14.5q-56 0 -77 18.5t-21 54.5q0 13 3 33t12 42q15 40 47 56.5t84 16.5q55 0 78.5 -19t23.5 -58z" />
<glyph unicode="&#x402;" horiz-adv-x="1159" d="M773 998h-217l-57 -264h187q102 0 180.5 -17t132 -54t81 -95.5t27.5 -142.5q0 -54 -12 -107.5t-39.5 -100.5t-73 -87t-114 -69t-162.5 -45t-216 -16l42 203q56 0 112 7.5t101.5 30t73.5 62.5t28 105q0 68 -44.5 97t-141.5 29h-205l-112 -534h-246l212 998h-166l45 206 h629z" />
<glyph unicode="&#x403;" horiz-adv-x="908" d="M465 1000l-212 -1000h-241l255 1204h765l-43 -204h-524zM684 1343h-187l212 314h284z" />
<glyph unicode="&#x404;" horiz-adv-x="1117" d="M1025 199q-45 -49 -97 -90.5t-113.5 -71t-135 -46t-159.5 -16.5q-222 0 -332.5 109.5t-110.5 345.5q0 42 4.5 93.5t16 109t30.5 117.5t47 119q35 72 85 137.5t117.5 115t153 78.5t192.5 29q88 0 156.5 -16.5t121.5 -47t91 -73.5t64 -96l-212 -130q-19 41 -41 68.5t-49 45 t-61.5 25t-79.5 7.5q-57 0 -103 -16t-84 -45.5t-66.5 -70t-49.5 -87.5q-8 -19 -16 -37.5t-13 -37.5h490l-46 -218h-492q-2 -18 -2 -35v-32q0 -68 16.5 -114.5t43.5 -74t64 -40t77 -12.5q51 0 93.5 8.5t81 27t74.5 48t74 71.5z" />
<glyph unicode="&#x405;" horiz-adv-x="1047" d="M218 344q15 -33 34.5 -60.5t48.5 -48t69 -32t97 -11.5q48 0 91.5 10.5t76.5 29.5t52.5 44t19.5 55q0 33 -4.5 55t-27.5 42t-69.5 40.5t-129.5 48.5q-79 26 -138.5 54t-100 66.5t-60.5 90.5t-20 125q0 71 31.5 139t93.5 120.5t152.5 84.5t210.5 32q148 0 251.5 -53.5 t172.5 -160.5l-216 -146q-17 34 -38.5 60.5t-51 45t-67 28t-87.5 9.5q-43 0 -79 -9t-62.5 -26.5t-41 -42.5t-14.5 -57q0 -30 12 -51t37.5 -38.5t65.5 -33t97 -33.5q92 -28 157 -62.5t105.5 -77.5t59 -97t18.5 -122q0 -86 -37 -157.5t-104.5 -122.5t-162.5 -79t-211 -28 q-178 0 -290.5 57t-158.5 167z" />
<glyph unicode="&#x406;" horiz-adv-x="742" d="M559 0h-568l39 189h164l177 826h-164l39 189h568l-39 -189h-164l-176 -826h164z" />
<glyph unicode="&#x407;" horiz-adv-x="742" d="M559 0h-568l39 189h164l177 826h-164l39 189h568l-39 -189h-164l-176 -826h164zM503 1459q0 -19 -4 -39t-13 -40q-19 -36 -51 -50.5t-81 -14.5q-57 0 -78 18.5t-21 54.5q0 13 3 33t12 42q16 40 47.5 56.5t83.5 16.5q55 0 78.5 -19t23.5 -58zM874 1459q0 -19 -4 -39 t-14 -40q-19 -36 -50.5 -50.5t-81.5 -14.5q-56 0 -77 18.5t-21 54.5q0 13 3 33t12 42q15 40 47 56.5t84 16.5q55 0 78.5 -19t23.5 -58z" />
<glyph unicode="&#x408;" horiz-adv-x="787" d="M629 328q-18 -90 -51.5 -156.5t-86 -110.5t-125.5 -66t-172 -22q-65 0 -131 12.5t-118 34.5l92 211q30 -15 74 -27.5t92 -12.5q46 0 78 9t55 32t38.5 62.5t28.5 99.5l170 810h241z" />
<glyph unicode="&#x409;" horiz-adv-x="1771" d="M727 0l210 1000h-238l-38 -174q-44 -205 -93 -363.5t-112.5 -267.5t-146 -165.5t-193.5 -56.5q-36 0 -65.5 5t-53 13t-41 17.5t-29.5 18.5l114 192q22 -12 42.5 -17.5t35.5 -5.5q48 0 90 39t81.5 127.5t78.5 230.5t83 349l56 262h714l-91 -427h182q102 0 176 -17 t121.5 -53t70 -92t22.5 -136q0 -25 -3.5 -54t-10.5 -58t-16 -56t-17 -49q-32 -72 -78.5 -122t-111 -81t-149 -45t-191.5 -14h-399zM1429 349q8 22 14 47t6 53q0 29 -8.5 51t-27.5 36.5t-50.5 21.5t-77.5 7h-198l-75 -349h169q95 0 157.5 31t90.5 102z" />
<glyph unicode="&#x40a;" horiz-adv-x="1720" d="M1081 777h182q102 0 176 -17t122 -53t70.5 -92t22.5 -136q0 -25 -4 -54t-11 -58t-15.5 -56t-18.5 -49q-30 -72 -76.5 -122t-111.5 -81t-149.5 -45t-191.5 -14h-401l119 565h-402l-120 -565h-240l255 1204h240l-90 -427h403l90 427h243zM1037 565l-75 -349h169 q96 0 158 31t90 102q8 22 14 47t6 53q0 29 -8.5 51t-27.5 36.5t-50.5 21.5t-77.5 7h-198z" />
<glyph unicode="&#x40b;" horiz-adv-x="1168" d="M552 998l-53 -258q73 20 142 27.5t131 7.5q79 0 135 -17.5t91.5 -51t51.5 -83.5t16 -115q0 -72 -22 -170l-71 -338h-240l61 292q10 49 16 85.5t6 64.5q0 31 -6 53.5t-20.5 36t-39 20t-60.5 6.5q-64 0 -122.5 -10.5t-113.5 -25.5l-112 -522h-240l209 998h-167l45 206h629 l-45 -206h-221z" />
<glyph unicode="&#x40c;" horiz-adv-x="1096" d="M527 1204l-103 -491h127q20 0 40.5 7.5t44 27.5t50 55.5t57.5 89.5t68 131t82 180h258q-62 -141 -113 -241.5t-96.5 -169t-89 -111t-89.5 -65.5q54 -35 85 -87t48 -126.5t23.5 -174t10.5 -229.5h-235q-7 127 -14 222t-24.5 158.5t-51 94.5t-92.5 31h-134l-107 -506h-240 l255 1204h240zM762 1343h-187l212 314h284z" />
<glyph unicode="&#x40d;" horiz-adv-x="1197" d="M32 0l255 1204h225l-172 -806l608 806h281l-255 -1204h-226l182 862l-641 -862h-257zM686 1343l-198 314h261l102 -314h-165z" />
<glyph unicode="&#x40e;" horiz-adv-x="1076" d="M595 617l367 587h267l-643 -983q-52 -79 -95.5 -127.5t-85.5 -75t-88 -35t-101 -8.5q-29 0 -60 4t-61.5 11t-60.5 16.5t-56 20.5l111 191q16 -10 35.5 -18t39 -13.5t36.5 -8.5t30 -3q21 0 40 6t38 23t41 47t52 77l31 48l-235 828h247zM1067 1566q-24 -119 -106.5 -180.5 t-239.5 -61.5q-87 0 -142 18t-85.5 50t-42 76.5t-11.5 97.5h206q0 -36 5 -60.5t15 -40t26.5 -22.5t39.5 -7q45 0 76.5 29t48.5 101h210z" />
<glyph unicode="&#x40f;" horiz-adv-x="1157" d="M934 0h-330l-50 -228h-239l50 228h-333l255 1204h238l-207 -980h423l209 980h238z" />
<glyph unicode="&#x410;" horiz-adv-x="1140" d="M-71 0l643 1204h314l135 -1204h-237l-27 244h-451l-131 -244h-246zM418 459h316l-52 498z" />
<glyph unicode="&#x411;" horiz-adv-x="1110" d="M430 738h163q212 0 314.5 -76t102.5 -237q0 -95 -32.5 -174t-99 -134.5t-168 -86t-238.5 -30.5h-440l255 1204h801l-42 -201h-561zM486 201q59 0 109 11t87 35t57.5 62.5t20.5 95.5q0 43 -15.5 69t-43 39.5t-63.5 18t-77 4.5h-175l-71 -335h171z" />
<glyph unicode="&#x412;" horiz-adv-x="1106" d="M787 648q55 -7 100.5 -26.5t77 -51t49.5 -73.5t18 -94q0 -86 -32.5 -159.5t-94.5 -128t-153 -85t-208 -30.5h-512l255 1204h393q106 0 181.5 -13t123 -42.5t69.5 -78t22 -118.5q0 -52 -15.5 -99.5t-50.5 -87.5t-89.5 -70.5t-133.5 -46.5zM573 733q41 0 84 7t79 25.5 t59 50t23 78.5q0 26 -9 44t-30.5 30t-56.5 17.5t-86 5.5h-153l-55 -258h145zM483 218q24 0 55.5 0.5t63.5 5.5t63 15.5t55 30t38.5 49.5t14.5 73q0 38 -12.5 62t-40 38.5t-71 20.5t-105.5 6h-163l-62 -301h164z" />
<glyph unicode="&#x413;" horiz-adv-x="908" d="M465 1000l-212 -1000h-241l255 1204h765l-43 -204h-524z" />
<glyph unicode="&#x414;" horiz-adv-x="1161" d="M-121 -228l91 429h107q46 69 96 161.5t100.5 214.5t98 277t89.5 350h697l-212 -1003h139l-92 -429h-241l50 228h-634l-51 -228h-238zM875 1000h-234q-35 -139 -76 -258t-83 -219t-82 -179.5t-74 -138.5h380z" />
<glyph unicode="&#x415;" horiz-adv-x="979" d="M32 0l255 1204h766l-46 -217h-526l-53 -256h443l-46 -218h-444l-62 -289h526l-46 -224h-767z" />
<glyph unicode="&#x416;" horiz-adv-x="1594" d="M973 713h80q21 0 41.5 8.5t43.5 30t48.5 57t56.5 90.5t67.5 130t80.5 175h255q-60 -141 -112.5 -241.5t-100 -169.5t-90.5 -111t-83 -65q54 -35 85 -87t48 -126.5t24 -174t12 -229.5h-235q-7 132 -15 228t-26 157.5t-50 91t-88 29.5h-87l-107 -506h-240l107 506h-71 q-51 0 -94 -23.5t-87.5 -81.5t-95 -155.5t-116.5 -245.5h-251q60 130 108.5 230.5t98 175t103 127t122.5 86.5q-30 23 -55 65t-43.5 111t-29.5 169t-12 240h247q1 -104 6 -181t13 -132t19.5 -90t25.5 -54.5t30.5 -26.5t36.5 -7h90l103 491h240z" />
<glyph unicode="&#x417;" d="M187 338q28 -78 82.5 -120.5t128.5 -42.5q67 0 120.5 15.5t91 43.5t58 67.5t20.5 86.5q0 32 -7 56.5t-24.5 41t-48.5 25t-79 8.5h-244l45 202h262q34 0 69 11.5t62 33.5t44 54.5t17 75.5q0 36 -14.5 61t-39 41.5t-58 24t-70.5 7.5q-86 0 -163.5 -26.5t-156.5 -78.5 l-88 185q90 59 207.5 89t252.5 30q198 0 295.5 -82.5t97.5 -235.5q0 -40 -16.5 -83.5t-48 -84t-76 -74t-99.5 -54.5q33 -15 59.5 -35.5t45.5 -48t29.5 -64t10.5 -82.5q0 -97 -42.5 -172.5t-116.5 -129t-172 -81t-209 -27.5q-100 0 -171.5 18t-122.5 51.5t-84.5 79.5 t-55.5 100z" />
<glyph unicode="&#x418;" horiz-adv-x="1197" d="M32 0l255 1204h225l-172 -806l608 806h281l-255 -1204h-226l182 862l-641 -862h-257z" />
<glyph unicode="&#x419;" horiz-adv-x="1197" d="M32 0l255 1204h225l-172 -806l608 806h281l-255 -1204h-226l182 862l-641 -862h-257zM1098 1566q-24 -119 -106.5 -180.5t-239.5 -61.5q-87 0 -142 18t-85.5 50t-42 76.5t-11.5 97.5h206q0 -36 5 -60.5t15 -40t26.5 -22.5t39.5 -7q45 0 76.5 29t48.5 101h210z" />
<glyph unicode="&#x41a;" horiz-adv-x="1096" d="M527 1204l-103 -491h127q20 0 40.5 7.5t44 27.5t50 55.5t57.5 89.5t68 131t82 180h258q-62 -141 -113 -241.5t-96.5 -169t-89 -111t-89.5 -65.5q54 -35 85 -87t48 -126.5t23.5 -174t10.5 -229.5h-235q-7 127 -14 222t-24.5 158.5t-51 94.5t-92.5 31h-134l-107 -506h-240 l255 1204h240z" />
<glyph unicode="&#x41b;" horiz-adv-x="1238" d="M699 1000l-38 -174q-44 -205 -93 -363.5t-112.5 -267.5t-146 -165.5t-193.5 -56.5q-36 0 -65.5 5t-53 13t-41 17.5t-29.5 18.5l114 192q22 -12 42.5 -17.5t35.5 -5.5q48 0 90 39t81.5 127.5t78.5 230.5t83 349l56 262h760l-254 -1204h-239l212 1000h-288z" />
<glyph unicode="&#x41c;" horiz-adv-x="1421" d="M966 0l171 809l-391 -503h-139l-172 503l-171 -809h-232l255 1204h264l187 -572l430 572h284l-255 -1204h-231z" />
<glyph unicode="&#x41d;" horiz-adv-x="1200" d="M738 0l109 512h-466l-109 -512h-240l255 1204h240l-99 -468h465l100 468h240l-255 -1204h-240z" />
<glyph unicode="&#x41e;" horiz-adv-x="1163" d="M517 -25q-121 0 -205 32t-136 89.5t-75.5 136t-23.5 170.5q0 49 4.5 102.5t15 108.5t27 111.5t40.5 110.5q36 84 85 156.5t115 125t151 82t194 29.5q103 0 184 -27.5t138 -84t87 -140.5t30 -197q0 -59 -14 -145.5t-44 -182.5q-34 -109 -85 -197.5t-121 -150.5t-161 -95.5 t-206 -33.5zM326 422q0 -62 12 -105.5t36 -71t62 -40.5t89 -13q61 0 111 21t89.5 60t70 95t52.5 125q23 71 35.5 142.5t12.5 129.5q0 130 -48 188.5t-156 58.5q-54 0 -98 -16t-80 -47.5t-66 -77t-54 -103.5q-17 -42 -30 -86.5t-21.5 -89.5t-12.5 -88t-4 -82z" />
<glyph unicode="&#x41f;" horiz-adv-x="1208" d="M32 0l255 1204h953l-254 -1204h-248l210 994h-460l-210 -994h-246z" />
<glyph unicode="&#x420;" horiz-adv-x="1056" d="M1078 901q0 -56 -9 -117.5t-31.5 -120t-59.5 -111.5t-91 -93t-128.5 -63.5t-172.5 -23.5h-235l-79 -372h-240l255 1204h442q84 0 149 -16t109.5 -52t67.5 -94t23 -141zM565 586q80 0 130.5 22.5t78.5 60.5t38.5 89.5t10.5 110.5q0 64 -36 93t-121 29h-183l-85 -405h167z " />
<glyph unicode="&#x421;" horiz-adv-x="1117" d="M1025 199q-45 -49 -97 -90.5t-113.5 -71t-135 -46t-159.5 -16.5q-222 0 -332.5 109.5t-110.5 345.5q0 42 4.5 93.5t16 109t30.5 117.5t47 119q35 72 85 137.5t117.5 115t153 78.5t192.5 29q88 0 156.5 -16.5t121.5 -47t91 -73.5t64 -96l-212 -130q-19 41 -41 68.5t-49 45 t-61.5 25t-79.5 7.5q-57 0 -103 -16t-84 -45.5t-66.5 -70t-49.5 -87.5q-23 -52 -37.5 -102.5t-24 -96.5t-13.5 -87.5t-4 -73.5q0 -68 16.5 -114.5t43.5 -74t64 -40t77 -12.5q51 0 93.5 8.5t81 27t74.5 48t74 71.5z" />
<glyph unicode="&#x422;" horiz-adv-x="1026" d="M745 980l-207 -980h-240l207 980h-364l48 224h967l-48 -224h-363z" />
<glyph unicode="&#x423;" horiz-adv-x="1076" d="M595 617l367 587h267l-643 -983q-52 -79 -95.5 -127.5t-85.5 -75t-88 -35t-101 -8.5q-29 0 -60 4t-61.5 11t-60.5 16.5t-56 20.5l111 191q16 -10 35.5 -18t39 -13.5t36.5 -8.5t30 -3q21 0 40 6t38 23t41 47t52 77l31 48l-235 828h247z" />
<glyph unicode="&#x424;" horiz-adv-x="1320" d="M445 -39l34 163q-106 12 -180.5 41.5t-122 77.5t-69.5 115.5t-22 154.5q0 27 5 65t15 80t26.5 86.5t39.5 85.5q66 115 190 177t323 78l34 159h224l-34 -159q107 -11 183 -40t123.5 -76.5t69.5 -113.5t22 -151q0 -32 -5.5 -75t-18 -90t-31 -94t-45.5 -88 q-68 -106 -191.5 -161t-310.5 -72l-34 -163h-225zM643 889q-87 -7 -148 -38t-101 -99q-28 -48 -43.5 -110.5t-15.5 -122.5q0 -45 10 -80t32 -60t58 -39.5t87 -18.5zM746 321q77 5 137 33.5t100 87.5q34 51 52.5 118t18.5 135q0 87 -43.5 135.5t-143.5 58.5z" />
<glyph unicode="&#x425;" horiz-adv-x="1096" d="M-70 0l526 627l-253 577h258l165 -398l326 398h279l-513 -598l256 -606h-256l-171 428l-338 -428h-279z" />
<glyph unicode="&#x426;" horiz-adv-x="1205" d="M32 0l255 1204h240l-208 -980h434l209 980h240l-208 -980h140l-97 -452h-241l51 228h-815z" />
<glyph unicode="&#x427;" horiz-adv-x="1097" d="M233 1204h241l-66 -310q-10 -48 -16 -84.5t-6 -64.5q0 -63 31 -89.5t105 -26.5q65 0 130.5 10.5t122.5 25.5l114 539h240l-254 -1204h-241l95 447q-78 -20 -151 -27.5t-138 -7.5q-159 0 -230 68t-71 199q0 70 21 169z" />
<glyph unicode="&#x428;" horiz-adv-x="1594" d="M1176 224l208 980h241l-255 -1204h-1338l255 1204h240l-208 -980h308l209 980h238l-208 -980h310z" />
<glyph unicode="&#x429;" horiz-adv-x="1625" d="M32 0l255 1204h240l-208 -980h308l209 980h238l-208 -980h310l208 980h241l-209 -983h138l-97 -449h-242l50 228h-1233z" />
<glyph unicode="&#x42a;" horiz-adv-x="1331" d="M189 1204h593l-90 -427h181q102 0 176 -17t121.5 -53t70 -92t22.5 -136q0 -25 -4 -54t-11 -58t-15.5 -56t-17.5 -49q-30 -72 -76.5 -122t-111.5 -81t-149.5 -45t-191.5 -14h-399l210 1000h-351zM989 349q8 22 13.5 47t5.5 53q0 29 -8 51t-27 36.5t-50.5 21.5t-77.5 7 h-199l-74 -349h169q95 0 157.5 31t90.5 102z" />
<glyph unicode="&#x42b;" horiz-adv-x="1545" d="M32 0l255 1204h240l-90 -427h182q101 0 175 -17t121.5 -53t70 -92t22.5 -136q0 -25 -4 -54t-10.5 -58t-15 -56t-18.5 -49q-30 -72 -76.5 -122t-111.5 -81t-149 -45t-191 -14h-400zM734 349q8 22 13.5 47t5.5 53q0 29 -8 51t-27 36.5t-50.5 21.5t-77.5 7h-198l-74 -349 h168q96 0 158 31t90 102zM1081 0l255 1204h240l-254 -1204h-241z" />
<glyph unicode="&#x42c;" horiz-adv-x="1076" d="M32 0l255 1204h240l-90 -427h182q101 0 175 -17t121.5 -53t70 -92t22.5 -136q0 -25 -4 -54t-10.5 -58t-15 -56t-18.5 -49q-30 -72 -76.5 -122t-111.5 -81t-149 -45t-191 -14h-400zM734 349q8 22 13.5 47t5.5 53q0 29 -8 51t-27 36.5t-50.5 21.5t-77.5 7h-198l-74 -349 h168q96 0 158 31t90 102z" />
<glyph unicode="&#x42d;" horiz-adv-x="1083" d="M119 1005q45 50 96.5 91.5t114 71t135.5 45.5t159 16q222 0 332.5 -109.5t110.5 -344.5q0 -42 -4.5 -93.5t-16 -109t-30.5 -118.5t-47 -119q-35 -72 -85 -137.5t-117.5 -115t-153.5 -78.5t-193 -29q-88 0 -156 16.5t-121 47.5t-91 74t-64 96l211 129q19 -40 41 -68 t49.5 -45.5t61.5 -25t81 -7.5q55 0 101.5 16t84.5 45.5t66.5 70t49.5 88.5q19 45 32 88h-492l47 218h490q2 15 2 28.5v25.5q0 68 -16.5 114t-44 74t-64 40t-77.5 12q-51 0 -93 -8.5t-80.5 -27t-74.5 -48t-74 -71.5z" />
<glyph unicode="&#x42e;" horiz-adv-x="1651" d="M1014 -25q-120 0 -200.5 32t-130.5 89.5t-71.5 136t-21.5 170.5q0 48 5 97h-217l-106 -500h-240l255 1204h240l-107 -504h211q9 33 20 72.5t26 72.5q34 80 81.5 150t112 122t147 82t186.5 30q101 0 181 -28t135.5 -85.5t85.5 -145t30 -205.5q0 -90 -16.5 -174t-40.5 -156 q-34 -107 -82.5 -192.5t-117 -145t-158.5 -91t-207 -31.5zM830 422q0 -66 10.5 -112.5t33 -76.5t59 -44t88.5 -14q63 0 113.5 26.5t90 70.5t68.5 100.5t47 115.5q22 71 33 142t11 135q0 130 -44.5 197.5t-149.5 67.5q-54 0 -98 -18t-79 -52.5t-64 -83t-53 -108.5 q-16 -42 -29 -86.5t-21 -89.5t-12 -88t-4 -82z" />
<glyph unicode="&#x42f;" horiz-adv-x="1093" d="M-63 0l420 492q-39 8 -72.5 25.5t-59.5 47t-40.5 73.5t-14.5 107q0 23 3.5 51t10 58t15.5 59.5t20 57.5q24 56 62 99.5t94.5 73.5t130.5 45t171 15h449l-255 -1204h-240l96 456h-121l-380 -456h-289zM772 670l69 321h-187q-81 0 -129.5 -18t-75.5 -66q-7 -13 -13 -30 t-10.5 -35t-6.5 -36t-2 -33q0 -27 9 -47t30 -32.5t55 -18t84 -5.5h177z" />
<glyph unicode="&#x430;" horiz-adv-x="970" d="M556 0l20 95q-73 -55 -147 -88.5t-133 -33.5q-145 0 -210.5 62.5t-65.5 187.5q0 80 36 141t98 104t143 67.5t172 32.5l194 18l7 41q2 11 3.5 20.5t1.5 18.5q0 53 -40.5 73.5t-114.5 20.5q-82 0 -134.5 -27t-84.5 -67l-148 113q24 32 57.5 61t79 51.5t105.5 35t139 12.5 q99 0 167.5 -15.5t111 -44.5t61.5 -71.5t19 -98.5q0 -30 -3.5 -65t-10.5 -68l-122 -576h-201zM627 424l-114 -11q-56 -5 -103 -16.5t-82 -31.5t-54 -50t-19 -72q0 -28 7.5 -45.5t21 -28t32.5 -14.5t42 -4q21 0 47.5 6.5t56.5 19.5t62.5 31t65.5 42z" />
<glyph unicode="&#x431;" horiz-adv-x="1060" d="M392 796q67 46 142.5 68t147.5 22q79 0 139 -19t100.5 -58t61 -99.5t20.5 -144.5q0 -33 -6.5 -76.5t-20 -91t-33 -96t-45.5 -90.5q-71 -120 -183 -179t-259 -59q-190 0 -278.5 101t-88.5 300q0 30 5 76.5t15 102t25.5 117.5t35.5 121q30 93 66 166t85.5 128.5t116.5 96 t160.5 69t216.5 45.5t285 26l-39 -183q-120 -11 -211 -21.5t-159.5 -27t-117 -40t-82.5 -58t-57.5 -83t-41.5 -113.5zM349 602q-16 -52 -25 -111.5t-9 -139.5q0 -100 41.5 -150t112.5 -50q83 0 137 37.5t91 100.5q33 57 54 126.5t21 142.5q0 78 -38.5 114.5t-118.5 36.5 q-54 0 -102 -17t-85 -37q-43 -23 -79 -53z" />
<glyph unicode="&#x432;" horiz-adv-x="987" d="M718 495q36 -9 67 -23t53 -37t34 -55t12 -76q0 -66 -29 -122t-82.5 -96.5t-129.5 -63t-169 -22.5h-445l192 913h390q75 0 131.5 -10t94 -33t57 -60.5t19.5 -93.5q0 -70 -46 -127t-149 -94zM513 558q87 0 128 29t41 81q0 25 -9.5 41.5t-25.5 26.5t-36 13.5t-41 3.5h-165 l-41 -195h149zM442 160q50 0 89.5 8.5t67 26.5t42.5 45t15 64q0 29 -11.5 47.5t-33 29.5t-53.5 14.5t-73 3.5h-155l-50 -239h162z" />
<glyph unicode="&#x433;" horiz-adv-x="892" d="M32 223q0 17 3 40.5t11 49t21.5 52t34.5 48.5q28 32 65 54.5t81.5 39.5t96 30t107.5 26q32 8 55 14.5t40.5 13.5t29.5 14t22 15q11 10 19 27.5t8 32.5q0 36 -30.5 55.5t-92.5 19.5q-66 0 -112 -22.5t-87 -69.5l-120 139q57 68 142.5 102.5t188.5 34.5q91 0 154.5 -18 t103.5 -50.5t58.5 -79t18.5 -103.5q0 -10 -1.5 -28t-7 -39.5t-14.5 -44t-23 -42.5q-46 -65 -135 -104t-211 -66q-60 -14 -96.5 -26t-62.5 -28q-24 -15 -34 -34.5t-10 -38.5q0 -45 34.5 -62.5t98.5 -17.5q61 0 114 19t105 74l126 -138q-62 -69 -154 -104t-208 -35 q-75 0 -137.5 13t-107 42t-69.5 77t-25 118z" />
<glyph unicode="&#x434;" horiz-adv-x="1004" d="M736 853q0 74 -13 122t-36 75.5t-54.5 38.5t-67.5 11q-32 0 -57.5 -6t-47.5 -16t-42 -23.5t-39 -31.5l-131 158q35 27 71 48.5t74.5 36.5t81.5 22t91 7q87 0 159 -26t123 -81t79 -141.5t28 -206.5q0 -149 -21.5 -268t-49.5 -205q-28 -87 -69.5 -159t-99 -124.5 t-134 -81.5t-173.5 -29q-94 0 -160 24.5t-108 70t-61.5 109.5t-19.5 144q0 45 8.5 102t28 118t50.5 121t78 111q62 67 148 103.5t189 36.5q50 0 96.5 -16.5t78.5 -43.5zM291 321q0 -73 30.5 -112t100.5 -39q83 0 141 56.5t95 151.5q22 59 41 134t28 167q-35 17 -71 27 t-80 10q-65 0 -109 -23t-76 -62q-23 -28 -41.5 -65t-32 -78.5t-20 -84.5t-6.5 -82z" />
<glyph unicode="&#x435;" horiz-adv-x="974" d="M294 398q-4 -20 -5.5 -40t-1.5 -35q0 -81 41 -117t119 -36q79 0 134 22.5t101 64.5l125 -143q-34 -33 -70 -59t-80.5 -44.5t-100.5 -28t-128 -9.5q-101 0 -171.5 27t-115 74t-64.5 110.5t-20 136.5q0 116 35 227t105 211q29 40 67 73t85.5 57t104 37t122.5 13 q91 0 157.5 -21t109.5 -61.5t63.5 -99.5t20.5 -135q0 -19 -3.5 -50t-9.5 -59l-23 -115h-597zM700 552q5 22 7 40t2 35q0 67 -31.5 100t-111.5 33q-60 0 -101 -20.5t-71 -59.5q-20 -25 -37 -59t-27 -69h370z" />
<glyph unicode="&#x436;" horiz-adv-x="1724" d="M1605 0q-18 -6 -35 -11t-34.5 -8.5t-37.5 -5.5t-44 -2q-87 0 -146.5 24.5t-96 72t-52 117.5t-15.5 160q0 44 5 91.5t18 95.5q-120 -111 -208.5 -242.5t-138.5 -291.5h-164l97 465q-47 -60 -98.5 -117t-104 -108.5t-104.5 -97t-99 -81.5q-49 -39 -111 -63.5t-139 -24.5 q-50 0 -85 6.5t-65 18.5l70 189q17 -7 40 -12t45 -5q36 0 68 17.5t58 47.5t46 70t33.5 84.5t20.5 90.5t7 90q0 40 -5 72t-17.5 54.5t-33.5 34.5t-55 12q-25 0 -48 -5t-46 -12l-35 185l63 18t85 10q87 0 146 -24.5t95.5 -72t52 -117t15.5 -160.5q0 -80 -20 -173 q58 56 108.5 114t93.5 122t79 134.5t64 150.5h164l-93 -432q52 64 108.5 123t114 110.5t113.5 94.5t107 73q44 25 95.5 41t113.5 16q50 0 84.5 -6t65.5 -19l-72 -188q-15 7 -38.5 12t-44.5 5q-56 0 -99 -38.5t-73 -97.5t-45.5 -129.5t-15.5 -135.5q0 -40 4.5 -72t16.5 -54.5 t33.5 -34t55.5 -11.5q25 0 48 4.5t46 12.5z" />
<glyph unicode="&#x437;" horiz-adv-x="858" d="M221 545h191q30 0 62.5 5t59 17.5t44 35t17.5 56.5q0 50 -35.5 73t-101.5 23q-68 0 -117.5 -22.5t-87.5 -62.5l-132 112q65 79 162.5 118t213.5 39q168 0 246 -64t78 -185q0 -78 -46 -137.5t-130 -94.5q48 -18 78 -60.5t30 -96.5q0 -81 -36.5 -142.5t-97 -102.5t-140 -62 t-164.5 -21q-145 0 -228 42.5t-116 114.5l191 120q27 -50 65 -71t96 -21q32 0 67.5 7t65 24t49 44.5t19.5 69.5t-32 62t-109 20h-198z" />
<glyph unicode="&#x438;" d="M435 913l-107 -503q-10 -47 -15 -83t-5 -63q0 -53 19.5 -73t58.5 -20q34 0 69.5 11t71 29.5t70 42.5t66.5 49l128 610h219l-192 -913h-219l25 117q-34 -29 -71.5 -55t-77 -45.5t-81 -31.5t-83.5 -12q-67 0 -111.5 18t-71.5 48t-38.5 69.5t-11.5 82.5q0 40 5.5 80t11.5 66 l121 576h219z" />
<glyph unicode="&#x439;" d="M435 913l-107 -503q-10 -47 -15 -83t-5 -63q0 -53 19.5 -73t58.5 -20q34 0 69.5 11t71 29.5t70 42.5t66.5 49l128 610h219l-192 -913h-219l25 117q-34 -29 -71.5 -55t-77 -45.5t-81 -31.5t-83.5 -12q-67 0 -111.5 18t-71.5 48t-38.5 69.5t-11.5 82.5q0 40 5.5 80t11.5 66 l121 576h219zM962 1275q-25 -121 -108.5 -181t-237.5 -60q-76 0 -129.5 15.5t-87.5 46.5t-49 75.5t-15 103.5h204q0 -72 22.5 -100.5t69.5 -28.5q18 0 37 7t35.5 22t30 40t21.5 60h207z" />
<glyph unicode="&#x43a;" horiz-adv-x="945" d="M425 913l-76 -362h81q35 0 67.5 14t67.5 54t77 110.5t98 183.5h234q-52 -110 -92 -184.5t-77 -124.5t-74.5 -81t-85.5 -54q50 -27 79.5 -66.5t46.5 -96.5t26 -132.5t17 -173.5h-217q-11 95 -19.5 166.5t-25.5 119.5t-47 72.5t-81 24.5h-111l-80 -383h-217l193 913h216z " />
<glyph unicode="&#x43b;" horiz-adv-x="1042" d="M545 746l-20 -88q-30 -139 -60 -242.5t-63.5 -178t-70.5 -123.5t-81.5 -78t-96.5 -40.5t-116 -11.5q-14 0 -31 2.5t-33.5 5.5t-30 7t-22.5 8l71 163q12 -5 25.5 -6.5t20.5 -1.5q45 0 82.5 27t72.5 91.5t68 172.5t68 270l39 190h660l-194 -913h-216l158 746h-230z" />
<glyph unicode="&#x43c;" horiz-adv-x="1186" d="M980 0h-194l137 651l-314 -423h-119l-143 423l-136 -651h-195l193 913h233l148 -442l331 442h252z" />
<glyph unicode="&#x43d;" horiz-adv-x="1024" d="M818 0h-221l80 385h-362l-80 -385h-219l193 913h219l-77 -361h362l76 361h221z" />
<glyph unicode="&#x43e;" horiz-adv-x="1013" d="M59 331q0 47 8.5 106.5t28 122.5t51.5 124.5t81 111.5q65 69 152 106t212 37q82 0 149.5 -23t115 -69.5t73 -117t25.5 -164.5q0 -43 -9.5 -101.5t-31 -122t-56.5 -126t-86 -113.5q-37 -37 -74.5 -61t-80 -39.5t-91 -22t-108.5 -6.5q-97 0 -165.5 25t-111.5 72t-62.5 113 t-19.5 148zM291 328q0 -37 7.5 -67t25.5 -50t47 -30.5t71 -10.5q57 0 100 22.5t77 60.5q23 28 43 67t34 81.5t22 83.5t8 74q0 89 -40 136.5t-121 47.5q-55 0 -98.5 -24.5t-75.5 -64.5q-23 -28 -41.5 -67.5t-32 -83t-20 -88.5t-6.5 -87z" />
<glyph unicode="&#x43f;" d="M604 0l107 503q9 47 15.5 85t6.5 75q0 42 -20.5 60t-58.5 18q-34 0 -70 -11t-71.5 -29.5t-70 -42.5t-66.5 -49l-128 -609h-219l192 913h219l-25 -119q34 30 71.5 56.5t78 46t83.5 31t88 11.5q64 0 107 -18t69 -48t37 -69.5t11 -82.5q0 -40 -5 -80t-11 -65l-121 -576h-219 z" />
<glyph unicode="&#x440;" d="M175 -344h-218l264 1257h201l-17 -90q70 54 143 85t144 31q69 0 123 -18.5t91 -57.5t56 -101t19 -149q0 -54 -10.5 -123t-34 -140.5t-61.5 -138.5t-92 -120.5t-126 -85.5t-164 -32q-72 0 -131.5 24.5t-99.5 70.5zM301 253q14 -15 33 -30t41.5 -26.5t48 -18.5t52.5 -7 q46 0 84 19.5t68 52t52 74t37 87.5t22 91.5t7 85.5q0 83 -30 121.5t-103 38.5q-27 0 -57.5 -7t-60.5 -18.5t-58 -28t-52 -35.5z" />
<glyph unicode="&#x441;" horiz-adv-x="903" d="M793 130q-34 -37 -76 -66t-90 -49.5t-100 -31t-107 -10.5q-98 0 -167 24.5t-112 72t-62.5 117.5t-19.5 160q0 51 11.5 114.5t36 129t64.5 128t97.5 111.5t134 79t175.5 30q65 0 116.5 -10t93 -30t73 -50t55.5 -70l-185 -116q-25 41 -62.5 60.5t-102.5 19.5q-51 0 -91 -20 t-71 -53t-52 -75.5t-35 -87t-20 -88t-6 -77.5q0 -40 6.5 -72t23.5 -54.5t47 -34t76 -11.5q59 0 110 23.5t92 66.5z" />
<glyph unicode="&#x442;" horiz-adv-x="1526" d="M1092 0l114 538q9 44 13.5 76t4.5 54q0 39 -20 56t-55 17q-25 0 -54.5 -10.5t-61 -28t-63 -42t-62.5 -51.5l-128 -609h-221l114 538q10 44 14.5 75t4.5 43q0 20 -3 35.5t-10.5 27t-22.5 17t-39 5.5q-28 0 -59 -11.5t-63 -30.5t-62.5 -42.5t-56.5 -47.5l-128 -609h-219 l192 913h219l-25 -119q76 69 151 107t150 38q97 0 150.5 -40t58.5 -124q47 39 88.5 69.5t80 51.5t74.5 32t72 11q62 0 103.5 -15.5t66.5 -43t35.5 -64.5t10.5 -82q0 -32 -4 -68t-14 -76l-125 -590h-221z" />
<glyph unicode="&#x443;" horiz-adv-x="924" d="M-102 -123q36 -14 70.5 -19.5t61.5 -5.5q25 0 48.5 8.5t48 28.5t50 53t54.5 81l33 54l-145 836h219l90 -588l337 588h235l-592 -976q-44 -74 -86 -127t-88.5 -87t-101.5 -50.5t-127 -16.5q-42 0 -89 9.5t-94 23.5z" />
<glyph unicode="&#x444;" horiz-adv-x="1479" d="M1202 1108q-27 8 -50.5 13t-46.5 5q-33 0 -57.5 -6.5t-42 -22t-28.5 -39t-18 -57.5l-36 -160q64 53 121.5 75.5t120.5 22.5t111 -18.5t80.5 -57.5t49 -101t16.5 -149q0 -54 -10.5 -123t-33.5 -140.5t-59.5 -138.5t-87.5 -120.5t-118 -85.5t-153 -32q-67 0 -113.5 28 t-83.5 74l-20 -98q-16 -76 -43 -135.5t-71 -100.5t-108 -63t-154 -22q-63 0 -110.5 11t-85.5 25l73 189q42 -14 78 -21.5t69 -7.5q65 0 99.5 28.5t47.5 96.5l18 98q-72 -58 -131 -80t-112 -22q-62 0 -110 18.5t-80.5 60t-49 107t-16.5 159.5q0 61 13 131t38 139.5t62 132.5 t86 111.5t109.5 77.5t133.5 29t124 -24.5t95 -73.5l34 160q15 76 41.5 135.5t70 101t107 63t157.5 21.5q38 0 68.5 -6t58.5 -14zM679 659q-25 33 -61.5 57.5t-83.5 24.5t-84.5 -21.5t-66 -57.5t-49 -80.5t-33.5 -90t-19 -87.5t-6 -73q0 -83 28 -121.5t92 -38.5q23 0 49.5 7 t53 19t51 28.5t45.5 34.5zM802 260q11 -16 26.5 -32t33.5 -28.5t38 -20.5t44 -8q41 0 75.5 19.5t63.5 52t51 74t37.5 87.5t23 91.5t7.5 85.5q0 84 -28 122t-91 38q-47 0 -101.5 -22t-95.5 -60z" />
<glyph unicode="&#x445;" horiz-adv-x="919" d="M554 0l-129 294l-229 -294h-264l403 476l-207 437h239l125 -284l234 284h263l-406 -464l216 -449h-245z" />
<glyph unicode="&#x446;" horiz-adv-x="1060" d="M651 0v139q-93 -79 -174 -122.5t-166 -43.5q-67 0 -111.5 18t-71.5 48t-38.5 69.5t-11.5 82.5q0 40 5.5 80t11.5 66l121 576h219l-107 -503q-10 -47 -15 -83t-5 -63q0 -53 19.5 -73t58.5 -20q34 0 69.5 11t71 29.5t70 42.5t66.5 49l128 610h219l-158 -749h141l-85 -392 h-199l50 228h-108z" />
<glyph unicode="&#x447;" horiz-adv-x="981" d="M173 913h219l-55 -261q-7 -33 -10.5 -58t-3.5 -45q0 -25 6.5 -42t21 -27t37 -14.5t54.5 -4.5q19 0 45.5 1.5t56 4t59 5.5t55.5 7l90 434h218l-193 -913h-217l68 326q-32 -6 -66 -11.5t-66.5 -9.5t-61.5 -6.5t-52 -2.5q-76 0 -129.5 12.5t-87.5 39t-49 67t-15 97.5 q0 17 3.5 47t13.5 77z" />
<glyph unicode="&#x448;" horiz-adv-x="1526" d="M437 913l-114 -539q-10 -44 -14.5 -75.5t-4.5 -54.5q0 -39 20.5 -56t54.5 -17q26 0 55.5 10.5t60.5 28t63 41.5t62 52l128 610h221l-114 -539q-9 -44 -13 -74.5t-4 -42.5q0 -20 2 -36.5t10 -27t22.5 -16.5t40.5 -6q27 0 58 11.5t63 30t62.5 42t56.5 48.5l129 610h218 l-192 -913h-220l26 117q-76 -67 -151 -105.5t-150 -38.5q-98 0 -151.5 40.5t-57.5 123.5q-47 -39 -89 -69.5t-80 -51.5t-74 -32t-72 -11q-63 0 -104 15.5t-66 43t-35.5 65t-10.5 81.5q0 33 4 68.5t13 76.5l126 590h221z" />
<glyph unicode="&#x449;" horiz-adv-x="1550" d="M437 913l-114 -539q-10 -44 -14.5 -75.5t-4.5 -54.5q0 -39 20.5 -56t54.5 -17q26 0 55.5 10.5t60.5 28t63 41.5t62 52l128 610h221l-114 -539q-9 -44 -13 -74.5t-4 -42.5q0 -20 2 -36.5t10 -27t22.5 -16.5t40.5 -6q27 0 58 11.5t63 30t62.5 42t56.5 48.5l129 610h218 l-158 -749h140l-83 -392h-200l50 228h-108v141q-85 -81 -169 -124.5t-159 -43.5q-98 0 -151.5 40.5t-57.5 123.5q-47 -39 -89 -69.5t-80 -51.5t-74 -32t-72 -11q-63 0 -104 15.5t-66 43t-35.5 65t-10.5 81.5q0 33 4 68.5t13 76.5l126 590h221z" />
<glyph unicode="&#x44a;" horiz-adv-x="1145" d="M556 590h175q165 0 250 -57t85 -184q0 -92 -39.5 -158.5t-104.5 -108.5t-148 -62t-170 -20h-390l158 750h-295l33 163h514zM615 164q37 0 75.5 7.5t70.5 26.5t52 50t20 78q0 58 -41 78.5t-122 20.5h-150l-55 -261h150z" />
<glyph unicode="&#x44b;" horiz-adv-x="1368" d="M371 590h174q166 0 250.5 -57t84.5 -184q0 -92 -39.5 -158.5t-104 -108.5t-148 -62t-170.5 -20h-389l192 913h217zM430 164q36 0 75 7.5t70.5 26.5t52 50t20.5 78q0 58 -41 78.5t-122 20.5h-150l-55 -261h150zM929 0l192 913h219l-192 -913h-219z" />
<glyph unicode="&#x44c;" horiz-adv-x="960" d="M371 590h174q166 0 250.5 -57t84.5 -184q0 -92 -39.5 -158.5t-104 -108.5t-148 -62t-170.5 -20h-389l192 913h217zM430 164q36 0 75 7.5t70.5 26.5t52 50t20.5 78q0 58 -41 78.5t-122 20.5h-150l-55 -261h150z" />
<glyph unicode="&#x44d;" horiz-adv-x="903" d="M110 782q68 75 165.5 116t207.5 41q98 0 167 -24.5t112.5 -72t63 -117t19.5 -160.5q0 -51 -11.5 -114t-36 -129t-64.5 -129t-98 -111.5t-134.5 -78.5t-174.5 -30q-65 0 -117 10t-93.5 30.5t-73 50.5t-54.5 70l185 116q24 -42 61.5 -61t102.5 -19q48 0 87 17.5t69 47 t51.5 69t36.5 81.5h-406l36 160h400q1 7 1.5 12.5t0.5 12.5q0 40 -6.5 72t-23.5 54.5t-47.5 34.5t-76.5 12q-59 0 -110 -24t-92 -67z" />
<glyph unicode="&#x44e;" horiz-adv-x="1458" d="M513 331q0 10 1 20t1 20h-202l-78 -371h-219l193 913h219l-81 -379h195q13 48 34 97t51 94t69 84t90 68t113 45.5t138 16.5q181 0 272.5 -99.5t91.5 -285.5q0 -40 -9.5 -98.5t-33 -123t-63 -129t-98 -115.5t-139.5 -83t-187 -32q-98 0 -166.5 24.5t-110.5 70.5 t-61.5 112.5t-19.5 150.5zM736 328q0 -37 7 -69.5t24.5 -56.5t47 -37.5t74.5 -13.5q48 0 87 20.5t70.5 54t55 76.5t38.5 88.5t23 89.5t8 79q0 45 -8.5 81.5t-27.5 63.5t-48 41.5t-70 14.5q-70 0 -122.5 -40.5t-87.5 -103.5t-53 -139.5t-18 -148.5z" />
<glyph unicode="&#x44f;" horiz-adv-x="955" d="M593 358h-93l-286 -358h-257l312 376q-75 22 -113.5 73t-38.5 136q0 82 31 144t84 103t124.5 61t151.5 20h420l-192 -913h-217zM520 748q-39 0 -71.5 -7.5t-56 -24.5t-37 -44t-13.5 -65q0 -48 33 -66.5t97 -18.5h157l48 226h-157z" />
<glyph unicode="&#x450;" horiz-adv-x="974" d="M294 398q-4 -20 -5.5 -40t-1.5 -35q0 -81 41 -117t119 -36q79 0 134 22.5t101 64.5l125 -143q-34 -33 -70 -59t-80.5 -44.5t-100.5 -28t-128 -9.5q-101 0 -171.5 27t-115 74t-64.5 110.5t-20 136.5q0 116 35 227t105 211q29 40 67 73t85.5 57t104 37t122.5 13 q91 0 157.5 -21t109.5 -61.5t63.5 -99.5t20.5 -135q0 -19 -3.5 -50t-9.5 -59l-23 -115h-597zM700 552q5 22 7 40t2 35q0 67 -31.5 100t-111.5 33q-60 0 -101 -20.5t-71 -59.5q-20 -25 -37 -59t-27 -69h370zM600 1051l-198 314h261l102 -314h-165z" />
<glyph unicode="&#x451;" horiz-adv-x="974" d="M294 398q-4 -20 -5.5 -40t-1.5 -35q0 -81 41 -117t119 -36q79 0 134 22.5t101 64.5l125 -143q-34 -33 -70 -59t-80.5 -44.5t-100.5 -28t-128 -9.5q-101 0 -171.5 27t-115 74t-64.5 110.5t-20 136.5q0 116 35 227t105 211q29 40 67 73t85.5 57t104 37t122.5 13 q91 0 157.5 -21t109.5 -61.5t63.5 -99.5t20.5 -135q0 -19 -3.5 -50t-9.5 -59l-23 -115h-597zM700 552q5 22 7 40t2 35q0 67 -31.5 100t-111.5 33q-60 0 -101 -20.5t-71 -59.5q-20 -25 -37 -59t-27 -69h370zM534 1167q0 -19 -4 -39t-13 -40q-19 -36 -51 -50.5t-81 -14.5 q-57 0 -78 18.5t-21 54.5q0 13 3 33t12 42q16 40 47.5 56.5t83.5 16.5q55 0 78.5 -19t23.5 -58zM905 1167q0 -19 -4 -39t-14 -40q-19 -36 -50.5 -50.5t-81.5 -14.5q-56 0 -77 18.5t-21 54.5q0 13 3 33t12 42q15 40 47 56.5t84 16.5q55 0 78.5 -19t23.5 -58z" />
<glyph unicode="&#x452;" horiz-adv-x="1056" d="M248 0h-219l221 1042h-124l34 160h124l19 93h219l-19 -93h230l-34 -160h-232l-52 -248q87 76 165.5 110.5t152.5 34.5q126 0 189.5 -69.5t63.5 -217.5q0 -102 -21.5 -218t-57.5 -227q-50 -153 -110 -254t-130.5 -162.5t-151 -91t-171.5 -39.5v178q58 16 106.5 43t89.5 73 t75.5 116t64.5 173q16 50 28.5 105t22 106t14.5 95t5 75q0 64 -26 90.5t-81 26.5q-24 0 -54 -8.5t-64.5 -25.5t-72.5 -42t-76 -56z" />
<glyph unicode="&#x453;" horiz-adv-x="892" d="M32 223q0 17 3 40.5t11 49t21.5 52t34.5 48.5q28 32 65 54.5t81.5 39.5t96 30t107.5 26q32 8 55 14.5t40.5 13.5t29.5 14t22 15q11 10 19 27.5t8 32.5q0 36 -30.5 55.5t-92.5 19.5q-66 0 -112 -22.5t-87 -69.5l-120 139q57 68 142.5 102.5t188.5 34.5q91 0 154.5 -18 t103.5 -50.5t58.5 -79t18.5 -103.5q0 -10 -1.5 -28t-7 -39.5t-14.5 -44t-23 -42.5q-46 -65 -135 -104t-211 -66q-60 -14 -96.5 -26t-62.5 -28q-24 -15 -34 -34.5t-10 -38.5q0 -45 34.5 -62.5t98.5 -17.5q61 0 114 19t105 74l126 -138q-62 -69 -154 -104t-208 -35 q-75 0 -137.5 13t-107 42t-69.5 77t-25 118zM594 1051h-187l212 314h284z" />
</font>
</defs>
</svg>
