<?xml version="1.0" standalone="no"?>
<!DOCTYPE svg PUBLIC "-//W3C//DTD SVG 1.1//EN" "http://www.w3.org/Graphics/SVG/1.1/DTD/svg11.dtd" >
<svg xmlns="http://www.w3.org/2000/svg">
<metadata></metadata>
<defs>
<font id="glagolitsaregular" horiz-adv-x="1169" >
<font-face units-per-em="2048" ascent="1536" descent="-512" />
<missing-glyph horiz-adv-x="491" />
<glyph horiz-adv-x="2048" />
<glyph horiz-adv-x="2048" />
<glyph unicode="&#xd;" horiz-adv-x="491" />
<glyph unicode=" "  horiz-adv-x="491" />
<glyph unicode="&#x09;" horiz-adv-x="491" />
<glyph unicode="&#xa0;" horiz-adv-x="491" />
<glyph unicode="3" horiz-adv-x="1566" d="M92 -23q39 113 57.5 257.5t18.5 295t-18.5 295t-57.5 256.5q63 -12 143 -23t161 -14.5t159 4t139 33.5q-51 33 -109.5 57.5t-115.5 51.5t-108.5 58.5t-87 79.5t-50 117t1.5 169q76 -25 179.5 -29t216 -1t227.5 7t215 -8q0 -78 -46 -104.5t-122 -26.5v-403h155.5t158.5 3 t153 10t135 19q-27 -59 -45 -145t-29.5 -185.5t-13.5 -205t6 -204.5t28.5 -185t53.5 -144q-150 -27 -321.5 -29.5t-354 0.5t-368 5t-361.5 -11zM351 517q1 -99 10 -194.5t36 -183.5h267q25 88 27.5 183.5t-0.5 194.5t-6 200.5t9 202.5h-336q0 -100 -4 -202t-3 -201z M461 1452q0 -100 55 -153.5t178 -53.5v176q-12 25 -35.5 32t-55.5 7t-68.5 -4t-73.5 -4zM887 533.5q0 -93.5 9 -183.5t34 -176h268v746h-303q0 -100 -4 -196.5t-4 -190z" />
<glyph unicode="A" horiz-adv-x="1671" d="M63 -37q14 129 29 279q14 148 18 298l2 96q0 100 -6 196q-10 142 -43 251h607q22 33 24 97q0 13 1 27q0 54 -5 118q-6 80 -16 168t-12 170q0 14 -1 27q1 66 11 122q12 68 51 106t109 41h8q68 0 176 -46q9 -69 9 -130q0 -42 -4 -79q-11 -92 -27 -180q-18 -88 -28 -182 q-4 -33 -3 -69q0 -65 12 -140q49 -33 119 -37q40 -2 83 -2q33 0 67 1q81 3 168 5h17q78 0 152 -17q0 -129 -5 -278.5t-5 -300t11 -290.5t44 -251h-352q18 111 32.5 228.5t18.5 234.5q1 31 1 62q0 86 -8 168q-11 112 -44 214h-258q-35 -102 -44 -214q-6 -78 -6 -158 q0 -36 1 -72q4 -117 18 -234.5t31 -228.5h-346q0 129 18 231q17 102 28 202q7 65 7 135q0 37 -2 77q-6 112 -51 262h-221q-65 -68 -87 -182q-18 -97 -19 -204q0 -20 1 -40q4 -129 24.5 -257t39.5 -224h-345z" />
<glyph unicode="B" horiz-adv-x="1624" d="M59 723q39 29 59 81t28 118q6 52 6 108v31q-2 74 -11.5 146.5t-22 138t-22.5 114.5h355q0 -43 -11.5 -116.5t-18.5 -153.5q-5 -56 -5 -109q0 -23 1 -45q3 -74 34 -116h194q29 8 48.5 47t30.5 91t13 112q1 17 1 34q0 42 -4 80q-5 53 -18.5 91t-33.5 48q14 29 53 38t86 9 t94.5 -5t77.5 -5q0 -43 -11 -116q-10 -74 -18 -154q-5 -55 -5 -106q1 -24 1 -48q4 -74 33 -116q28 -10 51 -10q13 0 25 3q33 9 61.5 23t61.5 24q14 4 29 5q22 0 47 -9v504h274q-10 -48 -12 -120q-1 -29 -1 -59q0 -45 2 -94q3 -81 9 -165t9 -159q2 -56 2 -103v-30 q-1 -58 -9 -89q-102 31 -237.5 41t-280.5 10t-293.5 -5t-279.5 -5q-31 -43 -41 -90q-7 -34 -6 -70v-26q4 -50 17 -98t30 -93q117 0 262 6q145 5 287 9q83 2 160 3q55 1 106 -1q123 -2 196 -17q-39 -78 -126 -130t-201.5 -87t-247.5 -55.5t-267.5 -35.5t-258 -27.5 t-220.5 -32.5q0 39 10.5 108.5t20.5 153.5t16 173q2 33 2 63q0 53 -6 101q-10 74 -38.5 125.5t-86.5 61.5z" />
<glyph unicode="C" horiz-adv-x="1576" d="M88 1245q47 80 132 131t194.5 78t235.5 29h30q111 0 225 -13q0 -162 28 -297t62.5 -265t69.5 -265t49 -297q98 227 138 513t40 611q14 14 49 11.5t70 -8t62.5 -0.5t27.5 38q23 -139 23 -300.5t-22.5 -327.5t-67.5 -325t-114 -293t-162 -231t-210 -140q-33 96 -59.5 210.5 t-51 231.5t-50 231.5t-58.5 210.5q-103 -12 -194 -12q-51 0 -98 4q-132 10 -219 62.5t-124 152.5q-20 54 -20 127q0 60 14 133zM302 1201q-32 -45 -32 -107q0 -64 33 -146q49 0 91 -13t87 -30.5t95.5 -31t113.5 -13.5q0 80 -14 139.5t-34.5 108.5t-43.5 92t-37 92 q-195 0 -259 -91z" />
<glyph unicode="D" horiz-adv-x="2643" d="M20 -6q49 152 69 352q16 156 16 319q1 45 -1 90q-6 210 -28.5 409.5t-55.5 351.5q203 -16 420 -26t444.5 -13.5t461 -5t469.5 -1.5v-534h763q-35 -100 -51 -222t-16 -249t16.5 -249t50.5 -222h-1077v1302h-313q-35 -118 -39 -274q-2 -78 -2 -160t2 -168q4 -172 7 -352 v-57q0 -150 -13 -291h-1123zM379 174h448v1122h-448v-1122zM1815 174h405v571h-405v-571z" />
<glyph unicode="E" horiz-adv-x="1097" d="M10 459q49 0 84 6t64.5 13t56.5 13.5t59 6.5q0 -131 40 -216t143 -155q90 23 145 107.5t81 202.5q25 114 25 245v10q-1 137 -20.5 267.5t-55.5 238t-83 164.5q-29 5 -54 5q-33 1 -56 -9q-40 -16 -62.5 -49t-32.5 -76t-17.5 -87t-17.5 -83t-35 -62q-30 9 -50 9 q-14 0 -22 -4q-22 -11 -38 -28q-16 -18 -38 -30q-9 -5 -23 -5q-20 0 -50 11q-19 63 -19 124q0 54 15 108q31 112 120 192t233 116q73 18 156 18q82 0 175 -17q135 -94 207 -219t94 -261q11 -68 10.5 -137.5t-10.5 -139.5q-22 -142 -75.5 -270t-132 -235.5t-168 -176 t-184.5 -90.5q-33 -8 -65 -8q-60 0 -117 27q-87 42 -161 156.5t-121 317.5z" />
<glyph unicode="F" horiz-adv-x="1505" d="M45 626v12q0 93 31 180q33 93 102.5 166t175.5 114q92 36 212 36q18 0 36 -1v278q-36 9 -67 9q-20 0 -37 -4q-45 -9 -87 -23.5t-86 -23.5q-16 -3 -33 -3q-31 0 -67 10v74q47 47 117 68.5t154 26.5q38 2 78 3q48 0 100 -4q94 -6 188 -13t184 -10q21 -1 41 -1q67 0 125 8 q4 -19 4 -34q0 -24 -10 -36q-16 -22 -48 -30q-26 -7 -58 -7h-16q-28 1 -56 1h-28q-42 -1 -77.5 -10t-56.5 -36v-209q35 4 68 4q88 1 162 -27q102 -38 173.5 -110.5t111.5 -169.5q39 -98 45 -200q1 -16 2 -31q0 -85 -26 -167q-30 -97 -98 -170q-70 -73 -178 -113 q-79 -29 -180 -29q-38 0 -80 4v-609q41 -27 83 -27h7q45 2 96 14q50 12 108 20q21 3 44 3q40 0 86 -10q-20 -68 -84 -101q-64 -34 -156 -47q-70 -10 -150 -10q-24 0 -50 1q-108 4 -211.5 13t-195 19.5t-148.5 10.5q-4 17 -4 31q1 32 23 50q32 24 85.5 34t113.5 12t103 16 q0 86 -2 155.5t-5 132t-5 124t-2 131.5q-17 -1 -34 -1q-114 0 -204 36q-104 41 -174.5 112.5t-106.5 165.5t-38 192zM274 681v-9q0 -80 33 -148q35 -72 107 -119q62 -39 155 -39q16 0 33 1v594q-35 7 -67 7q-62 0 -110 -26q-73 -39 -111 -107.5t-40 -153.5zM866 961 q13 -51 13 -129q-1 -8 -1 -18q-2 -90 -4 -182q-2 -43 -2 -84q0 -47 2 -91q4 -82 33 -125q57 27 117.5 50.5t107.5 59.5q46 38 70 96q15 36 16 88q0 32 -6 70q-29 31 -58.5 81t-69.5 96.5t-92 74.5q-34 18 -79 18q-22 0 -47 -5z" />
<glyph unicode="G" horiz-adv-x="2316" d="M52 1166v5q0 95 16 154q106 -16 233 -28.5t256 -16.5q40 -1 79 -1q88 0 175 6q125 9 231 40q-31 -139 -51 -275.5t-42.5 -265.5t-52.5 -248.5t-75 -224.5q113 29 225.5 89.5t227.5 139t229.5 169t231 176.5t235.5 161.5t240 127.5q-23 -225 -23 -452q0 -55 1 -110 q7 -284 36 -589q-100 0 -206 -1q-22 -1 -44 -1q-82 0 -160 5q-100 5 -188 21t-154.5 52t-104.5 95.5t-38 149.5q-170 -45 -305 -129t-260 -179t-253 -187.5t-282 -153.5q61 92 123 185t119 192.5t109.5 207t99.5 228.5q-47 31 -105.5 49t-120 29.5t-120 20.5t-105.5 26 q-61 45 -99 137t-57.5 194.5t-20.5 201.5zM347 947q9 -93 48 -157.5t109 -103.5t176 -53q14 45 22.5 110.5t11.5 138t4 146.5t1 135h-365q-10 -79 -10 -145q0 -38 3 -71zM1575 508q14 -61 39.5 -126t67.5 -117t104.5 -86t152.5 -34q-13 62 -13 134v27q3 87 7 167q2 36 2 68 q0 41 -3 77q-5 64 -36 95q-29 -31 -64.5 -54.5t-77.5 -47t-87 -48t-92 -55.5z" />
<glyph unicode="H" horiz-adv-x="1933" d="M0 -113q23 59 61.5 170t76.5 250t66 296t36 309q2 34 2 67q0 114 -20 218q-26 134 -95 228q53 35 115.5 54.5t129 29t136 10.5t141.5 1q-37 -125 -57.5 -279t-37.5 -313.5t-37.5 -313t-55.5 -278.5q193 106 372 220t351 229.5t343 229t349 220.5q7 -25 7 -66 q0 -21 -2 -45q-5 -74 -17.5 -176t-24.5 -222t-16 -244q-1 -33 -1 -66q0 -90 8 -180q11 -122 46 -230h-901q-35 37 -59 74t-38 81q-13 41 -13 91v8q1 55 18 127q-123 -37 -230.5 -105.5t-211 -144.5t-210 -145.5t-231.5 -104.5zM1159 380q10 -87 55.5 -148.5t126 -95.5 t203.5 -34v662q-72 0 -119 -23.5t-87 -55.5l-80 -64t-93 -48q-10 -65 -10 -123q0 -37 4 -70z" />
<glyph unicode="I" horiz-adv-x="1216" d="M37 -80q16 135 56 247t95.5 205t121 171t132.5 147q-84 51 -139 144.5t-93 205t-67.5 230.5t-64.5 219q102 51 233 65q101 10 210 10q31 0 65 -1q144 -4 293 -16.5t284 -12.5q13 -58 13 -110q0 -40 -8 -77q-18 -85 -56.5 -159t-91.5 -136.5t-100.5 -116.5t-80 -103.5 t-32.5 -94.5q0 -57 36 -106t88 -98.5t108.5 -104.5t96.5 -127t53 -164q4 -25 4 -52q0 -74 -26 -165q-121 35 -267 52.5t-298.5 17.5t-299 -17.5t-265.5 -52.5zM354 186h494q-2 131 -38 207q-36 75 -89 105q-39 21 -82 22q-15 0 -33 -3q-62 -11 -116 -55t-93 -115t-43 -161z M428 1235q6 -80 30.5 -144.5t63.5 -109.5t90 -61q37 51 71 100t60.5 105.5t43 123t16.5 152.5h-365q-12 -63 -12 -122q0 -22 2 -44z" />
<glyph unicode="J" horiz-adv-x="1849" d="M90 466q2 105 2 193v822h717q13 -55 13 -114v-9q-1 -64 -8 -125.5t-12 -118.5q-2 -22 -2 -43q0 -32 5 -62q8 -48 35.5 -82t87.5 -48q32 -4 59 -4q59 0 93 21q50 30 64 87q9 32 9 71q0 30 -5 63q-11 77 -30.5 155t-38 147.5t-18.5 114.5q131 0 231.5 16.5t185.5 27.5 q55 7 107 7q29 0 57 -2q78 -6 166 -49q12 -107 12 -204q0 -63 -5 -122q-13 -149 -64 -263t-142 -185.5t-223 -93.5q-14 -45 -19 -105.5t-7 -128t-4 -137.5t-9.5 -133.5t-22.5 -114.5t-44 -80q-74 0 -99.5 48t-27.5 121v25q0 62 8 133q9 77 9 144v14q-1 72 -26.5 120.5 t-99.5 48.5q-38 4 -70 4q-49 0 -81 -9q-53 -16 -75 -50q-18 -30 -18 -72v-12q3 -50 17 -106.5t30.5 -116.5t22.5 -117q3 -20 3 -39q0 -35 -7 -66q-12 -49 -57 -82q-74 14 -120 55t-72.5 100.5t-38 130t-13.5 144.5q-1 37 -1 73t1 72q2 70 2 129q0 111 8.5 202t13.5 166 q3 47 3 88q0 24 -1 47q-3 59 -24 102h-145q-45 -88 -59.5 -203t-14.5 -241t8.5 -255t8.5 -245.5t-15.5 -212t-58.5 -152.5q-88 43 -130 126t-57 182q-14 88 -14 180v23zM1351 1216q-2 -24 -2 -47q0 -33 4 -65q7 -55 25 -103t47 -77q68 6 115 60t70 129q16 55 16 116 q0 21 -2 43q-8 84 -51 149h-78q-45 0 -74.5 -28.5t-47 -74.5t-22.5 -102z" />
<glyph unicode="K" d="M16 301q45 104 109.5 193.5t132.5 174.5t133.5 171t113.5 186q47 100 73 221q17 82 18 180q0 46 -4 95q35 0 85 -13.5t99 -22.5q32 -6 59 -6q15 0 30 2q40 5 59 40q4 -36 4 -71q0 -103 -35 -199q-47 -130 -125 -249.5t-169 -232.5t-161 -217h656q12 -25 14 -70 q1 -18 1 -38q0 -29 -2 -62q-3 -55 -6 -115q-2 -45 -2 -84v-26q1 -52 10 -89.5t34 -50.5q-19 -35 -67 -40q-26 -3 -53 -3q-25 1 -51 3q-56 4 -113 8q-11 1 -21 1q-42 0 -72 -14q37 72 43 164t6 164h-799z" />
<glyph unicode="L" horiz-adv-x="1929" d="M57 -59q27 119 45.5 270t21.5 308v51q0 130 -12 252q-16 146 -55 253q39 39 103 49q44 7 93 8q21 0 43 -2q73 -4 149.5 -13t142.5 -9q27 40 31 102q1 21 1 44q0 40 -4 84q-8 66 -18 128t-10 103h780q-27 -41 -36 -93.5t-9 -111.5t5 -124.5t5 -131.5h531 q-18 -104 -29.5 -251.5t-12.5 -308.5v-29q0 -147 9 -291q10 -158 33 -287q-186 53 -389 53t-394 -53q14 119 25.5 252t14.5 265q1 36 1 72q0 95 -6 186q-8 126 -35 230h-174q-45 -53 -64.5 -125.5t-24.5 -158.5q-2 -36 -2 -74q0 -52 4 -106q7 -93 18.5 -187t20.5 -184.5 t9 -169.5q-92 27 -194 35q-71 6 -145 6q-33 0 -65 -2q-106 -4 -209 -14.5t-198 -24.5zM340 176h285v770h-285v-770zM840 1108h278v285q-27 25 -58.5 34t-67.5 10h-14q-28 0 -60 -3q-38 -4 -78 -4v-322zM1309 719q4 -86 15 -180.5t18 -189.5q2 -29 2 -56q0 -62 -11 -117h246 v770q-60 14 -105 14q-40 0 -68 -12q-58 -24 -80 -84q-18 -50 -17 -119q-1 -13 0 -26z" />
<glyph unicode="M" horiz-adv-x="1703" d="M45 6q-18 127 -17.5 251.5t17.5 247.5q35 245 136.5 444.5t271 333.5t407.5 169q0 -70 -6 -150.5t-6 -160.5t10 -153t45 -124q51 68 88 142.5t71 150.5t70.5 150.5t88.5 144.5h362q-32 -142 -32 -301v-28q3 -175 24.5 -360t50.5 -377.5t47 -379.5h-362q31 125 31 257v21 q-2 142 -19.5 285.5t-37 286.5t-19.5 281q-238 -174 -306 -465q-27 -117 -27 -248q0 -194 60 -418h-360q33 90 40 180q3 39 3 79q0 51 -5 103q-9 92 -26.5 185.5t-34 189t-26.5 193.5q-4 41 -4 84q0 58 8 117q-68 -45 -124 -122t-96 -172t-62 -205t-26 -220q-1 -16 -1 -31 q-1 -93 17 -185q20 -106 66 -196h-317z" />
<glyph unicode="N" d="M25 596q59 47 86.5 121t31.5 161q1 20 1 41q0 67 -10 138q-13 92 -33.5 179t-42 160t-33.5 122h1071q0 -182 -44 -337t-125 -278t-199 -212t-265 -144v-438q44 -14 101 -15q14 0 29 2q75 4 144.5 13.5t117.5 13.5t48 -14q0 -98 -44 -137q-43 -38 -115 -44q-20 -2 -42 -2 q-56 0 -122 12q-92 16 -183 25q-58 6 -112 6q-33 0 -65 -2q-85 -6 -146 -55q52 92 72 190q13 66 14 128q0 31 -4 60q-10 91 -44 171t-87 135zM416 788q90 18 146 70.5t93 125.5t58.5 161t40.5 180q-18 35 -53 47t-80.5 12t-97.5 -6t-107 -6v-584z" />
<glyph unicode="O" horiz-adv-x="1193" d="M102 -111q0 184 53.5 314.5t141.5 222.5t199.5 155.5t228.5 112.5q-264 68 -428 248t-195 479q82 49 202 63q93 10 192 10q30 0 60 -1q132 -4 268.5 -16.5t252.5 -12.5v-1575q-236 68 -487.5 68t-487.5 -68zM414 119h352q25 113 25 186q1 27 -3 51q-14 82 -53 108 q-21 14 -47 13q-22 1 -47 -9q-55 -22 -105.5 -74t-86 -124.5t-35.5 -150.5zM455 1284q-6 -30 -6 -57q1 -49 19 -89q28 -62 78 -109.5t110.5 -85.5t109.5 -71v461q-49 0 -97 5q-40 4 -76 4h-14q-42 -1 -74 -13t-50 -45z" />
<glyph unicode="P" horiz-adv-x="1742" d="M37 1491q410 -30 821 -31l821 31q-10 -98 -19 -220t-16 -256q-6 -135 -8 -277q-1 -48 -1 -94q0 -94 3 -186q4 -138 15.5 -265t32.5 -234q-102 14 -222 27q-120 14 -244 17q-31 1 -62 1q-92 0 -183 -7q-121 -9 -221 -38v1184q-16 41 -54 48q-18 3 -38 3q-24 0 -48 -4 q-48 -8 -99.5 -21.5t-94.5 -13.5v-1866h-377q20 145 33 325q14 182 20 378q5 168 5 342v58q-1 204 -8 400.5t-21.5 375t-34.5 323.5zM1075 262h297v918q-31 27 -64.5 37t-70.5 11h-15q-30 0 -63 -3q-41 -4 -84 -4v-959z" />
<glyph unicode="R" horiz-adv-x="1314" d="M68 1516q38 -7 84 -7q24 0 48 2q74 5 154 14t160 16q43 4 83 4q33 0 65 -3q68 -6 118.5 -32.5t73.5 -84.5q-10 -59 -31.5 -81.5t-51.5 -24.5h-7q-28 1 -58 13q-34 14 -71 28t-75 22q-15 3 -30 4q-22 0 -43 -8v-557q72 11 137 11q28 0 56 -2q88 -7 167 -28.5t149.5 -54 t142.5 -67.5q51 -68 83 -154t42 -178q3 -30 3 -60q-1 -62 -13 -126q-20 -94 -72 -180h-1020q10 129 23.5 267t22.5 277.5t10 277.5v18q0 128 -14 247q-14 127 -46.5 241t-89.5 206zM475 384q0 -75 10 -142.5t45 -118.5h324q72 105 75 211v11q1 100 -49 178q-52 83 -154 129 q-73 33 -164 33q-36 0 -75 -5q0 -68 -6 -144.5t-6 -151.5z" />
<glyph unicode="S" horiz-adv-x="1890" d="M46 1034q7 106 96 196.5t228.5 159t311.5 111.5t348 53q45 2 88 2q129 0 252 -21q164 -28 284 -98.5t180 -188.5q41 -80 41 -186q0 -49 -9 -104q-16 -72 -52 -113.5t-85.5 -74.5t-111.5 -66t-132 -88q37 -55 43 -138t6 -176t6 -185t43 -164q-145 18 -295 33 q-152 16 -300 20q-40 1 -78 1q-108 0 -212 -8q-142 -11 -268 -46v618q-215 123 -303 240q-82 108 -82 208q0 7 1 15zM368 1022q-16 -47 -16 -100q0 -74 31 -160v135q59 59 154.5 102t208 67t231.5 28q19 1 39 1q98 1 188 -17q108 -20 193.5 -64.5t132.5 -116.5 q68 106 68 189q0 18 -4 34q-18 94 -99.5 155.5t-211.5 88.5q-99 21 -204 21q-33 -1 -67 -3q-142 -8 -278 -50t-232 -119.5t-134 -190.5zM754 348q2 -109 14 -203h430v693q-110 72 -186 74h-4q-73 0 -123 -44q-51 -45 -81 -128t-41 -183q-9 -85 -9 -176v-33z" />
<glyph unicode="T" horiz-adv-x="2791" d="M70 1464h2662q-23 -104 -38 -230t-23.5 -261t-8.5 -277.5t9 -277.5t24 -261t37 -231q-70 25 -161 40.5t-191.5 23.5t-203.5 8t-198.5 -8t-177.5 -23.5t-139 -40.5q-35 141 -40 300q-3 99 -3 201q0 61 1 123q3 165 6 331v43q0 143 -17 280q-33 37 -75 48.5t-90 11.5 t-99.5 -6.5t-104.5 -6.5q-37 -139 -42 -297q-3 -88 -3 -180q0 -73 2 -149q4 -169 8 -347q1 -32 1 -65q0 -145 -15 -287q-104 37 -251.5 54.5t-301.5 17.5t-293 -17.5t-227 -54.5q-11 104 -13 226q0 37 -1 74q1 88 3 180q4 132 6 271q2 104 2 206v68q-1 136 -10 266t-34 247z M384 1012q-1 -25 -1 -50q0 -93 9 -196q12 -131 20 -267q2 -37 2 -72q0 -96 -17 -181q33 -37 91 -42q29 -2 59.5 -2t64.5 2q66 5 132 9q12 1 24 1q52 0 96 -15v1052q-141 45 -233 45q-31 0 -55 -5q-102 -19 -145.5 -92t-46.5 -187zM1935 199h422v1052h-422v-1052z" />
<glyph unicode="U" horiz-adv-x="1624" d="M23 -2q16 162 83.5 273.5t160.5 192.5t200.5 142.5t206.5 126.5q-49 33 -111.5 52.5t-128 36t-128 36t-111.5 51.5q-31 49 -49.5 105.5t-30 118t-21.5 126t-26 130.5q105 -20 208 -20h26q116 3 226 15q112 13 218 25q91 10 178 10h28q100 -2 193.5 -27.5t181.5 -91.5 q76 -55 124 -147t70.5 -204.5t22.5 -234.5t-20.5 -233.5t-59.5 -205t-94 -146.5q-66 -66 -155 -95.5t-195 -37.5q-53 -4 -110 -4q-56 0 -116 4q-120 8 -248 15t-260 7t-263 -20zM371 129q66 0 138.5 4t137.5 4q24 96 24 162q-1 23 -3 42q-12 75 -44 103q-22 18 -52 18 q-14 0 -30 -4q-48 -14 -90 -58t-66 -114q-17 -50 -18 -108q0 -24 3 -49zM371 1257q14 -66 33.5 -122t52 -101t85 -77t132.5 -48q0 49 -12.5 85t-24.5 73q-11 37 -17 81q-1 11 -2 23q0 37 13 86h-260zM938 662q0 -66 1 -119.5t2 -107.5t2 -116.5t1 -144.5q113 18 174.5 54 t88 94.5t30.5 141.5t4 198h-303zM938 881q26 12 65 12q8 0 17 -1q51 -3 100 -8q24 -2 45.5 -2t39.5 2q36 5 36 38q-33 66 -54.5 127t-50 107t-73.5 73.5t-125 27.5v-376z" />
<glyph unicode="V" horiz-adv-x="2738" d="M96 -12q33 150 50.5 343t17.5 395t-17.5 395t-50.5 345q119 -16 258.5 -25t285.5 -9t293.5 9t280.5 25q-16 -135 -29.5 -298.5t-17.5 -333.5q-1 -47 -1 -93q0 -122 7 -241q10 -164 41 -299h316q68 135 83 293q10 103 10 209q0 57 -3 114q-8 166 -26.5 332t-18.5 317 q119 -16 257 -25t281.5 -9t281.5 9t255 25q-16 -168 -36.5 -356t-25.5 -378q-1 -34 -1 -68q1 -154 19 -302q22 -180 89 -329q-287 -35 -609 -39q-161 -2 -325 -2q-163 0 -331 2q-336 4 -675 7h-107q-283 0 -552 -13zM457 156q41 13 93 13h20q64 -3 126 -7q28 -2 54 -2 q33 0 63 3q55 5 90 38v1038q-35 35 -90 46t-117.5 11t-126 -6t-112.5 -6v-1128zM1890 1284q12 -110 12 -230q0 -26 -1 -52q-3 -148 -7 -296q-2 -74 -2 -147t2 -143q4 -141 37 -260h361q33 119 38 260q3 78 3 159q0 65 -2 131q-3 148 -7 296q-1 25 -1 51q0 121 14 231h-447z " />
<glyph unicode="W" horiz-adv-x="2353" d="M82 442q8 61 15 145.5t9.5 179.5t3.5 193v36q0 79 -4 154q-4 91 -9 168t-15 128h901v-399h332q31 14 36 67q3 29 3 62q0 26 -2 54l-8 124q-1 10 0 20q0 47 14 72q64 14 172 16q43 1 89 1q70 0 146 -2q127 -3 258 -9t240 -6q-16 -109 -23.5 -239t-7.5 -263t7.5 -263 t23.5 -239q-92 31 -204.5 42.5t-232.5 11.5t-241 -5.5t-227 -5.5q-31 -16 -41 -56q-7 -29 -7 -61q0 -13 1 -27q4 -48 17 -96t30 -79q47 0 99 6q39 4 79 4h28q54 -2 107 -19.5t101 -66.5q-33 -61 -107 -93t-173 -42q-76 -8 -161 -8q-25 0 -51 1q-113 3 -222.5 13t-204.5 19.5 t-159 9.5q-4 18 -4 33q0 29 12 49q18 30 52 47.5t76 26t82 15.5t71 17t41 31v233q-92 48 -216 60q-76 8 -154 7q-50 0 -101 -3q-131 -8 -255 -27.5t-216 -36.5zM406 748h1527q16 61 24.5 129.5t8.5 136t-8 130t-25 109.5h-288q-16 -31 -19.5 -83t-7.5 -108t-15.5 -108.5 t-41.5 -83.5h-783q-16 31 -24.5 66t-11.5 79t-4 101.5t-1 136.5h-331v-505z" />
<glyph unicode="Y" horiz-adv-x="1552" d="M93 610q1 76 9.5 148.5t19.5 148.5t11 162q20 20 67 23q27 1 54 1q22 0 45 -1q20 -1 40 -1q30 0 58 2q47 3 70 25q-23 66 -61.5 111t-72.5 90t-51 101q-8 23 -8 53q0 39 13 88h698q9 -38 9 -70q0 -16 -2 -31q-7 -43 -24.5 -77.5t-41 -63.5t-41 -59.5t-23.5 -64.5 q-2 -10 -2 -21q0 -26 10 -56q0 -31 16.5 -39t41 -6t55.5 10.5t60.5 10.5t55 -7.5t40.5 -37.5q-7 -51 -7 -87t7 -56q14 -42 46 -53q20 -7 44 -7q15 0 33 3q29 4 58 4q17 0 34 -1q47 -4 91 -32.5t75 -108.5q-43 -43 -79 -51q-19 -4 -38 -4q-17 0 -33 4q-35 6 -70 10 q-6 1 -11 1q-31 0 -68 -20q-45 -14 -73 -48t-49.5 -74t-42 -80.5t-51 -71.5t-76.5 -45q-21 -7 -48 -7q-31 0 -70 9q0 -45 16.5 -73t41 -49.5t51 -41.5t46 -51t26.5 -77q2 -15 2 -34q0 -36 -9 -84q-73 17 -160 17q-15 0 -31 -1q-104 -3 -208 -8q-47 -3 -92 -3q-54 0 -105 3 q-94 7 -160 50q20 43 37 75.5t31 64.5t30.5 65.5t39.5 76.5q0 66 -32 95.5t-73 42t-84 18.5t-63 29q-22 82 -22 155v6zM342 779q4 -52 14.5 -113t10.5 -127q45 -43 109 -49q23 -1 46 -1q44 0 90 7q72 10 147 26.5t140 16.5q0 63 3 114.5t8 94.5t8.5 82.5t3.5 82.5 q-66 0 -122.5 11.5t-114.5 20.5t-124.5 9t-154.5 -20q-45 -23 -56 -63q-9 -30 -9 -66q0 -13 1 -26zM458 190q-5 -11 -5 -27q0 -27 14 -67q20 -23 60 -33t83 -10t82 10.5t62 32.5q0 66 -18.5 103t-46 59.5t-57.5 37.5t-50 38q0 -45 -27 -63.5t-54.5 -35t-42.5 -45.5z M524 1409q-7 -35 -7 -64q0 -33 9 -58q15 -48 45.5 -72.5t67.5 -24.5t67.5 24.5t45.5 72.5q9 25 9 58q0 29 -7 64h-230z" />
<glyph unicode="Z" horiz-adv-x="2035" d="M29 901q57 57 81.5 134t27.5 163q1 18 1 36q1 69 -9 141q-12 91 -24 177q113 17 219 17q83 -1 161 -11q176 -24 350 -81q59 -86 106 -202t47 -261h1006q-29 -100 -44.5 -232.5t-15.5 -269.5t15.5 -269t44.5 -233h-885q0 57 7 133t15.5 157t13.5 164q2 42 2 82q0 38 -2 76 q-5 76 -22.5 137.5t-56.5 100.5q-68 -117 -119 -247t-104 -260t-116.5 -249.5t-153 -214t-212 -155t-296.5 -70.5q0 96 16 210t34 232q18 117 32 234q11 92 11 176q0 22 -1 46q-4 106 -33 193t-96 146zM375 860q11 -91 11 -188q0 -28 -1 -56q-4 -126 -7 -252q-1 -54 -1 -107 q0 -70 2 -139q4 -120 33 -220q74 100 125 208.5t86.5 227.5t58.5 250t39 276h-346zM375 1014h346q0 145 -24.5 237t-53.5 148h-268v-385zM1378 166h346q-7 64 -7 130q0 34 2 68q5 102 9 194q1 30 1 58q1 60 -5 112q-8 77 -42.5 123t-106.5 51h-14q-70 0 -183 -42v-694z" />
<glyph unicode="a" horiz-adv-x="1671" d="M63 -37q14 129 29 279q14 148 18 298l2 96q0 100 -6 196q-10 142 -43 251h607q22 33 24 97q0 13 1 27q0 54 -5 118q-6 80 -16 168t-12 170q0 14 -1 27q1 66 11 122q12 68 51 106t109 41h8q68 0 176 -46q9 -69 9 -130q0 -42 -4 -79q-11 -92 -27 -180q-18 -88 -28 -182 q-4 -33 -3 -69q0 -65 12 -140q49 -33 119 -37q40 -2 83 -2q33 0 67 1q81 3 168 5h17q78 0 152 -17q0 -129 -5 -278.5t-5 -300t11 -290.5t44 -251h-352q18 111 32.5 228.5t18.5 234.5q1 31 1 62q0 86 -8 168q-11 112 -44 214h-258q-35 -102 -44 -214q-6 -78 -6 -158 q0 -36 1 -72q4 -117 18 -234.5t31 -228.5h-346q0 129 18 231q17 102 28 202q7 65 7 135q0 37 -2 77q-6 112 -51 262h-221q-65 -68 -87 -182q-18 -97 -19 -204q0 -20 1 -40q4 -129 24.5 -257t39.5 -224h-345z" />
<glyph unicode="b" horiz-adv-x="1624" d="M59 723q39 29 59 81t28 118q6 52 6 108v31q-2 74 -11.5 146.5t-22 138t-22.5 114.5h355q0 -43 -11.5 -116.5t-18.5 -153.5q-5 -56 -5 -109q0 -23 1 -45q3 -74 34 -116h194q29 8 48.5 47t30.5 91t13 112q1 17 1 34q0 42 -4 80q-5 53 -18.5 91t-33.5 48q14 29 53 38t86 9 t94.5 -5t77.5 -5q0 -43 -11 -116q-10 -74 -18 -154q-5 -55 -5 -106q1 -24 1 -48q4 -74 33 -116q28 -10 51 -10q13 0 25 3q33 9 61.5 23t61.5 24q14 4 29 5q22 0 47 -9v504h274q-10 -48 -12 -120q-1 -29 -1 -59q0 -45 2 -94q3 -81 9 -165t9 -159q2 -56 2 -103v-30 q-1 -58 -9 -89q-102 31 -237.5 41t-280.5 10t-293.5 -5t-279.5 -5q-31 -43 -41 -90q-7 -34 -6 -70v-26q4 -50 17 -98t30 -93q117 0 262 6q145 5 287 9q83 2 160 3q55 1 106 -1q123 -2 196 -17q-39 -78 -126 -130t-201.5 -87t-247.5 -55.5t-267.5 -35.5t-258 -27.5 t-220.5 -32.5q0 39 10.5 108.5t20.5 153.5t16 173q2 33 2 63q0 53 -6 101q-10 74 -38.5 125.5t-86.5 61.5z" />
<glyph unicode="c" horiz-adv-x="1576" d="M88 1245q47 80 132 131t194.5 78t235.5 29h30q111 0 225 -13q0 -162 28 -297t62.5 -265t69.5 -265t49 -297q98 227 138 513t40 611q14 14 49 11.5t70 -8t62.5 -0.5t27.5 38q23 -139 23 -300.5t-22.5 -327.5t-67.5 -325t-114 -293t-162 -231t-210 -140q-33 96 -59.5 210.5 t-51 231.5t-50 231.5t-58.5 210.5q-103 -12 -194 -12q-51 0 -98 4q-132 10 -219 62.5t-124 152.5q-20 54 -20 127q0 60 14 133zM302 1201q-32 -45 -32 -107q0 -64 33 -146q49 0 91 -13t87 -30.5t95.5 -31t113.5 -13.5q0 80 -14 139.5t-34.5 108.5t-43.5 92t-37 92 q-195 0 -259 -91z" />
<glyph unicode="d" horiz-adv-x="2643" d="M20 -6q49 152 69 352q16 156 16 319q1 45 -1 90q-6 210 -28.5 409.5t-55.5 351.5q203 -16 420 -26t444.5 -13.5t461 -5t469.5 -1.5v-534h763q-35 -100 -51 -222t-16 -249t16.5 -249t50.5 -222h-1077v1302h-313q-35 -118 -39 -274q-2 -78 -2 -160t2 -168q4 -172 7 -352 v-57q0 -150 -13 -291h-1123zM379 174h448v1122h-448v-1122zM1815 174h405v571h-405v-571z" />
<glyph unicode="e" horiz-adv-x="1097" d="M10 459q49 0 84 6t64.5 13t56.5 13.5t59 6.5q0 -131 40 -216t143 -155q90 23 145 107.5t81 202.5q25 114 25 245v10q-1 137 -20.5 267.5t-55.5 238t-83 164.5q-29 5 -54 5q-33 1 -56 -9q-40 -16 -62.5 -49t-32.5 -76t-17.5 -87t-17.5 -83t-35 -62q-30 9 -50 9 q-14 0 -22 -4q-22 -11 -38 -28q-16 -18 -38 -30q-9 -5 -23 -5q-20 0 -50 11q-19 63 -19 124q0 54 15 108q31 112 120 192t233 116q73 18 156 18q82 0 175 -17q135 -94 207 -219t94 -261q11 -68 10.5 -137.5t-10.5 -139.5q-22 -142 -75.5 -270t-132 -235.5t-168 -176 t-184.5 -90.5q-33 -8 -65 -8q-60 0 -117 27q-87 42 -161 156.5t-121 317.5z" />
<glyph unicode="f" horiz-adv-x="1505" d="M45 626v12q0 92 31 180q33 93 102.5 166t175.5 114q92 36 212 36q18 0 36 -1v278q-36 9 -67 9q-19 0 -37 -4q-45 -9 -87 -23.5t-86 -23.5q-16 -3 -33 -3q-31 0 -67 10v74q47 47 117 68.5t154 26.5q38 2 78 2q49 0 100 -3q94 -6 188 -13t184 -10q21 -1 41 -1q67 0 125 8 q4 -19 4 -34q0 -23 -10 -36q-16 -22 -48 -30q-26 -7 -58 -7h-16q-28 1 -56 1h-28q-42 -1 -77.5 -10t-56.5 -36v-209q35 4 68 4q89 0 162 -27q102 -38 173.5 -110.5t111.5 -170t45 -199.5q1 -15 1 -31q0 -85 -25 -167q-30 -97 -98.5 -170t-177.5 -113q-78 -29 -180 -29 q-39 0 -80 4v-609q41 -27 83 -27h7q45 3 95.5 14t108.5 20q22 3 44 3q41 0 86 -10q-20 -68 -84.5 -101.5t-155.5 -46.5q-70 -10 -150 -10q-24 0 -50 1q-107 4 -211 13t-195.5 19.5t-148.5 10.5q-4 17 -4 31q0 33 23 50q32 25 85.5 34.5t113.5 11.5t103 16q0 86 -2 155.5 t-5 132t-5 124t-2 131.5q-17 -1 -34 -1q-114 0 -204 36q-104 41 -174.5 112.5t-106.5 165.5t-38 192zM274 681v-9q0 -80 33 -148q35 -73 107 -119q62 -39 155 -39q16 0 33 1v594q-35 7 -67 7q-62 0 -110 -26q-73 -39 -111 -107.5t-40 -153.5zM866 961q13 -51 13 -129 q0 -9 -1 -18q-1 -89 -4 -182q-2 -43 -2 -84q0 -47 2 -91q4 -82 33 -125q57 27 117.5 50.5t107 60t70.5 95.5q16 36 16 88q0 32 -6 70q-29 31 -58.5 81t-69.5 96.5t-92 74.5q-34 18 -79 18q-22 0 -47 -5z" />
<glyph unicode="g" horiz-adv-x="2316" d="M52 1166v5q0 95 16 154q106 -16 233 -28.5t256 -16.5q40 -1 79 -1q88 0 175 6q125 9 231 40q-31 -139 -51 -275.5t-42.5 -265.5t-52.5 -248.5t-75 -224.5q113 29 225.5 89.5t227.5 139t229.5 169t231 176.5t235.5 161.5t240 127.5q-23 -225 -23 -452q0 -55 1 -110 q7 -284 36 -589q-100 0 -206 -1q-22 -1 -44 -1q-82 0 -160 5q-100 5 -188 21t-154.5 52t-104.5 95.5t-38 149.5q-170 -45 -305 -129t-260 -179t-253 -187.5t-282 -153.5q61 92 123 185t119 192.5t109.5 207t99.5 228.5q-47 31 -105.5 49t-120 29.5t-120 20.5t-105.5 26 q-61 45 -99 137t-57.5 194.5t-20.5 201.5zM347 947q9 -93 48 -157.5t109 -103.5t176 -53q14 45 22.5 110.5t11.5 138t4 146.5t1 135h-365q-10 -79 -10 -145q0 -38 3 -71zM1575 508q14 -61 39.5 -126t67.5 -117t104.5 -86t152.5 -34q-13 62 -13 134v27q3 87 7 167q2 36 2 68 q0 41 -3 77q-5 64 -36 95q-29 -31 -64.5 -54.5t-77.5 -47t-87 -48t-92 -55.5z" />
<glyph unicode="h" horiz-adv-x="1933" d="M0 -113q23 59 61.5 170t76.5 250t66 296t36 309q2 34 2 67q0 114 -20 218q-26 134 -95 228q53 35 115.5 54.5t129 29t136 10.5t141.5 1q-37 -125 -57.5 -279t-37.5 -313.5t-37.5 -313t-55.5 -278.5q193 106 372 220t351 229.5t343 229t349 220.5q7 -25 7 -66 q0 -21 -2 -45q-5 -74 -17.5 -176t-24.5 -222t-16 -244q-1 -33 -1 -66q0 -90 8 -180q11 -122 46 -230h-901q-35 37 -59 74t-38 81q-13 41 -13 91v8q1 55 18 127q-123 -37 -230.5 -105.5t-211 -144.5t-210 -145.5t-231.5 -104.5zM1159 380q10 -87 55.5 -148.5t126 -95.5 t203.5 -34v662q-72 0 -119 -23.5t-87 -55.5l-80 -64t-93 -48q-10 -65 -10 -123q0 -37 4 -70z" />
<glyph unicode="i" horiz-adv-x="1216" d="M37 -80q16 135 56 247t95.5 205t121 171t132.5 147q-84 51 -139 144.5t-93 205t-67.5 230.5t-64.5 219q102 51 233 65q101 10 210 10q31 0 65 -1q144 -4 293 -16.5t284 -12.5q13 -58 13 -110q0 -40 -8 -77q-18 -85 -56.5 -159t-91.5 -136.5t-100.5 -116.5t-80 -103.5 t-32.5 -94.5q0 -57 36 -106t88 -98.5t108.5 -104.5t96.5 -127t53 -164q4 -25 4 -52q0 -74 -26 -165q-121 35 -267 52.5t-298.5 17.5t-299 -17.5t-265.5 -52.5zM354 186h494q-2 131 -38 207q-36 75 -89 105q-39 21 -82 22q-15 0 -33 -3q-62 -11 -116 -55t-93 -115t-43 -161z M428 1235q6 -80 30.5 -144.5t63.5 -109.5t90 -61q37 51 71 100t60.5 105.5t43 123t16.5 152.5h-365q-12 -63 -12 -122q0 -22 2 -44z" />
<glyph unicode="j" horiz-adv-x="1849" d="M90 466q2 105 2 193v822h717q13 -55 13 -114v-9q-1 -64 -8 -125.5t-12 -118.5q-2 -22 -2 -43q0 -32 5 -62q8 -48 35.5 -82t87.5 -48q32 -4 59 -4q59 0 93 21q50 30 64 87q9 32 9 71q0 30 -5 63q-11 77 -30.5 155t-38 147.5t-18.5 114.5q131 0 231.5 16.5t185.5 27.5 q55 7 107 7q29 0 57 -2q78 -6 166 -49q12 -107 12 -204q0 -63 -5 -122q-13 -149 -64 -263t-142 -185.5t-223 -93.5q-14 -45 -19 -105.5t-7 -128t-4 -137.5t-9.5 -133.5t-22.5 -114.5t-44 -80q-74 0 -99.5 48t-27.5 121v25q0 62 8 133q9 77 9 144v14q-1 72 -26.5 120.5 t-99.5 48.5q-38 4 -70 4q-49 0 -81 -9q-53 -16 -75 -50q-18 -30 -18 -72v-12q3 -50 17 -106.5t30.5 -116.5t22.5 -117q3 -20 3 -39q0 -35 -7 -66q-12 -49 -57 -82q-74 14 -120 55t-72.5 100.5t-38 130t-13.5 144.5q-1 37 -1 73t1 72q2 70 2 129q0 111 8.5 202t13.5 166 q3 47 3 88q0 24 -1 47q-3 59 -24 102h-145q-45 -88 -59.5 -203t-14.5 -241t8.5 -255t8.5 -245.5t-15.5 -212t-58.5 -152.5q-88 43 -130 126t-57 182q-14 88 -14 180v23zM1351 1216q-2 -24 -2 -47q0 -33 4 -65q7 -55 25 -103t47 -77q68 6 115 60t70 129q16 55 16 116 q0 21 -2 43q-8 84 -51 149h-78q-45 0 -74.5 -28.5t-47 -74.5t-22.5 -102z" />
<glyph unicode="k" d="M16 301q45 104 109.5 193.5t132.5 174.5t133.5 171t113.5 186q47 100 73 221q17 82 18 180q0 46 -4 95q35 0 85 -13.5t99 -22.5q32 -6 59 -6q15 0 30 2q40 5 59 40q4 -36 4 -71q0 -103 -35 -199q-47 -130 -125 -249.5t-169 -232.5t-161 -217h656q12 -25 14 -70 q1 -18 1 -38q0 -29 -2 -62q-3 -55 -6 -115q-2 -45 -2 -84v-26q1 -52 10 -89.5t34 -50.5q-19 -35 -67 -40q-26 -3 -53 -3q-25 1 -51 3q-56 4 -113 8q-11 1 -21 1q-42 0 -72 -14q37 72 43 164t6 164h-799z" />
<glyph unicode="l" horiz-adv-x="1929" d="M57 -59q27 119 45.5 270t21.5 308v51q0 130 -12 252q-16 146 -55 253q39 39 103 49q44 7 93 8q21 0 43 -2q73 -4 149.5 -13t142.5 -9q27 40 31 102q1 21 1 44q0 40 -4 84q-8 66 -18 128t-10 103h780q-27 -41 -36 -93.5t-9 -111.5t5 -124.5t5 -131.5h531 q-18 -104 -29.5 -251.5t-12.5 -308.5v-29q0 -147 9 -291q10 -158 33 -287q-186 53 -389 53t-394 -53q14 119 25.5 252t14.5 265q1 36 1 72q0 95 -6 186q-8 126 -35 230h-174q-45 -53 -64.5 -125.5t-24.5 -158.5q-2 -36 -2 -74q0 -52 4 -106q7 -93 18.5 -187t20.5 -184.5 t9 -169.5q-92 27 -194 35q-71 6 -145 6q-33 0 -65 -2q-106 -4 -209 -14.5t-198 -24.5zM340 176h285v770h-285v-770zM840 1108h278v285q-27 25 -58.5 34t-67.5 10h-14q-28 0 -60 -3q-38 -4 -78 -4v-322zM1309 719q4 -86 15 -180.5t18 -189.5q2 -29 2 -56q0 -62 -11 -117h246 v770q-60 14 -105 14q-40 0 -68 -12q-58 -24 -80 -84q-18 -50 -17 -119q-1 -13 0 -26z" />
<glyph unicode="m" horiz-adv-x="1703" d="M45 6q-18 127 -17.5 251.5t17.5 247.5q35 245 136.5 444.5t271 333.5t407.5 169q0 -70 -6 -150.5t-6 -160.5t10 -153t45 -124q51 68 88 142.5t71 150.5t70.5 150.5t88.5 144.5h362q-32 -142 -32 -301v-28q3 -175 24.5 -360t50.5 -377.5t47 -379.5h-362q31 125 31 257v21 q-2 142 -19.5 285.5t-37 286.5t-19.5 281q-238 -174 -306 -465q-27 -117 -27 -248q0 -194 60 -418h-360q33 90 40 180q3 39 3 79q0 51 -5 103q-9 92 -26.5 185.5t-34 189t-26.5 193.5q-4 41 -4 84q0 58 8 117q-68 -45 -124 -122t-96 -172t-62 -205t-26 -220q-1 -16 -1 -31 q-1 -93 17 -185q20 -106 66 -196h-317z" />
<glyph unicode="n" d="M25 596q59 47 86.5 121t31.5 161q1 20 1 41q0 67 -10 138q-13 92 -33.5 179t-42 160t-33.5 122h1071q0 -182 -44 -337t-125 -278t-199 -212t-265 -144v-438q44 -14 101 -15q14 0 29 2q75 4 144.5 13.5t117.5 13.5t48 -14q0 -98 -44 -137q-43 -38 -115 -44q-20 -2 -42 -2 q-56 0 -122 12q-92 16 -183 25q-58 6 -112 6q-33 0 -65 -2q-85 -6 -146 -55q52 92 72 190q13 66 14 128q0 31 -4 60q-10 91 -44 171t-87 135zM416 788q90 18 146 70.5t93 125.5t58.5 161t40.5 180q-18 35 -53 47t-80.5 12t-97.5 -6t-107 -6v-584z" />
<glyph unicode="o" horiz-adv-x="1193" d="M102 -111q0 184 53.5 314.5t141.5 222.5t199.5 155.5t228.5 112.5q-264 68 -428 248t-195 479q82 49 202 63q93 10 192 10q30 0 60 -1q132 -4 268.5 -16.5t252.5 -12.5v-1575q-236 68 -487.5 68t-487.5 -68zM414 119h352q25 113 25 186q1 27 -3 51q-14 82 -53 108 q-21 14 -47 13q-22 1 -47 -9q-55 -22 -105.5 -74t-86 -124.5t-35.5 -150.5zM455 1284q-6 -30 -6 -57q1 -49 19 -89q28 -62 78 -109.5t110.5 -85.5t109.5 -71v461q-49 0 -97 5q-40 4 -76 4h-14q-42 -1 -74 -13t-50 -45z" />
<glyph unicode="p" horiz-adv-x="1742" d="M37 1491q411 -31 821 -31l821 31q-10 -98 -19 -220t-15.5 -256t-8.5 -277q-1 -47 -1 -94q0 -94 3 -186q4 -139 15.5 -265.5t32.5 -233.5q-102 14 -222.5 27.5t-243.5 16.5q-31 1 -62 1q-92 0 -183 -7q-121 -9 -221 -38v1184q-16 41 -54 48q-18 3 -38 3q-22 0 -48 -4 q-47 -8 -99 -21.5t-95 -13.5v-1866h-377q20 145 33.5 325.5t19.5 377.5q5 168 5 342v58q-1 204 -8 400.5t-21.5 375t-34.5 323.5zM1075 262h297v918q-31 27 -64.5 37t-70.5 11h-15q-30 0 -63 -3q-41 -4 -84 -4v-959z" />
<glyph unicode="r" horiz-adv-x="1314" d="M68 1516q38 -7 84 -7q24 0 48 2q74 5 154 14t160 16q43 4 83 4q33 0 65 -3q68 -6 118.5 -32.5t73.5 -84.5q-10 -59 -31.5 -81.5t-51.5 -24.5h-7q-28 1 -58 13q-34 14 -71 28t-75 22q-15 3 -30 4q-22 0 -43 -8v-557q72 11 137 11q28 0 56 -2q88 -7 167 -28.5t149.5 -54 t142.5 -67.5q51 -68 83 -154t42 -178q3 -30 3 -60q-1 -62 -13 -126q-20 -94 -72 -180h-1020q10 129 23.5 267t22.5 277.5t10 277.5v18q0 128 -14 247q-14 127 -46.5 241t-89.5 206zM475 384q0 -75 10 -142.5t45 -118.5h324q72 105 75 211v11q1 100 -49 178q-52 83 -154 129 q-73 33 -164 33q-36 0 -75 -5q0 -68 -6 -144.5t-6 -151.5z" />
<glyph unicode="s" horiz-adv-x="1890" d="M46 1034q7 106 96 196.5t228.5 159t311.5 111.5t348 53q45 2 88 2q129 0 252 -21q164 -28 284 -98.5t180 -188.5q41 -80 41 -186q0 -49 -9 -104q-16 -72 -52 -113.5t-85.5 -74.5t-111.5 -66t-132 -88q37 -55 43 -138t6 -176t6 -185t43 -164q-145 18 -295 33 q-152 16 -300 20q-40 1 -78 1q-108 0 -212 -8q-142 -11 -268 -46v618q-215 123 -303 240q-82 108 -82 208q0 7 1 15zM368 1022q-16 -47 -16 -100q0 -74 31 -160v135q59 59 154.5 102t208 67t231.5 28q19 1 39 1q98 1 188 -17q108 -20 193.5 -64.5t132.5 -116.5 q68 106 68 189q0 18 -4 34q-18 94 -99.5 155.5t-211.5 88.5q-99 21 -204 21q-33 -1 -67 -3q-142 -8 -278 -50t-232 -119.5t-134 -190.5zM754 348q2 -109 14 -203h430v693q-110 72 -186 74h-4q-73 0 -123 -44q-51 -45 -81 -128t-41 -183q-9 -85 -9 -176v-33z" />
<glyph unicode="t" horiz-adv-x="2791" d="M70 1464h2662q-23 -104 -38 -230t-23.5 -261t-8.5 -277.5t9 -277.5t24 -261t37 -231q-70 25 -161 40.5t-191.5 23.5t-203.5 8t-198.5 -8t-177.5 -23.5t-139 -40.5q-35 141 -40 300q-3 99 -3 201q0 61 1 123q3 165 6 331v43q0 143 -17 280q-33 37 -75 48.5t-90 11.5 t-99.5 -6.5t-104.5 -6.5q-37 -139 -42 -297q-3 -88 -3 -180q0 -73 2 -149q4 -169 8 -347q1 -32 1 -65q0 -145 -15 -287q-104 37 -251.5 54.5t-301.5 17.5t-293 -17.5t-227 -54.5q-11 104 -13 226q0 37 -1 74q1 88 3 180q4 132 6 271q2 104 2 206v68q-1 136 -10 266t-34 247z M384 1012q-1 -25 -1 -50q0 -93 9 -196q12 -131 20 -267q2 -37 2 -72q0 -96 -17 -181q33 -37 91 -42q29 -2 59.5 -2t64.5 2q66 5 132 9q12 1 24 1q52 0 96 -15v1052q-141 45 -233 45q-31 0 -55 -5q-102 -19 -145.5 -92t-46.5 -187zM1935 199h422v1052h-422v-1052z" />
<glyph unicode="u" horiz-adv-x="1624" d="M23 -2q16 162 83.5 273.5t160.5 192.5t200.5 142.5t206.5 126.5q-49 33 -111.5 52.5t-128 36t-128 36t-111.5 51.5q-31 49 -49.5 105.5t-30 118t-21.5 126t-26 130.5q105 -20 208 -20h26q116 3 226 15q112 13 218 25q91 10 178 10h28q100 -2 193.5 -27.5t181.5 -91.5 q76 -55 124 -147t70.5 -204.5t22.5 -234.5t-20.5 -233.5t-59.5 -205t-94 -146.5q-66 -66 -155 -95.5t-195 -37.5q-53 -4 -110 -4q-56 0 -116 4q-120 8 -248 15t-260 7t-263 -20zM371 129q66 0 138.5 4t137.5 4q24 96 24 162q-1 23 -3 42q-12 75 -44 103q-22 18 -52 18 q-14 0 -30 -4q-48 -14 -90 -58t-66 -114q-17 -50 -18 -108q0 -24 3 -49zM371 1257q14 -66 33.5 -122t52 -101t85 -77t132.5 -48q0 49 -12.5 85t-24.5 73q-11 37 -17 81q-1 11 -2 23q0 37 13 86h-260zM938 662q0 -66 1 -119.5t2 -107.5t2 -116.5t1 -144.5q113 18 174.5 54 t88 94.5t30.5 141.5t4 198h-303zM938 881q26 12 65 12q8 0 17 -1q51 -3 100 -8q24 -2 45.5 -2t39.5 2q36 5 36 38q-33 66 -54.5 127t-50 107t-73.5 73.5t-125 27.5v-376z" />
<glyph unicode="v" horiz-adv-x="2738" d="M96 -12q33 150 50.5 343t17.5 395t-17.5 395t-50.5 345q119 -16 258.5 -25t285.5 -9t293.5 9t280.5 25q-16 -135 -29.5 -298.5t-17.5 -333.5q-1 -47 -1 -93q0 -122 7 -241q10 -164 41 -299h316q68 135 83 293q10 103 10 209q0 57 -3 114q-8 166 -26.5 332t-18.5 317 q119 -16 257 -25t281.5 -9t281.5 9t255 25q-16 -168 -36.5 -356t-25.5 -378q-1 -34 -1 -68q1 -154 19 -302q22 -180 89 -329q-287 -35 -609 -39q-161 -2 -325 -2q-163 0 -331 2q-336 4 -675 7h-107q-283 0 -552 -13zM457 156q41 13 93 13h20q64 -3 126 -7q28 -2 54 -2 q33 0 63 3q55 5 90 38v1038q-35 35 -90 46t-117.5 11t-126 -6t-112.5 -6v-1128zM1890 1284q12 -110 12 -230q0 -26 -1 -52q-3 -148 -7 -296q-2 -74 -2 -147t2 -143q4 -141 37 -260h361q33 119 38 260q3 78 3 159q0 65 -2 131q-3 148 -7 296q-1 25 -1 51q0 121 14 231h-447z " />
<glyph unicode="w" horiz-adv-x="2353" d="M82 442q8 61 15 145.5t9.5 179.5t3.5 193v36q0 79 -4 154q-4 91 -9 168t-15 128h901v-399h332q31 14 36 67q3 29 3 62q0 26 -2 54l-8 124q-1 10 0 20q0 47 14 72q64 14 172 16q43 1 89 1q70 0 146 -2q127 -3 258 -9t240 -6q-16 -109 -23.5 -239t-7.5 -263t7.5 -263 t23.5 -239q-92 31 -204.5 42.5t-232.5 11.5t-241 -5.5t-227 -5.5q-31 -16 -41 -56q-7 -29 -7 -61q0 -13 1 -27q4 -48 17 -96t30 -79q47 0 99 6q39 4 79 4h28q54 -2 107 -19.5t101 -66.5q-33 -61 -107 -93t-173 -42q-76 -8 -161 -8q-25 0 -51 1q-113 3 -222.5 13t-204.5 19.5 t-159 9.5q-4 18 -4 33q0 29 12 49q18 30 52 47.5t76 26t82 15.5t71 17t41 31v233q-92 48 -216 60q-76 8 -154 7q-50 0 -101 -3q-131 -8 -255 -27.5t-216 -36.5zM406 748h1527q16 61 24.5 129.5t8.5 136t-8 130t-25 109.5h-288q-16 -31 -19.5 -83t-7.5 -108t-15.5 -108.5 t-41.5 -83.5h-783q-16 31 -24.5 66t-11.5 79t-4 101.5t-1 136.5h-331v-505z" />
<glyph unicode="y" horiz-adv-x="1552" d="M93 610q1 76 9.5 148.5t19.5 148.5t11 162q20 20 67 23q27 1 54 1q22 0 45 -1q20 -1 40 -1q30 0 58 2q47 3 70 25q-23 66 -61.5 111t-72.5 90t-51 101q-8 23 -8 53q0 39 13 88h698q9 -38 9 -70q0 -16 -2 -31q-7 -43 -24.5 -77.5t-41 -63.5t-41 -59.5t-23.5 -64.5 q-2 -10 -2 -21q0 -26 10 -56q0 -31 16.5 -39t41 -6t55.5 10.5t60.5 10.5t55 -7.5t40.5 -37.5q-7 -51 -7 -87t7 -56q14 -42 46 -53q20 -7 44 -7q15 0 33 3q29 4 58 4q17 0 34 -1q47 -4 91 -32.5t75 -108.5q-43 -43 -79 -51q-19 -4 -38 -4q-17 0 -33 4q-35 6 -70 10 q-6 1 -11 1q-31 0 -68 -20q-45 -14 -73 -48t-49.5 -74t-42 -80.5t-51 -71.5t-76.5 -45q-21 -7 -48 -7q-31 0 -70 9q0 -45 16.5 -73t41 -49.5t51 -41.5t46 -51t26.5 -77q2 -15 2 -34q0 -36 -9 -84q-73 17 -160 17q-15 0 -31 -1q-104 -3 -208 -8q-47 -3 -92 -3q-54 0 -105 3 q-94 7 -160 50q20 43 37 75.5t31 64.5t30.5 65.5t39.5 76.5q0 66 -32 95.5t-73 42t-84 18.5t-63 29q-22 82 -22 155v6zM342 779q4 -52 14.5 -113t10.5 -127q45 -43 109 -49q23 -1 46 -1q44 0 90 7q72 10 147 26.5t140 16.5q0 63 3 114.5t8 94.5t8.5 82.5t3.5 82.5 q-66 0 -122.5 11.5t-114.5 20.5t-124.5 9t-154.5 -20q-45 -23 -56 -63q-9 -30 -9 -66q0 -13 1 -26zM458 190q-5 -11 -5 -27q0 -27 14 -67q20 -23 60 -33t83 -10t82 10.5t62 32.5q0 66 -18.5 103t-46 59.5t-57.5 37.5t-50 38q0 -45 -27 -63.5t-54.5 -35t-42.5 -45.5z M524 1409q-7 -35 -7 -64q0 -33 9 -58q15 -48 45.5 -72.5t67.5 -24.5t67.5 24.5t45.5 72.5q9 25 9 58q0 29 -7 64h-230z" />
<glyph unicode="z" horiz-adv-x="2035" d="M29 901q57 57 81.5 134t27.5 163q1 18 1 36q1 69 -9 141q-12 91 -24 177q113 17 219 17q83 -1 161 -11q176 -24 350 -81q59 -86 106 -202t47 -261h1006q-29 -100 -44.5 -232.5t-15.5 -269.5t15.5 -269t44.5 -233h-885q0 57 7 133t15.5 157t13.5 164q2 42 2 82q0 38 -2 76 q-5 76 -22.5 137.5t-56.5 100.5q-68 -117 -119 -247t-104 -260t-116.5 -249.5t-153 -214t-212 -155t-296.5 -70.5q0 96 16 210t34 232q18 117 32 234q11 92 11 176q0 22 -1 46q-4 106 -33 193t-96 146zM375 860q11 -91 11 -188q0 -28 -1 -56q-4 -126 -7 -252q-1 -54 -1 -107 q0 -70 2 -139q4 -120 33 -220q74 100 125 208.5t86.5 227.5t58.5 250t39 276h-346zM375 1014h346q0 145 -24.5 237t-53.5 148h-268v-385zM1378 166h346q-7 64 -7 130q0 34 2 68q5 102 9 194q1 30 1 58q1 60 -5 112q-8 77 -42.5 123t-106.5 51h-14q-70 0 -183 -42v-694z" />
<glyph unicode="&#x2000;" horiz-adv-x="979" />
<glyph unicode="&#x2001;" horiz-adv-x="1959" />
<glyph unicode="&#x2002;" horiz-adv-x="979" />
<glyph unicode="&#x2003;" horiz-adv-x="1959" />
<glyph unicode="&#x2004;" horiz-adv-x="653" />
<glyph unicode="&#x2005;" horiz-adv-x="489" />
<glyph unicode="&#x2006;" horiz-adv-x="326" />
<glyph unicode="&#x2007;" horiz-adv-x="326" />
<glyph unicode="&#x2008;" horiz-adv-x="244" />
<glyph unicode="&#x2009;" horiz-adv-x="391" />
<glyph unicode="&#x200a;" horiz-adv-x="108" />
<glyph unicode="&#x202f;" horiz-adv-x="391" />
<glyph unicode="&#x205f;" horiz-adv-x="489" />
<glyph unicode="&#x25fc;" horiz-adv-x="1024" d="M0 0z" />
</font>
</defs>
</svg>
