<?xml version="1.0" standalone="no"?>
<!DOCTYPE svg PUBLIC "-//W3C//DTD SVG 1.1//EN" "http://www.w3.org/Graphics/SVG/1.1/DTD/svg11.dtd" >
<svg xmlns="http://www.w3.org/2000/svg">
<metadata></metadata>
<defs>
<font id="aa-hansika.plain." horiz-adv-x="0" >
<font-face units-per-em="2048" ascent="1638" descent="-410" />
<missing-glyph horiz-adv-x="1024" />
<glyph horiz-adv-x="2048" />
<glyph horiz-adv-x="2048" />
<glyph unicode="&#xd;" horiz-adv-x="1024" />
<glyph horiz-adv-x="1452" d="M0 942q0 53 78 86q16 0 43 -10l14 -4q23 -10 47 -39q18 -12 45 -19l52 -6q35 0 90 13l55 12v-189l8 54q0 23 -8 30l-27 25q-37 6 -94 -21q-150 -70 -180 -69q-25 0 -50.5 11t-58.5 44l-10 47zM41 432l233 232l150 143l4 35v22q0 37 -22 39l-27 -6l-43 -10l8 69 q41 18 70 19q39 0 67 -27q20 -18 51 -69q162 152 406 151q217 0 346 -154.5t129 -386.5q0 -215 -80 -314t-170 -142q-98 -33 -184 -33l-45 2l-4 111q154 0 239.5 101t85.5 249q0 162 -105.5 282.5t-262.5 120.5q-45 0 -95.5 -13t-109.5 -46q348 -55 348 -367 q0 -207 -143.5 -325.5t-349.5 -118.5q-158 0 -275 71.5t-117 215.5v26l9 41h-78zM223 461h49l9 -78q-18 -6 -19 -61q0 -96 39 -123l61 -37l52 -21l94 -8q145 0 241.5 80t96.5 238q0 111 -63.5 180t-174.5 69q-96 0 -211 -84z" />
<glyph unicode=" "  horiz-adv-x="1024" />
<glyph unicode="&#x09;" horiz-adv-x="1024" />
<glyph unicode="&#xa0;" horiz-adv-x="1024" />
<glyph unicode="!" horiz-adv-x="688" d="M35 762q0 158 94 266h90q-55 -68 -82 -127q-8 -29 -14 -68.5t-6 -76.5q0 -63 21.5 -117.5t66.5 -54.5q61 0 61 84l-2 22q-90 18 -90 119q0 74 61.5 147.5t143.5 73.5q268 1 268 -450q0 -211 -71.5 -391.5t-249.5 -180.5q-111 0 -158 45q-39 41 -64 88l-10 47l-4 52l2 30 l82 4q0 -168 137 -168q104 0 133 111l19 100l14 99l8 194v31v25q0 78 -18 163q-12 76 -88 76q-37 0 -72 -24q-31 -16 -31 -64v-12q111 0 111 -137q0 -76 -43 -138q-45 -51 -131 -51q-178 0 -178 283z" />
<glyph unicode="&#x22;" horiz-adv-x="391" d="M59 125q0 49 39 88q33 39 88 39q136 0 136 -172q0 -166 -201 -291l-31 47l33 23l29 24q25 23 52 58.5t27 97.5l-47 -19l-30 -8q-43 0 -69 34t-26 79z" />
<glyph unicode="#" horiz-adv-x="391" d="M45 215q0 61 30.5 92t57.5 44.5t57 13.5q55 0 99.5 -45.5t44.5 -104.5q0 -53 -45.5 -99t-102.5 -46l-55 6l-27 18l-30 27q-29 35 -29 94zM45 633q0 59 39 104q45 41 104 41q55 0 103 -45q43 -37 43 -100q0 -55 -39 -100.5t-107 -45.5q-59 0 -104 39q-39 45 -39 107z M90 215q0 -35 29 -70q27 -27 69 -26q35 0 66 24.5t31 71.5q0 37 -30 67.5t-69 30.5l-36 -6l-29 -22l-23 -29zM90 633q0 -39 28.5 -68.5t67.5 -29.5q43 0 71 27.5t28 70.5q0 37 -29 66.5t-70 29.5q-37 0 -59 -22q-23 -18 -31 -39z" />
<glyph unicode="$" horiz-adv-x="651" d="M72 -422l358 1817h133l-364 -1817h-127z" />
<glyph unicode="%" horiz-adv-x="16" d="M-1204 14l4 58h94l10 -62q6 -35 27 -55q55 -72 405 -72h25l156 6q29 2 59.5 8.5t58.5 14.5q92 25 121 160l92 -9l2 -32q0 -176 -141 -270.5t-354 -94.5q-231 0 -395 78t-164 270z" />
<glyph unicode="&#x26;" horiz-adv-x="540" d="M74 -168q129 57 157 184l29 191l8 117l4 260l-6 284l-6 103q0 20 -3 48t-11 68q-25 170 -172 248v80q240 -55 307.5 -269t67.5 -562q0 -221 -17 -320q-12 -135 -60 -288.5t-298 -227.5v84z" />
<glyph unicode="'" horiz-adv-x="380" d="M61 139q0 47 37 84t97 37q27 0 42 -7t45.5 -39t30.5 -81t-36.5 -86t-88.5 -37q-55 0 -91 38t-36 91z" />
<glyph unicode="(" horiz-adv-x="399" d="M72 115q0 57 34.5 92t90.5 35q49 0 87 -34t38 -93q0 -49 -38 -87t-87 -38q-47 0 -88 35q-37 43 -37 90zM72 764q0 49 34 84q35 41 91 41q51 0 86 -41q39 -33 39 -84q0 -49 -39 -86q-35 -39 -86 -39q-53 0 -91 35q-35 39 -34 90z" />
<glyph unicode=")" horiz-adv-x="727" d="M88 406l76 172h477l-78 -172h-475z" />
<glyph unicode="*" horiz-adv-x="1359" d="M51 451q0 522 408 522q166 0 250 -121q59 117 223 117q174 0 266 -136t92 -337q0 -496 -342 -496l-43 2v102q88 0 129 29q41 20 72 64l31 61l18 78q12 55 12 143q0 264 -213 264q-98 0 -157 -84q-41 -76 -41 -180l4 -71h-154v49q0 307 -184 307q-113 0 -182.5 -103.5 t-69.5 -230.5t73.5 -226.5t217.5 -99.5v-102l-49 -2q-180 0 -270.5 127t-90.5 324z" />
<glyph unicode="+" d="M-537 -133q0 68 74 92l-45 10l84 74h148l-82 -55l45 -27q-35 0 -76 -27q-27 -6 -52.5 -31.5t-25.5 -52.5q0 -35 61 -51l68 -10q45 0 86 29l47 39l29 8l31 4q45 -16 59 -33.5t18 -46.5l-4 -35l-10 -41q-18 -29 -40.5 -43t-47.5 -18q-31 0 -126 51t-167 51q-27 2 -50.5 37 t-23.5 76z" />
<glyph unicode="," horiz-adv-x="1349" d="M51 346q0 301 175 493.5t481 192.5q258 0 421.5 -130t163.5 -384q0 -197 -111.5 -313.5t-303.5 -116.5q-162 0 -281 86t-119 250q0 139 90 211v67h140q4 -4 8 -30q0 -27 -9.5 -45.5t-27.5 -20.5q-70 -25 -70 -151q0 -88 58 -133q55 -31 104 -50q47 -12 100 -12 q125 0 216.5 67.5t91.5 200.5q0 203 -131.5 302.5t-335.5 99.5q-227 0 -345 -161t-118 -398q0 -240 126 -414t353 -174q186 0 279.5 51t134.5 115l26 53l21 68l16 16q20 16 35 16q12 0 35 -16l18 -16l-6 -47l-14 -50q-6 -33 -35 -77q-37 -68 -129 -123.5t-198.5 -83 t-188.5 -27.5q-276 0 -473 198.5t-197 485.5zM559 717l86 -31q41 -12 78 -12q51 0 96 28l47 39l29 9l31 4q43 -14 60.5 -34t17.5 -46l-5 -31l-10 -45q-20 -33 -50 -49.5t-60 -16.5q-47 0 -111 29q-164 68 -201 74z" />
<glyph unicode="-" horiz-adv-x="716" d="M88 406l76 172h477l-78 -172h-475z" />
<glyph unicode="." horiz-adv-x="1507" d="M57 520q0 215 79 316.5t160 140.5t200 39l55 -2l18 -15q16 -16 21 -30q0 -14 -27 -41l-12 -10h-35q-78 0 -135 -18.5t-130 -94.5t-73 -236q0 -154 108.5 -259t266.5 -105q129 0 223 48t94 167q0 127 -82 127q-18 0 -42.5 -12.5t-36.5 -45.5l4 -16h-99q-53 70 -53 172 q0 166 113 270q57 53 128.5 80t162.5 27q495 0 495 -557q0 -219 -95 -306t-196 -126l-57 -19l-76 -8l-32 -2h-19l-16 19q-18 25 -19 38q0 12 19 31l16 14l31 5q72 10 86 12t39.5 11t80 48t77 111t22.5 166q0 164 -103.5 270.5t-273.5 106.5q-106 0 -183 -45.5t-77 -143.5 l2 -31q53 49 107 50q203 0 202 -267q0 -174 -137 -282.5t-319 -108.5q-215 0 -312.5 107.5t-136.5 203.5l-24 99z" />
<glyph unicode="/" horiz-adv-x="1832" d="M45 514q0 143 74 273.5t209 201.5l49 15l76 28l57 33l47 29l59 43q70 51 70 100l-6 25l143 2l62 -2q-12 -115 -246 -242l39 2q137 0 190 -23q74 -18 117 -51l129 -104q86 -74 86 -307q0 -252 -162 -399.5t-424 -147.5q-229 0 -401 145q-168 156 -168 379zM172 557 q0 -170 137 -264t312 -94q193 0 329 84q131 88 131 272q0 166 -136 271.5t-318 105.5t-318.5 -99.5t-136.5 -275.5zM1219 340q0 428 374 807h-313v115h500l-2 -123q-301 -190 -363 -434l-47 -189l-16 -86q0 -74 37 -147q45 -76 118 -76q80 0 129 49q41 51 41 143h109l4 -67 q0 -135 -75 -233.5t-208 -98.5q-289 0 -288 340z" />
<glyph unicode="0" horiz-adv-x="1112" d="M55 631q0 246 124 443.5t372 197.5q238 0 334 -143.5t126.5 -262t30.5 -235.5q0 -258 -122.5 -448.5t-368.5 -190.5q-229 0 -362.5 194.5t-133.5 444.5zM256 631q0 -102 12.5 -199.5t46.5 -179.5q61 -172 236 -172q291 0 291 551t-291 551q-160 0 -227.5 -180.5 t-67.5 -370.5z" />
<glyph unicode="1" horiz-adv-x="782" d="M84 1104v55l199 43l108 17l96 10v-1055q0 -113 209 -113v-69h-596v69q82 0 142 21q57 29 57 94v785q0 152 -147 151h-39z" />
<glyph unicode="2" horiz-adv-x="1071" d="M72 127q270 184 470.5 385t200.5 414q0 111 -68.5 178t-182.5 67q-51 0 -82 -7t-94.5 -46t-63.5 -112q0 -33 27.5 -74t29.5 -64q0 -39 -33 -73q-35 -25 -73 -25q-115 0 -115 145q0 150 137 247.5t305 97.5q154 0 287 -93.5t133 -251.5q0 -172 -125 -299l-174 -167 l-135 -117l-244 -187h396q125 0 184 48q61 43 98 161l72 -18l-86 -336h-850z" />
<glyph unicode="3" horiz-adv-x="1013" d="M25 281q0 121 110 120q102 0 103 -90l-9 -45l-8 -41q0 -68 64 -94l104 -37l82 -8q129 0 209 73.5t80 211.5q0 297 -322 297l-96 -6v75l41 -4l41 -2q63 0 106 14q47 12 95 46q84 61 84 184q0 106 -66 166q-61 61 -170 61h-39l-43 -10q-12 0 -53 -25q-82 -37 -82 -102 l14 -51l15 -58l-6 -36q0 -14 -23 -31q-18 -18 -63 -19q-104 0 -105 113q0 141 127 219t283 78q168 0 287.5 -78t119.5 -229q0 -182 -276 -268q342 -56 342 -322q0 -184 -160 -289q-164 -96 -367 -96q-141 0 -280 81t-139 202z" />
<glyph unicode="4" horiz-adv-x="1097" d="M35 410q121 150 250 329l153 217l187 273h166v-791h262l-39 -108h-223v-156q0 -47 36 -88l39 -14l33 -6l66 -5v-69h-523v69q74 0 122 18.5t48 88.5v162h-540zM164 438h448v625z" />
<glyph unicode="5" horiz-adv-x="1052" d="M45 274q0 37 31 84q35 35 80 35q104 0 104 -96l-8 -43l-8 -45q0 -61 82 -94l67 -19l66 -4q147 0 233 98.5t86 251.5q0 133 -85 227.5t-226 94.5q-158 0 -272 -164l-78 25l6 260l8 387h514q111 0 160 67h67l-41 -211h-593l-5 -204l-4 -164q53 39 131 71l101 29l82 8 q182 0 312 -113.5t130 -293.5q0 -215 -147.5 -332t-376.5 -117q-123 0 -269.5 67.5t-146.5 194.5z" />
<glyph unicode="6" horiz-adv-x="1034" d="M37 623q0 145 30.5 259.5t136 261t374.5 146.5l61 -2q33 0 57 -8l68 -20q39 -12 88 -39q100 -43 100 -158q0 -92 -94 -92q-68 0 -92 53l-16 115q-39 70 -185 69q-330 0 -329 -542q145 164 337 163q88 0 161 -25.5t136 -82.5q125 -109 125 -285q0 -190 -136 -308 t-343 -118q-231 0 -355 173t-124 440zM244 418q0 -133 67 -223q55 -90 201 -91q129 0 205 89q37 43 55 100q8 25 14.5 60.5t6.5 70.5q0 129 -70 217t-203 88q-123 0 -205 -88q-72 -90 -71 -223z" />
<glyph unicode="7" horiz-adv-x="1042" d="M49 936l55 301h869l18 -104q-98 -131 -177 -254t-140 -238q-94 -201 -142 -354q-20 -74 -32.5 -150t-12.5 -137h-235q78 500 606 1094h-487q-109 0 -146 -25q-14 -12 -29.5 -26.5t-31.5 -32.5l-51 -90z" />
<glyph unicode="8" horiz-adv-x="1042" d="M25 346q0 211 292 318q-225 80 -225 272q0 150 144 262q123 80 299 80q160 0 282.5 -72.5t122.5 -222.5q0 -180 -256 -262q311 -103 311 -320q0 -184 -148.5 -294.5t-344.5 -110.5q-182 0 -329.5 90t-147.5 260zM188 342q0 -123 91 -199q94 -70 221 -69q61 0 113.5 12 t134 61.5t81.5 176.5q0 94 -160.5 198.5t-258.5 104.5q-90 -25 -156 -105t-66 -180zM256 995q0 -100 121 -172l88 -32l129 -35q199 61 199 235q0 102 -76 160.5t-182 58.5l-52 -2q-27 0 -53.5 -7t-58.5 -30l-74 -47q-41 -29 -41 -129z" />
<glyph unicode="9" horiz-adv-x="1052" d="M53 850q0 188 142.5 308t336.5 120q236 0 357 -175t121 -417q0 -285 -98.5 -434.5t-200 -202.5t-240.5 -53q-115 0 -246 55t-131 172q0 94 94 94q74 0 95 -59l30 -119q16 -23 60 -47q45 -16 110 -16q328 0 328 549q-145 -166 -338 -166q-180 0 -300 108.5t-120 282.5z M252 866q0 -135 70 -225q74 -84 198 -84q127 0 206 93.5t79 232.5q0 133 -68.5 218t-201.5 85q-139 0 -211 -89t-72 -231z" />
<glyph unicode=":" horiz-adv-x="1222" d="M47 500q0 426 430 426h74l53 -8l17 -13q12 -16 16 -41q0 -23 -16 -41l-17 -14l-117 8q-319 0 -319 -274q0 -336 405 -336q201 0 290 66.5t128 141t39 185.5q0 180 -62.5 296t-122 169t-143.5 86q-25 -49 -114 -86q-4 0 -61.5 -13.5t-84.5 -13.5l-88 6q-20 0 -43 9l-47 14 q-88 25 -88 98q0 25 19.5 58.5t54.5 48.5l-57 -29l-46 -10q-20 0 -34.5 8t-25.5 17.5t-19 19.5l-11 57q0 37 54 62l20 -2q16 -4 21 -9l36 -36q16 -12 45 -13h27l8 6h86t78 -4q61 0 111 -12q109 -18 201 -62t178 -112q248 -193 247 -588q0 -233 -174 -398t-403 -165t-395 129 q-150 133 -150 369zM289 1190q0 -25 55 -43l92 -14q107 -1 156 67q-82 35 -199 35h-76q-20 -8 -28 -45z" />
<glyph unicode=";" horiz-adv-x="1452" d="M0 942q0 53 78 86q16 0 43 -10l14 -4q23 -10 47 -39q18 -12 45 -19l52 -6q35 0 90 13l55 12v-189l8 54q0 23 -8 30l-27 25q-37 6 -94 -21q-150 -70 -180 -69q-25 0 -50.5 11t-58.5 44l-10 47zM41 432l233 232l150 143l4 35v22q0 37 -22 39l-27 -6l-43 -10l8 69 q41 18 70 19q39 0 67 -27q20 -18 51 -69q162 152 406 151q217 0 346 -154.5t129 -386.5q0 -215 -80 -314t-170 -142q-98 -33 -184 -33l-45 2l-4 111q154 0 239.5 101t85.5 249q0 162 -105.5 282.5t-262.5 120.5q-45 0 -95.5 -13t-109.5 -46q348 -55 348 -367 q0 -207 -143.5 -325.5t-349.5 -118.5q-158 0 -275 71.5t-117 215.5v26l9 41h-78zM223 461h49l9 -78q-18 -6 -19 -61q0 -96 39 -123l61 -37l52 -21l94 -8q145 0 241.5 80t96.5 238q0 111 -63.5 180t-174.5 69q-96 0 -211 -84z" />
<glyph unicode="&#x3c;" horiz-adv-x="1386" d="M47 315q0 68 10.5 121t16.5 68l26 59q55 113 156 170l-4 43q0 98 80 178t194 80l56 -2q35 0 73 -16q43 -12 101 -82q29 47 73 74q20 10 51 18t68 8q135 0 199.5 -88t64.5 -233v-29v-25l-4 -24l-665 -4q-61 0 -88 -35l-17 -31l-20 -39l-8 -51q0 -115 73 -180 q74 -55 133 -76l62 -14l65 -6q78 0 113 6l47 10l39 12l33 15l43 22q59 33 121 193l16 12q16 10 33 14q10 0 33 -12l16 -14q0 -92 -40 -160t-153 -152q-111 -74 -301 -73q-199 0 -291 80.5t-137 166.5l-22 84l-8 48l-2 47q-47 -106 -47 -215l6 -90l8 -41l14 -43 q25 -72 130.5 -185.5t301.5 -113.5q244 0 383.5 105t139.5 306l14 17q18 18 35 20q23 4 53 -22l14 -15q0 -250 -180 -400.5t-434 -150.5q-324 0 -499 162t-175 483zM399 750h281v14q0 55 -37 110q-41 43 -100 44q-143 0 -144 -168zM827 774l2 -35h254q0 174 -133 174 q-123 0 -123 -139z" />
<glyph unicode="=" horiz-adv-x="16" d="M-618 -66q0 76 75 146l97 -2l-11 -12l-22 -39l-21 -56v-26l6 -45q2 -16 21 -35l37 -21q20 -6 33 -16l77 -14l37 6l37 18l47 39l29 8l31 4q45 -16 59 -33.5t18 -45.5l-4 -35l-10 -41q-18 -31 -39.5 -45.5t-54.5 -14.5q-18 0 -189 74q-80 35 -143 35q-45 6 -77.5 52 t-32.5 99z" />
<glyph unicode="&#x3e;" horiz-adv-x="1359" d="M47 406q0 98 37 196q37 88 121 125l74 8l79 10l244 -4l2 25l2 37l-6 71q-2 30 -18 48l-23 22q-37 0 -135 -49t-152 -49q-29 0 -56.5 11t-55.5 44l-10 47l-5 35q0 53 78 86q16 0 43 -10l15 -4q23 -10 47 -39l53 -21l63 -6q25 0 50.5 2t52.5 8l20 7l29 -5q16 -4 31 -22 q16 -14 37 -55q4 -8 16 -29q2 -4 6 -10q6 33 22.5 55.5t36.5 36.5l27 16l21 8l18 3l20 2l84 -35l58 -10q39 0 82 28l47 39l28 8l31 4q43 -14 60.5 -33.5t17.5 -45.5l-4 -31l-10 -45q-18 -33 -48 -48.5t-61 -15.5q-53 0 -139 39q-121 55 -146 62q-29 -6 -47 -31 q-12 -23 -12 -53l2 -37q0 -23 4 -35v-21l379 -18q158 -92 158 -293q0 -178 -97.5 -308t-283.5 -130t-248 117q-80 -115 -283 -115q-152 0 -254 117.5t-102 290.5zM170 430q0 -117 82 -174q88 -53 209 -53q106 0 106 57q0 18 -56 55t-56 125q0 63 69 109l78 22l78 9 q221 0 221 -158q0 -49 -24 -80l-66 -45q-31 -16 -39 -29q0 -49 66 -63l108 -2q104 0 169 64.5t65 166.5q0 195 -207 195l-594 4q-92 0 -150.5 -52.5t-58.5 -150.5zM573 434q0 -14 43 -39q33 -12 60 -71q6 39 54 61t54 47q0 41 -100 41q-111 0 -111 -39z" />
<glyph unicode="?" horiz-adv-x="1861" d="M45 514q0 143 74 273.5t209 201.5l49 15l76 28l57 33l47 29l59 43q70 51 70 100l-6 25l143 2l62 -2q-12 -115 -246 -242l39 2q137 0 190 -23q74 -18 117 -51l129 -104q86 -74 86 -307q0 -252 -162 -399.5t-424 -147.5q-229 0 -401 145q-168 156 -168 379zM172 557 q0 -170 137 -264t312 -94q193 0 329 84q131 88 131 272q0 166 -136 271.5t-318 105.5t-318.5 -99.5t-136.5 -275.5zM1255 399l2 86l17 84q12 59 73.5 201.5t157.5 233.5h-243v92l202 71l-202 -2v105h475l-4 -90l-187 -84h183v-90q-139 -43 -238 -209q-43 -82 -66.5 -166 t-23.5 -170q0 -256 188 -256q72 0 84 24l37 144h96l6 -62q0 -119 -72.5 -214t-193.5 -95q-135 0 -217 121q-74 121 -74 276z" />
<glyph unicode="@" horiz-adv-x="958" d="M59 965q0 154 125 233q63 41 135 61.5t164 20.5q193 0 311.5 -78t118.5 -250q0 -98 -26 -139l-21 -29l-22 -24l-29 -31l-39 -27l-37 -18l-161 -80q-61 -31 -74 -80l-12 -67l-3 -47l-2 -107h-106v59q0 170 34 222.5t137 116t144 109.5t41 155q0 100 -53 147 q-49 49 -92 67.5t-100 18.5q-70 0 -167.5 -31.5t-97.5 -83.5l9 -22l24 -51l21 -74q0 -90 -111 -90q-47 0 -79 34.5t-32 84.5zM313 111q0 43 31 79q39 33 82 33t78 -31.5t35 -80.5q0 -39 -31 -82q-16 -16 -35 -25l-47 -8q-45 0 -80 35q-33 39 -33 80z" />
<glyph unicode="A" d="M-444 1548q8 59 29.5 76.5t72.5 17.5h35q47 -18 71 -51q18 -31 19 -82q0 -39 -19 -131q-6 -31 -13 -66.5t-7 -62.5l2 -26h-80l10 63l5 49q0 39 -10.5 60.5t-43.5 60.5l-49 37l-8 18zM-334 1051l2 172h78v-172h-80z" />
<glyph unicode="B" horiz-adv-x="1236" d="M45 514q0 158 75 282t218 199l113 37l26 12l25 15l86 74q70 63 69 129l117 2l51 -2q-43 -158 -184 -238l37 2q231 0 376.5 -127t145.5 -362q0 -252 -162 -399.5t-424 -147.5q-229 0 -401 145q-168 156 -168 379zM172 557q0 -170 137 -264t312 -94q193 0 329 84 q131 88 131 272q0 164 -137 267.5t-317 103.5q-184 0 -319.5 -93.5t-135.5 -275.5zM180 1157q0 43 37 96q37 37 96 37q47 0 97 -37q39 -39 39 -96q0 -55 -41 -94q-36 -39 -91 -39q-59 0 -88 29l-36 49zM272 1161q0 -47 45 -47t45 47q0 43 -45 43t-45 -43zM883 1149 q0 55 39 94q37 43 94 43q55 0 96 -41q41 -31 41 -94q0 -33 -8 -51q0 -12 -36 -48t-91 -36q-53 0 -94 40t-41 93zM977 1153q0 -45 43 -45q45 0 45 45t-45 45q-43 0 -43 -45z" />
<glyph unicode="C" horiz-adv-x="1140" d="M61 975q0 53 78 86q16 0 43 -10l15 -4q23 -10 47 -39q39 -23 80 -23q8 0 20 1t41 7q80 18 100 19q68 0 105 -31q37 -27 51 -82q188 139 410 139q221 0 331 -159l-65 -68q-31 -35 -66 -35q-22 1 -49 17q-120 79 -255 79h-3q-94 0 -182 -47l26 2q66 0 138 -36 q53 -31 136 -148t83 -268q0 -156 -89 -263.5t-233 -107.5q-66 0 -127 27q-59 31 -73 88q-61 -117 -228 -117q-84 0 -159 76q-70 82 -70 168q0 37 12 72.5t43 76.5l-57 -16l-49 61l28 39l37 43l86 84l156 135l110 84l3 37q0 27 -8.5 42.5t-41.5 29.5q-4 1 -9 1 q-41 0 -136 -44q-45 -23 -87 -37t-67 -14q-33 0 -59 10q-23 12 -51 43l-10 47zM295 492l63 -3l19 -63l-33 -25l-27 -34q-18 -35 -18 -64q0 -98 123 -98q84 0 108 55l21 70l4 37l4 108h133l-8 -82q0 -61 34 -124.5t101 -63.5q94 0 146 51q36 53 36 164q0 125 -90 217t-219 92 q-109 0 -397 -237z" />
<glyph unicode="D" horiz-adv-x="782" d="M49 332q0 147 68.5 246.5t216.5 99.5q66 0 176 -37l10 57l6 60q0 151 -133 151h-2q-49 0 -94 -39q-41 -47 -41 -98l4 -33h-127l-8 49q0 104 82 175q84 61 194 61q293 0 293 -250q0 -49 -24.5 -193.5t-24.5 -209.5q0 -53 18.5 -177t43.5 -194l-164 -4l-21 37l-18 65 q-76 -100 -195 -100q-121 0 -194 98q-66 100 -66 236zM190 371q0 -172 160 -172l82 12q52 12 60 41l-7 63l-8 68l4 53l8 68q-57 45 -122 45q-72 0 -124.5 -52.5t-52.5 -125.5z" />
<glyph unicode="E" horiz-adv-x="651" d="M33 1077q16 35 40.5 52.5t51.5 17.5q33 0 64.5 -19.5t50.5 -50.5q23 -47 86 -71q45 -16 108 -17h25q10 0 35 4l47 8v-110l-135 -33l-52 -12h181v-90q-129 -70 -228.5 -176.5t-99.5 -223.5q0 -76 35 -133q42 -71 121 -71h2l41 2l38 14l48 37l28 8l31 4q43 -14 60.5 -33.5 t17.5 -46.5l-4 -31l-11 -45q-29 -45 -74.5 -64.5t-107.5 -19.5q-31 0 -67.5 6.5t-81.5 20.5l-35 12q-23 0 -52.5 13.5t-70.5 60.5q-80 96 -80 221q0 121 74 240t194 203h-243v92l202 69l-14 7q-31 12 -57 16q-18 0 -56 -12l-16 -6q0 18 -51 81l-35 48q-4 6 -6 14t-4 14z" />
<glyph unicode="F" horiz-adv-x="1452" d="M0 942q0 53 78 86q16 0 43 -10l14 -4q23 -10 47 -39q18 -12 45 -19l52 -6q35 0 90 13l55 12v-189l8 54q0 23 -8 30l-27 25q-7 1 -14 1q-33 0 -80 -22q-148 -69 -179 -69h-1q-25 0 -50.5 11t-58.5 44l-10 47zM41 432l233 232l150 143l4 35v22q0 37 -22 39l-27 -6l-43 -10 l8 69q41 18 70 19q39 0 67 -27q20 -18 51 -69q72 68 177 102q55 16 107 24.5t122 8.5q102 0 176 -37q59 -31 129 -117l23 -39l8 -37q0 -27 -19.5 -48t-46.5 -21q-18 0 -33.5 8t-25.5 22q-104 121 -262 121q-45 0 -95.5 -13t-109.5 -46q348 -55 348 -367 q0 -207 -143.5 -325.5t-349.5 -118.5q-158 0 -275 71.5t-117 215.5v26l9 41h-78zM223 461h49l9 -78q-18 -6 -19 -61q0 -96 39 -123l61 -37l52 -21l94 -8q145 0 241.5 80t96.5 238q0 111 -63.5 180t-174.5 69q-96 0 -211 -84z" />
<glyph unicode="G" horiz-adv-x="1277" d="M37 424q0 211 72.5 303t154.5 131q82 35 185 35l55 -2q29 0 59 -8v-97l-102 7q-313 0 -314 -332q0 -109 54 -187q54 -73 167 -73h3q92 0 141 67.5t49 180.5l-2 51l131 2l-4 -58q0 -237 195 -237h2q217 0 217 360q0 188 -111.5 388t-288.5 200q-49 -98 -106 -137l-25 -12 l-51 -17q-37 -8 -57.5 -9t-32.5 -1q-74 0 -140.5 30.5t-66.5 92.5l12 41l-49 -2l-14 78q184 61 365 61q690 0 690 -795q0 -487 -357 -487q-80 0 -127 25l-30 22l-29 27l-43 73q-61 -147 -242 -147q-178 0 -269 117.5t-91 308.5zM319 1133q0 -63 89 -64q157 0 184 102l-103 3 q-117 0 -159 -17l-6 -14z" />
<glyph unicode="H" horiz-adv-x="1042" d="M35 942q0 53 78 86q16 0 43 -10l14 -4q23 -10 47 -39l43 -23l33 -4q14 0 31 8l36 15l35 6q23 0 43 -14q47 -31 74 -80l12 -37l6 -41q0 -152 -98 -236l-176 -112q-92 -84 -92 -277v-24l53 57q29 18 80 18q55 0 147 -43l84 -28q43 -12 64 -13q86 0 151 54q55 55 56 147 q0 86 -68 152l-125 75q-70 57 -69 177q0 252 245 252q100 0 162 -60q66 -55 66 -153q0 -51 -35 -95q-31 -47 -84 -47q-31 0 -72 29q-39 33 -39 72q0 49 74 104q-16 41 -88 41q-39 0 -76 -37q-24 -36 -24 -84q0 -53 108 -112q102 -43 168 -107q68 -59 68 -215 q0 -160 -112 -253t-288 -93q-109 0 -164 29l-96 47q-29 18 -53 20q-68 0 -119 -90h-127l-12 139q0 252 61.5 340t180.5 158q112 56 112 145q0 45 -28 72q-25 29 -70 29l-86 -45q-18 -10 -37.5 -16.5t-34.5 -6.5q-25 0 -47.5 12.5t-40.5 32.5l-10 47z" />
<glyph unicode="I" horiz-adv-x="1320" d="M37 442q0 131 53 205q66 94 207 94l276 -2q0 66 -34 121l-21 37q-18 29 -53 29q-6 1 -13 1q-31 0 -73 -22q-119 -61 -150 -65q-23 0 -48 12t-54 43l-10 47l-4 35q0 53 77 86q16 0 43 -10l15 -4q23 -10 47 -39q47 -29 92 -29l55 6l68 6l39 4q37 0 63.5 -31.5t49.5 -86.5 q8 57 73 100l39 22l62 5l86 -31q53 -14 82 -14q49 0 92 28l47 39l28 8l31 4q43 -14 60.5 -33.5t17.5 -45.5l-4 -31l-10 -45q-20 -35 -49 -50.5t-60 -15.5q-49 0 -148.5 47t-148.5 56q-63 0 -86 -43q-20 -48 -20 -138l364 -2l47 -14q27 -6 43.5 -19.5t36.5 -52.5 q4 -20 10 -30l17 -72l8 -90q0 -457 -590 -457q-653 0 -653 438zM168 455q0 -123 129 -179q131 -49 205 -67l76 -12l84 -4q104 0 176.5 15t162.5 56q158 74 158 242q0 33 -14 67q-6 37 -41 45q-18 -49 -70 -86q-57 -32 -96 -32h-2l-31 2q45 -45 45 -96q0 -147 -256 -148 q-309 0 -309 170q0 172 262 172l113 -4l108 -4q98 0 113 39l-684 -2q-129 0 -129 -174zM510 436q0 -43 43 -55l76 -12h67q131 0 131 43q0 59 -100 73l-143 2q-74 0 -74 -51z" />
<glyph unicode="J" horiz-adv-x="1116" d="M35 399q0 55 12 117l16 55l13 31l16 31l98 -27l-8 -22l-2 -6q0 -27 56 -27q72 0 186 100q51 45 88 94l45 80l8 39q0 23 -16 37q-4 1 -9 1q-42 0 -137 -44q-45 -23 -87 -37t-66 -14q-33 0 -60 10q-23 12 -51 43l-10 47l-4 35q0 53 78 86q16 0 43 -10l14 -4q23 -10 47 -39 q39 -23 88 -23q33 0 72 9l84 20q16 0 39.5 -18.5t50.5 -61.5q25 33 115 64q93 28 191 28h7q127 0 235.5 -44t192.5 -150q18 -25 19 -47q0 -47 -47 -47q-20 0 -41 20q-39 45 -153 93t-197 48l-31 -2q-137 -18 -275 -137l39 8l43 4q127 0 209 -97t82 -241q0 -188 -163 -296.5 t-369 -108.5q-190 0 -325.5 104.5t-135.5 298.5zM147 408q0 -129 101 -199q47 -29 102 -43l60 -10l67 -4q135 0 246 55t111 184q0 233 -193 234l-66 -7l-110 -92q-102 -86 -221 -86q-63 0 -92 21z" />
<glyph unicode="K" horiz-adv-x="1777" d="M43 57q0 16 4 25l8 20l150 230q-63 37 -94 92l-27 74l-18 59l-11 59v31q0 209 150.5 332t365.5 123l68 -2q35 0 59 -8l72 90l78 -60l-29 -67q35 -6 53 -17l48 -24q43 -25 75 -70q0 96 164 96q104 0 139 -79q29 77 141 77h3q184 0 227 -102l19 -43l16 -49l12 -53 q4 -31 10 -48l9 -94l2 -86q0 -223 -84.5 -390t-274.5 -167q-233 0 -274 240q-127 -240 -477 -240q-100 0 -199.5 48t-144.5 48q-49 0 -71 -6t-56 -51l-19 -18q-23 -18 -47 -21q-18 0 -35 17q-12 16 -12 34zM180 629q0 -121 86 -189l307 492l-51 4q-121 0 -192 -49l-84 -76 l-41 -57l-17 -52zM268 217l39 2q39 0 76 -10q51 -10 104 -35q111 -43 181 -43q154 0 252 104.5t98 266.5q0 139 -84 262t-217 141l-119 -182l29 2q66 0 121 -49q35 -41 63 -88l8 -39l4 -41q0 -117 -100 -196t-225 -79q-90 0 -189 43zM379 379q47 -37 92 -37q32 0 61 23 q-31 0 -71 28q-31 29 -31 70zM532 520q0 -10 25 -57q27 -23 61 -23q27 0 50.5 19.5t31.5 60.5q0 29 -23.5 57.5t-58.5 28.5q-31 0 -61 -24q-25 -25 -25 -62zM709 1102q20 16 71 201q37 145 156 145q18 -8 39.5 -18.5t34.5 -22.5q26 -22 26 -58q0 -30 -8 -55l-20 -37 q-8 -25 -17 -28l-26 -10l-31 -11q-53 -18 -76 -61q-39 -84 -47 -92zM1065 879q53 -100 79.5 -196.5t26.5 -143.5q0 -117 -30 -215l76 -2v-29q0 -180 135 -180q139 0 176 118l39 199l8 88l2 103q0 115 -18.5 203.5t-104.5 88.5q-109 0 -108 -155l2 -68l2 -57h-117l2 164 q0 135 -80 135q-90 0 -90 -53z" />
<glyph unicode="L" horiz-adv-x="1331" d="M51 510q0 205 116 339t318 134q82 0 136 -22q53 -18 112 -74q98 -96 98 -248q0 -104 -81.5 -198.5t-81.5 -174.5q0 -29 12 -51q23 37 74 37q35 0 73 -23q47 -18 80 -24q113 0 166 142t53 269q0 231 -135 383q-59 66 -219 117t-289 51q-7 1 -15 1q-36 0 -87 -23 q-160 -72 -199 -72q-33 0 -56 10t-56 43l-11 48l-4 34q0 53 78 86q16 0 43 -10l14 -4q23 -10 48 -39q10 -6 34.5 -16.5t49.5 -10.5l49 7l118 22l72 6l88 2q168 0 277 -47q90 -37 174 -123q172 -178 172 -491l-2 -88q0 -51 -13.5 -130t-56.5 -184q-68 -184 -258 -184 q-90 0 -135 47q-47 41 -74 51q-12 0 -41 -24q-18 -25 -24 -49q0 -20 10 -31l-117 -2l-8 18l8 86l-78 -80l-43 -12q-25 -6 -69 -6q-160 0 -240 157.5t-80 350.5zM168 473q0 -72 4 -82l18 -69q25 63 70 108q43 31 131 31q49 0 103 -37q27 -33 55 -102q0 45 10 82.5t17.5 55 t25.5 48.5q55 96 62 123q0 74 -64.5 131t-140.5 57q-291 0 -291 -346zM264 227q0 -41 29 -71.5t74 -30.5q27 0 63.5 30.5t36.5 71.5q0 39 -28.5 71t-71.5 32q-31 0 -67 -30t-36 -73z" />
<glyph unicode="M" horiz-adv-x="1277" d="M47 438l6 97q6 33 37 111.5t123 129.5l463 10q-12 70 -29 95q-28 41 -94 41q-4 1 -9 1q-46 1 -138 -49q-102 -54 -154 -55q-35 0 -56.5 9.5t-52.5 43.5l-10 48l-4 34q0 53 78 86q16 0 43 -10l14 -4q23 -10 47 -39q36 -24 80 -24h4l60 6l104 18q166 0 217 -51 q39 -39 39 -164v-74v-18l-442 6q-100 0 -160 -65q-55 -66 -55 -170q0 -123 145 -193l146 -45l71 -12l80 -4q117 0 177.5 19.5t113.5 51.5l59 37l76 60q84 68 84 276q0 141 -80 295t-211 215q-29 -53 -114 -86q-4 0 -61.5 -13.5t-84.5 -13.5l-88 6q-20 0 -43 9l-47 14 q-90 29 -90 94q0 47 26 74h-51v106l127 5q215 0 396.5 -62.5t310.5 -254t129 -400.5q0 -285 -150.5 -460t-439.5 -175h-51h-39q-25 4 -35 4q-45 0 -104 16q-94 23 -228.5 107t-134.5 317zM403 1196q0 -31 58 -49l92 -14h3q105 0 153 67q-82 35 -199 35h-74q-25 -12 -33 -39z " />
<glyph unicode="N" horiz-adv-x="1423" d="M43 377q0 178 80 246h-78l2 104l197 -2l270 2l2 39l2 41q0 37 -16 59l-27 35q-6 1 -13 1q-34 0 -87 -25q-154 -74 -195 -74q-35 0 -56 9t-52 44l-11 47l-4 35q0 53 78 86q16 0 43 -10l15 -4q23 -10 47 -39q49 -31 100 -31l55 6l86 31q35 0 64 -47q25 -35 47 -107 q43 96 123 150q80 49 217 49q211 0 335 -130t124 -353q0 -539 -486 -539l-63 2v98h18q186 0 294 99.5t108 283.5q0 135 -92.5 252t-231.5 117q-123 0 -209 -49q-84 -55 -84 -170q43 47 113 47q100 0 159.5 -77t59.5 -185q0 -195 -105 -287q-104 -74 -194 -106 q-92 -25 -189 -25q-166 0 -306 104.5t-140 272.5zM168 436q0 -109 98 -176q102 -53 238 -53q344 0 344 221q0 51 -39 94t-88 43q-57 0 -90 -100h-88l-21 70l-14 86h-201q-53 0 -102 -62l-27 -61l-6 -31z" />
<glyph unicode="O" horiz-adv-x="1275" d="M45 440q0 -178 87 -305t251 -127q209 0 246 142q27 -68 67 -97l58 -33l43 -12l69 -6q195 0 245 101.5t73 164.5l26 105q14 68 15 112l2 95q0 690 -629 690q-41 0 -94 -13l-78 -16l-59 -24l-45 -11q-29 0 -84 35l-25 21l-23 18l-20 6l-37 8q-45 -18 -59.5 -36.5 t-18.5 -51.5l4 -39l11 -41q49 -55 116 -55q43 0 195 66q31 12 55.5 17t46.5 5l60 12l32 -2l56 -2q236 0 346 -156.5t110 -394.5q0 -399 -210 -399q-195 0 -195 223l4 60l10 51h-145q0 -332 -178 -332q-86 0 -148 70q-57 74 -57 162q0 199 52 265t120 90.5t166 24.5h41v95 l-60 4q-225 0 -333.5 -121t-108.5 -369z" />
<glyph unicode="P" horiz-adv-x="1306" d="M55 440q0 119 47 191q59 92 215 133l246 -12l-18 100q-12 25 -66 25l-127 -66q-57 -29 -102 -29q-31 0 -59.5 12.5t-59.5 45.5l-10 47l-4 35q0 53 78 86q16 0 43 -11l14 -4q23 -10 47 -39q53 -32 99 -32h3q33 0 57.5 7t34 10t48.5 19q31 0 56 -19t50 -62l33 65l16 23 l27 22q14 12 57 29l82 8h27l41 -6l41 -10l41 -21q12 0 41 23l49 47l31 35l41 86l22 55l8 39l107 -51l-31 -72l-16 -37q-6 -16 -23 -33q-16 -33 -63 -73l-82 -80q59 -55 59 -150q0 -37 -25 -92q129 -53 130 -274q0 -203 -107 -267l-166 -82l-39 -16l-74 -25l-104 -14l-115 -6 q-600 0 -600 440zM176 471q0 -266 479 -266q162 0 315.5 55.5t153.5 194.5q0 98 -84 145q-45 -33 -102 -33q-86 0 -162 88h-108l-224 -2h-69h-43l-58 -10q-27 -2 -62.5 -55t-35.5 -117zM731 782l6 -28h29v10q0 55 18.5 89t77.5 77l-18 2q-35 0 -82 -49l-23 -49zM874 770 q0 -27 5 -35l18 -24q29 -18 61 -25q27 0 58 23q26 26 26 60q0 26 -24 56q-13 17 -62 29q-33 0 -57.5 -22.5t-24.5 -61.5z" />
<glyph unicode="Q" horiz-adv-x="12" d="M-1186 -231l4 30l11 45q20 33 56 48.5t71 15.5q63 0 135 -29l155 -67l35 8l39 8l25 -6l28 -2l56 -4q18 0 36.5 -4.5t30.5 -8.5q121 -32 171 -32h3l35 4v413l119 115l2 -641l-119 -20q-59 0 -208.5 43t-237.5 43l-92 30q-41 10 -74 11q-51 0 -96 -29l-48 -39l-28 -8 l-31 -4q-43 14 -60.5 33.5t-17.5 46.5z" />
<glyph unicode="R" horiz-adv-x="1988" d="M45 659l4 119h311l244 -4l-2 64q0 14 -14 51q-8 37 -27 39q-12 0 -54 -14.5t-111.5 -44t-112.5 -29.5q-68 0 -119 57l-10 47l-4 35q0 53 77 86q16 0 43 -10l15 -4q23 -10 47 -39l47 -21l63 -4q49 0 105 12l22 7q10 2 19 2q40 0 67 -37l45 -92q18 66 43 92t88 35l84 -35 l58 -10q39 0 82 28l47 39l28 8l31 4q43 -14 60.5 -33.5t17.5 -45.5l-4 -31l-10 -45q-20 -33 -49 -54q-29 -14 -60 -14q-41 0 -119 31q-106 43 -133 49q-37 0 -50 -35t-13 -92l276 4q4 1 8 1q27 1 83 -21q64 -24 78 -42t30 -53l20 -61l17 -70l8 -86q0 -186 -102.5 -314 t-284.5 -128q-164 0 -227 113q-47 -113 -261 -113q-147 0 -264 104q-106 106 -106 267q0 66 24.5 160t83.5 126zM211 412q0 -92 61 -154q63 -53 168 -53q215 0 215 235l-2 56h131l-2 -60q0 -104 43 -176q45 -57 136 -57q225 0 225 250q0 98 -37 147q-37 55 -137 55h-602 q-92 0 -148 -73q-51 -80 -51 -170zM1292 365q0 129 74 227t211 98q82 0 178 -39l12 54l5 61q0 156 -134 156q-49 0 -94 -45.5t-45 -96.5l6 -28h-125l-8 47q0 113 54.5 154.5t103.5 60.5l63 16l56 4q289 0 288 -250v-30l-2 -31l-2 -25l-22 -145q-18 -102 -19 -174 q0 -80 21 -195q12 -125 41 -174l-166 -2q-25 25 -37 101q-74 -98 -199 -99q-129 0 -198 103l-27 51l-20 65l-11 64zM1436 379q0 -168 163 -168q27 0 77.5 12t60.5 37l-8 70l-7 71l13 115q-49 43 -125 43q-63 0 -125 -49q-49 -53 -49 -131z" />
<glyph unicode="S" d="M-1133 1319q0 20 26 38.5t77 18.5l158 -2q27 0 82 -2t83 -2l152 6l86 -30q41 -12 78 -13l47 6q22 7 47 23l47 39l29 8l31 4q45 -16 59 -33.5t18 -46.5l-4 -30l-10 -46q-23 -37 -49.5 -51t-59.5 -14q-23 0 -48 6t-58 23q-158 68 -197 73h-28q-53 0 -92 -18.5t-74 -18.5 h-297q-102 0 -103 62zM-250 1313q0 -39 39 -39q41 0 41 37q0 18 -12 35l-29 8q-39 0 -39 -41z" />
<glyph unicode="T" horiz-adv-x="1333" d="M47 440l2 97v34q0 27 10 56q2 18 8.5 44.5t16.5 56.5t23.5 59.5t39.5 84.5q47 102 228 103q133 0 182 -92q29 53 66 82l36 16q8 2 23.5 5t32.5 5q104 0 170 -78q51 -70 51 -186q0 -117 -50 -166t-108 -74l-51 -12l-63 -4q-100 0 -192.5 60.5t-92.5 162.5q0 45 10 64 l19 43l20 28q-6 45 -49 45q-92 0 -140.5 -125.5t-48.5 -252.5q0 -66 12.5 -116t61.5 -110.5t174 -60.5q86 0 111 55q22 60 22 167v9h166l19 -118l8 -37l16 -45q10 -25 115 -25q244 0 244 403q0 551 -527 551l-63 9q-68 0 -158 -35t-150.5 -55.5t-80.5 -22.5q-33 0 -57 10 t-44 35l-10 74q0 39 16.5 61.5t67.5 48.5q16 0 43 -10l14 -4q23 -10 48 -39l38 -16l39 -6q31 0 68 12l70 24l84 19q12 4 46.5 9t47.5 7q655 0 655 -706q0 -231 -86 -411.5t-297 -180.5q-78 0 -129 30.5t-76 55.5q-16 20 -34 65q-18 -68 -90 -106.5t-146 -38.5 q-184 0 -282.5 123t-98.5 319zM500 731q0 -61 63 -100q63 -35 137 -35q76 0 107 55q-39 -25 -84 -33q-86 0 -135 50q-41 57 -41 147q-47 -37 -47 -84zM655 809q0 -29 17.5 -44t58.5 -32q62 0 74 66l-6 28q-6 20 -23 31q-12 18 -49 19q-25 0 -47 -21q-18 -12 -25 -47z" />
<glyph unicode="U" horiz-adv-x="1302" d="M45 479l2 105q2 29 4 41t10.5 48t21.5 74.5t34 83.5q72 160 250 160q133 0 176 -92q53 106 155 107q221 0 222 -244q0 -260 -281 -260q-106 0 -186 60.5t-80 156.5q0 61 35 123q-6 25 -17 32l-47 5q-80 0 -123 -115q-18 -55 -28.5 -110.5t-10.5 -114.5l2 -62q0 -29 9 -59 l12 -47l26 -60q47 -108 158 -108h2q129 0 129 67l-14 13q-6 12 -45 32q-31 25 -31 68q0 106 174 106q266 0 266 -112q0 -41 -51 -78q-41 -18 -53 -33q0 -59 82 -59q145 0 213 106q49 115 49 293q0 268 -162 414.5t-469 146.5q-4 1 -9 1q-41 0 -136 -44q-45 -23 -87 -37 t-67 -14q-33 0 -59 10q-22 12 -51 43l-11 48l-4 34q0 53 78 86q16 0 43 -10l14 -4q23 -10 48 -39q23 -14 47 -20l47 -2q14 0 31.5 1t48.5 7l67 18l139 17q641 0 642 -693q0 -215 -87.5 -396t-289.5 -181h-47l-33 8l-31 10l-47 31q-43 20 -78 98q-18 -61 -86 -104 q-68 -37 -143 -37q-193 0 -283 133t-90 348zM489 752q0 -129 187 -129q98 0 110 51l-75 -27q-178 0 -179 184q-43 -31 -43 -79zM590 358l16 -12l10 -2l17 -4l20 -51q6 35 23 51l20 4l13 14q0 23 -64 23q-49 0 -55 -23zM641 827q0 -31 18 -49l58 -20q67 0 67 63q0 25 -18 43 q-12 18 -55 31q-29 0 -45 -16q-16 -12 -25 -52z" />
<glyph unicode="V" horiz-adv-x="1302" d="M45 401q0 178 86 240h-86v123l109 -2l184 -4h266l2 24l2 27q0 29 -22 49l-25 27q-12 12 -41 14q-4 1 -9 1q-41 0 -136 -44q-45 -23 -87 -37t-67 -14q-33 0 -59 10q-23 12 -51 43l-11 47l-4 35q0 53 78 86q16 0 43 -10l14 -4q23 -10 48 -39q39 -23 79 -23q8 0 20.5 1 t41.5 7q84 18 106 19q82 0 144 -35q61 -30 61 -106v-193l-389 2q-59 0 -109 -51l-26 -39l-21 -43l-8 -70q0 -88 53.5 -159.5t143.5 -71.5q129 0 162 88q16 47 24 102l8 142h144q-12 -49 -13 -111q0 -223 193 -223q213 0 213 328v53v33l-4 24q0 39 -10 72l-9 47l-20 53 l-27 66q-14 43 -39 92q-43 104 -211 174q-25 -49 -105.5 -81t-154.5 -32l-90 6l-63 11l-51 16q-66 23 -66 90q0 47 27 74h-50v106l129 5q885 0 885 -844q0 -199 -90 -354.5t-274 -155.5h-47l-33 8l-31 10l-47 31q-43 20 -78 98q-18 -61 -86 -104q-68 -37 -143 -37 q-166 0 -269.5 112.5t-103.5 290.5zM373 1190q0 -25 57 -43l90 -14h3q107 0 153 67q-82 35 -199 35h-76q-16 -6 -28 -45z" />
<glyph unicode="W" horiz-adv-x="1218" d="M23 303q0 80 12 148.5t53 142.5q68 141 195 180l223 12h395q-6 47 -57 103q-39 37 -78 55.5t-61 18.5q-4 1 -9 1q-41 0 -137 -44q-45 -23 -87 -37.5t-66 -14.5q-33 0 -60 11q-22 12 -51 43l-10 47l-4 35q0 53 77 86q16 0 43 -11l15 -4q23 -10 47 -39l39 -16l39 -6l84 12 l80 14q201 0 280.5 -85t79.5 -287v-23l-539 2q-143 0 -221 -101.5t-78 -254.5q0 -193 84 -269.5t167 -106.5t173 -30q176 0 244 47.5t103.5 82t66.5 90t31 141.5l14 16q30 30 53 30q4 0 8 -1q10 -2 29 -21l12 -18q0 -125 -38.5 -217t-163.5 -189.5t-381 -97.5 q-246 0 -426 155.5t-180 399.5z" />
<glyph unicode="X" horiz-adv-x="1341" d="M72 395q0 156 46 258.5t144 122.5h383l-8 82q-11 57 -66 57q-6 1 -14 1q-36 0 -90 -25q-164 -80 -203 -80q-35 0 -59.5 12.5t-46.5 38.5l-4 41l-4 37q0 29 12 50.5t53 37.5h68q23 -10 47 -39q36 -24 86 -24h4l63 6l64 18q45 0 100 -24q41 -18 61.5 -50t43.5 -98 q4 -12 15 -61t19 -88l-256 2q-180 0 -263 -57.5t-83 -229.5q0 -98 64 -156q63 -53 164 -53l39 2q23 0 51 9.5t84 146.5l45 190h84l-6 -141q0 -209 180 -209q127 0 193.5 119t66.5 258q0 270 -142.5 440t-420.5 170l-27 2h-22q-92 0 -203 -49q-55 -23 -88 -34t-51 -13 q-53 0 -101 53l-10 47l-4 35q0 53 78 86q16 0 43 -10l14 -4q23 -10 47 -39q39 -23 72 -23l135 19l131 8q246 0 424 -147.5t197 -280.5l18 -191l4 -106q0 -135 -48 -276.5t-145.5 -191.5t-129.5 -50q-209 0 -258 129q-25 -53 -115 -98l-78 -23l-76 -8q-154 0 -237.5 117.5 t-83.5 283.5z" />
<glyph unicode="Y" horiz-adv-x="1462" d="M43 502l6 108l8 49l19 64q23 68 123 179.5t321 111.5l23 -10q20 -14 22 -41q0 -18 -30 -41l-15 -7q-39 0 -70.5 -9t-70.5 -27l-62 -37q-16 -12 -32.5 -27.5t-34.5 -38.5q-72 -76 -72 -227q0 -150 99.5 -246t250.5 -96q131 0 222.5 61.5t91.5 194.5q0 25 -24.5 57.5 t-51.5 42.5q-63 0 -96 -90h-82q-49 68 -49 189q0 35 12 94q49 141 151 205q115 57 273 57q213 0 326.5 -143.5t113.5 -366.5q0 -233 -125 -370.5t-356 -137.5h-29l-31 4l-12 6q-23 16 -28 37q0 16 26 41l14 10l78 4l4 17q0 98 19.5 148t77.5 102l49 22l53 8q45 0 107 -43 q12 31 12 97q0 154 -87 275.5t-251 121.5q-76 0 -112 -7t-103 -44q-63 -39 -64 -146l2 -26q47 43 107 43q92 0 142 -77t50 -169q0 -96 -27.5 -175t-116.5 -162t-298 -83q-195 0 -334 142.5t-139 355.5zM1053 109q90 18 170 147q-18 37 -62 37q-47 0 -71 -33l-27 -63l-10 -45 v-25v-18z" />
<glyph unicode="Z" horiz-adv-x="1409" d="M178 317v891h850l172 -184v-881h-858zM221 334h799v829h-799v-829z" />
<glyph unicode="[" horiz-adv-x="2181" d="M23 440l28 39l37 43l86 84l156 135l110 84v9q0 49 -39 81q-35 35 -90 35q-39 0 -78.5 -19.5t-48.5 -58.5l9 -16l28 -31l17 -20l14 -23l8 -41q0 -35 -31 -69q-31 -25 -79 -37q-41 0 -91 49q-37 55 -36 102q0 106 80.5 185.5t197.5 79.5q209 0 248 -152q197 147 479 148 l84 -3q33 0 121 -20q96 -12 125 -53q86 43 231 43q358 0 359 -330l-2 -43l-177 -2l-194 -2q-127 0 -154 -16q-47 -18 -90 -93q-33 -82 -33 -139q0 -135 117 -209q121 -68 271 -67q201 0 337 84l23 -103l-74 -31l-76 -28q-76 -25 -145 -37q-14 -33 -14 -64q0 -150 170 -149 q207 0 207 233l94 5l4 -74q0 -295 -318 -295q-129 0 -203.5 56.5t-74.5 172.5l2 60l12 47q-526 0 -526 395q0 221 174 315q-41 45 -41 93q-72 109 -264 108q-170 0 -303 -76l26 2q66 0 138 -36q53 -31 136 -148t83 -268q0 -156 -89.5 -263.5t-232.5 -107.5q-66 0 -127 27 q-59 31 -74 88q-61 -117 -227 -117q-86 0 -143 57q-41 51 -70 101q-16 45 -16 86q0 37 12 72.5t43 76.5l-57 -16zM203 492l63 -3l19 -63l-33 -25l-27 -34q-18 -35 -18 -64q0 -98 123 -98q84 0 108 55l21 70l4 37l4 108h133l-8 -82q0 -61 33.5 -124.5t101.5 -63.5 q94 0 145 51q37 53 37 164q0 125 -90 217t-219 92q-109 0 -397 -237zM1444 745l389 -6q-41 164 -240 164q-53 0 -73.5 -16.5t-22.5 -36.5l-16 -47q-6 -23 -37 -58z" />
<glyph unicode="\" horiz-adv-x="2187" d="M23 440l28 39l37 43l86 84l156 135l110 84q0 51 -36.5 88t-92.5 37q-39 0 -78.5 -19.5t-48.5 -58.5l9 -16l26 -33l17 -20l16 -29l8 -33q0 -35 -31 -69q-31 -25 -79 -37q-41 0 -91 49q-37 55 -36 102q0 106 80.5 185.5t197.5 79.5q209 0 248 -152q197 147 479 148 q78 0 183.5 -18.5t146.5 -55.5q94 41 231 41q358 0 359 -330l-2 -43l-177 -2l-192 -2q-115 0 -170 -21q-35 -12 -78 -94l-20 -67l-6 -62q0 -141 116.5 -208.5t270.5 -67.5q188 0 335 84l23 -101l-37 -20q82 -31 111 -84q16 -27 24 -60.5t8 -82.5q0 -217 -215 -218l-49 3 q-14 0 -39 12v96q25 -12 54 -12q109 0 108 133q0 150 -123 149l-49 -2l-55 -12l-76 -12l-55 -6q-549 0 -549 405q0 209 172 311q-41 45 -41 95q0 25 -98 43l-156 22l-94 8q-92 0 -123 -10q-49 -6 -96 -33l26 2q66 0 138 -36q53 -31 136 -148t83 -268q0 -156 -89.5 -263.5 t-232.5 -107.5q-66 0 -127 27q-59 31 -74 88q-61 -117 -223 -117q-86 0 -162 76q-72 84 -71 168q0 37 12 72.5t43 76.5l-57 -16zM203 492l63 -3l19 -63l-33 -25l-27 -34q-18 -35 -18 -64q0 -98 123 -98q84 0 108 55l21 70l4 37l4 108h133l-8 -82q0 -61 33.5 -124.5 t101.5 -63.5q94 0 145 51q37 53 37 164q0 125 -90 217t-219 92q-109 0 -397 -237zM1444 745l389 -6q-41 164 -240 164q-53 0 -73.5 -16.5t-22.5 -36.5l-16 -47q-6 -23 -37 -58z" />
<glyph unicode="]" horiz-adv-x="1024" d="M63 1026q0 96 66 164q25 25 72 45q23 8 47 14t49 6q92 0 158.5 -62.5t66.5 -164.5q0 -98 -60.5 -163.5t-164.5 -65.5q-86 0 -164 61q-70 63 -70 166zM76 0l704 1262h168l-696 -1268zM176 1016q0 -37 33 -72q20 -16 88 -35q109 0 109 123q0 43 -39 76t-88 33 q-33 0 -72 -39q-31 -37 -31 -86zM500 238q0 96 68.5 160.5t162.5 64.5q106 0 168 -59.5t62 -163.5q0 -98 -33 -134l-62 -55l-41 -26q-35 -12 -94 -13q-96 0 -163.5 60.5t-67.5 165.5zM612 225q0 -43 39 -72.5t86 -29.5q43 0 78 35q29 39 29 86q0 49 -40 77.5t-89 28.5 q-43 0 -76 -39l-16 -35z" />
<glyph unicode="^" horiz-adv-x="540" d="M76 573q0 201 16 306v39q6 23 8 30l15 80l14 66l27 82q43 160 297 229v-80q-141 -55 -168 -223l-6 -86l-11 -68l-8 -114l-4 -261q0 -311 24.5 -491t172.5 -258v-82q-233 55 -283.5 209.5t-77.5 320.5l-12 144z" />
<glyph unicode="_" d="M-918 1163q0 125 99.5 203t228.5 78q141 0 243.5 -85t102.5 -226l-2 -58q0 -18 -14 -53h-119q12 49 12 90q0 205 -204 205q-63 0 -129 -33q-70 -31 -70 -90q0 -84 72 -84h14q-33 12 -33 78q0 92 131 92q135 0 135 -131q0 -164 -247 -164q-47 0 -71 6t-46 25l-47 28 q-55 41 -56 119zM-618 1171q0 -18 30 -28q27 -1 35 28q0 31 -33 31q-23 0 -32 -31z" />
<glyph unicode="`" horiz-adv-x="391" d="M55 1186q0 59 39 104q45 41 105 41q55 0 102 -45q43 -37 43 -100l-2 -74l-2 -88q0 -156 -13.5 -257t-39.5 -183l-23 -90q-25 -64 -80 -64q-37 0 -61 68q-18 63 -31 75l-24 314v65v47q-4 31 -5 43zM115 203q0 33 21 56.5t54 23.5t56 -23q25 -18 24 -53q0 -31 -19.5 -51.5 t-53.5 -26.5q-29 0 -55.5 18.5t-26.5 55.5z" />
<glyph unicode="a" d="M-444 1548q8 59 29.5 76.5t72.5 17.5h35q33 -10 61.5 -38.5t28.5 -87.5q0 -10 -6 -48t-19.5 -104t-13.5 -102l2 -27v-18v-166h-80l2 172l10 61l5 49q0 63 -56 123l-49 37l-8 18z" />
<glyph unicode="b" horiz-adv-x="1228" d="M39 520q0 244 154.5 378t406.5 134q236 0 406 -146.5t170 -383.5q0 -432 -336 -514q37 0 66.5 -41t29.5 -82q0 -242 -399 -242q-129 0 -254 56.5t-125 175.5q0 200 225 200h2l37 -2v-106l-33 2l-43 -2l-41 -17q-29 -12 -29 -51q0 -94 295 -94q242 0 242 82q0 88 -266 88 l-4 102q246 0 368.5 98.5t122.5 352.5q0 123 -129 233.5t-266 110.5q-199 0 -334 -90t-135 -260q0 -287 307 -287h94l50 31q55 37 72.5 66.5t29.5 86.5l8 50q-18 35 -48 51t-69 16q-35 0 -65 -10q-31 -6 -74 -25l-26 -18l-29 -12l-33 -5l-29 3q-61 41 -61 79l6 35l21 49 q45 45 77 45q27 0 93.5 -45t117.5 -45q31 0 68 13q78 -20 106 -86l9 -60l2 -6l8 -43q0 -29 -10.5 -66.5t-23.5 -65.5t-40 -56q-100 -106 -256 -107q-197 0 -323 113q-113 113 -113 317z" />
<glyph unicode="c" horiz-adv-x="1284" d="M39 440q0 188 117 273l59 26l82 13h246q0 25 -4 36v27v39q0 35 -29 49l33 80l28 -14q25 -10 68 -88l12 41l19 26l37 43l32 37l45 41l109 76l78 47l90 47q72 33 172 33l47 -92l-131 -37l-59 -19l-43 -16l-78 -33l-43 -20l-35 -25q154 0 192 -69q29 -55 47 -152 q0 -27 -18 -82q127 -43 127 -285q0 -217 -100 -286l-86 -50l-74 -38q-55 -25 -117 -43l-94 -17l-129 -8q-600 0 -600 440zM119 944l4 -39l10 -41q25 -29 50.5 -42t56.5 -13q37 0 176 70q50 25 81 25q7 0 13 -1l33 80l-68 -25q-37 -12 -74 -12q-47 0 -100 33l-25 20l-22 19 l-21 6l-36 8q-45 -18 -59.5 -36.5t-18.5 -51.5zM166 477q0 -272 473 -272q145 0 309 55.5t164 194.5q0 117 -59 163q-72 39 -166 39l-64 -2l-61 -2q-461 0 -488 -10q-39 -6 -73.5 -58.5t-34.5 -107.5zM715 774l2 -18l278 2l4 35q0 70 -34 92q-18 16 -52 30.5t-69 14.5 q-43 0 -90 -49q-39 -51 -39 -107z" />
<glyph unicode="d" horiz-adv-x="462" d="M12 1032q23 57 78 58q43 0 88 -43t45 -91l-2 -129v-129v-94l8 -108l-32 -95q-14 -51 -15 -86q0 -43 27 -90l39 -49l8 -29l4 -28q-14 -43 -33.5 -58.5t-48.5 -19.5l-74 12q-37 25 -51 52.5t-14 60.5q0 25 6 50.5t23 64.5q69 165 75 204l-2 11q0 53 -18.5 92t-18.5 74 l2 210l3 46q0 45 -19 69q-6 8 -49 29z" />
<glyph unicode="e" horiz-adv-x="651" d="M47 319q0 160 88 328q43 86 82 131t113 94l-37 25q-16 10 -38 18.5t-34 8.5q-18 0 -55 -13l-16 -6q0 18 -52 82l-35 47q-4 6 -6 14.5t-4 14.5q16 35 41 52.5t51 17.5q33 0 65 -19.5t51.5 -55.5t60.5 -54q43 -14 92 -15q47 0 102 15l45 14v-117q-31 -12 -56.5 -30.5 t-55.5 -47.5q-49 -47 -152 -190q-94 -137 -94 -271q0 -86 41 -155q51 -88 133 -88q33 0 67 14l66 80l29 8l30 4q43 -14 60.5 -33.5t17.5 -46.5l-4 -30l-10 -45q-25 -43 -71 -60.5t-101 -17.5q-43 0 -81 6t-83 22q-78 27 -94 50q-57 27 -109 102q-47 76 -47 147z" />
<glyph unicode="f" horiz-adv-x="1028" d="M39 514q0 227 129 368.5t360 141.5q184 0 294 -67.5t155 -239.5l-105 -2q-37 194 -298 194h-3q-188 0 -291.5 -90t-103.5 -272q0 -340 371 -340q121 0 208 47t87 168q0 61 -39 137t-98 76l14 -43q12 -31 12 -62q0 -72 -69 -133q-70 -53 -140 -53q-61 0 -139 57 q-61 53 -61 136q0 247 280 247h2q154 0 261.5 -93t107.5 -247l-6 -96q-6 -47 -23 -84q-25 -74 -125 -168t-303 -94q-197 0 -338 148q-70 74 -104.5 163.5t-34.5 200.5zM438 555q0 -37 28 -65.5t64 -28.5q33 0 39 4l25 22q29 25 29 66q0 35 -19.5 56.5t-38.5 29.5l-35 6 q-27 0 -34 -4l-15 -8l-20 -19q-23 -23 -23 -59z" />
<glyph unicode="g" horiz-adv-x="1265" d="M47 475q0 401 475 402h51l58 -5l24 -18q25 -23 21 -45q-2 -20 -31 -43l-14 -10l-117 6q-321 0 -321 -256q0 -149 125.5 -223t293.5 -74q217 0 341 114.5t124 323.5q0 242 -114.5 375t-350.5 133h-47h-47q-23 4 -31 4q-7 1 -15 1q-34 0 -85 -21q-160 -68 -201 -68 q-31 0 -59.5 12.5t-56.5 42.5l-11 48l-4 34q0 53 78 86q16 0 43 -10l14 -4q23 -10 48 -39q61 -37 110 -37q35 0 78 13l53 20l82 16l78 15q276 0 429 -174t153 -459q0 -150 -38 -259.5t-162 -243.5t-409 -134q-219 0 -392 123t-173 354z" />
<glyph unicode="h" horiz-adv-x="1359" d="M43 514q0 504 432 504l115 -4l16 -10q16 -16 15 -41l-5 -17l-6 -12l-10 -12l-6 -4l-121 6q-147 0 -227 -98.5t-80 -256.5q0 -131 65.5 -242.5t196.5 -111.5q109 0 162 78q16 37 24 80l9 112h141l6 -123q6 -55 23 -81q47 -76 180 -76q92 0 162 78l22 32l27 54q16 39 16 92 q0 217 -176 217h-362v27q0 160 61 239q16 18 37 29l45 8l33 -2l51 -6l110 -15h25q14 0 33.5 6.5t42.5 20.5l47 39l29 8l30 4q43 -14 60.5 -33.5t17.5 -46.5l-4 -30l-10 -45q-20 -33 -50 -49.5t-61 -16.5q-47 0 -110 29q-164 68 -201 74q-37 -12 -51 -41q-12 -29 -13 -72v-27 l383 -4q156 -82 156 -319q0 -176 -103.5 -319.5t-283.5 -143.5q-90 0 -155.5 34.5t-96.5 106.5q-55 -137 -262 -137q-197 0 -288 154.5t-91 363.5z" />
<glyph unicode="i" horiz-adv-x="1368" d="M45 659l4 119h311l244 -4l-2 64q0 14 -14 51q-8 37 -27 39q-12 0 -54 -14.5t-111.5 -44t-112.5 -29.5q-68 0 -119 57l-10 47l-4 35q0 53 77 86q16 0 43 -10l15 -4q23 -10 47 -39l47 -21l63 -4q49 0 105 12l22 7q10 2 19 2q40 0 67 -37l45 -92q18 66 43 92t88 35l84 -35 l58 -10q39 0 82 28l47 39l28 8l31 4q43 -14 60.5 -33.5t17.5 -45.5l-4 -31l-10 -45q-20 -33 -49 -54q-29 -14 -60 -14q-41 0 -119 31q-106 43 -133 49q-37 0 -50 -35t-13 -92l276 4q4 1 8 1q27 1 83 -21q64 -24 78 -42t30 -53l20 -61l17 -70l8 -86q0 -186 -102.5 -314 t-284.5 -128q-164 0 -227 113q-47 -113 -261 -113q-147 0 -264 104q-106 106 -106 267q0 66 24.5 160t83.5 126zM211 412q0 -92 61 -154q63 -53 168 -53q215 0 215 235l-2 56h131l-2 -60q0 -104 43 -176q45 -57 136 -57q225 0 225 250q0 98 -37 147q-37 55 -137 55h-602 q-92 0 -148 -73q-51 -80 -51 -170z" />
<glyph unicode="j" horiz-adv-x="1261" d="M29 432q0 92 18.5 155.5t99.5 139.5l33 12l62 17l49 4h26l21 -2h291l10 41l4 28q0 20 -7 31.5t-34 18.5h-16q-31 -6 -86 -37q-109 -55 -158 -56q-35 0 -59.5 11.5t-49.5 40.5l-10 47l-4 35q0 53 78 86q16 0 43 -11l14 -4q23 -10 47 -39q20 -12 41 -18l39 -6l56 6l98 18 q63 0 84 -94q4 -27 6 -61.5t2 -110.5v-35h-416q-145 0 -145 -192q0 -119 149.5 -183.5t294.5 -64.5q215 0 343 116.5t128 338.5q0 229 -131 368q-59 61 -196.5 106.5t-266.5 45.5q-4 1 -8 1q-41 0 -141 -53q-109 -57 -162 -57q-35 0 -59 12t-47 39l-11 48l-4 34q0 53 78 86 q16 0 43 -10l14 -4q23 -10 48 -39q37 -20 73 -20q31 0 94.5 18t81.5 18q170 0 327 -34.5t237 -112.5q168 -162 168 -475q0 -283 -168 -458t-451 -175q-211 0 -391 114.5t-180 315.5z" />
<glyph unicode="k" horiz-adv-x="1452" d="M35 399q0 55 12 117l16 55l13 31l16 31l98 -27l-8 -22l-2 -6q0 -27 56 -27q72 0 186 100q51 45 88 94l45 80l8 39q0 23 -16 37q-4 1 -9 1q-41 0 -137 -44q-45 -23 -87 -37t-66 -14q-33 0 -60 10q-22 12 -51 43l-10 47l-4 35q0 53 78 86q16 0 43 -10l14 -4q23 -10 47 -39 q18 -12 45 -19l51 -6q35 0 91 13l55 12q25 0 43 -17q20 -12 51 -57q92 127 315 127q453 0 453 -539q0 -487 -430 -487l-43 2l-18 14q-18 18 -19 31q0 31 35 51q166 0 249 94.5t83 254.5q0 170 -84 279.5t-258 109.5q-135 0 -269 -111l39 8l43 4q127 0 209 -97t82 -241 q0 -188 -163 -296.5t-369 -108.5q-190 0 -325.5 104.5t-135.5 298.5zM147 408q0 -129 101 -199q47 -29 102 -43l60 -10l67 -4q135 0 246 55t111 184q0 233 -193 234l-66 -7l-110 -92q-102 -86 -221 -86q-63 0 -92 21z" />
<glyph unicode="l" horiz-adv-x="1443" d="M-31 975q0 53 78 86q16 0 43 -10l14 -4q23 -10 48 -39q39 -23 79 -23q8 0 20.5 1t41.5 7q80 18 100 19q68 0 105 -31q37 -27 51 -82q188 139 409 139t332 -159.5t111 -386.5q0 -203 -87 -345.5t-286 -142.5l-14 2l-13 10q-12 14 -18 29l-2 14l12 29l17 18h8l45 3 q18 0 46 13t50 34l43 45l21 43l20 61q18 55 19 137l-2 84q0 39 -15 90q-12 96 -134 176t-259 80q-94 0 -182 -47l26 2q66 0 138 -36q53 -31 136 -148t83 -268q0 -156 -89.5 -263.5t-232.5 -107.5q-66 0 -127 27q-59 31 -74 88q-61 -117 -227 -117q-84 0 -160 76 q-69 81 -69 166q0 39 12 74.5t43 76.5l-57 -16l-49 61l28 39l37 43l86 84l156 135l110 84l2 37q0 27 -8 42.5t-41 29.5q-4 1 -9 1q-41 0 -136 -44q-45 -23 -87 -37t-67 -14q-33 0 -59 10q-22 12 -51 43l-9 47zM203 492l63 -3l19 -63l-33 -25l-27 -34q-18 -35 -18 -64 q0 -98 123 -98q84 0 108 55l21 70l4 37l4 108h133l-8 -82q0 -61 33.5 -124.5t101.5 -63.5q94 0 145 51q37 53 37 164q0 125 -90 217t-219 92q-109 0 -397 -237z" />
<glyph unicode="m" horiz-adv-x="1298" d="M25 442q0 221 145 285l51 10l74 2h268l4 45l4 47q0 35 -9 50.5t-34 27.5q-5 1 -10 1q-44 0 -132 -43q-99 -48 -153 -48q-31 0 -56 11.5t-58 43.5l-10 48l-5 34q0 53 78 86q16 0 43 -10l15 -4q23 -10 47 -39q55 -37 112 -37l56 6l69 25q55 0 73.5 -12.5t55.5 -89.5 q25 61 62 85q30 20 61 20q8 0 15 -1q49 -6 94 -20l65 -11q43 0 86 29l49 41l29 8l31 4q43 -14 60.5 -33.5t17.5 -46.5l-4 -30l-11 -45q-20 -35 -50 -51.5t-62 -16.5q-43 0 -109 27q-156 63 -199 69q-35 -25 -34 -84v-37l2 -43h135h174q59 -6 96 -19t45 -21q23 -25 37 -74 l21 -84l6 -82q0 -467 -590 -467q-276 0 -465.5 98.5t-189.5 345.5zM158 473q0 -141 164.5 -202.5t341.5 -61.5q98 0 176 14.5t157 50.5q150 66 150 228q0 123 -123 123l-735 4q-59 0 -99 -45q-33 -59 -32 -111z" />
<glyph unicode="n" horiz-adv-x="1292" d="M37 451q0 106 24.5 192t117.5 208t315 122q147 0 248.5 -81t101.5 -235q0 -98 -73 -188t-73 -135q0 -55 54 -94q53 -35 118 -35q90 0 147.5 135t57.5 260q0 248 -121 393q-59 72 -167.5 125t-221.5 53q-66 0 -151 -30q-186 -68 -226 -72q-68 0 -118 57l-11 48l-4 34 q0 53 78 86q16 0 43 -10l14 -4q23 -10 48 -39q47 -27 112 -27q49 0 89 9.5t71 17.5t59 21q162 0 292 -44.5t216 -136.5q170 -180 170 -489q0 -119 -20 -213q-10 -49 -33 -109l-23 -59l-34 -72q-68 -141 -265 -141h-36q-18 0 -50 4t-75 18q-53 25 -127 101l-52 -51l-24 -23 l-19 -16q-53 -29 -135 -29q-147 0 -235 139q-41 76 -62 150q-8 33 -14 76t-6 84zM156 461q0 -63 26 -123q53 141 203 141q123 0 172 -131v21q0 41 61.5 123.5t61.5 146.5q0 203 -213 203q-147 0 -207.5 -82t-83.5 -156q-8 -31 -14 -68.5t-6 -74.5zM258 242q0 -41 33 -76 q39 -33 80 -33q37 0 71 35l25 37l8 39q0 37 -33 71q-24 35 -73 35q-47 0 -79 -31.5t-32 -76.5z" />
<glyph unicode="o" horiz-adv-x="1179" d="M45 401q0 221 170 318l41 8l115 31h399l-20 98q-18 66 -107 66l-149 -70q-76 -29 -129 -29q-35 0 -68 12.5t-64 45.5l-10 47l-4 35q0 53 78 86q16 0 43 -11l14 -4q23 -10 47 -39q55 -34 104 -34h3q20 0 56 8t79 26q123 0 184.5 -66.5t61.5 -226.5l-2 -43q-475 0 -513 -13 t-67 -38l-39 -59l-22 -74l-6 -69q0 -135 90 -193q92 -49 153 -68l66 -10l80 -4q197 0 332 84l26 -10q29 -12 31 -33q0 -16 -14 -39l-19 -20l-154 -60l-141 -39l-14 -61q0 -150 170 -150q207 0 207 238l8 6q25 18 39 19q14 0 28.5 -8.5t18.5 -12.5l4 -76q0 -299 -320 -299 q-131 0 -202 60q-74 55 -74 170l2 61q0 20 14 49q-526 0 -526 391z" />
<glyph unicode="p" horiz-adv-x="1249" d="M14 711q0 20 27 49l12 12l293 -4l266 4l4 49q0 33 -22 56q-18 25 -51 36q-4 1 -9 1q-42 0 -137 -44q-45 -23 -87 -37t-66 -14q-33 0 -60 10q-23 12 -51 43l-10 48l-4 34q0 53 78 86q16 0 43 -10l14 -4q23 -10 47 -39q18 -12 45 -18l51 -6q35 0 90 12l56 12q76 0 85 -3 t46 -52q70 -94 69 -250v-31h-424q-129 0 -129 -188q0 -123 134.5 -184.5t279.5 -61.5q207 0 335 110.5t128 321.5v74q-6 29 -10 66.5t-25 78.5q-12 43 -45 90q-27 47 -84 103q-53 55 -156.5 87t-263.5 32q-6 1 -13 1q-37 0 -91 -26q-164 -80 -203 -80q-35 0 -59.5 12.5 t-46.5 38.5l-11 48l-4 34q0 53 78 86q16 0 43 -10l14 -4q23 -10 48 -39q36 -24 74 -24h3q29 0 78 14l103 26q104 16 172 17q270 0 409 -182q129 -170 129 -471q0 -285 -160.5 -449t-441.5 -164q-207 0 -381 117t-174 324q0 135 64 200h-60l-18 19q-16 23 -21 43z" />
<glyph unicode="q" d="M-1217 -287q0 -27 15.5 -44t62.5 -36q23 0 35 5q14 0 25 8l47 39q12 10 39 16l49 4q39 0 58.5 -3t51.5 -13l62 -19l620 -2v8l2 641l-108 -116v-434q-25 -12 -61 -13q-59 0 -156 25l-80 20l-53 8l-84 -18q-53 -12 -80 -33q-27 0 -56.5 6.5t-66.5 22.5q-166 68 -199 68 q-31 0 -57 -12.5t-51 -51.5z" />
<glyph unicode="r" horiz-adv-x="1249" d="M45 522q0 147 74 277.5t213 201.5l53 15l25 6l30 14l35 15l33 18l80 43q80 49 82 76l80 -62l-31 -26l-92 -64l51 -4q242 0 382 -124t140 -359q0 -258 -162 -408q-78 -66 -188.5 -104.5t-249.5 -38.5q-221 0 -388 150.5t-167 373.5zM172 565q0 -160 135 -258t316 -98 q197 0 327.5 83t130.5 271q0 168 -134 271.5t-320 103.5q-178 0 -316.5 -96.5t-138.5 -276.5zM670 1188l90 63q74 59 74 140l-3 61l9 29l14 26q39 25 74 29q23 0 45 -18l45 -52q12 -35 12 -61q0 -74 -104 -148q-150 -104 -176 -131z" />
<glyph unicode="s" d="M-1133 1319q0 20 26 38.5t77 18.5l158 -2q25 0 79 -2t84 -2l152 6l86 -30q41 -12 78 -13q51 0 96 29l47 39l29 8l31 4q45 -16 59 -33.5t18 -46.5l-4 -30l-10 -46q-20 -33 -49 -51q-33 -14 -64 -14q-47 0 -112 29q-166 68 -205 73h-10q-53 0 -92 -18.5t-74 -18.5h-297 q-102 0 -103 62z" />
<glyph unicode="t" horiz-adv-x="1236" d="M45 440l2 45q0 29 10 56l21 53l16 31l19 20h-62v111l287 -4h301q-8 55 -39.5 82.5t-101.5 27.5q-7 1 -14 1q-35 0 -81 -23q-145 -70 -178 -70q-25 0 -50 11.5t-58 43.5l-11 47l-4 35q0 53 78 86q16 0 43 -10l15 -4q23 -10 47 -39q63 -41 92 -41q18 0 65 16q80 23 129 23 q102 0 153.5 -72.5t51.5 -201.5v-17l-440 2q-74 0 -115 -59.5t-41 -149.5q0 -111 96 -159l74 -31l84 -29l64 -10l69 -4q199 0 352.5 110.5t153.5 311.5q0 74 -13 133t-52 131q-61 127 -181 182q-25 -49 -106 -82q-79 -28 -147 -28h-5h-39l-49 4l-51 8l-59 20q-74 25 -74 90 q0 45 29 74h-52v105l132 4q330 0 559 -152.5t229 -478.5q0 -287 -149.5 -461t-442.5 -174q-231 0 -348 74t-168 164q-41 88 -41 198zM412 1112q0 -18 53 -39q61 -16 94 -16h3q101 0 155 67q-80 37 -199 37h-76q-18 -6 -30 -49z" />
<glyph unicode="u" horiz-adv-x="1275" d="M45 547q0 86 16.5 153.5t55.5 130.5q74 121 221 121q141 0 178 -90q55 111 152 111q104 0 172.5 -69.5t68.5 -182.5q0 -143 -77.5 -232.5t-223.5 -89.5q-96 0 -181 80t-85 183v32q0 20 8 43l21 41l18 35q-6 35 -67 35q-66 0 -113 -92q-35 -94 -35 -185q0 -166 138.5 -264 t318.5 -98q109 0 168 18.5t102 49t117 98t74 289.5l-7 114q-6 45 -31.5 116t-125 173t-332.5 102q-7 1 -15 1q-32 0 -85 -19q-160 -61 -201 -61q-31 0 -63.5 12t-59.5 45l-10 47l-4 35q0 53 78 86q16 0 43 -10l14 -5q23 -10 47 -38q37 -25 88 -25q27 0 82 12l72 13 q156 0 274.5 -38t204.5 -118q170 -160 170 -475q0 -82 -8.5 -137.5t-32.5 -118.5q-35 -104 -129 -201q-166 -176 -449 -176q-246 0 -406.5 147.5t-160.5 401.5zM449 696q0 -74 55 -110.5t129 -36.5q57 0 96 22.5t39 69.5q-39 -23 -86 -39q-94 0 -117 29l-35 45l-18 39l-8 78 q-55 -29 -55 -97zM598 786q0 -31 25 -61q27 -23 63 -23q82 0 82 84q0 25 -18 54l-31 26l-37 8q-37 0 -59 -28q-25 -23 -25 -60z" />
<glyph unicode="v" horiz-adv-x="1302" d="M10 696q0 20 17 43l18 25l109 -2l184 -4h266l8 43l9 51q0 25 -17 41q-27 0 -162 -80q-68 -39 -106 -39q-31 0 -51 11t-49 42l-11 47l-4 35q0 53 78 86q16 0 43 -10l14 -4q23 -10 47 -39q39 -24 91 -24h4l67 6l60 6l30 -8q25 -6 39 -35l19 -66q18 -59 18 -141v-37l-389 2 q-59 0 -109 -51l-26 -39l-21 -43l-8 -70q0 -88 53.5 -159.5t143.5 -71.5q129 0 162 88q16 47 24 102l8 142h144q-12 -49 -13 -111q0 -223 193 -223q213 0 213 401q0 225 -111 391q-119 156 -346 156l-153 -6q-74 -6 -123 -23q-111 -25 -156 -145l-12 -8q-31 -18 -47 -19 q-12 0 -33 15l-19 12q25 139 135.5 187.5t207 70t169.5 21.5q625 0 625 -693q0 -109 -12 -186q-6 -59 -31 -125q-12 -53 -65 -158q-49 -108 -248 -108h-4h-47l-33 8l-31 10l-47 31q-43 20 -78 98q-18 -61 -86 -104q-68 -37 -143 -37q-166 0 -269.5 112.5t-103.5 290.5 t86 240h-86l-16 18q-18 23 -19 37z" />
<glyph unicode="w" horiz-adv-x="1292" d="M20 401q0 86 48.5 188.5t136.5 151.5l102 25l37 6h422q0 74 -68 117l-51 12q-8 1 -18 1q-29 0 -70 -13q-139 -49 -166 -49q-29 0 -61.5 12t-63.5 49l-10 47l-4 35q0 53 78 86q16 0 43 -10l14 -4q27 -14 49 -41q27 -39 76 -40q25 0 37 2.5t39 12.5l86 31l26 -6 q61 -25 103 -66q27 -27 72 -100q29 170 210 170q43 0 93 -12v-64q-37 -18 -37 -65l2 -25q98 -104 98 -213q0 -76 -47 -131q-53 -53 -129 -53l-43 2q-12 4 -39 26l2 -315l51 25l58 36v-118l-52 -37l-61 -29l2 -215l-2 -82l-18 -16q-20 -16 -41 -23q-4 -1 -8 -1q-28 0 -60 24 l-16 16l2 266q-129 -37 -277 -37q-109 0 -211 25q-53 14 -94 31.5t-84 46.5q-156 102 -156 321zM236 410q0 -147 102 -230q106 -78 268 -78q80 0 125.5 6t102.5 33l-3 521h-397q-86 0 -142 -75t-56 -177zM983 700l2 -90q29 -35 66 -35q25 0 42 17.5t23 34.5l6 22 q0 25 -47 90l-35 62l-10 47l6 41q-31 -18 -49 -66l-4 -86v-37z" />
<glyph unicode="x" horiz-adv-x="706" d="M51 500q0 123 87 210t208 87q123 0 189 -66q59 -53 79 -96l27 -74l6 -59q0 -123 -88 -211t-209 -88q-115 0 -207 84t-92 213zM211 537q0 -59 41 -107q41 -41 110 -41q51 0 101 43q18 18 31.5 45t13.5 62q0 55 -31 86.5t-59.5 46t-59.5 14.5q-47 0 -102 -43 q-16 -16 -30.5 -43t-14.5 -63z" />
<glyph unicode="y" horiz-adv-x="1462" d="M41 422q0 102 30.5 180t100.5 123l25 10h325q0 90 -22 125q-18 37 -78 37l-80 -39q-74 -37 -123 -37q-33 0 -59.5 11.5t-50.5 39.5l-11 48l-4 34q0 53 78 86q16 0 43 -10l14 -4q23 -10 47 -39q66 -39 107 -39l41 4l76 27q51 0 80 -47l41 -109q43 96 122 150q80 49 213 49 q215 0 339 -125t124 -356q0 -283 -96 -406q-104 -135 -344 -135h-33l-14 18q-12 20 -17 39q0 14 17 33l14 14q90 0 130 17.5t106 73.5q106 96 106 288v31v21q-4 14 -5 29.5t-17 49.5q-16 59 -95 148q-68 90 -206 90q-117 0 -204 -50t-87 -169q43 47 110 47q100 0 161 -78 t61 -182q0 -193 -142 -307q-70 -55 -155.5 -84t-192.5 -29q-178 0 -326.5 110.5t-148.5 311.5zM170 455q0 -123 96 -184.5t226 -61.5q168 0 276.5 40t108.5 179q0 27 -6.5 43t-32.5 49q-35 45 -86 45q-72 0 -93 -100h-90l-20 80l-12 76h-203q-61 0 -121 -43 q-43 -47 -43 -123z" />
<glyph unicode="z" horiz-adv-x="1443" d="M35 465q0 104 18.5 189t80 204t247.5 119q25 0 102 -25q53 12 113 13q375 0 375 -316l-443 6q-213 0 -213 -192q0 -115 146 -189l147 -45l74 -12l76 -4q197 0 352.5 110.5t155.5 311.5q0 39 -2 71.5t-7.5 58.5t-13.5 48.5t-22 46.5l-50 90q-25 37 -59 72q-31 35 -92 61 q-25 -55 -110 -84.5t-150 -29.5l-86 6q-20 0 -33 4q-18 0 -59 16q-90 29 -90 99q0 45 28 73h-55v105l127 4q338 0 565 -152.5t227 -476.5q0 -289 -149 -463t-442 -174q-240 0 -415 106.5t-175 336.5q0 88 36.5 173t131.5 124q-12 18 -13 41l7 38l-17 2q-84 0 -134 -130 t-50 -242v-64l6 -65q6 -27 43 -114t152 -112v-92l-27 -2q-137 0 -229 142q-74 145 -74 313zM530 758h301q-18 110 -162 110h-3q-66 0 -86 -20l-17 -51q0 -31 -33 -39zM606 1124q0 -20 41 -41l62 -16l47 -4h3q107 0 150 67l-86 27l-71 8l-39 2h-74q-23 -16 -33 -43z" />
<glyph unicode="{" horiz-adv-x="2299" d="M41 463q0 106 25 205q12 47 37.5 103t70.5 118q84 125 289 125q266 0 266 -199q0 -92 -80 -147l-151 -78q-80 -49 -80 -129q0 -145 82 -203q84 -53 245 -53q293 0 293 201q0 129 -77 129q-20 0 -27 -5l-37 -12q-12 -6 -18 -35q0 -18 4 -22h-99q-25 39 -43 82l-10 45 l-4 51q0 172 110.5 276.5t301.5 104.5q221 0 307 -47q100 41 231 41q184 0 277 -80q86 -86 86 -250l-2 -43q-477 0 -525.5 -19.5t-91.5 -93.5q-31 -72 -30 -139q0 -133 116 -207q121 -70 271 -69q186 0 333 84l25 -103l-143 -57l-152 -39l-14 -64q0 -150 170 -149 q102 0 153.5 60.5t51.5 172.5l98 5l2 -74q0 -295 -320 -295q-117 0 -200 55q-76 57 -76 174v47q0 27 16 60q-526 0 -526 395q0 221 170 315q-35 39 -35 95q-100 47 -190 47q-113 0 -202 -51.5t-89 -157.5l2 -27q53 49 113 49q197 0 196 -266q0 -172 -137 -281.5t-317 -109.5 q-184 0 -316.5 120t-132.5 312q0 145 66.5 205.5t191.5 114.5q90 29 90 67q0 43 -42 67.5t-89 24.5q-90 0 -119 -35q-16 -27 -16 -116q0 -86 -45 -119l-88 -57q-43 -47 -43 -172q0 -240 192 -285l2 -94h-16q-154 0 -227.5 132t-73.5 300zM1534 745l387 -6q-41 164 -240 164 l-49 -6q-20 -6 -39 -23l-10 -30l-12 -31q-12 -43 -37 -68z" />
<glyph unicode="|" horiz-adv-x="1396" d="M41 446q0 283 145.5 435.5t434.5 152.5q473 0 473 -356l-2 -37l-174 2q-330 0 -371 -16.5t-86 -96.5l-17 -57q-6 -27 -8 -39t-2 -37q0 -129 117 -207q123 -70 270 -69q193 0 334 84l16 -10l21 -23q6 -18 -4 -43l-12 -25q-139 -74 -291 -98q-12 -31 -13 -67 q0 -147 166 -148q104 0 154.5 57.5t50.5 180.5l14 14q16 10 33 14q10 0 33 -12l18 -14l5 -76q0 -295 -320 -295q-115 0 -201 55q-74 55 -73 174l2 58l12 51q-530 0 -530 395q0 129 67.5 232.5t202.5 119.5q-59 0 -97 24t-75 24q-80 0 -123 -124t-43 -229v-55l8 -68 q6 -45 14 -61l37 -84q31 -66 144 -92v-88l-27 -2q-137 0 -221 141q-41 74 -61.5 148.5t-20.5 166.5zM555 754l410 -2q-12 80 -79 118.5t-177 38.5q-66 0 -85.5 -68.5t-68.5 -86.5z" />
<glyph unicode="}" horiz-adv-x="1107" d="M84 244v139h950v-139h-950zM84 641v139h950v-139h-950z" />
<glyph unicode="~" horiz-adv-x="368" d="M51 1303q0 43 41 81.5t88 38.5q53 0 90 -37q31 -37 37 -61l8 -63q0 -170 -182 -267l-31 41q49 35 91 82q18 33 25 54.5t7 46.5q-33 -23 -80 -23q-29 0 -69 31q-25 43 -25 76z" />
<glyph unicode="&#xa2;" horiz-adv-x="1396" d="M49 436q0 578 576 578q129 0 215 -17.5t145 -60.5q117 -86 117 -266l-2 -39l-375 4q-135 0 -209 -48t-74 -200q0 -129 117 -207q123 -70 272 -69q203 0 332 84l25 -103l-146 -53l-149 -43l-14 -64q0 -150 170 -149q209 0 208 233l93 4l2 -71q0 -297 -318 -297 q-127 0 -201.5 56t-74.5 173v47q0 35 16 62q-528 0 -528 393q0 125 52 203t103 114q53 33 115 33q-59 0 -94 23l-51 24q-10 6 -29 6q-70 0 -119 -131q-45 -135 -45 -225q0 -72 6 -119t17 -61l37 -92q29 -61 141 -86v-86l-29 -2q-74 0 -133 32q-23 14 -59 58l-37 57l-31 57 q-41 82 -41 248zM223 1024q0 145 123 223q57 29 127 49q31 8 72 14.5t78 6.5q166 0 305 -62.5t139 -218.5v-22q0 -15 -4 -23h-80q-12 96 -78 121l-55 10l-74 13l-135 4q-164 0 -233 -21q-72 -12 -89 -117l-94 -4zM563 743l410 -2q-12 80 -92 133q-80 27 -164 27 q-66 0 -86 -63q-12 -63 -68 -95z" />
<glyph unicode="&#xa3;" horiz-adv-x="1331" d="M31 436q0 588 581 588q242 0 356.5 -87t114.5 -267v-39l-376 4q-125 0 -203 -48t-78 -200q0 -141 114.5 -208.5t274.5 -67.5q193 0 330 84l24 -103l-147 -57l-145 -39l-17 -64q0 -150 170 -149q205 0 205 233l96 4l4 -71q0 -297 -319 -297q-117 0 -201 55q-76 57 -76 174 l2 62q4 27 17 47q-530 0 -531 393q0 117 56.5 204t102.5 116.5t112 29.5q-47 0 -84 19l-56 24l-34 10q-70 0 -119 -131q-45 -135 -45 -225v-57l8 -66q6 -41 33 -96q43 -106 161 -139v-86l-28 -2q-78 0 -137 32q-14 6 -27 23l-27 33l-57 86l-27 71l-14 52l-10 71zM258 1014 q0 152 125 222.5t287 70.5q143 0 271 -44t128 -161q0 -47 -35 -79t-82 -32q-104 0 -104 133l-131 9l-62 2q-158 0 -225 -23q-80 -12 -94 -121h-76zM547 743l407 -2q-18 78 -92 133q-80 27 -164 27q-68 0 -86 -67q-12 -57 -65 -91zM932 1098q0 -25 31 -31q31 0 32 33l-8 18 l-6 4l-18 8l-23 -8z" />
<glyph unicode="&#xa5;" horiz-adv-x="1038" d="M35 -174q0 35 18 113h119q-18 -66 -18 -84q0 -59 49 -60q41 0 61 10q25 0 98 25l99 29l71 8l72 -6l51 -11l56 -20l96 -29l67 -10h11l-2 283l-78 -27l-98 -27l-78 -10h-39q-545 0 -545 391q0 139 64 234q80 123 253 123h408q-18 88 -72 139q-31 29 -67.5 43t-87.5 14 q-33 6 -86 -24q-129 -80 -166 -80q-55 0 -98 51l-11 47l-4 35q0 53 78 86q16 0 43 -10l14 -4q23 -10 47 -39q39 -23 70 -27l49 12q33 10 64 15q178 0 262 -75t84 -239l-2 -43q-475 0 -525 -20q-47 -16 -83 -74l-31 -80l-8 -79q0 -135 123.5 -199t267.5 -64q113 0 192 21 q90 18 172 67l-4 -561l-71 -6h-46l-49 12q-27 0 -61 15l-64 20q-98 31 -157 31l-76 -6q-43 -6 -117 -33q-139 -39 -178 -39q-137 0 -137 162z" />
<glyph unicode="&#xa8;" horiz-adv-x="1290" d="M25 438q0 264 173 424t449 160q143 0 223 -22.5t127 -53.5q57 -25 119 -84q131 -100 131 -354q0 -178 -115.5 -305t-304.5 -127q-168 0 -285.5 90t-117.5 246q0 66 8 114q0 23 10 45l29 88l66 50l73 -27q37 -12 58 -12q37 0 90 32l47 39l29 9l30 4q43 -14 60.5 -34 t17.5 -46l-4 -31l-10 -45q-16 -27 -43 -47q-20 -12 -47 -14q-27 0 -121 47q-49 23 -82 22q-46 -32 -60 -65q-14 -37 -14 -95q0 -84 86 -149l82 -33q43 -12 92 -12q129 0 196.5 49t94.5 100l16 52l7 67q0 199 -130.5 298.5t-338.5 99.5q-199 0 -327 -124t-128 -323 q0 -219 163 -330.5t392 -111.5q270 0 430 123l2 -244l2 -96v-136v-8l-622 4l-91 25l-79 10q-53 0 -89 -22l-47 -39l-28 -8l-31 -5q-45 16 -59.5 34t-18.5 46l4 31l11 45q20 33 51 51q29 10 63 15q47 0 115 -27q164 -63 203 -70l32 4q27 18 54 27l75 18l54 -8l80 -20 q92 -25 155 -25q29 0 45 8l-6 181q-70 -37 -150.5 -55.5t-191.5 -18.5q-289 0 -496.5 141.5t-207.5 427.5z" />
<glyph unicode="&#xa9;" horiz-adv-x="1359" d="M43 514q0 504 432 504l115 -4l16 -10q16 -16 15 -41l-5 -17l-6 -12l-10 -12l-6 -4l-121 6q-147 0 -227 -98.5t-80 -256.5q0 -131 65.5 -242.5t196.5 -111.5q109 0 162 78q16 37 24 80l9 112h141l6 -123q6 -55 23 -81q47 -76 180 -76q92 0 162 78l22 32l27 54q16 39 16 92 q0 217 -176 217h-362v27q0 160 61 239q16 18 37 29l45 8l33 -2l51 -6l110 -15h25q14 0 33.5 6.5t42.5 20.5l47 39l29 8l30 4q43 -14 60.5 -33.5t17.5 -46.5l-4 -30l-10 -45q-20 -33 -50 -49.5t-61 -16.5q-47 0 -110 29q-164 68 -201 74q-37 -12 -51 -41q-12 -29 -13 -72v-27 l383 -4q156 -82 156 -319q0 -176 -103.5 -319.5t-283.5 -143.5q-90 0 -155.5 34.5t-96.5 106.5q-55 -137 -262 -137q-197 0 -288 154.5t-91 363.5zM311 1229q0 129 99 209q100 70 229 69q141 0 243.5 -80.5t102.5 -226.5v-29q0 -25 -4 -32l-12 -52h-99q6 39 11 46v32 q0 92 -60.5 153.5t-163.5 61.5q-88 0 -154.5 -31.5t-66.5 -109.5q0 -80 101 -80h16q-41 25 -41 96q0 88 131 88q135 0 135 -141q0 -78 -53 -103.5t-94 -37.5l-39 -8l-41 -2q-84 0 -162 46t-78 132zM610 1235q0 -31 33 -31q15 0 27 31q0 31 -27 33q-25 0 -33 -33z" />
<glyph unicode="&#xab;" horiz-adv-x="2271" d="M41 463q0 106 25 205q12 47 37.5 103t70.5 118q84 125 289 125q266 0 266 -199q0 -92 -80 -147l-151 -78q-80 -49 -80 -129q0 -145 82 -203q84 -53 245 -53q293 0 293 201q0 129 -77 129q-20 0 -27 -5l-37 -12q-12 -6 -18 -35q0 -18 4 -22h-99q-25 39 -43 82l-10 45 l-4 51q0 172 110.5 276.5t301.5 104.5q221 0 307 -47q100 41 231 41q174 0 272.5 -84t98.5 -260l-2 -37l-379 6q-78 0 -119 -7t-98 -48t-57 -191q0 -129 116 -207q123 -70 271 -69q186 0 334 84l24 -101l-37 -20q80 -31 111 -80t31 -147q0 -217 -213 -218l-52 3l-39 12v96 q25 -12 54 -12q111 0 110 133q0 150 -125 149l-55 -2q-35 0 -65 -10l-107 -16l-61 -2q-201 0 -346.5 99t-145.5 304q0 211 168 311q-35 39 -35 95q-100 47 -190 47q-113 0 -202 -51.5t-89 -157.5l2 -27q53 49 113 49q197 0 196 -266q0 -172 -137 -281.5t-317 -109.5 q-184 0 -316.5 120t-132.5 312q0 145 66.5 205.5t191.5 114.5q90 29 90 67q0 43 -42 67.5t-89 24.5q-84 0 -115 -32q-20 -41 -20 -119q0 -86 -45 -119l-88 -57q-43 -47 -43 -172q0 -240 192 -285l2 -94h-16q-154 0 -227.5 132t-73.5 300zM1534 745l387 -6q-41 164 -240 164 l-49 -6q-20 -6 -39 -23l-10 -30l-12 -31q-12 -43 -37 -68z" />
<glyph unicode="&#xad;" horiz-adv-x="716" d="M88 406l76 172h477l-78 -172h-475z" />
<glyph unicode="&#xae;" d="M-1139 1380q0 37 43 37h258q144 1 144 -155q0 -166 -244 -166v-187l-117 4v390q0 18 -35 36q-39 16 -49 41zM-936 1182q47 0 85 12t38 59q0 72 -88 72l-35 -2v-141z" />
<glyph unicode="&#xb4;" horiz-adv-x="1302" d="M29 451q0 502 338 501q133 0 176 -90q49 106 155 107q104 0 146 -54q43 -49 55 -92l12 -57l4 -53q0 -111 -75 -189q-37 -31 -86 -49l-52 -10l-55 -4q-98 0 -187 58.5t-89 154.5q0 39 8 63l16 37l25 39q-12 37 -49 37q-111 0 -168 -109q-23 -57 -37 -118q-6 -35 -10 -63 t-4 -58q0 -100 64.5 -196.5t168.5 -96.5q111 0 147.5 43t36.5 174h140v-23q0 -188 163 -188q254 0 254 408q0 143 -68.5 308t-205.5 165l-711 -2v110h66l-43 37q-18 25 -19 57q0 57 19 86q16 20 67 48l76 24l74 21h100l99 -25l194 -41q102 -18 164 -18q84 0 125 26l47 39 l29 8l30 4q43 -14 60.5 -33.5t17.5 -45.5l-4 -31l-10 -45q-41 -66 -115 -66q-51 0 -117 27q-176 70 -219 76l-61 4l-64 -2l-82 -2q-274 -1 -274 -62l6 -35q8 -14 28.5 -30.5t416.5 -16.5h127q68 0 157 -51l80 -88q37 -39 62 -90l49 -111q43 -123 43 -254q0 -225 -86 -423.5 t-301 -198.5h-47l-33 8l-31 10l-47 31q-43 20 -78 98q-18 -61 -86 -104q-68 -37 -143 -37q-190 0 -289.5 128t-99.5 325zM489 715q0 -49 68 -103q55 -31 127 -30q71 0 102 57q-47 -35 -84 -35q-72 0 -127 49q-43 53 -43 140q-43 -37 -43 -78zM639 788q0 -25 14 -40l33 -21 l29 -8q69 0 69 63q0 29 -16 47.5t-59 24.5q-18 0 -38 -14.5t-32 -51.5z" />
<glyph unicode="&#xb8;" horiz-adv-x="1409" d="M178 317v891h850l172 -184v-881h-858zM221 334h799v829h-799v-829z" />
<glyph unicode="&#xbb;" horiz-adv-x="1572" d="M61 395q0 227 175 314q-41 37 -41 100q0 111 122 172q27 10 42.5 14t60.5 15l78 10l45 2q362 0 362 -326v-47q-475 0 -527 -19.5t-93 -97.5l-17 -57q-6 -27 -8 -39t-2 -37q0 -131 117 -211q121 -68 270 -67q180 0 334 86l25 -103q-221 -104 -390 -104q-553 0 -553 395z M401 756l385 -6q-35 164 -235 163q-45 0 -70 -12l-24 -31l-17 -53q-10 -41 -39 -61zM899 -283l6 93q10 35 27 57l33 31l49 34q39 27 39 62q0 37 -37 37q-55 0 -55 -86h-54l-2 37q0 41 31 75.5t78 34.5q109 0 108 -78q0 -86 -80 -135q-78 -41 -77 -141v-12q16 43 59 43 q27 0 54.5 -13.5t74.5 -23.5q78 0 78 80q0 39 -51 77q-51 33 -52 97q0 117 103 116q108 0 108 -100q0 -10 -18 -45q-18 -18 -41 -18q-14 0 -27 10q-6 2 -22 37q0 18 37 43q-6 16 -43 16q-31 0 -31 -53l6 -21l43 -26q35 -18 51 -37q39 -33 39 -101q0 -152 -176 -151h-22 q-14 0 -23 4q-12 0 -29 10l-34 15l-27 8q-25 0 -53 -35h-64zM1348 109l36 4q175 -1 175 -226q0 -98 -38 -163.5t-126 -65.5q-33 0 -37 4v62q57 6 82 43q12 37 12 120q0 88 -16 121q-12 35 -84 43z" />
<glyph unicode="&#x2c6;" horiz-adv-x="1443" d="M35 465q0 104 18.5 189t80 204t247.5 119q25 0 102 -25q53 12 113 13q375 0 375 -316l-443 6q-213 0 -213 -192q0 -115 146 -189l147 -45l74 -12l76 -4q197 0 352.5 110.5t155.5 311.5q0 39 -2 71.5t-7.5 58.5t-13.5 48.5t-22 46.5l-50 90q-25 37 -59 72q-31 35 -92 61 q-25 -55 -110 -84.5t-150 -29.5l-86 6q-20 0 -33 4q-18 0 -59 16q-90 29 -90 99q0 45 28 73h-55v105l127 4q338 0 565 -152.5t227 -476.5q0 -289 -149 -463t-442 -174q-240 0 -415 106.5t-175 336.5q0 88 36.5 173t131.5 124q-12 18 -13 41l7 38l-17 2q-84 0 -134 -130 t-50 -242v-64l6 -65q6 -27 43 -114t152 -112v-92l-27 -2q-137 0 -229 142q-74 145 -74 313zM530 758h301q-18 111 -165 110q-66 0 -86 -20l-17 -51q0 -31 -33 -39zM606 1124q0 -20 41 -41l62 -16l47 -4q110 -1 153 67l-86 27l-71 8l-39 2h-74q-23 -16 -33 -43z" />
<glyph unicode="&#x2dc;" horiz-adv-x="1275" d="M45 547q0 86 16.5 153.5t55.5 130.5q74 121 221 121q141 0 178 -90q55 111 152 111q104 0 172.5 -69.5t68.5 -182.5q0 -143 -77.5 -232.5t-223.5 -89.5q-96 0 -181 80t-85 183v32q0 20 8 43l21 41l18 35q-6 35 -67 35q-66 0 -113 -92q-35 -94 -35 -185q0 -166 138.5 -264 t318.5 -98q109 0 168 18.5t102 49t117 98t74 289.5l-7 114q-6 45 -31.5 116t-125 173t-332.5 102q-336 0 -387 -186h-133q37 133 184 217q74 31 154 49.5t170 18.5q307 0 477 -161t170 -476q0 -82 -8.5 -137.5t-32.5 -118.5q-35 -104 -129 -201q-166 -176 -449 -176 q-246 0 -406.5 147.5t-160.5 401.5zM449 696q0 -74 55 -110.5t129 -36.5q57 0 96 22.5t39 69.5q-39 -23 -86 -39q-94 0 -117 29l-35 45l-18 39l-8 78q-55 -29 -55 -97zM598 786q0 -31 25 -61q27 -23 63 -23q82 0 82 84q0 25 -18 54l-31 26l-37 8q-37 0 -59 -28 q-25 -23 -25 -60z" />
<glyph unicode="&#x2000;" horiz-adv-x="821" />
<glyph unicode="&#x2001;" horiz-adv-x="1642" />
<glyph unicode="&#x2002;" horiz-adv-x="821" />
<glyph unicode="&#x2003;" horiz-adv-x="1642" />
<glyph unicode="&#x2004;" horiz-adv-x="547" />
<glyph unicode="&#x2005;" horiz-adv-x="410" />
<glyph unicode="&#x2006;" horiz-adv-x="273" />
<glyph unicode="&#x2007;" horiz-adv-x="273" />
<glyph unicode="&#x2008;" horiz-adv-x="205" />
<glyph unicode="&#x2009;" horiz-adv-x="328" />
<glyph unicode="&#x200a;" horiz-adv-x="91" />
<glyph unicode="&#x2010;" horiz-adv-x="716" d="M88 406l76 172h477l-78 -172h-475z" />
<glyph unicode="&#x2011;" horiz-adv-x="716" d="M88 406l76 172h477l-78 -172h-475z" />
<glyph unicode="&#x2012;" horiz-adv-x="716" d="M88 406l76 172h477l-78 -172h-475z" />
<glyph unicode="&#x2013;" horiz-adv-x="1284" d="M39 440q0 188 117 273l59 26l82 13h246q0 25 -4 36v27v39q0 35 -29 49l33 80l28 -14q25 -10 68 -88l12 41l19 26l37 43l32 37l45 41l109 76l78 47l90 47q72 33 172 33l47 -92l-131 -37l-59 -19l-43 -16l-78 -33l-43 -20l-35 -25q154 0 192 -69q29 -55 47 -152 q0 -27 -18 -82q127 -43 127 -285q0 -217 -100 -286l-86 -50l-74 -38q-55 -25 -117 -43l-94 -17l-129 -8q-600 0 -600 440zM119 944l4 -39l10 -41q25 -29 50.5 -42t56.5 -13q37 0 176 70q61 31 94 24l33 80l-68 -25q-37 -12 -74 -12q-47 0 -100 33l-25 20l-22 19l-21 6l-36 8 q-45 -18 -59.5 -36.5t-18.5 -51.5zM166 477q0 -272 473 -272q145 0 309 55.5t164 194.5q0 117 -59 163q-72 39 -166 39l-64 -2l-61 -2q-461 0 -488 -10q-39 -6 -73.5 -58.5t-34.5 -107.5zM702 1487q8 59 30 76.5t73 17.5h35q49 -18 69.5 -52t20.5 -81q0 -43 -19.5 -132 t-19.5 -128l2 -27h-80l8 64l6 49q0 33 -11 59.5t-42 61.5l-49 37l-8 18zM715 774l2 -18l278 2l4 35q0 70 -34 92q-18 16 -52 30.5t-69 14.5q-43 0 -90 -49q-39 -51 -39 -107zM813 989l2 172h78v-172h-80z" />
<glyph unicode="&#x2014;" d="M-909 1427q0 96 90 162q35 25 90 39l45 10l49 4q291 1 291 -210l-2 -33l-12 -49h-54l9 32l2 35q0 74 -72 127q-29 16 -62 25l-45 10l-41 2l-61 -6l-76 -29q-49 -25 -49 -86q0 -106 109 -106l-27 43l-4 41q0 109 139 108q106 0 107 -129q0 -127 -203 -127l-78 6 q-33 6 -89 34t-56 97zM-664 1427q0 -14 13 -32l49 -23l24 6l21 21l8 31v12l-4 16q-8 12 -51 29q-45 0 -60 -60z" />
<glyph unicode="&#x2018;" horiz-adv-x="380" d="M61 139q0 47 37 84t97 37q27 0 42 -7t45.5 -39t30.5 -81t-36.5 -86t-88.5 -37q-55 0 -91 38t-36 91z" />
<glyph unicode="&#x2019;" horiz-adv-x="380" d="M61 139q0 47 37 84t97 37q27 0 42 -7t45.5 -39t30.5 -81t-36.5 -86t-88.5 -37q-55 0 -91 38t-36 91z" />
<glyph unicode="&#x201a;" horiz-adv-x="1409" d="M178 317v891h850l172 -184v-881h-858zM221 334h799v829h-799v-829z" />
<glyph unicode="&#x201c;" horiz-adv-x="391" d="M59 125q0 49 39 88q33 39 88 39q136 0 136 -172q0 -166 -201 -291l-31 47l33 23l29 24q25 23 52 58.5t27 97.5l-47 -19l-30 -8q-43 0 -69 34t-26 79z" />
<glyph unicode="&#x201d;" horiz-adv-x="391" d="M59 125q0 49 39 88q33 39 88 39q136 0 136 -172q0 -166 -201 -291l-31 47l33 23l29 24q25 23 52 58.5t27 97.5l-47 -19l-30 -8q-43 0 -69 34t-26 79z" />
<glyph unicode="&#x201e;" horiz-adv-x="1409" d="M178 317v891h850l172 -184v-881h-858zM221 334h799v829h-799v-829z" />
<glyph unicode="&#x2026;" horiz-adv-x="1462" d="M29 459q0 588 581 588q473 0 473 -351l-2 -43l-376 4h-62q-27 0 -51 -8q-31 -6 -55 -18q-16 -6 -54 -33q-59 -35 -59 -190q0 -129 99.5 -202t244.5 -73q174 0 315 84l39 -90l-28 -21q25 0 33 -3t15 -6t21 -13l-4 911q0 12 -41 35q-23 18 -41 41q0 35 39 35h264 q146 0 146 -158q0 -162 -248 -162l2 -915q0 -213 -213 -213q-63 0 -90 10v99q29 -12 53 -13q113 0 113 133q0 57 -60 105l-55 24l-65 13l-50 -6l-67 -11l-72 -8q-223 0 -386 93t-163 306q0 131 51.5 209t104.5 112t115 34q-43 0 -90 18l-46 27l-38 8q-70 0 -107 -96 q-16 -45 -33 -105q-8 -25 -14 -49l-10 -76v-32q0 -121 43 -226.5t157 -132.5v-88l-26 -2q-80 0 -128 29.5t-120 148.5q-55 111 -55 277zM543 766l409 -2q-18 86 -84.5 123t-169.5 37q-68 0 -88 -64q-12 -59 -67 -94zM1280 874h45q31 0 51 11q27 6 27 55q0 76 -92 76l-31 -2 v-140z" />
<glyph unicode="&#x202f;" horiz-adv-x="328" />
<glyph unicode="&#x2039;" horiz-adv-x="1228" d="M109 920l94 94l403 -404l404 404l94 -94l-404 -404l404 -403l-94 -97l-404 408l-403 -408l-92 97l401 403z" />
<glyph unicode="&#x203a;" horiz-adv-x="1124" d="M88 446v140h950v-140h-950zM436 145q0 45 35 88q41 37 90 37q37 0 82 -37t45 -88q0 -49 -39 -88q-45 -39 -88 -39t-84 36t-41 91zM436 885q0 45 35 86q39 39 90 39q39 0 88 -37q39 -45 39 -88q0 -49 -39 -90q-39 -35 -88 -35q-45 0 -88 35q-37 41 -37 90z" />
<glyph unicode="&#x205f;" horiz-adv-x="410" />
<glyph unicode="&#x2122;" horiz-adv-x="2058" d="M23 440l28 39l37 43l86 84l156 135l110 84q0 51 -36.5 88t-92.5 37q-39 0 -78.5 -19.5t-48.5 -58.5l9 -16l26 -33l17 -20l16 -29l8 -33q0 -35 -31 -69q-31 -25 -79 -37q-41 0 -91 49q-37 55 -36 102q0 106 80.5 185.5t197.5 79.5q209 0 248 -152q197 147 479 148 q78 0 183.5 -18.5t146.5 -55.5q94 41 231 41q358 0 359 -330l-2 -43q-483 0 -531 -23q-55 -18 -87 -86.5t-32 -142.5q0 -160 104.5 -221.5t272.5 -61.5q145 0 332 107l4 -561l-788 4q-41 0 -75 26.5t-34 65.5q0 63 29 129h84l-21 -86q0 -45 43 -45q59 0 210 29.5t200 29.5 q27 0 92.5 -24.5t103.5 -24.5q25 0 48 15l4 272q-141 -51 -275 -51q-225 0 -375.5 89t-150.5 304q0 221 174 315q-41 45 -41 95q0 25 -98 43l-156 22l-94 8q-92 0 -123 -10q-49 -6 -96 -33l26 2q66 0 138 -36q53 -31 136 -148t83 -268q0 -156 -89.5 -263.5t-232.5 -107.5 q-66 0 -127 27q-59 31 -74 88q-61 -117 -223 -117q-86 0 -162 76q-72 84 -71 168q0 37 12 72.5t43 76.5l-57 -16zM203 492l63 -3l19 -63l-33 -25l-27 -34q-18 -35 -18 -64q0 -98 123 -98q84 0 108 55l21 70l4 37l4 108h133l-8 -82q0 -61 33.5 -124.5t101.5 -63.5 q94 0 145 51q37 53 37 164q0 125 -90 217t-219 92q-109 0 -397 -237zM1444 745l389 -6q-41 164 -240 164q-53 0 -73.5 -16.5t-22.5 -36.5l-16 -47q-6 -23 -37 -58z" />
<glyph unicode="&#x25fc;" horiz-adv-x="798" d="M0 0v799h799v-799h-799z" />
</font>
</defs>
</svg>
