<?xml version="1.0" standalone="no"?>
<!DOCTYPE svg PUBLIC "-//W3C//DTD SVG 1.1//EN" "http://www.w3.org/Graphics/SVG/1.1/DTD/svg11.dtd" >
<svg xmlns="http://www.w3.org/2000/svg">
<metadata></metadata>
<defs>
<font id="eladrinregular" horiz-adv-x="1650" >
<font-face units-per-em="2048" ascent="1638" descent="-410" />
<missing-glyph horiz-adv-x="508" />
<glyph horiz-adv-x="2048" />
<glyph horiz-adv-x="2048" />
<glyph unicode="&#xd;" horiz-adv-x="508" />
<glyph unicode=" "  horiz-adv-x="508" />
<glyph unicode="&#x09;" horiz-adv-x="508" />
<glyph unicode="&#xa0;" horiz-adv-x="508" />
<glyph unicode="!" horiz-adv-x="395" d="M14 1087l178 -2q60 9 129 95q60 75 80 143l23 16l-62 -155q-43 -111 -45 -154h-59q-135 0 -224 -352l-14 18q43 172 43 275q0 43 -8 67z" />
<glyph unicode="&#x22;" d="M0 200v1100q0 200 200 200h1100q200 0 200 -200v-1100q0 -200 -200 -200h-1100q-200 0 -200 200zM25 200q1 -175 175 -175h1101q174 0 174 176v1099q0 175 -175 175h-1100q-174 0 -175 -175v-1100z" />
<glyph unicode="#" d="M0 200v1100q0 200 200 200h1100q200 0 200 -200v-1100q0 -200 -200 -200h-1100q-200 0 -200 200zM25 200q1 -175 175 -175h1101q174 0 174 176v1099q0 175 -175 175h-1100q-174 0 -175 -175v-1100z" />
<glyph unicode="$" d="M0 200v1100q0 200 200 200h1100q200 0 200 -200v-1100q0 -200 -200 -200h-1100q-200 0 -200 200zM25 200q1 -175 175 -175h1101q174 0 174 176v1099q0 175 -175 175h-1100q-174 0 -175 -175v-1100z" />
<glyph unicode="%" d="M0 200v1100q0 200 200 200h1100q200 0 200 -200v-1100q0 -200 -200 -200h-1100q-200 0 -200 200zM25 200q1 -175 175 -175h1101q174 0 174 176v1099q0 175 -175 175h-1100q-174 0 -175 -175v-1100z" />
<glyph unicode="&#x26;" d="M0 200v1100q0 200 200 200h1100q200 0 200 -200v-1100q0 -200 -200 -200h-1100q-200 0 -200 200zM25 200q1 -175 175 -175h1101q174 0 174 176v1099q0 175 -175 175h-1100q-174 0 -175 -175v-1100z" />
<glyph unicode="'" d="M0 200v1100q0 200 200 200h1100q200 0 200 -200v-1100q0 -200 -200 -200h-1100q-200 0 -200 200zM25 200q1 -175 175 -175h1101q174 0 174 176v1099q0 175 -175 175h-1100q-174 0 -175 -175v-1100z" />
<glyph unicode="(" d="M0 200v1100q0 200 200 200h1100q200 0 200 -200v-1100q0 -200 -200 -200h-1100q-200 0 -200 200zM25 200q1 -175 175 -175h1101q174 0 174 176v1099q0 175 -175 175h-1100q-174 0 -175 -175v-1100z" />
<glyph unicode=")" d="M0 200v1100q0 200 200 200h1100q200 0 200 -200v-1100q0 -200 -200 -200h-1100q-200 0 -200 200zM25 200q1 -175 175 -175h1101q174 0 174 176v1099q0 175 -175 175h-1100q-174 0 -175 -175v-1100z" />
<glyph unicode="*" d="M0 200v1100q0 200 200 200h1100q200 0 200 -200v-1100q0 -200 -200 -200h-1100q-200 0 -200 200zM25 200q1 -175 175 -175h1101q174 0 174 176v1099q0 175 -175 175h-1100q-174 0 -175 -175v-1100z" />
<glyph unicode="+" d="M0 200v1100q0 200 200 200h1100q200 0 200 -200v-1100q0 -200 -200 -200h-1100q-200 0 -200 200zM25 200q1 -175 175 -175h1101q174 0 174 176v1099q0 175 -175 175h-1100q-174 0 -175 -175v-1100z" />
<glyph unicode="," horiz-adv-x="372" d="M-6 1096l16 22h101q67 -2 100 -2q135 0 189 23q-46 -31 -58 -76q-10 -33 -20 -70l-131 -215q4 25 18 87.5t14 92.5q0 138 -217 138h-12z" />
<glyph unicode="-" d="M0 200v1100q0 200 200 200h1100q200 0 200 -200v-1100q0 -200 -200 -200h-1100q-200 0 -200 200zM25 200q1 -175 175 -175h1101q174 0 174 176v1099q0 175 -175 175h-1100q-174 0 -175 -175v-1100z" />
<glyph unicode="." horiz-adv-x="387" d="M8 1075l16 43h390q-52 -35 -78 -125l-29 -94q-37 113 -276 166q-11 6 -23 10z" />
<glyph unicode="/" d="M0 200v1100q0 200 200 200h1100q200 0 200 -200v-1100q0 -200 -200 -200h-1100q-200 0 -200 200zM25 200q1 -175 175 -175h1101q174 0 174 176v1099q0 175 -175 175h-1100q-174 0 -175 -175v-1100z" />
<glyph unicode="0" horiz-adv-x="702" d="M-38 563l86 129h227l107 254q20 49 20 82q0 47 -37 96h388q-136 -34 -338 -432h262l-10 -20l-267 -8q-123 -244 -217 -474q-149 -364 -149 -475q0 -41 14 -63l-23 2q-24 37 -24 119q0 116 51 319q45 178 89 283.5t120 286.5q-55 -3 -80 -3q-67 0 -219 -96z" />
<glyph unicode="1" horiz-adv-x="700" d="M-43 31q88 65 174 180q64 84 100 166q175 385 240 569q6 33 6 62q0 36 -10 67l-51 -2l-2 51l334 -2l-15 -49q-49 0 -182 -276q-197 -412 -262 -518q-170 -279 -309 -279z" />
<glyph unicode="2" horiz-adv-x="997" d="M-53 31q88 65 174 180q66 88 100 166q99 221 240 569q6 33 6 62q0 36 -10 67l-51 -2l-2 51l641 -2l-15 -49q-49 0 -182 -276q-192 -400 -264 -518q-172 -279 -307 -279l-23 31q88 65 174 180q66 88 101 166q98 221 239 569q6 33 6 62q0 36 -10 67l-41 -2q-49 0 -182 -276 q-193 -400 -264 -518q-172 -279 -307 -279z" />
<glyph unicode="3" horiz-adv-x="1290" d="M-61 31q88 67 174 180q64 84 100 166q99 221 240 569q6 33 6 62q0 36 -10 67l-51 -2l-2 51l307 -2v2l635 -2l-15 -49q-49 0 -182 -276q-194 -406 -264 -518q-170 -279 -307 -279l-23 31q88 67 174 180q64 84 101 166q98 221 239 569q13 47 13 78q0 51 -37 51 q-49 0 -187 -278q-200 -406 -270 -518q-174 -279 -311 -279l-23 31q88 67 174 180q64 84 101 166q98 221 239 569q6 33 6 62q0 36 -10 67l-41 -2q-49 0 -182 -276q-195 -406 -264 -518q-170 -279 -307 -279z" />
<glyph unicode="4" horiz-adv-x="634" d="M-36 31q82 59 199 272q84 152 125 256q-64 16 -95 31q-133 59 -133 198q0 115 90 203q148 144 502 166l29 -27q-209 -22 -314 -77q-145 -76 -190 -246q-4 -14 -4 -35q0 -147 332 -184q-9 0 -21 -13.5t-14 -15.5h-1q-55 0 -216 -227q-193 -275 -266 -332z" />
<glyph unicode="5" horiz-adv-x="679" d="M-32 14q92 70 201 197q92 108 139 192q66 117 90 168q94 199 121 359q6 37 6 57q0 55 -19 74q-15 13 -50 13q-12 0 -25 -1h-2q-45 0 -107 -172q-92 -252 -129 -323q-94 -179 -219 -195q-2 2 -4 6q2 6 6 17q2 2 4 8q54 24 123 157q86 162 123 379q6 35 6 62q0 30 -35 110 h512l-14 -49q-47 0 -63 -137q-29 -250 -218 -555q-206 -334 -432 -381z" />
<glyph unicode="6" horiz-adv-x="972" d="M-40 14q92 70 201 197q94 111 139 192q70 127 90 168q92 193 121 359q6 37 6 57q0 55 -19 74q-15 13 -51 13q-12 0 -26 -1q-45 -2 -107 -172q-92 -252 -129 -323q-94 -179 -219 -195q-2 2 -4 6q0 6 6 17q2 2 4 8q54 24 123 157q86 162 123 379q6 35 6 62q0 30 -35 110 h813l-14 -49q-47 0 -63 -137q-29 -250 -217 -555q-207 -334 -433 -381l-14 14q92 70 201 197q94 111 139 192q70 127 90 168q92 193 121 359q6 37 6 57q0 47 -18 68q-43 16 -82 16q-78 0 -94 -135q-31 -252 -218 -555q-206 -334 -432 -381z" />
<glyph unicode="7" horiz-adv-x="1290" d="M-49 14q80 60 185.5 180.5t154.5 208.5q72 132 90 168q90 193 121 359q6 35 6 57q0 55 -20 74q-16 13 -51 13q-12 0 -25 -1q-45 -2 -107 -172q-92 -256 -129 -323q-96 -179 -219 -195l-6 6q2 6 6 17q2 2 6 8q51 24 121 157q88 168 125 379q6 35 6 62q0 30 -35 110h1139 l-14 -49q-47 0 -64 -137q-28 -250 -217 -555q-207 -334 -432 -381l-14 14q80 60 185.5 180.5t154.5 208.5q71 132 90 168q90 193 121 359q6 35 6 57q0 47 -19 68q-43 18 -83 18q-14 0 -27 -2q-31 0 -56.5 -30.5t-33.5 -104.5q-33 -256 -217 -555q-207 -334 -433 -381l-14 14 q80 60 185.5 180.5t154.5 208.5q72 132 90 168q90 193 121 359q6 35 6 57q0 47 -18 68q-45 16 -82 16q-31 0 -58.5 -31.5t-35.5 -103.5q-33 -256 -218 -555q-206 -334 -432 -381z" />
<glyph unicode="8" horiz-adv-x="768" d="M-38 31q84 63 199 272q75 137 125 256q-68 16 -97 31q-131 61 -131 192q0 113 90 209q131 142 502 166l15 -13l14 -14q-201 -22 -314 -79q-157 -80 -190 -244q-4 -21 -4 -29q0 -155 332 -190h319q-33 -27 -35 -29h-1q-57 0 -216 -227q-190 -273 -266 -332l-23 31 q87 65 205 264q90 151 131 250q-14 6 -48 6q-20 0 -48 -2q-65 -6 -74 -10h-1q-57 0 -205 -217q-179 -261 -256 -322z" />
<glyph unicode="9" horiz-adv-x="880" d="M-51 31q66 47 207 258q110 166 180 291q178 323 178 430q0 14 -2 24q1 4 1 8q0 39 -58 39q-47 0 -64 -45q-34 -110 -110 -325q-84 -215 -228 -232l7 31q125 61 190 440q6 35 6 62q0 30 -35 110h713l2 -26h-8q-174 0 -258 -88q-55 -58 -96 -205q-19 -66 -19 -109 q0 -98 101 -104q12 -1 29 -1q34 0 87 3l-28 -64q-25 -79 -211 -276q-158 -168 -262 -252l-3 31q72 55 193 219q129 172 141 246q-20 -2 -43 -2q-116 0 -121 67q-59 -127 -217 -301q-137 -156 -270 -260z" />
<glyph unicode=":" d="M0 200v1100q0 200 200 200h1100q200 0 200 -200v-1100q0 -200 -200 -200h-1100q-200 0 -200 200zM25 200q1 -175 175 -175h1101q174 0 174 176v1099q0 175 -175 175h-1100q-174 0 -175 -175v-1100z" />
<glyph unicode=";" d="M0 200v1100q0 200 200 200h1100q200 0 200 -200v-1100q0 -200 -200 -200h-1100q-200 0 -200 200zM25 200q1 -175 175 -175h1101q174 0 174 176v1099q0 175 -175 175h-1100q-174 0 -175 -175v-1100z" />
<glyph unicode="&#x3c;" d="M0 200v1100q0 200 200 200h1100q200 0 200 -200v-1100q0 -200 -200 -200h-1100q-200 0 -200 200zM25 200q1 -175 175 -175h1101q174 0 174 176v1099q0 175 -175 175h-1100q-174 0 -175 -175v-1100z" />
<glyph unicode="=" d="M0 200v1100q0 200 200 200h1100q200 0 200 -200v-1100q0 -200 -200 -200h-1100q-200 0 -200 200zM25 200q1 -175 175 -175h1101q174 0 174 176v1099q0 175 -175 175h-1100q-174 0 -175 -175v-1100z" />
<glyph unicode="&#x3e;" d="M0 200v1100q0 200 200 200h1100q200 0 200 -200v-1100q0 -200 -200 -200h-1100q-200 0 -200 200zM25 200q1 -175 175 -175h1101q174 0 174 176v1099q0 175 -175 175h-1100q-174 0 -175 -175v-1100z" />
<glyph unicode="?" horiz-adv-x="362" d="M22 1061q80 84 143 276l31 9q-18 -72 -74 -203q95 35 146 35q121 0 121 -88q0 -52 -33 -97l-225 -313l-7 18l103 176q55 97 55 154q0 66 -86 66q-72 0 -174 -33z" />
<glyph unicode="@" d="M0 200v1100q0 200 200 200h1100q200 0 200 -200v-1100q0 -200 -200 -200h-1100q-200 0 -200 200zM25 200q1 -175 175 -175h1101q174 0 174 176v1099q0 175 -175 175h-1100q-174 0 -175 -175v-1100z" />
<glyph unicode="A" horiz-adv-x="1077" d="M-67 61q184 138 256 316q88 432 240 569q6 33 6 62q0 36 -10 67l-52 -2l-2 51h785l-15 -49l-170 4h-27q-92 0 -145 -12q-166 -41 -305 -215q-164 -205 -164 -471q0 -29 2 -59l-395 -322zM521 1210v41l106 179h371l-4 -48h-17q-85 0 -204 -36q-158 -50 -252 -136z" />
<glyph unicode="B" horiz-adv-x="1118" d="M-61 -266q86 63 176 200q70 107 103 187q45 248 110 448q154 465 381 549h82q-178 -45 -336 -502q-133 -393 -133 -634q0 -33 2 -64q-205 -43 -381 -246zM654 768q0 86 73 203q78 125 156 143h74q-76 -18 -127 -90t-51 -152q0 -127 147 -127q62 0 132.5 41t84.5 97 q17 -17 21 -17q-23 -98 -124.5 -169.5t-203.5 -71.5q-74 0 -125 32q-57 39 -57 111z" />
<glyph unicode="C" horiz-adv-x="1372" d="M-49 -266q90 65 170 174q88 117 109 213q116 551 307 823q123 176 471 176h327l2 -24q-88 -2 -182 -29q-162 -45 -258 -156q-102 -118 -102 -280q0 -129 67 -232q78 -112 201 -118q-6 -11 -6 -21q0 -8 6 -18q-33 -13 -96 -13q-39 0 -88 4q-105 29 -154 156 q-35 90 -35 182q0 164 102.5 308.5t258.5 205.5l-41 13q-141 -27 -199 -49q-125 -50 -194 -150q-123 -180 -203 -439t-80 -476q0 -35 2 -66q-217 -102 -381 -246zM666 1210v41l106 179h699l-4 -48q-144 7 -185 7q-239 0 -395 -43q-102 -29 -221 -136z" />
<glyph unicode="D" horiz-adv-x="1308" d="M-83 -266q84 61 176 200q74 111 103 187q182 840 491 997h82q-133 -61 -297 -440q-172 -397 -172 -701q0 -30 2 -59q-203 -43 -381 -246zM488 33l15 104q-13 33 -13 86q0 228 158 539q166 328 324 328h4l-2 30h430l-14 -49q-29 0 -86.5 4t-86.5 4q-57 0 -96 -12 q-248 -80 -387 -340q-112 -211 -112 -440q0 -78 14 -133q8 -15 22 -50q-114 -47 -166 -133z" />
<glyph unicode="E" horiz-adv-x="1271" d="M-81 700l49 37h17q239 0 346 107l102 102q6 33 6 62q0 36 -10 67l-51 -2l10 47h975l-14 -49q-46 0 -137 2t-136 2q-280 0 -399 -41q-156 -53 -232 -172q-37 -57 -71 -182q-6 -43 -6 -86q0 -174 122.5 -289t296.5 -115q158 0 244 101l29 -35q-123 -90 -291 -135 q-225 6 -369 82q-188 100 -188 301q0 90 41 196h-334z" />
<glyph unicode="F" horiz-adv-x="1042" d="M-63 125q0 106 49 184q64 101 232 236q77 57 231 176q162 129 162 289q0 41 -17 65h-249q-56 0 -136 -28q-88 -33 -118 -70l51 143h975l-11 -30q-26 1 -58 1q-56 0 -130 -4q-143 -6 -177 -19t-40 -99q-53 -162 -197 -305q-84 -80 -252 -238q-145 -139 -161 -254 q-4 -33 -4 -72q0 -200 182 -317q63 -41 166 -41q141 0 266 94l10 -18q-108 -82 -129 -92q-74 -43 -162 -43h-12q-193 0 -299 61q-172 100 -172 381z" />
<glyph unicode="G" horiz-adv-x="1073" d="M-67 125q0 115 80 217q51 66 201 203q73 67 256 198q43 31 43 70q0 88 -146 193q-123 84 -229 114h1012q-275 -141 -629 -434q-391 -324 -428 -481q-10 -45 -10 -105q0 -200 182 -317q63 -41 166 -41q143 0 266 94l10 -18q-96 -70 -141 -94q-86 -46 -176 -46h-7 q-166 0 -290 93q-160 118 -160 354zM382 1075q174 -94 182 -262q178 152 375 260z" />
<glyph unicode="H" horiz-adv-x="1118" d="M-65 -266q80 59 168 176q96 127 111 211q40 233 104 424q152 448 387 573h82q-137 -86 -299 -434q-174 -375 -174 -670q0 -51 6 -96q-205 -43 -381 -246zM664 719q0 96 70 231q57 111 108 164h152q-101 -53 -188 -171t-121 -234q-7 4 -21 10zM869 719q0 96 70 231 q57 111 108 164h152q-101 -53 -188 -171t-122 -234q-6 4 -20 10z" />
<glyph unicode="I" horiz-adv-x="1097" d="M-47 61q182 138 256 316q82 428 240 569q6 33 6 62q0 36 -10 67l-52 -2l-2 51h785l-12 -42v-7l-173 4h-27q-92 0 -145 -12q-168 -41 -307 -215q-162 -203 -162 -471q0 -29 2 -59l-395 -322zM671 696q0 39 3 68q16 190 119 211l139 2l2 -29q-80 -4 -252 -450 q-11 120 -11 198z" />
<glyph unicode="J" horiz-adv-x="1308" d="M-83 -266q88 65 180 200q82 123 99 187q16 72 49 213q63 248 149 432q-33 -10 -67 -18q-60 -27 -118.5 -90.5t-74.5 -122.5h-29q9 43 27 125.5t39 121.5q117 25 262 60q119 217 254 276h82q-92 -37 -209 -244q313 82 461 150q6 14 6 27q0 39 -51 39q-10 12 -10 20t8 10 h430l-14 -49q-54 -2 -236 -61l-631 -207q-223 -443 -223 -823q0 -33 2 -62q-203 -43 -381 -246z" />
<glyph unicode="K" horiz-adv-x="1220" d="M-77 -266q92 65 170 172q88 117 109 215q110 536 309 823q123 176 469 176h327l2 -24q-88 -2 -182 -29q-162 -45 -258 -156q-102 -118 -102 -280q0 -129 67 -232q78 -112 201 -118q-4 -11 -4 -21q0 -8 4 -18q-33 -13 -96 -13q-39 0 -88 4q-105 29 -154 156 q-35 90 -35 182q0 164 102.5 308.5t258.5 205.5l-41 13q-137 -27 -197 -49q-129 -50 -196 -150q-121 -180 -202 -440t-81 -475q0 -35 2 -66q-217 -102 -381 -246z" />
<glyph unicode="L" horiz-adv-x="1339" d="M-77 -266q84 61 176 200q74 111 103 187q40 194 94 358q127 391 289 557q-5 45 -39 88h866q-53 -295 -301 -540.5t-545 -311.5l-18 17q176 53 399 246q236 202 289 364l30 92q9 31 13 80q-101 19 -221 19q-107 0 -230 -15q-166 -78 -223 -157q-131 -185 -215 -445 t-84 -483q0 -37 2 -72q-254 -104 -381 -246z" />
<glyph unicode="M" horiz-adv-x="1089" d="M-67 125q0 115 94 319q111 242 262 385q29 27 156 140q78 69 113 116q88 2 129 7q94 6 118 20l129 4q-88 -78 -219 -239q-77 -99 -155 -275q-79 -179 -79 -283q0 -9 1 -18q-8 6 -14 35q-17 24 -17 72q0 251 303 649l-16 10q-78 -18 -170 -94q-41 -33 -174 -166 q-105 -105 -192 -279t-109 -323q-8 -53 -8 -103q0 -206 180 -319q67 -43 164 -43q143 0 268 96l10 -18q-112 -84 -127 -92q-76 -41 -164 -43h-12q-189 0 -297 61q-174 102 -174 381zM724 682q100 289 282 438h160q2 -6 2 -10q0 -10 -10 -18q-219 -123 -408 -408z" />
<glyph unicode="N" horiz-adv-x="1073" d="M-67 125q0 115 80 217q51 66 201 203q73 67 256 198q43 31 43 70q0 88 -146 193q-123 84 -229 114h1012q-195 -272 -254 -381q-115 -204 -156 -428l-19 29q-8 43 -8 88q0 227 199 549q-295 -197 -522 -402q-271 -241 -297 -370q-13 -60 -13 -113q0 -194 185 -309 q69 -43 164 -43q143 0 268 96l10 -18q-94 -70 -141 -94q-86 -43 -176 -46h-7q-168 0 -290 91q-160 118 -160 356zM382 1075q174 -94 182 -262q141 121 395 260z" />
<glyph unicode="O" horiz-adv-x="1030" d="M-49 502q0 94 42 196.5t79 145.5l102 102q6 33 6 62q0 36 -10 67l-51 -2l10 47h975l-14 -49q-45 0 -137.5 2t-137.5 2q-278 0 -397 -41q-156 -53 -234 -172q-40 -61 -69 -182q-8 -33 -8 -86q0 -172 123.5 -288t298.5 -116q155 0 243 101l29 -35q-123 -90 -291 -135 q-223 6 -369 82q-190 100 -190 299zM488 705q100 59 135 135l123 -127q-47 -90 -136 -135z" />
<glyph unicode="P" horiz-adv-x="1308" d="M-83 -266q84 61 176 200q74 111 103 187q182 840 491 997h82q-133 -61 -297 -440q-172 -397 -172 -701q0 -30 2 -59q-203 -43 -381 -246zM384 260q45 150 205 381q186 268 354 360q41 23 41 56q0 16 -8 33l-2 30h430l-14 -28q-74 -2 -271 -64q-223 -70 -436 -334 q-156 -192 -260 -422q-12 -14 -27 -14q-6 0 -12 2z" />
<glyph unicode="Q" horiz-adv-x="1220" d="M-77 -266q92 65 170 172q88 117 109 215q110 536 309 823q123 176 469 176h327l2 -24q-88 -2 -182 -29q-162 -45 -258 -156q-102 -118 -102 -280q0 -129 67 -232q78 -112 201 -118q-4 -11 -4 -21q0 -8 4 -18q-33 -13 -96 -13q-39 0 -88 4q-105 29 -154 156 q-35 90 -35 182q0 164 102.5 308.5t258.5 205.5l-41 13q-137 -27 -197 -49q-129 -50 -196 -150q-121 -180 -202 -440t-81 -475q0 -35 2 -66q-217 -102 -381 -246zM855 649q0 195 141 283q-51 -80 -51 -172q0 -96 55.5 -173t145.5 -110l12 -31q-88 -24 -143 -92 q-160 103 -160 295z" />
<glyph unicode="R" horiz-adv-x="1308" d="M-83 -266q150 110 279 387q219 811 471 997l737 2l-14 -28q-213 -5 -617 -23q-37 -2 -92 -47q-25 -23 -76 -66q-131 -182 -218 -460.5t-87 -505.5q0 -37 2 -72q-203 -43 -381 -246z" />
<glyph unicode="S" horiz-adv-x="1042" d="M-63 125q0 102 53 188q39 64 133 148q-102 82 -102 254q0 141 70 262l51 143h975l-11 -30q-26 1 -58 1q-56 0 -130 -4q-143 -6 -177 -19t-40 -99q-62 -156 -207 -301q-84 -80 -250 -240q-129 -125 -147 -223q-13 -62 -13 -113q0 -194 185 -309q69 -43 162 -43 q143 0 270 96l10 -18q-112 -82 -129 -92q-74 -41 -162 -43h-12q-191 0 -299 61q-172 100 -172 381zM109 666q0 -103 41 -179q18 17 68 58q77 57 231 176q160 127 160 291q0 39 -15 63h-249q-111 -61 -173.5 -171.5t-62.5 -237.5z" />
<glyph unicode="T" horiz-adv-x="1019" d="M-24 -272q156 116 279 387q45 219 104 393q143 422 326 565q-80 -6 -240 -24q-109 -15 -180 -78q-99 -86 -152 -250q-43 -137 -43 -291q0 -33 2 -63l-28 -23q-13 121 -13 250q0 319 80 395q29 27 48.5 74t23.5 51l645 -2q-137 -61 -299 -440q-170 -396 -170 -701 q0 -30 2 -59q-205 -43 -381 -246zM289 1210v41l107 179h698l-4 -48q-143 7 -184 7q-240 0 -395 -43q-103 -29 -222 -136z" />
<glyph unicode="U" horiz-adv-x="1030" d="M-49 502q0 94 42 196.5t79 145.5l102 102q6 33 6 62q0 36 -10 67l-51 -2l10 47h975l-14 -49q-45 0 -137.5 2t-137.5 2q-278 0 -397 -41q-156 -53 -234 -172q-40 -61 -69 -182q-8 -33 -8 -86q0 -172 123.5 -288t298.5 -116q155 0 243 101l29 -35q-123 -90 -291 -135 q-223 6 -369 82q-190 100 -190 299zM412 539q0 194 141 282q-53 -80 -53 -172q0 -96 55 -173t148 -109l12 -31q-90 -25 -143 -92q-160 102 -160 295z" />
<glyph unicode="V" horiz-adv-x="1214" d="M-94 -287q82 62 135 162q31 64 94 191q29 57 185 548q22 74 133 379q12 35 12 49q0 52 -92 82h928l-138 -49q-110 -39 -296 -205q-240 -213 -246 -383v-18q0 -131 57 -193q77 -80 276 -80q24 0 50 1l-62 -17q-186 0 -311 56q-170 75 -170 237q0 37 8 66q47 168 254 338 q10 8 174 112q152 96 152 103q-41 2 -92 2q-84 0 -197 -7q-209 -47 -354 -475q-117 -342 -117 -616q0 -41 2 -78q-205 -43 -381 -246z" />
<glyph unicode="W" horiz-adv-x="1052" d="M-75 258q0 123 39 236q111 311 405 493q68 29 68 64q0 45 -90 45h-8l-195 -2l10 26h975l-14 -28q-258 -7 -432 -60q-211 -65 -373 -219q-272 -256 -272 -563q0 -33 8 -66q37 -147 82 -219q53 -92 166 -162q69 -43 161 -43q144 0 271 97l10 -19q-100 -74 -141 -94 q-84 -43 -176 -45h-5q-153 0 -296 117q-164 135 -189 354q-4 45 -4 88zM357 80q0 113 46 229.5t126 190.5q-98 -260 -98 -369q0 -57 22 -88l4 -43h-94q-6 37 -6 80zM560 80q0 113 46 229.5t126 190.5q-98 -260 -98 -369q0 -57 22 -88l4 -43h-94q-6 37 -6 80z" />
<glyph unicode="X" horiz-adv-x="1157" d="M-32 -287q82 62 135 162q31 64 94 191q13 24 93 340q-189 163 -189 376v4q0 86 86 170q74 74 164 107l-12 37q-6 18 -27 24h928l-137 -49q-88 -31 -236 -205q-178 -211 -184 -383q0 -24 -6.5 -76.5t-6.5 -80.5q0 -94 97 -123q41 -11 125 -11q24 0 51 1l-62 -17 q-348 0 -348 199q0 35 39 180q45 170 172 328q94 119 148 143q96 44 96 61v1q-19 2 -45 2q-47 0 -121 -7q-209 -47 -354 -475q-117 -342 -117 -616q0 -41 2 -78q-205 -43 -381 -246zM171 799q0 -111 43 -203q20 -45 86 -139q10 78 63 223q33 94 49 127q31 74 68 117 q27 30 76 77.5t49 59.5q0 6 -6 10q-10 1 -20 1q-106 0 -238 -77q-158 -90 -170 -196z" />
<glyph unicode="Y" horiz-adv-x="1105" d="M20 66q29 55 184 548q23 74 133 379q13 35 13 49q0 52 -92 82h927l-137 -49q-94 -35 -303 -219q-246 -219 -279 -371q-39 -181 -39 -276q0 -14 1 -27q6 -114 70.5 -227t160.5 -172q70 -43 164 -43q143 0 268 96l10 -18q-110 -84 -127 -92q-73 -41 -163 -43h-13 q-406 0 -481 432q-10 59 -10 116q0 144 78 322q59 135 245 309q154 144 207 168q96 44 96 61v1q-41 2 -92 2q-84 0 -196 -7q-146 -32 -279 -292q-209 -410 -246 -627z" />
<glyph unicode="Z" horiz-adv-x="1308" d="M-83 -266q150 110 279 387q219 811 471 997l737 2l-14 -28q-213 -5 -617 -23q-37 -2 -92 -47q-25 -23 -76 -66q-131 -182 -218 -460.5t-87 -505.5q0 -37 2 -72q-203 -43 -381 -246zM550 563v41l72 144q69 -70 231 -70q39 0 84 4l45 -27q-16 0 -61 4q-33 3 -74 3 q-191 0 -297 -99zM650 758v41l72 143q69 -70 231 -70q39 0 84 5l45 -27q-16 0 -61 4q-33 2 -74 2q-190 0 -297 -98z" />
<glyph unicode="[" d="M0 200v1100q0 200 200 200h1100q200 0 200 -200v-1100q0 -200 -200 -200h-1100q-200 0 -200 200zM25 200q1 -175 175 -175h1101q174 0 174 176v1099q0 175 -175 175h-1100q-174 0 -175 -175v-1100z" />
<glyph unicode="\" d="M0 200v1100q0 200 200 200h1100q200 0 200 -200v-1100q0 -200 -200 -200h-1100q-200 0 -200 200zM25 200q1 -175 175 -175h1101q174 0 174 176v1099q0 175 -175 175h-1100q-174 0 -175 -175v-1100z" />
<glyph unicode="]" d="M0 200v1100q0 200 200 200h1100q200 0 200 -200v-1100q0 -200 -200 -200h-1100q-200 0 -200 200zM25 200q1 -175 175 -175h1101q174 0 174 176v1099q0 175 -175 175h-1100q-174 0 -175 -175v-1100z" />
<glyph unicode="^" d="M0 200v1100q0 200 200 200h1100q200 0 200 -200v-1100q0 -200 -200 -200h-1100q-200 0 -200 200zM25 200q1 -175 175 -175h1101q174 0 174 176v1099q0 175 -175 175h-1100q-174 0 -175 -175v-1100z" />
<glyph unicode="_" d="M0 200v1100q0 200 200 200h1100q200 0 200 -200v-1100q0 -200 -200 -200h-1100q-200 0 -200 200zM25 200q1 -175 175 -175h1101q174 0 174 176v1099q0 175 -175 175h-1100q-174 0 -175 -175v-1100z" />
<glyph unicode="`" d="M0 200v1100q0 200 200 200h1100q200 0 200 -200v-1100q0 -200 -200 -200h-1100q-200 0 -200 200zM25 200q1 -175 175 -175h1101q174 0 174 176v1099q0 175 -175 175h-1100q-174 0 -175 -175v-1100z" />
<glyph unicode="a" horiz-adv-x="1087" d="M-57 61q184 138 256 316q88 432 240 569q6 33 6 62q0 36 -10 67l-52 -2l-2 51h785l-15 -49l-170 4h-27q-92 0 -145 -12q-166 -41 -305 -215q-164 -203 -164 -471q0 -29 2 -59l-395 -322zM531 1210v41l106 179h371l-4 -48h-16q-84 0 -203 -36q-162 -52 -254 -136z" />
<glyph unicode="b" horiz-adv-x="1140" d="M-30 -266q86 65 176 200q68 103 103 187q155 872 491 997h82q-178 -45 -336 -502q-133 -393 -133 -634q0 -33 2 -64q-205 -43 -381 -246zM685 768q0 86 73.5 206t153.5 140h76q-76 -18 -128 -90t-52 -152q0 -127 149 -127q60 0 131.5 42t83.5 96q17 -17 21 -17 q-23 -98 -122.5 -169.5t-203.5 -71.5q-76 0 -125 32q-57 37 -57 111z" />
<glyph unicode="c" horiz-adv-x="1372" d="M-49 -266q90 65 170 174q88 117 109 213q116 551 307 823q123 176 471 176h327l2 -24q-88 -2 -182 -29q-162 -45 -258 -156q-102 -118 -102 -280q0 -129 67 -232q78 -112 201 -118q-6 -11 -6 -21q0 -8 6 -18q-33 -13 -96 -13q-39 0 -88 4q-105 29 -154 156 q-35 90 -35 182q0 164 102.5 308.5t258.5 205.5l-41 13q-141 -27 -199 -49q-125 -50 -194 -150q-123 -180 -203 -439t-80 -476q0 -35 2 -66q-217 -102 -381 -246zM666 1210v41l106 179h699l-4 -48q-144 7 -185 7q-239 0 -395 -43q-102 -29 -221 -136z" />
<glyph unicode="d" horiz-adv-x="1331" d="M-61 -266q86 63 176 200q70 107 103 187q51 241 118 434q162 457 373 563h82q-133 -61 -297 -440q-172 -397 -172 -701q0 -30 2 -59q-205 -43 -381 -246zM510 33l15 104q-13 33 -13 86q0 232 156 539q166 328 326 328h4l-2 30h430l-14 -49q-29 0 -86.5 4t-86.5 4 q-57 0 -96 -12q-250 -80 -389 -340q-113 -211 -113 -440q0 -78 17 -133q6 -15 22 -50q-116 -47 -166 -133z" />
<glyph unicode="e" horiz-adv-x="1280" d="M-71 700l49 37h17q239 0 346 107l102 102q6 33 6 62q0 36 -10 67l-51 -2l10 47h975l-14 -49q-46 0 -138 2t-137 2q-278 0 -397 -41q-156 -53 -234 -172q-41 -61 -69 -182q-9 -33 -9 -86q0 -172 124 -288t298 -116q156 0 244 101l29 -35q-123 -90 -291 -135 q-225 6 -369 82q-188 100 -188 301q0 90 41 196h-334z" />
<glyph unicode="f" horiz-adv-x="1042" d="M-63 125q0 106 49 184q64 101 232 236q77 57 231 176q162 129 162 289q0 41 -17 65h-249q-56 0 -136 -28q-88 -33 -118 -70l51 143h975l-11 -30q-26 1 -58 1q-56 0 -130 -4q-143 -6 -177 -19t-40 -99q-53 -162 -197 -305q-84 -80 -252 -238q-145 -139 -161 -254 q-4 -33 -4 -72q0 -200 182 -317q63 -41 166 -41q141 0 266 94l10 -18q-108 -82 -129 -92q-74 -43 -162 -43h-12q-193 0 -299 61q-172 100 -172 381z" />
<glyph unicode="g" horiz-adv-x="1073" d="M-67 125q0 115 80 217q51 66 201 203q73 67 256 198q43 31 43 70q0 88 -146 193q-123 84 -229 114h1012q-275 -141 -629 -434q-391 -324 -428 -481q-10 -45 -10 -105q0 -200 182 -317q63 -41 166 -41q143 0 266 94l10 -18q-96 -70 -141 -94q-86 -46 -176 -46h-7 q-166 0 -290 93q-160 118 -160 354zM382 1075q174 -94 182 -262q178 152 375 260z" />
<glyph unicode="h" horiz-adv-x="1128" d="M-55 -266q80 59 168 176q96 127 111 211q38 227 104 424q152 448 387 573h82q-135 -84 -297 -434q-176 -381 -176 -670q0 -51 6 -96q-205 -43 -381 -246zM674 719q2 94 72 231q57 113 106 164h152q-101 -53 -191 -174q-80 -111 -118 -231q0 4 -21 10zM879 719 q2 94 72 231q57 113 106 164h152q-101 -53 -191 -174q-80 -111 -119 -231q0 4 -20 10z" />
<glyph unicode="i" horiz-adv-x="1097" d="M-47 61q182 138 256 316q82 428 240 569q6 33 6 62q0 36 -10 67l-52 -2l-2 51h785l-12 -42v-7l-173 4h-27q-92 0 -145 -12q-168 -41 -307 -215q-162 -203 -162 -471q0 -29 2 -59l-395 -322zM671 696q0 39 3 68q16 190 119 211l139 2l2 -29q-80 -4 -252 -450 q-11 120 -11 198z" />
<glyph unicode="j" horiz-adv-x="1323" d="M-69 -266q86 63 178 200q78 117 101 187q69 373 198 645q-35 -10 -67 -18q-64 -27 -120.5 -88.5t-72.5 -124.5h-29q23 120 25 129q18 81 41 118q115 25 262 60q117 217 254 276h82q-94 -37 -211 -244q315 82 463 150q4 14 4 27q0 39 -49 39q-12 12 -12 20t10 10h430 l-14 -49q-54 -2 -236 -61l-633 -207q-92 -185 -153 -402q-68 -237 -68 -421q0 -33 2 -62q-205 -43 -381 -246z" />
<glyph unicode="k" horiz-adv-x="1222" d="M-75 -266q90 65 170 174q88 117 109 213q116 551 307 823q123 176 471 176h327l2 -24q-88 -2 -182 -29q-162 -45 -260 -156q-102 -118 -102 -280q0 -131 69 -232q76 -112 201 -118q-6 -11 -6 -21q0 -8 6 -18q-33 -13 -96 -13q-39 0 -88 4q-107 29 -154 156 q-35 92 -35 182q0 164 102.5 308.5t258.5 205.5l-43 13q-139 -27 -197 -49q-129 -50 -196 -150q-121 -176 -202 -439t-81 -476q0 -35 4 -66q-217 -102 -381 -246z" />
<glyph unicode="l" horiz-adv-x="1380" d="M-36 -266q86 63 176 200q70 107 103 187q40 194 94 358q127 391 289 557q-5 45 -39 88h866q-53 -295 -301 -540.5t-545 -311.5l-18 17q176 53 399 246q236 202 289 364l30 92q9 31 13 80q-101 19 -221 19q-107 0 -230 -15q-166 -78 -223 -157q-131 -185 -215 -445 t-84 -483q0 -37 2 -72q-254 -104 -381 -246z" />
<glyph unicode="m" horiz-adv-x="1112" d="M-45 125q0 115 94 319q111 242 262 385q29 27 156 140q78 69 113 116q88 2 129 7q94 6 118 20l129 4q-88 -78 -219 -239q-77 -99 -155 -275q-79 -179 -79 -283q0 -9 1 -18q-6 6 -14 35q-17 24 -17 72q0 251 303 649l-16 10q-78 -18 -170 -94q-41 -33 -174 -166 q-105 -105 -192 -279t-109 -323q-8 -53 -8 -103q0 -206 180 -319q67 -43 164 -43q143 0 268 96l10 -18q-112 -84 -127 -92q-76 -41 -164 -43h-12q-189 0 -297 61q-174 102 -174 381zM746 682q100 289 282 438h160q2 -6 2 -10q0 -10 -10 -18q-219 -123 -408 -408z" />
<glyph unicode="n" horiz-adv-x="819" d="M-49 125q0 115 94 319q111 242 262 385q29 27 156 140q78 69 113 116q170 13 266 52q8 -43 22 -97q-155 -202 -165 -219q-80 -114 -132 -246q-67 -172 -67 -260v-14q-6 6 -14 35q-17 24 -17 72q0 251 303 649l-16 10q-76 -18 -168 -94q-51 -43 -176 -166 q-105 -105 -192 -279t-109 -323q-8 -53 -8 -103q0 -206 180 -319q69 -43 164 -43q143 0 268 96l10 -18q-110 -84 -127 -92q-74 -41 -164 -43h-12q-189 0 -297 61q-174 100 -174 381z" />
<glyph unicode="o" horiz-adv-x="1044" d="M-36 502q0 108 76 270q16 35 47 72l102 102q6 33 6 62q0 36 -10 67l-51 -2l10 47h975l-14 -49q-45 0 -137.5 2t-137.5 2q-278 0 -397 -41q-158 -55 -233 -172q-41 -63 -70 -182q-8 -33 -8 -86q0 -174 122.5 -289t297.5 -115q157 0 245 101l29 -35q-125 -90 -291 -135 q-223 6 -368 82q-193 100 -193 299zM503 705q98 59 135 135l123 -127q-49 -90 -135 -135z" />
<glyph unicode="p" horiz-adv-x="1310" d="M-81 -266q86 65 176 200q68 103 103 187q51 241 118 434q162 457 373 563h82q-137 -61 -299 -440q-170 -395 -170 -701q0 -30 2 -59q-205 -43 -381 -246zM384 260q49 156 205 381q184 266 354 360q41 23 41 58q0 14 -6 31l-2 30h430l-14 -28q-76 -2 -273 -64 q-223 -70 -436 -334q-156 -192 -258 -422q-12 -14 -29 -14q-6 0 -12 2z" />
<glyph unicode="q" horiz-adv-x="1247" d="M-73 -266q90 65 170 174q88 117 109 213q116 551 307 823q123 176 471 176h327l2 -24q-88 -2 -182 -29q-162 -45 -260 -156q-102 -118 -102 -280q0 -131 69 -232q76 -112 201 -118q-6 -11 -6 -21q0 -8 6 -18q-33 -13 -96 -13q-39 0 -88 4q-107 29 -154 156 q-35 92 -35 182q0 164 102.5 308.5t258.5 205.5l-43 13q-139 -27 -197 -49q-129 -50 -196 -150q-121 -176 -201 -438t-80 -477q0 -35 2 -66q-217 -102 -381 -246zM859 649q0 195 141 283q-53 -80 -53 -172q0 -96 55 -173t148 -110l12 -31q-90 -24 -143 -92 q-160 103 -160 295z" />
<glyph unicode="r" horiz-adv-x="1308" d="M-83 -266q150 110 279 387q219 811 471 997l737 2l-14 -28q-213 -5 -617 -23q-37 -2 -92 -47q-25 -23 -76 -66q-131 -182 -218 -460.5t-87 -505.5q0 -37 2 -72q-203 -43 -381 -246z" />
<glyph unicode="s" horiz-adv-x="1042" d="M-63 125q0 102 53 188q39 64 133 148q-102 82 -102 254q0 141 70 262l51 143h975l-11 -30q-26 1 -58 1q-56 0 -130 -4q-143 -6 -177 -19t-40 -99q-62 -156 -207 -301q-84 -80 -250 -240q-129 -125 -147 -223q-13 -62 -13 -113q0 -194 185 -309q69 -43 162 -43 q143 0 270 96l10 -18q-112 -82 -129 -92q-74 -41 -162 -43h-12q-191 0 -299 61q-172 100 -172 381zM109 666q0 -103 41 -179q18 17 68 58q77 57 231 176q160 127 160 291q0 39 -15 63h-249q-111 -61 -173.5 -171.5t-62.5 -237.5z" />
<glyph unicode="t" horiz-adv-x="825" d="M32 -272q158 116 279 387q161 749 432 958q-80 -6 -240 -24q-113 -17 -182 -78q-96 -84 -150 -250q-45 -141 -45 -291q0 -33 2 -63l-28 -23q-13 121 -13 250q0 319 82 395q33 31 45 66q17 49 25 59l645 -2q-133 -61 -297 -440q-172 -398 -172 -701q0 -30 2 -59 q-203 -43 -381 -246z" />
<glyph unicode="u" horiz-adv-x="1034" d="M-45 502q0 94 42 196.5t79 145.5l102 102q6 33 6 62q0 36 -10 67l-51 -2l10 47h975l-14 -49q-45 0 -137.5 2t-137.5 2q-278 0 -397 -41q-156 -53 -234 -172q-40 -61 -69 -182q-8 -33 -8 -86q0 -172 123.5 -288t298.5 -116q155 0 243 101l29 -35q-123 -90 -291 -135 q-223 6 -369 82q-190 100 -190 299zM416 539q0 194 141 282q-53 -80 -53 -172q0 -96 55 -173t148 -109l12 -31q-90 -25 -143 -92q-160 102 -160 295z" />
<glyph unicode="v" horiz-adv-x="1214" d="M-94 -287q82 62 135 162q31 64 94 191q29 57 185 548q22 74 133 379q12 35 12 49q0 52 -92 82h928l-138 -49q-110 -39 -296 -205q-240 -213 -246 -383v-18q0 -131 57 -193q77 -80 276 -80q24 0 50 1l-62 -17q-186 0 -311 56q-170 75 -170 237q0 37 8 66q47 168 254 338 q10 8 174 112q152 96 152 103q-41 2 -92 2q-84 0 -197 -7q-209 -47 -354 -475q-117 -342 -117 -616q0 -41 2 -78q-205 -43 -381 -246z" />
<glyph unicode="w" horiz-adv-x="1052" d="M-75 258q0 123 39 236q111 311 405 493q68 29 68 64q0 45 -90 45h-8l-195 -2l10 26h975l-14 -28q-258 -7 -432 -60q-211 -65 -373 -219q-272 -256 -272 -563q0 -33 8 -66q37 -147 82 -219q53 -92 166 -162q69 -43 161 -43q144 0 271 97l10 -19q-100 -74 -141 -94 q-84 -43 -176 -45h-5q-153 0 -296 117q-164 135 -189 354q-4 45 -4 88zM357 80q0 113 46 229.5t126 190.5q-98 -260 -98 -369q0 -57 22 -88l4 -43h-94q-6 37 -6 80zM560 80q0 113 46 229.5t126 190.5q-98 -260 -98 -369q0 -57 22 -88l4 -43h-94q-6 37 -6 80z" />
<glyph unicode="x" horiz-adv-x="1157" d="M-32 -287q82 62 135 162q31 64 94 191q13 24 93 340q-189 163 -189 376v4q0 86 86 170q74 74 164 107l-12 37q-6 18 -27 24h928l-137 -49q-88 -31 -236 -205q-178 -211 -184 -383q0 -24 -6.5 -76.5t-6.5 -80.5q0 -94 97 -123q41 -11 125 -11q24 0 51 1l-62 -17 q-348 0 -348 199q0 35 39 180q45 170 172 328q94 119 148 143q96 44 96 61v1q-19 2 -45 2q-47 0 -121 -7q-209 -47 -354 -475q-117 -342 -117 -616q0 -41 2 -78q-205 -43 -381 -246zM171 799q0 -111 43 -203q20 -45 86 -139q10 78 63 223q33 92 49 127q31 72 68 117 q23 26 78 80q47 45 47 57q0 6 -6 10q-10 1 -20 1q-106 0 -238 -77q-158 -90 -170 -196z" />
<glyph unicode="y" horiz-adv-x="1105" d="M20 66q29 55 184 548q23 74 133 379q13 35 13 49q0 52 -92 82h927l-137 -49q-94 -35 -303 -219q-246 -219 -279 -371q-39 -181 -39 -276q0 -14 1 -27q6 -114 70.5 -227t160.5 -172q70 -43 164 -43q143 0 268 96l10 -18q-110 -84 -127 -92q-73 -41 -163 -43h-13 q-406 0 -481 432q-10 59 -10 116q0 144 78 322q59 135 245 309q154 144 207 168q96 44 96 61v1q-41 2 -92 2q-84 0 -196 -7q-146 -32 -279 -292q-209 -410 -246 -627z" />
<glyph unicode="z" horiz-adv-x="1308" d="M-83 -266q150 110 279 387q219 811 471 997l737 2l-14 -28q-213 -5 -617 -23q-37 -2 -92 -47q-25 -23 -76 -66q-131 -182 -218 -460.5t-87 -505.5q0 -37 2 -72q-203 -43 -381 -246zM550 563v41l72 144q69 -70 231 -70q39 0 84 4l45 -27q-16 0 -61 4q-33 3 -74 3 q-191 0 -297 -99zM650 758v41l72 143q69 -70 231 -70q39 0 84 5l45 -27q-16 0 -61 4q-33 2 -74 2q-190 0 -297 -98z" />
<glyph unicode="{" d="M0 200v1100q0 200 200 200h1100q200 0 200 -200v-1100q0 -200 -200 -200h-1100q-200 0 -200 200zM25 200q1 -175 175 -175h1101q174 0 174 176v1099q0 175 -175 175h-1100q-174 0 -175 -175v-1100z" />
<glyph unicode="|" d="M0 200v1100q0 200 200 200h1100q200 0 200 -200v-1100q0 -200 -200 -200h-1100q-200 0 -200 200zM25 200q1 -175 175 -175h1101q174 0 174 176v1099q0 175 -175 175h-1100q-174 0 -175 -175v-1100z" />
<glyph unicode="}" d="M0 200v1100q0 200 200 200h1100q200 0 200 -200v-1100q0 -200 -200 -200h-1100q-200 0 -200 200zM25 200q1 -175 175 -175h1101q174 0 174 176v1099q0 175 -175 175h-1100q-174 0 -175 -175v-1100z" />
<glyph unicode="~" horiz-adv-x="1204" d="M116 -272q158 116 279 387q45 219 104 393q143 422 328 565q-80 -6 -242 -24q-109 -15 -180 -78q-99 -86 -152 -250q-43 -137 -43 -291q0 -33 2 -63l-28 -23q-13 121 -13 250q0 321 80 395q31 29 49.5 75t22.5 50l645 -2q-133 -61 -297 -440q-172 -398 -172 -701 q0 -30 2 -59q-205 -43 -381 -246zM763 670l264 440h254l9 -29q-156 -6 -283 -127q-80 -77 -193 -256z" />
<glyph unicode="&#xa2;" d="M0 200v1100q0 200 200 200h1100q200 0 200 -200v-1100q0 -200 -200 -200h-1100q-200 0 -200 200zM25 200q1 -175 175 -175h1101q174 0 174 176v1099q0 175 -175 175h-1100q-174 0 -175 -175v-1100z" />
<glyph unicode="&#xa3;" d="M0 200v1100q0 200 200 200h1100q200 0 200 -200v-1100q0 -200 -200 -200h-1100q-200 0 -200 200zM25 200q1 -175 175 -175h1101q174 0 174 176v1099q0 175 -175 175h-1100q-174 0 -175 -175v-1100z" />
<glyph unicode="&#xa5;" d="M0 200v1100q0 200 200 200h1100q200 0 200 -200v-1100q0 -200 -200 -200h-1100q-200 0 -200 200zM25 200q1 -175 175 -175h1101q174 0 174 176v1099q0 175 -175 175h-1100q-174 0 -175 -175v-1100z" />
<glyph unicode="&#xa8;" d="M0 200v1100q0 200 200 200h1100q200 0 200 -200v-1100q0 -200 -200 -200h-1100q-200 0 -200 200zM25 200q1 -175 175 -175h1101q174 0 174 176v1099q0 175 -175 175h-1100q-174 0 -175 -175v-1100z" />
<glyph unicode="&#xa9;" d="M0 200v1100q0 200 200 200h1100q200 0 200 -200v-1100q0 -200 -200 -200h-1100q-200 0 -200 200zM25 200q1 -175 175 -175h1101q174 0 174 176v1099q0 175 -175 175h-1100q-174 0 -175 -175v-1100z" />
<glyph unicode="&#xab;" d="M0 200v1100q0 200 200 200h1100q200 0 200 -200v-1100q0 -200 -200 -200h-1100q-200 0 -200 200zM25 200q1 -175 175 -175h1101q174 0 174 176v1099q0 175 -175 175h-1100q-174 0 -175 -175v-1100z" />
<glyph unicode="&#xad;" d="M0 200v1100q0 200 200 200h1100q200 0 200 -200v-1100q0 -200 -200 -200h-1100q-200 0 -200 200zM25 200q1 -175 175 -175h1101q174 0 174 176v1099q0 175 -175 175h-1100q-174 0 -175 -175v-1100z" />
<glyph unicode="&#xae;" d="M0 200v1100q0 200 200 200h1100q200 0 200 -200v-1100q0 -200 -200 -200h-1100q-200 0 -200 200zM25 200q1 -175 175 -175h1101q174 0 174 176v1099q0 175 -175 175h-1100q-174 0 -175 -175v-1100z" />
<glyph unicode="&#xb4;" d="M0 200v1100q0 200 200 200h1100q200 0 200 -200v-1100q0 -200 -200 -200h-1100q-200 0 -200 200zM25 200q1 -175 175 -175h1101q174 0 174 176v1099q0 175 -175 175h-1100q-174 0 -175 -175v-1100z" />
<glyph unicode="&#xb8;" d="M0 200v1100q0 200 200 200h1100q200 0 200 -200v-1100q0 -200 -200 -200h-1100q-200 0 -200 200zM25 200q1 -175 175 -175h1101q174 0 174 176v1099q0 175 -175 175h-1100q-174 0 -175 -175v-1100z" />
<glyph unicode="&#xbb;" d="M0 200v1100q0 200 200 200h1100q200 0 200 -200v-1100q0 -200 -200 -200h-1100q-200 0 -200 200zM25 200q1 -175 175 -175h1101q174 0 174 176v1099q0 175 -175 175h-1100q-174 0 -175 -175v-1100z" />
<glyph unicode="&#x2c6;" d="M0 200v1100q0 200 200 200h1100q200 0 200 -200v-1100q0 -200 -200 -200h-1100q-200 0 -200 200zM25 200q1 -175 175 -175h1101q174 0 174 176v1099q0 175 -175 175h-1100q-174 0 -175 -175v-1100z" />
<glyph unicode="&#x2da;" d="M0 200v1100q0 200 200 200h1100q200 0 200 -200v-1100q0 -200 -200 -200h-1100q-200 0 -200 200zM25 200q1 -175 175 -175h1101q174 0 174 176v1099q0 175 -175 175h-1100q-174 0 -175 -175v-1100z" />
<glyph unicode="&#x2dc;" d="M0 200v1100q0 200 200 200h1100q200 0 200 -200v-1100q0 -200 -200 -200h-1100q-200 0 -200 200zM25 200q1 -175 175 -175h1101q174 0 174 176v1099q0 175 -175 175h-1100q-174 0 -175 -175v-1100z" />
<glyph unicode="&#x2000;" horiz-adv-x="750" />
<glyph unicode="&#x2001;" horiz-adv-x="1500" />
<glyph unicode="&#x2002;" horiz-adv-x="750" />
<glyph unicode="&#x2003;" horiz-adv-x="1500" />
<glyph unicode="&#x2004;" horiz-adv-x="500" />
<glyph unicode="&#x2005;" horiz-adv-x="375" />
<glyph unicode="&#x2006;" horiz-adv-x="250" />
<glyph unicode="&#x2007;" horiz-adv-x="250" />
<glyph unicode="&#x2008;" horiz-adv-x="187" />
<glyph unicode="&#x2009;" horiz-adv-x="300" />
<glyph unicode="&#x200a;" horiz-adv-x="83" />
<glyph unicode="&#x2010;" d="M0 200v1100q0 200 200 200h1100q200 0 200 -200v-1100q0 -200 -200 -200h-1100q-200 0 -200 200zM25 200q1 -175 175 -175h1101q174 0 174 176v1099q0 175 -175 175h-1100q-174 0 -175 -175v-1100z" />
<glyph unicode="&#x2011;" d="M0 200v1100q0 200 200 200h1100q200 0 200 -200v-1100q0 -200 -200 -200h-1100q-200 0 -200 200zM25 200q1 -175 175 -175h1101q174 0 174 176v1099q0 175 -175 175h-1100q-174 0 -175 -175v-1100z" />
<glyph unicode="&#x2012;" d="M0 200v1100q0 200 200 200h1100q200 0 200 -200v-1100q0 -200 -200 -200h-1100q-200 0 -200 200zM25 200q1 -175 175 -175h1101q174 0 174 176v1099q0 175 -175 175h-1100q-174 0 -175 -175v-1100z" />
<glyph unicode="&#x2013;" d="M0 200v1100q0 200 200 200h1100q200 0 200 -200v-1100q0 -200 -200 -200h-1100q-200 0 -200 200zM25 200q1 -175 175 -175h1101q174 0 174 176v1099q0 175 -175 175h-1100q-174 0 -175 -175v-1100z" />
<glyph unicode="&#x2014;" d="M0 200v1100q0 200 200 200h1100q200 0 200 -200v-1100q0 -200 -200 -200h-1100q-200 0 -200 200zM25 200q1 -175 175 -175h1101q174 0 174 176v1099q0 175 -175 175h-1100q-174 0 -175 -175v-1100z" />
<glyph unicode="&#x2018;" d="M0 200v1100q0 200 200 200h1100q200 0 200 -200v-1100q0 -200 -200 -200h-1100q-200 0 -200 200zM25 200q1 -175 175 -175h1101q174 0 174 176v1099q0 175 -175 175h-1100q-174 0 -175 -175v-1100z" />
<glyph unicode="&#x2019;" d="M0 200v1100q0 200 200 200h1100q200 0 200 -200v-1100q0 -200 -200 -200h-1100q-200 0 -200 200zM25 200q1 -175 175 -175h1101q174 0 174 176v1099q0 175 -175 175h-1100q-174 0 -175 -175v-1100z" />
<glyph unicode="&#x201a;" d="M0 200v1100q0 200 200 200h1100q200 0 200 -200v-1100q0 -200 -200 -200h-1100q-200 0 -200 200zM25 200q1 -175 175 -175h1101q174 0 174 176v1099q0 175 -175 175h-1100q-174 0 -175 -175v-1100z" />
<glyph unicode="&#x201c;" d="M0 200v1100q0 200 200 200h1100q200 0 200 -200v-1100q0 -200 -200 -200h-1100q-200 0 -200 200zM25 200q1 -175 175 -175h1101q174 0 174 176v1099q0 175 -175 175h-1100q-174 0 -175 -175v-1100z" />
<glyph unicode="&#x201d;" d="M0 200v1100q0 200 200 200h1100q200 0 200 -200v-1100q0 -200 -200 -200h-1100q-200 0 -200 200zM25 200q1 -175 175 -175h1101q174 0 174 176v1099q0 175 -175 175h-1100q-174 0 -175 -175v-1100z" />
<glyph unicode="&#x201e;" d="M0 200v1100q0 200 200 200h1100q200 0 200 -200v-1100q0 -200 -200 -200h-1100q-200 0 -200 200zM25 200q1 -175 175 -175h1101q174 0 174 176v1099q0 175 -175 175h-1100q-174 0 -175 -175v-1100z" />
<glyph unicode="&#x2022;" d="M0 200v1100q0 200 200 200h1100q200 0 200 -200v-1100q0 -200 -200 -200h-1100q-200 0 -200 200zM25 200q1 -175 175 -175h1101q174 0 174 176v1099q0 175 -175 175h-1100q-174 0 -175 -175v-1100z" />
<glyph unicode="&#x2026;" d="M0 200v1100q0 200 200 200h1100q200 0 200 -200v-1100q0 -200 -200 -200h-1100q-200 0 -200 200zM25 200q1 -175 175 -175h1101q174 0 174 176v1099q0 175 -175 175h-1100q-174 0 -175 -175v-1100z" />
<glyph unicode="&#x202f;" horiz-adv-x="300" />
<glyph unicode="&#x2039;" d="M0 200v1100q0 200 200 200h1100q200 0 200 -200v-1100q0 -200 -200 -200h-1100q-200 0 -200 200zM25 200q1 -175 175 -175h1101q174 0 174 176v1099q0 175 -175 175h-1100q-174 0 -175 -175v-1100z" />
<glyph unicode="&#x203a;" d="M0 200v1100q0 200 200 200h1100q200 0 200 -200v-1100q0 -200 -200 -200h-1100q-200 0 -200 200zM25 200q1 -175 175 -175h1101q174 0 174 176v1099q0 175 -175 175h-1100q-174 0 -175 -175v-1100z" />
<glyph unicode="&#x205f;" horiz-adv-x="375" />
<glyph unicode="&#x20ac;" d="M0 200v1100q0 200 200 200h1100q200 0 200 -200v-1100q0 -200 -200 -200h-1100q-200 0 -200 200zM25 200q1 -175 175 -175h1101q174 0 174 176v1099q0 175 -175 175h-1100q-174 0 -175 -175v-1100z" />
<glyph unicode="&#x2122;" d="M0 200v1100q0 200 200 200h1100q200 0 200 -200v-1100q0 -200 -200 -200h-1100q-200 0 -200 200zM25 200q1 -175 175 -175h1101q174 0 174 176v1099q0 175 -175 175h-1100q-174 0 -175 -175v-1100z" />
<glyph unicode="&#x25fc;" horiz-adv-x="1125" d="M0 0v1125h1125v-1125h-1125z" />
</font>
</defs>
</svg>
