<?xml version="1.0" standalone="no"?>
<!DOCTYPE svg PUBLIC "-//W3C//DTD SVG 1.1//EN" "http://www.w3.org/Graphics/SVG/1.1/DTD/svg11.dtd" >
<svg xmlns="http://www.w3.org/2000/svg">
<metadata></metadata>
<defs>
<font id="lassusregular" horiz-adv-x="790" >
<font-face units-per-em="2048" ascent="1638" descent="-410" />
<missing-glyph horiz-adv-x="406" />
<glyph horiz-adv-x="2048" />
<glyph horiz-adv-x="2048" />
<glyph unicode="&#xd;" horiz-adv-x="2048" />
<glyph unicode=" "  horiz-adv-x="406" />
<glyph unicode="&#x09;" horiz-adv-x="406" />
<glyph unicode="&#xa0;" horiz-adv-x="406" />
<glyph unicode="!" d="M-4 7h800v-14h-800v14v0zM-4 211h800v-16h-800v16v0zM-4 414h800v-17h-800v17v0zM304 818h492v-13h-492v-189h492v-13h-492v-89h-20v89h-288v13h288v189h-288v13h288v187h-80v16h80v181v5t2 5h-82v13h85q11 35 43 62t68 38q11 3 21.5 5t21.5 2q15 0 30 -1t28 -10 q17 -11 22.5 -31.5t5.5 -44.5q0 -4 -1 -9.5t-3 -10.5h98v-13h-102q-14 -34 -48.5 -58t-72.5 -33q-7 -2 -15 -3t-14 -1h-5.5h-8.5q-11 0 -23.5 3t-29.5 12v-111h319v-16h-319v-187v0zM455 1212h-125q-9 -11 -14.5 -22.5t-5.5 -22.5q0 -9 5.5 -13t14.5 -6h1h1h1h1q11 0 29.5 7 t36.5 18q8 5 17.5 9.5t16.5 10.5l4.5 4.5t6.5 4.5l5 5l5 5v0zM343 1225h128q13 16 22.5 31t9.5 26v0v2v0v0q0 7 -5 11.5t-12 4.5h-3h-6q-9 0 -21.5 -4.5t-25.5 -9.5q-9 -4 -17 -8.5t-16 -10.5q-11 -5 -18.5 -12t-14.5 -12q-2 -2 -4.5 -4t-5.5 -5q-4 -2 -6.5 -4t-4.5 -5v0z " />
<glyph unicode="&#x22;" d="M-4 7h800v-14h-800v14v0zM-4 211h800v-16h-800v16v0zM295 805h-46h-104h-102h-45l-2 13h299v187h-91v14h91v59q0 28 16 52t39 41q17 13 38.5 23t41.5 16q6 0 13.5 1t13.5 1q37 0 59 -20.5t22 -52.5q0 -5 -1 -9t-1 -9q-4 -20 -17.5 -39t-32.5 -34q-6 -5 -12 -9t-12 -7 q-7 -4 -13 -7.5t-13 -5.5h187v-14h-307v-187h170q-2 30 -11 55t-18 47q-6 11 -12.5 23t-10.5 20l13 5q5 -9 11 -19t13 -21q11 -22 21.5 -50t16.5 -60h287v-13h-284q2 -11 3 -24t1 -26q0 -37 -14 -72t-38 -67h332v-13h-343q-18 -22 -41.5 -48t-47.5 -52q-7 -7 -12 -15t-9 -15 q-7 -16 -11.5 -31t-8.5 -28h473v-17h-475q0 -4 -1 -8.5t-1 -8.5q0 -5 -1.5 -9.5t-1.5 -8.5h-21v35h-299v17h299v189h-299v13h299v189v0zM384 603h-68v-26q18 2 35.5 9.5t32.5 16.5v0zM488 805h-27h-59h-59h-27v-189h89q32 28 54.5 65t26.5 78q2 5 2 8v8v16v14v0z" />
<glyph unicode="#" d="M477 195h-481v16h481v89h21v-89h298v-16h-298v-188h298v-14h-298v-195h125v-14h-125v-161q0 -5 -1.5 -11.5t-3.5 -11.5l130 -2v-16h-135q-6 -14 -17 -28t-28 -25q-18 -13 -38.5 -22.5t-40.5 -13.5q-7 0 -14 -1t-14 -1q-34 0 -59 19t-25 52q0 6 1 11.5t3 10.5l-52 -2v16 h58q2 5 4.5 9.5t4.5 6.5q7 11 16.5 21.5t18.5 17.5q11 8 25 16t29 15q11 4 24 8t26 4q22 0 39 -5t28 -14v107h-273v14h273v195h-481v14h481v188v0zM-4 414h800v-17h-800v17v0zM-4 616h800v-13h-800v13v0zM-4 818h800v-13h-800v13v0z" />
<glyph unicode="$" d="M477 195h-481v16h481v189h21v-189h298v-16h-298v-188h298v-14h-298v-195h125v-14h-125v-64q0 -25 -15 -48.5t-40 -42.5q-18 -13 -38.5 -22t-40.5 -14q-7 0 -14 -1.5t-14 -1.5q-34 0 -59 19.5t-25 51.5q0 26 16 49.5t38 41.5q9 7 19.5 13.5t21.5 11.5q5 2 11 4.5t11 4.5 h-25h-58h-56h-26v12h273v195h-481v14h481v188v0zM-4 414h800v-17h-800v17v0zM-4 616h800v-13h-800v13v0zM-4 818h800v-13h-800v13v0z" />
<glyph unicode="%" d="M477 397h-481v17h481v84h21v-84h298v-17h-298v-186h298v-16h-298v-188h298v-14h-298v-175v-2v-7q-2 -2 -2.5 -4.5t-0.5 -4.5l128 -2v-14q0 2 -20.5 2h-47.5h-44h-23q-4 -18 -16 -33t-29 -26q-18 -13 -38.5 -22t-40.5 -15q-7 0 -14 -1t-14 -1q-15 0 -31 5t-27 14 q-12 9 -19 23t-7 29q0 7 2 13.5t5 13.5l-55 -2v14h60q9 16 20 28.5t22 23.5q11 9 25 17t29 12q11 4 24 8t26 4q22 0 39 -4.5t28 -14.5v121h-481v14h481v188h-481v16h481v186v0zM-4 616h800v-13h-800v13v0zM-4 818h800v-13h-800v13v0z" />
<glyph unicode="&#x26;" d="M477 603h-481v13h481v98h21v-98h298v-13h-298v-189h298v-17h-298v-186h298v-16h-298v-158q0 -7 -1.5 -14t-5.5 -16h305v-14h-310q-6 -13 -17.5 -26t-25.5 -21q-18 -14 -38.5 -24.5t-40.5 -14.5q-7 0 -14 -1t-14 -1q-34 0 -59 20.5t-25 52.5q0 2 1 7.5t3 10.5l-260 -3v14 h266q7 17 18 31t26 27q11 9 25 17.5t29 12.5q11 5 24 8.5t26 3.5q22 0 39 -3.5t28 -14.5v106h-481v16h481v186h-481v17h481v189v0zM-4 818h800v-13h-800v13v0z" />
<glyph unicode="'" horiz-adv-x="811" d="M509 603h-518v13h518v98h20v-98h291v-13h-291v-189h291v-17h-291v-186h291v-16h-291v-169v-5.5v-4.5q-2 -3 -2 -5v-4h293v-14q0 3 -56.5 3h-125.5h-61h-54q-14 -33 -45 -56.5t-64 -34.5q-11 -3 -21.5 -5t-21.5 -2q-16 0 -31 1t-26 10q-18 11 -24 31.5t-6 43.5v4t2 1v3v4 h-58h-67h-115h-53l-2 11h47.5h102.5h101h47q13 36 47.5 62t73.5 38q8 2 16 3t17 1h8h6q11 0 23.5 -3.5t28.5 -12.5v100h-518v16h518v186h-518v17h518v189v0zM457 -7q0 3 -19.5 3h-42.5h-44h-19q-9 -14 -15.5 -26.5t-6.5 -21.5t5.5 -12.5t14.5 -5.5h1h1h1h1q11 0 29.5 5.5 t36.5 16.5q8 5 17.5 10.5t16.5 11.5q2 3 5.5 5.5t5.5 4.5q2 5 6 7t6 5v-3zM345 7h128q4 4 7.5 8.5t7.5 10.5q7 8 11 18t4 17v0v2v0v0q0 7 -5 12t-12 5h-3h-6q-9 0 -21.5 -5t-25.5 -10q-9 -4 -17 -8.5t-16 -10.5q-11 -5 -18.5 -11.5t-14.5 -12.5q-2 -2 -4.5 -4t-5.5 -2 q-2 -3 -4.5 -5t-4.5 -4v0zM-9 818h829v-13h-829v13v0z" />
<glyph unicode="(" d="M-4 7h800v-14h-800v14v0zM477 805h-481v13h481v93h21v-93h298v-13h-298v-189h298v-13h-298v-189h298v-17h-298v-163q0 -6 -1.5 -12t-3.5 -11h303v-16h-308q-6 -15 -17 -30t-28 -26q-18 -14 -38.5 -23t-40.5 -14q-7 0 -14 -1t-14 -1q-34 0 -59 20.5t-25 50.5q0 7 1 13.5 t3 10.5h-260v16h268q7 13 18 27t24 24q11 9 25 16.5t29 14.5q11 4 24 7.5t26 3.5q22 0 39 -3.5t28 -14.5v111h-481v17h481v189h-481v13h481v189v0z" />
<glyph unicode=")" d="M-4 7h800v-14h-800v14v0zM477 805h-481v13h481v195h21v-195h298v-13h-298v-189h298v-13h-298v-189h298v-17h-298v-61q0 -30 -15 -53.5t-40 -41.5q-11 -9 -26 -17t-33 -13h65h139h143h65v-16h-800v16h299q-17 9 -30 25t-13 37q0 26 16 49t38 42q16 11 32 20t33 13h-375v17 h481v189h-481v13h481v189v0z" />
<glyph unicode="*" d="M477 805h-481v13h800v-13h-298v-189h298v-13h-298v-189h298v-17h-298v-186h298v-16h-298v-61q0 -27 -15 -51t-40 -42q-13 -11 -29.5 -20.5t-33.5 -13.5h416v-14h-800v14h304q-20 9 -34 25t-14 38q0 25 16 50t38 41q14 11 29 20.5t31 13.5h-58h-126h-127h-57l-2 16h481 v186h-481v17h481v189h-481v13h481v189v0z" />
<glyph unicode="+" d="M384 603h-388v13h800v-13h-328q5 -2 10.5 -5.5t9.5 -9.5q12 -9 19 -22t7 -32q0 -9 -3.5 -20t-9.5 -23q-7 -11 -17.5 -21t-23.5 -23q-5 -2 -11 -5.5t-11 -7.5q-8 -7 -18 -11.5t-23 -8.5h399v-17h-507v-186h507v-16h-507v-188h507v-14h-507v-195h-20v195h-273v14h273v188 h-273v16h273v186h-273v17h273v61q0 30 15.5 54t38.5 42q13 11 29.5 19t31.5 13v0zM-4 818h800v-13h-800v13v0z" />
<glyph unicode="," d="M-4 7h800v-14h-800v14v0zM525 805q-11 -35 -45.5 -60t-69.5 -33q-9 -3 -17.5 -4t-17.5 -1h-5.5h-7.5q-11 0 -24 3.5t-28 12.5v-107h486v-13h-486v-189h486v-17h-486v-186h486v-16h-486v-91h-19v91h-295v16h295v186h-295v17h295v189h-295v13h295v178v3v3v1v4h-295v13h297 q11 34 44.5 60.5t69.5 37.5q9 4 20 5t20 1q16 0 31 -1t27 -10q18 -11 23.5 -31.5t5.5 -42.5v-4.5v-5.5q-2 -2 -2 -4.5v-4.5h264v-13h-271v0zM464 805h-128q-9 -11 -14.5 -23t-5.5 -21v-1v-1v-1v-1q0 -9 4.5 -12.5t13.5 -5.5h1h1h1h2q13 0 31 7t37 18q9 4 17 9.5t14 11.5 q5 4 12 9.5t14 10.5v0zM350 818h127q3 2 6 5.5t5 6.5q9 14 15 25t6 20q-2 6 -6.5 11t-11.5 5h-4h-5q-9 0 -22 -4.5t-26 -8.5q-9 -4 -16.5 -9t-15.5 -12q-11 -5 -19 -11.5t-14 -10.5q-3 -3 -5 -4t-4 -4q-3 -2 -5.5 -4.5l-4.5 -4.5v0z" />
<glyph unicode="-" horiz-adv-x="202" d="M202 -7h-204v14h191v188h-191v16h191v186h-191v17h191v189h-191v13h191v189h-191v13h204v-825v0z" />
<glyph unicode="." d="M-4 7h800v-14h-800v14v0zM291 805h-295v13h295v78q0 43 36.5 77t79.5 46q11 4 21 5.5t19 1.5q16 0 31 -1.5t27 -11.5q18 -11 23.5 -31.5t5.5 -42.5q-2 -41 -32.5 -72.5t-71.5 -48.5h366v-13h-486v-189h486v-13h-486v-189h486v-17h-486v-186h486v-16h-800v16h295v186h-295 v17h295v189h-295v13h295v189v0zM369 935q-23 -18 -38 -36.5t-15 -37.5v0v0v-2v0q0 -9 4.5 -12t13.5 -6h1h1h1h2q13 0 31 7t37 16q9 4 17 10t14 13q12 9 24.5 20t21.5 21q11 13 18 26.5t7 23.5q-2 7 -6.5 10t-11.5 5h-4h-5q-9 0 -22 -4t-26 -11q-9 -5 -15.5 -10t-16.5 -9 q-9 -7 -18 -13.5t-15 -10.5v0z" />
<glyph unicode="/" d="M-4 7h800v-14h-800v14v0zM-4 211h800v-16h-800v16v0zM304 818h492v-13h-492v-189h492v-13h-492v-189h492v-17h-492v-87h-20v87h-288v17h288v189h-288v13h288v189h-288v13h288v178v5t2 4h-82v16h85q11 35 43 61.5t68 38.5q11 2 21.5 4.5t21.5 2.5q15 0 30 -2.5t28 -8.5 q17 -14 22.5 -34t5.5 -42q0 -6 -1 -10.5t-3 -9.5h98v-16h-102q-14 -35 -48.5 -59t-72.5 -32q-7 -3 -15 -4t-14 -1q-16 0 -32 2.5t-35 16.5v-110v0zM455 1005h-125q-5 -7 -8 -12.5t-6 -10.5q-4 -4 -5 -10t-1 -13q0 -9 5.5 -12t14.5 -6q11 0 30.5 7t41.5 18q6 4 15.5 9 t16.5 12q2 2 4.5 4t6.5 5q2 2 5 4t5 5v0zM343 1021h128q4 5 9.5 11.5t7.5 10.5q7 9 11 18.5t4 16.5v0v2v0v0q0 7 -5 10t-12 3h-3h-6q-9 0 -21.5 -4.5t-25.5 -8.5q-9 -4 -17 -8.5t-16 -12.5q-11 -5 -18.5 -11.5t-14.5 -10.5l-4.5 -4.5t-5.5 -2.5q-4 -2 -6.5 -4.5l-4.5 -4.5v0 z" />
<glyph unicode="0" horiz-adv-x="404" d="M-4 7h416v-14h-416v14v0zM-4 211h416v-16h-416v16v0zM-4 397v17h416v-17h-416v0zM-4 616h416v-13h-91v-102h-237v102h-88v13v0zM-4 818h416v-13h-416v13v0z" />
<glyph unicode="1" horiz-adv-x="811" d="M-9 7h829v-14h-829v14v0zM462 603h-130q-7 -22 -27.5 -38.5t-52.5 -16.5q-30 0 -53.5 14.5t-35.5 40.5h-172v13h166v4.5v4.5q-3 2 -3 4.5v4.5v6v6q5 39 27.5 74t57.5 53q11 6 26 12t30 11q16 4 32 6.5t25 2.5q39 0 75.5 -9t73.5 -41q4 -5 8.5 -8t6.5 -6q28 -25 39 -53.5 t18 -71.5h247v-13h-247v-3.5v-3.5q0 -18 -3.5 -39t-10.5 -41q-11 -25 -24.5 -51.5t-29.5 -50.5h315v-17h-327q-9 -13 -21 -25l-25 -25q-4 -6 -9.5 -11.5t-12.5 -10.5q-37 -30 -82.5 -58t-97.5 -56h575v-16h-601q-9 -4 -19.5 -9.5t-19.5 -10.5q-11 -4 -20.5 -9t-20.5 -9 l-5 16q9 7 17 12.5t18 9.5h-178v16h200q13 9 27 18.5t27 20.5q44 30 80.5 65t67.5 82h-402v17h411q0 2 1.5 3t3.5 4l1 1q2 1 2 3q11 20 21 45t16 53q7 20 11 40.5t4 39.5v0zM334 616h128q0 32 -4.5 56t-16.5 46q-14 28 -41 44.5t-61 16.5h-4h-1h-3h-4q-6 0 -11.5 -1 t-13.5 -1q-20 -4 -40.5 -12t-31.5 -19q-2 -5 -5.5 -10t-8.5 -9q-2 -7 -6 -11t-6 -9v-1v-3q-2 -3 -2 -4v-1q0 -6 6 -12.5t17 -6.5q3 0 7 1.5t9 3.5v0h2q2 0 6.5 1t6.5 1h5.5h4.5q30 0 49 -20t19 -46v-1v-3v0zM607 521q0 17 11 30t32 13q20 0 33 -13t13 -30q0 -16 -13 -31 t-33 -15t-31.5 15t-11.5 31v0zM607 698q0 18 11 30.5t32 12.5q20 0 33 -12.5t13 -30.5q0 -15 -13 -29t-33 -14t-31.5 13.5t-11.5 29.5v0zM-9 818h829v-13h-829v13v0z" />
<glyph unicode="2" horiz-adv-x="811" d="M679 616h141v-13h-141q-9 -61 -47 -104.5t-100 -47.5h-6h-8q-15 0 -32.5 3t-38.5 12l-31 -52h404v-17h-404l31 -50q20 7 39 11t35 4h3h3h1h4q61 -5 99.5 -48t47.5 -103h141v-16h-138v-1v-3v-3v-2q0 -65 -29.5 -111.5t-77.5 -67.5h245v-14h-829v14h143v188h-143v16h143 v186h-143v17h143v189h-143v13h143v189h-143v13h829v-13h-245q48 -18 76 -63.5t28 -109.5v-4v-3v-3.5v-5.5v0zM278 195h-48v-188h48v188v0zM306 7h121q-30 11 -50 30.5t-20 53.5q0 26 15.5 43.5t39.5 17.5q25 0 40.5 -12t15.5 -38q0 -13 -4 -23.5t-11 -15.5q-7 -6 -13 -11.5 t-6 -10.5q0 -9 8.5 -15t19.5 -8q4 -2 9.5 -2h10.5q50 0 68 35.5t23 76.5q2 11 2 23v24v10.5v9.5h-269v-188v0zM278 397h-48v-186h48v186v0zM306 211h269q0 7 -1 15t-1 15q-5 34 -18.5 62.5t-51.5 26.5h-3.5h-4.5q-34 -3 -53 -29t-26 -56q-2 -9 -4 -15.5t-2 -13.5h-3 q-2 16 -9 39t-16 47q-11 28 -28.5 54t-39.5 41h-1h-1h-4h-2v-186v0zM278 603h-48v-189h48v189v0zM306 414h4q25 16 43 43t29 57q9 22 16 45t9 39h3q0 -6 1 -12.5t3 -12.5q9 -35 28.5 -62t52.5 -29h4h4q39 0 52 29.5t16 65.5q2 7 2 13v13h-267v-189v0zM278 805h-48v-189h48 v189v0zM306 616h269v13.5v12.5q0 56 -13.5 101.5t-79.5 52.5h-10.5t-9.5 -2q-11 -3 -19.5 -7t-8.5 -17q0 -2 1 -3t1 -3q2 -3 6.5 -6t10.5 -8q7 -6 11 -15.5t4 -22.5q0 -23 -16 -36.5t-40 -13.5q-22 0 -38.5 18t-16.5 40q0 35 20 55.5t48 29.5h-119v-189v0z" />
<glyph unicode="3" horiz-adv-x="811" d="M-9 7h829v-14h-829v14v0zM111 805h-120v13h120v201h95v-201h48v201h30v-201h269v13v10v10.5v9.5q0 53 -16 90.5t-75 44.5h-11t-10 -3q-11 -2 -20 -7.5t-9 -15.5q0 -4 5.5 -9.5t12.5 -10.5q6 -6 10.5 -15t4.5 -24q0 -25 -15.5 -37.5t-38.5 -12.5q-22 0 -38.5 18.5 t-16.5 40.5q0 43 30.5 65t69.5 28q11 3 24 4.5t24 1.5q80 0 127.5 -54t47.5 -140v-3.5v-3.5h161v-13h-163q-7 -61 -45.5 -105.5t-102.5 -49.5h-5h-6q-15 0 -34 3.5t-37 12.5l-32 -50h425v-13h-429l36 -57q18 9 36.5 12.5t34.5 3.5h4h3h1h3q62 -5 100.5 -47t47.5 -101h163 v-17h-161v-4v-7q0 -65 -28 -110.5t-78 -64.5h41h92h92h42v-16h-829v16h120v186h-120v17h120v189h-120v13h120v189v0zM254 397h-48v-186h48v186v0zM553 397h-269v-186h118q-28 9 -47 28.5t-19 51.5q0 25 16.5 43t38.5 18t38 -12.5t16 -37.5q0 -13 -4.5 -23t-10.5 -17 q-7 -4 -12.5 -10.5t-5.5 -10.5q0 -9 9 -14.5t20 -7.5q4 -3 10 -3h11q50 0 68 35t23 76v15v15v10.5v7.5v5.5v5.5v5.5v5.5v0zM254 603h-48v-189h48v189v0zM284 414h269q0 7 -1 13.5t-1 13.5q-5 34 -20 62.5t-51 25.5h-4h-3q-35 -2 -54 -28t-26 -56q-2 -9 -4.5 -15.5 t-2.5 -13.5q-4 16 -9.5 38.5t-16.5 48.5q-11 28 -29.5 54.5t-46.5 43.5v-187v0zM254 805h-48v-189h48v189v0zM553 805h-42h-93h-92h-42v-189h7q22 16 39 41t30 52q9 26 15.5 48t10.5 39q0 -7 2.5 -14t4.5 -16q7 -30 26 -56t54 -28h3h4q38 0 53 29.5t18 65.5q0 7 1 14t1 14v0 z" />
<glyph unicode="4" d="M-4 7h800v-14h-800v14v0zM-4 211h800v-16h-800v16v0zM-4 414h800v-17h-800v17v0zM-4 616h800v-13h-800v13v0zM-4 818h800v-13h-800v13v0z" />
<glyph unicode="5" horiz-adv-x="404" d="M-4 7h416v-14h-416v14v0zM-4 211h416v-16h-416v16v0zM-4 414h416v-17h-416v17v0zM-4 616h416v-13h-416v13v0zM-4 818h416v-13h-416v13v0z" />
<glyph unicode="6" horiz-adv-x="202" d="M-2 7h206v-14h-206v14v0zM-2 211h206v-16h-206v16v0zM-2 414h206v-17h-206v17v0zM-2 616h206v-13h-206v13v0zM-2 818h206v-13h-206v13v0z" />
<glyph unicode="7" horiz-adv-x="404" d="M-4 7h416v-14h-416v14v0zM259 414h153v-17h-158l-52 -186h210v-16h-416v16h182l50 186h-232v17h236l13 43q-2 -2 -5.5 -3t-5.5 -1l-36 -14t-37 -7h-3h-4q-22 2 -42.5 18t-20.5 41t12 41t34 21h3h3q22 0 37 -16t15 -39v-9t-2 -9l-2 -9q0 -5 2 -6t5 -3h3h1h1t3 2h2h1 q25 9 41 27t28 38h13l-32 -115v0zM-4 616h416v-13h-416v13v0zM-4 818h416v-13h-416v13v0z" />
<glyph unicode="8" horiz-adv-x="404" d="M-4 7h416v-14h-416v14v0zM186 603h-190v13h186q-4 13 -12.5 23.5t-15.5 22.5q-4 2 -6.5 6.5t-4.5 6.5h32l50 -59h187v-13h-176l61 -76q-22 -25 -38 -47.5t-27 -43.5q-2 -6 -3 -12t-4 -10h187v-17h-191v-1v-3q-2 -2 -2 -3.5v-3.5q0 -32 16.5 -61.5t37.5 -53.5 q5 -7 10.5 -13t9.5 -13l-11 -15q-16 9 -29.5 13.5t-27.5 4.5q-9 0 -19.5 -4.5t-16.5 -15.5q-3 -5 -5 -8.5t-4 -8.5h232v-16h-234v-3v-6q0 -15 6.5 -29t15.5 -25l9 -9t7 -8l-12 -15q-6 4 -13 9.5t-13 13.5q-18 16 -35.5 34t-29.5 38h-117v16h113q-2 4 -3.5 9t-3.5 10v4v5 q2 32 21.5 47.5t49.5 15.5q13 0 28 -4.5t31 -13.5v2l-84 111h-24h-51h-52h-23l-2 17h141l-24 29q30 25 53 62.5t23 78.5v5.5v4.5q-3 2 -3 4.5v4.5v0zM-4 818h416v-13h-416v13v0z" />
<glyph unicode="9" horiz-adv-x="404" d="M-4 7h416v-14h-416v14v0zM-4 211h416v-16h-416v16v0zM323 414h89v-17h-416v17h91v87h236v-87v0zM-4 616h416v-13h-416v13v0zM-4 818h416v-13h-416v13v0z" />
<glyph unicode=":" d="M-4 7h800v-14h-800v14v0zM-4 211h800v-16h-800v16v0zM295 805h-299v13h299v164v6v5q0 3 1 6t1 6h-93v14h98q9 18 20.5 31t27.5 26q17 13 38.5 22t41.5 13q6 0 13.5 1.5t13.5 1.5q37 0 59 -19t22 -52q0 -4 -1 -10.5t-3 -13.5h89v-14h-94q-4 -12 -13 -22t-21 -22 q-2 -2 -4.5 -4t-4.5 -5q-11 -8 -25 -16t-25 -14q-13 -4 -27 -7.5t-25 -3.5q-22 0 -39.5 4.5t-28.5 14.5v-112h157q-5 13 -9 26t-9 24q-7 11 -12 21.5t-9 17.5l13 4q5 -9 11 -19t13 -22q4 -11 9.5 -24.5t10.5 -27.5h305v-13h-298q9 -26 13.5 -53t4.5 -54q0 -20 -4.5 -41 t-13.5 -41h298v-13h-305q-7 -14 -15 -26.5t-16 -23.5q-16 -20 -37 -42.5t-41 -44.5q-5 -4 -9 -9.5t-9 -11.5q-2 -4 -6 -7.5t-6 -7.5q-2 -5 -4.5 -8.5t-4.5 -7.5h453v-17h-460q-11 -25 -14 -48.5t-6 -44.5h-21v93h-299v17h299v189h-299v13h299v189v0zM443 603h-127v-82 q37 4 71 25.5t56 56.5v0zM477 805h-161v-189h139q11 16 18 33t11 35q2 9 3 17t1 17v4.5v4.5v5v5q0 18 -3 35t-8 33v0z" />
<glyph unicode=";" horiz-adv-x="811" d="M509 603h-518v13h829v-13h-291v-189h291v-17h-291v-186h291v-16h-291v-188h291v-14h-291v-77q0 -41 -36 -74t-79 -46q-11 -2 -21.5 -4.5t-21.5 -2.5q-16 0 -31 1t-26 10q-18 11 -24 31.5t-6 43.5q2 41 34 73t73 48l-400 -3v14h518v188h-518v16h518v186h-518v17h518v189v0 zM364 -87q-9 -4 -18.5 -12t-13.5 -16q-11 -12 -16.5 -24.5t-5.5 -21.5t5.5 -13t14.5 -6h1h1h1h1q11 0 29.5 5.5t36.5 17.5q8 5 17.5 10.5t16.5 12.5q2 0 3 1t4 3q11 9 21.5 18.5t19.5 20.5t15 22.5t6 20.5v1v1v2v1q0 6 -5 10.5t-12 4.5h-3h-6q-9 0 -21.5 -4.5t-25.5 -8.5 q-9 -5 -17 -9t-16 -11q-11 -4 -18.5 -11.5t-14.5 -11.5v-3zM-9 818h829v-13h-829v13v0z" />
<glyph unicode="&#x3c;" horiz-adv-x="202" d="M30 397h-32v17h32v81h22v-81h152v-17h-152v-186h152v-16h-6h-14h-16h-7q11 -9 19.5 -22.5t8.5 -27.5v-1v-1v-1v-1q0 -30 -18.5 -53t-40.5 -40q-5 -5 -11 -9.5t-10 -8.5q-7 -4 -13.5 -10.5t-13.5 -12.5h122v-14h-139q-4 -2 -8.5 -7.5t-8.5 -11.5q-5 -4 -9.5 -9.5 t-8.5 -10.5v39h-32v14h32v188h-32v16h32v186v0zM52 143v-136q7 6 15 15.5t15 18.5q13 16 24.5 32t18.5 34q3 6 4 13.5t1 13.5q0 18 -10.5 29.5t-21.5 14.5h-7t-7 -3q-6 -2 -12.5 -7t-10.5 -9q-4 -5 -6.5 -9.5t-2.5 -6.5v0zM78 195h-26v-15q5 2 7 4t6 5q3 0 6.5 2t6.5 4v0z M-2 616h206v-13h-206v13v0zM-2 818h206v-13h-206v13v0z" />
<glyph unicode="=" horiz-adv-x="202" d="M202 -7h-204v14h102v188h-102v16h102v186h-102v17h102v189h-102v13h102v189h-102v13h204v-825v0z" />
<glyph unicode="&#x3e;" horiz-adv-x="202" d="M-2 7h206v-14h-206v14v0zM30 397h-32v17h32v180h22v-180h152v-17h-152v-122q18 14 35 22.5t38 8.5q26 0 45 -18.5t19 -46.5v0v0v-2v0v-5v-4q-3 -5 -4 -9.5t-3 -9.5h22v-16h-4h-11h-9h-5q-9 -13 -20.5 -27t-24.5 -25q-5 -4 -11 -7.5t-10 -7.5q-22 -16 -41.5 -37t-37.5 -41 v145h-32v16h32v186v0zM121 195h-69v-91q7 7 15 16.5t15 18.5q11 13 21 27t18 29v0zM52 211h73q3 4 4 10.5t1 10.5q0 18 -10.5 29.5t-21.5 13.5h-7t-7 -2q-6 -2 -12.5 -6.5t-10.5 -12.5q-4 -4 -6.5 -8.5t-2.5 -6.5v-28v0zM-2 616h206v-13h-206v13v0zM-2 818h206v-13h-206v13 v0z" />
<glyph unicode="?" horiz-adv-x="202" d="M-2 7h206v-14h-206v14v0zM30 603h-32v13h32v100h22v-100h152v-13h-152v-189h23q12 7 24 11.5t26 4.5q12 0 20.5 -4.5t17.5 -11.5h41v-17h-26q4 -6 7.5 -14t3.5 -17v-1v-1v-1v-1q0 -30 -18.5 -54t-40.5 -42q-5 -4 -11 -8t-10 -8q-7 -5 -12.5 -9.5t-9.5 -8.5 q-5 -7 -11 -11.5t-11 -9.5h139v-16h-154q-2 -2 -4.5 -5.5t-4.5 -5.5q-4 -2 -6.5 -5.5t-4.5 -5.5v22h-32v16h32v186h-32v17h32v189v0zM52 362v-137q7 7 15 16t15 18q13 15 24.5 31t18.5 35q3 7 4 13.5t1 13.5q0 18 -10.5 30.5t-21.5 14.5q-3 0 -7 -1t-7 -1q-6 -4 -12.5 -8.5 t-10.5 -9.5q-4 -4 -6.5 -8.5t-2.5 -6.5v0zM54 397h-2h2v0zM-2 818h206v-13h-206v13v0z" />
<glyph unicode="@" d="M477 -7h-481v14h481v188h21v-188h298v-14h-298v-195h125v-14h-125v-184h125v-14h-125v-70q0 -25 -15 -49t-40 -42q-18 -13 -38.5 -22.5t-40.5 -14.5q-7 0 -14 -1t-14 -1q-15 0 -31 4.5t-27 13.5q-12 9 -19 23t-7 30q0 26 16 49t38 41q14 11 29 19.5t31 15.5q7 2 14.5 3 t14.5 3l-191 -2v14h273v184h-273v14h273v195v0zM-4 211h800v-16h-800v16v0zM-4 414h800v-17h-800v17v0zM-4 616h800v-13h-800v13v0zM-4 818h800v-13h-800v13v0z" />
<glyph unicode="A" d="M423 805h-427v13h800v-13h-351v-3.5v-3.5q2 -22 8.5 -50t21.5 -54q5 -7 9 -13t9 -13q7 -6 13 -13t12 -11q5 -7 10.5 -14t12.5 -14h255v-13h-241q9 -9 16.5 -19.5t14.5 -19.5q26 -30 42 -68.5t16 -77.5v-1v-1v-1v-1h152v-17h-152q-2 -41 -16 -80t-30 -72q-4 -9 -9 -17.5 t-10 -16.5h217v-16h-353v-61q0 -27 -13.5 -51t-38.5 -42q-14 -11 -30 -20.5t-34 -13.5h469v-14h-800v14h252q-23 9 -35.5 25t-12.5 38q0 25 16 50t38 41q14 11 28.5 20.5t31.5 13.5h-50h-110h-107h-49l-2 16h427v186h-427v17h427v189h-427v13h427v189v0zM618 397h-175v-186 h123q5 9 9 18.5t9 18.5q11 30 22.5 66t11.5 74v4v3v2v0v0zM443 414h173v3v4q-11 61 -60 113t-105 60h-4.5h-3.5v-180v0z" />
<glyph unicode="B" horiz-adv-x="202" d="M30 -7h-32v14h32v173h22v-173h152v-14h-152v-132q18 14 35 24.5t38 10.5q26 0 45 -19.5t19 -47.5v0v-2v0v0q0 -30 -18.5 -52.5t-40.5 -40.5q-5 -5 -11 -9.5t-10 -8.5q-14 -11 -26.5 -23t-23.5 -23q-9 -9 -15.5 -16.5t-13.5 -15.5v355v0zM52 -175v-135q7 9 15 18.5 t15 18.5q11 13 22 29t19 33q2 7 4.5 16t2.5 15q0 18 -10.5 29.5t-21.5 13.5q-3 0 -7 -1t-7 -1q-6 -4 -12.5 -8.5t-10.5 -9.5q-4 -4 -6.5 -9t-2.5 -7v-2zM-2 211h206v-16h-206v16v0zM-2 414h206v-17h-206v17v0zM-2 616h206v-13h-206v13v0zM-2 818h206v-13h-206v13v0z" />
<glyph unicode="C" horiz-adv-x="202" d="M30 -596v544h22v-319q18 16 35 25.5t38 9.5q26 0 45 -19.5t19 -46.5v0v-3v0v0q0 -30 -18.5 -52.5t-40.5 -40.5q-5 -5 -11 -9.5t-10 -8.5q-22 -18 -41.5 -37.5t-37.5 -40.5v-2zM52 -407v-134q7 9 15 18t15 18q13 15 24.5 31.5t18.5 35.5q3 6 4 13t1 13q0 18 -10.5 29.5 t-21.5 13.5h-7t-7 -2q-6 -2 -12.5 -6.5t-10.5 -10.5q-4 -5 -6.5 -9.5t-2.5 -7.5v-2zM-2 7h206v-14h-206v14v0zM-2 211h206v-16h-206v16v0zM-2 414h206v-17h-206v17v0zM-2 616h206v-13h-206v13v0zM-2 818h206v-13h-206v13v0z" />
<glyph unicode="D" d="M-4 7h800v-14h-800v14v0zM423 805h-427v13h427v195h20q0 -4 1 -8.5t1 -8.5q5 -28 13 -59.5t35 -66.5q7 -6 13 -13t10 -11q5 -7 10.5 -14t11.5 -14h258v-13h-243q4 -5 8.5 -9.5t9.5 -8.5q4 -7 8.5 -12t6.5 -9q26 -30 42 -68.5t16 -77.5v-3v-1h152v-13h-152 q-2 -44 -16 -83.5t-30 -72.5q-4 -9 -9 -17.5t-10 -15.5h217v-17h-353v-61q0 -27 -13.5 -52t-38.5 -43q-14 -9 -29 -17t-32 -13h466v-16h-800v16h249q-20 9 -32.5 25t-12.5 37q0 26 16 50t38 41q14 11 30 20t32 13h-320v17h427v189h-427v13h427v189v0zM618 603h-175v-189h123 q5 9 9 18t9 19q11 30 22.5 66t11.5 74v3.5v3.5v1v2v1v1v0zM443 616h173v3v4q-11 61 -60 113.5t-105 59.5h-4.5h-3.5v-180v0z" />
<glyph unicode="E" d="M-4 7h800v-14h-800v14v0zM271 805h-275v13h277q7 20 20 37t30 30q18 13 38.5 22t40.5 13q6 0 13.5 1t14.5 1q41 0 61.5 -18.5t20.5 -51.5q0 -8 -1.5 -16.5t-5.5 -17.5h291v-13h-298q-8 -11 -17.5 -21.5t-20.5 -22.5q-12 -11 -27 -18.5t-31 -13.5q-11 -4 -22 -6.5 t-23 -2.5q-22 0 -39.5 4.5t-28.5 14.5v-123h507v-13h-507v-189h507v-17h-507v-186h507v-16h-507v-82h-20v82h-273v16h273v186h-273v17h273v189h-273v13h273v175v8.5t2 5.5v0z" />
<glyph unicode="F" d="M-4 7h800v-14h-800v14v0zM-4 211h800v-16h-800v16v0zM423 805h-427v13h427v296h20q0 -4 1 -9t1 -9q5 -28 13 -59.5t35 -66.5q7 -9 14 -16.5t14 -14.5q17 -20 34.5 -37t30.5 -36q2 -5 6 -8t6 -8q5 -6 10.5 -14.5t7.5 -17.5h180v-13h-171q9 -20 14 -42t5 -45v-16.5 t-2 -17.5q-3 -18 -6.5 -35t-8.5 -33h169v-13h-176q-6 -22 -15 -42t-19 -36q-2 -4 -5.5 -10t-5.5 -10h-11q4 11 9.5 23.5t10.5 26.5q4 11 9 23.5t10 24.5h-160v-26v-56v-59v-26v-12t-2 -10h355v-17h-360q-6 -15 -17.5 -29t-27.5 -27q-14 -9 -30 -17t-31 -12q-11 -5 -23 -7.5 t-23 -2.5q-36 0 -60 20.5t-24 50.5q0 7 1 13.5t3 10.5h-208v17h215q7 13 18.5 27t24.5 23q11 11 26 19t32 15q11 5 22 7t23 2q20 0 38.5 -3t27.5 -16v19v39v38v19h-427v13h427v189v0zM582 805h-139v-189h164q2 9 4.5 18.5t4.5 18.5q0 6 1 15t1 18v4v4v1v3q0 7 -1 13.5 t-3 13.5q-5 20 -12.5 41t-19.5 39v0zM443 818h128q-26 32 -58.5 54t-69.5 24v-78v0z" />
<glyph unicode="G" d="M400 603h-404v13h800v-13h-293q18 -9 26.5 -25t8.5 -37q0 -5 -1 -9.5t-1 -8.5q-4 -20 -17.5 -38.5t-32.5 -33.5q-15 -14 -34.5 -23.5t-37.5 -13.5h382v-17h-341q5 -6 8 -13t8 -15q15 -33 29 -74t16 -84h280v-16h-280q0 -38 -16 -75.5t-40 -69.5q-9 -9 -18.5 -20.5 t-20.5 -22.5h375v-14h-386q-12 -9 -23.5 -21.5t-22.5 -25.5q-4 -7 -9 -13t-10 -13q-15 -30 -20.5 -58t-8.5 -53v-3v-4l-21 -2v193h-299v14h299v188h-299v16h299v186h-299v17h299v66q0 27 16 52t39 41q11 11 23.5 18t26.5 12v0zM486 195h-170v-177q59 4 110 59t60 118v0z M438 397h-122v-186h172v2v1v1v1v8.5v5.5q0 36 -10 69t-21 61q-4 11 -9 19.5t-10 17.5v0zM-4 818h800v-13h-800v13v0z" />
<glyph unicode="H" d="M297 603h-301v13h306q4 18 18 34t30 27q17 13 38.5 22.5t41.5 14.5q6 0 13.5 1t13.5 1q37 0 59 -19.5t22 -50.5v-7t-2 -7q0 -5 -1 -8.5t-1 -7.5h262v-13h-269q-6 -14 -17.5 -25.5t-23.5 -22.5q-11 -9 -25 -17.5t-25 -12.5q-13 -4 -27 -7.5t-25 -3.5q-22 0 -39.5 4.5 t-28.5 13.5v-118h159q-4 13 -9.5 27t-10.5 27q-4 12 -10.5 22.5t-10.5 18.5l13 5q7 -11 15.5 -27t17.5 -34q4 -9 7.5 -18.5t7.5 -20.5h301v-17h-295q4 -13 7.5 -28t5.5 -30q0 -9 1 -19t1 -20q0 -22 -5.5 -45t-15.5 -44h301v-16h-310q-2 -6 -7.5 -14t-10.5 -15q-2 -2 -4 -5.5 t-4 -6.5q-16 -20 -37 -41.5t-41 -47.5q-5 -4 -9 -8.5t-9 -8.5q-9 -9 -15 -19.5t-10 -21.5h457v-14h-464q-9 -22 -11 -44t-5 -42l-21 -2v88h-299v14h299v188h-299v16h299v186h-299v17h299v168v10t2 11v0zM438 195h-122v-72q35 2 67.5 22.5t54.5 49.5v0zM480 397h-164v-186 h135q17 25 27 52.5t10 57.5v7.5v7.5v10.5t-2 10.5q0 12 -2 21.5t-4 18.5v0zM-4 818h800v-13h-800v13v0z" />
<glyph unicode="I" d="M423 195h-427v16h427v64h20q2 -13 5 -29t7 -35h53h117h117h54v-16h-339q7 -15 15 -30t21 -33q7 -9 14 -17t14 -15q17 -20 34.5 -37t30.5 -35l5 -5l5 -5q0 -5 2.5 -7t4.5 -4h193v-14h-184q15 -22 23.5 -52t8.5 -59q0 -47 -15 -91.5t-31 -81.5q-6 -11 -12.5 -21.5 t-10.5 -19.5l-11 -2q4 13 9.5 26t12.5 28q7 16 13 32t10 34l-166 -2v-186h180v-16h-180v-59q0 -26 -13.5 -51t-38.5 -40q-14 -11 -30 -19.5t-31 -13.5q-11 -4 -23 -6t-23 -2q-36 0 -60 19t-24 52q0 25 16 48.5t38 42.5q9 6 18.5 13t18.5 11q4 2 8.5 3.5l10.5 3.5l-106 -2v16 h219v186h-219v14h219v195h-427v14h427v188v0zM559 -7h-116v-195h169q4 18 5 33t1 30q-2 37 -18 71t-41 64v-3zM443 7h103q-22 22 -48.5 34.5t-54.5 15.5v-50v0zM-4 414h800v-17h-800v17v0zM-4 616h800v-13h-800v13v0zM-4 818h800v-13h-800v13v0z" />
<glyph unicode="J" d="M423 805h-427v13h800v-13h-310q26 -7 39 -24t13 -42t-14.5 -49t-37.5 -42q-11 -9 -25 -18.5t-27 -13.5h362v-13h-345q4 -7 8.5 -16.5t8.5 -18.5q16 -32 30 -72.5t16 -81.5h282v-17h-280v-1v-1v-1v-1q0 -41 -16 -78t-40 -70q-7 -9 -15.5 -16.5t-17.5 -17.5h369v-16h-382 q-7 -6 -16.5 -16t-15.5 -20q-5 -5 -9 -9.5t-9 -8.5q-30 -37 -36.5 -70.5t-11.5 -63.5h480v-14h-800v14h299v188h-299v16h299v186h-299v17h299v189h-299v13h299v59q0 30 16 54t39 41q11 9 24.5 16.5t30.5 11.5q5 2 9 3.5t9 3.5v0zM488 397h-172v-181h4h3q59 7 108 62.5 t57 118.5v0zM434 603h-118v-189h172v7.5v5.5q0 37 -10 69.5t-21 60.5q-6 14 -12.5 25.5t-10.5 20.5v0z" />
<glyph unicode="K" d="M-4 7h800v-14h-800v14v0zM297 805h-301v13h306q4 18 18 34t30 30q17 14 38.5 23t41.5 13q6 0 13.5 1t13.5 1q37 0 59 -19t22 -51v-7.5t-2 -7.5q0 -5 -1 -8.5t-3 -8.5h264v-13h-271q-7 -14 -17 -25.5t-22 -20.5q-11 -9 -25 -16.5t-25 -15.5q-13 -4 -27 -7.5t-25 -3.5 q-22 0 -39.5 4.5t-28.5 14.5v-119h161q-4 11 -8.5 22.5t-8.5 23.5q-7 15 -14.5 29t-11.5 23l13 4q7 -11 15.5 -28l17.5 -35q4 -9 7.5 -18.5t7.5 -20.5h301v-13h-295q6 -22 10.5 -49t4.5 -51q0 -7 -1 -15t-1 -15q-2 -16 -7.5 -31t-13.5 -28h303v-17h-310q-6 -9 -13 -18.5 t-13 -21.5q-16 -20 -37 -41t-41 -45q-5 -5 -9 -10t-9 -9q-9 -9 -15 -19t-10 -22h457v-16h-464q-9 -22 -11 -44.5t-5 -41.5h-21v86h-299v16h299v186h-299v17h299v189h-46h-104h-102h-45l-2 13h299v171v4.5v4.5t1 4.5t1 4.5v0zM438 397h-122v-70q35 3 66.5 22.5t55.5 47.5v0z M480 603h-25h-58h-55h-26v-189h135q13 18 23 40.5t12 48.5q2 4 2 9.5v12.5v7.5v8.5q0 15 -2 30t-6 32v0z" />
<glyph unicode="L" d="M-4 7h800v-14h-800v14v0zM295 805h-299v13h299v67q0 27 16 51.5t39 41.5q17 13 38.5 22t41.5 13q6 0 13.5 1.5t13.5 1.5q37 0 59 -19t22 -51q0 -26 -14.5 -50t-37.5 -41q-15 -11 -31.5 -21.5t-33.5 -15.5h375v-13h-343q4 -7 8.5 -14.5t9.5 -17.5q15 -35 28 -74.5 t15 -82.5h282v-13h-280v-2v0q0 -39 -16 -77t-40 -69q-9 -9 -17.5 -19.5t-19.5 -21.5h58h128h129h58v-17h-61h-132h-133h-60q-9 -11 -22 -23t-24 -27q-4 -6 -9 -11.5t-8 -12.5q-17 -30 -22.5 -58.5t-8.5 -53.5h480v-16h-800v16h299v186h-46h-104h-102h-45l-2 17h299v189h-299 v13h299v189v0zM486 603h-170v-180q59 4 110 58.5t60 121.5v0zM438 805h-122v-189h172v3v1v8.5v5.5q0 36 -10 69.5t-21 60.5q-4 11 -9 21.5t-10 19.5v0z" />
<glyph unicode="M" horiz-adv-x="202" d="M30 195h-32v16h32v155h22v-155h152v-16h-152v-147q18 13 35 22.5t38 9.5q26 0 45 -19.5t19 -47.5v0v0v-2v0v-1v-1v-1v-1h15v-14h-18q-4 -20 -20 -39t-34 -34q-7 -4 -13 -8.5t-10 -9.5q-22 -17 -41.5 -36.5t-37.5 -40.5v168h-32v14h32v188v0zM128 -7h-76v-116q7 9 14 18.5 t16 17.5q16 18 29.5 38.5t16.5 44.5v-3zM52 7h78q-2 17 -11.5 28t-20.5 13h-7t-7 -2q-6 -3 -12.5 -7.5t-10.5 -10.5q-4 -5 -6.5 -10t-2.5 -7v-4v0zM-2 414h206v-17h-206v17v0zM-2 616h206v-13h-206v13v0zM-2 818h206v-13h-206v13v0z" />
<glyph unicode="N" horiz-adv-x="202" d="M30 195h-32v16h32v82h22v-82h152v-16h-152v-188h152v-14q0 3 -6.5 3h-13.5h-16h-7q11 -12 19.5 -24.5t8.5 -25.5v-2v-1v-1v-1q0 -30 -18.5 -52.5t-40.5 -40.5q-5 -5 -11 -9.5t-10 -9.5q-14 -11 -26.5 -22t-23.5 -23q-9 -9 -15.5 -17t-13.5 -15v241h-32v14h32v188v0z M52 -61v-134q7 9 15 17.5t15 18.5q11 14 22 30t19 31q2 7 4.5 16t2.5 17q0 17 -10.5 28t-21.5 15q-3 0 -7 -2t-7 -2q-6 -4 -12.5 -8.5t-10.5 -8.5q-4 -5 -6.5 -9.5t-2.5 -6.5v-2zM78 -7h-26v-19q5 5 7 7.5t6 5.5q3 2 6.5 4t6.5 5v-3zM-2 414h206v-17h-206v17v0zM-2 616h206 v-13h-206v13v0zM-2 818h206v-13h-206v13v0z" />
<glyph unicode="O" d="M464 195h-468v16h468v155h20v-3v-3q4 -30 11.5 -65.5t36.5 -71.5q4 -2 6.5 -5.5t4.5 -6.5h253v-16h-239q18 -20 36.5 -39t33.5 -38q18 -23 33 -51t19 -60h117v-14h-114q2 -2 2 -7.5v-13.5q0 -47 -14.5 -91t-31.5 -81q-6 -11 -12 -21.5t-10 -19.5l-13 -2q0 4 2 7.5t4 7.5 q0 3 2.5 6t2.5 8l-130 -2v-164q0 -4 -1 -10.5t-3 -14.5h22h51h48h22v-16h-148q-7 -13 -18.5 -27t-26.5 -25q-16 -11 -35.5 -20.5t-40.5 -13.5q-9 -2 -16.5 -3.5t-14.5 -1.5q-34 0 -58 19.5t-24 51.5v12.5t2 10.5l-39 -3v14h46q6 17 18 31t25 26q11 9 25 17t27 14q11 5 25 9 t25 4q22 0 41 -5t28 -14v109h-260v14h260v195h-468v14h468v188v0zM650 -7h-166v-195h136q14 32 25.5 69.5t11.5 75.5v5v4v10.5t-2 9.5q0 7 -1 13t-4 11v-3zM484 7h162q-18 54 -64 96t-98 45v-141v0zM-4 414h800v-17h-800v17v0zM-4 616h800v-13h-800v13v0zM-4 818h800v-13 h-800v13v0z" />
<glyph unicode="P" d="M445 397h-70h-154h-154h-69l-2 17h449v7h21v-1q0 -2 2 -2v-3v-1h328v-17h-51h-113h-113h-51v-3t3 -3q2 -20 7.5 -42t19.5 -45q5 -7 9.5 -12.5t8.5 -11.5q16 -18 31 -35l30 -34h219v-16h-205q2 -2 4.5 -5.5t5.5 -5.5q2 -2 4 -5.5t4 -5.5q26 -30 41.5 -69t15.5 -76v-11v-10 h130v-14q0 3 -20.5 3h-46.5h-45h-20q-5 -42 -18.5 -80.5t-29.5 -69.5q-4 -9 -8.5 -17.5t-9.5 -14.5l-12 -3q5 14 11 26.5t12 25.5q11 30 22 63t11 70h-28h-61h-60h-27v-198h157v-14h-157v-64q0 -25 -14 -49.5t-38 -41.5q-13 -11 -29 -18.5t-33 -12.5q-11 -2 -22 -5t-24 -3 q-36 0 -59.5 19.5t-23.5 51.5q0 5 1 9.5t1 8.5q5 20 19.5 38.5t33.5 34.5q13 9 30 19t33 15l-137 -2v14h241v195q0 3 -70.5 3h-153.5h-154h-69l-2 11h449v188h-449v16h449v186v0zM503 195h-37v-188h176q0 4 -2 8.5t-2 10.5q-9 54 -47 103t-88 66v0zM-4 616h800v-13h-800v13 v0zM-4 818h800v-13h-800v13v0z" />
<glyph unicode="Q" d="M271 603h-275v13h279q5 18 18 34t30 27q18 13 38.5 22.5t40.5 14.5q6 0 13.5 1t14.5 1q17 0 32 -4.5t26 -13.5q12 -9 18 -21.5t6 -30.5v-7t-3 -7q0 -5 -1 -8.5t-1 -7.5h289v-13h-295q-9 -14 -19.5 -25.5t-21.5 -22.5q-12 -11 -27 -19.5t-31 -12.5q-11 -5 -22 -7t-23 -2 q-22 0 -39.5 4.5t-28.5 13.5v-118h507v-17h-507v-186h507v-16h-507v-188h507v-14h-507v-86h-20v86h-273v14h273v188h-273v16h273v186h-273v17h273v170v4.5t2 5.5v4.5v4.5v0zM-4 818h800v-13h-800v13v0z" />
<glyph unicode="R" d="M-4 7h800v-14h-800v14v0zM269 805h-273v13h273v64q0 28 15.5 52.5t38.5 41.5q18 13 38.5 22t40.5 13q6 0 13.5 1t14.5 1q38 0 60 -18.5t22 -50.5q0 -5 -1.5 -9.5t-1.5 -8.5q-4 -20 -18 -39t-31 -35q-14 -8 -29 -17.5t-34 -16.5h399v-13h-507v-189h507v-13h-507v-189h507 v-17h-507v-186h507v-16h-800v16h273v186h-273v17h273v189h-273v13h273v189v0z" />
<glyph unicode="S" d="M-4 7h800v-14h-800v14v0zM423 805h-427v13h427v98h20q0 -5 1 -8t1 -8q2 -18 6 -38.5t13 -43.5h332v-13h-325q4 -9 9.5 -17.5t12.5 -14.5q7 -9 14 -17t14 -15q17 -19 34.5 -38t30.5 -37q11 -11 19.5 -24t14.5 -26h176v-13h-171q9 -20 14 -41t5 -41v-13.5t-2 -14.5 q0 -20 -5 -40.5t-12 -38.5h171v-17h-176q-4 -13 -9.5 -25t-12.5 -25q-6 -11 -12.5 -21t-10.5 -20h-11q4 14 12 30t15 35q4 6 7 13t5 13h-160v-161v-13t-2 -12h355v-16h-362q-7 -15 -18 -28t-25 -24t-30 -19.5t-31 -12.5q-11 -2 -23 -4.5t-23 -2.5q-36 0 -60 20.5t-24 50.5v5 t2 6v5v4h-206v16h213l4.5 9t7.5 10q7 9 15.5 19t17.5 17q11 12 26 19.5t32 11.5q11 5 22 7t23 2q20 0 38.5 -3t27.5 -14v108h-427v17h427v189h-427v13h427v189v0zM584 603h-141v-189h164q5 18 8 36t3 38v4v3v2v4q0 8 -1 16t-3 17q-5 18 -11.5 35t-18.5 34v0zM443 616h130 q-20 30 -51 51.5t-62 28.5q-5 0 -9 1t-8 1v-82v0z" />
<glyph unicode="T" d="M-4 7h800v-14h-800v14v0zM-4 211h800v-16h-800v16v0zM289 818h507v-13h-507v-189h507v-13h-507v-189h507v-17h-507v-81h-20v81h-273v17h273v189h-273v13h273v189h-273v13h273v175v4v3l1 1t1 4h-67v16h69q5 18 18 35t32 31q18 13 38.5 22.5t40.5 13.5q6 0 13.5 1.5 t14.5 1.5q17 0 32 -4.5t26 -14.5q12 -9 18 -21.5t6 -31.5q0 -8 -1.5 -16t-5.5 -17h118v-16h-128q-2 -3 -4.5 -7.5t-6.5 -6.5q-4 -6 -11 -13.5t-13 -14.5q-12 -11 -27 -18.5t-31 -12.5q-11 -4 -22 -7t-23 -3q-22 0 -39.5 5t-28.5 14v-123v0z" />
<glyph unicode="U" d="M-4 7h800v-14h-800v14v0zM-4 211h800v-16h-800v16v0zM-4 414h800v-17h-800v17v0zM289 818h507v-13h-507v-189h507v-13h-507v-85h-20v85h-273v13h273v189h-273v13h273v187h-65v16h65v174v8.5t2 6.5h-67v15h69q7 18 19 35.5t31 30.5q18 13 38.5 22.5t40.5 14.5q6 0 13.5 1 t14.5 1q36 0 59 -19.5t23 -50.5q0 -9 -1.5 -17.5t-5.5 -17.5h118v-15h-125q-8 -11 -17.5 -21.5t-20.5 -19.5q-12 -11 -27 -19.5t-31 -12.5q-11 -5 -22 -7t-23 -2q-22 0 -39.5 4.5t-28.5 13.5v-125h334v-16h-334v-187v0z" />
<glyph unicode="V" horiz-adv-x="202" d="M30 -7h-32v14h32v91h22v-91h152v-14h-152v-212q18 14 35 23.5t38 9.5q26 0 45 -19.5t19 -46.5v0v-2v0v0q0 -30 -18.5 -53t-40.5 -40q-5 -5 -11 -10t-10 -9q-22 -18 -41.5 -37.5t-37.5 -39.5v436v0zM52 -256v-135q7 9 15 18t15 19q13 15 24.5 31.5t18.5 33.5q3 7 4 13.5 t1 13.5q0 18 -10.5 29.5t-21.5 13.5h-7t-7 -2q-6 -2 -12.5 -6.5t-10.5 -11.5q-4 -4 -6.5 -8.5t-2.5 -6.5v-2zM-2 211h206v-16h-206v16v0zM-2 414h206v-17h-206v17v0zM-2 616h206v-13h-206v13v0zM-2 818h206v-13h-206v13v0z" />
<glyph unicode="W" d="M393 805h-397v13h800v-13h-334q25 -7 37.5 -24t12.5 -42t-15 -49t-37 -42q-7 -6 -17.5 -12.5t-19.5 -10.5q-5 -2 -9 -4.5t-9 -4.5h391v-13h-507v-189h507v-17h-507v-186h507v-16h-507v-188h507v-14h-800v14h273v188h-273v16h273v186h-273v17h273v189h-273v13h273v61 q0 28 15.5 53t38.5 40q16 11 34 20.5t36 14.5v0z" />
<glyph unicode="X" horiz-adv-x="202" d="M41 -673v543h24v-315q16 13 33 22t39 9q25 0 45 -20.5t20 -47.5q-2 -27 -20.5 -51t-38.5 -42q-6 -4 -12 -8.5t-10 -10.5q-22 -18 -42 -37t-38 -39v-3zM65 -484v-134q7 9 15.5 19.5t14.5 19.5q14 15 24.5 31t17.5 32q2 7 3 14t1 14q0 17 -9 29t-23 14h-5.5t-5.5 -2 q-7 -3 -13.5 -8t-11.5 -11q-2 -5 -5 -9.5t-3 -6.5v-2zM-2 7h206v-14h-206v14v0zM-2 211h206v-16h-206v16v0zM-2 414h206v-17h-206v17v0zM-2 616h206v-13h-206v13v0zM-2 818h206v-13h-206v13v0z" />
<glyph unicode="Y" d="M-4 7h800v-14h-800v14v0zM-4 211h800v-16h-800v16v0zM289 818h507v-13h-507v-189h507v-13h-507v-189h507v-17h-800v17h273v189h-273v13h273v189h-273v13h273v187h-65v16h65v57q0 28 15.5 52t38.5 41q18 13 38.5 23t40.5 16q6 0 13.5 1t14.5 1q36 0 59 -20.5t23 -52.5 q0 -5 -1.5 -9t-1.5 -9q-4 -20 -18 -39t-31 -34q-12 -9 -24.5 -15.5t-23.5 -11.5h211v-16h-334v-187v0z" />
<glyph unicode="Z" d="M-4 7h800v-14h-800v14v0zM-4 211h800v-16h-800v16v0zM-4 414h800v-17h-800v17v0zM516 805q-2 -37 -17 -72t-39 -65q-5 -6 -11 -13t-13 -11q-4 -7 -9.5 -14t-12.5 -14h382v-13h-62h-136h-137h-61q-5 -5 -9.5 -11t-8.5 -10q-5 -5 -9 -10.5t-9 -9.5q-4 -7 -9 -13t-10 -13 q-15 -30 -20.5 -57.5t-8.5 -53.5v-3v-4h-21v185h-46h-104h-102h-45l-2 13h299v189h-299v13h299v187h-91v14h91v174v11t2 8h-93v16h15h35h33h15q4 17 18 32t30 26q17 14 38.5 24.5t41.5 14.5q6 0 13.5 1.5t13.5 1.5q37 0 59 -19.5t22 -50.5q0 -9 -1 -16.5t-3 -13.5h89v-16 h-96q-2 -2 -4 -6t-5 -6q-6 -9 -14.5 -18t-17.5 -15q-11 -9 -25 -18.5t-25 -14.5q-13 -4 -27 -7.5t-25 -3.5q-22 0 -39.5 4.5t-28.5 13.5v-122h19h42h41h18v1v1l-1 1l-1 1l13 5l2 -1t2 -4l1 -1q1 -1 1 -3h26h59h59h26v-14h-161q2 -3 3 -6t3 -6q16 -36 31 -81.5t17 -93.5h280 v-13h-280v0zM486 805h-170v-169q59 4 108 56t62 113v0zM316 818h172v9.5v7.5v1v3v3v2q0 41 -11 77t-24 66q-2 4 -5 8.5t-5 9.5h-127v-187v0z" />
<glyph unicode="[" horiz-adv-x="811" d="M-9 7h829v-14h-829v14v0zM-9 211h829v-16h-829v16v0zM345 603h-354v13h829v-13h-340q38 -9 68.5 -30.5t33.5 -65.5q0 -41 -30.5 -62.5t-69.5 -30.5h338v-17h-829v17h356q-36 9 -67.5 30.5t-31.5 62.5v1v1v2v1q0 39 28 59t63 30q2 0 3 1t3 1v0zM347 525q5 -45 29 -76 t54 -28h1h1h1h1q26 4 36 17t10 42v1v3v3v1q-3 46 -26.5 76t-53.5 30h-4h-3q-22 -2 -34 -15t-12 -45v-1v-4v-3v-1v0zM-9 818h829v-13h-829v13v0z" />
<glyph unicode="\" horiz-adv-x="811" d="M-9 7h829v-14h-829v14v0zM-9 211h829v-16h-829v16v0zM-9 414h829v-17h-829v17v0zM350 805h-359v13h829v-13h-54h-118h-118h-55q39 -9 71.5 -30.5t35.5 -65.5q0 -39 -29.5 -61.5t-66.5 -31.5h334v-13h-829v13h352q-37 9 -66 31.5t-29 61.5v1v2v1v1q0 39 29 59.5t66 29.5 q2 2 3 2h4v0zM347 727q5 -45 27.5 -74.5t52.5 -29.5h4h3q26 4 36 17t10 42v1v3v4v2q-3 45 -26.5 74.5t-53.5 29.5h-4h-3q-22 -2 -34 -15t-12 -44v-1v-5v-3v-1v0z" />
<glyph unicode="]" horiz-adv-x="811" d="M-9 7h829v-14h-829v14v0zM-9 211h829v-16h-829v16v0zM-9 414h829v-17h-829v17v0zM582 603q0 -41 -30.5 -63t-69.5 -31q-18 -4 -35 -6t-31 -2q-13 0 -30 1t-36 5q-37 9 -68.5 30.5t-33.5 65.5h-37.5h-37.5h-124h-56l-2 13h257q4 34 34 52t63 28q18 4 35 6.5t32 2.5 q13 0 31.5 -1t36.5 -6q34 -9 63.5 -27t35.5 -55h241v-13h-238v0zM477 603h-19h-44h-43h-21q9 -37 30.5 -61t44.5 -24h6h3q26 5 36 16.5t10 42.5v1v4v3v1v5v5l-2 2q-1 3 -1 5v0zM347 616h128q-9 37 -29.5 55t-45.5 18h-4h-3q-22 -2 -34 -13.5t-12 -43.5v-2v-3v-3v-1v-4v-3v0z M-9 818h829v-13h-829v13v0z" />
<glyph unicode="^" d="M477 603h-481v13h800v-13h-298v-189h298v-17h-298v-186h298v-16h-298v-188h298v-14h-298v-61q0 -25 -15 -50t-40 -43q-18 -13 -38.5 -22.5t-40.5 -14.5q-7 0 -14 -1t-14 -1q-34 0 -59 19.5t-25 50.5q0 26 16 49.5t38 41.5q14 11 29 20.5t31 14.5h-58h-126h-127h-57l-2 11 h481v188h-481v16h481v186h-481v17h481v189v0zM-4 818h800v-13h-800v13v0z" />
<glyph unicode="_" d="M-4 7h800v-14h-800v14v0zM-4 211h800v-16h-800v16v0zM477 805h-481v13h481v293h21v-293h298v-13h-298v-189h298v-13h-298v-169v-4.5v-4.5q-2 -4 -2.5 -6.5t-0.5 -4.5h301v-17h-48h-106h-105h-49q-6 -15 -17 -30t-28 -26q-18 -14 -38.5 -22.5t-40.5 -14.5q-7 0 -14 -1 t-14 -1q-34 0 -59 19.5t-25 51.5v6.5t2 6.5q0 2 1 5.5t4 5.5h-263v17h268q7 13 18 27t24 23q11 9 25 16.5t29 12.5q11 4 24 8t26 4q22 0 39 -3.5t28 -15.5v117h-481v13h481v189v0z" />
<glyph unicode="`" horiz-adv-x="811" d="M371 818v3.5v3.5v1v4q0 20 3 49.5t12 59.5q14 48 36.5 90t57.5 53h1h1h1h1q7 0 16 -9.5t16 -24.5q13 -20 25 -51t21 -65q6 -25 9.5 -48t3.5 -43v-10t-2 -13h247v-13h-249q-3 -50 -21 -98t-47 -91h317v-13h-327q-11 -16 -24.5 -32t-27.5 -30l25 -127h354v-17h-41h-93h-92 h-41q56 -15 89 -68.5t33 -117.5h101h44v-16h-44h-103q-3 -58 -37.5 -102.5t-89.5 -70.5v-2q0 -2 2 -4v-7v-2h272v-14h-267q0 3 3 -19t10 -47q5 -26 8 -47l3 -21q2 -11 2 -19.5v-17.5q0 -63 -35 -100.5t-101 -44.5h-5.5h-7.5q-50 0 -92.5 29.5t-46.5 82.5v3v2v3v3v3.5v3.5 q2 32 23.5 58t51.5 28h5h4q30 0 51 -23.5t25 -53.5v-1v-1v-2v-1q0 -27 -15 -44t-34 -23q-7 -5 -13.5 -6.5t-13.5 -1.5h-1h-3q-2 2 -4 2h-1q3 -13 15 -21t26 -10q7 -2 15 -3t12 -1h3h4q56 6 84 37.5t30 81.5v15.5t-2 14.5q0 7 -1 15t-4 15l-25 111h-532v14h393 q-65 17 -115 67.5t-76 120.5h-202v16h200q-5 13 -7 29t-4 33v10.5v7.5q0 30 5.5 56t14.5 50h-209v17h213q26 52 64 98.5t79 90.5h-55h-121h-123h-55l-2 13h371q4 4 7.5 8.5t7.5 7.5q5 4 8 9t8 7q-9 39 -14.5 78.5t-7.5 78.5h-380v13h380v0zM507 7h2h5h4h3v4q-3 0 -4 -1 t-3 -1t-3.5 -1t-3.5 -1v0zM484 195h-17h-35h-37h-18q0 -30 19.5 -52t44.5 -34q4 -2 5 -3.5t1 -5.5q0 -2 -2 -5.5t-7 -1.5v0v0h-2v0q-36 11 -61 38.5t-36 63.5h-100q13 -77 74.5 -122t139.5 -45h1h3h4h1q13 2 27 4t25 5l-30 158v0zM618 195h-60.5h-48.5l6 -21q6 -22 10 -49 v-3v-1q7 -28 11 -52l5 -23q34 17 56.5 54t22.5 78v1v3v7.5t-2 5.5v0zM443 397h-143q-28 -36 -44.5 -77.5t-19.5 -91.5v-5v-2q0 -2 1.5 -4.5t1.5 -5.5h95q-2 7 -2 14v16q0 52 34 96.5t77 59.5v0zM377 211h16h37h33h17l-18 95q-30 -9 -55 -36t-30 -59v0zM507 211h47.5h61.5 q-11 45 -46.5 73t-83.5 28l21 -101v0zM312 414h129l-23 107q-6 -7 -13.5 -12.5t-13.5 -13.5q-20 -18 -40.5 -38.5t-38.5 -42.5v0zM518 805h-113q-2 -9 -2.5 -17.5t-0.5 -14.5q0 -26 4 -51.5t10 -51.5q2 3 5.5 6t8.5 6q25 25 49 56.5t39 66.5v0zM407 818h118q7 20 11.5 41 t4.5 39v3v4v1v3q0 20 -11.5 36t-34.5 16q-32 -4 -51 -37t-30 -69q-2 -9 -3 -18.5t-4 -18.5v0z" />
<glyph unicode="a" horiz-adv-x="811" d="M-9 7h829v-14h-829v14v0zM-9 211h829v-16h-829v16v0zM-9 414h829v-17h-829v17v0zM-9 616h829v-13h-829v13v0zM582 805q-3 -39 -33.5 -59.5t-66.5 -29.5q-18 -2 -35 -4.5t-31 -2.5q-13 0 -30 1.5t-36 5.5q-37 9 -67.5 29.5t-34.5 59.5h-257v13h257q2 39 32 59.5t65 27.5 q18 4 35 6.5t32 2.5q13 0 30.5 -1.5t34.5 -5.5q37 -9 67.5 -29.5t34.5 -59.5h241v-13h-238v0zM480 805h-128q9 -37 29.5 -59.5t43.5 -20.5h6h3q26 4 36 17t10 43v1v3v4v1v3v3v1v4v0zM350 818h127q-9 39 -30.5 59.5t-46.5 20.5h-4h-3q-22 -4 -34 -16t-12 -43v-1v-3v-4v-1v-1 q0 -2 3 -4v-3.5v-3.5v0z" />
<glyph unicode="b" horiz-adv-x="811" d="M382 603h-391v13h430q4 2 8.5 3t11.5 1h9h10q8 0 16 -1t17 -3h327v-13h-302q11 -11 15.5 -26t4.5 -31v-4v-1v-4v-3q-2 -43 -32.5 -75t-71.5 -45h386v-17h-504v-186h504v-16h-504v-188h504v-14h-504v-191h-21v191h-304v14h304v188h-304v16h304v186h-304v17h304v74 q0 37 26 66.5t61 48.5v0zM373 529q-22 -17 -37 -36.5t-15 -37.5v0v0v-2v0q0 -7 3 -11t10 -6l2 -1q3 -1 5 -1q13 0 32.5 6.5t42.5 21.5q7 4 13.5 8.5t13.5 9.5q11 8 22.5 18.5t20.5 19.5q11 14 19.5 29t8.5 26q0 4 -3.5 7.5t-7.5 5.5q-2 0 -3 1l-2 1h-3.5h-3.5 q-11 0 -23.5 -4.5t-24.5 -8.5q-9 -4 -18 -10l-15 -10q-12 -7 -21 -14t-16 -12v0zM-9 818h829v-13h-829v13v0z" />
<glyph unicode="c" horiz-adv-x="811" d="M-9 7h829v-14h-829v14v0zM509 805h-518v13h518v198h20v-198h291v-13h-291v-189h291v-13h-291v-189h291v-17h-291v-70q0 -36 -30.5 -67.5t-68.5 -48.5h390v-16h-829v16h321q-16 11 -22 31t-6 42q2 39 29.5 68.5t63.5 44.5h-60h-133h-132h-59l-2 17h434h4.5t4.5 2h4.5h4.5 h14t14 -2h38v189h-518v13h518v189v0zM364 325q-9 -6 -18.5 -14.5t-13.5 -17.5q-11 -11 -16.5 -22.5t-5.5 -22.5q0 -9 5.5 -12.5t14.5 -5.5h1h1h1h1q11 0 29.5 6.5t36.5 17.5q8 5 17.5 10t16.5 11q2 0 3 1.5t4 3.5q11 9 21.5 19.5l19.5 19.5q9 11 15 22t6 21v1v1v1v1 q0 7 -5 11.5t-12 4.5h-3h-6q-9 0 -21.5 -4.5t-25.5 -8.5q-9 -5 -17 -10t-16 -12q-11 -4 -18.5 -10.5t-14.5 -11.5v0z" />
<glyph unicode="d" horiz-adv-x="811" d="M-9 7h829v-14h-829v14v0zM-9 211h829v-16h-829v16v0zM-9 414h829v-17h-829v17v0zM-9 616h829v-13h-829v13v0zM-9 818h829v-13h-829v13v0zM579 1013q-2 -36 -32.5 -56t-64.5 -29q-18 -4 -36.5 -7t-31.5 -3t-30.5 1t-33.5 7q-37 9 -68.5 29.5t-36.5 57.5h-65v17h65 q3 37 32 57t66 27q18 5 35 7t32 2q13 0 30 -1t35 -5q37 -9 67.5 -28.5t34.5 -58.5h65v-17h-63v0zM477 1013h-127q9 -36 30.5 -58.5t46.5 -19.5h1h2h1h1q25 4 35 16t10 42v2v3v3v1v7v4v0zM347 1030h128q-9 34 -29.5 56.5t-45.5 20.5h-5h-4q-22 -3 -34 -14t-12 -43v-1v-3v-4 v-1v-3t2 -3v-4v-1v0z" />
<glyph unicode="e" horiz-adv-x="811" d="M384 -211h-180v16h419v-16h-157q5 2 10.5 1t9.5 -1q41 -9 74.5 -31t33.5 -64v-4v-2q0 -39 -31 -59t-68 -29q-18 -4 -35 -7t-30 -3q-14 0 -31 2.5t-35 5.5q-39 9 -70.5 32t-34.5 64q0 41 32 62t69 30q6 2 11.5 3.5t12.5 1.5v-2zM362 -291q2 -41 23.5 -69t46.5 -33h3h3h4h3 q26 2 37 14.5t11 44.5v1v3v4v1q-2 45 -26 74.5t-53 29.5h-3h-4q-22 -4 -33.5 -16.5t-11.5 -42.5v-1v-3v-3v-2v-2zM-9 7h829v-14h-829v14v0zM-9 211h829v-16h-829v16v0zM-9 414h829v-17h-829v17v0zM-9 616h829v-13h-829v13v0zM-9 818h829v-13h-829v13v0z" />
<glyph unicode="f" horiz-adv-x="811" d="M-9 7h829v-14h-829v14v0zM-9 211h829v-16h-829v16v0zM-9 414h829v-17h-829v17v0zM-9 616h829v-13h-829v13v0zM-9 818h829v-13h-829v13v0zM475 1021h23h53h50h22v-14h-419v14h143q-38 9 -70 30.5t-34 65.5v1v1v1v1q0 39 30.5 60t69.5 31q16 2 33 4.5t31 2.5t31 -2.5 t35 -4.5q39 -9 70.5 -32t33.5 -63v-1v-2v-1v-2q0 -39 -29.5 -59t-65.5 -29q-2 -2 -3.5 -2h-3.5v0zM343 1134q4 -45 27 -74.5t53 -29.5h3h4q25 5 35 17t10 42v1v3v4v1q-2 48 -26 76t-54 28h-3h-4q-22 -4 -33.5 -15.5t-11.5 -43.5v-1v-3v-3v-2v0z" />
<glyph unicode="g" horiz-adv-x="811" d="M-9 7h829v-14h-829v14v0zM-9 211h829v-16h-829v16v0zM-9 414h829v-17h-829v17v0zM-9 616h829v-13h-829v13v0zM-9 818h829v-13h-829v13v0zM204 1021h419v-14h-419v14v0zM579 1207q-2 -37 -32.5 -57t-64.5 -27q-18 -4 -36.5 -6.5t-31.5 -2.5t-30.5 1.5t-33.5 5.5 q-37 7 -68.5 27.5t-36.5 58.5h-65v16h65q3 37 32 57t66 30q18 4 35 6.5t32 2.5q13 0 30 -2.5t35 -4.5q37 -9 67.5 -29.5t34.5 -59.5h65v-16h-63v0zM477 1207h-127q9 -35 29.5 -57t43.5 -20h5.5h3.5q25 4 35 16.5t10 42.5v1v3v4v1v1v3v3v2v0zM347 1223h128q-9 39 -30.5 59.5 t-47.5 20.5h-3h-3q-22 -4 -34 -16t-12 -44v-1v-3v-4v-1v-3t2 -1v-3.5v-3.5v0z" />
<glyph unicode="h" d="M464 7h332v-14h-332v-193h159v-14h-159v-188h159v-16h-159v-80q-2 -41 -39 -75t-80 -45q-11 -5 -21 -6t-20 -1q-15 0 -30 1t-26 10q-18 11 -23.5 31.5t-5.5 44.5q2 43 37 77t78 45l-130 -2v16h239v188h-239v14h239v193h-447v14h447v184h21v-184v0zM297 -501 q-6 -4 -14 -9.5t-12 -12.5q-11 -13 -18.5 -26t-7.5 -24v0v-2v0v0q0 -9 4.5 -12.5t14.5 -6.5h1h1h2h1q11 0 29 7.5t36 18.5q9 4 18.5 8.5t16.5 11.5q13 9 25.5 21.5l23.5 23.5q9 11 14.5 23t5.5 23v2v0q-2 4 -6.5 9t-10.5 5h-4h-5q-9 0 -22 -5t-26 -9q-9 -5 -17 -9t-15 -11 q-11 -5 -19.5 -11.5t-15.5 -11.5v-3zM-4 211h800v-16h-800v16v0zM-4 414h800v-17h-800v17v0zM-4 616h800v-13h-800v13v0zM-4 818h800v-13h-800v13v0z" />
<glyph unicode="i" horiz-adv-x="811" d="M-9 7h829v-14h-829v14v0zM582 195q-3 -36 -33.5 -56.5t-66.5 -29.5q-18 -2 -35 -4.5t-31 -2.5q-13 0 -30 1t-36 6q-37 9 -67.5 28.5t-34.5 57.5h-257v16h257q2 37 32 57.5t65 28.5q18 5 35 7t32 2q13 0 30.5 -2t34.5 -4q37 -9 67.5 -29.5t34.5 -59.5h38h83h83h37v-16 h-238v0zM480 195h-128q9 -36 29.5 -56.5t45.5 -20.5h4h3q26 4 36 17t10 43v1v3v3v1v2v3v3v1v0zM350 211h127q-9 37 -31.5 59.5t-48.5 20.5h-1h-3q-22 -5 -34 -16t-12 -43v-1v-3v-4v-1v-3t3 -4v-3v-2v0zM-9 414h829v-17h-829v17v0zM-9 616h829v-13h-829v13v0zM-9 818h829v-13 h-829v13v0z" />
<glyph unicode="j" horiz-adv-x="811" d="M509 195h-518v16h518v95h20v-95h291v-16h-291v-188h291v-14h-291v-195h94v-14h-94v-164q0 -2 -1 -7.5t-3 -9.5l98 -3v-14h-102q-12 -30 -43 -53.5t-66 -35.5q-9 -2 -20.5 -4t-20.5 -2q-16 0 -31 2t-26 9q-18 13 -24 33t-6 44v4t2 5l-82 -2v14h85q11 39 45.5 66.5 t72.5 36.5q9 4 18 5t18 1q15 0 31.5 -2t34.5 -13v90h-305v14h305v195h-518v14h518v188v0zM457 -414h-127q-9 -9 -14.5 -21t-5.5 -25q0 -8 5.5 -10.5t14.5 -4.5h1h1h1h1q11 0 29.5 5.5t36.5 16.5q8 5 17.5 11t16.5 12q2 3 5.5 5t5.5 4q2 3 6 5t6 4v-2zM343 -400h128 q4 7 9.5 13.5t7.5 11.5q7 9 11 18.5t4 15.5v0v0v2v0q0 7 -5 10.5t-12 5.5h-3h-6q-9 0 -21.5 -4.5t-25.5 -11.5q-9 -4 -16 -8.5t-17 -9.5q-9 -7 -17.5 -13.5t-15.5 -11.5q-4 -4 -10.5 -7.5t-10.5 -7.5v-3zM-9 414h829v-17h-829v17v0zM-9 616h829v-13h-829v13v0zM-9 818h829 v-13h-829v13v0z" />
<glyph unicode="k" horiz-adv-x="811" d="M529 211h291v-16h-291v-188h291v-14h-291v-195h94v-14h-94v-75q0 -41 -36 -75t-79 -48q-11 -2 -21.5 -4.5t-21.5 -2.5q-16 0 -31 2.5t-26 8.5q-18 14 -24 33.5t-6 42.5q2 41 34 72.5t70 47.5l-184 -2v14h305v195h-518v14h518v188h-518v16h518v184h20v-184v0zM364 -295 q-11 -7 -21.5 -17.5t-17.5 -19.5q-6 -9 -10.5 -19.5t-4.5 -19.5t5.5 -11t14.5 -4h1h1h1h1q11 0 29.5 5.5t36.5 16.5q8 4 17.5 10.5t16.5 12.5q2 0 3 1l4 4q11 9 21.5 17.5t19.5 21.5q9 11 15 22t6 21v1v1v1v1q0 7 -5 10.5t-12 5.5h-3h-6q-9 0 -21.5 -4.5t-25.5 -11.5 q-9 -4 -16 -9t-17 -10q-9 -6 -17.5 -13t-15.5 -11v-2zM-9 414h829v-17h-829v17v0zM-9 616h829v-13h-829v13v0zM-9 818h829v-13h-829v13v0z" />
<glyph unicode="l" horiz-adv-x="811" d="M509 397h-518v17h518v93h20v-93h291v-17h-291v-186h291v-16h-291v-188h291v-14h-291v-175q0 -2 -1 -7.5t-3 -10.5l98 -2v-14h-102q-14 -30 -45 -53.5t-66 -32.5q-9 -4 -19.5 -6t-19.5 -2q-16 0 -31 2t-26 11q-18 11 -24 31.5t-6 42.5v1v3q0 3 1 4l1 1l-82 -2v14h85 q11 39 45.5 66t72.5 38q9 3 18 5t18 2q15 0 31.5 -3.5t34.5 -14.5v102h-518v14h518v188h-518v16h518v186v0zM455 -216h-125q-9 -9 -14.5 -21.5t-5.5 -21.5t5.5 -12.5t14.5 -6.5h1h1h1h1q11 0 29.5 7t36.5 19q8 4 17.5 8.5t16.5 11.5l4.5 4.5t6.5 4.5q2 2 5 4.5t5 4.5v-2z M343 -202h128q13 18 22.5 33t9.5 26v0v0v2v0q0 7 -5 11.5t-12 4.5h-3h-6q-9 0 -21.5 -4.5t-25.5 -9.5q-9 -4 -17 -8.5t-16 -11.5q-11 -4 -18.5 -11.5t-14.5 -11.5l-4.5 -4.5t-5.5 -4.5q-4 -2 -6.5 -4.5l-4.5 -4.5v-2zM-9 616h829v-13h-829v13v0zM-9 818h829v-13h-829v13v0z " />
<glyph unicode="m" d="M-4 7h800v-14h-800v14v0zM375 805h-379v13h416q4 2 8.5 3.5t9.5 1.5q4 2 8.5 2h8.5h11t13 -2q4 0 9.5 -1.5t10.5 -3.5h305v-13h-282q13 -14 16.5 -31t3.5 -37q-2 -41 -35 -73t-74 -48h371v-13h-486v-189h486v-17h-486v-186h486v-16h-486v-188h-19v188h-295v16h295v186 h-295v17h295v189h-295v13h295v78q0 34 25 64.5t59 46.5v0zM369 735q-7 -7 -15.5 -13t-12.5 -13q-11 -13 -18 -26t-7 -24v0v0v-2v0q0 -9 4.5 -12t13.5 -7h1h1h1h2q13 0 31 7.5t37 18.5q9 4 17 9.5t14 10.5q12 9 24.5 20.5t21.5 20.5q11 13 18 27t7 23q-2 6 -6.5 11t-11.5 5 h-4h-5q-9 0 -22 -4t-26 -10q-9 -4 -16.5 -8.5t-15.5 -11.5q-11 -4 -19 -11t-14 -11v0z" />
<glyph unicode="n" horiz-adv-x="811" d="M532 603q-14 -37 -47.5 -62t-72.5 -34q-7 -2 -15.5 -3t-14.5 -1q-16 0 -32 3t-34 15v-107h504v-17h-504v-186h504v-16h-504v-188h504v-14h-504v-91h-21v91h-304v14h304v188h-304v16h304v186h-304v17h304v177v6v6h-59h-70h-119h-54l-2 13h50h104h107h48q11 34 43 61.5 t69 36.5q11 4 21 5t20 1q15 0 30 -1t26 -10q18 -9 23.5 -26t5.5 -37v-5v-7v-4.5v-4.5t-1 -4.5t-1 -4.5h284v-13h-55h-121h-59.5h-52.5v0zM468 603h-19h-42h-45h-19q-9 -11 -15.5 -23t-6.5 -21v-1v-1v-1v-1q0 -9 5.5 -13t14.5 -6h1h1h1h1q11 0 30.5 7.5t38.5 18.5 q9 4 15.5 9.5t13.5 10.5q2 2 5 3t5 3q4 3 8.5 6.5t6.5 8.5v0zM357 616h127q4 4 7.5 8.5t9.5 9.5q6 9 9.5 19.5t3.5 16.5v0v3v0v0q0 4 -3.5 8.5t-7.5 7.5h-3h-2h-1h-4h-3h-2q-8 0 -20.5 -3.5t-26.5 -10.5q-7 -5 -15 -9t-14 -9q-14 -7 -23 -14t-16 -11q-2 -3 -4.5 -5t-2.5 -4 q-2 -3 -4 -4t-5 -3v0zM-9 818h829v-13h-829v13v0z" />
<glyph unicode="o" horiz-adv-x="811" d="M-9 7h829v-14h-829v14v0zM357 397h-57h-125h-126h-56l-2 17h829v-17h-358q4 0 7.5 -1t7.5 -1q39 -9 69.5 -30.5t30.5 -62.5v-1v-1v-1v-2q0 -36 -27 -55t-59 -31h329v-16h-829v16h341q-35 9 -61 31t-28 60v1v1v1v1q0 37 29.5 57.5t63.5 29.5q5 2 10.5 3t10.5 1v0zM345 321 q2 -46 25 -75.5t53 -29.5h3h4q25 5 36 17t11 42v1v4v3v1q-2 46 -26 75t-54 27h-3h-3q-22 -2 -34 -13t-12 -43v-1v-4v-3v-1v0zM-9 616h829v-13h-829v13v0zM-9 818h829v-13h-829v13v0z" />
<glyph unicode="p" horiz-adv-x="811" d="M-9 7h829v-14h-829v14v0zM-9 211h829v-16h-829v16v0zM582 397q-3 -36 -33.5 -57t-66.5 -28q-18 -5 -35 -7.5t-31 -2.5q-13 0 -30 2t-36 6q-37 9 -67.5 29.5t-34.5 57.5h-257v17h257q2 37 32 57t65 27q18 5 35 7t32 2q13 0 30.5 -1t34.5 -5q37 -9 67.5 -28.5t34.5 -58.5 h241v-17h-238v0zM477 397h-125q9 -36 31 -58.5t47 -19.5h1h1h1h1q26 4 36 16t10 42v2v3v3v1v7t-3 4v0zM350 414h127q-9 34 -29.5 56.5t-45.5 20.5h-4.5h-4.5q-22 -3 -34 -15t-12 -44v-1v-4v-3v-1v-1q0 -1 3 -4v-3v-1v0zM-9 616h829v-13h-829v13v0zM-9 818h829v-13h-829v13v0 z" />
<glyph unicode="q" horiz-adv-x="811" d="M384 -410h-180v15h419v-15h-157q5 3 10.5 1.5t9.5 -3.5q41 -9 74.5 -30.5t33.5 -64.5v-4v-1q0 -39 -31 -59t-68 -30q-18 -4 -35 -6t-30 -2q-14 0 -31 2t-35 4q-39 9 -70.5 32t-34.5 64q0 41 32 63.5t69 31.5q6 0 11.5 2.5t12.5 2.5v-3zM362 -488q2 -41 23.5 -69.5 t46.5 -33.5h3h3h4h3q26 3 37 15t11 44v1v4v3v1q-2 43 -26 72.5t-53 29.5h-3h-4q-22 -4 -33.5 -15t-11.5 -41v-1v-4v-3v-1v-2zM204 -191h419v-15h-419v15v0zM-9 7h829v-14h-829v14v0zM-9 211h829v-16h-829v16v0zM-9 414h829v-17h-829v17v0zM-9 616h829v-13h-829v13v0zM-9 818 h829v-13h-829v13v0z" />
<glyph unicode="r" horiz-adv-x="811" d="M579 -219q-2 -34 -32.5 -54t-64.5 -29q-18 -4 -36.5 -7t-31.5 -3t-30.5 1t-33.5 7q-37 9 -68.5 29.5t-36.5 58.5l-65 -3v17h65q3 39 32 59t66 28q18 4 35 6t32 2q13 0 30 -1t35 -5q37 -9 67.5 -28.5t34.5 -58.5l65 -2v-17h-63v0zM477 -219h-127q9 -32 29.5 -54t43.5 -20 h5.5h3.5q25 2 35 14.5t10 44.5v1v3v4v1v1v3v3v2v-3zM347 -202h128q-9 39 -29.5 60t-45.5 19h-5h-4q-22 -5 -34 -16t-12 -41v-1v-3v-4v-1v-3t2 -3v-4v-1v-2zM-9 7h829v-14h-829v14v0zM-9 211h829v-16h-829v16v0zM-9 414h829v-17h-829v17v0zM-9 616h829v-13h-829v13v0zM-9 818 h829v-13h-829v13v0z" />
<glyph unicode="s" horiz-adv-x="811" d="M-9 7h829v-14h-829v14v0zM-9 211h829v-16h-829v16v0zM-9 414h829v-17h-829v17v0zM-9 616h829v-13h-829v13v0zM486 818h334v-13h-829v13h352q-37 11 -66 32.5t-29 60.5v1v2v1v1q0 39 31 60.5t68 30.5q16 2 33 4t32 2q13 0 31.5 -2t36.5 -4q38 -9 70 -30.5t32 -65.5 q0 -39 -29.5 -60t-66.5 -33v0zM347 932q5 -45 27.5 -75t52.5 -30h4h3q26 4 36 17t10 43v1v3v4v1q-3 45 -26.5 74.5t-53.5 27.5h-4h-3q-22 -2 -34 -13.5t-12 -43.5v-1v-3v-3v-2v0z" />
<glyph unicode="t" horiz-adv-x="811" d="M352 -7h-361v14h829v-14h-347q2 3 3 3t4 -3q36 -9 67.5 -30.5t34.5 -62.5q2 -41 -29.5 -63.5t-70.5 -31.5q-18 -3 -35 -5t-31 -2q-13 0 -30 1t-36 6q-37 9 -68.5 30.5t-33.5 64.5v1v1v1v2q0 38 29 58.5t64 29.5q2 0 5.5 1.5t5.5 1.5v-3zM347 -84q5 -44 27.5 -73t52.5 -29 h4h3q26 2 36 14.5t10 43.5v1v4v4v1q-3 46 -26.5 75.5t-53.5 26.5h-4h-3q-22 -4 -34 -15.5t-12 -41.5v-1v-4v-3v-1v-2zM-9 211h829v-16h-829v16v0zM-9 414h829v-17h-829v17v0zM-9 616h829v-13h-829v13v0zM-9 818h829v-13h-829v13v0z" />
<glyph unicode="u" horiz-adv-x="811" d="M352 195h-361v16h829v-16h-347h3t4 -2q36 -9 67.5 -30.5t34.5 -62.5q0 -39 -28.5 -60.5t-65.5 -32.5h332v-14h-829v14h350q-37 11 -65 32.5t-28 60.5v1v1v1v1q0 39 29 59.5t64 29.5q2 0 5.5 1t5.5 1v0zM347 118q5 -46 27.5 -75.5t52.5 -29.5h4h3q26 5 36 17.5t10 42.5v1 v4v3v1q-3 46 -26.5 75t-53.5 29h-4h-3q-22 -4 -34 -15.5t-12 -42.5v-1v-4v-4v-1v0zM-9 414h829v-17h-829v17v0zM-9 616h829v-13h-829v13v0zM-9 818h829v-13h-829v13v0z" />
<glyph unicode="v" horiz-adv-x="811" d="M-9 7h829v-14h-829v14v0zM-9 211h829v-16h-829v16v0zM509 805h-518v13h518v303h20v-303h291v-13h-291v-189h291v-13h-291v-169q0 -4 -1 -10t-3 -10h295v-17h-299q-14 -32 -45 -55t-66 -32q-9 -5 -19.5 -6.5t-19.5 -1.5q-16 0 -31 2t-26 10q-18 13 -24 32.5t-6 41.5v6t2 3 h-295v17h298q11 37 45.5 64t72.5 36q9 4 18 5.5t18 1.5q15 0 31.5 -2.5t34.5 -15.5v100h-518v13h518v189v0zM455 397h-125q-9 -9 -14.5 -21t-5.5 -24q0 -9 5.5 -11t14.5 -5h1h1h1h1q11 0 29.5 5.5t36.5 18.5q8 4 17.5 9.5t16.5 12.5q2 2 4.5 4t6.5 5q2 0 5 2t5 4v0zM343 414 h128q4 4 9.5 11t7.5 11q7 9 11 18.5t4 16.5v0v2v0v0q0 7 -5 10t-12 5h-3h-6q-9 0 -21.5 -4t-25.5 -11q-9 -5 -16 -9t-17 -9q-9 -7 -17.5 -14t-15.5 -11q-2 -3 -4.5 -5t-5.5 -2q-4 -2 -6.5 -4.5l-4.5 -4.5v0z" />
<glyph unicode="w" horiz-adv-x="811" d="M579 -400q-2 -34 -32.5 -54.5t-64.5 -29.5q-18 -4 -36.5 -6.5t-31.5 -2.5t-30.5 1t-33.5 6q-37 9 -68.5 29.5t-36.5 59.5l-65 -3v16h65q3 39 32 59.5t66 27.5q18 4 35 6t32 2q13 0 30 -1t35 -5q37 -9 67.5 -28.5t34.5 -58.5l65 -2v-16h-63v0zM477 -400h-127 q9 -32 29.5 -54.5t43.5 -20.5h5.5h3.5q25 2 35 15t10 44v1v3v4v1v1v4v4v1v-3zM347 -384h128q-9 39 -29.5 60.5t-45.5 19.5h-5h-4q-22 -5 -34 -16.5t-12 -41.5v-1v-3v-4v-1v-3t2 -3v-4v-1v-2zM180 -191h462v-15h-462v15v0zM-9 7h829v-14h-829v14v0zM-9 211h829v-16h-829v16v0 zM-9 414h829v-17h-829v17v0zM-9 616h829v-13h-829v13v0zM-9 818h829v-13h-829v13v0z" />
<glyph unicode="x" horiz-adv-x="811" d="M-9 7h829v-14h-829v14v0zM509 805h-518v13h518v96h20v-96h291v-13h-291v-189h291v-13h-291v-189h291v-17h-291v-169v-5v-4q-2 -3 -2 -4v-4h293v-16h-297q-11 -34 -44.5 -59t-68.5 -36l-21 -3.5t-18 -1.5q-16 0 -31 2.5t-26 9.5q-18 13 -24 32.5t-6 42.5v3t2 4v3v3h-295 v16h300q11 37 45.5 63t75.5 36q6 2 15 3t16 1q15 0 31.5 -2t34.5 -17v102h-518v17h518v189h-518v13h518v189v0zM462 195h-128q-7 -6 -11 -11.5t-7 -12.5q-4 -7 -5 -13t-1 -13q0 -6 3 -9.5t10 -5.5l2 -1t5 -1q11 0 30.5 6.5t41.5 17.5q6 5 15.5 9.5t16.5 11.5q4 2 7.5 5.5 l5.5 5.5q5 2 9 5.5t6 5.5v0zM347 211h128q7 7 12.5 14t7.5 14q5 6 6.5 11.5t1.5 13.5v0v2v0v0q0 7 -5 10.5t-12 5.5h-3h-3q-12 0 -24.5 -4.5t-25.5 -11.5q-7 -4 -15 -9t-15 -9q-12 -7 -20.5 -13.5t-15.5 -11.5q-2 -2 -4.5 -3t-2.5 -4q-2 -2 -4.5 -3.5t-5.5 -1.5v0z" />
<glyph unicode="y" horiz-adv-x="811" d="M582 -7q0 -39 -30.5 -60.5t-69.5 -30.5q-18 -4 -35 -6.5t-31 -2.5q-13 0 -30 1.5t-36 5.5q-37 9 -68.5 30.5t-33.5 65.5h-37.5h-37.5h-124h-56l-2 11h257q4 34 34 53.5t63 28.5q18 4 35 6.5t32 2.5q13 0 31.5 -2.5t36.5 -6.5q34 -7 63.5 -26.5t35.5 -55.5h241v-14h-238v0 zM477 -7q0 3 -19.5 3h-43.5h-43h-21q9 -39 30.5 -62t44.5 -23h6h3q26 2 36 15t10 44v1v3v4v2v4v3q0 2 -1.5 4t-1.5 5v-3zM347 7h128q-9 34 -28.5 53.5t-44.5 19.5h-1h-4h-3h-1q-22 -2 -34 -14t-12 -44v-1v-3v-4v-1v-3v-3v0zM-9 211h829v-16h-829v16v0zM-9 414h829v-17h-829 v17v0zM-9 616h829v-13h-829v13v0zM-9 818h829v-13h-829v13v0z" />
<glyph unicode="z" horiz-adv-x="811" d="M509 805h-518v13h829v-13h-291v-189h291v-13h-291v-189h291v-17h-291v-186h291v-16h-291v-70q0 -36 -31.5 -67.5t-70.5 -50.5h393v-14h-829v14h323q-18 13 -24 32.5t-6 42.5q2 39 28.5 68.5t62.5 44.5h-384v16h430q6 2 13 2.5t13 0.5h9h6q4 -2 7.5 -2.5t5.5 -0.5h34v186 h-518v17h518v189h-518v13h518v189v0zM364 123q-9 -6 -18.5 -14.5t-13.5 -17.5q-11 -11 -16.5 -22.5t-5.5 -22.5q0 -9 5.5 -12.5t14.5 -5.5h1h1h1h1q11 0 29.5 6.5t36.5 17.5q8 5 17.5 9t16.5 12q2 0 3 1l4 4q11 9 23.5 20t21.5 23q7 11 12 21t5 19v1v1v2v1q0 5 -5 9.5 t-12 4.5h-3h-6q-9 0 -21.5 -4.5t-25.5 -9.5q-9 -4 -17 -9t-16 -12q-11 -4 -18.5 -10.5t-14.5 -11.5v0z" />
<glyph unicode="{" d="M423 397h-427v17h427v84h20q0 -4 1 -8t1 -8q2 -16 6 -33t11 -35h334v-17h-330q5 -9 11.5 -20t15.5 -23q7 -9 14 -16.5t14 -14.5q17 -20 34.5 -37t30.5 -36q7 -5 11 -11.5t8 -13.5q2 -4 4.5 -6.5t4.5 -7.5h182v-16h-27h-62h-59h-28q12 -20 18 -42.5t6 -48.5 q0 -25 -5 -48.5t-12 -48.5h169v-14h-173q-7 -17 -14.5 -36.5t-17.5 -36.5q-5 -9 -8.5 -15.5t-7.5 -13.5l-11 -2q4 11 9.5 23.5t10.5 26.5q4 13 10.5 27t10.5 30l-162 -3v-173v-7.5t-2 -12.5l102 -2v-14h-107q-6 -16 -17.5 -29.5t-27.5 -25.5q-14 -11 -30 -18.5t-31 -12.5 q-11 -4 -23 -7t-23 -3q-36 0 -60 20.5t-24 52.5q0 5 1 11.5t3 13.5h-12h-26h-26h-12v12h83q7 18 18.5 30.5t24.5 23.5q11 11 26 19t32 14q11 4 22 6t23 2q20 0 38.5 -4t27.5 -14v118h-427v14h427v188h-427v16h427v186v0zM577 195h-25h-27h-43.5h-38.5v-188h166q5 15 7 30 t2 31v8v6q-2 32 -12 60.5t-29 52.5v0zM443 211h123q-25 30 -57 49.5t-66 21.5v-71v0zM-4 616h800v-13h-800v13v0zM-4 818h800v-13h-800v13v0z" />
<glyph unicode="|" d="M423 603h-427v13h427v89h20q0 -5 1 -8t1 -8q2 -15 6 -35t11 -38h334v-13h-51h-116h-112h-51q5 -9 11.5 -19.5t15.5 -21.5q7 -9 14 -17.5t14 -15.5q17 -20 34.5 -37t30.5 -35q9 -9 16 -20.5t14 -22.5h180v-17h-173q11 -20 16 -41.5t5 -45.5q0 -26 -5 -51t-12 -48h169v-16 h-173q-7 -17 -14.5 -36.5t-17.5 -33.5q-5 -8 -8.5 -15.5t-7.5 -14.5h-11q7 14 13.5 30t13.5 32q2 8 7 18.5t7 19.5h-162v-167v-11t-2 -10h56h121h122h56v-14h-358q-6 -15 -18.5 -30t-28.5 -28q-14 -9 -30 -17.5t-31 -12.5q-11 -5 -23 -7t-23 -2q-36 0 -60 19.5t-24 50.5 q0 8 1 15.5t3 14.5l-208 -3v14h34.5h73.5h74h33q9 13 19.5 26t23.5 21q11 11 26 19.5t32 15.5q11 4 22 6.5t23 2.5q20 0 38.5 -3.5t27.5 -14.5v115h-427v16h427v186h-427v17h427v189v0zM579 397h-136v-186h166q3 7 3 12t2 11q2 11 3 23t1 23v4v5q-2 30 -11 58t-28 50v0z M443 414h125q-25 32 -58 51t-67 21v-72v0zM-4 818h800v-13h-800v13v0z" />
<glyph unicode="}" d="M423 603h-427v13h800v-13h-351v-3.5v-3.5q2 -22 8.5 -50t21.5 -55q5 -7 9 -12.5t9 -12.5q11 -13 23.5 -27t24.5 -25h255v-17h-241l8.5 -8.5t7.5 -8.5q4 -5 8.5 -9.5t6.5 -8.5q26 -32 42 -70t16 -78v0v0v-3v0h152v-16h-152q-2 -41 -16 -81.5t-30 -72.5q-4 -9 -9 -18.5 t-10 -15.5h217v-14h-353v-61q0 -25 -13.5 -50t-38.5 -43q-14 -11 -30 -19.5t-31 -12.5q-11 -2 -23 -4.5t-23 -2.5q-36 0 -60 19.5t-24 50.5q0 26 16 49.5t38 41.5q14 11 28.5 20.5t31.5 14.5h-50h-110h-107h-49l-2 11h427v188h-427v16h427v186h-427v17h427v189v0zM618 195 h-175v-188h123q5 9 9 18t9 21q11 29 22.5 65.5t11.5 74.5v4v3v0v2v0v0v0zM443 211h173v3.5v4.5q-11 61 -60 113t-105 59h-4.5h-3.5v-180v0zM-4 818h800v-13h-800v13v0z" />
<glyph unicode="~" d="M-4 7h800v-14h-800v14v0zM-4 211h800v-16h-800v16v0zM304 818h492v-13h-492v-189h492v-13h-492v-189h492v-17h-800v17h288v189h-288v13h288v189h-288v13h288v187h-80v16h80v72q2 44 39 77.5t79 48.5q11 4 21.5 5t19.5 1q15 0 30 -2t28 -9q17 -13 22.5 -32.5t5.5 -44.5 q-2 -39 -31.5 -69.5t-67.5 -46.5h193v-16h-319v-187v0zM364 1134q-9 -6 -18.5 -14.5t-13.5 -17.5q-11 -11 -16.5 -22t-5.5 -23q0 -9 5.5 -12.5t14.5 -5.5h1h1h1h1q11 0 29.5 6.5t36.5 17.5q8 5 17.5 10t16.5 11q2 0 3 1.5t4 3.5q11 9 23.5 20.5t21.5 22.5q7 11 12 21.5 t5 19.5v1v1v2v1q0 4 -5 8.5t-12 4.5h-3h-6q-9 0 -21.5 -4.5t-25.5 -8.5q-9 -5 -17 -9.5t-16 -11.5q-11 -5 -18.5 -11.5t-14.5 -11.5v0z" />
<glyph unicode="&#xa2;" horiz-adv-x="202" d="M0 -252q0 18 11 29.5t28 11.5q15 0 27 -11.5t12 -27.5q0 -15 -12 -27t-27 -12q-16 0 -27.5 11.5t-11.5 27.5v-2zM-2 7h206v-14h-206v14v0zM-2 211h206v-16h-206v16v0zM-2 414h206v-17h-206v17v0zM-2 616h206v-13h-206v13v0zM-2 818h206v-13h-206v13v0z" />
<glyph unicode="&#xa3;" horiz-adv-x="202" d="M0 -297q0 17 11 29t28 12q15 0 27 -12t12 -27q0 -16 -12 -27.5t-27 -11.5q-16 0 -27.5 11t-11.5 28v-2zM-2 7h206v-14h-206v14v0zM-2 211h206v-16h-206v16v0zM-2 414h206v-17h-206v17v0zM-2 616h206v-13h-206v13v0zM-2 818h206v-13h-206v13v0z" />
<glyph unicode="&#xa5;" horiz-adv-x="202" d="M-2 7h206v-14h-206v14v0zM-2 211h206v-16h-206v16v0zM-2 414h206v-17h-206v17v0zM-2 616h206v-13h-206v13v0zM-2 818h206v-13h-206v13v0zM0 1126q0 15 11 25.5t28 10.5q15 0 27 -10.5t12 -25.5q0 -16 -12 -27.5t-27 -11.5q-16 0 -27.5 11t-11.5 28v0z" />
<glyph unicode="&#xa8;" horiz-adv-x="1136" />
<glyph unicode="&#xa9;" horiz-adv-x="1136" />
<glyph unicode="&#xab;" horiz-adv-x="1136" />
<glyph unicode="&#xae;" horiz-adv-x="202" d="M-2 7h206v-14h-206v14v0zM-2 211h206v-16h-206v16v0zM-2 414h206v-17h-206v17v0zM-2 616h206v-13h-206v13v0zM-2 818h206v-13h-206v13v0zM0 935q0 15 11 26.5t28 11.5q15 0 27 -11.5t12 -26.5q0 -16 -12 -27.5t-27 -11.5q-16 0 -27.5 11t-11.5 28v0z" />
<glyph unicode="&#xb4;" horiz-adv-x="1136" />
<glyph unicode="&#xb8;" horiz-adv-x="1136" />
<glyph unicode="&#xbb;" horiz-adv-x="202" d="M-2 7h206v-14h-206v14v0zM-2 211h206v-16h-206v16v0zM-2 414h206v-17h-206v17v0zM-2 616h206v-13h-206v13v0zM141 805h-54v-93h-26v93h-63v13h63v46l-39 -12v87l39 9v115l-39 -9v83l39 9v159h26v-153l54 15v156h25v-152l38 11v-82l-38 -11v-116l38 12v-87l-38 -9v-71h38 v-13h-38v-68h-25v68v0zM87 818h54v67l-54 -15v-52v0zM87 1071v-116l54 13v116l-54 -13v0z" />
<glyph unicode="&#x2c6;" horiz-adv-x="202" d="M-2 7h206v-14h-206v14v0zM-2 211h206v-16h-206v16v0zM-2 414h206v-17h-206v17v0zM-2 616h206v-13h-206v13v0zM200 818h4v-13h-4v-80h-25v80h-177v13h177v73l-118 -30v432h25v-167l118 28v-336v0zM82 1048v-102l93 22v103l-93 -23v0z" />
<glyph unicode="&#x2da;" horiz-adv-x="1136" />
<glyph unicode="&#x2dc;" horiz-adv-x="202" d="M-2 7h206v-14h-206v14v0zM-2 211h206v-16h-206v16v0zM-2 414h206v-17h-206v17v0zM-2 616h206v-13h-206v13v0zM57 805h-59v13h59v382h25v-168l118 29v-243h4v-13h-4v-173h-25v166l-118 -30v37v0zM82 955v-103l93 23v103l-93 -23v0z" />
<glyph unicode="&#x2013;" horiz-adv-x="202" d="M-2 7h206v-14h-206v14v0zM-2 211h206v-16h-206v16v0zM-2 414h206v-17h-206v17v0zM0 525q0 18 11 28.5t28 10.5q15 0 27 -10.5t12 -28.5q0 -16 -12 -26.5t-27 -10.5q-16 0 -27.5 10.5t-11.5 26.5v0zM-2 616h206v-13h-206v13v0zM-2 818h206v-13h-206v13v0z" />
<glyph unicode="&#x2014;" horiz-adv-x="202" d="M141 -700v145l-54 -13v-157h-26v150l-39 -9v83l39 13v115l-39 -11v82l39 11v157h26v-150l54 13v158h25v-153l38 10v-83l-38 -8v-117l38 9v-83l-38 -10v-152h-25v0zM87 -366v-118l54 16v116l-54 -14v0zM-2 7h206v-14h-206v14v0zM-2 211h206v-16h-206v16v0zM-2 414h206v-17 h-206v17v0zM-2 616h206v-13h-206v13v0zM-2 818h206v-13h-206v13v0z" />
<glyph unicode="&#x2018;" horiz-adv-x="1136" />
<glyph unicode="&#x2019;" horiz-adv-x="202" d="M-2 7h206v-14h-206v14v0zM-2 211h206v-16h-206v16v0zM-2 414h206v-17h-206v17v0zM22 805h-24v13h24v9l39 10v115l-39 -8v82l39 9v158h26v-152l54 13v160h25v-153l38 10v-82l-38 -9v-116l38 8v-54v-13v-16l-38 -10v-152h-25v146l-54 -14v-143h117v-13h-117v-2h-26v2h-63 v13h63v137l-39 -9v61v0zM87 959v-115l54 13v116l-54 -14v0z" />
<glyph unicode="&#x201a;" horiz-adv-x="202" d="M141 -814v146l-54 -14v-157h-26v150l-39 -9v84l39 11v117l-39 -12v82l39 11v157h26v-149l54 13v156h25v-152l38 9v-82l-38 -9v-115l38 9v-85l-38 -9v-152h-25v0zM87 -480v-118l54 16v116l-54 -14v0zM-2 7h206v-14h-206v14v0zM-2 211h206v-16h-206v16v0zM-2 414h206v-17 h-206v17v0zM-2 616h206v-13h-206v13v0zM-2 818h206v-13h-206v13v0z" />
<glyph unicode="&#x201c;" horiz-adv-x="1136" />
<glyph unicode="&#x201d;" horiz-adv-x="202" d="M-2 7h206v-14h-206v14v0zM-2 211h206v-16h-206v16v0zM-2 414h206v-17h-206v17v0zM166 805v-46l38 9v-84l-38 -9v-59h38v-13h-38v-80h-25v80h-54v-105h-26v105h-63v13h63v32l-39 -10v85l39 12v70h-63v13h63v32l-39 -11v81l39 12v157h26v-150l54 13v157h25v-152l38 9v-81 l-38 -10v-57h38v-13h-38v0zM87 616h54v52l-54 -13v-39v0zM141 805h-54v-66l54 14v52v0zM87 818h54v52l-54 -15v-37v0z" />
<glyph unicode="&#x201e;" horiz-adv-x="202" d="M37 -7h-39v14h63v150h26v-150h6l48 13v158h25v-152l38 8v-27v-14v-41l-38 -9v-116l38 10v-85l-38 -8v-154h-25v146l-54 -14v-156h-26v150l-39 -9v84l39 9v118l-39 -11v82l15 4v0zM87 -78v-115l54 13v117l-54 -15v0zM-2 211h206v-16h-206v16v0zM-2 414h206v-17h-206v17v0z M-2 616h206v-13h-206v13v0zM-2 818h206v-13h-206v13v0z" />
<glyph unicode="&#x2022;" horiz-adv-x="202" d="M-2 7h206v-14h-206v14v0zM0 145q0 16 11 27.5t28 11.5q15 0 27 -11.5t12 -27.5q0 -15 -12 -26.5t-27 -11.5q-16 0 -27.5 11.5t-11.5 26.5v0zM-2 211h206v-16h-206v16v0zM-2 414h206v-17h-206v17v0zM-2 616h206v-13h-206v13v0zM-2 818h206v-13h-206v13v0z" />
<glyph unicode="&#x2026;" horiz-adv-x="1136" />
<glyph unicode="&#x2039;" horiz-adv-x="202" d="M-2 7h206v-14h-206v14v0zM-2 211h206v-16h-206v16v0zM-2 414h206v-17h-206v17v0zM41 805h-43v13h43v296h24v-296h37q9 5 17.5 7t17.5 2h4h4q5 -2 10.5 -3t7.5 -6h41v-13h-22q7 -7 12.5 -16.5t5.5 -18.5q2 -2 2 -5.5v-5.5q-2 -30 -20.5 -53.5t-38.5 -39.5q-6 -7 -12 -10 t-10 -8q-4 -4 -9 -8t-8 -8q-4 -5 -8.5 -8.5t-8.5 -7.5h117v-13h-134q-2 -5 -6.5 -10t-6.5 -7q-5 -4 -8 -7.5t-8 -7.5v32h-43v13h43v189v0zM65 759v-136q7 9 15.5 18t14.5 18q14 16 24.5 32t17.5 32q2 6 3 13.5t1 13.5q0 18 -9 31t-23 15h-5.5t-5.5 -2q-7 -3 -13.5 -9 t-11.5 -10q-2 -5 -5 -9.5t-3 -6.5v0z" />
<glyph unicode="&#x203a;" horiz-adv-x="202" d="M-2 7h206v-14h-206v14v0zM-2 211h206v-16h-206v16v0zM-2 414h206v-17h-206v17v0zM-2 616h206v-13h-206v13v0zM189 805q-7 -14 -19.5 -26.5t-24.5 -21.5q-6 -7 -11.5 -11.5t-12.5 -8.5q-13 -9 -26 -21.5t-25 -23.5q-7 -9 -14.5 -17.5t-14.5 -15.5v146h-43v13h43v384h24 v-317q16 11 33 21t39 10q25 0 45 -20.5t20 -47.5v-6.5t-2 -6.5q0 -5 -1 -8.5t-4 -8.5h9v-13h-2h-4h-7h-2v0zM132 805h-67v-91q7 6 14.5 14.5t13.5 17.5q11 13 21.5 28t17.5 31v0zM65 818h74q2 7 2 13v10q0 18 -9 29.5t-23 14.5h-5.5t-5.5 -3q-7 -2 -13.5 -8t-11.5 -10 q-2 -5 -5 -9.5t-3 -6.5v-30v0z" />
<glyph unicode="&#x2122;" horiz-adv-x="202" d="M0 -464q0 18 11 29.5t28 11.5q15 0 27 -11t12 -28q0 -15 -12 -27t-27 -12q-16 0 -27.5 12t-11.5 27v-2zM-2 7h206v-14h-206v14v0zM-2 211h206v-16h-206v16v0zM-2 414h206v-17h-206v17v0zM-2 616h206v-13h-206v13v0zM-2 818h206v-13h-206v13v0z" />
<glyph unicode="&#x25fc;" horiz-adv-x="909" d="M0 909h909v-909h-909v909z" />
</font>
</defs>
</svg>
